G04 EAGLE Gerber RS-274X export*
G75*
%MOMM*%
%FSLAX34Y34*%
%LPD*%
%INSolderpaste Bottom*%
%IPPOS*%
%AMOC8*
5,1,8,0,0,1.08239X$1,22.5*%
G01*
%ADD10R,0.762000X0.685800*%
%ADD11R,0.965200X1.524000*%
%ADD12R,0.685800X0.762000*%
%ADD13R,1.219200X1.879600*%
%ADD14R,1.879600X1.219200*%
%ADD15R,1.066800X0.889000*%
%ADD16R,0.889000X1.066800*%
%ADD17R,1.600000X0.760000*%
%ADD18R,1.524000X0.965200*%
%ADD19R,1.000000X0.550000*%
%ADD20R,1.200000X0.350000*%
%ADD21R,0.760000X1.270000*%
%ADD22R,1.651000X2.794000*%
%ADD23R,0.250000X0.500000*%
%ADD24R,0.700000X0.900000*%
%ADD25R,3.000000X1.800000*%


D10*
X-482000Y354334D03*
X-482000Y343666D03*
X-294000Y412334D03*
X-294000Y401666D03*
X-428000Y410334D03*
X-428000Y399666D03*
D11*
X-275414Y364000D03*
X-254586Y364000D03*
D12*
X-260666Y388000D03*
X-271334Y388000D03*
D10*
X-273000Y413334D03*
X-273000Y402666D03*
X-259000Y413334D03*
X-259000Y402666D03*
D12*
X-293834Y531500D03*
X-283166Y531500D03*
D10*
X-347732Y513597D03*
X-347732Y502929D03*
D12*
X-358202Y533250D03*
X-368870Y533250D03*
D13*
X-424528Y504237D03*
X-391508Y504237D03*
D12*
X-358184Y544237D03*
X-368852Y544237D03*
D10*
X-340763Y573684D03*
X-340763Y584352D03*
D13*
X-298510Y509500D03*
X-265490Y509500D03*
D12*
X-358166Y555500D03*
X-368834Y555500D03*
D10*
X-328000Y573666D03*
X-328000Y584334D03*
D14*
X-330500Y645510D03*
X-330500Y612490D03*
D10*
X-304018Y581903D03*
X-304018Y592571D03*
D11*
X-257191Y594055D03*
X-278019Y594055D03*
D10*
X-314768Y512071D03*
X-314768Y501403D03*
D15*
X-359250Y628110D03*
X-359250Y610838D03*
D16*
X-410904Y524737D03*
X-393632Y524737D03*
D10*
X77348Y495332D03*
X77348Y506000D03*
X64652Y525668D03*
X64652Y515000D03*
D17*
X-424000Y462000D03*
X-373200Y462000D03*
D12*
X-143666Y86000D03*
X-154334Y86000D03*
X-177334Y86000D03*
X-166666Y86000D03*
X-298666Y100000D03*
X-309334Y100000D03*
D10*
X-265000Y101666D03*
X-265000Y112334D03*
D12*
X-309334Y126000D03*
X-298666Y126000D03*
X-309334Y113000D03*
X-298666Y113000D03*
D11*
X-263586Y133000D03*
X-284414Y133000D03*
D12*
X-268666Y150000D03*
X-279334Y150000D03*
D11*
X-438414Y116000D03*
X-417586Y116000D03*
D12*
X-433334Y133000D03*
X-422666Y133000D03*
D18*
X-338000Y70586D03*
X-338000Y91414D03*
D11*
X-264586Y167000D03*
X-285414Y167000D03*
D10*
X-330000Y124334D03*
X-330000Y113666D03*
D11*
X-340586Y203000D03*
X-361414Y203000D03*
D12*
X-298666Y139000D03*
X-309334Y139000D03*
D18*
X-372000Y70586D03*
X-372000Y91414D03*
D11*
X-437414Y198000D03*
X-416586Y198000D03*
D18*
X-375000Y243414D03*
X-375000Y222586D03*
D10*
X-355000Y74666D03*
X-355000Y85334D03*
D12*
X-432334Y178000D03*
X-421666Y178000D03*
D10*
X-359000Y238334D03*
X-359000Y227666D03*
D12*
X-316334Y187000D03*
X-305666Y187000D03*
D11*
G36*
X-313436Y287339D02*
X-306611Y294164D01*
X-295836Y283389D01*
X-302661Y276564D01*
X-313436Y287339D01*
G37*
G36*
X-328164Y272611D02*
X-321339Y279436D01*
X-310564Y268661D01*
X-317389Y261836D01*
X-328164Y272611D01*
G37*
D12*
G36*
X-326959Y258346D02*
X-322110Y253497D01*
X-327497Y248110D01*
X-332346Y252959D01*
X-326959Y258346D01*
G37*
G36*
X-334503Y265890D02*
X-329654Y261041D01*
X-335041Y255654D01*
X-339890Y260503D01*
X-334503Y265890D01*
G37*
D11*
G36*
X-352661Y335436D02*
X-345836Y328611D01*
X-356611Y317836D01*
X-363436Y324661D01*
X-352661Y335436D01*
G37*
G36*
X-367389Y350164D02*
X-360564Y343339D01*
X-371339Y332564D01*
X-378164Y339389D01*
X-367389Y350164D01*
G37*
G36*
X-363564Y264661D02*
X-370389Y257836D01*
X-381164Y268611D01*
X-374339Y275436D01*
X-363564Y264661D01*
G37*
G36*
X-348836Y279389D02*
X-355661Y272564D01*
X-366436Y283339D01*
X-359611Y290164D01*
X-348836Y279389D01*
G37*
D12*
G36*
X-329346Y308041D02*
X-324497Y312890D01*
X-319110Y307503D01*
X-323959Y302654D01*
X-329346Y308041D01*
G37*
G36*
X-336890Y300497D02*
X-332041Y305346D01*
X-326654Y299959D01*
X-331503Y295110D01*
X-336890Y300497D01*
G37*
D11*
G36*
X-367661Y320436D02*
X-360836Y313611D01*
X-371611Y302836D01*
X-378436Y309661D01*
X-367661Y320436D01*
G37*
G36*
X-382389Y335164D02*
X-375564Y328339D01*
X-386339Y317564D01*
X-393164Y324389D01*
X-382389Y335164D01*
G37*
G36*
X-382661Y305436D02*
X-375836Y298611D01*
X-386611Y287836D01*
X-393436Y294661D01*
X-382661Y305436D01*
G37*
G36*
X-397389Y320164D02*
X-390564Y313339D01*
X-401339Y302564D01*
X-408164Y309389D01*
X-397389Y320164D01*
G37*
D12*
X-339334Y239000D03*
X-328666Y239000D03*
X-68666Y278000D03*
X-79334Y278000D03*
X-79334Y267000D03*
X-68666Y267000D03*
X-343666Y113000D03*
X-354334Y113000D03*
D14*
X-349000Y129490D03*
X-349000Y162510D03*
D19*
X-395500Y113500D03*
X-395500Y123000D03*
X-395500Y132500D03*
X-368500Y132500D03*
X-368500Y113500D03*
D18*
X-75000Y603586D03*
X-75000Y624414D03*
D10*
X-50000Y613666D03*
X-50000Y624334D03*
D20*
X89250Y460750D03*
X89250Y454250D03*
X89250Y447750D03*
X89250Y441250D03*
X30750Y441250D03*
X30750Y447750D03*
X30750Y454250D03*
X30750Y460750D03*
D10*
X32000Y484334D03*
X32000Y473666D03*
X-463000Y248666D03*
X-463000Y259334D03*
X-526000Y250666D03*
X-526000Y261334D03*
X-482000Y179666D03*
X-482000Y190334D03*
X-506000Y179666D03*
X-506000Y190334D03*
X-486000Y109666D03*
X-486000Y120334D03*
X-507000Y109666D03*
X-507000Y120334D03*
X-105500Y455666D03*
X-105500Y466334D03*
D18*
X-88000Y495914D03*
X-88000Y475086D03*
D10*
X-120500Y383834D03*
X-120500Y373166D03*
D12*
X-408266Y483800D03*
X-418934Y483800D03*
D17*
X-233000Y343500D03*
X-182200Y343500D03*
D12*
X-79334Y300000D03*
X-68666Y300000D03*
X-79334Y245000D03*
X-68666Y245000D03*
D21*
X67350Y409100D03*
X54650Y409100D03*
X67350Y332900D03*
X54650Y332900D03*
D10*
X89000Y412666D03*
X89000Y423334D03*
X33000Y412666D03*
X33000Y423334D03*
D12*
X-79334Y289000D03*
X-68666Y289000D03*
X-79334Y256000D03*
X-68666Y256000D03*
D10*
X-24000Y567334D03*
X-24000Y556666D03*
X-12000Y567334D03*
X-12000Y556666D03*
D12*
X-303666Y23000D03*
X-314334Y23000D03*
D10*
X-275000Y40334D03*
X-275000Y29666D03*
X-286000Y40334D03*
X-286000Y29666D03*
D12*
X-303666Y11000D03*
X-314334Y11000D03*
D10*
X-346000Y19334D03*
X-346000Y8666D03*
X-346000Y-16334D03*
X-346000Y-5666D03*
X-288000Y-20334D03*
X-288000Y-9666D03*
D12*
X-254666Y575000D03*
X-265334Y575000D03*
D15*
X-304000Y623636D03*
X-304000Y606364D03*
D12*
X-358166Y577500D03*
X-368834Y577500D03*
X-358166Y566500D03*
X-368834Y566500D03*
X-358666Y522000D03*
X-369334Y522000D03*
X-358666Y510500D03*
X-369334Y510500D03*
D13*
X-302490Y475000D03*
X-335510Y475000D03*
D18*
X-332000Y516914D03*
X-332000Y496086D03*
D13*
X-313010Y563000D03*
X-279990Y563000D03*
D12*
X-293834Y544000D03*
X-283166Y544000D03*
D15*
X-110500Y498636D03*
X-110500Y481364D03*
D10*
X-69000Y449334D03*
X-69000Y438666D03*
D12*
X-100834Y405500D03*
X-90166Y405500D03*
D10*
X-153000Y385834D03*
X-153000Y375166D03*
D12*
X-163166Y406000D03*
X-173834Y406000D03*
D13*
X-230010Y376000D03*
X-196990Y376000D03*
D10*
X-146000Y448166D03*
X-146000Y458834D03*
D12*
X-163166Y428500D03*
X-173834Y428500D03*
D13*
X-104510Y386000D03*
X-71490Y386000D03*
D12*
X-163166Y417500D03*
X-173834Y417500D03*
D10*
X-133500Y448166D03*
X-133500Y458834D03*
D14*
X-136500Y516010D03*
X-136500Y482990D03*
D15*
X-161000Y499136D03*
X-161000Y481864D03*
D16*
X-217636Y397000D03*
X-200364Y397000D03*
D12*
X-163166Y451000D03*
X-173834Y451000D03*
X-164166Y382500D03*
X-174834Y382500D03*
X-164166Y394000D03*
X-174834Y394000D03*
X-163166Y440000D03*
X-173834Y440000D03*
D13*
X-105490Y351500D03*
X-138510Y351500D03*
D18*
X-137000Y393414D03*
X-137000Y372586D03*
D13*
X-119010Y436500D03*
X-85990Y436500D03*
D12*
X-100834Y418000D03*
X-90166Y418000D03*
D13*
X-245490Y620000D03*
X-278510Y620000D03*
X-35490Y468500D03*
X-68510Y468500D03*
D12*
X-58334Y601000D03*
X-47666Y601000D03*
D22*
X-211470Y509000D03*
X-183530Y509000D03*
D13*
X-170490Y570000D03*
X-203510Y570000D03*
D14*
X-235000Y559010D03*
X-235000Y525990D03*
D23*
X-194000Y532000D03*
D24*
X-197000Y541500D03*
X-206000Y541500D03*
D23*
X-199000Y532000D03*
X-204000Y532000D03*
X-209000Y532000D03*
X-209000Y551000D03*
X-204000Y551000D03*
X-199000Y551000D03*
X-194000Y551000D03*
D25*
X24000Y542750D03*
X24000Y577250D03*
X81000Y560750D03*
X81000Y595250D03*
D10*
X333000Y354334D03*
X333000Y343666D03*
X521000Y412334D03*
X521000Y401666D03*
X387000Y410334D03*
X387000Y399666D03*
D11*
X539586Y364000D03*
X560414Y364000D03*
D12*
X554334Y388000D03*
X543666Y388000D03*
D10*
X542000Y413334D03*
X542000Y402666D03*
X556000Y413334D03*
X556000Y402666D03*
D12*
X521166Y531500D03*
X531834Y531500D03*
D10*
X467268Y513597D03*
X467268Y502929D03*
D12*
X456798Y533250D03*
X446130Y533250D03*
D13*
X390472Y504237D03*
X423492Y504237D03*
D12*
X456816Y544237D03*
X446148Y544237D03*
D10*
X474237Y573684D03*
X474237Y584352D03*
D13*
X516490Y509500D03*
X549510Y509500D03*
D12*
X456834Y555500D03*
X446166Y555500D03*
D10*
X487000Y573666D03*
X487000Y584334D03*
D14*
X484500Y645510D03*
X484500Y612490D03*
D10*
X510982Y581903D03*
X510982Y592571D03*
D11*
X557809Y594055D03*
X536981Y594055D03*
D10*
X500232Y512071D03*
X500232Y501403D03*
D15*
X455750Y628110D03*
X455750Y610838D03*
D16*
X404096Y524737D03*
X421368Y524737D03*
D10*
X892348Y495332D03*
X892348Y506000D03*
X879652Y525668D03*
X879652Y515000D03*
D17*
X391000Y462000D03*
X441800Y462000D03*
D12*
X671334Y86000D03*
X660666Y86000D03*
X637666Y86000D03*
X648334Y86000D03*
X516334Y100000D03*
X505666Y100000D03*
D10*
X550000Y101666D03*
X550000Y112334D03*
D12*
X505666Y126000D03*
X516334Y126000D03*
X505666Y113000D03*
X516334Y113000D03*
D11*
X551414Y133000D03*
X530586Y133000D03*
D12*
X546334Y150000D03*
X535666Y150000D03*
D11*
X376586Y116000D03*
X397414Y116000D03*
D12*
X381666Y133000D03*
X392334Y133000D03*
D18*
X477000Y70586D03*
X477000Y91414D03*
D11*
X550414Y167000D03*
X529586Y167000D03*
D10*
X485000Y124334D03*
X485000Y113666D03*
D11*
X474414Y203000D03*
X453586Y203000D03*
D12*
X516334Y139000D03*
X505666Y139000D03*
D18*
X443000Y70586D03*
X443000Y91414D03*
D11*
X377586Y198000D03*
X398414Y198000D03*
D18*
X440000Y243414D03*
X440000Y222586D03*
D10*
X460000Y74666D03*
X460000Y85334D03*
D12*
X382666Y178000D03*
X393334Y178000D03*
D10*
X456000Y238334D03*
X456000Y227666D03*
D12*
X498666Y187000D03*
X509334Y187000D03*
D11*
G36*
X501564Y287339D02*
X508389Y294164D01*
X519164Y283389D01*
X512339Y276564D01*
X501564Y287339D01*
G37*
G36*
X486836Y272611D02*
X493661Y279436D01*
X504436Y268661D01*
X497611Y261836D01*
X486836Y272611D01*
G37*
D12*
G36*
X488041Y258346D02*
X492890Y253497D01*
X487503Y248110D01*
X482654Y252959D01*
X488041Y258346D01*
G37*
G36*
X480497Y265890D02*
X485346Y261041D01*
X479959Y255654D01*
X475110Y260503D01*
X480497Y265890D01*
G37*
D11*
G36*
X462339Y335436D02*
X469164Y328611D01*
X458389Y317836D01*
X451564Y324661D01*
X462339Y335436D01*
G37*
G36*
X447611Y350164D02*
X454436Y343339D01*
X443661Y332564D01*
X436836Y339389D01*
X447611Y350164D01*
G37*
G36*
X451436Y264661D02*
X444611Y257836D01*
X433836Y268611D01*
X440661Y275436D01*
X451436Y264661D01*
G37*
G36*
X466164Y279389D02*
X459339Y272564D01*
X448564Y283339D01*
X455389Y290164D01*
X466164Y279389D01*
G37*
D12*
G36*
X485654Y308041D02*
X490503Y312890D01*
X495890Y307503D01*
X491041Y302654D01*
X485654Y308041D01*
G37*
G36*
X478110Y300497D02*
X482959Y305346D01*
X488346Y299959D01*
X483497Y295110D01*
X478110Y300497D01*
G37*
D11*
G36*
X447339Y320436D02*
X454164Y313611D01*
X443389Y302836D01*
X436564Y309661D01*
X447339Y320436D01*
G37*
G36*
X432611Y335164D02*
X439436Y328339D01*
X428661Y317564D01*
X421836Y324389D01*
X432611Y335164D01*
G37*
G36*
X432339Y305436D02*
X439164Y298611D01*
X428389Y287836D01*
X421564Y294661D01*
X432339Y305436D01*
G37*
G36*
X417611Y320164D02*
X424436Y313339D01*
X413661Y302564D01*
X406836Y309389D01*
X417611Y320164D01*
G37*
D12*
X475666Y239000D03*
X486334Y239000D03*
X746334Y278000D03*
X735666Y278000D03*
X735666Y267000D03*
X746334Y267000D03*
X471334Y113000D03*
X460666Y113000D03*
D14*
X466000Y129490D03*
X466000Y162510D03*
D19*
X419500Y113500D03*
X419500Y123000D03*
X419500Y132500D03*
X446500Y132500D03*
X446500Y113500D03*
D18*
X740000Y603586D03*
X740000Y624414D03*
D10*
X765000Y613666D03*
X765000Y624334D03*
D20*
X904250Y460750D03*
X904250Y454250D03*
X904250Y447750D03*
X904250Y441250D03*
X845750Y441250D03*
X845750Y447750D03*
X845750Y454250D03*
X845750Y460750D03*
D10*
X847000Y484334D03*
X847000Y473666D03*
X352000Y248666D03*
X352000Y259334D03*
X289000Y250666D03*
X289000Y261334D03*
X333000Y179666D03*
X333000Y190334D03*
X309000Y179666D03*
X309000Y190334D03*
X329000Y109666D03*
X329000Y120334D03*
X308000Y109666D03*
X308000Y120334D03*
X709500Y455666D03*
X709500Y466334D03*
D18*
X727000Y495914D03*
X727000Y475086D03*
D10*
X694500Y383834D03*
X694500Y373166D03*
D12*
X406734Y483800D03*
X396066Y483800D03*
D17*
X582000Y343500D03*
X632800Y343500D03*
D12*
X735666Y300000D03*
X746334Y300000D03*
X735666Y245000D03*
X746334Y245000D03*
D21*
X882350Y409100D03*
X869650Y409100D03*
X882350Y332900D03*
X869650Y332900D03*
D10*
X904000Y412666D03*
X904000Y423334D03*
X848000Y412666D03*
X848000Y423334D03*
D12*
X735666Y289000D03*
X746334Y289000D03*
X735666Y256000D03*
X746334Y256000D03*
D10*
X791000Y567334D03*
X791000Y556666D03*
X803000Y567334D03*
X803000Y556666D03*
D12*
X511334Y23000D03*
X500666Y23000D03*
D10*
X540000Y40334D03*
X540000Y29666D03*
X529000Y40334D03*
X529000Y29666D03*
D12*
X511334Y11000D03*
X500666Y11000D03*
D10*
X469000Y19334D03*
X469000Y8666D03*
X469000Y-16334D03*
X469000Y-5666D03*
X527000Y-20334D03*
X527000Y-9666D03*
D12*
X560334Y575000D03*
X549666Y575000D03*
D15*
X511000Y623636D03*
X511000Y606364D03*
D12*
X456834Y577500D03*
X446166Y577500D03*
X456834Y566500D03*
X446166Y566500D03*
X456334Y522000D03*
X445666Y522000D03*
X456334Y510500D03*
X445666Y510500D03*
D13*
X512510Y475000D03*
X479490Y475000D03*
D18*
X483000Y516914D03*
X483000Y496086D03*
D13*
X501990Y563000D03*
X535010Y563000D03*
D12*
X521166Y544000D03*
X531834Y544000D03*
D15*
X704500Y498636D03*
X704500Y481364D03*
D10*
X746000Y449334D03*
X746000Y438666D03*
D12*
X714166Y405500D03*
X724834Y405500D03*
D10*
X662000Y385834D03*
X662000Y375166D03*
D12*
X651834Y406000D03*
X641166Y406000D03*
D13*
X584990Y376000D03*
X618010Y376000D03*
D10*
X669000Y448166D03*
X669000Y458834D03*
D12*
X651834Y428500D03*
X641166Y428500D03*
D13*
X710490Y386000D03*
X743510Y386000D03*
D12*
X651834Y417500D03*
X641166Y417500D03*
D10*
X681500Y448166D03*
X681500Y458834D03*
D14*
X678500Y516010D03*
X678500Y482990D03*
D15*
X654000Y499136D03*
X654000Y481864D03*
D16*
X597364Y397000D03*
X614636Y397000D03*
D12*
X651834Y451000D03*
X641166Y451000D03*
X650834Y382500D03*
X640166Y382500D03*
X650834Y394000D03*
X640166Y394000D03*
X651834Y440000D03*
X641166Y440000D03*
D13*
X709510Y351500D03*
X676490Y351500D03*
D18*
X678000Y393414D03*
X678000Y372586D03*
D13*
X695990Y436500D03*
X729010Y436500D03*
D12*
X714166Y418000D03*
X724834Y418000D03*
D13*
X569510Y620000D03*
X536490Y620000D03*
X779510Y468500D03*
X746490Y468500D03*
D12*
X756666Y601000D03*
X767334Y601000D03*
D22*
X603530Y509000D03*
X631470Y509000D03*
D13*
X644510Y570000D03*
X611490Y570000D03*
D14*
X580000Y559010D03*
X580000Y525990D03*
D23*
X621000Y532000D03*
D24*
X618000Y541500D03*
X609000Y541500D03*
D23*
X616000Y532000D03*
X611000Y532000D03*
X606000Y532000D03*
X606000Y551000D03*
X611000Y551000D03*
X616000Y551000D03*
X621000Y551000D03*
D25*
X839000Y542750D03*
X839000Y577250D03*
X896000Y560750D03*
X896000Y595250D03*
D10*
X-482000Y1094334D03*
X-482000Y1083666D03*
X-294000Y1152334D03*
X-294000Y1141666D03*
X-428000Y1150334D03*
X-428000Y1139666D03*
D11*
X-275414Y1104000D03*
X-254586Y1104000D03*
D12*
X-260666Y1128000D03*
X-271334Y1128000D03*
D10*
X-273000Y1153334D03*
X-273000Y1142666D03*
X-259000Y1153334D03*
X-259000Y1142666D03*
D12*
X-293834Y1271500D03*
X-283166Y1271500D03*
D10*
X-347732Y1253597D03*
X-347732Y1242929D03*
D12*
X-358202Y1273250D03*
X-368870Y1273250D03*
D13*
X-424528Y1244237D03*
X-391508Y1244237D03*
D12*
X-358184Y1284237D03*
X-368852Y1284237D03*
D10*
X-340763Y1313684D03*
X-340763Y1324352D03*
D13*
X-298510Y1249500D03*
X-265490Y1249500D03*
D12*
X-358166Y1295500D03*
X-368834Y1295500D03*
D10*
X-328000Y1313666D03*
X-328000Y1324334D03*
D14*
X-330500Y1385510D03*
X-330500Y1352490D03*
D10*
X-304018Y1321903D03*
X-304018Y1332571D03*
D11*
X-257191Y1334055D03*
X-278019Y1334055D03*
D10*
X-314768Y1252071D03*
X-314768Y1241403D03*
D15*
X-359250Y1368110D03*
X-359250Y1350838D03*
D16*
X-410904Y1264737D03*
X-393632Y1264737D03*
D10*
X77348Y1235332D03*
X77348Y1246000D03*
X64652Y1265668D03*
X64652Y1255000D03*
D17*
X-424000Y1202000D03*
X-373200Y1202000D03*
D12*
X-143666Y826000D03*
X-154334Y826000D03*
X-177334Y826000D03*
X-166666Y826000D03*
X-298666Y840000D03*
X-309334Y840000D03*
D10*
X-265000Y841666D03*
X-265000Y852334D03*
D12*
X-309334Y866000D03*
X-298666Y866000D03*
X-309334Y853000D03*
X-298666Y853000D03*
D11*
X-263586Y873000D03*
X-284414Y873000D03*
D12*
X-268666Y890000D03*
X-279334Y890000D03*
D11*
X-438414Y856000D03*
X-417586Y856000D03*
D12*
X-433334Y873000D03*
X-422666Y873000D03*
D18*
X-338000Y810586D03*
X-338000Y831414D03*
D11*
X-264586Y907000D03*
X-285414Y907000D03*
D10*
X-330000Y864334D03*
X-330000Y853666D03*
D11*
X-340586Y943000D03*
X-361414Y943000D03*
D12*
X-298666Y879000D03*
X-309334Y879000D03*
D18*
X-372000Y810586D03*
X-372000Y831414D03*
D11*
X-437414Y938000D03*
X-416586Y938000D03*
D18*
X-375000Y983414D03*
X-375000Y962586D03*
D10*
X-355000Y814666D03*
X-355000Y825334D03*
D12*
X-432334Y918000D03*
X-421666Y918000D03*
D10*
X-359000Y978334D03*
X-359000Y967666D03*
D12*
X-316334Y927000D03*
X-305666Y927000D03*
D11*
G36*
X-313436Y1027339D02*
X-306611Y1034164D01*
X-295836Y1023389D01*
X-302661Y1016564D01*
X-313436Y1027339D01*
G37*
G36*
X-328164Y1012611D02*
X-321339Y1019436D01*
X-310564Y1008661D01*
X-317389Y1001836D01*
X-328164Y1012611D01*
G37*
D12*
G36*
X-326959Y998346D02*
X-322110Y993497D01*
X-327497Y988110D01*
X-332346Y992959D01*
X-326959Y998346D01*
G37*
G36*
X-334503Y1005890D02*
X-329654Y1001041D01*
X-335041Y995654D01*
X-339890Y1000503D01*
X-334503Y1005890D01*
G37*
D11*
G36*
X-352661Y1075436D02*
X-345836Y1068611D01*
X-356611Y1057836D01*
X-363436Y1064661D01*
X-352661Y1075436D01*
G37*
G36*
X-367389Y1090164D02*
X-360564Y1083339D01*
X-371339Y1072564D01*
X-378164Y1079389D01*
X-367389Y1090164D01*
G37*
G36*
X-363564Y1004661D02*
X-370389Y997836D01*
X-381164Y1008611D01*
X-374339Y1015436D01*
X-363564Y1004661D01*
G37*
G36*
X-348836Y1019389D02*
X-355661Y1012564D01*
X-366436Y1023339D01*
X-359611Y1030164D01*
X-348836Y1019389D01*
G37*
D12*
G36*
X-329346Y1048041D02*
X-324497Y1052890D01*
X-319110Y1047503D01*
X-323959Y1042654D01*
X-329346Y1048041D01*
G37*
G36*
X-336890Y1040497D02*
X-332041Y1045346D01*
X-326654Y1039959D01*
X-331503Y1035110D01*
X-336890Y1040497D01*
G37*
D11*
G36*
X-367661Y1060436D02*
X-360836Y1053611D01*
X-371611Y1042836D01*
X-378436Y1049661D01*
X-367661Y1060436D01*
G37*
G36*
X-382389Y1075164D02*
X-375564Y1068339D01*
X-386339Y1057564D01*
X-393164Y1064389D01*
X-382389Y1075164D01*
G37*
G36*
X-382661Y1045436D02*
X-375836Y1038611D01*
X-386611Y1027836D01*
X-393436Y1034661D01*
X-382661Y1045436D01*
G37*
G36*
X-397389Y1060164D02*
X-390564Y1053339D01*
X-401339Y1042564D01*
X-408164Y1049389D01*
X-397389Y1060164D01*
G37*
D12*
X-339334Y979000D03*
X-328666Y979000D03*
X-68666Y1018000D03*
X-79334Y1018000D03*
X-79334Y1007000D03*
X-68666Y1007000D03*
X-343666Y853000D03*
X-354334Y853000D03*
D14*
X-349000Y869490D03*
X-349000Y902510D03*
D19*
X-395500Y853500D03*
X-395500Y863000D03*
X-395500Y872500D03*
X-368500Y872500D03*
X-368500Y853500D03*
D18*
X-75000Y1343586D03*
X-75000Y1364414D03*
D10*
X-50000Y1353666D03*
X-50000Y1364334D03*
D20*
X89250Y1200750D03*
X89250Y1194250D03*
X89250Y1187750D03*
X89250Y1181250D03*
X30750Y1181250D03*
X30750Y1187750D03*
X30750Y1194250D03*
X30750Y1200750D03*
D10*
X32000Y1224334D03*
X32000Y1213666D03*
X-463000Y988666D03*
X-463000Y999334D03*
X-526000Y990666D03*
X-526000Y1001334D03*
X-482000Y919666D03*
X-482000Y930334D03*
X-506000Y919666D03*
X-506000Y930334D03*
X-486000Y849666D03*
X-486000Y860334D03*
X-507000Y849666D03*
X-507000Y860334D03*
X-105500Y1195666D03*
X-105500Y1206334D03*
D18*
X-88000Y1235914D03*
X-88000Y1215086D03*
D10*
X-120500Y1123834D03*
X-120500Y1113166D03*
D12*
X-408266Y1223800D03*
X-418934Y1223800D03*
D17*
X-233000Y1083500D03*
X-182200Y1083500D03*
D12*
X-79334Y1040000D03*
X-68666Y1040000D03*
X-79334Y985000D03*
X-68666Y985000D03*
D21*
X67350Y1149100D03*
X54650Y1149100D03*
X67350Y1072900D03*
X54650Y1072900D03*
D10*
X89000Y1152666D03*
X89000Y1163334D03*
X33000Y1152666D03*
X33000Y1163334D03*
D12*
X-79334Y1029000D03*
X-68666Y1029000D03*
X-79334Y996000D03*
X-68666Y996000D03*
D10*
X-24000Y1307334D03*
X-24000Y1296666D03*
X-12000Y1307334D03*
X-12000Y1296666D03*
D12*
X-303666Y763000D03*
X-314334Y763000D03*
D10*
X-275000Y780334D03*
X-275000Y769666D03*
X-286000Y780334D03*
X-286000Y769666D03*
D12*
X-303666Y751000D03*
X-314334Y751000D03*
D10*
X-346000Y759334D03*
X-346000Y748666D03*
X-346000Y723666D03*
X-346000Y734334D03*
X-288000Y719666D03*
X-288000Y730334D03*
D12*
X-254666Y1315000D03*
X-265334Y1315000D03*
D15*
X-304000Y1363636D03*
X-304000Y1346364D03*
D12*
X-358166Y1317500D03*
X-368834Y1317500D03*
X-358166Y1306500D03*
X-368834Y1306500D03*
X-358666Y1262000D03*
X-369334Y1262000D03*
X-358666Y1250500D03*
X-369334Y1250500D03*
D13*
X-302490Y1215000D03*
X-335510Y1215000D03*
D18*
X-332000Y1256914D03*
X-332000Y1236086D03*
D13*
X-313010Y1303000D03*
X-279990Y1303000D03*
D12*
X-293834Y1284000D03*
X-283166Y1284000D03*
D15*
X-110500Y1238636D03*
X-110500Y1221364D03*
D10*
X-69000Y1189334D03*
X-69000Y1178666D03*
D12*
X-100834Y1145500D03*
X-90166Y1145500D03*
D10*
X-153000Y1125834D03*
X-153000Y1115166D03*
D12*
X-163166Y1146000D03*
X-173834Y1146000D03*
D13*
X-230010Y1116000D03*
X-196990Y1116000D03*
D10*
X-146000Y1188166D03*
X-146000Y1198834D03*
D12*
X-163166Y1168500D03*
X-173834Y1168500D03*
D13*
X-104510Y1126000D03*
X-71490Y1126000D03*
D12*
X-163166Y1157500D03*
X-173834Y1157500D03*
D10*
X-133500Y1188166D03*
X-133500Y1198834D03*
D14*
X-136500Y1256010D03*
X-136500Y1222990D03*
D15*
X-161000Y1239136D03*
X-161000Y1221864D03*
D16*
X-217636Y1137000D03*
X-200364Y1137000D03*
D12*
X-163166Y1191000D03*
X-173834Y1191000D03*
X-164166Y1122500D03*
X-174834Y1122500D03*
X-164166Y1134000D03*
X-174834Y1134000D03*
X-163166Y1180000D03*
X-173834Y1180000D03*
D13*
X-105490Y1091500D03*
X-138510Y1091500D03*
D18*
X-137000Y1133414D03*
X-137000Y1112586D03*
D13*
X-119010Y1176500D03*
X-85990Y1176500D03*
D12*
X-100834Y1158000D03*
X-90166Y1158000D03*
D13*
X-245490Y1360000D03*
X-278510Y1360000D03*
X-35490Y1208500D03*
X-68510Y1208500D03*
D12*
X-58334Y1341000D03*
X-47666Y1341000D03*
D22*
X-211470Y1249000D03*
X-183530Y1249000D03*
D13*
X-170490Y1310000D03*
X-203510Y1310000D03*
D14*
X-235000Y1299010D03*
X-235000Y1265990D03*
D23*
X-194000Y1272000D03*
D24*
X-197000Y1281500D03*
X-206000Y1281500D03*
D23*
X-199000Y1272000D03*
X-204000Y1272000D03*
X-209000Y1272000D03*
X-209000Y1291000D03*
X-204000Y1291000D03*
X-199000Y1291000D03*
X-194000Y1291000D03*
D25*
X24000Y1282750D03*
X24000Y1317250D03*
X81000Y1300750D03*
X81000Y1335250D03*
D10*
X333000Y1094334D03*
X333000Y1083666D03*
X521000Y1152334D03*
X521000Y1141666D03*
X387000Y1150334D03*
X387000Y1139666D03*
D11*
X539586Y1104000D03*
X560414Y1104000D03*
D12*
X554334Y1128000D03*
X543666Y1128000D03*
D10*
X542000Y1153334D03*
X542000Y1142666D03*
X556000Y1153334D03*
X556000Y1142666D03*
D12*
X521166Y1271500D03*
X531834Y1271500D03*
D10*
X467268Y1253597D03*
X467268Y1242929D03*
D12*
X456798Y1273250D03*
X446130Y1273250D03*
D13*
X390472Y1244237D03*
X423492Y1244237D03*
D12*
X456816Y1284237D03*
X446148Y1284237D03*
D10*
X474237Y1313684D03*
X474237Y1324352D03*
D13*
X516490Y1249500D03*
X549510Y1249500D03*
D12*
X456834Y1295500D03*
X446166Y1295500D03*
D10*
X487000Y1313666D03*
X487000Y1324334D03*
D14*
X484500Y1385510D03*
X484500Y1352490D03*
D10*
X510982Y1321903D03*
X510982Y1332571D03*
D11*
X557809Y1334055D03*
X536981Y1334055D03*
D10*
X500232Y1252071D03*
X500232Y1241403D03*
D15*
X455750Y1368110D03*
X455750Y1350838D03*
D16*
X404096Y1264737D03*
X421368Y1264737D03*
D10*
X892348Y1235332D03*
X892348Y1246000D03*
X879652Y1265668D03*
X879652Y1255000D03*
D17*
X391000Y1202000D03*
X441800Y1202000D03*
D12*
X671334Y826000D03*
X660666Y826000D03*
X637666Y826000D03*
X648334Y826000D03*
X516334Y840000D03*
X505666Y840000D03*
D10*
X550000Y841666D03*
X550000Y852334D03*
D12*
X505666Y866000D03*
X516334Y866000D03*
X505666Y853000D03*
X516334Y853000D03*
D11*
X551414Y873000D03*
X530586Y873000D03*
D12*
X546334Y890000D03*
X535666Y890000D03*
D11*
X376586Y856000D03*
X397414Y856000D03*
D12*
X381666Y873000D03*
X392334Y873000D03*
D18*
X477000Y810586D03*
X477000Y831414D03*
D11*
X550414Y907000D03*
X529586Y907000D03*
D10*
X485000Y864334D03*
X485000Y853666D03*
D11*
X474414Y943000D03*
X453586Y943000D03*
D12*
X516334Y879000D03*
X505666Y879000D03*
D18*
X443000Y810586D03*
X443000Y831414D03*
D11*
X377586Y938000D03*
X398414Y938000D03*
D18*
X440000Y983414D03*
X440000Y962586D03*
D10*
X460000Y814666D03*
X460000Y825334D03*
D12*
X382666Y918000D03*
X393334Y918000D03*
D10*
X456000Y978334D03*
X456000Y967666D03*
D12*
X498666Y927000D03*
X509334Y927000D03*
D11*
G36*
X501564Y1027339D02*
X508389Y1034164D01*
X519164Y1023389D01*
X512339Y1016564D01*
X501564Y1027339D01*
G37*
G36*
X486836Y1012611D02*
X493661Y1019436D01*
X504436Y1008661D01*
X497611Y1001836D01*
X486836Y1012611D01*
G37*
D12*
G36*
X488041Y998346D02*
X492890Y993497D01*
X487503Y988110D01*
X482654Y992959D01*
X488041Y998346D01*
G37*
G36*
X480497Y1005890D02*
X485346Y1001041D01*
X479959Y995654D01*
X475110Y1000503D01*
X480497Y1005890D01*
G37*
D11*
G36*
X462339Y1075436D02*
X469164Y1068611D01*
X458389Y1057836D01*
X451564Y1064661D01*
X462339Y1075436D01*
G37*
G36*
X447611Y1090164D02*
X454436Y1083339D01*
X443661Y1072564D01*
X436836Y1079389D01*
X447611Y1090164D01*
G37*
G36*
X451436Y1004661D02*
X444611Y997836D01*
X433836Y1008611D01*
X440661Y1015436D01*
X451436Y1004661D01*
G37*
G36*
X466164Y1019389D02*
X459339Y1012564D01*
X448564Y1023339D01*
X455389Y1030164D01*
X466164Y1019389D01*
G37*
D12*
G36*
X485654Y1048041D02*
X490503Y1052890D01*
X495890Y1047503D01*
X491041Y1042654D01*
X485654Y1048041D01*
G37*
G36*
X478110Y1040497D02*
X482959Y1045346D01*
X488346Y1039959D01*
X483497Y1035110D01*
X478110Y1040497D01*
G37*
D11*
G36*
X447339Y1060436D02*
X454164Y1053611D01*
X443389Y1042836D01*
X436564Y1049661D01*
X447339Y1060436D01*
G37*
G36*
X432611Y1075164D02*
X439436Y1068339D01*
X428661Y1057564D01*
X421836Y1064389D01*
X432611Y1075164D01*
G37*
G36*
X432339Y1045436D02*
X439164Y1038611D01*
X428389Y1027836D01*
X421564Y1034661D01*
X432339Y1045436D01*
G37*
G36*
X417611Y1060164D02*
X424436Y1053339D01*
X413661Y1042564D01*
X406836Y1049389D01*
X417611Y1060164D01*
G37*
D12*
X475666Y979000D03*
X486334Y979000D03*
X746334Y1018000D03*
X735666Y1018000D03*
X735666Y1007000D03*
X746334Y1007000D03*
X471334Y853000D03*
X460666Y853000D03*
D14*
X466000Y869490D03*
X466000Y902510D03*
D19*
X419500Y853500D03*
X419500Y863000D03*
X419500Y872500D03*
X446500Y872500D03*
X446500Y853500D03*
D18*
X740000Y1343586D03*
X740000Y1364414D03*
D10*
X765000Y1353666D03*
X765000Y1364334D03*
D20*
X904250Y1200750D03*
X904250Y1194250D03*
X904250Y1187750D03*
X904250Y1181250D03*
X845750Y1181250D03*
X845750Y1187750D03*
X845750Y1194250D03*
X845750Y1200750D03*
D10*
X847000Y1224334D03*
X847000Y1213666D03*
X352000Y988666D03*
X352000Y999334D03*
X289000Y990666D03*
X289000Y1001334D03*
X333000Y919666D03*
X333000Y930334D03*
X309000Y919666D03*
X309000Y930334D03*
X329000Y849666D03*
X329000Y860334D03*
X308000Y849666D03*
X308000Y860334D03*
X709500Y1195666D03*
X709500Y1206334D03*
D18*
X727000Y1235914D03*
X727000Y1215086D03*
D10*
X694500Y1123834D03*
X694500Y1113166D03*
D12*
X406734Y1223800D03*
X396066Y1223800D03*
D17*
X582000Y1083500D03*
X632800Y1083500D03*
D12*
X735666Y1040000D03*
X746334Y1040000D03*
X735666Y985000D03*
X746334Y985000D03*
D21*
X882350Y1149100D03*
X869650Y1149100D03*
X882350Y1072900D03*
X869650Y1072900D03*
D10*
X904000Y1152666D03*
X904000Y1163334D03*
X848000Y1152666D03*
X848000Y1163334D03*
D12*
X735666Y1029000D03*
X746334Y1029000D03*
X735666Y996000D03*
X746334Y996000D03*
D10*
X791000Y1307334D03*
X791000Y1296666D03*
X803000Y1307334D03*
X803000Y1296666D03*
D12*
X511334Y763000D03*
X500666Y763000D03*
D10*
X540000Y780334D03*
X540000Y769666D03*
X529000Y780334D03*
X529000Y769666D03*
D12*
X511334Y751000D03*
X500666Y751000D03*
D10*
X469000Y759334D03*
X469000Y748666D03*
X469000Y723666D03*
X469000Y734334D03*
X527000Y719666D03*
X527000Y730334D03*
D12*
X560334Y1315000D03*
X549666Y1315000D03*
D15*
X511000Y1363636D03*
X511000Y1346364D03*
D12*
X456834Y1317500D03*
X446166Y1317500D03*
X456834Y1306500D03*
X446166Y1306500D03*
X456334Y1262000D03*
X445666Y1262000D03*
X456334Y1250500D03*
X445666Y1250500D03*
D13*
X512510Y1215000D03*
X479490Y1215000D03*
D18*
X483000Y1256914D03*
X483000Y1236086D03*
D13*
X501990Y1303000D03*
X535010Y1303000D03*
D12*
X521166Y1284000D03*
X531834Y1284000D03*
D15*
X704500Y1238636D03*
X704500Y1221364D03*
D10*
X746000Y1189334D03*
X746000Y1178666D03*
D12*
X714166Y1145500D03*
X724834Y1145500D03*
D10*
X662000Y1125834D03*
X662000Y1115166D03*
D12*
X651834Y1146000D03*
X641166Y1146000D03*
D13*
X584990Y1116000D03*
X618010Y1116000D03*
D10*
X669000Y1188166D03*
X669000Y1198834D03*
D12*
X651834Y1168500D03*
X641166Y1168500D03*
D13*
X710490Y1126000D03*
X743510Y1126000D03*
D12*
X651834Y1157500D03*
X641166Y1157500D03*
D10*
X681500Y1188166D03*
X681500Y1198834D03*
D14*
X678500Y1256010D03*
X678500Y1222990D03*
D15*
X654000Y1239136D03*
X654000Y1221864D03*
D16*
X597364Y1137000D03*
X614636Y1137000D03*
D12*
X651834Y1191000D03*
X641166Y1191000D03*
X650834Y1122500D03*
X640166Y1122500D03*
X650834Y1134000D03*
X640166Y1134000D03*
X651834Y1180000D03*
X641166Y1180000D03*
D13*
X709510Y1091500D03*
X676490Y1091500D03*
D18*
X678000Y1133414D03*
X678000Y1112586D03*
D13*
X695990Y1176500D03*
X729010Y1176500D03*
D12*
X714166Y1158000D03*
X724834Y1158000D03*
D13*
X569510Y1360000D03*
X536490Y1360000D03*
X779510Y1208500D03*
X746490Y1208500D03*
D12*
X756666Y1341000D03*
X767334Y1341000D03*
D22*
X603530Y1249000D03*
X631470Y1249000D03*
D13*
X644510Y1310000D03*
X611490Y1310000D03*
D14*
X580000Y1299010D03*
X580000Y1265990D03*
D23*
X621000Y1272000D03*
D24*
X618000Y1281500D03*
X609000Y1281500D03*
D23*
X616000Y1272000D03*
X611000Y1272000D03*
X606000Y1272000D03*
X606000Y1291000D03*
X611000Y1291000D03*
X616000Y1291000D03*
X621000Y1291000D03*
D25*
X839000Y1282750D03*
X839000Y1317250D03*
X896000Y1300750D03*
X896000Y1335250D03*
M02*
