G04 EAGLE Gerber RS-274X export*
G75*
%MOMM*%
%FSLAX34Y34*%
%LPD*%
%INSolderpaste Top*%
%IPPOS*%
%AMOC8*
5,1,8,0,0,1.08239X$1,22.5*%
G01*
%ADD10R,1.500000X3.200000*%
%ADD11R,1.066800X0.889000*%
%ADD12R,0.762000X0.685800*%
%ADD13R,0.503000X0.356000*%
%ADD14R,1.000000X0.550000*%
%ADD15R,1.219200X0.914400*%
%ADD16R,0.685800X0.762000*%
%ADD17R,0.348000X1.450000*%
%ADD18R,1.219200X1.879600*%
%ADD19R,2.540000X1.016000*%
%ADD20R,2.350000X5.100000*%
%ADD21R,0.965200X1.524000*%
%ADD22R,1.400000X1.000000*%
%ADD23R,1.000000X1.400000*%
%ADD24R,1.879600X1.219200*%
%ADD25C,0.635000*%
%ADD26R,1.651000X2.794000*%
%ADD27R,0.250000X0.490000*%
%ADD28R,6.000000X2.800000*%
%ADD29R,3.000000X0.335000*%
%ADD30R,1.661200X0.431800*%
%ADD31R,0.431800X1.661200*%
%ADD32R,0.350000X0.850000*%
%ADD33C,0.630000*%
%ADD34R,0.500000X0.250000*%
%ADD35R,0.500000X0.425000*%
%ADD36R,1.750000X1.500000*%
%ADD37R,1.205000X0.280000*%
%ADD38R,0.300000X0.854800*%
%ADD39C,0.889000*%
%ADD40R,1.475000X0.450000*%
%ADD41R,0.600000X0.250000*%
%ADD42R,0.250000X0.600000*%
%ADD43R,1.200000X1.200000*%
%ADD44R,1.600000X0.300000*%
%ADD45R,1.600000X0.400000*%
%ADD46R,1.570000X1.890000*%
%ADD47R,2.500000X2.500000*%
%ADD48R,0.685800X0.330000*%
%ADD49R,0.330000X0.685800*%
%ADD50R,2.794000X1.651000*%
%ADD51R,0.240000X0.600000*%
%ADD52R,0.600000X0.240000*%
%ADD53R,1.170000X1.170000*%
%ADD54R,1.524000X0.965200*%
%ADD55R,1.100000X0.500000*%
%ADD56R,1.700000X1.200000*%

G36*
X459004Y1052131D02*
X459004Y1052131D01*
X459006Y1052130D01*
X459089Y1052167D01*
X468517Y1061595D01*
X468518Y1061597D01*
X468520Y1061598D01*
X468537Y1061643D01*
X468554Y1061687D01*
X468553Y1061689D01*
X468554Y1061691D01*
X468517Y1061774D01*
X459089Y1071202D01*
X459087Y1071203D01*
X459086Y1071205D01*
X459042Y1071221D01*
X458998Y1071239D01*
X458996Y1071238D01*
X458994Y1071239D01*
X458911Y1071202D01*
X449483Y1061774D01*
X449482Y1061772D01*
X449480Y1061771D01*
X449463Y1061726D01*
X449446Y1061683D01*
X449447Y1061681D01*
X449446Y1061679D01*
X449483Y1061595D01*
X458911Y1052167D01*
X458913Y1052166D01*
X458914Y1052164D01*
X458958Y1052148D01*
X459002Y1052130D01*
X459004Y1052131D01*
G37*
G36*
X-355996Y1052131D02*
X-355996Y1052131D01*
X-355994Y1052130D01*
X-355911Y1052167D01*
X-346483Y1061595D01*
X-346482Y1061597D01*
X-346480Y1061598D01*
X-346463Y1061643D01*
X-346446Y1061687D01*
X-346447Y1061689D01*
X-346446Y1061691D01*
X-346483Y1061774D01*
X-355911Y1071202D01*
X-355913Y1071203D01*
X-355914Y1071205D01*
X-355958Y1071221D01*
X-356002Y1071239D01*
X-356004Y1071238D01*
X-356006Y1071239D01*
X-356089Y1071202D01*
X-365517Y1061774D01*
X-365518Y1061772D01*
X-365520Y1061771D01*
X-365537Y1061726D01*
X-365554Y1061683D01*
X-365553Y1061681D01*
X-365554Y1061679D01*
X-365517Y1061595D01*
X-356089Y1052167D01*
X-356087Y1052166D01*
X-356086Y1052164D01*
X-356042Y1052148D01*
X-355998Y1052130D01*
X-355996Y1052131D01*
G37*
G36*
X459004Y1008762D02*
X459004Y1008762D01*
X459006Y1008761D01*
X459089Y1008798D01*
X468517Y1018226D01*
X468518Y1018228D01*
X468520Y1018229D01*
X468537Y1018274D01*
X468554Y1018317D01*
X468553Y1018319D01*
X468554Y1018321D01*
X468517Y1018405D01*
X459089Y1027833D01*
X459087Y1027834D01*
X459086Y1027836D01*
X459042Y1027852D01*
X458998Y1027870D01*
X458996Y1027869D01*
X458994Y1027870D01*
X458911Y1027833D01*
X449483Y1018405D01*
X449482Y1018403D01*
X449480Y1018402D01*
X449463Y1018357D01*
X449446Y1018313D01*
X449447Y1018311D01*
X449446Y1018309D01*
X449483Y1018226D01*
X458911Y1008798D01*
X458913Y1008797D01*
X458914Y1008795D01*
X458958Y1008779D01*
X459002Y1008761D01*
X459004Y1008762D01*
G37*
G36*
X-355996Y1008762D02*
X-355996Y1008762D01*
X-355994Y1008761D01*
X-355911Y1008798D01*
X-346483Y1018226D01*
X-346482Y1018228D01*
X-346480Y1018229D01*
X-346463Y1018274D01*
X-346446Y1018317D01*
X-346447Y1018319D01*
X-346446Y1018321D01*
X-346483Y1018405D01*
X-355911Y1027833D01*
X-355913Y1027834D01*
X-355914Y1027836D01*
X-355958Y1027852D01*
X-356002Y1027870D01*
X-356004Y1027869D01*
X-356006Y1027870D01*
X-356089Y1027833D01*
X-365517Y1018405D01*
X-365518Y1018403D01*
X-365520Y1018402D01*
X-365537Y1018357D01*
X-365554Y1018313D01*
X-365553Y1018311D01*
X-365554Y1018309D01*
X-365517Y1018226D01*
X-356089Y1008798D01*
X-356087Y1008797D01*
X-356086Y1008795D01*
X-356042Y1008779D01*
X-355998Y1008761D01*
X-355996Y1008762D01*
G37*
G36*
X459004Y312131D02*
X459004Y312131D01*
X459006Y312130D01*
X459089Y312167D01*
X468517Y321595D01*
X468518Y321597D01*
X468520Y321598D01*
X468537Y321643D01*
X468554Y321687D01*
X468553Y321689D01*
X468554Y321691D01*
X468517Y321774D01*
X459089Y331202D01*
X459087Y331203D01*
X459086Y331205D01*
X459042Y331221D01*
X458998Y331239D01*
X458996Y331238D01*
X458994Y331239D01*
X458911Y331202D01*
X449483Y321774D01*
X449482Y321772D01*
X449480Y321771D01*
X449463Y321726D01*
X449446Y321683D01*
X449447Y321681D01*
X449446Y321679D01*
X449483Y321595D01*
X458911Y312167D01*
X458913Y312166D01*
X458914Y312164D01*
X458958Y312148D01*
X459002Y312130D01*
X459004Y312131D01*
G37*
G36*
X-355996Y312131D02*
X-355996Y312131D01*
X-355994Y312130D01*
X-355911Y312167D01*
X-346483Y321595D01*
X-346482Y321597D01*
X-346480Y321598D01*
X-346463Y321643D01*
X-346446Y321687D01*
X-346447Y321689D01*
X-346446Y321691D01*
X-346483Y321774D01*
X-355911Y331202D01*
X-355913Y331203D01*
X-355914Y331205D01*
X-355958Y331221D01*
X-356002Y331239D01*
X-356004Y331238D01*
X-356006Y331239D01*
X-356089Y331202D01*
X-365517Y321774D01*
X-365518Y321772D01*
X-365520Y321771D01*
X-365537Y321726D01*
X-365554Y321683D01*
X-365553Y321681D01*
X-365554Y321679D01*
X-365517Y321595D01*
X-356089Y312167D01*
X-356087Y312166D01*
X-356086Y312164D01*
X-356042Y312148D01*
X-355998Y312130D01*
X-355996Y312131D01*
G37*
G36*
X437319Y1030447D02*
X437319Y1030447D01*
X437321Y1030446D01*
X437405Y1030483D01*
X446833Y1039911D01*
X446834Y1039913D01*
X446836Y1039914D01*
X446852Y1039958D01*
X446870Y1040002D01*
X446869Y1040004D01*
X446870Y1040006D01*
X446833Y1040089D01*
X437405Y1049517D01*
X437403Y1049518D01*
X437402Y1049520D01*
X437357Y1049537D01*
X437313Y1049554D01*
X437311Y1049553D01*
X437309Y1049554D01*
X437226Y1049517D01*
X427798Y1040089D01*
X427797Y1040087D01*
X427795Y1040086D01*
X427779Y1040042D01*
X427761Y1039998D01*
X427762Y1039996D01*
X427761Y1039994D01*
X427798Y1039911D01*
X437226Y1030483D01*
X437228Y1030482D01*
X437229Y1030480D01*
X437274Y1030463D01*
X437317Y1030446D01*
X437319Y1030447D01*
G37*
G36*
X-377681Y1030447D02*
X-377681Y1030447D01*
X-377679Y1030446D01*
X-377595Y1030483D01*
X-368167Y1039911D01*
X-368166Y1039913D01*
X-368164Y1039914D01*
X-368148Y1039958D01*
X-368130Y1040002D01*
X-368131Y1040004D01*
X-368130Y1040006D01*
X-368167Y1040089D01*
X-377595Y1049517D01*
X-377597Y1049518D01*
X-377598Y1049520D01*
X-377643Y1049537D01*
X-377687Y1049554D01*
X-377689Y1049553D01*
X-377691Y1049554D01*
X-377774Y1049517D01*
X-387202Y1040089D01*
X-387203Y1040087D01*
X-387205Y1040086D01*
X-387221Y1040042D01*
X-387239Y1039998D01*
X-387238Y1039996D01*
X-387239Y1039994D01*
X-387202Y1039911D01*
X-377774Y1030483D01*
X-377772Y1030482D01*
X-377771Y1030480D01*
X-377726Y1030463D01*
X-377683Y1030446D01*
X-377681Y1030447D01*
G37*
G36*
X480689Y1030447D02*
X480689Y1030447D01*
X480691Y1030446D01*
X480774Y1030483D01*
X490202Y1039911D01*
X490203Y1039913D01*
X490205Y1039914D01*
X490221Y1039958D01*
X490239Y1040002D01*
X490238Y1040004D01*
X490239Y1040006D01*
X490202Y1040089D01*
X480774Y1049517D01*
X480772Y1049518D01*
X480771Y1049520D01*
X480726Y1049537D01*
X480683Y1049554D01*
X480681Y1049553D01*
X480679Y1049554D01*
X480595Y1049517D01*
X471167Y1040089D01*
X471166Y1040087D01*
X471164Y1040086D01*
X471148Y1040042D01*
X471130Y1039998D01*
X471131Y1039996D01*
X471130Y1039994D01*
X471167Y1039911D01*
X480595Y1030483D01*
X480597Y1030482D01*
X480598Y1030480D01*
X480643Y1030463D01*
X480687Y1030446D01*
X480689Y1030447D01*
G37*
G36*
X-334311Y1030447D02*
X-334311Y1030447D01*
X-334309Y1030446D01*
X-334226Y1030483D01*
X-324798Y1039911D01*
X-324797Y1039913D01*
X-324795Y1039914D01*
X-324779Y1039958D01*
X-324761Y1040002D01*
X-324762Y1040004D01*
X-324761Y1040006D01*
X-324798Y1040089D01*
X-334226Y1049517D01*
X-334228Y1049518D01*
X-334229Y1049520D01*
X-334274Y1049537D01*
X-334317Y1049554D01*
X-334319Y1049553D01*
X-334321Y1049554D01*
X-334405Y1049517D01*
X-343833Y1040089D01*
X-343834Y1040087D01*
X-343836Y1040086D01*
X-343852Y1040042D01*
X-343870Y1039998D01*
X-343869Y1039996D01*
X-343870Y1039994D01*
X-343833Y1039911D01*
X-334405Y1030483D01*
X-334403Y1030482D01*
X-334402Y1030480D01*
X-334357Y1030463D01*
X-334313Y1030446D01*
X-334311Y1030447D01*
G37*
G36*
X480689Y290447D02*
X480689Y290447D01*
X480691Y290446D01*
X480774Y290483D01*
X490202Y299911D01*
X490203Y299913D01*
X490205Y299914D01*
X490221Y299958D01*
X490239Y300002D01*
X490238Y300004D01*
X490239Y300006D01*
X490202Y300089D01*
X480774Y309517D01*
X480772Y309518D01*
X480771Y309520D01*
X480726Y309537D01*
X480683Y309554D01*
X480681Y309553D01*
X480679Y309554D01*
X480595Y309517D01*
X471167Y300089D01*
X471166Y300087D01*
X471164Y300086D01*
X471148Y300042D01*
X471130Y299998D01*
X471131Y299996D01*
X471130Y299994D01*
X471167Y299911D01*
X480595Y290483D01*
X480597Y290482D01*
X480598Y290480D01*
X480643Y290463D01*
X480687Y290446D01*
X480689Y290447D01*
G37*
G36*
X-377681Y290447D02*
X-377681Y290447D01*
X-377679Y290446D01*
X-377595Y290483D01*
X-368167Y299911D01*
X-368166Y299913D01*
X-368164Y299914D01*
X-368148Y299958D01*
X-368130Y300002D01*
X-368131Y300004D01*
X-368130Y300006D01*
X-368167Y300089D01*
X-377595Y309517D01*
X-377597Y309518D01*
X-377598Y309520D01*
X-377643Y309537D01*
X-377687Y309554D01*
X-377689Y309553D01*
X-377691Y309554D01*
X-377774Y309517D01*
X-387202Y300089D01*
X-387203Y300087D01*
X-387205Y300086D01*
X-387221Y300042D01*
X-387239Y299998D01*
X-387238Y299996D01*
X-387239Y299994D01*
X-387202Y299911D01*
X-377774Y290483D01*
X-377772Y290482D01*
X-377771Y290480D01*
X-377726Y290463D01*
X-377683Y290446D01*
X-377681Y290447D01*
G37*
G36*
X-334311Y290447D02*
X-334311Y290447D01*
X-334309Y290446D01*
X-334226Y290483D01*
X-324798Y299911D01*
X-324797Y299913D01*
X-324795Y299914D01*
X-324779Y299958D01*
X-324761Y300002D01*
X-324762Y300004D01*
X-324761Y300006D01*
X-324798Y300089D01*
X-334226Y309517D01*
X-334228Y309518D01*
X-334229Y309520D01*
X-334274Y309537D01*
X-334317Y309554D01*
X-334319Y309553D01*
X-334321Y309554D01*
X-334405Y309517D01*
X-343833Y300089D01*
X-343834Y300087D01*
X-343836Y300086D01*
X-343852Y300042D01*
X-343870Y299998D01*
X-343869Y299996D01*
X-343870Y299994D01*
X-343833Y299911D01*
X-334405Y290483D01*
X-334403Y290482D01*
X-334402Y290480D01*
X-334357Y290463D01*
X-334313Y290446D01*
X-334311Y290447D01*
G37*
G36*
X437319Y290447D02*
X437319Y290447D01*
X437321Y290446D01*
X437405Y290483D01*
X446833Y299911D01*
X446834Y299913D01*
X446836Y299914D01*
X446852Y299958D01*
X446870Y300002D01*
X446869Y300004D01*
X446870Y300006D01*
X446833Y300089D01*
X437405Y309517D01*
X437403Y309518D01*
X437402Y309520D01*
X437357Y309537D01*
X437313Y309554D01*
X437311Y309553D01*
X437309Y309554D01*
X437226Y309517D01*
X427798Y300089D01*
X427797Y300087D01*
X427795Y300086D01*
X427779Y300042D01*
X427761Y299998D01*
X427762Y299996D01*
X427761Y299994D01*
X427798Y299911D01*
X437226Y290483D01*
X437228Y290482D01*
X437229Y290480D01*
X437274Y290463D01*
X437317Y290446D01*
X437319Y290447D01*
G37*
G36*
X459004Y268762D02*
X459004Y268762D01*
X459006Y268761D01*
X459089Y268798D01*
X468517Y278226D01*
X468518Y278228D01*
X468520Y278229D01*
X468537Y278274D01*
X468554Y278317D01*
X468553Y278319D01*
X468554Y278321D01*
X468517Y278405D01*
X459089Y287833D01*
X459087Y287834D01*
X459086Y287836D01*
X459042Y287852D01*
X458998Y287870D01*
X458996Y287869D01*
X458994Y287870D01*
X458911Y287833D01*
X449483Y278405D01*
X449482Y278403D01*
X449480Y278402D01*
X449463Y278357D01*
X449446Y278313D01*
X449447Y278311D01*
X449446Y278309D01*
X449483Y278226D01*
X458911Y268798D01*
X458913Y268797D01*
X458914Y268795D01*
X458958Y268779D01*
X459002Y268761D01*
X459004Y268762D01*
G37*
G36*
X-355996Y268762D02*
X-355996Y268762D01*
X-355994Y268761D01*
X-355911Y268798D01*
X-346483Y278226D01*
X-346482Y278228D01*
X-346480Y278229D01*
X-346463Y278274D01*
X-346446Y278317D01*
X-346447Y278319D01*
X-346446Y278321D01*
X-346483Y278405D01*
X-355911Y287833D01*
X-355913Y287834D01*
X-355914Y287836D01*
X-355958Y287852D01*
X-356002Y287870D01*
X-356004Y287869D01*
X-356006Y287870D01*
X-356089Y287833D01*
X-365517Y278405D01*
X-365518Y278403D01*
X-365520Y278402D01*
X-365537Y278357D01*
X-365554Y278313D01*
X-365553Y278311D01*
X-365554Y278309D01*
X-365517Y278226D01*
X-356089Y268798D01*
X-356087Y268797D01*
X-356086Y268795D01*
X-356042Y268779D01*
X-355998Y268761D01*
X-355996Y268762D01*
G37*
G36*
X-366838Y1041289D02*
X-366838Y1041289D01*
X-366836Y1041288D01*
X-366753Y1041325D01*
X-357325Y1050753D01*
X-357324Y1050755D01*
X-357322Y1050756D01*
X-357306Y1050801D01*
X-357288Y1050844D01*
X-357289Y1050846D01*
X-357288Y1050848D01*
X-357325Y1050932D01*
X-366753Y1060360D01*
X-366755Y1060360D01*
X-366756Y1060362D01*
X-366801Y1060379D01*
X-366844Y1060397D01*
X-366846Y1060396D01*
X-366848Y1060396D01*
X-366932Y1060360D01*
X-376360Y1050932D01*
X-376360Y1050930D01*
X-376362Y1050929D01*
X-376379Y1050884D01*
X-376397Y1050840D01*
X-376396Y1050838D01*
X-376396Y1050836D01*
X-376360Y1050753D01*
X-366932Y1041325D01*
X-366930Y1041324D01*
X-366929Y1041322D01*
X-366884Y1041306D01*
X-366840Y1041288D01*
X-366838Y1041289D01*
G37*
G36*
X469846Y1041289D02*
X469846Y1041289D01*
X469848Y1041288D01*
X469932Y1041325D01*
X479360Y1050753D01*
X479360Y1050755D01*
X479362Y1050756D01*
X479379Y1050801D01*
X479397Y1050844D01*
X479396Y1050846D01*
X479396Y1050848D01*
X479360Y1050932D01*
X469932Y1060360D01*
X469930Y1060360D01*
X469929Y1060362D01*
X469884Y1060379D01*
X469840Y1060397D01*
X469838Y1060396D01*
X469836Y1060396D01*
X469753Y1060360D01*
X460325Y1050932D01*
X460324Y1050930D01*
X460322Y1050929D01*
X460306Y1050884D01*
X460288Y1050840D01*
X460289Y1050838D01*
X460288Y1050836D01*
X460325Y1050753D01*
X469753Y1041325D01*
X469755Y1041324D01*
X469756Y1041322D01*
X469801Y1041306D01*
X469844Y1041288D01*
X469846Y1041289D01*
G37*
G36*
X-345154Y1041289D02*
X-345154Y1041289D01*
X-345152Y1041288D01*
X-345068Y1041325D01*
X-335640Y1050753D01*
X-335640Y1050755D01*
X-335638Y1050756D01*
X-335621Y1050801D01*
X-335603Y1050844D01*
X-335604Y1050846D01*
X-335604Y1050848D01*
X-335640Y1050932D01*
X-345068Y1060360D01*
X-345070Y1060360D01*
X-345071Y1060362D01*
X-345116Y1060379D01*
X-345160Y1060397D01*
X-345162Y1060396D01*
X-345164Y1060396D01*
X-345247Y1060360D01*
X-354675Y1050932D01*
X-354676Y1050930D01*
X-354678Y1050929D01*
X-354694Y1050884D01*
X-354712Y1050840D01*
X-354711Y1050838D01*
X-354712Y1050836D01*
X-354675Y1050753D01*
X-345247Y1041325D01*
X-345245Y1041324D01*
X-345244Y1041322D01*
X-345199Y1041306D01*
X-345156Y1041288D01*
X-345154Y1041289D01*
G37*
G36*
X448162Y1041289D02*
X448162Y1041289D01*
X448164Y1041288D01*
X448247Y1041325D01*
X457675Y1050753D01*
X457676Y1050755D01*
X457678Y1050756D01*
X457694Y1050801D01*
X457712Y1050844D01*
X457711Y1050846D01*
X457712Y1050848D01*
X457675Y1050932D01*
X448247Y1060360D01*
X448245Y1060360D01*
X448244Y1060362D01*
X448199Y1060379D01*
X448156Y1060397D01*
X448154Y1060396D01*
X448152Y1060396D01*
X448068Y1060360D01*
X438640Y1050932D01*
X438640Y1050930D01*
X438638Y1050929D01*
X438621Y1050884D01*
X438603Y1050840D01*
X438604Y1050838D01*
X438604Y1050836D01*
X438640Y1050753D01*
X448068Y1041325D01*
X448070Y1041324D01*
X448071Y1041322D01*
X448116Y1041306D01*
X448160Y1041288D01*
X448162Y1041289D01*
G37*
G36*
X469846Y1019604D02*
X469846Y1019604D01*
X469848Y1019604D01*
X469932Y1019640D01*
X479360Y1029068D01*
X479360Y1029070D01*
X479362Y1029071D01*
X479379Y1029116D01*
X479397Y1029160D01*
X479396Y1029162D01*
X479396Y1029164D01*
X479360Y1029247D01*
X469932Y1038675D01*
X469930Y1038676D01*
X469929Y1038678D01*
X469884Y1038694D01*
X469840Y1038712D01*
X469838Y1038711D01*
X469836Y1038712D01*
X469753Y1038675D01*
X460325Y1029247D01*
X460324Y1029245D01*
X460322Y1029244D01*
X460306Y1029199D01*
X460288Y1029156D01*
X460289Y1029154D01*
X460288Y1029152D01*
X460325Y1029068D01*
X469753Y1019640D01*
X469755Y1019640D01*
X469756Y1019638D01*
X469801Y1019621D01*
X469844Y1019603D01*
X469846Y1019604D01*
G37*
G36*
X448162Y1019604D02*
X448162Y1019604D01*
X448164Y1019604D01*
X448247Y1019640D01*
X457675Y1029068D01*
X457676Y1029070D01*
X457678Y1029071D01*
X457694Y1029116D01*
X457712Y1029160D01*
X457711Y1029162D01*
X457712Y1029164D01*
X457675Y1029247D01*
X448247Y1038675D01*
X448245Y1038676D01*
X448244Y1038678D01*
X448199Y1038694D01*
X448156Y1038712D01*
X448154Y1038711D01*
X448152Y1038712D01*
X448068Y1038675D01*
X438640Y1029247D01*
X438640Y1029245D01*
X438638Y1029244D01*
X438621Y1029199D01*
X438603Y1029156D01*
X438604Y1029154D01*
X438604Y1029152D01*
X438640Y1029068D01*
X448068Y1019640D01*
X448070Y1019640D01*
X448071Y1019638D01*
X448116Y1019621D01*
X448160Y1019603D01*
X448162Y1019604D01*
G37*
G36*
X-345154Y1019604D02*
X-345154Y1019604D01*
X-345152Y1019604D01*
X-345068Y1019640D01*
X-335640Y1029068D01*
X-335640Y1029070D01*
X-335638Y1029071D01*
X-335621Y1029116D01*
X-335603Y1029160D01*
X-335604Y1029162D01*
X-335604Y1029164D01*
X-335640Y1029247D01*
X-345068Y1038675D01*
X-345070Y1038676D01*
X-345071Y1038678D01*
X-345116Y1038694D01*
X-345160Y1038712D01*
X-345162Y1038711D01*
X-345164Y1038712D01*
X-345247Y1038675D01*
X-354675Y1029247D01*
X-354676Y1029245D01*
X-354678Y1029244D01*
X-354694Y1029199D01*
X-354712Y1029156D01*
X-354711Y1029154D01*
X-354712Y1029152D01*
X-354675Y1029068D01*
X-345247Y1019640D01*
X-345245Y1019640D01*
X-345244Y1019638D01*
X-345199Y1019621D01*
X-345156Y1019603D01*
X-345154Y1019604D01*
G37*
G36*
X-366838Y1019604D02*
X-366838Y1019604D01*
X-366836Y1019604D01*
X-366753Y1019640D01*
X-357325Y1029068D01*
X-357324Y1029070D01*
X-357322Y1029071D01*
X-357306Y1029116D01*
X-357288Y1029160D01*
X-357289Y1029162D01*
X-357288Y1029164D01*
X-357325Y1029247D01*
X-366753Y1038675D01*
X-366755Y1038676D01*
X-366756Y1038678D01*
X-366801Y1038694D01*
X-366844Y1038712D01*
X-366846Y1038711D01*
X-366848Y1038712D01*
X-366932Y1038675D01*
X-376360Y1029247D01*
X-376360Y1029245D01*
X-376362Y1029244D01*
X-376379Y1029199D01*
X-376397Y1029156D01*
X-376396Y1029154D01*
X-376396Y1029152D01*
X-376360Y1029068D01*
X-366932Y1019640D01*
X-366930Y1019640D01*
X-366929Y1019638D01*
X-366884Y1019621D01*
X-366840Y1019603D01*
X-366838Y1019604D01*
G37*
G36*
X469846Y301289D02*
X469846Y301289D01*
X469848Y301288D01*
X469932Y301325D01*
X479360Y310753D01*
X479360Y310755D01*
X479362Y310756D01*
X479379Y310801D01*
X479397Y310844D01*
X479396Y310846D01*
X479396Y310848D01*
X479360Y310932D01*
X469932Y320360D01*
X469930Y320360D01*
X469929Y320362D01*
X469884Y320379D01*
X469840Y320397D01*
X469838Y320396D01*
X469836Y320396D01*
X469753Y320360D01*
X460325Y310932D01*
X460324Y310930D01*
X460322Y310929D01*
X460306Y310884D01*
X460288Y310840D01*
X460289Y310838D01*
X460288Y310836D01*
X460325Y310753D01*
X469753Y301325D01*
X469755Y301324D01*
X469756Y301322D01*
X469801Y301306D01*
X469844Y301288D01*
X469846Y301289D01*
G37*
G36*
X-345154Y301289D02*
X-345154Y301289D01*
X-345152Y301288D01*
X-345068Y301325D01*
X-335640Y310753D01*
X-335640Y310755D01*
X-335638Y310756D01*
X-335621Y310801D01*
X-335603Y310844D01*
X-335604Y310846D01*
X-335604Y310848D01*
X-335640Y310932D01*
X-345068Y320360D01*
X-345070Y320360D01*
X-345071Y320362D01*
X-345116Y320379D01*
X-345160Y320397D01*
X-345162Y320396D01*
X-345164Y320396D01*
X-345247Y320360D01*
X-354675Y310932D01*
X-354676Y310930D01*
X-354678Y310929D01*
X-354694Y310884D01*
X-354712Y310840D01*
X-354711Y310838D01*
X-354712Y310836D01*
X-354675Y310753D01*
X-345247Y301325D01*
X-345245Y301324D01*
X-345244Y301322D01*
X-345199Y301306D01*
X-345156Y301288D01*
X-345154Y301289D01*
G37*
G36*
X469846Y279604D02*
X469846Y279604D01*
X469848Y279604D01*
X469932Y279640D01*
X479360Y289068D01*
X479360Y289070D01*
X479362Y289071D01*
X479379Y289116D01*
X479397Y289160D01*
X479396Y289162D01*
X479396Y289164D01*
X479360Y289247D01*
X469932Y298675D01*
X469930Y298676D01*
X469929Y298678D01*
X469884Y298694D01*
X469840Y298712D01*
X469838Y298711D01*
X469836Y298712D01*
X469753Y298675D01*
X460325Y289247D01*
X460324Y289245D01*
X460322Y289244D01*
X460306Y289199D01*
X460288Y289156D01*
X460289Y289154D01*
X460288Y289152D01*
X460325Y289068D01*
X469753Y279640D01*
X469755Y279640D01*
X469756Y279638D01*
X469801Y279621D01*
X469844Y279603D01*
X469846Y279604D01*
G37*
G36*
X-366838Y279604D02*
X-366838Y279604D01*
X-366836Y279604D01*
X-366753Y279640D01*
X-357325Y289068D01*
X-357324Y289070D01*
X-357322Y289071D01*
X-357306Y289116D01*
X-357288Y289160D01*
X-357289Y289162D01*
X-357288Y289164D01*
X-357325Y289247D01*
X-366753Y298675D01*
X-366755Y298676D01*
X-366756Y298678D01*
X-366801Y298694D01*
X-366844Y298712D01*
X-366846Y298711D01*
X-366848Y298712D01*
X-366932Y298675D01*
X-376360Y289247D01*
X-376360Y289245D01*
X-376362Y289244D01*
X-376379Y289199D01*
X-376397Y289156D01*
X-376396Y289154D01*
X-376396Y289152D01*
X-376360Y289068D01*
X-366932Y279640D01*
X-366930Y279640D01*
X-366929Y279638D01*
X-366884Y279621D01*
X-366840Y279603D01*
X-366838Y279604D01*
G37*
G36*
X448162Y279604D02*
X448162Y279604D01*
X448164Y279604D01*
X448247Y279640D01*
X457675Y289068D01*
X457676Y289070D01*
X457678Y289071D01*
X457694Y289116D01*
X457712Y289160D01*
X457711Y289162D01*
X457712Y289164D01*
X457675Y289247D01*
X448247Y298675D01*
X448245Y298676D01*
X448244Y298678D01*
X448199Y298694D01*
X448156Y298712D01*
X448154Y298711D01*
X448152Y298712D01*
X448068Y298675D01*
X438640Y289247D01*
X438640Y289245D01*
X438638Y289244D01*
X438621Y289199D01*
X438603Y289156D01*
X438604Y289154D01*
X438604Y289152D01*
X438640Y289068D01*
X448068Y279640D01*
X448070Y279640D01*
X448071Y279638D01*
X448116Y279621D01*
X448160Y279603D01*
X448162Y279604D01*
G37*
G36*
X-345154Y279604D02*
X-345154Y279604D01*
X-345152Y279604D01*
X-345068Y279640D01*
X-335640Y289068D01*
X-335640Y289070D01*
X-335638Y289071D01*
X-335621Y289116D01*
X-335603Y289160D01*
X-335604Y289162D01*
X-335604Y289164D01*
X-335640Y289247D01*
X-345068Y298675D01*
X-345070Y298676D01*
X-345071Y298678D01*
X-345116Y298694D01*
X-345160Y298712D01*
X-345162Y298711D01*
X-345164Y298712D01*
X-345247Y298675D01*
X-354675Y289247D01*
X-354676Y289245D01*
X-354678Y289244D01*
X-354694Y289199D01*
X-354712Y289156D01*
X-354711Y289154D01*
X-354712Y289152D01*
X-354675Y289068D01*
X-345247Y279640D01*
X-345245Y279640D01*
X-345244Y279638D01*
X-345199Y279621D01*
X-345156Y279603D01*
X-345154Y279604D01*
G37*
G36*
X-366838Y301289D02*
X-366838Y301289D01*
X-366836Y301288D01*
X-366753Y301325D01*
X-357325Y310753D01*
X-357324Y310755D01*
X-357322Y310756D01*
X-357306Y310801D01*
X-357288Y310844D01*
X-357289Y310846D01*
X-357288Y310848D01*
X-357325Y310932D01*
X-366753Y320360D01*
X-366755Y320360D01*
X-366756Y320362D01*
X-366801Y320379D01*
X-366844Y320397D01*
X-366846Y320396D01*
X-366848Y320396D01*
X-366932Y320360D01*
X-376360Y310932D01*
X-376360Y310930D01*
X-376362Y310929D01*
X-376379Y310884D01*
X-376397Y310840D01*
X-376396Y310838D01*
X-376396Y310836D01*
X-376360Y310753D01*
X-366932Y301325D01*
X-366930Y301324D01*
X-366929Y301322D01*
X-366884Y301306D01*
X-366840Y301288D01*
X-366838Y301289D01*
G37*
G36*
X448162Y301289D02*
X448162Y301289D01*
X448164Y301288D01*
X448247Y301325D01*
X457675Y310753D01*
X457676Y310755D01*
X457678Y310756D01*
X457694Y310801D01*
X457712Y310844D01*
X457711Y310846D01*
X457712Y310848D01*
X457675Y310932D01*
X448247Y320360D01*
X448245Y320360D01*
X448244Y320362D01*
X448199Y320379D01*
X448156Y320397D01*
X448154Y320396D01*
X448152Y320396D01*
X448068Y320360D01*
X438640Y310932D01*
X438640Y310930D01*
X438638Y310929D01*
X438621Y310884D01*
X438603Y310840D01*
X438604Y310838D01*
X438604Y310836D01*
X438640Y310753D01*
X448068Y301325D01*
X448070Y301324D01*
X448071Y301322D01*
X448116Y301306D01*
X448160Y301288D01*
X448162Y301289D01*
G37*
G36*
X459004Y1030447D02*
X459004Y1030447D01*
X459006Y1030446D01*
X459089Y1030483D01*
X468517Y1039911D01*
X468518Y1039913D01*
X468520Y1039914D01*
X468537Y1039958D01*
X468554Y1040002D01*
X468553Y1040004D01*
X468554Y1040006D01*
X468517Y1040089D01*
X459089Y1049517D01*
X459087Y1049518D01*
X459086Y1049520D01*
X459042Y1049537D01*
X458998Y1049554D01*
X458996Y1049553D01*
X458994Y1049554D01*
X458911Y1049517D01*
X449483Y1040089D01*
X449482Y1040087D01*
X449480Y1040086D01*
X449463Y1040042D01*
X449446Y1039998D01*
X449447Y1039996D01*
X449446Y1039994D01*
X449483Y1039911D01*
X458911Y1030483D01*
X458913Y1030482D01*
X458914Y1030480D01*
X458958Y1030463D01*
X459002Y1030446D01*
X459004Y1030447D01*
G37*
G36*
X-355996Y1030447D02*
X-355996Y1030447D01*
X-355994Y1030446D01*
X-355911Y1030483D01*
X-346483Y1039911D01*
X-346482Y1039913D01*
X-346480Y1039914D01*
X-346463Y1039958D01*
X-346446Y1040002D01*
X-346447Y1040004D01*
X-346446Y1040006D01*
X-346483Y1040089D01*
X-355911Y1049517D01*
X-355913Y1049518D01*
X-355914Y1049520D01*
X-355958Y1049537D01*
X-356002Y1049554D01*
X-356004Y1049553D01*
X-356006Y1049554D01*
X-356089Y1049517D01*
X-365517Y1040089D01*
X-365518Y1040087D01*
X-365520Y1040086D01*
X-365537Y1040042D01*
X-365554Y1039998D01*
X-365553Y1039996D01*
X-365554Y1039994D01*
X-365517Y1039911D01*
X-356089Y1030483D01*
X-356087Y1030482D01*
X-356086Y1030480D01*
X-356042Y1030463D01*
X-355998Y1030446D01*
X-355996Y1030447D01*
G37*
G36*
X459004Y290447D02*
X459004Y290447D01*
X459006Y290446D01*
X459089Y290483D01*
X468517Y299911D01*
X468518Y299913D01*
X468520Y299914D01*
X468537Y299958D01*
X468554Y300002D01*
X468553Y300004D01*
X468554Y300006D01*
X468517Y300089D01*
X459089Y309517D01*
X459087Y309518D01*
X459086Y309520D01*
X459042Y309537D01*
X458998Y309554D01*
X458996Y309553D01*
X458994Y309554D01*
X458911Y309517D01*
X449483Y300089D01*
X449482Y300087D01*
X449480Y300086D01*
X449463Y300042D01*
X449446Y299998D01*
X449447Y299996D01*
X449446Y299994D01*
X449483Y299911D01*
X458911Y290483D01*
X458913Y290482D01*
X458914Y290480D01*
X458958Y290463D01*
X459002Y290446D01*
X459004Y290447D01*
G37*
G36*
X-355996Y290447D02*
X-355996Y290447D01*
X-355994Y290446D01*
X-355911Y290483D01*
X-346483Y299911D01*
X-346482Y299913D01*
X-346480Y299914D01*
X-346463Y299958D01*
X-346446Y300002D01*
X-346447Y300004D01*
X-346446Y300006D01*
X-346483Y300089D01*
X-355911Y309517D01*
X-355913Y309518D01*
X-355914Y309520D01*
X-355958Y309537D01*
X-356002Y309554D01*
X-356004Y309553D01*
X-356006Y309554D01*
X-356089Y309517D01*
X-365517Y300089D01*
X-365518Y300087D01*
X-365520Y300086D01*
X-365537Y300042D01*
X-365554Y299998D01*
X-365553Y299996D01*
X-365554Y299994D01*
X-365517Y299911D01*
X-356089Y290483D01*
X-356087Y290482D01*
X-356086Y290480D01*
X-356042Y290463D01*
X-355998Y290446D01*
X-355996Y290447D01*
G37*
D10*
X-598000Y363000D03*
X-556000Y363000D03*
X-598000Y439000D03*
X-556000Y439000D03*
D11*
X-377000Y398364D03*
X-377000Y415636D03*
X-358000Y398364D03*
X-358000Y415636D03*
X-339000Y398364D03*
X-339000Y415636D03*
D12*
X-394000Y412334D03*
X-394000Y401666D03*
D13*
X-351505Y380000D03*
X-338495Y385080D03*
X-338495Y374920D03*
D12*
X-322000Y382334D03*
X-322000Y371666D03*
D14*
X-307500Y416500D03*
X-307500Y407000D03*
X-307500Y397500D03*
X-280500Y397500D03*
X-280500Y416500D03*
D12*
X-322000Y412334D03*
X-322000Y401666D03*
X-283000Y371666D03*
X-283000Y382334D03*
X-296000Y382334D03*
X-296000Y371666D03*
D10*
X-598000Y401000D03*
X-556000Y401000D03*
D11*
X-476000Y398364D03*
X-476000Y415636D03*
X-514000Y398364D03*
X-514000Y415636D03*
X-495000Y398364D03*
X-495000Y415636D03*
D12*
X-533000Y408334D03*
X-533000Y397666D03*
D13*
X-488505Y380000D03*
X-475495Y385080D03*
X-475495Y374920D03*
D12*
X-460000Y384334D03*
X-460000Y373666D03*
D14*
X-444500Y416500D03*
X-444500Y407000D03*
X-444500Y397500D03*
X-417500Y397500D03*
X-417500Y416500D03*
D12*
X-459000Y412334D03*
X-459000Y401666D03*
X-421000Y373666D03*
X-421000Y384334D03*
X-434000Y384334D03*
X-434000Y373666D03*
D15*
X-459000Y362000D03*
X-459000Y326000D03*
D12*
X-443000Y346666D03*
X-443000Y357334D03*
X-430000Y346666D03*
X-430000Y357334D03*
D16*
X-430666Y333000D03*
X-441334Y333000D03*
D17*
X-269730Y423500D03*
X-263230Y423500D03*
X-256730Y423500D03*
X-250230Y423500D03*
X-269730Y364500D03*
X-263230Y364500D03*
X-256730Y364500D03*
X-250230Y364500D03*
D12*
X-566000Y547334D03*
X-566000Y536666D03*
X-512000Y620334D03*
X-512000Y609666D03*
D18*
X-493510Y617000D03*
X-460490Y617000D03*
D16*
X-380947Y553005D03*
X-391615Y553005D03*
X-382947Y540005D03*
X-393615Y540005D03*
D12*
X-407000Y540334D03*
X-407000Y529666D03*
X-348598Y606263D03*
X-348598Y616931D03*
X-362108Y606263D03*
X-362108Y616931D03*
X-348598Y629123D03*
X-348598Y639791D03*
X-362108Y629123D03*
X-362108Y639791D03*
X-442732Y595847D03*
X-442732Y585179D03*
D19*
X-593000Y557430D03*
X-593000Y534570D03*
D20*
X-465250Y573000D03*
X-506750Y573000D03*
D21*
X-421318Y616263D03*
X-442146Y616263D03*
D22*
X-394000Y374000D03*
X-372000Y383500D03*
X-372000Y364500D03*
X-532000Y374000D03*
X-510000Y383500D03*
X-510000Y364500D03*
D23*
X-521000Y324750D03*
X-530500Y346750D03*
X-511500Y346750D03*
D24*
X-390263Y603008D03*
X-390263Y636028D03*
D12*
X-420513Y595852D03*
X-420513Y585184D03*
D25*
X-164387Y612132D03*
X-151687Y612132D03*
X-126287Y612132D03*
X-113587Y612132D03*
X-126287Y599432D03*
X-113587Y599432D03*
X-164387Y586732D03*
X-151687Y586732D03*
X-138987Y586732D03*
X-126287Y586732D03*
X-113587Y586732D03*
X-164387Y574032D03*
X-151687Y574032D03*
X-138987Y574032D03*
X-126287Y574032D03*
X-113587Y574032D03*
X-164387Y561332D03*
X-151687Y561332D03*
X-138987Y561332D03*
X-126287Y561332D03*
X-113587Y561332D03*
X-164387Y599432D03*
X-151687Y599432D03*
X-138987Y599432D03*
X-138987Y612132D03*
D21*
X-96073Y529982D03*
X-116901Y529982D03*
D12*
X-135987Y644566D03*
X-135987Y633898D03*
D16*
X-101153Y546482D03*
X-111821Y546482D03*
D12*
X-108487Y633898D03*
X-108487Y644566D03*
X-122237Y633898D03*
X-122237Y644566D03*
X-149737Y633898D03*
X-149737Y644566D03*
D26*
X-212970Y614000D03*
X-185030Y614000D03*
X-213457Y560232D03*
X-185517Y560232D03*
D12*
X-309000Y382334D03*
X-309000Y371666D03*
X-447000Y384334D03*
X-447000Y373666D03*
D27*
X-600250Y521050D03*
X-593750Y521050D03*
D28*
X-584000Y328000D03*
X-584000Y62000D03*
D29*
X-537000Y115625D03*
X-537000Y128325D03*
X-537000Y141025D03*
X-537000Y153725D03*
X-537000Y166425D03*
X-537000Y179125D03*
X-537000Y191825D03*
X-537000Y204525D03*
X-537000Y217225D03*
X-537000Y229925D03*
X-537000Y242625D03*
X-537000Y255325D03*
X-537000Y268025D03*
X-537000Y121975D03*
X-537000Y134675D03*
X-537000Y147375D03*
X-537000Y160075D03*
X-537000Y172775D03*
X-537000Y185475D03*
X-537000Y198175D03*
X-537000Y210875D03*
X-537000Y223575D03*
X-537000Y236275D03*
X-537000Y248975D03*
X-537000Y261675D03*
X-537000Y274375D03*
D30*
X-427250Y218750D03*
X-427250Y212250D03*
X-427250Y205750D03*
X-427250Y199250D03*
X-427250Y192750D03*
X-427250Y186250D03*
X-427250Y179750D03*
X-427250Y173250D03*
X-427250Y166750D03*
X-427250Y160250D03*
X-427250Y153750D03*
X-427250Y147250D03*
X-427250Y140750D03*
X-427250Y134250D03*
X-427250Y127750D03*
X-427250Y121250D03*
X-427250Y114750D03*
X-427250Y108250D03*
X-427250Y101750D03*
X-427250Y95250D03*
D31*
X-412750Y80750D03*
X-406250Y80750D03*
X-399750Y80750D03*
X-393250Y80750D03*
X-386750Y80750D03*
X-380250Y80750D03*
X-373750Y80750D03*
X-367250Y80750D03*
X-360750Y80750D03*
X-354250Y80750D03*
X-347750Y80750D03*
X-341250Y80750D03*
X-334750Y80750D03*
X-328250Y80750D03*
X-321750Y80750D03*
X-315250Y80750D03*
X-308750Y80750D03*
X-302250Y80750D03*
X-295750Y80750D03*
X-289250Y80750D03*
D30*
X-274750Y95250D03*
X-274750Y101750D03*
X-274750Y108250D03*
X-274750Y114750D03*
X-274750Y121250D03*
X-274750Y127750D03*
X-274750Y134250D03*
X-274750Y140750D03*
X-274750Y147250D03*
X-274750Y153750D03*
X-274750Y160250D03*
X-274750Y166750D03*
X-274750Y173250D03*
X-274750Y179750D03*
X-274750Y186250D03*
X-274750Y192750D03*
X-274750Y199250D03*
X-274750Y205750D03*
X-274750Y212250D03*
X-274750Y218750D03*
D31*
X-289250Y233250D03*
X-295750Y233250D03*
X-302250Y233250D03*
X-308750Y233250D03*
X-315250Y233250D03*
X-321750Y233250D03*
X-328250Y233250D03*
X-334750Y233250D03*
X-341250Y233250D03*
X-347750Y233250D03*
X-354250Y233250D03*
X-360750Y233250D03*
X-367250Y233250D03*
X-373750Y233250D03*
X-380250Y233250D03*
X-386750Y233250D03*
X-393250Y233250D03*
X-399750Y233250D03*
X-406250Y233250D03*
X-412750Y233250D03*
D32*
X-483000Y358000D03*
X-476500Y358000D03*
X-489500Y358000D03*
X-483000Y340000D03*
X-476500Y340000D03*
X-489500Y340000D03*
D33*
X-95500Y150100D03*
X-95500Y137400D03*
X-95500Y124700D03*
X-95500Y112000D03*
X-95500Y99300D03*
X-95500Y86600D03*
X-95500Y73900D03*
X-108200Y150100D03*
X-120900Y150100D03*
X-133600Y150100D03*
X-146300Y150100D03*
X-159000Y150100D03*
X-171700Y150100D03*
X-197100Y150100D03*
X-209800Y150100D03*
X-222500Y150100D03*
X-108200Y137400D03*
X-120900Y137400D03*
X-133600Y137400D03*
X-146300Y137400D03*
X-159000Y137400D03*
X-171700Y137400D03*
X-197100Y137400D03*
X-209800Y137400D03*
X-222500Y137400D03*
X-108200Y124700D03*
X-120900Y124700D03*
X-133600Y124700D03*
X-146300Y124700D03*
X-159000Y124700D03*
X-171700Y124700D03*
X-197100Y124700D03*
X-209800Y124700D03*
X-222500Y124700D03*
X-108200Y112000D03*
X-120900Y112000D03*
X-133600Y112000D03*
X-146300Y112000D03*
X-159000Y112000D03*
X-171700Y112000D03*
X-108200Y99300D03*
X-120900Y99300D03*
X-133600Y99300D03*
X-146300Y99300D03*
X-159000Y99300D03*
X-171700Y99300D03*
X-184400Y99300D03*
X-197100Y99300D03*
X-209800Y99300D03*
X-222500Y99300D03*
X-108200Y86600D03*
X-120900Y86600D03*
X-133600Y86600D03*
X-146300Y86600D03*
X-159000Y86600D03*
X-171700Y86600D03*
X-184400Y86600D03*
X-197100Y86600D03*
X-209800Y86600D03*
X-222500Y86600D03*
X-108200Y73900D03*
X-120900Y73900D03*
X-133600Y73900D03*
X-146300Y73900D03*
X-159000Y73900D03*
X-171700Y73900D03*
X-184400Y150100D03*
X-184400Y137400D03*
X-184400Y124700D03*
X-184400Y112000D03*
X-184400Y73900D03*
X-197100Y112000D03*
X-209800Y112000D03*
X-222500Y112000D03*
X-222500Y73900D03*
X-209800Y73900D03*
X-197100Y73900D03*
D26*
X-135970Y188000D03*
X-108030Y188000D03*
X-188030Y189000D03*
X-215970Y189000D03*
D16*
X-107666Y164000D03*
X-118334Y164000D03*
X-185666Y164000D03*
X-196334Y164000D03*
D24*
X-68000Y90490D03*
X-68000Y123510D03*
X-249000Y94490D03*
X-249000Y127510D03*
D12*
X-356000Y495334D03*
X-356000Y484666D03*
X-369000Y495334D03*
X-369000Y484666D03*
X-72000Y543334D03*
X-72000Y532666D03*
X-77000Y199334D03*
X-77000Y188666D03*
D21*
X-136414Y231000D03*
X-115586Y231000D03*
D16*
X-134666Y249000D03*
X-145334Y249000D03*
X-119334Y305000D03*
X-108666Y305000D03*
X-142334Y305000D03*
X-131666Y305000D03*
D21*
X-131414Y323000D03*
X-110586Y323000D03*
D12*
X-90000Y199334D03*
X-90000Y188666D03*
X-170000Y200334D03*
X-170000Y189666D03*
D34*
X-449500Y72500D03*
X-449500Y67500D03*
X-449500Y62500D03*
D35*
X-449500Y56625D03*
D34*
X-449500Y87500D03*
X-449500Y82500D03*
X-449500Y77500D03*
D35*
X-449500Y93375D03*
D34*
X-464500Y77500D03*
X-464500Y82500D03*
X-464500Y87500D03*
D35*
X-464500Y93375D03*
D34*
X-464500Y62500D03*
X-464500Y67500D03*
X-464500Y72500D03*
D35*
X-464500Y56625D03*
D34*
X-449500Y123500D03*
X-449500Y118500D03*
X-449500Y113500D03*
D35*
X-449500Y107625D03*
D34*
X-449500Y138500D03*
X-449500Y133500D03*
X-449500Y128500D03*
D35*
X-449500Y144375D03*
D34*
X-464500Y128500D03*
X-464500Y133500D03*
X-464500Y138500D03*
D35*
X-464500Y144375D03*
D34*
X-464500Y113500D03*
X-464500Y118500D03*
X-464500Y123500D03*
D35*
X-464500Y107625D03*
D34*
X-449500Y236500D03*
X-449500Y231500D03*
X-449500Y226500D03*
D35*
X-449500Y220625D03*
D34*
X-449500Y251500D03*
X-449500Y246500D03*
X-449500Y241500D03*
D35*
X-449500Y257375D03*
D34*
X-464500Y241500D03*
X-464500Y246500D03*
X-464500Y251500D03*
D35*
X-464500Y257375D03*
D34*
X-464500Y226500D03*
X-464500Y231500D03*
X-464500Y236500D03*
D35*
X-464500Y220625D03*
D34*
X-449500Y186500D03*
X-449500Y181500D03*
X-449500Y176500D03*
D35*
X-449500Y170625D03*
D34*
X-449500Y201500D03*
X-449500Y196500D03*
X-449500Y191500D03*
D35*
X-449500Y207375D03*
D34*
X-464500Y191500D03*
X-464500Y196500D03*
X-464500Y201500D03*
D35*
X-464500Y207375D03*
D34*
X-464500Y176500D03*
X-464500Y181500D03*
X-464500Y186500D03*
D35*
X-464500Y170625D03*
D36*
X-131000Y276000D03*
D37*
X-145500Y272750D03*
X-145500Y279250D03*
X-116500Y279250D03*
X-116500Y272750D03*
D32*
X-121250Y290750D03*
X-127750Y290750D03*
X-134250Y290750D03*
X-140750Y290750D03*
X-140750Y261250D03*
X-134250Y261250D03*
X-127750Y261250D03*
X-121250Y261250D03*
D21*
X-191414Y234000D03*
X-170586Y234000D03*
D16*
X-189666Y252000D03*
X-200334Y252000D03*
X-174334Y308000D03*
X-163666Y308000D03*
X-197334Y308000D03*
X-186666Y308000D03*
D21*
X-186414Y326000D03*
X-165586Y326000D03*
D36*
X-186000Y279000D03*
D37*
X-200500Y275750D03*
X-200500Y282250D03*
X-171500Y282250D03*
X-171500Y275750D03*
D32*
X-176250Y293750D03*
X-182750Y293750D03*
X-189250Y293750D03*
X-195750Y293750D03*
X-195750Y264250D03*
X-189250Y264250D03*
X-182750Y264250D03*
X-176250Y264250D03*
D16*
G36*
X-338654Y344959D02*
X-343503Y340110D01*
X-348890Y345497D01*
X-344041Y350346D01*
X-338654Y344959D01*
G37*
G36*
X-331110Y352503D02*
X-335959Y347654D01*
X-341346Y353041D01*
X-336497Y357890D01*
X-331110Y352503D01*
G37*
D21*
X-216586Y234000D03*
X-237414Y234000D03*
D16*
X-245666Y252000D03*
X-256334Y252000D03*
X-230334Y308000D03*
X-219666Y308000D03*
X-253334Y308000D03*
X-242666Y308000D03*
D21*
X-210586Y326000D03*
X-231414Y326000D03*
D36*
X-242000Y279000D03*
D37*
X-256500Y275750D03*
X-256500Y282250D03*
X-227500Y282250D03*
X-227500Y275750D03*
D32*
X-232250Y293750D03*
X-238750Y293750D03*
X-245250Y293750D03*
X-251750Y293750D03*
X-251750Y264250D03*
X-245250Y264250D03*
X-238750Y264250D03*
X-232250Y264250D03*
D16*
G36*
X-329654Y335959D02*
X-334503Y331110D01*
X-339890Y336497D01*
X-335041Y341346D01*
X-329654Y335959D01*
G37*
G36*
X-322110Y343503D02*
X-326959Y338654D01*
X-332346Y344041D01*
X-327497Y348890D01*
X-322110Y343503D01*
G37*
G36*
X-384346Y336041D02*
X-379497Y340890D01*
X-374110Y335503D01*
X-378959Y330654D01*
X-384346Y336041D01*
G37*
G36*
X-391890Y328497D02*
X-387041Y333346D01*
X-381654Y327959D01*
X-386503Y323110D01*
X-391890Y328497D01*
G37*
G36*
X-397654Y311959D02*
X-402503Y307110D01*
X-407890Y312497D01*
X-403041Y317346D01*
X-397654Y311959D01*
G37*
G36*
X-390110Y319503D02*
X-394959Y314654D01*
X-400346Y320041D01*
X-395497Y324890D01*
X-390110Y319503D01*
G37*
D38*
G36*
X-347128Y261429D02*
X-349249Y259308D01*
X-355292Y265351D01*
X-353171Y267472D01*
X-347128Y261429D01*
G37*
G36*
X-343593Y264965D02*
X-345714Y262844D01*
X-351757Y268887D01*
X-349636Y271008D01*
X-343593Y264965D01*
G37*
G36*
X-340057Y268500D02*
X-342178Y266379D01*
X-348221Y272422D01*
X-346100Y274543D01*
X-340057Y268500D01*
G37*
G36*
X-336521Y272036D02*
X-338642Y269915D01*
X-344685Y275958D01*
X-342564Y278079D01*
X-336521Y272036D01*
G37*
G36*
X-332986Y275571D02*
X-335107Y273450D01*
X-341150Y279493D01*
X-339029Y281614D01*
X-332986Y275571D01*
G37*
G36*
X-329450Y279107D02*
X-331571Y276986D01*
X-337614Y283029D01*
X-335493Y285150D01*
X-329450Y279107D01*
G37*
G36*
X-325915Y282642D02*
X-328036Y280521D01*
X-334079Y286564D01*
X-331958Y288685D01*
X-325915Y282642D01*
G37*
G36*
X-322379Y286178D02*
X-324500Y284057D01*
X-330543Y290100D01*
X-328422Y292221D01*
X-322379Y286178D01*
G37*
G36*
X-318844Y289714D02*
X-320965Y287593D01*
X-327008Y293636D01*
X-324887Y295757D01*
X-318844Y289714D01*
G37*
G36*
X-315308Y293249D02*
X-317429Y291128D01*
X-323472Y297171D01*
X-321351Y299292D01*
X-315308Y293249D01*
G37*
G36*
X-321351Y300708D02*
X-323472Y302829D01*
X-317429Y308872D01*
X-315308Y306751D01*
X-321351Y300708D01*
G37*
G36*
X-324887Y304243D02*
X-327008Y306364D01*
X-320965Y312407D01*
X-318844Y310286D01*
X-324887Y304243D01*
G37*
G36*
X-328422Y307779D02*
X-330543Y309900D01*
X-324500Y315943D01*
X-322379Y313822D01*
X-328422Y307779D01*
G37*
G36*
X-331958Y311315D02*
X-334079Y313436D01*
X-328036Y319479D01*
X-325915Y317358D01*
X-331958Y311315D01*
G37*
G36*
X-335493Y314850D02*
X-337614Y316971D01*
X-331571Y323014D01*
X-329450Y320893D01*
X-335493Y314850D01*
G37*
G36*
X-339029Y318386D02*
X-341150Y320507D01*
X-335107Y326550D01*
X-332986Y324429D01*
X-339029Y318386D01*
G37*
G36*
X-342564Y321921D02*
X-344685Y324042D01*
X-338642Y330085D01*
X-336521Y327964D01*
X-342564Y321921D01*
G37*
G36*
X-346100Y325457D02*
X-348221Y327578D01*
X-342178Y333621D01*
X-340057Y331500D01*
X-346100Y325457D01*
G37*
G36*
X-349636Y328992D02*
X-351757Y331113D01*
X-345714Y337156D01*
X-343593Y335035D01*
X-349636Y328992D01*
G37*
G36*
X-353171Y332528D02*
X-355292Y334649D01*
X-349249Y340692D01*
X-347128Y338571D01*
X-353171Y332528D01*
G37*
G36*
X-356708Y334649D02*
X-358829Y332528D01*
X-364872Y338571D01*
X-362751Y340692D01*
X-356708Y334649D01*
G37*
G36*
X-360243Y331113D02*
X-362364Y328992D01*
X-368407Y335035D01*
X-366286Y337156D01*
X-360243Y331113D01*
G37*
G36*
X-363779Y327578D02*
X-365900Y325457D01*
X-371943Y331500D01*
X-369822Y333621D01*
X-363779Y327578D01*
G37*
G36*
X-367315Y324042D02*
X-369436Y321921D01*
X-375479Y327964D01*
X-373358Y330085D01*
X-367315Y324042D01*
G37*
G36*
X-370850Y320507D02*
X-372971Y318386D01*
X-379014Y324429D01*
X-376893Y326550D01*
X-370850Y320507D01*
G37*
G36*
X-374386Y316971D02*
X-376507Y314850D01*
X-382550Y320893D01*
X-380429Y323014D01*
X-374386Y316971D01*
G37*
G36*
X-377921Y313436D02*
X-380042Y311315D01*
X-386085Y317358D01*
X-383964Y319479D01*
X-377921Y313436D01*
G37*
G36*
X-381457Y309900D02*
X-383578Y307779D01*
X-389621Y313822D01*
X-387500Y315943D01*
X-381457Y309900D01*
G37*
G36*
X-384992Y306364D02*
X-387113Y304243D01*
X-393156Y310286D01*
X-391035Y312407D01*
X-384992Y306364D01*
G37*
G36*
X-388528Y302829D02*
X-390649Y300708D01*
X-396692Y306751D01*
X-394571Y308872D01*
X-388528Y302829D01*
G37*
G36*
X-394571Y291128D02*
X-396692Y293249D01*
X-390649Y299292D01*
X-388528Y297171D01*
X-394571Y291128D01*
G37*
G36*
X-391035Y287593D02*
X-393156Y289714D01*
X-387113Y295757D01*
X-384992Y293636D01*
X-391035Y287593D01*
G37*
G36*
X-387500Y284057D02*
X-389621Y286178D01*
X-383578Y292221D01*
X-381457Y290100D01*
X-387500Y284057D01*
G37*
G36*
X-383964Y280521D02*
X-386085Y282642D01*
X-380042Y288685D01*
X-377921Y286564D01*
X-383964Y280521D01*
G37*
G36*
X-380429Y276986D02*
X-382550Y279107D01*
X-376507Y285150D01*
X-374386Y283029D01*
X-380429Y276986D01*
G37*
G36*
X-376893Y273450D02*
X-379014Y275571D01*
X-372971Y281614D01*
X-370850Y279493D01*
X-376893Y273450D01*
G37*
G36*
X-373358Y269915D02*
X-375479Y272036D01*
X-369436Y278079D01*
X-367315Y275958D01*
X-373358Y269915D01*
G37*
G36*
X-369822Y266379D02*
X-371943Y268500D01*
X-365900Y274543D01*
X-363779Y272422D01*
X-369822Y266379D01*
G37*
G36*
X-366286Y262844D02*
X-368407Y264965D01*
X-362364Y271008D01*
X-360243Y268887D01*
X-366286Y262844D01*
G37*
G36*
X-362751Y259308D02*
X-364872Y261429D01*
X-358829Y267472D01*
X-356708Y265351D01*
X-362751Y259308D01*
G37*
D39*
X-11750Y67350D03*
X-24450Y67350D03*
X-37150Y67350D03*
X950Y67350D03*
X13650Y67350D03*
X26350Y67350D03*
X39050Y67350D03*
X51750Y67350D03*
X64450Y67350D03*
X77150Y67350D03*
X-11750Y80050D03*
X-24450Y80050D03*
X-37150Y80050D03*
X950Y80050D03*
X13650Y80050D03*
X26350Y80050D03*
X39050Y80050D03*
X51750Y80050D03*
X64450Y80050D03*
X77150Y80050D03*
X-11750Y92750D03*
X-24450Y92750D03*
X-37150Y92750D03*
X950Y92750D03*
X13650Y92750D03*
X26350Y92750D03*
X39050Y92750D03*
X51750Y92750D03*
X64450Y92750D03*
X77150Y92750D03*
X-11750Y105450D03*
X-24450Y105450D03*
X-37150Y105450D03*
X950Y105450D03*
X13650Y105450D03*
X26350Y105450D03*
X39050Y105450D03*
X51750Y105450D03*
X64450Y105450D03*
X77150Y105450D03*
X-11750Y118150D03*
X-24450Y118150D03*
X-37150Y118150D03*
X950Y118150D03*
X13650Y118150D03*
X26350Y118150D03*
X39050Y118150D03*
X51750Y118150D03*
X64450Y118150D03*
X77150Y118150D03*
X-11750Y130850D03*
X-24450Y130850D03*
X-37150Y130850D03*
X950Y130850D03*
X13650Y130850D03*
X26350Y130850D03*
X39050Y130850D03*
X51750Y130850D03*
X64450Y130850D03*
X77150Y130850D03*
X-11750Y143550D03*
X-24450Y143550D03*
X-37150Y143550D03*
X950Y143550D03*
X13650Y143550D03*
X26350Y143550D03*
X39050Y143550D03*
X51750Y143550D03*
X64450Y143550D03*
X77150Y143550D03*
X-11750Y156250D03*
X-24450Y156250D03*
X-37150Y156250D03*
X950Y156250D03*
X13650Y156250D03*
X26350Y156250D03*
X39050Y156250D03*
X51750Y156250D03*
X64450Y156250D03*
X77150Y156250D03*
X-11750Y168950D03*
X-24450Y168950D03*
X-37150Y168950D03*
X950Y168950D03*
X13650Y168950D03*
X26350Y168950D03*
X39050Y168950D03*
X51750Y168950D03*
X64450Y168950D03*
X77150Y168950D03*
X-11750Y181650D03*
X-24450Y181650D03*
X-37150Y181650D03*
X950Y181650D03*
X13650Y181650D03*
X26350Y181650D03*
X39050Y181650D03*
X51750Y181650D03*
X64450Y181650D03*
X77150Y181650D03*
X-11750Y194350D03*
X-24450Y194350D03*
X-37150Y194350D03*
X950Y194350D03*
X13650Y194350D03*
X26350Y194350D03*
X39050Y194350D03*
X51750Y194350D03*
X64450Y194350D03*
X77150Y194350D03*
X-11750Y207050D03*
X-24450Y207050D03*
X-37150Y207050D03*
X950Y207050D03*
X13650Y207050D03*
X26350Y207050D03*
X39050Y207050D03*
X51750Y207050D03*
X64450Y207050D03*
X77150Y207050D03*
X-11750Y219750D03*
X-24450Y219750D03*
X-37150Y219750D03*
X950Y219750D03*
X13650Y219750D03*
X26350Y219750D03*
X39050Y219750D03*
X51750Y219750D03*
X64450Y219750D03*
X77150Y219750D03*
X-11750Y232450D03*
X-24450Y232450D03*
X-37150Y232450D03*
X950Y232450D03*
X13650Y232450D03*
X26350Y232450D03*
X39050Y232450D03*
X51750Y232450D03*
X64450Y232450D03*
X77150Y232450D03*
X-11750Y245150D03*
X-24450Y245150D03*
X-37150Y245150D03*
X950Y245150D03*
X13650Y245150D03*
X26350Y245150D03*
X39050Y245150D03*
X51750Y245150D03*
X64450Y245150D03*
X77150Y245150D03*
X-11750Y257850D03*
X-24450Y257850D03*
X-37150Y257850D03*
X950Y257850D03*
X13650Y257850D03*
X26350Y257850D03*
X39050Y257850D03*
X51750Y257850D03*
X64450Y257850D03*
X77150Y257850D03*
X-11750Y270550D03*
X-24450Y270550D03*
X-37150Y270550D03*
X950Y270550D03*
X13650Y270550D03*
X26350Y270550D03*
X39050Y270550D03*
X51750Y270550D03*
X64450Y270550D03*
X77150Y270550D03*
X-11750Y283250D03*
X-24450Y283250D03*
X-37150Y283250D03*
X950Y283250D03*
X13650Y283250D03*
X26350Y283250D03*
X39050Y283250D03*
X51750Y283250D03*
X64450Y283250D03*
X77150Y283250D03*
X-11750Y295950D03*
X-24450Y295950D03*
X-37150Y295950D03*
X950Y295950D03*
X13650Y295950D03*
X26350Y295950D03*
X39050Y295950D03*
X51750Y295950D03*
X64450Y295950D03*
X77150Y295950D03*
X-11750Y308650D03*
X-24450Y308650D03*
X-37150Y308650D03*
X950Y308650D03*
X13650Y308650D03*
X26350Y308650D03*
X39050Y308650D03*
X51750Y308650D03*
X64450Y308650D03*
X77150Y308650D03*
X-11750Y321350D03*
X-24450Y321350D03*
X-37150Y321350D03*
X950Y321350D03*
X13650Y321350D03*
X26350Y321350D03*
X39050Y321350D03*
X51750Y321350D03*
X64450Y321350D03*
X77150Y321350D03*
X-11750Y334050D03*
X-24450Y334050D03*
X-37150Y334050D03*
X950Y334050D03*
X13650Y334050D03*
X26350Y334050D03*
X39050Y334050D03*
X51750Y334050D03*
X64450Y334050D03*
X77150Y334050D03*
X-11750Y346750D03*
X-24450Y346750D03*
X-37150Y346750D03*
X950Y346750D03*
X13650Y346750D03*
X26350Y346750D03*
X39050Y346750D03*
X51750Y346750D03*
X64450Y346750D03*
X77150Y346750D03*
X-11750Y359450D03*
X-24450Y359450D03*
X-37150Y359450D03*
X950Y359450D03*
X13650Y359450D03*
X26350Y359450D03*
X39050Y359450D03*
X51750Y359450D03*
X64450Y359450D03*
X77150Y359450D03*
X-11750Y372150D03*
X-24450Y372150D03*
X-37150Y372150D03*
X950Y372150D03*
X13650Y372150D03*
X26350Y372150D03*
X39050Y372150D03*
X51750Y372150D03*
X64450Y372150D03*
X77150Y372150D03*
X-11750Y384850D03*
X-24450Y384850D03*
X-37150Y384850D03*
X950Y384850D03*
X13650Y384850D03*
X26350Y384850D03*
X39050Y384850D03*
X51750Y384850D03*
X64450Y384850D03*
X77150Y384850D03*
X-11750Y397550D03*
X-24450Y397550D03*
X-37150Y397550D03*
X950Y397550D03*
X13650Y397550D03*
X26350Y397550D03*
X39050Y397550D03*
X51750Y397550D03*
X64450Y397550D03*
X77150Y397550D03*
X-11750Y410250D03*
X-24450Y410250D03*
X-37150Y410250D03*
X950Y410250D03*
X13650Y410250D03*
X26350Y410250D03*
X39050Y410250D03*
X51750Y410250D03*
X64450Y410250D03*
X77150Y410250D03*
X-11750Y422950D03*
X-24450Y422950D03*
X-37150Y422950D03*
X950Y422950D03*
X13650Y422950D03*
X26350Y422950D03*
X39050Y422950D03*
X51750Y422950D03*
X64450Y422950D03*
X77150Y422950D03*
X-11750Y435650D03*
X-24450Y435650D03*
X-37150Y435650D03*
X950Y435650D03*
X13650Y435650D03*
X26350Y435650D03*
X39050Y435650D03*
X51750Y435650D03*
X64450Y435650D03*
X77150Y435650D03*
X-11750Y448350D03*
X-24450Y448350D03*
X-37150Y448350D03*
X950Y448350D03*
X13650Y448350D03*
X26350Y448350D03*
X39050Y448350D03*
X51750Y448350D03*
X64450Y448350D03*
X77150Y448350D03*
X-11750Y461050D03*
X-24450Y461050D03*
X-37150Y461050D03*
X950Y461050D03*
X13650Y461050D03*
X26350Y461050D03*
X39050Y461050D03*
X51750Y461050D03*
X64450Y461050D03*
X77150Y461050D03*
X-11750Y473750D03*
X-24450Y473750D03*
X-37150Y473750D03*
X950Y473750D03*
X13650Y473750D03*
X26350Y473750D03*
X39050Y473750D03*
X51750Y473750D03*
X64450Y473750D03*
X77150Y473750D03*
X-11750Y486450D03*
X-24450Y486450D03*
X-37150Y486450D03*
X950Y486450D03*
X13650Y486450D03*
X26350Y486450D03*
X39050Y486450D03*
X51750Y486450D03*
X64450Y486450D03*
X77150Y486450D03*
X-11750Y499150D03*
X-24450Y499150D03*
X-37150Y499150D03*
X950Y499150D03*
X13650Y499150D03*
X26350Y499150D03*
X39050Y499150D03*
X51750Y499150D03*
X64450Y499150D03*
X77150Y499150D03*
X-11750Y511850D03*
X-24450Y511850D03*
X-37150Y511850D03*
X950Y511850D03*
X13650Y511850D03*
X26350Y511850D03*
X39050Y511850D03*
X51750Y511850D03*
X64450Y511850D03*
X77150Y511850D03*
X-11750Y524550D03*
X-24450Y524550D03*
X-37150Y524550D03*
X950Y524550D03*
X13650Y524550D03*
X26350Y524550D03*
X39050Y524550D03*
X51750Y524550D03*
X64450Y524550D03*
X77150Y524550D03*
X-11750Y537250D03*
X-24450Y537250D03*
X-37150Y537250D03*
X950Y537250D03*
X13650Y537250D03*
X26350Y537250D03*
X39050Y537250D03*
X51750Y537250D03*
X64450Y537250D03*
X77150Y537250D03*
X-11750Y549950D03*
X-24450Y549950D03*
X-37150Y549950D03*
X950Y549950D03*
X13650Y549950D03*
X26350Y549950D03*
X39050Y549950D03*
X51750Y549950D03*
X64450Y549950D03*
X77150Y549950D03*
X-11750Y562650D03*
X-24450Y562650D03*
X-37150Y562650D03*
X950Y562650D03*
X13650Y562650D03*
X26350Y562650D03*
X39050Y562650D03*
X51750Y562650D03*
X64450Y562650D03*
X77150Y562650D03*
D40*
X-32000Y653750D03*
X-32000Y647250D03*
X-32000Y640750D03*
X-32000Y634250D03*
X-32000Y627750D03*
X-32000Y621250D03*
X-32000Y614750D03*
X-32000Y608250D03*
X-92000Y653750D03*
X-92000Y647250D03*
X-92000Y640750D03*
X-92000Y634250D03*
X-92000Y627750D03*
X-92000Y621250D03*
X-92000Y614750D03*
X-92000Y608250D03*
D12*
X-72000Y566666D03*
X-72000Y577334D03*
X-565000Y486334D03*
X-565000Y475666D03*
D16*
X-548666Y507000D03*
X-559334Y507000D03*
D24*
X-458000Y475490D03*
X-458000Y508510D03*
D16*
X-184166Y424000D03*
X-194834Y424000D03*
X-179666Y411000D03*
X-190334Y411000D03*
X-202666Y411000D03*
X-213334Y411000D03*
D12*
X-152000Y477666D03*
X-152000Y488334D03*
X-165000Y477666D03*
X-165000Y488334D03*
X-152000Y499666D03*
X-152000Y510334D03*
X-165000Y499666D03*
X-165000Y510334D03*
X-437000Y500666D03*
X-437000Y511334D03*
D19*
X-592000Y503430D03*
X-592000Y480570D03*
D20*
X-484250Y494000D03*
X-525750Y494000D03*
D21*
X-416586Y477000D03*
X-437414Y477000D03*
D18*
X-420510Y504000D03*
X-387490Y504000D03*
D27*
X-598250Y467050D03*
X-591750Y467050D03*
D12*
X-153000Y368334D03*
X-153000Y357666D03*
X-167000Y368334D03*
X-167000Y357666D03*
D41*
X-62800Y-1900D03*
X-62800Y3100D03*
X-62800Y8100D03*
X-62800Y13100D03*
X-62800Y18100D03*
X-62800Y23100D03*
X-62800Y28100D03*
X-62800Y33100D03*
D42*
X-69300Y39600D03*
X-74300Y39600D03*
X-79300Y39600D03*
X-84300Y39600D03*
X-89300Y39600D03*
X-94300Y39600D03*
X-99300Y39600D03*
X-104300Y39600D03*
D41*
X-110800Y33100D03*
X-110800Y28100D03*
X-110800Y23100D03*
X-110800Y18100D03*
X-110800Y13100D03*
X-110800Y8100D03*
X-110800Y3100D03*
X-110800Y-1900D03*
D42*
X-104300Y-8400D03*
X-99300Y-8400D03*
X-94300Y-8400D03*
X-89300Y-8400D03*
X-84300Y-8400D03*
X-79300Y-8400D03*
X-74300Y-8400D03*
X-69300Y-8400D03*
D43*
X-79300Y23100D03*
X-79300Y8100D03*
X-94300Y8100D03*
X-94300Y23100D03*
D16*
X-72166Y-18200D03*
X-82834Y-18200D03*
X-92734Y54200D03*
X-82066Y54200D03*
D44*
X-287000Y23750D03*
X-287000Y17250D03*
X-287000Y10750D03*
X-287000Y4250D03*
X-287000Y-2250D03*
X-287000Y-8750D03*
X-287000Y-15250D03*
X-287000Y-21750D03*
X-343000Y23750D03*
X-343000Y17250D03*
X-343000Y10750D03*
X-343000Y4250D03*
X-343000Y-2250D03*
X-343000Y-8750D03*
X-343000Y-15250D03*
X-343000Y-21750D03*
D45*
X-275000Y48750D03*
X-275000Y42250D03*
X-275000Y55250D03*
X-275000Y61750D03*
X-317000Y61750D03*
X-317000Y55250D03*
X-317000Y48750D03*
X-317000Y42250D03*
D46*
X-296000Y52000D03*
D47*
X-493000Y259000D03*
D48*
X-512254Y268750D03*
X-512254Y262250D03*
X-512254Y255750D03*
X-512254Y249250D03*
D49*
X-502750Y239746D03*
X-496250Y239746D03*
X-489750Y239746D03*
X-483250Y239746D03*
D48*
X-473746Y249250D03*
X-473746Y255750D03*
X-473746Y262250D03*
X-473746Y268750D03*
D49*
X-483250Y278254D03*
X-489750Y278254D03*
X-496250Y278254D03*
X-502750Y278254D03*
D47*
X-493000Y190000D03*
D48*
X-512254Y199750D03*
X-512254Y193250D03*
X-512254Y186750D03*
X-512254Y180250D03*
D49*
X-502750Y170746D03*
X-496250Y170746D03*
X-489750Y170746D03*
X-483250Y170746D03*
D48*
X-473746Y180250D03*
X-473746Y186750D03*
X-473746Y193250D03*
X-473746Y199750D03*
D49*
X-483250Y209254D03*
X-489750Y209254D03*
X-496250Y209254D03*
X-502750Y209254D03*
D47*
X-494000Y122000D03*
D48*
X-513254Y131750D03*
X-513254Y125250D03*
X-513254Y118750D03*
X-513254Y112250D03*
D49*
X-503750Y102746D03*
X-497250Y102746D03*
X-490750Y102746D03*
X-484250Y102746D03*
D48*
X-474746Y112250D03*
X-474746Y118750D03*
X-474746Y125250D03*
X-474746Y131750D03*
D49*
X-484250Y141254D03*
X-490750Y141254D03*
X-497250Y141254D03*
X-503750Y141254D03*
D16*
X-202334Y369000D03*
X-191666Y369000D03*
X-202334Y383000D03*
X-191666Y383000D03*
X-259334Y477000D03*
X-248666Y477000D03*
X-259334Y464000D03*
X-248666Y464000D03*
D26*
X-226970Y521500D03*
X-199030Y521500D03*
D50*
X-243000Y610030D03*
X-243000Y637970D03*
D51*
X-353500Y509000D03*
X-348500Y509000D03*
X-343500Y509000D03*
X-338500Y509000D03*
X-333500Y509000D03*
X-328500Y509000D03*
X-323500Y509000D03*
X-318500Y509000D03*
X-313500Y509000D03*
X-308500Y509000D03*
X-303500Y509000D03*
X-298500Y509000D03*
D52*
X-292000Y515500D03*
X-292000Y520500D03*
X-292000Y525500D03*
X-292000Y530500D03*
X-292000Y535500D03*
X-292000Y540500D03*
X-292000Y545500D03*
X-292000Y550500D03*
X-292000Y555500D03*
X-292000Y560500D03*
X-292000Y565500D03*
X-292000Y570500D03*
D51*
X-298500Y577000D03*
X-303500Y577000D03*
X-308500Y577000D03*
X-313500Y577000D03*
X-318500Y577000D03*
X-323500Y577000D03*
X-328500Y577000D03*
X-333500Y577000D03*
X-338500Y577000D03*
X-343500Y577000D03*
X-348500Y577000D03*
X-353500Y577000D03*
D52*
X-360000Y570500D03*
X-360000Y565500D03*
X-360000Y560500D03*
X-360000Y555500D03*
X-360000Y550500D03*
X-360000Y545500D03*
X-360000Y540500D03*
X-360000Y535500D03*
X-360000Y530500D03*
X-360000Y525500D03*
X-360000Y520500D03*
X-360000Y515500D03*
D53*
X-326000Y543000D03*
X-326000Y529300D03*
X-312300Y529300D03*
X-312300Y543000D03*
X-312300Y556700D03*
X-326000Y556700D03*
X-339700Y556700D03*
X-339700Y543000D03*
X-339700Y529300D03*
D16*
X-356334Y590000D03*
X-345666Y590000D03*
D24*
X-302500Y638510D03*
X-302500Y605490D03*
D54*
X-328000Y616914D03*
X-328000Y596086D03*
D51*
X-159500Y381500D03*
X-154500Y381500D03*
X-149500Y381500D03*
X-144500Y381500D03*
X-139500Y381500D03*
X-134500Y381500D03*
X-129500Y381500D03*
X-124500Y381500D03*
X-119500Y381500D03*
X-114500Y381500D03*
X-109500Y381500D03*
X-104500Y381500D03*
D52*
X-98000Y388000D03*
X-98000Y393000D03*
X-98000Y398000D03*
X-98000Y403000D03*
X-98000Y408000D03*
X-98000Y413000D03*
X-98000Y418000D03*
X-98000Y423000D03*
X-98000Y428000D03*
X-98000Y433000D03*
X-98000Y438000D03*
X-98000Y443000D03*
D51*
X-104500Y449500D03*
X-109500Y449500D03*
X-114500Y449500D03*
X-119500Y449500D03*
X-124500Y449500D03*
X-129500Y449500D03*
X-134500Y449500D03*
X-139500Y449500D03*
X-144500Y449500D03*
X-149500Y449500D03*
X-154500Y449500D03*
X-159500Y449500D03*
D52*
X-166000Y443000D03*
X-166000Y438000D03*
X-166000Y433000D03*
X-166000Y428000D03*
X-166000Y423000D03*
X-166000Y418000D03*
X-166000Y413000D03*
X-166000Y408000D03*
X-166000Y403000D03*
X-166000Y398000D03*
X-166000Y393000D03*
X-166000Y388000D03*
D53*
X-132000Y415500D03*
X-132000Y401800D03*
X-118300Y401800D03*
X-118300Y415500D03*
X-118300Y429200D03*
X-132000Y429200D03*
X-145700Y429200D03*
X-145700Y415500D03*
X-145700Y401800D03*
D16*
X-161834Y460400D03*
X-151166Y460400D03*
D24*
X-109500Y508510D03*
X-109500Y475490D03*
D54*
X-135500Y489914D03*
X-135500Y469086D03*
D26*
X73970Y630000D03*
X46030Y630000D03*
X73970Y0D03*
X46030Y0D03*
D55*
X-70000Y246000D03*
X-70000Y254000D03*
X-70000Y262000D03*
X-70000Y270000D03*
X-70000Y278000D03*
X-70000Y286000D03*
X-70000Y294000D03*
X-70000Y302000D03*
D56*
X-84000Y233000D03*
X-84000Y315000D03*
D10*
X217000Y363000D03*
X259000Y363000D03*
X217000Y439000D03*
X259000Y439000D03*
D11*
X438000Y398364D03*
X438000Y415636D03*
X457000Y398364D03*
X457000Y415636D03*
X476000Y398364D03*
X476000Y415636D03*
D12*
X421000Y412334D03*
X421000Y401666D03*
D13*
X463495Y380000D03*
X476505Y385080D03*
X476505Y374920D03*
D12*
X493000Y382334D03*
X493000Y371666D03*
D14*
X507500Y416500D03*
X507500Y407000D03*
X507500Y397500D03*
X534500Y397500D03*
X534500Y416500D03*
D12*
X493000Y412334D03*
X493000Y401666D03*
X532000Y371666D03*
X532000Y382334D03*
X519000Y382334D03*
X519000Y371666D03*
D10*
X217000Y401000D03*
X259000Y401000D03*
D11*
X339000Y398364D03*
X339000Y415636D03*
X301000Y398364D03*
X301000Y415636D03*
X320000Y398364D03*
X320000Y415636D03*
D12*
X282000Y408334D03*
X282000Y397666D03*
D13*
X326495Y380000D03*
X339505Y385080D03*
X339505Y374920D03*
D12*
X355000Y384334D03*
X355000Y373666D03*
D14*
X370500Y416500D03*
X370500Y407000D03*
X370500Y397500D03*
X397500Y397500D03*
X397500Y416500D03*
D12*
X356000Y412334D03*
X356000Y401666D03*
X394000Y373666D03*
X394000Y384334D03*
X381000Y384334D03*
X381000Y373666D03*
D15*
X356000Y362000D03*
X356000Y326000D03*
D12*
X372000Y346666D03*
X372000Y357334D03*
X385000Y346666D03*
X385000Y357334D03*
D16*
X384334Y333000D03*
X373666Y333000D03*
D17*
X545270Y423500D03*
X551770Y423500D03*
X558270Y423500D03*
X564770Y423500D03*
X545270Y364500D03*
X551770Y364500D03*
X558270Y364500D03*
X564770Y364500D03*
D12*
X249000Y547334D03*
X249000Y536666D03*
X303000Y620334D03*
X303000Y609666D03*
D18*
X321490Y617000D03*
X354510Y617000D03*
D16*
X434053Y553005D03*
X423385Y553005D03*
X432053Y540005D03*
X421385Y540005D03*
D12*
X408000Y540334D03*
X408000Y529666D03*
X466402Y606263D03*
X466402Y616931D03*
X452892Y606263D03*
X452892Y616931D03*
X466402Y629123D03*
X466402Y639791D03*
X452892Y629123D03*
X452892Y639791D03*
X372268Y595847D03*
X372268Y585179D03*
D19*
X222000Y557430D03*
X222000Y534570D03*
D20*
X349750Y573000D03*
X308250Y573000D03*
D21*
X393682Y616263D03*
X372854Y616263D03*
D22*
X421000Y374000D03*
X443000Y383500D03*
X443000Y364500D03*
X283000Y374000D03*
X305000Y383500D03*
X305000Y364500D03*
D23*
X294000Y324750D03*
X284500Y346750D03*
X303500Y346750D03*
D24*
X424737Y603008D03*
X424737Y636028D03*
D12*
X394487Y595852D03*
X394487Y585184D03*
D25*
X650613Y612132D03*
X663313Y612132D03*
X688713Y612132D03*
X701413Y612132D03*
X688713Y599432D03*
X701413Y599432D03*
X650613Y586732D03*
X663313Y586732D03*
X676013Y586732D03*
X688713Y586732D03*
X701413Y586732D03*
X650613Y574032D03*
X663313Y574032D03*
X676013Y574032D03*
X688713Y574032D03*
X701413Y574032D03*
X650613Y561332D03*
X663313Y561332D03*
X676013Y561332D03*
X688713Y561332D03*
X701413Y561332D03*
X650613Y599432D03*
X663313Y599432D03*
X676013Y599432D03*
X676013Y612132D03*
D21*
X718927Y529982D03*
X698099Y529982D03*
D12*
X679013Y644566D03*
X679013Y633898D03*
D16*
X713847Y546482D03*
X703179Y546482D03*
D12*
X706513Y633898D03*
X706513Y644566D03*
X692763Y633898D03*
X692763Y644566D03*
X665263Y633898D03*
X665263Y644566D03*
D26*
X602030Y614000D03*
X629970Y614000D03*
X601543Y560232D03*
X629483Y560232D03*
D12*
X506000Y382334D03*
X506000Y371666D03*
X368000Y384334D03*
X368000Y373666D03*
D27*
X214750Y521050D03*
X221250Y521050D03*
D28*
X231000Y328000D03*
X231000Y62000D03*
D29*
X278000Y115625D03*
X278000Y128325D03*
X278000Y141025D03*
X278000Y153725D03*
X278000Y166425D03*
X278000Y179125D03*
X278000Y191825D03*
X278000Y204525D03*
X278000Y217225D03*
X278000Y229925D03*
X278000Y242625D03*
X278000Y255325D03*
X278000Y268025D03*
X278000Y121975D03*
X278000Y134675D03*
X278000Y147375D03*
X278000Y160075D03*
X278000Y172775D03*
X278000Y185475D03*
X278000Y198175D03*
X278000Y210875D03*
X278000Y223575D03*
X278000Y236275D03*
X278000Y248975D03*
X278000Y261675D03*
X278000Y274375D03*
D30*
X387750Y218750D03*
X387750Y212250D03*
X387750Y205750D03*
X387750Y199250D03*
X387750Y192750D03*
X387750Y186250D03*
X387750Y179750D03*
X387750Y173250D03*
X387750Y166750D03*
X387750Y160250D03*
X387750Y153750D03*
X387750Y147250D03*
X387750Y140750D03*
X387750Y134250D03*
X387750Y127750D03*
X387750Y121250D03*
X387750Y114750D03*
X387750Y108250D03*
X387750Y101750D03*
X387750Y95250D03*
D31*
X402250Y80750D03*
X408750Y80750D03*
X415250Y80750D03*
X421750Y80750D03*
X428250Y80750D03*
X434750Y80750D03*
X441250Y80750D03*
X447750Y80750D03*
X454250Y80750D03*
X460750Y80750D03*
X467250Y80750D03*
X473750Y80750D03*
X480250Y80750D03*
X486750Y80750D03*
X493250Y80750D03*
X499750Y80750D03*
X506250Y80750D03*
X512750Y80750D03*
X519250Y80750D03*
X525750Y80750D03*
D30*
X540250Y95250D03*
X540250Y101750D03*
X540250Y108250D03*
X540250Y114750D03*
X540250Y121250D03*
X540250Y127750D03*
X540250Y134250D03*
X540250Y140750D03*
X540250Y147250D03*
X540250Y153750D03*
X540250Y160250D03*
X540250Y166750D03*
X540250Y173250D03*
X540250Y179750D03*
X540250Y186250D03*
X540250Y192750D03*
X540250Y199250D03*
X540250Y205750D03*
X540250Y212250D03*
X540250Y218750D03*
D31*
X525750Y233250D03*
X519250Y233250D03*
X512750Y233250D03*
X506250Y233250D03*
X499750Y233250D03*
X493250Y233250D03*
X486750Y233250D03*
X480250Y233250D03*
X473750Y233250D03*
X467250Y233250D03*
X460750Y233250D03*
X454250Y233250D03*
X447750Y233250D03*
X441250Y233250D03*
X434750Y233250D03*
X428250Y233250D03*
X421750Y233250D03*
X415250Y233250D03*
X408750Y233250D03*
X402250Y233250D03*
D32*
X332000Y358000D03*
X338500Y358000D03*
X325500Y358000D03*
X332000Y340000D03*
X338500Y340000D03*
X325500Y340000D03*
D33*
X719500Y150100D03*
X719500Y137400D03*
X719500Y124700D03*
X719500Y112000D03*
X719500Y99300D03*
X719500Y86600D03*
X719500Y73900D03*
X706800Y150100D03*
X694100Y150100D03*
X681400Y150100D03*
X668700Y150100D03*
X656000Y150100D03*
X643300Y150100D03*
X617900Y150100D03*
X605200Y150100D03*
X592500Y150100D03*
X706800Y137400D03*
X694100Y137400D03*
X681400Y137400D03*
X668700Y137400D03*
X656000Y137400D03*
X643300Y137400D03*
X617900Y137400D03*
X605200Y137400D03*
X592500Y137400D03*
X706800Y124700D03*
X694100Y124700D03*
X681400Y124700D03*
X668700Y124700D03*
X656000Y124700D03*
X643300Y124700D03*
X617900Y124700D03*
X605200Y124700D03*
X592500Y124700D03*
X706800Y112000D03*
X694100Y112000D03*
X681400Y112000D03*
X668700Y112000D03*
X656000Y112000D03*
X643300Y112000D03*
X706800Y99300D03*
X694100Y99300D03*
X681400Y99300D03*
X668700Y99300D03*
X656000Y99300D03*
X643300Y99300D03*
X630600Y99300D03*
X617900Y99300D03*
X605200Y99300D03*
X592500Y99300D03*
X706800Y86600D03*
X694100Y86600D03*
X681400Y86600D03*
X668700Y86600D03*
X656000Y86600D03*
X643300Y86600D03*
X630600Y86600D03*
X617900Y86600D03*
X605200Y86600D03*
X592500Y86600D03*
X706800Y73900D03*
X694100Y73900D03*
X681400Y73900D03*
X668700Y73900D03*
X656000Y73900D03*
X643300Y73900D03*
X630600Y150100D03*
X630600Y137400D03*
X630600Y124700D03*
X630600Y112000D03*
X630600Y73900D03*
X617900Y112000D03*
X605200Y112000D03*
X592500Y112000D03*
X592500Y73900D03*
X605200Y73900D03*
X617900Y73900D03*
D26*
X679030Y188000D03*
X706970Y188000D03*
X626970Y189000D03*
X599030Y189000D03*
D16*
X707334Y164000D03*
X696666Y164000D03*
X629334Y164000D03*
X618666Y164000D03*
D24*
X747000Y90490D03*
X747000Y123510D03*
X566000Y94490D03*
X566000Y127510D03*
D12*
X459000Y495334D03*
X459000Y484666D03*
X446000Y495334D03*
X446000Y484666D03*
X743000Y543334D03*
X743000Y532666D03*
X738000Y199334D03*
X738000Y188666D03*
D21*
X678586Y231000D03*
X699414Y231000D03*
D16*
X680334Y249000D03*
X669666Y249000D03*
X695666Y305000D03*
X706334Y305000D03*
X672666Y305000D03*
X683334Y305000D03*
D21*
X683586Y323000D03*
X704414Y323000D03*
D12*
X725000Y199334D03*
X725000Y188666D03*
X645000Y200334D03*
X645000Y189666D03*
D34*
X365500Y72500D03*
X365500Y67500D03*
X365500Y62500D03*
D35*
X365500Y56625D03*
D34*
X365500Y87500D03*
X365500Y82500D03*
X365500Y77500D03*
D35*
X365500Y93375D03*
D34*
X350500Y77500D03*
X350500Y82500D03*
X350500Y87500D03*
D35*
X350500Y93375D03*
D34*
X350500Y62500D03*
X350500Y67500D03*
X350500Y72500D03*
D35*
X350500Y56625D03*
D34*
X365500Y123500D03*
X365500Y118500D03*
X365500Y113500D03*
D35*
X365500Y107625D03*
D34*
X365500Y138500D03*
X365500Y133500D03*
X365500Y128500D03*
D35*
X365500Y144375D03*
D34*
X350500Y128500D03*
X350500Y133500D03*
X350500Y138500D03*
D35*
X350500Y144375D03*
D34*
X350500Y113500D03*
X350500Y118500D03*
X350500Y123500D03*
D35*
X350500Y107625D03*
D34*
X365500Y236500D03*
X365500Y231500D03*
X365500Y226500D03*
D35*
X365500Y220625D03*
D34*
X365500Y251500D03*
X365500Y246500D03*
X365500Y241500D03*
D35*
X365500Y257375D03*
D34*
X350500Y241500D03*
X350500Y246500D03*
X350500Y251500D03*
D35*
X350500Y257375D03*
D34*
X350500Y226500D03*
X350500Y231500D03*
X350500Y236500D03*
D35*
X350500Y220625D03*
D34*
X365500Y186500D03*
X365500Y181500D03*
X365500Y176500D03*
D35*
X365500Y170625D03*
D34*
X365500Y201500D03*
X365500Y196500D03*
X365500Y191500D03*
D35*
X365500Y207375D03*
D34*
X350500Y191500D03*
X350500Y196500D03*
X350500Y201500D03*
D35*
X350500Y207375D03*
D34*
X350500Y176500D03*
X350500Y181500D03*
X350500Y186500D03*
D35*
X350500Y170625D03*
D36*
X684000Y276000D03*
D37*
X669500Y272750D03*
X669500Y279250D03*
X698500Y279250D03*
X698500Y272750D03*
D32*
X693750Y290750D03*
X687250Y290750D03*
X680750Y290750D03*
X674250Y290750D03*
X674250Y261250D03*
X680750Y261250D03*
X687250Y261250D03*
X693750Y261250D03*
D21*
X623586Y234000D03*
X644414Y234000D03*
D16*
X625334Y252000D03*
X614666Y252000D03*
X640666Y308000D03*
X651334Y308000D03*
X617666Y308000D03*
X628334Y308000D03*
D21*
X628586Y326000D03*
X649414Y326000D03*
D36*
X629000Y279000D03*
D37*
X614500Y275750D03*
X614500Y282250D03*
X643500Y282250D03*
X643500Y275750D03*
D32*
X638750Y293750D03*
X632250Y293750D03*
X625750Y293750D03*
X619250Y293750D03*
X619250Y264250D03*
X625750Y264250D03*
X632250Y264250D03*
X638750Y264250D03*
D16*
G36*
X476346Y344959D02*
X471497Y340110D01*
X466110Y345497D01*
X470959Y350346D01*
X476346Y344959D01*
G37*
G36*
X483890Y352503D02*
X479041Y347654D01*
X473654Y353041D01*
X478503Y357890D01*
X483890Y352503D01*
G37*
D21*
X598414Y234000D03*
X577586Y234000D03*
D16*
X569334Y252000D03*
X558666Y252000D03*
X584666Y308000D03*
X595334Y308000D03*
X561666Y308000D03*
X572334Y308000D03*
D21*
X604414Y326000D03*
X583586Y326000D03*
D36*
X573000Y279000D03*
D37*
X558500Y275750D03*
X558500Y282250D03*
X587500Y282250D03*
X587500Y275750D03*
D32*
X582750Y293750D03*
X576250Y293750D03*
X569750Y293750D03*
X563250Y293750D03*
X563250Y264250D03*
X569750Y264250D03*
X576250Y264250D03*
X582750Y264250D03*
D16*
G36*
X485346Y335959D02*
X480497Y331110D01*
X475110Y336497D01*
X479959Y341346D01*
X485346Y335959D01*
G37*
G36*
X492890Y343503D02*
X488041Y338654D01*
X482654Y344041D01*
X487503Y348890D01*
X492890Y343503D01*
G37*
G36*
X430654Y336041D02*
X435503Y340890D01*
X440890Y335503D01*
X436041Y330654D01*
X430654Y336041D01*
G37*
G36*
X423110Y328497D02*
X427959Y333346D01*
X433346Y327959D01*
X428497Y323110D01*
X423110Y328497D01*
G37*
G36*
X417346Y311959D02*
X412497Y307110D01*
X407110Y312497D01*
X411959Y317346D01*
X417346Y311959D01*
G37*
G36*
X424890Y319503D02*
X420041Y314654D01*
X414654Y320041D01*
X419503Y324890D01*
X424890Y319503D01*
G37*
D38*
G36*
X467872Y261429D02*
X465751Y259308D01*
X459708Y265351D01*
X461829Y267472D01*
X467872Y261429D01*
G37*
G36*
X471407Y264965D02*
X469286Y262844D01*
X463243Y268887D01*
X465364Y271008D01*
X471407Y264965D01*
G37*
G36*
X474943Y268500D02*
X472822Y266379D01*
X466779Y272422D01*
X468900Y274543D01*
X474943Y268500D01*
G37*
G36*
X478479Y272036D02*
X476358Y269915D01*
X470315Y275958D01*
X472436Y278079D01*
X478479Y272036D01*
G37*
G36*
X482014Y275571D02*
X479893Y273450D01*
X473850Y279493D01*
X475971Y281614D01*
X482014Y275571D01*
G37*
G36*
X485550Y279107D02*
X483429Y276986D01*
X477386Y283029D01*
X479507Y285150D01*
X485550Y279107D01*
G37*
G36*
X489085Y282642D02*
X486964Y280521D01*
X480921Y286564D01*
X483042Y288685D01*
X489085Y282642D01*
G37*
G36*
X492621Y286178D02*
X490500Y284057D01*
X484457Y290100D01*
X486578Y292221D01*
X492621Y286178D01*
G37*
G36*
X496156Y289714D02*
X494035Y287593D01*
X487992Y293636D01*
X490113Y295757D01*
X496156Y289714D01*
G37*
G36*
X499692Y293249D02*
X497571Y291128D01*
X491528Y297171D01*
X493649Y299292D01*
X499692Y293249D01*
G37*
G36*
X493649Y300708D02*
X491528Y302829D01*
X497571Y308872D01*
X499692Y306751D01*
X493649Y300708D01*
G37*
G36*
X490113Y304243D02*
X487992Y306364D01*
X494035Y312407D01*
X496156Y310286D01*
X490113Y304243D01*
G37*
G36*
X486578Y307779D02*
X484457Y309900D01*
X490500Y315943D01*
X492621Y313822D01*
X486578Y307779D01*
G37*
G36*
X483042Y311315D02*
X480921Y313436D01*
X486964Y319479D01*
X489085Y317358D01*
X483042Y311315D01*
G37*
G36*
X479507Y314850D02*
X477386Y316971D01*
X483429Y323014D01*
X485550Y320893D01*
X479507Y314850D01*
G37*
G36*
X475971Y318386D02*
X473850Y320507D01*
X479893Y326550D01*
X482014Y324429D01*
X475971Y318386D01*
G37*
G36*
X472436Y321921D02*
X470315Y324042D01*
X476358Y330085D01*
X478479Y327964D01*
X472436Y321921D01*
G37*
G36*
X468900Y325457D02*
X466779Y327578D01*
X472822Y333621D01*
X474943Y331500D01*
X468900Y325457D01*
G37*
G36*
X465364Y328992D02*
X463243Y331113D01*
X469286Y337156D01*
X471407Y335035D01*
X465364Y328992D01*
G37*
G36*
X461829Y332528D02*
X459708Y334649D01*
X465751Y340692D01*
X467872Y338571D01*
X461829Y332528D01*
G37*
G36*
X458292Y334649D02*
X456171Y332528D01*
X450128Y338571D01*
X452249Y340692D01*
X458292Y334649D01*
G37*
G36*
X454757Y331113D02*
X452636Y328992D01*
X446593Y335035D01*
X448714Y337156D01*
X454757Y331113D01*
G37*
G36*
X451221Y327578D02*
X449100Y325457D01*
X443057Y331500D01*
X445178Y333621D01*
X451221Y327578D01*
G37*
G36*
X447685Y324042D02*
X445564Y321921D01*
X439521Y327964D01*
X441642Y330085D01*
X447685Y324042D01*
G37*
G36*
X444150Y320507D02*
X442029Y318386D01*
X435986Y324429D01*
X438107Y326550D01*
X444150Y320507D01*
G37*
G36*
X440614Y316971D02*
X438493Y314850D01*
X432450Y320893D01*
X434571Y323014D01*
X440614Y316971D01*
G37*
G36*
X437079Y313436D02*
X434958Y311315D01*
X428915Y317358D01*
X431036Y319479D01*
X437079Y313436D01*
G37*
G36*
X433543Y309900D02*
X431422Y307779D01*
X425379Y313822D01*
X427500Y315943D01*
X433543Y309900D01*
G37*
G36*
X430008Y306364D02*
X427887Y304243D01*
X421844Y310286D01*
X423965Y312407D01*
X430008Y306364D01*
G37*
G36*
X426472Y302829D02*
X424351Y300708D01*
X418308Y306751D01*
X420429Y308872D01*
X426472Y302829D01*
G37*
G36*
X420429Y291128D02*
X418308Y293249D01*
X424351Y299292D01*
X426472Y297171D01*
X420429Y291128D01*
G37*
G36*
X423965Y287593D02*
X421844Y289714D01*
X427887Y295757D01*
X430008Y293636D01*
X423965Y287593D01*
G37*
G36*
X427500Y284057D02*
X425379Y286178D01*
X431422Y292221D01*
X433543Y290100D01*
X427500Y284057D01*
G37*
G36*
X431036Y280521D02*
X428915Y282642D01*
X434958Y288685D01*
X437079Y286564D01*
X431036Y280521D01*
G37*
G36*
X434571Y276986D02*
X432450Y279107D01*
X438493Y285150D01*
X440614Y283029D01*
X434571Y276986D01*
G37*
G36*
X438107Y273450D02*
X435986Y275571D01*
X442029Y281614D01*
X444150Y279493D01*
X438107Y273450D01*
G37*
G36*
X441642Y269915D02*
X439521Y272036D01*
X445564Y278079D01*
X447685Y275958D01*
X441642Y269915D01*
G37*
G36*
X445178Y266379D02*
X443057Y268500D01*
X449100Y274543D01*
X451221Y272422D01*
X445178Y266379D01*
G37*
G36*
X448714Y262844D02*
X446593Y264965D01*
X452636Y271008D01*
X454757Y268887D01*
X448714Y262844D01*
G37*
G36*
X452249Y259308D02*
X450128Y261429D01*
X456171Y267472D01*
X458292Y265351D01*
X452249Y259308D01*
G37*
D39*
X803250Y67350D03*
X790550Y67350D03*
X777850Y67350D03*
X815950Y67350D03*
X828650Y67350D03*
X841350Y67350D03*
X854050Y67350D03*
X866750Y67350D03*
X879450Y67350D03*
X892150Y67350D03*
X803250Y80050D03*
X790550Y80050D03*
X777850Y80050D03*
X815950Y80050D03*
X828650Y80050D03*
X841350Y80050D03*
X854050Y80050D03*
X866750Y80050D03*
X879450Y80050D03*
X892150Y80050D03*
X803250Y92750D03*
X790550Y92750D03*
X777850Y92750D03*
X815950Y92750D03*
X828650Y92750D03*
X841350Y92750D03*
X854050Y92750D03*
X866750Y92750D03*
X879450Y92750D03*
X892150Y92750D03*
X803250Y105450D03*
X790550Y105450D03*
X777850Y105450D03*
X815950Y105450D03*
X828650Y105450D03*
X841350Y105450D03*
X854050Y105450D03*
X866750Y105450D03*
X879450Y105450D03*
X892150Y105450D03*
X803250Y118150D03*
X790550Y118150D03*
X777850Y118150D03*
X815950Y118150D03*
X828650Y118150D03*
X841350Y118150D03*
X854050Y118150D03*
X866750Y118150D03*
X879450Y118150D03*
X892150Y118150D03*
X803250Y130850D03*
X790550Y130850D03*
X777850Y130850D03*
X815950Y130850D03*
X828650Y130850D03*
X841350Y130850D03*
X854050Y130850D03*
X866750Y130850D03*
X879450Y130850D03*
X892150Y130850D03*
X803250Y143550D03*
X790550Y143550D03*
X777850Y143550D03*
X815950Y143550D03*
X828650Y143550D03*
X841350Y143550D03*
X854050Y143550D03*
X866750Y143550D03*
X879450Y143550D03*
X892150Y143550D03*
X803250Y156250D03*
X790550Y156250D03*
X777850Y156250D03*
X815950Y156250D03*
X828650Y156250D03*
X841350Y156250D03*
X854050Y156250D03*
X866750Y156250D03*
X879450Y156250D03*
X892150Y156250D03*
X803250Y168950D03*
X790550Y168950D03*
X777850Y168950D03*
X815950Y168950D03*
X828650Y168950D03*
X841350Y168950D03*
X854050Y168950D03*
X866750Y168950D03*
X879450Y168950D03*
X892150Y168950D03*
X803250Y181650D03*
X790550Y181650D03*
X777850Y181650D03*
X815950Y181650D03*
X828650Y181650D03*
X841350Y181650D03*
X854050Y181650D03*
X866750Y181650D03*
X879450Y181650D03*
X892150Y181650D03*
X803250Y194350D03*
X790550Y194350D03*
X777850Y194350D03*
X815950Y194350D03*
X828650Y194350D03*
X841350Y194350D03*
X854050Y194350D03*
X866750Y194350D03*
X879450Y194350D03*
X892150Y194350D03*
X803250Y207050D03*
X790550Y207050D03*
X777850Y207050D03*
X815950Y207050D03*
X828650Y207050D03*
X841350Y207050D03*
X854050Y207050D03*
X866750Y207050D03*
X879450Y207050D03*
X892150Y207050D03*
X803250Y219750D03*
X790550Y219750D03*
X777850Y219750D03*
X815950Y219750D03*
X828650Y219750D03*
X841350Y219750D03*
X854050Y219750D03*
X866750Y219750D03*
X879450Y219750D03*
X892150Y219750D03*
X803250Y232450D03*
X790550Y232450D03*
X777850Y232450D03*
X815950Y232450D03*
X828650Y232450D03*
X841350Y232450D03*
X854050Y232450D03*
X866750Y232450D03*
X879450Y232450D03*
X892150Y232450D03*
X803250Y245150D03*
X790550Y245150D03*
X777850Y245150D03*
X815950Y245150D03*
X828650Y245150D03*
X841350Y245150D03*
X854050Y245150D03*
X866750Y245150D03*
X879450Y245150D03*
X892150Y245150D03*
X803250Y257850D03*
X790550Y257850D03*
X777850Y257850D03*
X815950Y257850D03*
X828650Y257850D03*
X841350Y257850D03*
X854050Y257850D03*
X866750Y257850D03*
X879450Y257850D03*
X892150Y257850D03*
X803250Y270550D03*
X790550Y270550D03*
X777850Y270550D03*
X815950Y270550D03*
X828650Y270550D03*
X841350Y270550D03*
X854050Y270550D03*
X866750Y270550D03*
X879450Y270550D03*
X892150Y270550D03*
X803250Y283250D03*
X790550Y283250D03*
X777850Y283250D03*
X815950Y283250D03*
X828650Y283250D03*
X841350Y283250D03*
X854050Y283250D03*
X866750Y283250D03*
X879450Y283250D03*
X892150Y283250D03*
X803250Y295950D03*
X790550Y295950D03*
X777850Y295950D03*
X815950Y295950D03*
X828650Y295950D03*
X841350Y295950D03*
X854050Y295950D03*
X866750Y295950D03*
X879450Y295950D03*
X892150Y295950D03*
X803250Y308650D03*
X790550Y308650D03*
X777850Y308650D03*
X815950Y308650D03*
X828650Y308650D03*
X841350Y308650D03*
X854050Y308650D03*
X866750Y308650D03*
X879450Y308650D03*
X892150Y308650D03*
X803250Y321350D03*
X790550Y321350D03*
X777850Y321350D03*
X815950Y321350D03*
X828650Y321350D03*
X841350Y321350D03*
X854050Y321350D03*
X866750Y321350D03*
X879450Y321350D03*
X892150Y321350D03*
X803250Y334050D03*
X790550Y334050D03*
X777850Y334050D03*
X815950Y334050D03*
X828650Y334050D03*
X841350Y334050D03*
X854050Y334050D03*
X866750Y334050D03*
X879450Y334050D03*
X892150Y334050D03*
X803250Y346750D03*
X790550Y346750D03*
X777850Y346750D03*
X815950Y346750D03*
X828650Y346750D03*
X841350Y346750D03*
X854050Y346750D03*
X866750Y346750D03*
X879450Y346750D03*
X892150Y346750D03*
X803250Y359450D03*
X790550Y359450D03*
X777850Y359450D03*
X815950Y359450D03*
X828650Y359450D03*
X841350Y359450D03*
X854050Y359450D03*
X866750Y359450D03*
X879450Y359450D03*
X892150Y359450D03*
X803250Y372150D03*
X790550Y372150D03*
X777850Y372150D03*
X815950Y372150D03*
X828650Y372150D03*
X841350Y372150D03*
X854050Y372150D03*
X866750Y372150D03*
X879450Y372150D03*
X892150Y372150D03*
X803250Y384850D03*
X790550Y384850D03*
X777850Y384850D03*
X815950Y384850D03*
X828650Y384850D03*
X841350Y384850D03*
X854050Y384850D03*
X866750Y384850D03*
X879450Y384850D03*
X892150Y384850D03*
X803250Y397550D03*
X790550Y397550D03*
X777850Y397550D03*
X815950Y397550D03*
X828650Y397550D03*
X841350Y397550D03*
X854050Y397550D03*
X866750Y397550D03*
X879450Y397550D03*
X892150Y397550D03*
X803250Y410250D03*
X790550Y410250D03*
X777850Y410250D03*
X815950Y410250D03*
X828650Y410250D03*
X841350Y410250D03*
X854050Y410250D03*
X866750Y410250D03*
X879450Y410250D03*
X892150Y410250D03*
X803250Y422950D03*
X790550Y422950D03*
X777850Y422950D03*
X815950Y422950D03*
X828650Y422950D03*
X841350Y422950D03*
X854050Y422950D03*
X866750Y422950D03*
X879450Y422950D03*
X892150Y422950D03*
X803250Y435650D03*
X790550Y435650D03*
X777850Y435650D03*
X815950Y435650D03*
X828650Y435650D03*
X841350Y435650D03*
X854050Y435650D03*
X866750Y435650D03*
X879450Y435650D03*
X892150Y435650D03*
X803250Y448350D03*
X790550Y448350D03*
X777850Y448350D03*
X815950Y448350D03*
X828650Y448350D03*
X841350Y448350D03*
X854050Y448350D03*
X866750Y448350D03*
X879450Y448350D03*
X892150Y448350D03*
X803250Y461050D03*
X790550Y461050D03*
X777850Y461050D03*
X815950Y461050D03*
X828650Y461050D03*
X841350Y461050D03*
X854050Y461050D03*
X866750Y461050D03*
X879450Y461050D03*
X892150Y461050D03*
X803250Y473750D03*
X790550Y473750D03*
X777850Y473750D03*
X815950Y473750D03*
X828650Y473750D03*
X841350Y473750D03*
X854050Y473750D03*
X866750Y473750D03*
X879450Y473750D03*
X892150Y473750D03*
X803250Y486450D03*
X790550Y486450D03*
X777850Y486450D03*
X815950Y486450D03*
X828650Y486450D03*
X841350Y486450D03*
X854050Y486450D03*
X866750Y486450D03*
X879450Y486450D03*
X892150Y486450D03*
X803250Y499150D03*
X790550Y499150D03*
X777850Y499150D03*
X815950Y499150D03*
X828650Y499150D03*
X841350Y499150D03*
X854050Y499150D03*
X866750Y499150D03*
X879450Y499150D03*
X892150Y499150D03*
X803250Y511850D03*
X790550Y511850D03*
X777850Y511850D03*
X815950Y511850D03*
X828650Y511850D03*
X841350Y511850D03*
X854050Y511850D03*
X866750Y511850D03*
X879450Y511850D03*
X892150Y511850D03*
X803250Y524550D03*
X790550Y524550D03*
X777850Y524550D03*
X815950Y524550D03*
X828650Y524550D03*
X841350Y524550D03*
X854050Y524550D03*
X866750Y524550D03*
X879450Y524550D03*
X892150Y524550D03*
X803250Y537250D03*
X790550Y537250D03*
X777850Y537250D03*
X815950Y537250D03*
X828650Y537250D03*
X841350Y537250D03*
X854050Y537250D03*
X866750Y537250D03*
X879450Y537250D03*
X892150Y537250D03*
X803250Y549950D03*
X790550Y549950D03*
X777850Y549950D03*
X815950Y549950D03*
X828650Y549950D03*
X841350Y549950D03*
X854050Y549950D03*
X866750Y549950D03*
X879450Y549950D03*
X892150Y549950D03*
X803250Y562650D03*
X790550Y562650D03*
X777850Y562650D03*
X815950Y562650D03*
X828650Y562650D03*
X841350Y562650D03*
X854050Y562650D03*
X866750Y562650D03*
X879450Y562650D03*
X892150Y562650D03*
D40*
X783000Y653750D03*
X783000Y647250D03*
X783000Y640750D03*
X783000Y634250D03*
X783000Y627750D03*
X783000Y621250D03*
X783000Y614750D03*
X783000Y608250D03*
X723000Y653750D03*
X723000Y647250D03*
X723000Y640750D03*
X723000Y634250D03*
X723000Y627750D03*
X723000Y621250D03*
X723000Y614750D03*
X723000Y608250D03*
D12*
X743000Y566666D03*
X743000Y577334D03*
X250000Y486334D03*
X250000Y475666D03*
D16*
X266334Y507000D03*
X255666Y507000D03*
D24*
X357000Y475490D03*
X357000Y508510D03*
D16*
X630834Y424000D03*
X620166Y424000D03*
X635334Y411000D03*
X624666Y411000D03*
X612334Y411000D03*
X601666Y411000D03*
D12*
X663000Y477666D03*
X663000Y488334D03*
X650000Y477666D03*
X650000Y488334D03*
X663000Y499666D03*
X663000Y510334D03*
X650000Y499666D03*
X650000Y510334D03*
X378000Y500666D03*
X378000Y511334D03*
D19*
X223000Y503430D03*
X223000Y480570D03*
D20*
X330750Y494000D03*
X289250Y494000D03*
D21*
X398414Y477000D03*
X377586Y477000D03*
D18*
X394490Y504000D03*
X427510Y504000D03*
D27*
X216750Y467050D03*
X223250Y467050D03*
D12*
X662000Y368334D03*
X662000Y357666D03*
X648000Y368334D03*
X648000Y357666D03*
D41*
X752200Y-1900D03*
X752200Y3100D03*
X752200Y8100D03*
X752200Y13100D03*
X752200Y18100D03*
X752200Y23100D03*
X752200Y28100D03*
X752200Y33100D03*
D42*
X745700Y39600D03*
X740700Y39600D03*
X735700Y39600D03*
X730700Y39600D03*
X725700Y39600D03*
X720700Y39600D03*
X715700Y39600D03*
X710700Y39600D03*
D41*
X704200Y33100D03*
X704200Y28100D03*
X704200Y23100D03*
X704200Y18100D03*
X704200Y13100D03*
X704200Y8100D03*
X704200Y3100D03*
X704200Y-1900D03*
D42*
X710700Y-8400D03*
X715700Y-8400D03*
X720700Y-8400D03*
X725700Y-8400D03*
X730700Y-8400D03*
X735700Y-8400D03*
X740700Y-8400D03*
X745700Y-8400D03*
D43*
X735700Y23100D03*
X735700Y8100D03*
X720700Y8100D03*
X720700Y23100D03*
D16*
X742834Y-18200D03*
X732166Y-18200D03*
X722266Y54200D03*
X732934Y54200D03*
D44*
X528000Y23750D03*
X528000Y17250D03*
X528000Y10750D03*
X528000Y4250D03*
X528000Y-2250D03*
X528000Y-8750D03*
X528000Y-15250D03*
X528000Y-21750D03*
X472000Y23750D03*
X472000Y17250D03*
X472000Y10750D03*
X472000Y4250D03*
X472000Y-2250D03*
X472000Y-8750D03*
X472000Y-15250D03*
X472000Y-21750D03*
D45*
X540000Y48750D03*
X540000Y42250D03*
X540000Y55250D03*
X540000Y61750D03*
X498000Y61750D03*
X498000Y55250D03*
X498000Y48750D03*
X498000Y42250D03*
D46*
X519000Y52000D03*
D47*
X322000Y259000D03*
D48*
X302746Y268750D03*
X302746Y262250D03*
X302746Y255750D03*
X302746Y249250D03*
D49*
X312250Y239746D03*
X318750Y239746D03*
X325250Y239746D03*
X331750Y239746D03*
D48*
X341254Y249250D03*
X341254Y255750D03*
X341254Y262250D03*
X341254Y268750D03*
D49*
X331750Y278254D03*
X325250Y278254D03*
X318750Y278254D03*
X312250Y278254D03*
D47*
X322000Y190000D03*
D48*
X302746Y199750D03*
X302746Y193250D03*
X302746Y186750D03*
X302746Y180250D03*
D49*
X312250Y170746D03*
X318750Y170746D03*
X325250Y170746D03*
X331750Y170746D03*
D48*
X341254Y180250D03*
X341254Y186750D03*
X341254Y193250D03*
X341254Y199750D03*
D49*
X331750Y209254D03*
X325250Y209254D03*
X318750Y209254D03*
X312250Y209254D03*
D47*
X321000Y122000D03*
D48*
X301746Y131750D03*
X301746Y125250D03*
X301746Y118750D03*
X301746Y112250D03*
D49*
X311250Y102746D03*
X317750Y102746D03*
X324250Y102746D03*
X330750Y102746D03*
D48*
X340254Y112250D03*
X340254Y118750D03*
X340254Y125250D03*
X340254Y131750D03*
D49*
X330750Y141254D03*
X324250Y141254D03*
X317750Y141254D03*
X311250Y141254D03*
D16*
X612666Y369000D03*
X623334Y369000D03*
X612666Y383000D03*
X623334Y383000D03*
X555666Y477000D03*
X566334Y477000D03*
X555666Y464000D03*
X566334Y464000D03*
D26*
X588030Y521500D03*
X615970Y521500D03*
D50*
X572000Y610030D03*
X572000Y637970D03*
D51*
X461500Y509000D03*
X466500Y509000D03*
X471500Y509000D03*
X476500Y509000D03*
X481500Y509000D03*
X486500Y509000D03*
X491500Y509000D03*
X496500Y509000D03*
X501500Y509000D03*
X506500Y509000D03*
X511500Y509000D03*
X516500Y509000D03*
D52*
X523000Y515500D03*
X523000Y520500D03*
X523000Y525500D03*
X523000Y530500D03*
X523000Y535500D03*
X523000Y540500D03*
X523000Y545500D03*
X523000Y550500D03*
X523000Y555500D03*
X523000Y560500D03*
X523000Y565500D03*
X523000Y570500D03*
D51*
X516500Y577000D03*
X511500Y577000D03*
X506500Y577000D03*
X501500Y577000D03*
X496500Y577000D03*
X491500Y577000D03*
X486500Y577000D03*
X481500Y577000D03*
X476500Y577000D03*
X471500Y577000D03*
X466500Y577000D03*
X461500Y577000D03*
D52*
X455000Y570500D03*
X455000Y565500D03*
X455000Y560500D03*
X455000Y555500D03*
X455000Y550500D03*
X455000Y545500D03*
X455000Y540500D03*
X455000Y535500D03*
X455000Y530500D03*
X455000Y525500D03*
X455000Y520500D03*
X455000Y515500D03*
D53*
X489000Y543000D03*
X489000Y529300D03*
X502700Y529300D03*
X502700Y543000D03*
X502700Y556700D03*
X489000Y556700D03*
X475300Y556700D03*
X475300Y543000D03*
X475300Y529300D03*
D16*
X458666Y590000D03*
X469334Y590000D03*
D24*
X512500Y638510D03*
X512500Y605490D03*
D54*
X487000Y616914D03*
X487000Y596086D03*
D51*
X655500Y381500D03*
X660500Y381500D03*
X665500Y381500D03*
X670500Y381500D03*
X675500Y381500D03*
X680500Y381500D03*
X685500Y381500D03*
X690500Y381500D03*
X695500Y381500D03*
X700500Y381500D03*
X705500Y381500D03*
X710500Y381500D03*
D52*
X717000Y388000D03*
X717000Y393000D03*
X717000Y398000D03*
X717000Y403000D03*
X717000Y408000D03*
X717000Y413000D03*
X717000Y418000D03*
X717000Y423000D03*
X717000Y428000D03*
X717000Y433000D03*
X717000Y438000D03*
X717000Y443000D03*
D51*
X710500Y449500D03*
X705500Y449500D03*
X700500Y449500D03*
X695500Y449500D03*
X690500Y449500D03*
X685500Y449500D03*
X680500Y449500D03*
X675500Y449500D03*
X670500Y449500D03*
X665500Y449500D03*
X660500Y449500D03*
X655500Y449500D03*
D52*
X649000Y443000D03*
X649000Y438000D03*
X649000Y433000D03*
X649000Y428000D03*
X649000Y423000D03*
X649000Y418000D03*
X649000Y413000D03*
X649000Y408000D03*
X649000Y403000D03*
X649000Y398000D03*
X649000Y393000D03*
X649000Y388000D03*
D53*
X683000Y415500D03*
X683000Y401800D03*
X696700Y401800D03*
X696700Y415500D03*
X696700Y429200D03*
X683000Y429200D03*
X669300Y429200D03*
X669300Y415500D03*
X669300Y401800D03*
D16*
X653166Y460400D03*
X663834Y460400D03*
D24*
X705500Y508510D03*
X705500Y475490D03*
D54*
X679500Y489914D03*
X679500Y469086D03*
D26*
X888970Y630000D03*
X861030Y630000D03*
X888970Y0D03*
X861030Y0D03*
D55*
X745000Y246000D03*
X745000Y254000D03*
X745000Y262000D03*
X745000Y270000D03*
X745000Y278000D03*
X745000Y286000D03*
X745000Y294000D03*
X745000Y302000D03*
D56*
X731000Y233000D03*
X731000Y315000D03*
D10*
X-598000Y1103000D03*
X-556000Y1103000D03*
X-598000Y1179000D03*
X-556000Y1179000D03*
D11*
X-377000Y1138364D03*
X-377000Y1155636D03*
X-358000Y1138364D03*
X-358000Y1155636D03*
X-339000Y1138364D03*
X-339000Y1155636D03*
D12*
X-394000Y1152334D03*
X-394000Y1141666D03*
D13*
X-351505Y1120000D03*
X-338495Y1125080D03*
X-338495Y1114920D03*
D12*
X-322000Y1122334D03*
X-322000Y1111666D03*
D14*
X-307500Y1156500D03*
X-307500Y1147000D03*
X-307500Y1137500D03*
X-280500Y1137500D03*
X-280500Y1156500D03*
D12*
X-322000Y1152334D03*
X-322000Y1141666D03*
X-283000Y1111666D03*
X-283000Y1122334D03*
X-296000Y1122334D03*
X-296000Y1111666D03*
D10*
X-598000Y1141000D03*
X-556000Y1141000D03*
D11*
X-476000Y1138364D03*
X-476000Y1155636D03*
X-514000Y1138364D03*
X-514000Y1155636D03*
X-495000Y1138364D03*
X-495000Y1155636D03*
D12*
X-533000Y1148334D03*
X-533000Y1137666D03*
D13*
X-488505Y1120000D03*
X-475495Y1125080D03*
X-475495Y1114920D03*
D12*
X-460000Y1124334D03*
X-460000Y1113666D03*
D14*
X-444500Y1156500D03*
X-444500Y1147000D03*
X-444500Y1137500D03*
X-417500Y1137500D03*
X-417500Y1156500D03*
D12*
X-459000Y1152334D03*
X-459000Y1141666D03*
X-421000Y1113666D03*
X-421000Y1124334D03*
X-434000Y1124334D03*
X-434000Y1113666D03*
D15*
X-459000Y1102000D03*
X-459000Y1066000D03*
D12*
X-443000Y1086666D03*
X-443000Y1097334D03*
X-430000Y1086666D03*
X-430000Y1097334D03*
D16*
X-430666Y1073000D03*
X-441334Y1073000D03*
D17*
X-269730Y1163500D03*
X-263230Y1163500D03*
X-256730Y1163500D03*
X-250230Y1163500D03*
X-269730Y1104500D03*
X-263230Y1104500D03*
X-256730Y1104500D03*
X-250230Y1104500D03*
D12*
X-566000Y1287334D03*
X-566000Y1276666D03*
X-512000Y1360334D03*
X-512000Y1349666D03*
D18*
X-493510Y1357000D03*
X-460490Y1357000D03*
D16*
X-380947Y1293005D03*
X-391615Y1293005D03*
X-382947Y1280005D03*
X-393615Y1280005D03*
D12*
X-407000Y1280334D03*
X-407000Y1269666D03*
X-348598Y1346263D03*
X-348598Y1356931D03*
X-362108Y1346263D03*
X-362108Y1356931D03*
X-348598Y1369123D03*
X-348598Y1379791D03*
X-362108Y1369123D03*
X-362108Y1379791D03*
X-442732Y1335847D03*
X-442732Y1325179D03*
D19*
X-593000Y1297430D03*
X-593000Y1274570D03*
D20*
X-465250Y1313000D03*
X-506750Y1313000D03*
D21*
X-421318Y1356263D03*
X-442146Y1356263D03*
D22*
X-394000Y1114000D03*
X-372000Y1123500D03*
X-372000Y1104500D03*
X-532000Y1114000D03*
X-510000Y1123500D03*
X-510000Y1104500D03*
D23*
X-521000Y1064750D03*
X-530500Y1086750D03*
X-511500Y1086750D03*
D24*
X-390263Y1343008D03*
X-390263Y1376028D03*
D12*
X-420513Y1335852D03*
X-420513Y1325184D03*
D25*
X-164387Y1352132D03*
X-151687Y1352132D03*
X-126287Y1352132D03*
X-113587Y1352132D03*
X-126287Y1339432D03*
X-113587Y1339432D03*
X-164387Y1326732D03*
X-151687Y1326732D03*
X-138987Y1326732D03*
X-126287Y1326732D03*
X-113587Y1326732D03*
X-164387Y1314032D03*
X-151687Y1314032D03*
X-138987Y1314032D03*
X-126287Y1314032D03*
X-113587Y1314032D03*
X-164387Y1301332D03*
X-151687Y1301332D03*
X-138987Y1301332D03*
X-126287Y1301332D03*
X-113587Y1301332D03*
X-164387Y1339432D03*
X-151687Y1339432D03*
X-138987Y1339432D03*
X-138987Y1352132D03*
D21*
X-96073Y1269982D03*
X-116901Y1269982D03*
D12*
X-135987Y1384566D03*
X-135987Y1373898D03*
D16*
X-101153Y1286482D03*
X-111821Y1286482D03*
D12*
X-108487Y1373898D03*
X-108487Y1384566D03*
X-122237Y1373898D03*
X-122237Y1384566D03*
X-149737Y1373898D03*
X-149737Y1384566D03*
D26*
X-212970Y1354000D03*
X-185030Y1354000D03*
X-213457Y1300232D03*
X-185517Y1300232D03*
D12*
X-309000Y1122334D03*
X-309000Y1111666D03*
X-447000Y1124334D03*
X-447000Y1113666D03*
D27*
X-600250Y1261050D03*
X-593750Y1261050D03*
D28*
X-584000Y1068000D03*
X-584000Y802000D03*
D29*
X-537000Y855625D03*
X-537000Y868325D03*
X-537000Y881025D03*
X-537000Y893725D03*
X-537000Y906425D03*
X-537000Y919125D03*
X-537000Y931825D03*
X-537000Y944525D03*
X-537000Y957225D03*
X-537000Y969925D03*
X-537000Y982625D03*
X-537000Y995325D03*
X-537000Y1008025D03*
X-537000Y861975D03*
X-537000Y874675D03*
X-537000Y887375D03*
X-537000Y900075D03*
X-537000Y912775D03*
X-537000Y925475D03*
X-537000Y938175D03*
X-537000Y950875D03*
X-537000Y963575D03*
X-537000Y976275D03*
X-537000Y988975D03*
X-537000Y1001675D03*
X-537000Y1014375D03*
D30*
X-427250Y958750D03*
X-427250Y952250D03*
X-427250Y945750D03*
X-427250Y939250D03*
X-427250Y932750D03*
X-427250Y926250D03*
X-427250Y919750D03*
X-427250Y913250D03*
X-427250Y906750D03*
X-427250Y900250D03*
X-427250Y893750D03*
X-427250Y887250D03*
X-427250Y880750D03*
X-427250Y874250D03*
X-427250Y867750D03*
X-427250Y861250D03*
X-427250Y854750D03*
X-427250Y848250D03*
X-427250Y841750D03*
X-427250Y835250D03*
D31*
X-412750Y820750D03*
X-406250Y820750D03*
X-399750Y820750D03*
X-393250Y820750D03*
X-386750Y820750D03*
X-380250Y820750D03*
X-373750Y820750D03*
X-367250Y820750D03*
X-360750Y820750D03*
X-354250Y820750D03*
X-347750Y820750D03*
X-341250Y820750D03*
X-334750Y820750D03*
X-328250Y820750D03*
X-321750Y820750D03*
X-315250Y820750D03*
X-308750Y820750D03*
X-302250Y820750D03*
X-295750Y820750D03*
X-289250Y820750D03*
D30*
X-274750Y835250D03*
X-274750Y841750D03*
X-274750Y848250D03*
X-274750Y854750D03*
X-274750Y861250D03*
X-274750Y867750D03*
X-274750Y874250D03*
X-274750Y880750D03*
X-274750Y887250D03*
X-274750Y893750D03*
X-274750Y900250D03*
X-274750Y906750D03*
X-274750Y913250D03*
X-274750Y919750D03*
X-274750Y926250D03*
X-274750Y932750D03*
X-274750Y939250D03*
X-274750Y945750D03*
X-274750Y952250D03*
X-274750Y958750D03*
D31*
X-289250Y973250D03*
X-295750Y973250D03*
X-302250Y973250D03*
X-308750Y973250D03*
X-315250Y973250D03*
X-321750Y973250D03*
X-328250Y973250D03*
X-334750Y973250D03*
X-341250Y973250D03*
X-347750Y973250D03*
X-354250Y973250D03*
X-360750Y973250D03*
X-367250Y973250D03*
X-373750Y973250D03*
X-380250Y973250D03*
X-386750Y973250D03*
X-393250Y973250D03*
X-399750Y973250D03*
X-406250Y973250D03*
X-412750Y973250D03*
D32*
X-483000Y1098000D03*
X-476500Y1098000D03*
X-489500Y1098000D03*
X-483000Y1080000D03*
X-476500Y1080000D03*
X-489500Y1080000D03*
D33*
X-95500Y890100D03*
X-95500Y877400D03*
X-95500Y864700D03*
X-95500Y852000D03*
X-95500Y839300D03*
X-95500Y826600D03*
X-95500Y813900D03*
X-108200Y890100D03*
X-120900Y890100D03*
X-133600Y890100D03*
X-146300Y890100D03*
X-159000Y890100D03*
X-171700Y890100D03*
X-197100Y890100D03*
X-209800Y890100D03*
X-222500Y890100D03*
X-108200Y877400D03*
X-120900Y877400D03*
X-133600Y877400D03*
X-146300Y877400D03*
X-159000Y877400D03*
X-171700Y877400D03*
X-197100Y877400D03*
X-209800Y877400D03*
X-222500Y877400D03*
X-108200Y864700D03*
X-120900Y864700D03*
X-133600Y864700D03*
X-146300Y864700D03*
X-159000Y864700D03*
X-171700Y864700D03*
X-197100Y864700D03*
X-209800Y864700D03*
X-222500Y864700D03*
X-108200Y852000D03*
X-120900Y852000D03*
X-133600Y852000D03*
X-146300Y852000D03*
X-159000Y852000D03*
X-171700Y852000D03*
X-108200Y839300D03*
X-120900Y839300D03*
X-133600Y839300D03*
X-146300Y839300D03*
X-159000Y839300D03*
X-171700Y839300D03*
X-184400Y839300D03*
X-197100Y839300D03*
X-209800Y839300D03*
X-222500Y839300D03*
X-108200Y826600D03*
X-120900Y826600D03*
X-133600Y826600D03*
X-146300Y826600D03*
X-159000Y826600D03*
X-171700Y826600D03*
X-184400Y826600D03*
X-197100Y826600D03*
X-209800Y826600D03*
X-222500Y826600D03*
X-108200Y813900D03*
X-120900Y813900D03*
X-133600Y813900D03*
X-146300Y813900D03*
X-159000Y813900D03*
X-171700Y813900D03*
X-184400Y890100D03*
X-184400Y877400D03*
X-184400Y864700D03*
X-184400Y852000D03*
X-184400Y813900D03*
X-197100Y852000D03*
X-209800Y852000D03*
X-222500Y852000D03*
X-222500Y813900D03*
X-209800Y813900D03*
X-197100Y813900D03*
D26*
X-135970Y928000D03*
X-108030Y928000D03*
X-188030Y929000D03*
X-215970Y929000D03*
D16*
X-107666Y904000D03*
X-118334Y904000D03*
X-185666Y904000D03*
X-196334Y904000D03*
D24*
X-68000Y830490D03*
X-68000Y863510D03*
X-249000Y834490D03*
X-249000Y867510D03*
D12*
X-356000Y1235334D03*
X-356000Y1224666D03*
X-369000Y1235334D03*
X-369000Y1224666D03*
X-72000Y1283334D03*
X-72000Y1272666D03*
X-77000Y939334D03*
X-77000Y928666D03*
D21*
X-136414Y971000D03*
X-115586Y971000D03*
D16*
X-134666Y989000D03*
X-145334Y989000D03*
X-119334Y1045000D03*
X-108666Y1045000D03*
X-142334Y1045000D03*
X-131666Y1045000D03*
D21*
X-131414Y1063000D03*
X-110586Y1063000D03*
D12*
X-90000Y939334D03*
X-90000Y928666D03*
X-170000Y940334D03*
X-170000Y929666D03*
D34*
X-449500Y812500D03*
X-449500Y807500D03*
X-449500Y802500D03*
D35*
X-449500Y796625D03*
D34*
X-449500Y827500D03*
X-449500Y822500D03*
X-449500Y817500D03*
D35*
X-449500Y833375D03*
D34*
X-464500Y817500D03*
X-464500Y822500D03*
X-464500Y827500D03*
D35*
X-464500Y833375D03*
D34*
X-464500Y802500D03*
X-464500Y807500D03*
X-464500Y812500D03*
D35*
X-464500Y796625D03*
D34*
X-449500Y863500D03*
X-449500Y858500D03*
X-449500Y853500D03*
D35*
X-449500Y847625D03*
D34*
X-449500Y878500D03*
X-449500Y873500D03*
X-449500Y868500D03*
D35*
X-449500Y884375D03*
D34*
X-464500Y868500D03*
X-464500Y873500D03*
X-464500Y878500D03*
D35*
X-464500Y884375D03*
D34*
X-464500Y853500D03*
X-464500Y858500D03*
X-464500Y863500D03*
D35*
X-464500Y847625D03*
D34*
X-449500Y976500D03*
X-449500Y971500D03*
X-449500Y966500D03*
D35*
X-449500Y960625D03*
D34*
X-449500Y991500D03*
X-449500Y986500D03*
X-449500Y981500D03*
D35*
X-449500Y997375D03*
D34*
X-464500Y981500D03*
X-464500Y986500D03*
X-464500Y991500D03*
D35*
X-464500Y997375D03*
D34*
X-464500Y966500D03*
X-464500Y971500D03*
X-464500Y976500D03*
D35*
X-464500Y960625D03*
D34*
X-449500Y926500D03*
X-449500Y921500D03*
X-449500Y916500D03*
D35*
X-449500Y910625D03*
D34*
X-449500Y941500D03*
X-449500Y936500D03*
X-449500Y931500D03*
D35*
X-449500Y947375D03*
D34*
X-464500Y931500D03*
X-464500Y936500D03*
X-464500Y941500D03*
D35*
X-464500Y947375D03*
D34*
X-464500Y916500D03*
X-464500Y921500D03*
X-464500Y926500D03*
D35*
X-464500Y910625D03*
D36*
X-131000Y1016000D03*
D37*
X-145500Y1012750D03*
X-145500Y1019250D03*
X-116500Y1019250D03*
X-116500Y1012750D03*
D32*
X-121250Y1030750D03*
X-127750Y1030750D03*
X-134250Y1030750D03*
X-140750Y1030750D03*
X-140750Y1001250D03*
X-134250Y1001250D03*
X-127750Y1001250D03*
X-121250Y1001250D03*
D21*
X-191414Y974000D03*
X-170586Y974000D03*
D16*
X-189666Y992000D03*
X-200334Y992000D03*
X-174334Y1048000D03*
X-163666Y1048000D03*
X-197334Y1048000D03*
X-186666Y1048000D03*
D21*
X-186414Y1066000D03*
X-165586Y1066000D03*
D36*
X-186000Y1019000D03*
D37*
X-200500Y1015750D03*
X-200500Y1022250D03*
X-171500Y1022250D03*
X-171500Y1015750D03*
D32*
X-176250Y1033750D03*
X-182750Y1033750D03*
X-189250Y1033750D03*
X-195750Y1033750D03*
X-195750Y1004250D03*
X-189250Y1004250D03*
X-182750Y1004250D03*
X-176250Y1004250D03*
D16*
G36*
X-338654Y1084959D02*
X-343503Y1080110D01*
X-348890Y1085497D01*
X-344041Y1090346D01*
X-338654Y1084959D01*
G37*
G36*
X-331110Y1092503D02*
X-335959Y1087654D01*
X-341346Y1093041D01*
X-336497Y1097890D01*
X-331110Y1092503D01*
G37*
D21*
X-216586Y974000D03*
X-237414Y974000D03*
D16*
X-245666Y992000D03*
X-256334Y992000D03*
X-230334Y1048000D03*
X-219666Y1048000D03*
X-253334Y1048000D03*
X-242666Y1048000D03*
D21*
X-210586Y1066000D03*
X-231414Y1066000D03*
D36*
X-242000Y1019000D03*
D37*
X-256500Y1015750D03*
X-256500Y1022250D03*
X-227500Y1022250D03*
X-227500Y1015750D03*
D32*
X-232250Y1033750D03*
X-238750Y1033750D03*
X-245250Y1033750D03*
X-251750Y1033750D03*
X-251750Y1004250D03*
X-245250Y1004250D03*
X-238750Y1004250D03*
X-232250Y1004250D03*
D16*
G36*
X-329654Y1075959D02*
X-334503Y1071110D01*
X-339890Y1076497D01*
X-335041Y1081346D01*
X-329654Y1075959D01*
G37*
G36*
X-322110Y1083503D02*
X-326959Y1078654D01*
X-332346Y1084041D01*
X-327497Y1088890D01*
X-322110Y1083503D01*
G37*
G36*
X-384346Y1076041D02*
X-379497Y1080890D01*
X-374110Y1075503D01*
X-378959Y1070654D01*
X-384346Y1076041D01*
G37*
G36*
X-391890Y1068497D02*
X-387041Y1073346D01*
X-381654Y1067959D01*
X-386503Y1063110D01*
X-391890Y1068497D01*
G37*
G36*
X-397654Y1051959D02*
X-402503Y1047110D01*
X-407890Y1052497D01*
X-403041Y1057346D01*
X-397654Y1051959D01*
G37*
G36*
X-390110Y1059503D02*
X-394959Y1054654D01*
X-400346Y1060041D01*
X-395497Y1064890D01*
X-390110Y1059503D01*
G37*
D38*
G36*
X-347128Y1001429D02*
X-349249Y999308D01*
X-355292Y1005351D01*
X-353171Y1007472D01*
X-347128Y1001429D01*
G37*
G36*
X-343593Y1004965D02*
X-345714Y1002844D01*
X-351757Y1008887D01*
X-349636Y1011008D01*
X-343593Y1004965D01*
G37*
G36*
X-340057Y1008500D02*
X-342178Y1006379D01*
X-348221Y1012422D01*
X-346100Y1014543D01*
X-340057Y1008500D01*
G37*
G36*
X-336521Y1012036D02*
X-338642Y1009915D01*
X-344685Y1015958D01*
X-342564Y1018079D01*
X-336521Y1012036D01*
G37*
G36*
X-332986Y1015571D02*
X-335107Y1013450D01*
X-341150Y1019493D01*
X-339029Y1021614D01*
X-332986Y1015571D01*
G37*
G36*
X-329450Y1019107D02*
X-331571Y1016986D01*
X-337614Y1023029D01*
X-335493Y1025150D01*
X-329450Y1019107D01*
G37*
G36*
X-325915Y1022642D02*
X-328036Y1020521D01*
X-334079Y1026564D01*
X-331958Y1028685D01*
X-325915Y1022642D01*
G37*
G36*
X-322379Y1026178D02*
X-324500Y1024057D01*
X-330543Y1030100D01*
X-328422Y1032221D01*
X-322379Y1026178D01*
G37*
G36*
X-318844Y1029714D02*
X-320965Y1027593D01*
X-327008Y1033636D01*
X-324887Y1035757D01*
X-318844Y1029714D01*
G37*
G36*
X-315308Y1033249D02*
X-317429Y1031128D01*
X-323472Y1037171D01*
X-321351Y1039292D01*
X-315308Y1033249D01*
G37*
G36*
X-321351Y1040708D02*
X-323472Y1042829D01*
X-317429Y1048872D01*
X-315308Y1046751D01*
X-321351Y1040708D01*
G37*
G36*
X-324887Y1044243D02*
X-327008Y1046364D01*
X-320965Y1052407D01*
X-318844Y1050286D01*
X-324887Y1044243D01*
G37*
G36*
X-328422Y1047779D02*
X-330543Y1049900D01*
X-324500Y1055943D01*
X-322379Y1053822D01*
X-328422Y1047779D01*
G37*
G36*
X-331958Y1051315D02*
X-334079Y1053436D01*
X-328036Y1059479D01*
X-325915Y1057358D01*
X-331958Y1051315D01*
G37*
G36*
X-335493Y1054850D02*
X-337614Y1056971D01*
X-331571Y1063014D01*
X-329450Y1060893D01*
X-335493Y1054850D01*
G37*
G36*
X-339029Y1058386D02*
X-341150Y1060507D01*
X-335107Y1066550D01*
X-332986Y1064429D01*
X-339029Y1058386D01*
G37*
G36*
X-342564Y1061921D02*
X-344685Y1064042D01*
X-338642Y1070085D01*
X-336521Y1067964D01*
X-342564Y1061921D01*
G37*
G36*
X-346100Y1065457D02*
X-348221Y1067578D01*
X-342178Y1073621D01*
X-340057Y1071500D01*
X-346100Y1065457D01*
G37*
G36*
X-349636Y1068992D02*
X-351757Y1071113D01*
X-345714Y1077156D01*
X-343593Y1075035D01*
X-349636Y1068992D01*
G37*
G36*
X-353171Y1072528D02*
X-355292Y1074649D01*
X-349249Y1080692D01*
X-347128Y1078571D01*
X-353171Y1072528D01*
G37*
G36*
X-356708Y1074649D02*
X-358829Y1072528D01*
X-364872Y1078571D01*
X-362751Y1080692D01*
X-356708Y1074649D01*
G37*
G36*
X-360243Y1071113D02*
X-362364Y1068992D01*
X-368407Y1075035D01*
X-366286Y1077156D01*
X-360243Y1071113D01*
G37*
G36*
X-363779Y1067578D02*
X-365900Y1065457D01*
X-371943Y1071500D01*
X-369822Y1073621D01*
X-363779Y1067578D01*
G37*
G36*
X-367315Y1064042D02*
X-369436Y1061921D01*
X-375479Y1067964D01*
X-373358Y1070085D01*
X-367315Y1064042D01*
G37*
G36*
X-370850Y1060507D02*
X-372971Y1058386D01*
X-379014Y1064429D01*
X-376893Y1066550D01*
X-370850Y1060507D01*
G37*
G36*
X-374386Y1056971D02*
X-376507Y1054850D01*
X-382550Y1060893D01*
X-380429Y1063014D01*
X-374386Y1056971D01*
G37*
G36*
X-377921Y1053436D02*
X-380042Y1051315D01*
X-386085Y1057358D01*
X-383964Y1059479D01*
X-377921Y1053436D01*
G37*
G36*
X-381457Y1049900D02*
X-383578Y1047779D01*
X-389621Y1053822D01*
X-387500Y1055943D01*
X-381457Y1049900D01*
G37*
G36*
X-384992Y1046364D02*
X-387113Y1044243D01*
X-393156Y1050286D01*
X-391035Y1052407D01*
X-384992Y1046364D01*
G37*
G36*
X-388528Y1042829D02*
X-390649Y1040708D01*
X-396692Y1046751D01*
X-394571Y1048872D01*
X-388528Y1042829D01*
G37*
G36*
X-394571Y1031128D02*
X-396692Y1033249D01*
X-390649Y1039292D01*
X-388528Y1037171D01*
X-394571Y1031128D01*
G37*
G36*
X-391035Y1027593D02*
X-393156Y1029714D01*
X-387113Y1035757D01*
X-384992Y1033636D01*
X-391035Y1027593D01*
G37*
G36*
X-387500Y1024057D02*
X-389621Y1026178D01*
X-383578Y1032221D01*
X-381457Y1030100D01*
X-387500Y1024057D01*
G37*
G36*
X-383964Y1020521D02*
X-386085Y1022642D01*
X-380042Y1028685D01*
X-377921Y1026564D01*
X-383964Y1020521D01*
G37*
G36*
X-380429Y1016986D02*
X-382550Y1019107D01*
X-376507Y1025150D01*
X-374386Y1023029D01*
X-380429Y1016986D01*
G37*
G36*
X-376893Y1013450D02*
X-379014Y1015571D01*
X-372971Y1021614D01*
X-370850Y1019493D01*
X-376893Y1013450D01*
G37*
G36*
X-373358Y1009915D02*
X-375479Y1012036D01*
X-369436Y1018079D01*
X-367315Y1015958D01*
X-373358Y1009915D01*
G37*
G36*
X-369822Y1006379D02*
X-371943Y1008500D01*
X-365900Y1014543D01*
X-363779Y1012422D01*
X-369822Y1006379D01*
G37*
G36*
X-366286Y1002844D02*
X-368407Y1004965D01*
X-362364Y1011008D01*
X-360243Y1008887D01*
X-366286Y1002844D01*
G37*
G36*
X-362751Y999308D02*
X-364872Y1001429D01*
X-358829Y1007472D01*
X-356708Y1005351D01*
X-362751Y999308D01*
G37*
D39*
X-11750Y807350D03*
X-24450Y807350D03*
X-37150Y807350D03*
X950Y807350D03*
X13650Y807350D03*
X26350Y807350D03*
X39050Y807350D03*
X51750Y807350D03*
X64450Y807350D03*
X77150Y807350D03*
X-11750Y820050D03*
X-24450Y820050D03*
X-37150Y820050D03*
X950Y820050D03*
X13650Y820050D03*
X26350Y820050D03*
X39050Y820050D03*
X51750Y820050D03*
X64450Y820050D03*
X77150Y820050D03*
X-11750Y832750D03*
X-24450Y832750D03*
X-37150Y832750D03*
X950Y832750D03*
X13650Y832750D03*
X26350Y832750D03*
X39050Y832750D03*
X51750Y832750D03*
X64450Y832750D03*
X77150Y832750D03*
X-11750Y845450D03*
X-24450Y845450D03*
X-37150Y845450D03*
X950Y845450D03*
X13650Y845450D03*
X26350Y845450D03*
X39050Y845450D03*
X51750Y845450D03*
X64450Y845450D03*
X77150Y845450D03*
X-11750Y858150D03*
X-24450Y858150D03*
X-37150Y858150D03*
X950Y858150D03*
X13650Y858150D03*
X26350Y858150D03*
X39050Y858150D03*
X51750Y858150D03*
X64450Y858150D03*
X77150Y858150D03*
X-11750Y870850D03*
X-24450Y870850D03*
X-37150Y870850D03*
X950Y870850D03*
X13650Y870850D03*
X26350Y870850D03*
X39050Y870850D03*
X51750Y870850D03*
X64450Y870850D03*
X77150Y870850D03*
X-11750Y883550D03*
X-24450Y883550D03*
X-37150Y883550D03*
X950Y883550D03*
X13650Y883550D03*
X26350Y883550D03*
X39050Y883550D03*
X51750Y883550D03*
X64450Y883550D03*
X77150Y883550D03*
X-11750Y896250D03*
X-24450Y896250D03*
X-37150Y896250D03*
X950Y896250D03*
X13650Y896250D03*
X26350Y896250D03*
X39050Y896250D03*
X51750Y896250D03*
X64450Y896250D03*
X77150Y896250D03*
X-11750Y908950D03*
X-24450Y908950D03*
X-37150Y908950D03*
X950Y908950D03*
X13650Y908950D03*
X26350Y908950D03*
X39050Y908950D03*
X51750Y908950D03*
X64450Y908950D03*
X77150Y908950D03*
X-11750Y921650D03*
X-24450Y921650D03*
X-37150Y921650D03*
X950Y921650D03*
X13650Y921650D03*
X26350Y921650D03*
X39050Y921650D03*
X51750Y921650D03*
X64450Y921650D03*
X77150Y921650D03*
X-11750Y934350D03*
X-24450Y934350D03*
X-37150Y934350D03*
X950Y934350D03*
X13650Y934350D03*
X26350Y934350D03*
X39050Y934350D03*
X51750Y934350D03*
X64450Y934350D03*
X77150Y934350D03*
X-11750Y947050D03*
X-24450Y947050D03*
X-37150Y947050D03*
X950Y947050D03*
X13650Y947050D03*
X26350Y947050D03*
X39050Y947050D03*
X51750Y947050D03*
X64450Y947050D03*
X77150Y947050D03*
X-11750Y959750D03*
X-24450Y959750D03*
X-37150Y959750D03*
X950Y959750D03*
X13650Y959750D03*
X26350Y959750D03*
X39050Y959750D03*
X51750Y959750D03*
X64450Y959750D03*
X77150Y959750D03*
X-11750Y972450D03*
X-24450Y972450D03*
X-37150Y972450D03*
X950Y972450D03*
X13650Y972450D03*
X26350Y972450D03*
X39050Y972450D03*
X51750Y972450D03*
X64450Y972450D03*
X77150Y972450D03*
X-11750Y985150D03*
X-24450Y985150D03*
X-37150Y985150D03*
X950Y985150D03*
X13650Y985150D03*
X26350Y985150D03*
X39050Y985150D03*
X51750Y985150D03*
X64450Y985150D03*
X77150Y985150D03*
X-11750Y997850D03*
X-24450Y997850D03*
X-37150Y997850D03*
X950Y997850D03*
X13650Y997850D03*
X26350Y997850D03*
X39050Y997850D03*
X51750Y997850D03*
X64450Y997850D03*
X77150Y997850D03*
X-11750Y1010550D03*
X-24450Y1010550D03*
X-37150Y1010550D03*
X950Y1010550D03*
X13650Y1010550D03*
X26350Y1010550D03*
X39050Y1010550D03*
X51750Y1010550D03*
X64450Y1010550D03*
X77150Y1010550D03*
X-11750Y1023250D03*
X-24450Y1023250D03*
X-37150Y1023250D03*
X950Y1023250D03*
X13650Y1023250D03*
X26350Y1023250D03*
X39050Y1023250D03*
X51750Y1023250D03*
X64450Y1023250D03*
X77150Y1023250D03*
X-11750Y1035950D03*
X-24450Y1035950D03*
X-37150Y1035950D03*
X950Y1035950D03*
X13650Y1035950D03*
X26350Y1035950D03*
X39050Y1035950D03*
X51750Y1035950D03*
X64450Y1035950D03*
X77150Y1035950D03*
X-11750Y1048650D03*
X-24450Y1048650D03*
X-37150Y1048650D03*
X950Y1048650D03*
X13650Y1048650D03*
X26350Y1048650D03*
X39050Y1048650D03*
X51750Y1048650D03*
X64450Y1048650D03*
X77150Y1048650D03*
X-11750Y1061350D03*
X-24450Y1061350D03*
X-37150Y1061350D03*
X950Y1061350D03*
X13650Y1061350D03*
X26350Y1061350D03*
X39050Y1061350D03*
X51750Y1061350D03*
X64450Y1061350D03*
X77150Y1061350D03*
X-11750Y1074050D03*
X-24450Y1074050D03*
X-37150Y1074050D03*
X950Y1074050D03*
X13650Y1074050D03*
X26350Y1074050D03*
X39050Y1074050D03*
X51750Y1074050D03*
X64450Y1074050D03*
X77150Y1074050D03*
X-11750Y1086750D03*
X-24450Y1086750D03*
X-37150Y1086750D03*
X950Y1086750D03*
X13650Y1086750D03*
X26350Y1086750D03*
X39050Y1086750D03*
X51750Y1086750D03*
X64450Y1086750D03*
X77150Y1086750D03*
X-11750Y1099450D03*
X-24450Y1099450D03*
X-37150Y1099450D03*
X950Y1099450D03*
X13650Y1099450D03*
X26350Y1099450D03*
X39050Y1099450D03*
X51750Y1099450D03*
X64450Y1099450D03*
X77150Y1099450D03*
X-11750Y1112150D03*
X-24450Y1112150D03*
X-37150Y1112150D03*
X950Y1112150D03*
X13650Y1112150D03*
X26350Y1112150D03*
X39050Y1112150D03*
X51750Y1112150D03*
X64450Y1112150D03*
X77150Y1112150D03*
X-11750Y1124850D03*
X-24450Y1124850D03*
X-37150Y1124850D03*
X950Y1124850D03*
X13650Y1124850D03*
X26350Y1124850D03*
X39050Y1124850D03*
X51750Y1124850D03*
X64450Y1124850D03*
X77150Y1124850D03*
X-11750Y1137550D03*
X-24450Y1137550D03*
X-37150Y1137550D03*
X950Y1137550D03*
X13650Y1137550D03*
X26350Y1137550D03*
X39050Y1137550D03*
X51750Y1137550D03*
X64450Y1137550D03*
X77150Y1137550D03*
X-11750Y1150250D03*
X-24450Y1150250D03*
X-37150Y1150250D03*
X950Y1150250D03*
X13650Y1150250D03*
X26350Y1150250D03*
X39050Y1150250D03*
X51750Y1150250D03*
X64450Y1150250D03*
X77150Y1150250D03*
X-11750Y1162950D03*
X-24450Y1162950D03*
X-37150Y1162950D03*
X950Y1162950D03*
X13650Y1162950D03*
X26350Y1162950D03*
X39050Y1162950D03*
X51750Y1162950D03*
X64450Y1162950D03*
X77150Y1162950D03*
X-11750Y1175650D03*
X-24450Y1175650D03*
X-37150Y1175650D03*
X950Y1175650D03*
X13650Y1175650D03*
X26350Y1175650D03*
X39050Y1175650D03*
X51750Y1175650D03*
X64450Y1175650D03*
X77150Y1175650D03*
X-11750Y1188350D03*
X-24450Y1188350D03*
X-37150Y1188350D03*
X950Y1188350D03*
X13650Y1188350D03*
X26350Y1188350D03*
X39050Y1188350D03*
X51750Y1188350D03*
X64450Y1188350D03*
X77150Y1188350D03*
X-11750Y1201050D03*
X-24450Y1201050D03*
X-37150Y1201050D03*
X950Y1201050D03*
X13650Y1201050D03*
X26350Y1201050D03*
X39050Y1201050D03*
X51750Y1201050D03*
X64450Y1201050D03*
X77150Y1201050D03*
X-11750Y1213750D03*
X-24450Y1213750D03*
X-37150Y1213750D03*
X950Y1213750D03*
X13650Y1213750D03*
X26350Y1213750D03*
X39050Y1213750D03*
X51750Y1213750D03*
X64450Y1213750D03*
X77150Y1213750D03*
X-11750Y1226450D03*
X-24450Y1226450D03*
X-37150Y1226450D03*
X950Y1226450D03*
X13650Y1226450D03*
X26350Y1226450D03*
X39050Y1226450D03*
X51750Y1226450D03*
X64450Y1226450D03*
X77150Y1226450D03*
X-11750Y1239150D03*
X-24450Y1239150D03*
X-37150Y1239150D03*
X950Y1239150D03*
X13650Y1239150D03*
X26350Y1239150D03*
X39050Y1239150D03*
X51750Y1239150D03*
X64450Y1239150D03*
X77150Y1239150D03*
X-11750Y1251850D03*
X-24450Y1251850D03*
X-37150Y1251850D03*
X950Y1251850D03*
X13650Y1251850D03*
X26350Y1251850D03*
X39050Y1251850D03*
X51750Y1251850D03*
X64450Y1251850D03*
X77150Y1251850D03*
X-11750Y1264550D03*
X-24450Y1264550D03*
X-37150Y1264550D03*
X950Y1264550D03*
X13650Y1264550D03*
X26350Y1264550D03*
X39050Y1264550D03*
X51750Y1264550D03*
X64450Y1264550D03*
X77150Y1264550D03*
X-11750Y1277250D03*
X-24450Y1277250D03*
X-37150Y1277250D03*
X950Y1277250D03*
X13650Y1277250D03*
X26350Y1277250D03*
X39050Y1277250D03*
X51750Y1277250D03*
X64450Y1277250D03*
X77150Y1277250D03*
X-11750Y1289950D03*
X-24450Y1289950D03*
X-37150Y1289950D03*
X950Y1289950D03*
X13650Y1289950D03*
X26350Y1289950D03*
X39050Y1289950D03*
X51750Y1289950D03*
X64450Y1289950D03*
X77150Y1289950D03*
X-11750Y1302650D03*
X-24450Y1302650D03*
X-37150Y1302650D03*
X950Y1302650D03*
X13650Y1302650D03*
X26350Y1302650D03*
X39050Y1302650D03*
X51750Y1302650D03*
X64450Y1302650D03*
X77150Y1302650D03*
D40*
X-32000Y1393750D03*
X-32000Y1387250D03*
X-32000Y1380750D03*
X-32000Y1374250D03*
X-32000Y1367750D03*
X-32000Y1361250D03*
X-32000Y1354750D03*
X-32000Y1348250D03*
X-92000Y1393750D03*
X-92000Y1387250D03*
X-92000Y1380750D03*
X-92000Y1374250D03*
X-92000Y1367750D03*
X-92000Y1361250D03*
X-92000Y1354750D03*
X-92000Y1348250D03*
D12*
X-72000Y1306666D03*
X-72000Y1317334D03*
X-565000Y1226334D03*
X-565000Y1215666D03*
D16*
X-548666Y1247000D03*
X-559334Y1247000D03*
D24*
X-458000Y1215490D03*
X-458000Y1248510D03*
D16*
X-184166Y1164000D03*
X-194834Y1164000D03*
X-179666Y1151000D03*
X-190334Y1151000D03*
X-202666Y1151000D03*
X-213334Y1151000D03*
D12*
X-152000Y1217666D03*
X-152000Y1228334D03*
X-165000Y1217666D03*
X-165000Y1228334D03*
X-152000Y1239666D03*
X-152000Y1250334D03*
X-165000Y1239666D03*
X-165000Y1250334D03*
X-437000Y1240666D03*
X-437000Y1251334D03*
D19*
X-592000Y1243430D03*
X-592000Y1220570D03*
D20*
X-484250Y1234000D03*
X-525750Y1234000D03*
D21*
X-416586Y1217000D03*
X-437414Y1217000D03*
D18*
X-420510Y1244000D03*
X-387490Y1244000D03*
D27*
X-598250Y1207050D03*
X-591750Y1207050D03*
D12*
X-153000Y1108334D03*
X-153000Y1097666D03*
X-167000Y1108334D03*
X-167000Y1097666D03*
D41*
X-62800Y738100D03*
X-62800Y743100D03*
X-62800Y748100D03*
X-62800Y753100D03*
X-62800Y758100D03*
X-62800Y763100D03*
X-62800Y768100D03*
X-62800Y773100D03*
D42*
X-69300Y779600D03*
X-74300Y779600D03*
X-79300Y779600D03*
X-84300Y779600D03*
X-89300Y779600D03*
X-94300Y779600D03*
X-99300Y779600D03*
X-104300Y779600D03*
D41*
X-110800Y773100D03*
X-110800Y768100D03*
X-110800Y763100D03*
X-110800Y758100D03*
X-110800Y753100D03*
X-110800Y748100D03*
X-110800Y743100D03*
X-110800Y738100D03*
D42*
X-104300Y731600D03*
X-99300Y731600D03*
X-94300Y731600D03*
X-89300Y731600D03*
X-84300Y731600D03*
X-79300Y731600D03*
X-74300Y731600D03*
X-69300Y731600D03*
D43*
X-79300Y763100D03*
X-79300Y748100D03*
X-94300Y748100D03*
X-94300Y763100D03*
D16*
X-72166Y721800D03*
X-82834Y721800D03*
X-92734Y794200D03*
X-82066Y794200D03*
D44*
X-287000Y763750D03*
X-287000Y757250D03*
X-287000Y750750D03*
X-287000Y744250D03*
X-287000Y737750D03*
X-287000Y731250D03*
X-287000Y724750D03*
X-287000Y718250D03*
X-343000Y763750D03*
X-343000Y757250D03*
X-343000Y750750D03*
X-343000Y744250D03*
X-343000Y737750D03*
X-343000Y731250D03*
X-343000Y724750D03*
X-343000Y718250D03*
D45*
X-275000Y788750D03*
X-275000Y782250D03*
X-275000Y795250D03*
X-275000Y801750D03*
X-317000Y801750D03*
X-317000Y795250D03*
X-317000Y788750D03*
X-317000Y782250D03*
D46*
X-296000Y792000D03*
D47*
X-493000Y999000D03*
D48*
X-512254Y1008750D03*
X-512254Y1002250D03*
X-512254Y995750D03*
X-512254Y989250D03*
D49*
X-502750Y979746D03*
X-496250Y979746D03*
X-489750Y979746D03*
X-483250Y979746D03*
D48*
X-473746Y989250D03*
X-473746Y995750D03*
X-473746Y1002250D03*
X-473746Y1008750D03*
D49*
X-483250Y1018254D03*
X-489750Y1018254D03*
X-496250Y1018254D03*
X-502750Y1018254D03*
D47*
X-493000Y930000D03*
D48*
X-512254Y939750D03*
X-512254Y933250D03*
X-512254Y926750D03*
X-512254Y920250D03*
D49*
X-502750Y910746D03*
X-496250Y910746D03*
X-489750Y910746D03*
X-483250Y910746D03*
D48*
X-473746Y920250D03*
X-473746Y926750D03*
X-473746Y933250D03*
X-473746Y939750D03*
D49*
X-483250Y949254D03*
X-489750Y949254D03*
X-496250Y949254D03*
X-502750Y949254D03*
D47*
X-494000Y862000D03*
D48*
X-513254Y871750D03*
X-513254Y865250D03*
X-513254Y858750D03*
X-513254Y852250D03*
D49*
X-503750Y842746D03*
X-497250Y842746D03*
X-490750Y842746D03*
X-484250Y842746D03*
D48*
X-474746Y852250D03*
X-474746Y858750D03*
X-474746Y865250D03*
X-474746Y871750D03*
D49*
X-484250Y881254D03*
X-490750Y881254D03*
X-497250Y881254D03*
X-503750Y881254D03*
D16*
X-202334Y1109000D03*
X-191666Y1109000D03*
X-202334Y1123000D03*
X-191666Y1123000D03*
X-259334Y1217000D03*
X-248666Y1217000D03*
X-259334Y1204000D03*
X-248666Y1204000D03*
D26*
X-226970Y1261500D03*
X-199030Y1261500D03*
D50*
X-243000Y1350030D03*
X-243000Y1377970D03*
D51*
X-353500Y1249000D03*
X-348500Y1249000D03*
X-343500Y1249000D03*
X-338500Y1249000D03*
X-333500Y1249000D03*
X-328500Y1249000D03*
X-323500Y1249000D03*
X-318500Y1249000D03*
X-313500Y1249000D03*
X-308500Y1249000D03*
X-303500Y1249000D03*
X-298500Y1249000D03*
D52*
X-292000Y1255500D03*
X-292000Y1260500D03*
X-292000Y1265500D03*
X-292000Y1270500D03*
X-292000Y1275500D03*
X-292000Y1280500D03*
X-292000Y1285500D03*
X-292000Y1290500D03*
X-292000Y1295500D03*
X-292000Y1300500D03*
X-292000Y1305500D03*
X-292000Y1310500D03*
D51*
X-298500Y1317000D03*
X-303500Y1317000D03*
X-308500Y1317000D03*
X-313500Y1317000D03*
X-318500Y1317000D03*
X-323500Y1317000D03*
X-328500Y1317000D03*
X-333500Y1317000D03*
X-338500Y1317000D03*
X-343500Y1317000D03*
X-348500Y1317000D03*
X-353500Y1317000D03*
D52*
X-360000Y1310500D03*
X-360000Y1305500D03*
X-360000Y1300500D03*
X-360000Y1295500D03*
X-360000Y1290500D03*
X-360000Y1285500D03*
X-360000Y1280500D03*
X-360000Y1275500D03*
X-360000Y1270500D03*
X-360000Y1265500D03*
X-360000Y1260500D03*
X-360000Y1255500D03*
D53*
X-326000Y1283000D03*
X-326000Y1269300D03*
X-312300Y1269300D03*
X-312300Y1283000D03*
X-312300Y1296700D03*
X-326000Y1296700D03*
X-339700Y1296700D03*
X-339700Y1283000D03*
X-339700Y1269300D03*
D16*
X-356334Y1330000D03*
X-345666Y1330000D03*
D24*
X-302500Y1378510D03*
X-302500Y1345490D03*
D54*
X-328000Y1356914D03*
X-328000Y1336086D03*
D51*
X-159500Y1121500D03*
X-154500Y1121500D03*
X-149500Y1121500D03*
X-144500Y1121500D03*
X-139500Y1121500D03*
X-134500Y1121500D03*
X-129500Y1121500D03*
X-124500Y1121500D03*
X-119500Y1121500D03*
X-114500Y1121500D03*
X-109500Y1121500D03*
X-104500Y1121500D03*
D52*
X-98000Y1128000D03*
X-98000Y1133000D03*
X-98000Y1138000D03*
X-98000Y1143000D03*
X-98000Y1148000D03*
X-98000Y1153000D03*
X-98000Y1158000D03*
X-98000Y1163000D03*
X-98000Y1168000D03*
X-98000Y1173000D03*
X-98000Y1178000D03*
X-98000Y1183000D03*
D51*
X-104500Y1189500D03*
X-109500Y1189500D03*
X-114500Y1189500D03*
X-119500Y1189500D03*
X-124500Y1189500D03*
X-129500Y1189500D03*
X-134500Y1189500D03*
X-139500Y1189500D03*
X-144500Y1189500D03*
X-149500Y1189500D03*
X-154500Y1189500D03*
X-159500Y1189500D03*
D52*
X-166000Y1183000D03*
X-166000Y1178000D03*
X-166000Y1173000D03*
X-166000Y1168000D03*
X-166000Y1163000D03*
X-166000Y1158000D03*
X-166000Y1153000D03*
X-166000Y1148000D03*
X-166000Y1143000D03*
X-166000Y1138000D03*
X-166000Y1133000D03*
X-166000Y1128000D03*
D53*
X-132000Y1155500D03*
X-132000Y1141800D03*
X-118300Y1141800D03*
X-118300Y1155500D03*
X-118300Y1169200D03*
X-132000Y1169200D03*
X-145700Y1169200D03*
X-145700Y1155500D03*
X-145700Y1141800D03*
D16*
X-161834Y1200400D03*
X-151166Y1200400D03*
D24*
X-109500Y1248510D03*
X-109500Y1215490D03*
D54*
X-135500Y1229914D03*
X-135500Y1209086D03*
D26*
X73970Y1370000D03*
X46030Y1370000D03*
X73970Y740000D03*
X46030Y740000D03*
D55*
X-70000Y986000D03*
X-70000Y994000D03*
X-70000Y1002000D03*
X-70000Y1010000D03*
X-70000Y1018000D03*
X-70000Y1026000D03*
X-70000Y1034000D03*
X-70000Y1042000D03*
D56*
X-84000Y973000D03*
X-84000Y1055000D03*
D10*
X217000Y1103000D03*
X259000Y1103000D03*
X217000Y1179000D03*
X259000Y1179000D03*
D11*
X438000Y1138364D03*
X438000Y1155636D03*
X457000Y1138364D03*
X457000Y1155636D03*
X476000Y1138364D03*
X476000Y1155636D03*
D12*
X421000Y1152334D03*
X421000Y1141666D03*
D13*
X463495Y1120000D03*
X476505Y1125080D03*
X476505Y1114920D03*
D12*
X493000Y1122334D03*
X493000Y1111666D03*
D14*
X507500Y1156500D03*
X507500Y1147000D03*
X507500Y1137500D03*
X534500Y1137500D03*
X534500Y1156500D03*
D12*
X493000Y1152334D03*
X493000Y1141666D03*
X532000Y1111666D03*
X532000Y1122334D03*
X519000Y1122334D03*
X519000Y1111666D03*
D10*
X217000Y1141000D03*
X259000Y1141000D03*
D11*
X339000Y1138364D03*
X339000Y1155636D03*
X301000Y1138364D03*
X301000Y1155636D03*
X320000Y1138364D03*
X320000Y1155636D03*
D12*
X282000Y1148334D03*
X282000Y1137666D03*
D13*
X326495Y1120000D03*
X339505Y1125080D03*
X339505Y1114920D03*
D12*
X355000Y1124334D03*
X355000Y1113666D03*
D14*
X370500Y1156500D03*
X370500Y1147000D03*
X370500Y1137500D03*
X397500Y1137500D03*
X397500Y1156500D03*
D12*
X356000Y1152334D03*
X356000Y1141666D03*
X394000Y1113666D03*
X394000Y1124334D03*
X381000Y1124334D03*
X381000Y1113666D03*
D15*
X356000Y1102000D03*
X356000Y1066000D03*
D12*
X372000Y1086666D03*
X372000Y1097334D03*
X385000Y1086666D03*
X385000Y1097334D03*
D16*
X384334Y1073000D03*
X373666Y1073000D03*
D17*
X545270Y1163500D03*
X551770Y1163500D03*
X558270Y1163500D03*
X564770Y1163500D03*
X545270Y1104500D03*
X551770Y1104500D03*
X558270Y1104500D03*
X564770Y1104500D03*
D12*
X249000Y1287334D03*
X249000Y1276666D03*
X303000Y1360334D03*
X303000Y1349666D03*
D18*
X321490Y1357000D03*
X354510Y1357000D03*
D16*
X434053Y1293005D03*
X423385Y1293005D03*
X432053Y1280005D03*
X421385Y1280005D03*
D12*
X408000Y1280334D03*
X408000Y1269666D03*
X466402Y1346263D03*
X466402Y1356931D03*
X452892Y1346263D03*
X452892Y1356931D03*
X466402Y1369123D03*
X466402Y1379791D03*
X452892Y1369123D03*
X452892Y1379791D03*
X372268Y1335847D03*
X372268Y1325179D03*
D19*
X222000Y1297430D03*
X222000Y1274570D03*
D20*
X349750Y1313000D03*
X308250Y1313000D03*
D21*
X393682Y1356263D03*
X372854Y1356263D03*
D22*
X421000Y1114000D03*
X443000Y1123500D03*
X443000Y1104500D03*
X283000Y1114000D03*
X305000Y1123500D03*
X305000Y1104500D03*
D23*
X294000Y1064750D03*
X284500Y1086750D03*
X303500Y1086750D03*
D24*
X424737Y1343008D03*
X424737Y1376028D03*
D12*
X394487Y1335852D03*
X394487Y1325184D03*
D25*
X650613Y1352132D03*
X663313Y1352132D03*
X688713Y1352132D03*
X701413Y1352132D03*
X688713Y1339432D03*
X701413Y1339432D03*
X650613Y1326732D03*
X663313Y1326732D03*
X676013Y1326732D03*
X688713Y1326732D03*
X701413Y1326732D03*
X650613Y1314032D03*
X663313Y1314032D03*
X676013Y1314032D03*
X688713Y1314032D03*
X701413Y1314032D03*
X650613Y1301332D03*
X663313Y1301332D03*
X676013Y1301332D03*
X688713Y1301332D03*
X701413Y1301332D03*
X650613Y1339432D03*
X663313Y1339432D03*
X676013Y1339432D03*
X676013Y1352132D03*
D21*
X718927Y1269982D03*
X698099Y1269982D03*
D12*
X679013Y1384566D03*
X679013Y1373898D03*
D16*
X713847Y1286482D03*
X703179Y1286482D03*
D12*
X706513Y1373898D03*
X706513Y1384566D03*
X692763Y1373898D03*
X692763Y1384566D03*
X665263Y1373898D03*
X665263Y1384566D03*
D26*
X602030Y1354000D03*
X629970Y1354000D03*
X601543Y1300232D03*
X629483Y1300232D03*
D12*
X506000Y1122334D03*
X506000Y1111666D03*
X368000Y1124334D03*
X368000Y1113666D03*
D27*
X214750Y1261050D03*
X221250Y1261050D03*
D28*
X231000Y1068000D03*
X231000Y802000D03*
D29*
X278000Y855625D03*
X278000Y868325D03*
X278000Y881025D03*
X278000Y893725D03*
X278000Y906425D03*
X278000Y919125D03*
X278000Y931825D03*
X278000Y944525D03*
X278000Y957225D03*
X278000Y969925D03*
X278000Y982625D03*
X278000Y995325D03*
X278000Y1008025D03*
X278000Y861975D03*
X278000Y874675D03*
X278000Y887375D03*
X278000Y900075D03*
X278000Y912775D03*
X278000Y925475D03*
X278000Y938175D03*
X278000Y950875D03*
X278000Y963575D03*
X278000Y976275D03*
X278000Y988975D03*
X278000Y1001675D03*
X278000Y1014375D03*
D30*
X387750Y958750D03*
X387750Y952250D03*
X387750Y945750D03*
X387750Y939250D03*
X387750Y932750D03*
X387750Y926250D03*
X387750Y919750D03*
X387750Y913250D03*
X387750Y906750D03*
X387750Y900250D03*
X387750Y893750D03*
X387750Y887250D03*
X387750Y880750D03*
X387750Y874250D03*
X387750Y867750D03*
X387750Y861250D03*
X387750Y854750D03*
X387750Y848250D03*
X387750Y841750D03*
X387750Y835250D03*
D31*
X402250Y820750D03*
X408750Y820750D03*
X415250Y820750D03*
X421750Y820750D03*
X428250Y820750D03*
X434750Y820750D03*
X441250Y820750D03*
X447750Y820750D03*
X454250Y820750D03*
X460750Y820750D03*
X467250Y820750D03*
X473750Y820750D03*
X480250Y820750D03*
X486750Y820750D03*
X493250Y820750D03*
X499750Y820750D03*
X506250Y820750D03*
X512750Y820750D03*
X519250Y820750D03*
X525750Y820750D03*
D30*
X540250Y835250D03*
X540250Y841750D03*
X540250Y848250D03*
X540250Y854750D03*
X540250Y861250D03*
X540250Y867750D03*
X540250Y874250D03*
X540250Y880750D03*
X540250Y887250D03*
X540250Y893750D03*
X540250Y900250D03*
X540250Y906750D03*
X540250Y913250D03*
X540250Y919750D03*
X540250Y926250D03*
X540250Y932750D03*
X540250Y939250D03*
X540250Y945750D03*
X540250Y952250D03*
X540250Y958750D03*
D31*
X525750Y973250D03*
X519250Y973250D03*
X512750Y973250D03*
X506250Y973250D03*
X499750Y973250D03*
X493250Y973250D03*
X486750Y973250D03*
X480250Y973250D03*
X473750Y973250D03*
X467250Y973250D03*
X460750Y973250D03*
X454250Y973250D03*
X447750Y973250D03*
X441250Y973250D03*
X434750Y973250D03*
X428250Y973250D03*
X421750Y973250D03*
X415250Y973250D03*
X408750Y973250D03*
X402250Y973250D03*
D32*
X332000Y1098000D03*
X338500Y1098000D03*
X325500Y1098000D03*
X332000Y1080000D03*
X338500Y1080000D03*
X325500Y1080000D03*
D33*
X719500Y890100D03*
X719500Y877400D03*
X719500Y864700D03*
X719500Y852000D03*
X719500Y839300D03*
X719500Y826600D03*
X719500Y813900D03*
X706800Y890100D03*
X694100Y890100D03*
X681400Y890100D03*
X668700Y890100D03*
X656000Y890100D03*
X643300Y890100D03*
X617900Y890100D03*
X605200Y890100D03*
X592500Y890100D03*
X706800Y877400D03*
X694100Y877400D03*
X681400Y877400D03*
X668700Y877400D03*
X656000Y877400D03*
X643300Y877400D03*
X617900Y877400D03*
X605200Y877400D03*
X592500Y877400D03*
X706800Y864700D03*
X694100Y864700D03*
X681400Y864700D03*
X668700Y864700D03*
X656000Y864700D03*
X643300Y864700D03*
X617900Y864700D03*
X605200Y864700D03*
X592500Y864700D03*
X706800Y852000D03*
X694100Y852000D03*
X681400Y852000D03*
X668700Y852000D03*
X656000Y852000D03*
X643300Y852000D03*
X706800Y839300D03*
X694100Y839300D03*
X681400Y839300D03*
X668700Y839300D03*
X656000Y839300D03*
X643300Y839300D03*
X630600Y839300D03*
X617900Y839300D03*
X605200Y839300D03*
X592500Y839300D03*
X706800Y826600D03*
X694100Y826600D03*
X681400Y826600D03*
X668700Y826600D03*
X656000Y826600D03*
X643300Y826600D03*
X630600Y826600D03*
X617900Y826600D03*
X605200Y826600D03*
X592500Y826600D03*
X706800Y813900D03*
X694100Y813900D03*
X681400Y813900D03*
X668700Y813900D03*
X656000Y813900D03*
X643300Y813900D03*
X630600Y890100D03*
X630600Y877400D03*
X630600Y864700D03*
X630600Y852000D03*
X630600Y813900D03*
X617900Y852000D03*
X605200Y852000D03*
X592500Y852000D03*
X592500Y813900D03*
X605200Y813900D03*
X617900Y813900D03*
D26*
X679030Y928000D03*
X706970Y928000D03*
X626970Y929000D03*
X599030Y929000D03*
D16*
X707334Y904000D03*
X696666Y904000D03*
X629334Y904000D03*
X618666Y904000D03*
D24*
X747000Y830490D03*
X747000Y863510D03*
X566000Y834490D03*
X566000Y867510D03*
D12*
X459000Y1235334D03*
X459000Y1224666D03*
X446000Y1235334D03*
X446000Y1224666D03*
X743000Y1283334D03*
X743000Y1272666D03*
X738000Y939334D03*
X738000Y928666D03*
D21*
X678586Y971000D03*
X699414Y971000D03*
D16*
X680334Y989000D03*
X669666Y989000D03*
X695666Y1045000D03*
X706334Y1045000D03*
X672666Y1045000D03*
X683334Y1045000D03*
D21*
X683586Y1063000D03*
X704414Y1063000D03*
D12*
X725000Y939334D03*
X725000Y928666D03*
X645000Y940334D03*
X645000Y929666D03*
D34*
X365500Y812500D03*
X365500Y807500D03*
X365500Y802500D03*
D35*
X365500Y796625D03*
D34*
X365500Y827500D03*
X365500Y822500D03*
X365500Y817500D03*
D35*
X365500Y833375D03*
D34*
X350500Y817500D03*
X350500Y822500D03*
X350500Y827500D03*
D35*
X350500Y833375D03*
D34*
X350500Y802500D03*
X350500Y807500D03*
X350500Y812500D03*
D35*
X350500Y796625D03*
D34*
X365500Y863500D03*
X365500Y858500D03*
X365500Y853500D03*
D35*
X365500Y847625D03*
D34*
X365500Y878500D03*
X365500Y873500D03*
X365500Y868500D03*
D35*
X365500Y884375D03*
D34*
X350500Y868500D03*
X350500Y873500D03*
X350500Y878500D03*
D35*
X350500Y884375D03*
D34*
X350500Y853500D03*
X350500Y858500D03*
X350500Y863500D03*
D35*
X350500Y847625D03*
D34*
X365500Y976500D03*
X365500Y971500D03*
X365500Y966500D03*
D35*
X365500Y960625D03*
D34*
X365500Y991500D03*
X365500Y986500D03*
X365500Y981500D03*
D35*
X365500Y997375D03*
D34*
X350500Y981500D03*
X350500Y986500D03*
X350500Y991500D03*
D35*
X350500Y997375D03*
D34*
X350500Y966500D03*
X350500Y971500D03*
X350500Y976500D03*
D35*
X350500Y960625D03*
D34*
X365500Y926500D03*
X365500Y921500D03*
X365500Y916500D03*
D35*
X365500Y910625D03*
D34*
X365500Y941500D03*
X365500Y936500D03*
X365500Y931500D03*
D35*
X365500Y947375D03*
D34*
X350500Y931500D03*
X350500Y936500D03*
X350500Y941500D03*
D35*
X350500Y947375D03*
D34*
X350500Y916500D03*
X350500Y921500D03*
X350500Y926500D03*
D35*
X350500Y910625D03*
D36*
X684000Y1016000D03*
D37*
X669500Y1012750D03*
X669500Y1019250D03*
X698500Y1019250D03*
X698500Y1012750D03*
D32*
X693750Y1030750D03*
X687250Y1030750D03*
X680750Y1030750D03*
X674250Y1030750D03*
X674250Y1001250D03*
X680750Y1001250D03*
X687250Y1001250D03*
X693750Y1001250D03*
D21*
X623586Y974000D03*
X644414Y974000D03*
D16*
X625334Y992000D03*
X614666Y992000D03*
X640666Y1048000D03*
X651334Y1048000D03*
X617666Y1048000D03*
X628334Y1048000D03*
D21*
X628586Y1066000D03*
X649414Y1066000D03*
D36*
X629000Y1019000D03*
D37*
X614500Y1015750D03*
X614500Y1022250D03*
X643500Y1022250D03*
X643500Y1015750D03*
D32*
X638750Y1033750D03*
X632250Y1033750D03*
X625750Y1033750D03*
X619250Y1033750D03*
X619250Y1004250D03*
X625750Y1004250D03*
X632250Y1004250D03*
X638750Y1004250D03*
D16*
G36*
X476346Y1084959D02*
X471497Y1080110D01*
X466110Y1085497D01*
X470959Y1090346D01*
X476346Y1084959D01*
G37*
G36*
X483890Y1092503D02*
X479041Y1087654D01*
X473654Y1093041D01*
X478503Y1097890D01*
X483890Y1092503D01*
G37*
D21*
X598414Y974000D03*
X577586Y974000D03*
D16*
X569334Y992000D03*
X558666Y992000D03*
X584666Y1048000D03*
X595334Y1048000D03*
X561666Y1048000D03*
X572334Y1048000D03*
D21*
X604414Y1066000D03*
X583586Y1066000D03*
D36*
X573000Y1019000D03*
D37*
X558500Y1015750D03*
X558500Y1022250D03*
X587500Y1022250D03*
X587500Y1015750D03*
D32*
X582750Y1033750D03*
X576250Y1033750D03*
X569750Y1033750D03*
X563250Y1033750D03*
X563250Y1004250D03*
X569750Y1004250D03*
X576250Y1004250D03*
X582750Y1004250D03*
D16*
G36*
X485346Y1075959D02*
X480497Y1071110D01*
X475110Y1076497D01*
X479959Y1081346D01*
X485346Y1075959D01*
G37*
G36*
X492890Y1083503D02*
X488041Y1078654D01*
X482654Y1084041D01*
X487503Y1088890D01*
X492890Y1083503D01*
G37*
G36*
X430654Y1076041D02*
X435503Y1080890D01*
X440890Y1075503D01*
X436041Y1070654D01*
X430654Y1076041D01*
G37*
G36*
X423110Y1068497D02*
X427959Y1073346D01*
X433346Y1067959D01*
X428497Y1063110D01*
X423110Y1068497D01*
G37*
G36*
X417346Y1051959D02*
X412497Y1047110D01*
X407110Y1052497D01*
X411959Y1057346D01*
X417346Y1051959D01*
G37*
G36*
X424890Y1059503D02*
X420041Y1054654D01*
X414654Y1060041D01*
X419503Y1064890D01*
X424890Y1059503D01*
G37*
D38*
G36*
X467872Y1001429D02*
X465751Y999308D01*
X459708Y1005351D01*
X461829Y1007472D01*
X467872Y1001429D01*
G37*
G36*
X471407Y1004965D02*
X469286Y1002844D01*
X463243Y1008887D01*
X465364Y1011008D01*
X471407Y1004965D01*
G37*
G36*
X474943Y1008500D02*
X472822Y1006379D01*
X466779Y1012422D01*
X468900Y1014543D01*
X474943Y1008500D01*
G37*
G36*
X478479Y1012036D02*
X476358Y1009915D01*
X470315Y1015958D01*
X472436Y1018079D01*
X478479Y1012036D01*
G37*
G36*
X482014Y1015571D02*
X479893Y1013450D01*
X473850Y1019493D01*
X475971Y1021614D01*
X482014Y1015571D01*
G37*
G36*
X485550Y1019107D02*
X483429Y1016986D01*
X477386Y1023029D01*
X479507Y1025150D01*
X485550Y1019107D01*
G37*
G36*
X489085Y1022642D02*
X486964Y1020521D01*
X480921Y1026564D01*
X483042Y1028685D01*
X489085Y1022642D01*
G37*
G36*
X492621Y1026178D02*
X490500Y1024057D01*
X484457Y1030100D01*
X486578Y1032221D01*
X492621Y1026178D01*
G37*
G36*
X496156Y1029714D02*
X494035Y1027593D01*
X487992Y1033636D01*
X490113Y1035757D01*
X496156Y1029714D01*
G37*
G36*
X499692Y1033249D02*
X497571Y1031128D01*
X491528Y1037171D01*
X493649Y1039292D01*
X499692Y1033249D01*
G37*
G36*
X493649Y1040708D02*
X491528Y1042829D01*
X497571Y1048872D01*
X499692Y1046751D01*
X493649Y1040708D01*
G37*
G36*
X490113Y1044243D02*
X487992Y1046364D01*
X494035Y1052407D01*
X496156Y1050286D01*
X490113Y1044243D01*
G37*
G36*
X486578Y1047779D02*
X484457Y1049900D01*
X490500Y1055943D01*
X492621Y1053822D01*
X486578Y1047779D01*
G37*
G36*
X483042Y1051315D02*
X480921Y1053436D01*
X486964Y1059479D01*
X489085Y1057358D01*
X483042Y1051315D01*
G37*
G36*
X479507Y1054850D02*
X477386Y1056971D01*
X483429Y1063014D01*
X485550Y1060893D01*
X479507Y1054850D01*
G37*
G36*
X475971Y1058386D02*
X473850Y1060507D01*
X479893Y1066550D01*
X482014Y1064429D01*
X475971Y1058386D01*
G37*
G36*
X472436Y1061921D02*
X470315Y1064042D01*
X476358Y1070085D01*
X478479Y1067964D01*
X472436Y1061921D01*
G37*
G36*
X468900Y1065457D02*
X466779Y1067578D01*
X472822Y1073621D01*
X474943Y1071500D01*
X468900Y1065457D01*
G37*
G36*
X465364Y1068992D02*
X463243Y1071113D01*
X469286Y1077156D01*
X471407Y1075035D01*
X465364Y1068992D01*
G37*
G36*
X461829Y1072528D02*
X459708Y1074649D01*
X465751Y1080692D01*
X467872Y1078571D01*
X461829Y1072528D01*
G37*
G36*
X458292Y1074649D02*
X456171Y1072528D01*
X450128Y1078571D01*
X452249Y1080692D01*
X458292Y1074649D01*
G37*
G36*
X454757Y1071113D02*
X452636Y1068992D01*
X446593Y1075035D01*
X448714Y1077156D01*
X454757Y1071113D01*
G37*
G36*
X451221Y1067578D02*
X449100Y1065457D01*
X443057Y1071500D01*
X445178Y1073621D01*
X451221Y1067578D01*
G37*
G36*
X447685Y1064042D02*
X445564Y1061921D01*
X439521Y1067964D01*
X441642Y1070085D01*
X447685Y1064042D01*
G37*
G36*
X444150Y1060507D02*
X442029Y1058386D01*
X435986Y1064429D01*
X438107Y1066550D01*
X444150Y1060507D01*
G37*
G36*
X440614Y1056971D02*
X438493Y1054850D01*
X432450Y1060893D01*
X434571Y1063014D01*
X440614Y1056971D01*
G37*
G36*
X437079Y1053436D02*
X434958Y1051315D01*
X428915Y1057358D01*
X431036Y1059479D01*
X437079Y1053436D01*
G37*
G36*
X433543Y1049900D02*
X431422Y1047779D01*
X425379Y1053822D01*
X427500Y1055943D01*
X433543Y1049900D01*
G37*
G36*
X430008Y1046364D02*
X427887Y1044243D01*
X421844Y1050286D01*
X423965Y1052407D01*
X430008Y1046364D01*
G37*
G36*
X426472Y1042829D02*
X424351Y1040708D01*
X418308Y1046751D01*
X420429Y1048872D01*
X426472Y1042829D01*
G37*
G36*
X420429Y1031128D02*
X418308Y1033249D01*
X424351Y1039292D01*
X426472Y1037171D01*
X420429Y1031128D01*
G37*
G36*
X423965Y1027593D02*
X421844Y1029714D01*
X427887Y1035757D01*
X430008Y1033636D01*
X423965Y1027593D01*
G37*
G36*
X427500Y1024057D02*
X425379Y1026178D01*
X431422Y1032221D01*
X433543Y1030100D01*
X427500Y1024057D01*
G37*
G36*
X431036Y1020521D02*
X428915Y1022642D01*
X434958Y1028685D01*
X437079Y1026564D01*
X431036Y1020521D01*
G37*
G36*
X434571Y1016986D02*
X432450Y1019107D01*
X438493Y1025150D01*
X440614Y1023029D01*
X434571Y1016986D01*
G37*
G36*
X438107Y1013450D02*
X435986Y1015571D01*
X442029Y1021614D01*
X444150Y1019493D01*
X438107Y1013450D01*
G37*
G36*
X441642Y1009915D02*
X439521Y1012036D01*
X445564Y1018079D01*
X447685Y1015958D01*
X441642Y1009915D01*
G37*
G36*
X445178Y1006379D02*
X443057Y1008500D01*
X449100Y1014543D01*
X451221Y1012422D01*
X445178Y1006379D01*
G37*
G36*
X448714Y1002844D02*
X446593Y1004965D01*
X452636Y1011008D01*
X454757Y1008887D01*
X448714Y1002844D01*
G37*
G36*
X452249Y999308D02*
X450128Y1001429D01*
X456171Y1007472D01*
X458292Y1005351D01*
X452249Y999308D01*
G37*
D39*
X803250Y807350D03*
X790550Y807350D03*
X777850Y807350D03*
X815950Y807350D03*
X828650Y807350D03*
X841350Y807350D03*
X854050Y807350D03*
X866750Y807350D03*
X879450Y807350D03*
X892150Y807350D03*
X803250Y820050D03*
X790550Y820050D03*
X777850Y820050D03*
X815950Y820050D03*
X828650Y820050D03*
X841350Y820050D03*
X854050Y820050D03*
X866750Y820050D03*
X879450Y820050D03*
X892150Y820050D03*
X803250Y832750D03*
X790550Y832750D03*
X777850Y832750D03*
X815950Y832750D03*
X828650Y832750D03*
X841350Y832750D03*
X854050Y832750D03*
X866750Y832750D03*
X879450Y832750D03*
X892150Y832750D03*
X803250Y845450D03*
X790550Y845450D03*
X777850Y845450D03*
X815950Y845450D03*
X828650Y845450D03*
X841350Y845450D03*
X854050Y845450D03*
X866750Y845450D03*
X879450Y845450D03*
X892150Y845450D03*
X803250Y858150D03*
X790550Y858150D03*
X777850Y858150D03*
X815950Y858150D03*
X828650Y858150D03*
X841350Y858150D03*
X854050Y858150D03*
X866750Y858150D03*
X879450Y858150D03*
X892150Y858150D03*
X803250Y870850D03*
X790550Y870850D03*
X777850Y870850D03*
X815950Y870850D03*
X828650Y870850D03*
X841350Y870850D03*
X854050Y870850D03*
X866750Y870850D03*
X879450Y870850D03*
X892150Y870850D03*
X803250Y883550D03*
X790550Y883550D03*
X777850Y883550D03*
X815950Y883550D03*
X828650Y883550D03*
X841350Y883550D03*
X854050Y883550D03*
X866750Y883550D03*
X879450Y883550D03*
X892150Y883550D03*
X803250Y896250D03*
X790550Y896250D03*
X777850Y896250D03*
X815950Y896250D03*
X828650Y896250D03*
X841350Y896250D03*
X854050Y896250D03*
X866750Y896250D03*
X879450Y896250D03*
X892150Y896250D03*
X803250Y908950D03*
X790550Y908950D03*
X777850Y908950D03*
X815950Y908950D03*
X828650Y908950D03*
X841350Y908950D03*
X854050Y908950D03*
X866750Y908950D03*
X879450Y908950D03*
X892150Y908950D03*
X803250Y921650D03*
X790550Y921650D03*
X777850Y921650D03*
X815950Y921650D03*
X828650Y921650D03*
X841350Y921650D03*
X854050Y921650D03*
X866750Y921650D03*
X879450Y921650D03*
X892150Y921650D03*
X803250Y934350D03*
X790550Y934350D03*
X777850Y934350D03*
X815950Y934350D03*
X828650Y934350D03*
X841350Y934350D03*
X854050Y934350D03*
X866750Y934350D03*
X879450Y934350D03*
X892150Y934350D03*
X803250Y947050D03*
X790550Y947050D03*
X777850Y947050D03*
X815950Y947050D03*
X828650Y947050D03*
X841350Y947050D03*
X854050Y947050D03*
X866750Y947050D03*
X879450Y947050D03*
X892150Y947050D03*
X803250Y959750D03*
X790550Y959750D03*
X777850Y959750D03*
X815950Y959750D03*
X828650Y959750D03*
X841350Y959750D03*
X854050Y959750D03*
X866750Y959750D03*
X879450Y959750D03*
X892150Y959750D03*
X803250Y972450D03*
X790550Y972450D03*
X777850Y972450D03*
X815950Y972450D03*
X828650Y972450D03*
X841350Y972450D03*
X854050Y972450D03*
X866750Y972450D03*
X879450Y972450D03*
X892150Y972450D03*
X803250Y985150D03*
X790550Y985150D03*
X777850Y985150D03*
X815950Y985150D03*
X828650Y985150D03*
X841350Y985150D03*
X854050Y985150D03*
X866750Y985150D03*
X879450Y985150D03*
X892150Y985150D03*
X803250Y997850D03*
X790550Y997850D03*
X777850Y997850D03*
X815950Y997850D03*
X828650Y997850D03*
X841350Y997850D03*
X854050Y997850D03*
X866750Y997850D03*
X879450Y997850D03*
X892150Y997850D03*
X803250Y1010550D03*
X790550Y1010550D03*
X777850Y1010550D03*
X815950Y1010550D03*
X828650Y1010550D03*
X841350Y1010550D03*
X854050Y1010550D03*
X866750Y1010550D03*
X879450Y1010550D03*
X892150Y1010550D03*
X803250Y1023250D03*
X790550Y1023250D03*
X777850Y1023250D03*
X815950Y1023250D03*
X828650Y1023250D03*
X841350Y1023250D03*
X854050Y1023250D03*
X866750Y1023250D03*
X879450Y1023250D03*
X892150Y1023250D03*
X803250Y1035950D03*
X790550Y1035950D03*
X777850Y1035950D03*
X815950Y1035950D03*
X828650Y1035950D03*
X841350Y1035950D03*
X854050Y1035950D03*
X866750Y1035950D03*
X879450Y1035950D03*
X892150Y1035950D03*
X803250Y1048650D03*
X790550Y1048650D03*
X777850Y1048650D03*
X815950Y1048650D03*
X828650Y1048650D03*
X841350Y1048650D03*
X854050Y1048650D03*
X866750Y1048650D03*
X879450Y1048650D03*
X892150Y1048650D03*
X803250Y1061350D03*
X790550Y1061350D03*
X777850Y1061350D03*
X815950Y1061350D03*
X828650Y1061350D03*
X841350Y1061350D03*
X854050Y1061350D03*
X866750Y1061350D03*
X879450Y1061350D03*
X892150Y1061350D03*
X803250Y1074050D03*
X790550Y1074050D03*
X777850Y1074050D03*
X815950Y1074050D03*
X828650Y1074050D03*
X841350Y1074050D03*
X854050Y1074050D03*
X866750Y1074050D03*
X879450Y1074050D03*
X892150Y1074050D03*
X803250Y1086750D03*
X790550Y1086750D03*
X777850Y1086750D03*
X815950Y1086750D03*
X828650Y1086750D03*
X841350Y1086750D03*
X854050Y1086750D03*
X866750Y1086750D03*
X879450Y1086750D03*
X892150Y1086750D03*
X803250Y1099450D03*
X790550Y1099450D03*
X777850Y1099450D03*
X815950Y1099450D03*
X828650Y1099450D03*
X841350Y1099450D03*
X854050Y1099450D03*
X866750Y1099450D03*
X879450Y1099450D03*
X892150Y1099450D03*
X803250Y1112150D03*
X790550Y1112150D03*
X777850Y1112150D03*
X815950Y1112150D03*
X828650Y1112150D03*
X841350Y1112150D03*
X854050Y1112150D03*
X866750Y1112150D03*
X879450Y1112150D03*
X892150Y1112150D03*
X803250Y1124850D03*
X790550Y1124850D03*
X777850Y1124850D03*
X815950Y1124850D03*
X828650Y1124850D03*
X841350Y1124850D03*
X854050Y1124850D03*
X866750Y1124850D03*
X879450Y1124850D03*
X892150Y1124850D03*
X803250Y1137550D03*
X790550Y1137550D03*
X777850Y1137550D03*
X815950Y1137550D03*
X828650Y1137550D03*
X841350Y1137550D03*
X854050Y1137550D03*
X866750Y1137550D03*
X879450Y1137550D03*
X892150Y1137550D03*
X803250Y1150250D03*
X790550Y1150250D03*
X777850Y1150250D03*
X815950Y1150250D03*
X828650Y1150250D03*
X841350Y1150250D03*
X854050Y1150250D03*
X866750Y1150250D03*
X879450Y1150250D03*
X892150Y1150250D03*
X803250Y1162950D03*
X790550Y1162950D03*
X777850Y1162950D03*
X815950Y1162950D03*
X828650Y1162950D03*
X841350Y1162950D03*
X854050Y1162950D03*
X866750Y1162950D03*
X879450Y1162950D03*
X892150Y1162950D03*
X803250Y1175650D03*
X790550Y1175650D03*
X777850Y1175650D03*
X815950Y1175650D03*
X828650Y1175650D03*
X841350Y1175650D03*
X854050Y1175650D03*
X866750Y1175650D03*
X879450Y1175650D03*
X892150Y1175650D03*
X803250Y1188350D03*
X790550Y1188350D03*
X777850Y1188350D03*
X815950Y1188350D03*
X828650Y1188350D03*
X841350Y1188350D03*
X854050Y1188350D03*
X866750Y1188350D03*
X879450Y1188350D03*
X892150Y1188350D03*
X803250Y1201050D03*
X790550Y1201050D03*
X777850Y1201050D03*
X815950Y1201050D03*
X828650Y1201050D03*
X841350Y1201050D03*
X854050Y1201050D03*
X866750Y1201050D03*
X879450Y1201050D03*
X892150Y1201050D03*
X803250Y1213750D03*
X790550Y1213750D03*
X777850Y1213750D03*
X815950Y1213750D03*
X828650Y1213750D03*
X841350Y1213750D03*
X854050Y1213750D03*
X866750Y1213750D03*
X879450Y1213750D03*
X892150Y1213750D03*
X803250Y1226450D03*
X790550Y1226450D03*
X777850Y1226450D03*
X815950Y1226450D03*
X828650Y1226450D03*
X841350Y1226450D03*
X854050Y1226450D03*
X866750Y1226450D03*
X879450Y1226450D03*
X892150Y1226450D03*
X803250Y1239150D03*
X790550Y1239150D03*
X777850Y1239150D03*
X815950Y1239150D03*
X828650Y1239150D03*
X841350Y1239150D03*
X854050Y1239150D03*
X866750Y1239150D03*
X879450Y1239150D03*
X892150Y1239150D03*
X803250Y1251850D03*
X790550Y1251850D03*
X777850Y1251850D03*
X815950Y1251850D03*
X828650Y1251850D03*
X841350Y1251850D03*
X854050Y1251850D03*
X866750Y1251850D03*
X879450Y1251850D03*
X892150Y1251850D03*
X803250Y1264550D03*
X790550Y1264550D03*
X777850Y1264550D03*
X815950Y1264550D03*
X828650Y1264550D03*
X841350Y1264550D03*
X854050Y1264550D03*
X866750Y1264550D03*
X879450Y1264550D03*
X892150Y1264550D03*
X803250Y1277250D03*
X790550Y1277250D03*
X777850Y1277250D03*
X815950Y1277250D03*
X828650Y1277250D03*
X841350Y1277250D03*
X854050Y1277250D03*
X866750Y1277250D03*
X879450Y1277250D03*
X892150Y1277250D03*
X803250Y1289950D03*
X790550Y1289950D03*
X777850Y1289950D03*
X815950Y1289950D03*
X828650Y1289950D03*
X841350Y1289950D03*
X854050Y1289950D03*
X866750Y1289950D03*
X879450Y1289950D03*
X892150Y1289950D03*
X803250Y1302650D03*
X790550Y1302650D03*
X777850Y1302650D03*
X815950Y1302650D03*
X828650Y1302650D03*
X841350Y1302650D03*
X854050Y1302650D03*
X866750Y1302650D03*
X879450Y1302650D03*
X892150Y1302650D03*
D40*
X783000Y1393750D03*
X783000Y1387250D03*
X783000Y1380750D03*
X783000Y1374250D03*
X783000Y1367750D03*
X783000Y1361250D03*
X783000Y1354750D03*
X783000Y1348250D03*
X723000Y1393750D03*
X723000Y1387250D03*
X723000Y1380750D03*
X723000Y1374250D03*
X723000Y1367750D03*
X723000Y1361250D03*
X723000Y1354750D03*
X723000Y1348250D03*
D12*
X743000Y1306666D03*
X743000Y1317334D03*
X250000Y1226334D03*
X250000Y1215666D03*
D16*
X266334Y1247000D03*
X255666Y1247000D03*
D24*
X357000Y1215490D03*
X357000Y1248510D03*
D16*
X630834Y1164000D03*
X620166Y1164000D03*
X635334Y1151000D03*
X624666Y1151000D03*
X612334Y1151000D03*
X601666Y1151000D03*
D12*
X663000Y1217666D03*
X663000Y1228334D03*
X650000Y1217666D03*
X650000Y1228334D03*
X663000Y1239666D03*
X663000Y1250334D03*
X650000Y1239666D03*
X650000Y1250334D03*
X378000Y1240666D03*
X378000Y1251334D03*
D19*
X223000Y1243430D03*
X223000Y1220570D03*
D20*
X330750Y1234000D03*
X289250Y1234000D03*
D21*
X398414Y1217000D03*
X377586Y1217000D03*
D18*
X394490Y1244000D03*
X427510Y1244000D03*
D27*
X216750Y1207050D03*
X223250Y1207050D03*
D12*
X662000Y1108334D03*
X662000Y1097666D03*
X648000Y1108334D03*
X648000Y1097666D03*
D41*
X752200Y738100D03*
X752200Y743100D03*
X752200Y748100D03*
X752200Y753100D03*
X752200Y758100D03*
X752200Y763100D03*
X752200Y768100D03*
X752200Y773100D03*
D42*
X745700Y779600D03*
X740700Y779600D03*
X735700Y779600D03*
X730700Y779600D03*
X725700Y779600D03*
X720700Y779600D03*
X715700Y779600D03*
X710700Y779600D03*
D41*
X704200Y773100D03*
X704200Y768100D03*
X704200Y763100D03*
X704200Y758100D03*
X704200Y753100D03*
X704200Y748100D03*
X704200Y743100D03*
X704200Y738100D03*
D42*
X710700Y731600D03*
X715700Y731600D03*
X720700Y731600D03*
X725700Y731600D03*
X730700Y731600D03*
X735700Y731600D03*
X740700Y731600D03*
X745700Y731600D03*
D43*
X735700Y763100D03*
X735700Y748100D03*
X720700Y748100D03*
X720700Y763100D03*
D16*
X742834Y721800D03*
X732166Y721800D03*
X722266Y794200D03*
X732934Y794200D03*
D44*
X528000Y763750D03*
X528000Y757250D03*
X528000Y750750D03*
X528000Y744250D03*
X528000Y737750D03*
X528000Y731250D03*
X528000Y724750D03*
X528000Y718250D03*
X472000Y763750D03*
X472000Y757250D03*
X472000Y750750D03*
X472000Y744250D03*
X472000Y737750D03*
X472000Y731250D03*
X472000Y724750D03*
X472000Y718250D03*
D45*
X540000Y788750D03*
X540000Y782250D03*
X540000Y795250D03*
X540000Y801750D03*
X498000Y801750D03*
X498000Y795250D03*
X498000Y788750D03*
X498000Y782250D03*
D46*
X519000Y792000D03*
D47*
X322000Y999000D03*
D48*
X302746Y1008750D03*
X302746Y1002250D03*
X302746Y995750D03*
X302746Y989250D03*
D49*
X312250Y979746D03*
X318750Y979746D03*
X325250Y979746D03*
X331750Y979746D03*
D48*
X341254Y989250D03*
X341254Y995750D03*
X341254Y1002250D03*
X341254Y1008750D03*
D49*
X331750Y1018254D03*
X325250Y1018254D03*
X318750Y1018254D03*
X312250Y1018254D03*
D47*
X322000Y930000D03*
D48*
X302746Y939750D03*
X302746Y933250D03*
X302746Y926750D03*
X302746Y920250D03*
D49*
X312250Y910746D03*
X318750Y910746D03*
X325250Y910746D03*
X331750Y910746D03*
D48*
X341254Y920250D03*
X341254Y926750D03*
X341254Y933250D03*
X341254Y939750D03*
D49*
X331750Y949254D03*
X325250Y949254D03*
X318750Y949254D03*
X312250Y949254D03*
D47*
X321000Y862000D03*
D48*
X301746Y871750D03*
X301746Y865250D03*
X301746Y858750D03*
X301746Y852250D03*
D49*
X311250Y842746D03*
X317750Y842746D03*
X324250Y842746D03*
X330750Y842746D03*
D48*
X340254Y852250D03*
X340254Y858750D03*
X340254Y865250D03*
X340254Y871750D03*
D49*
X330750Y881254D03*
X324250Y881254D03*
X317750Y881254D03*
X311250Y881254D03*
D16*
X612666Y1109000D03*
X623334Y1109000D03*
X612666Y1123000D03*
X623334Y1123000D03*
X555666Y1217000D03*
X566334Y1217000D03*
X555666Y1204000D03*
X566334Y1204000D03*
D26*
X588030Y1261500D03*
X615970Y1261500D03*
D50*
X572000Y1350030D03*
X572000Y1377970D03*
D51*
X461500Y1249000D03*
X466500Y1249000D03*
X471500Y1249000D03*
X476500Y1249000D03*
X481500Y1249000D03*
X486500Y1249000D03*
X491500Y1249000D03*
X496500Y1249000D03*
X501500Y1249000D03*
X506500Y1249000D03*
X511500Y1249000D03*
X516500Y1249000D03*
D52*
X523000Y1255500D03*
X523000Y1260500D03*
X523000Y1265500D03*
X523000Y1270500D03*
X523000Y1275500D03*
X523000Y1280500D03*
X523000Y1285500D03*
X523000Y1290500D03*
X523000Y1295500D03*
X523000Y1300500D03*
X523000Y1305500D03*
X523000Y1310500D03*
D51*
X516500Y1317000D03*
X511500Y1317000D03*
X506500Y1317000D03*
X501500Y1317000D03*
X496500Y1317000D03*
X491500Y1317000D03*
X486500Y1317000D03*
X481500Y1317000D03*
X476500Y1317000D03*
X471500Y1317000D03*
X466500Y1317000D03*
X461500Y1317000D03*
D52*
X455000Y1310500D03*
X455000Y1305500D03*
X455000Y1300500D03*
X455000Y1295500D03*
X455000Y1290500D03*
X455000Y1285500D03*
X455000Y1280500D03*
X455000Y1275500D03*
X455000Y1270500D03*
X455000Y1265500D03*
X455000Y1260500D03*
X455000Y1255500D03*
D53*
X489000Y1283000D03*
X489000Y1269300D03*
X502700Y1269300D03*
X502700Y1283000D03*
X502700Y1296700D03*
X489000Y1296700D03*
X475300Y1296700D03*
X475300Y1283000D03*
X475300Y1269300D03*
D16*
X458666Y1330000D03*
X469334Y1330000D03*
D24*
X512500Y1378510D03*
X512500Y1345490D03*
D54*
X487000Y1356914D03*
X487000Y1336086D03*
D51*
X655500Y1121500D03*
X660500Y1121500D03*
X665500Y1121500D03*
X670500Y1121500D03*
X675500Y1121500D03*
X680500Y1121500D03*
X685500Y1121500D03*
X690500Y1121500D03*
X695500Y1121500D03*
X700500Y1121500D03*
X705500Y1121500D03*
X710500Y1121500D03*
D52*
X717000Y1128000D03*
X717000Y1133000D03*
X717000Y1138000D03*
X717000Y1143000D03*
X717000Y1148000D03*
X717000Y1153000D03*
X717000Y1158000D03*
X717000Y1163000D03*
X717000Y1168000D03*
X717000Y1173000D03*
X717000Y1178000D03*
X717000Y1183000D03*
D51*
X710500Y1189500D03*
X705500Y1189500D03*
X700500Y1189500D03*
X695500Y1189500D03*
X690500Y1189500D03*
X685500Y1189500D03*
X680500Y1189500D03*
X675500Y1189500D03*
X670500Y1189500D03*
X665500Y1189500D03*
X660500Y1189500D03*
X655500Y1189500D03*
D52*
X649000Y1183000D03*
X649000Y1178000D03*
X649000Y1173000D03*
X649000Y1168000D03*
X649000Y1163000D03*
X649000Y1158000D03*
X649000Y1153000D03*
X649000Y1148000D03*
X649000Y1143000D03*
X649000Y1138000D03*
X649000Y1133000D03*
X649000Y1128000D03*
D53*
X683000Y1155500D03*
X683000Y1141800D03*
X696700Y1141800D03*
X696700Y1155500D03*
X696700Y1169200D03*
X683000Y1169200D03*
X669300Y1169200D03*
X669300Y1155500D03*
X669300Y1141800D03*
D16*
X653166Y1200400D03*
X663834Y1200400D03*
D24*
X705500Y1248510D03*
X705500Y1215490D03*
D54*
X679500Y1229914D03*
X679500Y1209086D03*
D26*
X888970Y1370000D03*
X861030Y1370000D03*
X888970Y740000D03*
X861030Y740000D03*
D55*
X745000Y986000D03*
X745000Y994000D03*
X745000Y1002000D03*
X745000Y1010000D03*
X745000Y1018000D03*
X745000Y1026000D03*
X745000Y1034000D03*
X745000Y1042000D03*
D56*
X731000Y973000D03*
X731000Y1055000D03*
M02*
