%TF.GenerationSoftware,KiCad,Pcbnew,(7.0.0)*%
%TF.CreationDate,2023-07-13T10:10:58-04:00*%
%TF.ProjectId,bracket-led-panel,62726163-6b65-4742-9d6c-65642d70616e,rev?*%
%TF.SameCoordinates,Original*%
%TF.FileFunction,Paste,Top*%
%TF.FilePolarity,Positive*%
%FSLAX46Y46*%
G04 Gerber Fmt 4.6, Leading zero omitted, Abs format (unit mm)*
G04 Created by KiCad (PCBNEW (7.0.0)) date 2023-07-13 10:10:58*
%MOMM*%
%LPD*%
G01*
G04 APERTURE LIST*
G04 Aperture macros list*
%AMRoundRect*
0 Rectangle with rounded corners*
0 $1 Rounding radius*
0 $2 $3 $4 $5 $6 $7 $8 $9 X,Y pos of 4 corners*
0 Add a 4 corners polygon primitive as box body*
4,1,4,$2,$3,$4,$5,$6,$7,$8,$9,$2,$3,0*
0 Add four circle primitives for the rounded corners*
1,1,$1+$1,$2,$3*
1,1,$1+$1,$4,$5*
1,1,$1+$1,$6,$7*
1,1,$1+$1,$8,$9*
0 Add four rect primitives between the rounded corners*
20,1,$1+$1,$2,$3,$4,$5,0*
20,1,$1+$1,$4,$5,$6,$7,0*
20,1,$1+$1,$6,$7,$8,$9,0*
20,1,$1+$1,$8,$9,$2,$3,0*%
G04 Aperture macros list end*
%ADD10R,0.550000X0.400000*%
%ADD11R,0.700000X0.500000*%
%ADD12RoundRect,0.125000X-0.125000X-0.375000X0.125000X-0.375000X0.125000X0.375000X-0.125000X0.375000X0*%
%ADD13RoundRect,0.250000X-0.350000X-0.600000X0.350000X-0.600000X0.350000X0.600000X-0.350000X0.600000X0*%
G04 APERTURE END LIST*
D10*
%TO.C,D2*%
X97624999Y-79424999D03*
X98974999Y-79424999D03*
D11*
X97549999Y-78699999D03*
X99049999Y-78699999D03*
D10*
X97624999Y-77974999D03*
X98974999Y-77974999D03*
%TD*%
%TO.C,D2*%
X151624999Y-88424999D03*
X152974999Y-88424999D03*
D11*
X151549999Y-87699999D03*
X153049999Y-87699999D03*
D10*
X151624999Y-86974999D03*
X152974999Y-86974999D03*
%TD*%
%TO.C,D2*%
X124624999Y-70424999D03*
X125974999Y-70424999D03*
D11*
X124549999Y-69699999D03*
X126049999Y-69699999D03*
D10*
X124624999Y-68974999D03*
X125974999Y-68974999D03*
%TD*%
%TO.C,D2*%
X70624999Y-79424999D03*
X71974999Y-79424999D03*
D11*
X70549999Y-78699999D03*
X72049999Y-78699999D03*
D10*
X70624999Y-77974999D03*
X71974999Y-77974999D03*
%TD*%
%TO.C,D2*%
X124624999Y-79424999D03*
X125974999Y-79424999D03*
D11*
X124549999Y-78699999D03*
X126049999Y-78699999D03*
D10*
X124624999Y-77974999D03*
X125974999Y-77974999D03*
%TD*%
%TO.C,D2*%
X151624999Y-79424999D03*
X152974999Y-79424999D03*
D11*
X151549999Y-78699999D03*
X153049999Y-78699999D03*
D10*
X151624999Y-77974999D03*
X152974999Y-77974999D03*
%TD*%
%TO.C,D2*%
X97624999Y-43424999D03*
X98974999Y-43424999D03*
D11*
X97549999Y-42699999D03*
X99049999Y-42699999D03*
D10*
X97624999Y-41974999D03*
X98974999Y-41974999D03*
%TD*%
%TO.C,D2*%
X151624999Y-70424999D03*
X152974999Y-70424999D03*
D11*
X151549999Y-69699999D03*
X153049999Y-69699999D03*
D10*
X151624999Y-68974999D03*
X152974999Y-68974999D03*
%TD*%
%TO.C,D2*%
X124624999Y-61424999D03*
X125974999Y-61424999D03*
D11*
X124549999Y-60699999D03*
X126049999Y-60699999D03*
D10*
X124624999Y-59974999D03*
X125974999Y-59974999D03*
%TD*%
%TO.C,D2*%
X97624999Y-52424999D03*
X98974999Y-52424999D03*
D11*
X97549999Y-51699999D03*
X99049999Y-51699999D03*
D10*
X97624999Y-50974999D03*
X98974999Y-50974999D03*
%TD*%
%TO.C,D2*%
X70624999Y-61424999D03*
X71974999Y-61424999D03*
D11*
X70549999Y-60699999D03*
X72049999Y-60699999D03*
D10*
X70624999Y-59974999D03*
X71974999Y-59974999D03*
%TD*%
%TO.C,D2*%
X124624999Y-52424999D03*
X125974999Y-52424999D03*
D11*
X124549999Y-51699999D03*
X126049999Y-51699999D03*
D10*
X124624999Y-50974999D03*
X125974999Y-50974999D03*
%TD*%
%TO.C,D2*%
X70624999Y-52424999D03*
X71974999Y-52424999D03*
D11*
X70549999Y-51699999D03*
X72049999Y-51699999D03*
D10*
X70624999Y-50974999D03*
X71974999Y-50974999D03*
%TD*%
%TO.C,D2*%
X151624999Y-61424999D03*
X152974999Y-61424999D03*
D11*
X151549999Y-60699999D03*
X153049999Y-60699999D03*
D10*
X151624999Y-59974999D03*
X152974999Y-59974999D03*
%TD*%
%TO.C,D2*%
X97624999Y-61424999D03*
X98974999Y-61424999D03*
D11*
X97549999Y-60699999D03*
X99049999Y-60699999D03*
D10*
X97624999Y-59974999D03*
X98974999Y-59974999D03*
%TD*%
%TO.C,D2*%
X70624999Y-43424999D03*
X71974999Y-43424999D03*
D11*
X70549999Y-42699999D03*
X72049999Y-42699999D03*
D10*
X70624999Y-41974999D03*
X71974999Y-41974999D03*
%TD*%
%TO.C,D2*%
X97624999Y-88424999D03*
X98974999Y-88424999D03*
D11*
X97549999Y-87699999D03*
X99049999Y-87699999D03*
D10*
X97624999Y-86974999D03*
X98974999Y-86974999D03*
%TD*%
%TO.C,D2*%
X70624999Y-88424999D03*
X71974999Y-88424999D03*
D11*
X70549999Y-87699999D03*
X72049999Y-87699999D03*
D10*
X70624999Y-86974999D03*
X71974999Y-86974999D03*
%TD*%
%TO.C,D2*%
X151624999Y-52424999D03*
X152974999Y-52424999D03*
D11*
X151549999Y-51699999D03*
X153049999Y-51699999D03*
D10*
X151624999Y-50974999D03*
X152974999Y-50974999D03*
%TD*%
%TO.C,D2*%
X97624999Y-70424999D03*
X98974999Y-70424999D03*
D11*
X97549999Y-69699999D03*
X99049999Y-69699999D03*
D10*
X97624999Y-68974999D03*
X98974999Y-68974999D03*
%TD*%
%TO.C,D2*%
X124624999Y-43424999D03*
X125974999Y-43424999D03*
D11*
X124549999Y-42699999D03*
X126049999Y-42699999D03*
D10*
X124624999Y-41974999D03*
X125974999Y-41974999D03*
%TD*%
%TO.C,D2*%
X151624999Y-43424999D03*
X152974999Y-43424999D03*
D11*
X151549999Y-42699999D03*
X153049999Y-42699999D03*
D10*
X151624999Y-41974999D03*
X152974999Y-41974999D03*
%TD*%
%TO.C,D2*%
X70624999Y-70424999D03*
X71974999Y-70424999D03*
D11*
X70549999Y-69699999D03*
X72049999Y-69699999D03*
D10*
X70624999Y-68974999D03*
X71974999Y-68974999D03*
%TD*%
%TO.C,D2*%
X124624999Y-88424999D03*
X125974999Y-88424999D03*
D11*
X124549999Y-87699999D03*
X126049999Y-87699999D03*
D10*
X124624999Y-86974999D03*
X125974999Y-86974999D03*
%TD*%
%TO.C,D1*%
X119624999Y-88424999D03*
X120974999Y-88424999D03*
D11*
X119549999Y-87699999D03*
X121049999Y-87699999D03*
D10*
X119624999Y-86974999D03*
X120974999Y-86974999D03*
%TD*%
%TO.C,D1*%
X146624999Y-70424999D03*
X147974999Y-70424999D03*
D11*
X146549999Y-69699999D03*
X148049999Y-69699999D03*
D10*
X146624999Y-68974999D03*
X147974999Y-68974999D03*
%TD*%
%TO.C,D1*%
X92624999Y-70424999D03*
X93974999Y-70424999D03*
D11*
X92549999Y-69699999D03*
X94049999Y-69699999D03*
D10*
X92624999Y-68974999D03*
X93974999Y-68974999D03*
%TD*%
%TO.C,D1*%
X92624999Y-52424999D03*
X93974999Y-52424999D03*
D11*
X92549999Y-51699999D03*
X94049999Y-51699999D03*
D10*
X92624999Y-50974999D03*
X93974999Y-50974999D03*
%TD*%
%TO.C,D1*%
X92624999Y-88424999D03*
X93974999Y-88424999D03*
D11*
X92549999Y-87699999D03*
X94049999Y-87699999D03*
D10*
X92624999Y-86974999D03*
X93974999Y-86974999D03*
%TD*%
%TO.C,D1*%
X119624999Y-52424999D03*
X120974999Y-52424999D03*
D11*
X119549999Y-51699999D03*
X121049999Y-51699999D03*
D10*
X119624999Y-50974999D03*
X120974999Y-50974999D03*
%TD*%
%TO.C,D1*%
X65624999Y-70424999D03*
X66974999Y-70424999D03*
D11*
X65549999Y-69699999D03*
X67049999Y-69699999D03*
D10*
X65624999Y-68974999D03*
X66974999Y-68974999D03*
%TD*%
%TO.C,D1*%
X92624999Y-61424999D03*
X93974999Y-61424999D03*
D11*
X92549999Y-60699999D03*
X94049999Y-60699999D03*
D10*
X92624999Y-59974999D03*
X93974999Y-59974999D03*
%TD*%
%TO.C,D1*%
X65624999Y-52424999D03*
X66974999Y-52424999D03*
D11*
X65549999Y-51699999D03*
X67049999Y-51699999D03*
D10*
X65624999Y-50974999D03*
X66974999Y-50974999D03*
%TD*%
%TO.C,D1*%
X119624999Y-61424999D03*
X120974999Y-61424999D03*
D11*
X119549999Y-60699999D03*
X121049999Y-60699999D03*
D10*
X119624999Y-59974999D03*
X120974999Y-59974999D03*
%TD*%
%TO.C,D1*%
X65624999Y-61424999D03*
X66974999Y-61424999D03*
D11*
X65549999Y-60699999D03*
X67049999Y-60699999D03*
D10*
X65624999Y-59974999D03*
X66974999Y-59974999D03*
%TD*%
%TO.C,D1*%
X119624999Y-43424999D03*
X120974999Y-43424999D03*
D11*
X119549999Y-42699999D03*
X121049999Y-42699999D03*
D10*
X119624999Y-41974999D03*
X120974999Y-41974999D03*
%TD*%
%TO.C,D1*%
X65624999Y-88424999D03*
X66974999Y-88424999D03*
D11*
X65549999Y-87699999D03*
X67049999Y-87699999D03*
D10*
X65624999Y-86974999D03*
X66974999Y-86974999D03*
%TD*%
%TO.C,D1*%
X65624999Y-43424999D03*
X66974999Y-43424999D03*
D11*
X65549999Y-42699999D03*
X67049999Y-42699999D03*
D10*
X65624999Y-41974999D03*
X66974999Y-41974999D03*
%TD*%
%TO.C,D1*%
X146624999Y-52424999D03*
X147974999Y-52424999D03*
D11*
X146549999Y-51699999D03*
X148049999Y-51699999D03*
D10*
X146624999Y-50974999D03*
X147974999Y-50974999D03*
%TD*%
%TO.C,D1*%
X146624999Y-61424999D03*
X147974999Y-61424999D03*
D11*
X146549999Y-60699999D03*
X148049999Y-60699999D03*
D10*
X146624999Y-59974999D03*
X147974999Y-59974999D03*
%TD*%
%TO.C,D1*%
X146624999Y-43424999D03*
X147974999Y-43424999D03*
D11*
X146549999Y-42699999D03*
X148049999Y-42699999D03*
D10*
X146624999Y-41974999D03*
X147974999Y-41974999D03*
%TD*%
%TO.C,D1*%
X92624999Y-43424999D03*
X93974999Y-43424999D03*
D11*
X92549999Y-42699999D03*
X94049999Y-42699999D03*
D10*
X92624999Y-41974999D03*
X93974999Y-41974999D03*
%TD*%
%TO.C,D1*%
X92624999Y-79424999D03*
X93974999Y-79424999D03*
D11*
X92549999Y-78699999D03*
X94049999Y-78699999D03*
D10*
X92624999Y-77974999D03*
X93974999Y-77974999D03*
%TD*%
%TO.C,D1*%
X146624999Y-88424999D03*
X147974999Y-88424999D03*
D11*
X146549999Y-87699999D03*
X148049999Y-87699999D03*
D10*
X146624999Y-86974999D03*
X147974999Y-86974999D03*
%TD*%
%TO.C,D1*%
X65624999Y-79424999D03*
X66974999Y-79424999D03*
D11*
X65549999Y-78699999D03*
X67049999Y-78699999D03*
D10*
X65624999Y-77974999D03*
X66974999Y-77974999D03*
%TD*%
%TO.C,D1*%
X119624999Y-70424999D03*
X120974999Y-70424999D03*
D11*
X119549999Y-69699999D03*
X121049999Y-69699999D03*
D10*
X119624999Y-68974999D03*
X120974999Y-68974999D03*
%TD*%
%TO.C,D1*%
X146624999Y-79424999D03*
X147974999Y-79424999D03*
D11*
X146549999Y-78699999D03*
X148049999Y-78699999D03*
D10*
X146624999Y-77974999D03*
X147974999Y-77974999D03*
%TD*%
%TO.C,D1*%
X119624999Y-79424999D03*
X120974999Y-79424999D03*
D11*
X119549999Y-78699999D03*
X121049999Y-78699999D03*
D10*
X119624999Y-77974999D03*
X120974999Y-77974999D03*
%TD*%
D12*
%TO.C,J1*%
X81250800Y-52072240D03*
X82050800Y-52072240D03*
X82850800Y-52072240D03*
X83650800Y-52072240D03*
X84450800Y-52072240D03*
X85250800Y-52072240D03*
X86050800Y-52072240D03*
X86850800Y-52072240D03*
D13*
X79950800Y-54022240D03*
X88150800Y-54022240D03*
%TD*%
D12*
%TO.C,J1*%
X81250800Y-43072240D03*
X82050800Y-43072240D03*
X82850800Y-43072240D03*
X83650800Y-43072240D03*
X84450800Y-43072240D03*
X85250800Y-43072240D03*
X86050800Y-43072240D03*
X86850800Y-43072240D03*
D13*
X79950800Y-45022240D03*
X88150800Y-45022240D03*
%TD*%
D12*
%TO.C,J1*%
X54250800Y-88072240D03*
X55050800Y-88072240D03*
X55850800Y-88072240D03*
X56650800Y-88072240D03*
X57450800Y-88072240D03*
X58250800Y-88072240D03*
X59050800Y-88072240D03*
X59850800Y-88072240D03*
D13*
X52950800Y-90022240D03*
X61150800Y-90022240D03*
%TD*%
D12*
%TO.C,J1*%
X81250800Y-61072240D03*
X82050800Y-61072240D03*
X82850800Y-61072240D03*
X83650800Y-61072240D03*
X84450800Y-61072240D03*
X85250800Y-61072240D03*
X86050800Y-61072240D03*
X86850800Y-61072240D03*
D13*
X79950800Y-63022240D03*
X88150800Y-63022240D03*
%TD*%
D12*
%TO.C,J1*%
X81250800Y-70072240D03*
X82050800Y-70072240D03*
X82850800Y-70072240D03*
X83650800Y-70072240D03*
X84450800Y-70072240D03*
X85250800Y-70072240D03*
X86050800Y-70072240D03*
X86850800Y-70072240D03*
D13*
X79950800Y-72022240D03*
X88150800Y-72022240D03*
%TD*%
D12*
%TO.C,J1*%
X108250800Y-88072240D03*
X109050800Y-88072240D03*
X109850800Y-88072240D03*
X110650800Y-88072240D03*
X111450800Y-88072240D03*
X112250800Y-88072240D03*
X113050800Y-88072240D03*
X113850800Y-88072240D03*
D13*
X106950800Y-90022240D03*
X115150800Y-90022240D03*
%TD*%
D12*
%TO.C,J1*%
X135250800Y-70072240D03*
X136050800Y-70072240D03*
X136850800Y-70072240D03*
X137650800Y-70072240D03*
X138450800Y-70072240D03*
X139250800Y-70072240D03*
X140050800Y-70072240D03*
X140850800Y-70072240D03*
D13*
X133950800Y-72022240D03*
X142150800Y-72022240D03*
%TD*%
D12*
%TO.C,J1*%
X54250800Y-70072240D03*
X55050800Y-70072240D03*
X55850800Y-70072240D03*
X56650800Y-70072240D03*
X57450800Y-70072240D03*
X58250800Y-70072240D03*
X59050800Y-70072240D03*
X59850800Y-70072240D03*
D13*
X52950800Y-72022240D03*
X61150800Y-72022240D03*
%TD*%
D12*
%TO.C,J1*%
X81250800Y-88072240D03*
X82050800Y-88072240D03*
X82850800Y-88072240D03*
X83650800Y-88072240D03*
X84450800Y-88072240D03*
X85250800Y-88072240D03*
X86050800Y-88072240D03*
X86850800Y-88072240D03*
D13*
X79950800Y-90022240D03*
X88150800Y-90022240D03*
%TD*%
D12*
%TO.C,J1*%
X135250800Y-52072240D03*
X136050800Y-52072240D03*
X136850800Y-52072240D03*
X137650800Y-52072240D03*
X138450800Y-52072240D03*
X139250800Y-52072240D03*
X140050800Y-52072240D03*
X140850800Y-52072240D03*
D13*
X133950800Y-54022240D03*
X142150800Y-54022240D03*
%TD*%
D12*
%TO.C,J1*%
X54250800Y-43072240D03*
X55050800Y-43072240D03*
X55850800Y-43072240D03*
X56650800Y-43072240D03*
X57450800Y-43072240D03*
X58250800Y-43072240D03*
X59050800Y-43072240D03*
X59850800Y-43072240D03*
D13*
X52950800Y-45022240D03*
X61150800Y-45022240D03*
%TD*%
D12*
%TO.C,J1*%
X54250800Y-79072240D03*
X55050800Y-79072240D03*
X55850800Y-79072240D03*
X56650800Y-79072240D03*
X57450800Y-79072240D03*
X58250800Y-79072240D03*
X59050800Y-79072240D03*
X59850800Y-79072240D03*
D13*
X52950800Y-81022240D03*
X61150800Y-81022240D03*
%TD*%
D12*
%TO.C,J1*%
X54250800Y-52072240D03*
X55050800Y-52072240D03*
X55850800Y-52072240D03*
X56650800Y-52072240D03*
X57450800Y-52072240D03*
X58250800Y-52072240D03*
X59050800Y-52072240D03*
X59850800Y-52072240D03*
D13*
X52950800Y-54022240D03*
X61150800Y-54022240D03*
%TD*%
D12*
%TO.C,J1*%
X108250800Y-70072240D03*
X109050800Y-70072240D03*
X109850800Y-70072240D03*
X110650800Y-70072240D03*
X111450800Y-70072240D03*
X112250800Y-70072240D03*
X113050800Y-70072240D03*
X113850800Y-70072240D03*
D13*
X106950800Y-72022240D03*
X115150800Y-72022240D03*
%TD*%
D12*
%TO.C,J1*%
X135250800Y-79072240D03*
X136050800Y-79072240D03*
X136850800Y-79072240D03*
X137650800Y-79072240D03*
X138450800Y-79072240D03*
X139250800Y-79072240D03*
X140050800Y-79072240D03*
X140850800Y-79072240D03*
D13*
X133950800Y-81022240D03*
X142150800Y-81022240D03*
%TD*%
D12*
%TO.C,J1*%
X108250800Y-61072240D03*
X109050800Y-61072240D03*
X109850800Y-61072240D03*
X110650800Y-61072240D03*
X111450800Y-61072240D03*
X112250800Y-61072240D03*
X113050800Y-61072240D03*
X113850800Y-61072240D03*
D13*
X106950800Y-63022240D03*
X115150800Y-63022240D03*
%TD*%
D12*
%TO.C,J1*%
X108250800Y-79072240D03*
X109050800Y-79072240D03*
X109850800Y-79072240D03*
X110650800Y-79072240D03*
X111450800Y-79072240D03*
X112250800Y-79072240D03*
X113050800Y-79072240D03*
X113850800Y-79072240D03*
D13*
X106950800Y-81022240D03*
X115150800Y-81022240D03*
%TD*%
D12*
%TO.C,J1*%
X135250800Y-61072240D03*
X136050800Y-61072240D03*
X136850800Y-61072240D03*
X137650800Y-61072240D03*
X138450800Y-61072240D03*
X139250800Y-61072240D03*
X140050800Y-61072240D03*
X140850800Y-61072240D03*
D13*
X133950800Y-63022240D03*
X142150800Y-63022240D03*
%TD*%
D12*
%TO.C,J1*%
X81250800Y-79072240D03*
X82050800Y-79072240D03*
X82850800Y-79072240D03*
X83650800Y-79072240D03*
X84450800Y-79072240D03*
X85250800Y-79072240D03*
X86050800Y-79072240D03*
X86850800Y-79072240D03*
D13*
X79950800Y-81022240D03*
X88150800Y-81022240D03*
%TD*%
D12*
%TO.C,J1*%
X108250800Y-52072240D03*
X109050800Y-52072240D03*
X109850800Y-52072240D03*
X110650800Y-52072240D03*
X111450800Y-52072240D03*
X112250800Y-52072240D03*
X113050800Y-52072240D03*
X113850800Y-52072240D03*
D13*
X106950800Y-54022240D03*
X115150800Y-54022240D03*
%TD*%
D12*
%TO.C,J1*%
X135250800Y-88072240D03*
X136050800Y-88072240D03*
X136850800Y-88072240D03*
X137650800Y-88072240D03*
X138450800Y-88072240D03*
X139250800Y-88072240D03*
X140050800Y-88072240D03*
X140850800Y-88072240D03*
D13*
X133950800Y-90022240D03*
X142150800Y-90022240D03*
%TD*%
D12*
%TO.C,J1*%
X108250800Y-43072240D03*
X109050800Y-43072240D03*
X109850800Y-43072240D03*
X110650800Y-43072240D03*
X111450800Y-43072240D03*
X112250800Y-43072240D03*
X113050800Y-43072240D03*
X113850800Y-43072240D03*
D13*
X106950800Y-45022240D03*
X115150800Y-45022240D03*
%TD*%
D12*
%TO.C,J1*%
X135250800Y-43072240D03*
X136050800Y-43072240D03*
X136850800Y-43072240D03*
X137650800Y-43072240D03*
X138450800Y-43072240D03*
X139250800Y-43072240D03*
X140050800Y-43072240D03*
X140850800Y-43072240D03*
D13*
X133950800Y-45022240D03*
X142150800Y-45022240D03*
%TD*%
D12*
%TO.C,J1*%
X54250800Y-61072240D03*
X55050800Y-61072240D03*
X55850800Y-61072240D03*
X56650800Y-61072240D03*
X57450800Y-61072240D03*
X58250800Y-61072240D03*
X59050800Y-61072240D03*
X59850800Y-61072240D03*
D13*
X52950800Y-63022240D03*
X61150800Y-63022240D03*
%TD*%
M02*
