%TF.GenerationSoftware,KiCad,Pcbnew,(7.0.0)*%
%TF.CreationDate,2023-07-13T10:10:59-04:00*%
%TF.ProjectId,bracket-led-panel,62726163-6b65-4742-9d6c-65642d70616e,rev?*%
%TF.SameCoordinates,Original*%
%TF.FileFunction,Soldermask,Bot*%
%TF.FilePolarity,Negative*%
%FSLAX46Y46*%
G04 Gerber Fmt 4.6, Leading zero omitted, Abs format (unit mm)*
G04 Created by KiCad (PCBNEW (7.0.0)) date 2023-07-13 10:10:59*
%MOMM*%
%LPD*%
G01*
G04 APERTURE LIST*
%ADD10C,1.168400*%
G04 APERTURE END LIST*
D10*
%TO.C,H2*%
X148570000Y-54400000D03*
X146030000Y-54400000D03*
%TD*%
%TO.C,H2*%
X121570000Y-54400000D03*
X119030000Y-54400000D03*
%TD*%
%TO.C,H2*%
X148570000Y-45400000D03*
X146030000Y-45400000D03*
%TD*%
%TO.C,H2*%
X94570000Y-54400000D03*
X92030000Y-54400000D03*
%TD*%
%TO.C,H2*%
X94570000Y-45400000D03*
X92030000Y-45400000D03*
%TD*%
%TO.C,H2*%
X67570000Y-45400000D03*
X65030000Y-45400000D03*
%TD*%
%TO.C,H2*%
X121570000Y-45400000D03*
X119030000Y-45400000D03*
%TD*%
%TO.C,H2*%
X67570000Y-63400000D03*
X65030000Y-63400000D03*
%TD*%
%TO.C,H2*%
X121570000Y-63400000D03*
X119030000Y-63400000D03*
%TD*%
%TO.C,H2*%
X67570000Y-90400000D03*
X65030000Y-90400000D03*
%TD*%
%TO.C,H2*%
X94570000Y-90400000D03*
X92030000Y-90400000D03*
%TD*%
%TO.C,H2*%
X148570000Y-63400000D03*
X146030000Y-63400000D03*
%TD*%
%TO.C,H2*%
X94570000Y-63400000D03*
X92030000Y-63400000D03*
%TD*%
%TO.C,H2*%
X67570000Y-81400000D03*
X65030000Y-81400000D03*
%TD*%
%TO.C,H2*%
X148570000Y-90400000D03*
X146030000Y-90400000D03*
%TD*%
%TO.C,H2*%
X121570000Y-90400000D03*
X119030000Y-90400000D03*
%TD*%
%TO.C,H2*%
X67570000Y-72400000D03*
X65030000Y-72400000D03*
%TD*%
%TO.C,H2*%
X121570000Y-72400000D03*
X119030000Y-72400000D03*
%TD*%
%TO.C,H2*%
X121570000Y-81400000D03*
X119030000Y-81400000D03*
%TD*%
%TO.C,H2*%
X148570000Y-72400000D03*
X146030000Y-72400000D03*
%TD*%
%TO.C,H2*%
X67570000Y-54400000D03*
X65030000Y-54400000D03*
%TD*%
%TO.C,H2*%
X94570000Y-72400000D03*
X92030000Y-72400000D03*
%TD*%
%TO.C,H2*%
X94570000Y-81400000D03*
X92030000Y-81400000D03*
%TD*%
%TO.C,H2*%
X148570000Y-81400000D03*
X146030000Y-81400000D03*
%TD*%
%TO.C,H1*%
X153570000Y-45400000D03*
X151030000Y-45400000D03*
%TD*%
%TO.C,H1*%
X153570000Y-54400000D03*
X151030000Y-54400000D03*
%TD*%
%TO.C,H1*%
X99570000Y-45400000D03*
X97030000Y-45400000D03*
%TD*%
%TO.C,H1*%
X72570000Y-45400000D03*
X70030000Y-45400000D03*
%TD*%
%TO.C,H1*%
X126570000Y-45400000D03*
X124030000Y-45400000D03*
%TD*%
%TO.C,H1*%
X72570000Y-63400000D03*
X70030000Y-63400000D03*
%TD*%
%TO.C,H1*%
X153570000Y-72400000D03*
X151030000Y-72400000D03*
%TD*%
%TO.C,H1*%
X153570000Y-63400000D03*
X151030000Y-63400000D03*
%TD*%
%TO.C,H1*%
X72570000Y-81400000D03*
X70030000Y-81400000D03*
%TD*%
%TO.C,H1*%
X72570000Y-90400000D03*
X70030000Y-90400000D03*
%TD*%
%TO.C,H1*%
X153570000Y-90400000D03*
X151030000Y-90400000D03*
%TD*%
%TO.C,H1*%
X72570000Y-72400000D03*
X70030000Y-72400000D03*
%TD*%
%TO.C,H1*%
X72570000Y-54400000D03*
X70030000Y-54400000D03*
%TD*%
%TO.C,H1*%
X99570000Y-63400000D03*
X97030000Y-63400000D03*
%TD*%
%TO.C,H1*%
X126570000Y-54400000D03*
X124030000Y-54400000D03*
%TD*%
%TO.C,H1*%
X126570000Y-63400000D03*
X124030000Y-63400000D03*
%TD*%
%TO.C,H1*%
X126570000Y-81400000D03*
X124030000Y-81400000D03*
%TD*%
%TO.C,H1*%
X99570000Y-90400000D03*
X97030000Y-90400000D03*
%TD*%
%TO.C,H1*%
X126570000Y-90400000D03*
X124030000Y-90400000D03*
%TD*%
%TO.C,H1*%
X99570000Y-72400000D03*
X97030000Y-72400000D03*
%TD*%
%TO.C,H1*%
X99570000Y-54400000D03*
X97030000Y-54400000D03*
%TD*%
%TO.C,H1*%
X153570000Y-81400000D03*
X151030000Y-81400000D03*
%TD*%
%TO.C,H1*%
X99570000Y-81400000D03*
X97030000Y-81400000D03*
%TD*%
%TO.C,H1*%
X126570000Y-72400000D03*
X124030000Y-72400000D03*
%TD*%
M02*
