M48
; DRILL file {KiCad (7.0.0)} date Thu Jul 13 10:05:50 2023
; FORMAT={-:-/ absolute / inch / decimal}
; #@! TF.CreationDate,2023-07-13T10:05:50-04:00
; #@! TF.GenerationSoftware,Kicad,Pcbnew,(7.0.0)
; #@! TF.FileFunction,NonPlated,1,2,NPTH
FMAT,2
INCH
; #@! TA.AperFunction,NonPlated,NPTH,ComponentDrill
T1C0.0460
%
G90
G05
T1
X2.5602Y-1.7874
X2.5602Y-2.1417
X2.5602Y-2.4961
X2.5602Y-2.8504
X2.5602Y-3.2047
X2.5602Y-3.5591
X2.6602Y-1.7874
X2.6602Y-2.1417
X2.6602Y-2.4961
X2.6602Y-2.8504
X2.6602Y-3.2047
X2.6602Y-3.5591
X2.7571Y-1.7874
X2.7571Y-2.1417
X2.7571Y-2.4961
X2.7571Y-2.8504
X2.7571Y-3.2047
X2.7571Y-3.5591
X2.8571Y-1.7874
X2.8571Y-2.1417
X2.8571Y-2.4961
X2.8571Y-2.8504
X2.8571Y-3.2047
X2.8571Y-3.5591
X3.6232Y-1.7874
X3.6232Y-2.1417
X3.6232Y-2.4961
X3.6232Y-2.8504
X3.6232Y-3.2047
X3.6232Y-3.5591
X3.7232Y-1.7874
X3.7232Y-2.1417
X3.7232Y-2.4961
X3.7232Y-2.8504
X3.7232Y-3.2047
X3.7232Y-3.5591
X3.8201Y-1.7874
X3.8201Y-2.1417
X3.8201Y-2.4961
X3.8201Y-2.8504
X3.8201Y-3.2047
X3.8201Y-3.5591
X3.9201Y-1.7874
X3.9201Y-2.1417
X3.9201Y-2.4961
X3.9201Y-2.8504
X3.9201Y-3.2047
X3.9201Y-3.5591
X4.6862Y-1.7874
X4.6862Y-2.1417
X4.6862Y-2.4961
X4.6862Y-2.8504
X4.6862Y-3.2047
X4.6862Y-3.5591
X4.7862Y-1.7874
X4.7862Y-2.1417
X4.7862Y-2.4961
X4.7862Y-2.8504
X4.7862Y-3.2047
X4.7862Y-3.5591
X4.8831Y-1.7874
X4.8831Y-2.1417
X4.8831Y-2.4961
X4.8831Y-2.8504
X4.8831Y-3.2047
X4.8831Y-3.5591
X4.9831Y-1.7874
X4.9831Y-2.1417
X4.9831Y-2.4961
X4.9831Y-2.8504
X4.9831Y-3.2047
X4.9831Y-3.5591
X5.7492Y-1.7874
X5.7492Y-2.1417
X5.7492Y-2.4961
X5.7492Y-2.8504
X5.7492Y-3.2047
X5.7492Y-3.5591
X5.8492Y-1.7874
X5.8492Y-2.1417
X5.8492Y-2.4961
X5.8492Y-2.8504
X5.8492Y-3.2047
X5.8492Y-3.5591
X5.9461Y-1.7874
X5.9461Y-2.1417
X5.9461Y-2.4961
X5.9461Y-2.8504
X5.9461Y-3.2047
X5.9461Y-3.5591
X6.0461Y-1.7874
X6.0461Y-2.1417
X6.0461Y-2.4961
X6.0461Y-2.8504
X6.0461Y-3.2047
X6.0461Y-3.5591
T0
M30
