M48
; DRILL file {KiCad (7.0.0)} date Thu Jul 13 10:10:52 2023
; FORMAT={-:-/ absolute / inch / decimal}
; #@! TF.CreationDate,2023-07-13T10:10:52-04:00
; #@! TF.GenerationSoftware,Kicad,Pcbnew,(7.0.0)
; #@! TF.FileFunction,Plated,1,2,PTH
FMAT,2
INCH
; #@! TA.AperFunction,Plated,PTH,ViaDrill
T1C0.0157
%
G90
G05
T1
X2.0739Y-1.869
X2.0739Y-2.2233
X2.0739Y-2.5776
X2.0739Y-2.932
X2.0739Y-3.2863
X2.0739Y-3.6406
X2.0768Y-1.6259
X2.0768Y-1.9802
X2.0768Y-2.3345
X2.0768Y-2.6889
X2.0768Y-3.0432
X2.0768Y-3.3975
X2.1693Y-1.7677
X2.1693Y-2.122
X2.1693Y-2.4764
X2.1693Y-2.8307
X2.1693Y-3.185
X2.1693Y-3.5394
X2.25Y-1.8749
X2.25Y-2.2292
X2.25Y-2.5836
X2.25Y-2.9379
X2.25Y-3.2922
X2.25Y-3.6465
X2.2933Y-1.7686
X2.2933Y-2.1229
X2.2933Y-2.4773
X2.2933Y-2.8316
X2.2933Y-3.1859
X2.2933Y-3.5402
X2.3583Y-1.748
X2.3583Y-2.1024
X2.3583Y-2.4567
X2.3583Y-2.811
X2.3583Y-3.1654
X2.3583Y-3.5197
X2.4843Y-1.7087
X2.4843Y-1.7874
X2.4843Y-2.063
X2.4843Y-2.1417
X2.4843Y-2.4173
X2.4843Y-2.4961
X2.4843Y-2.7717
X2.4843Y-2.8504
X2.4843Y-3.126
X2.4843Y-3.2047
X2.4843Y-3.4803
X2.4843Y-3.5591
X2.7087Y-1.6111
X2.7087Y-1.9654
X2.7087Y-2.3198
X2.7087Y-2.6741
X2.7087Y-3.0284
X2.7087Y-3.3828
X2.9016Y-1.752
X2.9016Y-2.1063
X2.9016Y-2.4606
X2.9016Y-2.815
X2.9016Y-3.1693
X2.9016Y-3.5236
X3.0079Y-1.6298
X3.0079Y-1.9841
X3.0079Y-2.3385
X3.0079Y-2.6928
X3.0079Y-3.0471
X3.0079Y-3.4015
X3.0138Y-1.871
X3.0138Y-2.2253
X3.0138Y-2.5796
X3.0138Y-2.9339
X3.0138Y-3.2883
X3.0138Y-3.6426
X3.1368Y-1.869
X3.1368Y-2.2233
X3.1368Y-2.5776
X3.1368Y-2.932
X3.1368Y-3.2863
X3.1368Y-3.6406
X3.1398Y-1.6259
X3.1398Y-1.9802
X3.1398Y-2.3345
X3.1398Y-2.6889
X3.1398Y-3.0432
X3.1398Y-3.3975
X3.2323Y-1.7677
X3.2323Y-2.122
X3.2323Y-2.4764
X3.2323Y-2.8307
X3.2323Y-3.185
X3.2323Y-3.5394
X3.313Y-1.8749
X3.313Y-2.2292
X3.313Y-2.5836
X3.313Y-2.9379
X3.313Y-3.2922
X3.313Y-3.6465
X3.3563Y-1.7686
X3.3563Y-2.1229
X3.3563Y-2.4773
X3.3563Y-2.8316
X3.3563Y-3.1859
X3.3563Y-3.5402
X3.4213Y-1.748
X3.4213Y-2.1024
X3.4213Y-2.4567
X3.4213Y-2.811
X3.4213Y-3.1654
X3.4213Y-3.5197
X3.5472Y-1.7087
X3.5472Y-1.7874
X3.5472Y-2.063
X3.5472Y-2.1417
X3.5472Y-2.4173
X3.5472Y-2.4961
X3.5472Y-2.7717
X3.5472Y-2.8504
X3.5472Y-3.126
X3.5472Y-3.2047
X3.5472Y-3.4803
X3.5472Y-3.5591
X3.7717Y-1.6111
X3.7717Y-1.9654
X3.7717Y-2.3198
X3.7717Y-2.6741
X3.7717Y-3.0284
X3.7717Y-3.3828
X3.9646Y-1.752
X3.9646Y-2.1063
X3.9646Y-2.4606
X3.9646Y-2.815
X3.9646Y-3.1693
X3.9646Y-3.5236
X4.0709Y-1.6298
X4.0709Y-1.9841
X4.0709Y-2.3385
X4.0709Y-2.6928
X4.0709Y-3.0471
X4.0709Y-3.4015
X4.0768Y-1.871
X4.0768Y-2.2253
X4.0768Y-2.5796
X4.0768Y-2.9339
X4.0768Y-3.2883
X4.0768Y-3.6426
X4.1998Y-1.869
X4.1998Y-2.2233
X4.1998Y-2.5776
X4.1998Y-2.932
X4.1998Y-3.2863
X4.1998Y-3.6406
X4.2028Y-1.6259
X4.2028Y-1.9802
X4.2028Y-2.3345
X4.2028Y-2.6889
X4.2028Y-3.0432
X4.2028Y-3.3975
X4.2953Y-1.7677
X4.2953Y-2.122
X4.2953Y-2.4764
X4.2953Y-2.8307
X4.2953Y-3.185
X4.2953Y-3.5394
X4.376Y-1.8749
X4.376Y-2.2292
X4.376Y-2.5836
X4.376Y-2.9379
X4.376Y-3.2922
X4.376Y-3.6465
X4.4193Y-1.7686
X4.4193Y-2.1229
X4.4193Y-2.4773
X4.4193Y-2.8316
X4.4193Y-3.1859
X4.4193Y-3.5402
X4.4843Y-1.748
X4.4843Y-2.1024
X4.4843Y-2.4567
X4.4843Y-2.811
X4.4843Y-3.1654
X4.4843Y-3.5197
X4.6102Y-1.7087
X4.6102Y-1.7874
X4.6102Y-2.063
X4.6102Y-2.1417
X4.6102Y-2.4173
X4.6102Y-2.4961
X4.6102Y-2.7717
X4.6102Y-2.8504
X4.6102Y-3.126
X4.6102Y-3.2047
X4.6102Y-3.4803
X4.6102Y-3.5591
X4.8346Y-1.6111
X4.8346Y-1.9654
X4.8346Y-2.3198
X4.8346Y-2.6741
X4.8346Y-3.0284
X4.8346Y-3.3828
X5.0276Y-1.752
X5.0276Y-2.1063
X5.0276Y-2.4606
X5.0276Y-2.815
X5.0276Y-3.1693
X5.0276Y-3.5236
X5.1339Y-1.6298
X5.1339Y-1.9841
X5.1339Y-2.3385
X5.1339Y-2.6928
X5.1339Y-3.0471
X5.1339Y-3.4015
X5.1398Y-1.871
X5.1398Y-2.2253
X5.1398Y-2.5796
X5.1398Y-2.9339
X5.1398Y-3.2883
X5.1398Y-3.6426
X5.2628Y-1.869
X5.2628Y-2.2233
X5.2628Y-2.5776
X5.2628Y-2.932
X5.2628Y-3.2863
X5.2628Y-3.6406
X5.2658Y-1.6259
X5.2658Y-1.9802
X5.2658Y-2.3345
X5.2658Y-2.6889
X5.2658Y-3.0432
X5.2658Y-3.3975
X5.3583Y-1.7677
X5.3583Y-2.122
X5.3583Y-2.4764
X5.3583Y-2.8307
X5.3583Y-3.185
X5.3583Y-3.5394
X5.439Y-1.8749
X5.439Y-2.2292
X5.439Y-2.5836
X5.439Y-2.9379
X5.439Y-3.2922
X5.439Y-3.6465
X5.4823Y-1.7686
X5.4823Y-2.1229
X5.4823Y-2.4773
X5.4823Y-2.8316
X5.4823Y-3.1859
X5.4823Y-3.5402
X5.5472Y-1.748
X5.5472Y-2.1024
X5.5472Y-2.4567
X5.5472Y-2.811
X5.5472Y-3.1654
X5.5472Y-3.5197
X5.6732Y-1.7087
X5.6732Y-1.7874
X5.6732Y-2.063
X5.6732Y-2.1417
X5.6732Y-2.4173
X5.6732Y-2.4961
X5.6732Y-2.7717
X5.6732Y-2.8504
X5.6732Y-3.126
X5.6732Y-3.2047
X5.6732Y-3.4803
X5.6732Y-3.5591
X5.8976Y-1.6111
X5.8976Y-1.9654
X5.8976Y-2.3198
X5.8976Y-2.6741
X5.8976Y-3.0284
X5.8976Y-3.3828
X6.0906Y-1.752
X6.0906Y-2.1063
X6.0906Y-2.4606
X6.0906Y-2.815
X6.0906Y-3.1693
X6.0906Y-3.5236
X6.1969Y-1.6298
X6.1969Y-1.9841
X6.1969Y-2.3385
X6.1969Y-2.6928
X6.1969Y-3.0471
X6.1969Y-3.4015
X6.2028Y-1.871
X6.2028Y-2.2253
X6.2028Y-2.5796
X6.2028Y-2.9339
X6.2028Y-3.2883
X6.2028Y-3.6426
T0
M30
