%TF.GenerationSoftware,KiCad,Pcbnew,(7.0.0)*%
%TF.CreationDate,2023-04-04T10:04:00-04:00*%
%TF.ProjectId,bracket-led,62726163-6b65-4742-9d6c-65642e6b6963,A*%
%TF.SameCoordinates,Original*%
%TF.FileFunction,Component,L1,Top*%
%TF.FilePolarity,Positive*%
%FSLAX46Y46*%
G04 Gerber Fmt 4.6, Leading zero omitted, Abs format (unit mm)*
G04 Created by KiCad (PCBNEW (7.0.0)) date 2023-04-04 10:04:00*
%MOMM*%
%LPD*%
G01*
G04 APERTURE LIST*
%TA.AperFunction,ComponentMain*%
%ADD10C,0.300000*%
%TD*%
%TA.AperFunction,ComponentOutline,Courtyard*%
%ADD11C,0.100000*%
%TD*%
%TA.AperFunction,ComponentPin*%
%ADD12C,0.000000*%
%TD*%
%TA.AperFunction,ComponentPin*%
%ADD13P,0.360000X4X0.000000*%
%TD*%
G04 APERTURE END LIST*
D10*
%TO.C,"H2"*%
%TO.CFtp,"BIVAR_SLP3-150-100-R"*%
%TO.CVal,"SLP3-150-100-R"*%
%TO.CLbN,"Open Ephys"*%
%TO.CMnt,SMD*%
%TO.CRot,180*%
X255249200Y-170677760D03*
D11*
X257509799Y-171820759D02*
X252988601Y-171820759D01*
X252988601Y-169763361D01*
X257509799Y-169763361D01*
X257509799Y-171820759D01*
X257509799Y-166207359D02*
X252988601Y-166207359D01*
X252988601Y-165470761D01*
X257509799Y-165470761D01*
X257509799Y-166207359D01*
D12*
%TO.P,"H2",*%
X256519200Y-170677760D03*
X253979200Y-170677760D03*
%TD*%
D10*
%TO.C,"H1"*%
%TO.CFtp,"BIVAR_SLP3-150-100-R"*%
%TO.CVal,"SLP3-150-100-R"*%
%TO.CLbN,"Open Ephys"*%
%TO.CMnt,SMD*%
%TO.CRot,180*%
X260249200Y-170677760D03*
D11*
X262509799Y-171820759D02*
X257988601Y-171820759D01*
X257988601Y-169763361D01*
X262509799Y-169763361D01*
X262509799Y-171820759D01*
X262509799Y-166207359D02*
X257988601Y-166207359D01*
X257988601Y-165470761D01*
X262509799Y-165470761D01*
X262509799Y-166207359D01*
D12*
%TO.P,"H1",*%
X261519200Y-170677760D03*
X258979200Y-170677760D03*
%TD*%
D10*
%TO.C,"D2"*%
%TO.CFtp,"EVERLIGHT_6-SMD-1.6x1.6"*%
%TO.CVal,"LED_RGB"*%
%TO.CLbN,"Open Ephys"*%
%TO.CMnt,SMD*%
%TO.CRot,180*%
X260249200Y-167977760D03*
D11*
X261499199Y-169177759D02*
X258999201Y-169177759D01*
X258999201Y-166777761D01*
X261499199Y-166777761D01*
X261499199Y-169177759D01*
D13*
%TO.P,"D2","1","BA"*%
X259574200Y-168702760D03*
D12*
%TO.P,"D2","2","BK"*%
X260924200Y-168702760D03*
%TO.P,"D2","3","RA"*%
X259499200Y-167977760D03*
%TO.P,"D2","4","RK"*%
X260999200Y-167977760D03*
%TO.P,"D2","5","GA"*%
X259574200Y-167252760D03*
%TO.P,"D2","6","GK"*%
X260924200Y-167252760D03*
%TD*%
D10*
%TO.C,"D1"*%
%TO.CFtp,"EVERLIGHT_6-SMD-1.6x1.6"*%
%TO.CVal,"LED_RGB"*%
%TO.CLbN,"Open Ephys"*%
%TO.CMnt,SMD*%
%TO.CRot,180*%
X255249200Y-167977760D03*
D11*
X256499199Y-169177759D02*
X253999201Y-169177759D01*
X253999201Y-166777761D01*
X256499199Y-166777761D01*
X256499199Y-169177759D01*
D13*
%TO.P,"D1","1","BA"*%
X254574200Y-168702760D03*
D12*
%TO.P,"D1","2","BK"*%
X255924200Y-168702760D03*
%TO.P,"D1","3","RA"*%
X254499200Y-167977760D03*
%TO.P,"D1","4","RK"*%
X255999200Y-167977760D03*
%TO.P,"D1","5","GA"*%
X254574200Y-167252760D03*
%TO.P,"D1","6","GK"*%
X255924200Y-167252760D03*
%TD*%
D10*
%TO.C,"J1"*%
%TO.CFtp,"JST_SM08B-SURS-TF(LF)(SN)"*%
%TO.CVal,"SM08B-SURS-TF(LF)(SN)"*%
%TO.CLbN,"Open Ephys"*%
%TO.CMnt,SMD*%
%TO.CRot,0*%
X246000000Y-169500000D03*
D11*
X251199999Y-171649999D02*
X240800001Y-171649999D01*
X240800001Y-167350001D01*
X251199999Y-167350001D01*
X251199999Y-171649999D01*
D13*
%TO.P,"J1","1","Pin_1"*%
X243200000Y-168350000D03*
D12*
%TO.P,"J1","2","Pin_2"*%
X244000000Y-168350000D03*
%TO.P,"J1","3","Pin_3"*%
X244800000Y-168350000D03*
%TO.P,"J1","4","Pin_4"*%
X245600000Y-168350000D03*
%TO.P,"J1","5","Pin_5"*%
X246400000Y-168350000D03*
%TO.P,"J1","6","Pin_6"*%
X247200000Y-168350000D03*
%TO.P,"J1","7","Pin_7"*%
X248000000Y-168350000D03*
%TO.P,"J1","8","Pin_8"*%
X248800000Y-168350000D03*
%TO.P,"J1","MP"*%
X241900000Y-170300000D03*
X250100000Y-170300000D03*
%TD*%
D10*
%TO.C,"H2"*%
%TO.CFtp,"BIVAR_SLP3-150-100-R"*%
%TO.CVal,"SLP3-150-100-R"*%
%TO.CLbN,"Open Ephys"*%
%TO.CMnt,SMD*%
%TO.CRot,180*%
X228249200Y-170677760D03*
D11*
X230509799Y-171820759D02*
X225988601Y-171820759D01*
X225988601Y-169763361D01*
X230509799Y-169763361D01*
X230509799Y-171820759D01*
X230509799Y-166207359D02*
X225988601Y-166207359D01*
X225988601Y-165470761D01*
X230509799Y-165470761D01*
X230509799Y-166207359D01*
D12*
%TO.P,"H2",*%
X229519200Y-170677760D03*
X226979200Y-170677760D03*
%TD*%
D10*
%TO.C,"H1"*%
%TO.CFtp,"BIVAR_SLP3-150-100-R"*%
%TO.CVal,"SLP3-150-100-R"*%
%TO.CLbN,"Open Ephys"*%
%TO.CMnt,SMD*%
%TO.CRot,180*%
X233249200Y-170677760D03*
D11*
X235509799Y-171820759D02*
X230988601Y-171820759D01*
X230988601Y-169763361D01*
X235509799Y-169763361D01*
X235509799Y-171820759D01*
X235509799Y-166207359D02*
X230988601Y-166207359D01*
X230988601Y-165470761D01*
X235509799Y-165470761D01*
X235509799Y-166207359D01*
D12*
%TO.P,"H1",*%
X234519200Y-170677760D03*
X231979200Y-170677760D03*
%TD*%
D10*
%TO.C,"D2"*%
%TO.CFtp,"EVERLIGHT_6-SMD-1.6x1.6"*%
%TO.CVal,"LED_RGB"*%
%TO.CLbN,"Open Ephys"*%
%TO.CMnt,SMD*%
%TO.CRot,180*%
X233249200Y-167977760D03*
D11*
X234499199Y-169177759D02*
X231999201Y-169177759D01*
X231999201Y-166777761D01*
X234499199Y-166777761D01*
X234499199Y-169177759D01*
D13*
%TO.P,"D2","1","BA"*%
X232574200Y-168702760D03*
D12*
%TO.P,"D2","2","BK"*%
X233924200Y-168702760D03*
%TO.P,"D2","3","RA"*%
X232499200Y-167977760D03*
%TO.P,"D2","4","RK"*%
X233999200Y-167977760D03*
%TO.P,"D2","5","GA"*%
X232574200Y-167252760D03*
%TO.P,"D2","6","GK"*%
X233924200Y-167252760D03*
%TD*%
D10*
%TO.C,"D1"*%
%TO.CFtp,"EVERLIGHT_6-SMD-1.6x1.6"*%
%TO.CVal,"LED_RGB"*%
%TO.CLbN,"Open Ephys"*%
%TO.CMnt,SMD*%
%TO.CRot,180*%
X228249200Y-167977760D03*
D11*
X229499199Y-169177759D02*
X226999201Y-169177759D01*
X226999201Y-166777761D01*
X229499199Y-166777761D01*
X229499199Y-169177759D01*
D13*
%TO.P,"D1","1","BA"*%
X227574200Y-168702760D03*
D12*
%TO.P,"D1","2","BK"*%
X228924200Y-168702760D03*
%TO.P,"D1","3","RA"*%
X227499200Y-167977760D03*
%TO.P,"D1","4","RK"*%
X228999200Y-167977760D03*
%TO.P,"D1","5","GA"*%
X227574200Y-167252760D03*
%TO.P,"D1","6","GK"*%
X228924200Y-167252760D03*
%TD*%
D10*
%TO.C,"J1"*%
%TO.CFtp,"JST_SM08B-SURS-TF(LF)(SN)"*%
%TO.CVal,"SM08B-SURS-TF(LF)(SN)"*%
%TO.CLbN,"Open Ephys"*%
%TO.CMnt,SMD*%
%TO.CRot,0*%
X219000000Y-169500000D03*
D11*
X224199999Y-171649999D02*
X213800001Y-171649999D01*
X213800001Y-167350001D01*
X224199999Y-167350001D01*
X224199999Y-171649999D01*
D13*
%TO.P,"J1","1","Pin_1"*%
X216200000Y-168350000D03*
D12*
%TO.P,"J1","2","Pin_2"*%
X217000000Y-168350000D03*
%TO.P,"J1","3","Pin_3"*%
X217800000Y-168350000D03*
%TO.P,"J1","4","Pin_4"*%
X218600000Y-168350000D03*
%TO.P,"J1","5","Pin_5"*%
X219400000Y-168350000D03*
%TO.P,"J1","6","Pin_6"*%
X220200000Y-168350000D03*
%TO.P,"J1","7","Pin_7"*%
X221000000Y-168350000D03*
%TO.P,"J1","8","Pin_8"*%
X221800000Y-168350000D03*
%TO.P,"J1","MP"*%
X214900000Y-170300000D03*
X223100000Y-170300000D03*
%TD*%
D10*
%TO.C,"H2"*%
%TO.CFtp,"BIVAR_SLP3-150-100-R"*%
%TO.CVal,"SLP3-150-100-R"*%
%TO.CLbN,"Open Ephys"*%
%TO.CMnt,SMD*%
%TO.CRot,180*%
X201449200Y-170677760D03*
D11*
X203709799Y-171820759D02*
X199188601Y-171820759D01*
X199188601Y-169763361D01*
X203709799Y-169763361D01*
X203709799Y-171820759D01*
X203709799Y-166207359D02*
X199188601Y-166207359D01*
X199188601Y-165470761D01*
X203709799Y-165470761D01*
X203709799Y-166207359D01*
D12*
%TO.P,"H2",*%
X202719200Y-170677760D03*
X200179200Y-170677760D03*
%TD*%
D10*
%TO.C,"H1"*%
%TO.CFtp,"BIVAR_SLP3-150-100-R"*%
%TO.CVal,"SLP3-150-100-R"*%
%TO.CLbN,"Open Ephys"*%
%TO.CMnt,SMD*%
%TO.CRot,180*%
X206449200Y-170677760D03*
D11*
X208709799Y-171820759D02*
X204188601Y-171820759D01*
X204188601Y-169763361D01*
X208709799Y-169763361D01*
X208709799Y-171820759D01*
X208709799Y-166207359D02*
X204188601Y-166207359D01*
X204188601Y-165470761D01*
X208709799Y-165470761D01*
X208709799Y-166207359D01*
D12*
%TO.P,"H1",*%
X207719200Y-170677760D03*
X205179200Y-170677760D03*
%TD*%
D10*
%TO.C,"D2"*%
%TO.CFtp,"EVERLIGHT_6-SMD-1.6x1.6"*%
%TO.CVal,"LED_RGB"*%
%TO.CLbN,"Open Ephys"*%
%TO.CMnt,SMD*%
%TO.CRot,180*%
X206449200Y-167977760D03*
D11*
X207699199Y-169177759D02*
X205199201Y-169177759D01*
X205199201Y-166777761D01*
X207699199Y-166777761D01*
X207699199Y-169177759D01*
D13*
%TO.P,"D2","1","BA"*%
X205774200Y-168702760D03*
D12*
%TO.P,"D2","2","BK"*%
X207124200Y-168702760D03*
%TO.P,"D2","3","RA"*%
X205699200Y-167977760D03*
%TO.P,"D2","4","RK"*%
X207199200Y-167977760D03*
%TO.P,"D2","5","GA"*%
X205774200Y-167252760D03*
%TO.P,"D2","6","GK"*%
X207124200Y-167252760D03*
%TD*%
D10*
%TO.C,"D1"*%
%TO.CFtp,"EVERLIGHT_6-SMD-1.6x1.6"*%
%TO.CVal,"LED_RGB"*%
%TO.CLbN,"Open Ephys"*%
%TO.CMnt,SMD*%
%TO.CRot,180*%
X201449200Y-167977760D03*
D11*
X202699199Y-169177759D02*
X200199201Y-169177759D01*
X200199201Y-166777761D01*
X202699199Y-166777761D01*
X202699199Y-169177759D01*
D13*
%TO.P,"D1","1","BA"*%
X200774200Y-168702760D03*
D12*
%TO.P,"D1","2","BK"*%
X202124200Y-168702760D03*
%TO.P,"D1","3","RA"*%
X200699200Y-167977760D03*
%TO.P,"D1","4","RK"*%
X202199200Y-167977760D03*
%TO.P,"D1","5","GA"*%
X200774200Y-167252760D03*
%TO.P,"D1","6","GK"*%
X202124200Y-167252760D03*
%TD*%
D10*
%TO.C,"J1"*%
%TO.CFtp,"JST_SM08B-SURS-TF(LF)(SN)"*%
%TO.CVal,"SM08B-SURS-TF(LF)(SN)"*%
%TO.CLbN,"Open Ephys"*%
%TO.CMnt,SMD*%
%TO.CRot,0*%
X192200000Y-169500000D03*
D11*
X197399999Y-171649999D02*
X187000001Y-171649999D01*
X187000001Y-167350001D01*
X197399999Y-167350001D01*
X197399999Y-171649999D01*
D13*
%TO.P,"J1","1","Pin_1"*%
X189400000Y-168350000D03*
D12*
%TO.P,"J1","2","Pin_2"*%
X190200000Y-168350000D03*
%TO.P,"J1","3","Pin_3"*%
X191000000Y-168350000D03*
%TO.P,"J1","4","Pin_4"*%
X191800000Y-168350000D03*
%TO.P,"J1","5","Pin_5"*%
X192600000Y-168350000D03*
%TO.P,"J1","6","Pin_6"*%
X193400000Y-168350000D03*
%TO.P,"J1","7","Pin_7"*%
X194200000Y-168350000D03*
%TO.P,"J1","8","Pin_8"*%
X195000000Y-168350000D03*
%TO.P,"J1","MP"*%
X188100000Y-170300000D03*
X196300000Y-170300000D03*
%TD*%
D10*
%TO.C,"H2"*%
%TO.CFtp,"BIVAR_SLP3-150-100-R"*%
%TO.CVal,"SLP3-150-100-R"*%
%TO.CLbN,"Open Ephys"*%
%TO.CMnt,SMD*%
%TO.CRot,180*%
X174249200Y-170677760D03*
D11*
X176509799Y-171820759D02*
X171988601Y-171820759D01*
X171988601Y-169763361D01*
X176509799Y-169763361D01*
X176509799Y-171820759D01*
X176509799Y-166207359D02*
X171988601Y-166207359D01*
X171988601Y-165470761D01*
X176509799Y-165470761D01*
X176509799Y-166207359D01*
D12*
%TO.P,"H2",*%
X175519200Y-170677760D03*
X172979200Y-170677760D03*
%TD*%
D10*
%TO.C,"H1"*%
%TO.CFtp,"BIVAR_SLP3-150-100-R"*%
%TO.CVal,"SLP3-150-100-R"*%
%TO.CLbN,"Open Ephys"*%
%TO.CMnt,SMD*%
%TO.CRot,180*%
X179249200Y-170677760D03*
D11*
X181509799Y-171820759D02*
X176988601Y-171820759D01*
X176988601Y-169763361D01*
X181509799Y-169763361D01*
X181509799Y-171820759D01*
X181509799Y-166207359D02*
X176988601Y-166207359D01*
X176988601Y-165470761D01*
X181509799Y-165470761D01*
X181509799Y-166207359D01*
D12*
%TO.P,"H1",*%
X180519200Y-170677760D03*
X177979200Y-170677760D03*
%TD*%
D10*
%TO.C,"D2"*%
%TO.CFtp,"EVERLIGHT_6-SMD-1.6x1.6"*%
%TO.CVal,"LED_RGB"*%
%TO.CLbN,"Open Ephys"*%
%TO.CMnt,SMD*%
%TO.CRot,180*%
X179249200Y-167977760D03*
D11*
X180499199Y-169177759D02*
X177999201Y-169177759D01*
X177999201Y-166777761D01*
X180499199Y-166777761D01*
X180499199Y-169177759D01*
D13*
%TO.P,"D2","1","BA"*%
X178574200Y-168702760D03*
D12*
%TO.P,"D2","2","BK"*%
X179924200Y-168702760D03*
%TO.P,"D2","3","RA"*%
X178499200Y-167977760D03*
%TO.P,"D2","4","RK"*%
X179999200Y-167977760D03*
%TO.P,"D2","5","GA"*%
X178574200Y-167252760D03*
%TO.P,"D2","6","GK"*%
X179924200Y-167252760D03*
%TD*%
D10*
%TO.C,"D1"*%
%TO.CFtp,"EVERLIGHT_6-SMD-1.6x1.6"*%
%TO.CVal,"LED_RGB"*%
%TO.CLbN,"Open Ephys"*%
%TO.CMnt,SMD*%
%TO.CRot,180*%
X174249200Y-167977760D03*
D11*
X175499199Y-169177759D02*
X172999201Y-169177759D01*
X172999201Y-166777761D01*
X175499199Y-166777761D01*
X175499199Y-169177759D01*
D13*
%TO.P,"D1","1","BA"*%
X173574200Y-168702760D03*
D12*
%TO.P,"D1","2","BK"*%
X174924200Y-168702760D03*
%TO.P,"D1","3","RA"*%
X173499200Y-167977760D03*
%TO.P,"D1","4","RK"*%
X174999200Y-167977760D03*
%TO.P,"D1","5","GA"*%
X173574200Y-167252760D03*
%TO.P,"D1","6","GK"*%
X174924200Y-167252760D03*
%TD*%
D10*
%TO.C,"J1"*%
%TO.CFtp,"JST_SM08B-SURS-TF(LF)(SN)"*%
%TO.CVal,"SM08B-SURS-TF(LF)(SN)"*%
%TO.CLbN,"Open Ephys"*%
%TO.CMnt,SMD*%
%TO.CRot,0*%
X165000000Y-169500000D03*
D11*
X170199999Y-171649999D02*
X159800001Y-171649999D01*
X159800001Y-167350001D01*
X170199999Y-167350001D01*
X170199999Y-171649999D01*
D13*
%TO.P,"J1","1","Pin_1"*%
X162200000Y-168350000D03*
D12*
%TO.P,"J1","2","Pin_2"*%
X163000000Y-168350000D03*
%TO.P,"J1","3","Pin_3"*%
X163800000Y-168350000D03*
%TO.P,"J1","4","Pin_4"*%
X164600000Y-168350000D03*
%TO.P,"J1","5","Pin_5"*%
X165400000Y-168350000D03*
%TO.P,"J1","6","Pin_6"*%
X166200000Y-168350000D03*
%TO.P,"J1","7","Pin_7"*%
X167000000Y-168350000D03*
%TO.P,"J1","8","Pin_8"*%
X167800000Y-168350000D03*
%TO.P,"J1","MP"*%
X160900000Y-170300000D03*
X169100000Y-170300000D03*
%TD*%
D10*
%TO.C,"H2"*%
%TO.CFtp,"BIVAR_SLP3-150-100-R"*%
%TO.CVal,"SLP3-150-100-R"*%
%TO.CLbN,"Open Ephys"*%
%TO.CMnt,SMD*%
%TO.CRot,180*%
X255249200Y-161677760D03*
D11*
X257509799Y-162820759D02*
X252988601Y-162820759D01*
X252988601Y-160763361D01*
X257509799Y-160763361D01*
X257509799Y-162820759D01*
X257509799Y-157207359D02*
X252988601Y-157207359D01*
X252988601Y-156470761D01*
X257509799Y-156470761D01*
X257509799Y-157207359D01*
D12*
%TO.P,"H2",*%
X256519200Y-161677760D03*
X253979200Y-161677760D03*
%TD*%
D10*
%TO.C,"H1"*%
%TO.CFtp,"BIVAR_SLP3-150-100-R"*%
%TO.CVal,"SLP3-150-100-R"*%
%TO.CLbN,"Open Ephys"*%
%TO.CMnt,SMD*%
%TO.CRot,180*%
X260249200Y-161677760D03*
D11*
X262509799Y-162820759D02*
X257988601Y-162820759D01*
X257988601Y-160763361D01*
X262509799Y-160763361D01*
X262509799Y-162820759D01*
X262509799Y-157207359D02*
X257988601Y-157207359D01*
X257988601Y-156470761D01*
X262509799Y-156470761D01*
X262509799Y-157207359D01*
D12*
%TO.P,"H1",*%
X261519200Y-161677760D03*
X258979200Y-161677760D03*
%TD*%
D10*
%TO.C,"D2"*%
%TO.CFtp,"EVERLIGHT_6-SMD-1.6x1.6"*%
%TO.CVal,"LED_RGB"*%
%TO.CLbN,"Open Ephys"*%
%TO.CMnt,SMD*%
%TO.CRot,180*%
X260249200Y-158977760D03*
D11*
X261499199Y-160177759D02*
X258999201Y-160177759D01*
X258999201Y-157777761D01*
X261499199Y-157777761D01*
X261499199Y-160177759D01*
D13*
%TO.P,"D2","1","BA"*%
X259574200Y-159702760D03*
D12*
%TO.P,"D2","2","BK"*%
X260924200Y-159702760D03*
%TO.P,"D2","3","RA"*%
X259499200Y-158977760D03*
%TO.P,"D2","4","RK"*%
X260999200Y-158977760D03*
%TO.P,"D2","5","GA"*%
X259574200Y-158252760D03*
%TO.P,"D2","6","GK"*%
X260924200Y-158252760D03*
%TD*%
D10*
%TO.C,"D1"*%
%TO.CFtp,"EVERLIGHT_6-SMD-1.6x1.6"*%
%TO.CVal,"LED_RGB"*%
%TO.CLbN,"Open Ephys"*%
%TO.CMnt,SMD*%
%TO.CRot,180*%
X255249200Y-158977760D03*
D11*
X256499199Y-160177759D02*
X253999201Y-160177759D01*
X253999201Y-157777761D01*
X256499199Y-157777761D01*
X256499199Y-160177759D01*
D13*
%TO.P,"D1","1","BA"*%
X254574200Y-159702760D03*
D12*
%TO.P,"D1","2","BK"*%
X255924200Y-159702760D03*
%TO.P,"D1","3","RA"*%
X254499200Y-158977760D03*
%TO.P,"D1","4","RK"*%
X255999200Y-158977760D03*
%TO.P,"D1","5","GA"*%
X254574200Y-158252760D03*
%TO.P,"D1","6","GK"*%
X255924200Y-158252760D03*
%TD*%
D10*
%TO.C,"J1"*%
%TO.CFtp,"JST_SM08B-SURS-TF(LF)(SN)"*%
%TO.CVal,"SM08B-SURS-TF(LF)(SN)"*%
%TO.CLbN,"Open Ephys"*%
%TO.CMnt,SMD*%
%TO.CRot,0*%
X246000000Y-160500000D03*
D11*
X251199999Y-162649999D02*
X240800001Y-162649999D01*
X240800001Y-158350001D01*
X251199999Y-158350001D01*
X251199999Y-162649999D01*
D13*
%TO.P,"J1","1","Pin_1"*%
X243200000Y-159350000D03*
D12*
%TO.P,"J1","2","Pin_2"*%
X244000000Y-159350000D03*
%TO.P,"J1","3","Pin_3"*%
X244800000Y-159350000D03*
%TO.P,"J1","4","Pin_4"*%
X245600000Y-159350000D03*
%TO.P,"J1","5","Pin_5"*%
X246400000Y-159350000D03*
%TO.P,"J1","6","Pin_6"*%
X247200000Y-159350000D03*
%TO.P,"J1","7","Pin_7"*%
X248000000Y-159350000D03*
%TO.P,"J1","8","Pin_8"*%
X248800000Y-159350000D03*
%TO.P,"J1","MP"*%
X241900000Y-161300000D03*
X250100000Y-161300000D03*
%TD*%
D10*
%TO.C,"H2"*%
%TO.CFtp,"BIVAR_SLP3-150-100-R"*%
%TO.CVal,"SLP3-150-100-R"*%
%TO.CLbN,"Open Ephys"*%
%TO.CMnt,SMD*%
%TO.CRot,180*%
X228249200Y-161677760D03*
D11*
X230509799Y-162820759D02*
X225988601Y-162820759D01*
X225988601Y-160763361D01*
X230509799Y-160763361D01*
X230509799Y-162820759D01*
X230509799Y-157207359D02*
X225988601Y-157207359D01*
X225988601Y-156470761D01*
X230509799Y-156470761D01*
X230509799Y-157207359D01*
D12*
%TO.P,"H2",*%
X229519200Y-161677760D03*
X226979200Y-161677760D03*
%TD*%
D10*
%TO.C,"H1"*%
%TO.CFtp,"BIVAR_SLP3-150-100-R"*%
%TO.CVal,"SLP3-150-100-R"*%
%TO.CLbN,"Open Ephys"*%
%TO.CMnt,SMD*%
%TO.CRot,180*%
X233249200Y-161677760D03*
D11*
X235509799Y-162820759D02*
X230988601Y-162820759D01*
X230988601Y-160763361D01*
X235509799Y-160763361D01*
X235509799Y-162820759D01*
X235509799Y-157207359D02*
X230988601Y-157207359D01*
X230988601Y-156470761D01*
X235509799Y-156470761D01*
X235509799Y-157207359D01*
D12*
%TO.P,"H1",*%
X234519200Y-161677760D03*
X231979200Y-161677760D03*
%TD*%
D10*
%TO.C,"D2"*%
%TO.CFtp,"EVERLIGHT_6-SMD-1.6x1.6"*%
%TO.CVal,"LED_RGB"*%
%TO.CLbN,"Open Ephys"*%
%TO.CMnt,SMD*%
%TO.CRot,180*%
X233249200Y-158977760D03*
D11*
X234499199Y-160177759D02*
X231999201Y-160177759D01*
X231999201Y-157777761D01*
X234499199Y-157777761D01*
X234499199Y-160177759D01*
D13*
%TO.P,"D2","1","BA"*%
X232574200Y-159702760D03*
D12*
%TO.P,"D2","2","BK"*%
X233924200Y-159702760D03*
%TO.P,"D2","3","RA"*%
X232499200Y-158977760D03*
%TO.P,"D2","4","RK"*%
X233999200Y-158977760D03*
%TO.P,"D2","5","GA"*%
X232574200Y-158252760D03*
%TO.P,"D2","6","GK"*%
X233924200Y-158252760D03*
%TD*%
D10*
%TO.C,"D1"*%
%TO.CFtp,"EVERLIGHT_6-SMD-1.6x1.6"*%
%TO.CVal,"LED_RGB"*%
%TO.CLbN,"Open Ephys"*%
%TO.CMnt,SMD*%
%TO.CRot,180*%
X228249200Y-158977760D03*
D11*
X229499199Y-160177759D02*
X226999201Y-160177759D01*
X226999201Y-157777761D01*
X229499199Y-157777761D01*
X229499199Y-160177759D01*
D13*
%TO.P,"D1","1","BA"*%
X227574200Y-159702760D03*
D12*
%TO.P,"D1","2","BK"*%
X228924200Y-159702760D03*
%TO.P,"D1","3","RA"*%
X227499200Y-158977760D03*
%TO.P,"D1","4","RK"*%
X228999200Y-158977760D03*
%TO.P,"D1","5","GA"*%
X227574200Y-158252760D03*
%TO.P,"D1","6","GK"*%
X228924200Y-158252760D03*
%TD*%
D10*
%TO.C,"J1"*%
%TO.CFtp,"JST_SM08B-SURS-TF(LF)(SN)"*%
%TO.CVal,"SM08B-SURS-TF(LF)(SN)"*%
%TO.CLbN,"Open Ephys"*%
%TO.CMnt,SMD*%
%TO.CRot,0*%
X219000000Y-160500000D03*
D11*
X224199999Y-162649999D02*
X213800001Y-162649999D01*
X213800001Y-158350001D01*
X224199999Y-158350001D01*
X224199999Y-162649999D01*
D13*
%TO.P,"J1","1","Pin_1"*%
X216200000Y-159350000D03*
D12*
%TO.P,"J1","2","Pin_2"*%
X217000000Y-159350000D03*
%TO.P,"J1","3","Pin_3"*%
X217800000Y-159350000D03*
%TO.P,"J1","4","Pin_4"*%
X218600000Y-159350000D03*
%TO.P,"J1","5","Pin_5"*%
X219400000Y-159350000D03*
%TO.P,"J1","6","Pin_6"*%
X220200000Y-159350000D03*
%TO.P,"J1","7","Pin_7"*%
X221000000Y-159350000D03*
%TO.P,"J1","8","Pin_8"*%
X221800000Y-159350000D03*
%TO.P,"J1","MP"*%
X214900000Y-161300000D03*
X223100000Y-161300000D03*
%TD*%
D10*
%TO.C,"H2"*%
%TO.CFtp,"BIVAR_SLP3-150-100-R"*%
%TO.CVal,"SLP3-150-100-R"*%
%TO.CLbN,"Open Ephys"*%
%TO.CMnt,SMD*%
%TO.CRot,180*%
X201449200Y-161677760D03*
D11*
X203709799Y-162820759D02*
X199188601Y-162820759D01*
X199188601Y-160763361D01*
X203709799Y-160763361D01*
X203709799Y-162820759D01*
X203709799Y-157207359D02*
X199188601Y-157207359D01*
X199188601Y-156470761D01*
X203709799Y-156470761D01*
X203709799Y-157207359D01*
D12*
%TO.P,"H2",*%
X202719200Y-161677760D03*
X200179200Y-161677760D03*
%TD*%
D10*
%TO.C,"H1"*%
%TO.CFtp,"BIVAR_SLP3-150-100-R"*%
%TO.CVal,"SLP3-150-100-R"*%
%TO.CLbN,"Open Ephys"*%
%TO.CMnt,SMD*%
%TO.CRot,180*%
X206449200Y-161677760D03*
D11*
X208709799Y-162820759D02*
X204188601Y-162820759D01*
X204188601Y-160763361D01*
X208709799Y-160763361D01*
X208709799Y-162820759D01*
X208709799Y-157207359D02*
X204188601Y-157207359D01*
X204188601Y-156470761D01*
X208709799Y-156470761D01*
X208709799Y-157207359D01*
D12*
%TO.P,"H1",*%
X207719200Y-161677760D03*
X205179200Y-161677760D03*
%TD*%
D10*
%TO.C,"D2"*%
%TO.CFtp,"EVERLIGHT_6-SMD-1.6x1.6"*%
%TO.CVal,"LED_RGB"*%
%TO.CLbN,"Open Ephys"*%
%TO.CMnt,SMD*%
%TO.CRot,180*%
X206449200Y-158977760D03*
D11*
X207699199Y-160177759D02*
X205199201Y-160177759D01*
X205199201Y-157777761D01*
X207699199Y-157777761D01*
X207699199Y-160177759D01*
D13*
%TO.P,"D2","1","BA"*%
X205774200Y-159702760D03*
D12*
%TO.P,"D2","2","BK"*%
X207124200Y-159702760D03*
%TO.P,"D2","3","RA"*%
X205699200Y-158977760D03*
%TO.P,"D2","4","RK"*%
X207199200Y-158977760D03*
%TO.P,"D2","5","GA"*%
X205774200Y-158252760D03*
%TO.P,"D2","6","GK"*%
X207124200Y-158252760D03*
%TD*%
D10*
%TO.C,"D1"*%
%TO.CFtp,"EVERLIGHT_6-SMD-1.6x1.6"*%
%TO.CVal,"LED_RGB"*%
%TO.CLbN,"Open Ephys"*%
%TO.CMnt,SMD*%
%TO.CRot,180*%
X201449200Y-158977760D03*
D11*
X202699199Y-160177759D02*
X200199201Y-160177759D01*
X200199201Y-157777761D01*
X202699199Y-157777761D01*
X202699199Y-160177759D01*
D13*
%TO.P,"D1","1","BA"*%
X200774200Y-159702760D03*
D12*
%TO.P,"D1","2","BK"*%
X202124200Y-159702760D03*
%TO.P,"D1","3","RA"*%
X200699200Y-158977760D03*
%TO.P,"D1","4","RK"*%
X202199200Y-158977760D03*
%TO.P,"D1","5","GA"*%
X200774200Y-158252760D03*
%TO.P,"D1","6","GK"*%
X202124200Y-158252760D03*
%TD*%
D10*
%TO.C,"J1"*%
%TO.CFtp,"JST_SM08B-SURS-TF(LF)(SN)"*%
%TO.CVal,"SM08B-SURS-TF(LF)(SN)"*%
%TO.CLbN,"Open Ephys"*%
%TO.CMnt,SMD*%
%TO.CRot,0*%
X192200000Y-160500000D03*
D11*
X197399999Y-162649999D02*
X187000001Y-162649999D01*
X187000001Y-158350001D01*
X197399999Y-158350001D01*
X197399999Y-162649999D01*
D13*
%TO.P,"J1","1","Pin_1"*%
X189400000Y-159350000D03*
D12*
%TO.P,"J1","2","Pin_2"*%
X190200000Y-159350000D03*
%TO.P,"J1","3","Pin_3"*%
X191000000Y-159350000D03*
%TO.P,"J1","4","Pin_4"*%
X191800000Y-159350000D03*
%TO.P,"J1","5","Pin_5"*%
X192600000Y-159350000D03*
%TO.P,"J1","6","Pin_6"*%
X193400000Y-159350000D03*
%TO.P,"J1","7","Pin_7"*%
X194200000Y-159350000D03*
%TO.P,"J1","8","Pin_8"*%
X195000000Y-159350000D03*
%TO.P,"J1","MP"*%
X188100000Y-161300000D03*
X196300000Y-161300000D03*
%TD*%
D10*
%TO.C,"H2"*%
%TO.CFtp,"BIVAR_SLP3-150-100-R"*%
%TO.CVal,"SLP3-150-100-R"*%
%TO.CLbN,"Open Ephys"*%
%TO.CMnt,SMD*%
%TO.CRot,180*%
X174249200Y-161677760D03*
D11*
X176509799Y-162820759D02*
X171988601Y-162820759D01*
X171988601Y-160763361D01*
X176509799Y-160763361D01*
X176509799Y-162820759D01*
X176509799Y-157207359D02*
X171988601Y-157207359D01*
X171988601Y-156470761D01*
X176509799Y-156470761D01*
X176509799Y-157207359D01*
D12*
%TO.P,"H2",*%
X175519200Y-161677760D03*
X172979200Y-161677760D03*
%TD*%
D10*
%TO.C,"H1"*%
%TO.CFtp,"BIVAR_SLP3-150-100-R"*%
%TO.CVal,"SLP3-150-100-R"*%
%TO.CLbN,"Open Ephys"*%
%TO.CMnt,SMD*%
%TO.CRot,180*%
X179249200Y-161677760D03*
D11*
X181509799Y-162820759D02*
X176988601Y-162820759D01*
X176988601Y-160763361D01*
X181509799Y-160763361D01*
X181509799Y-162820759D01*
X181509799Y-157207359D02*
X176988601Y-157207359D01*
X176988601Y-156470761D01*
X181509799Y-156470761D01*
X181509799Y-157207359D01*
D12*
%TO.P,"H1",*%
X180519200Y-161677760D03*
X177979200Y-161677760D03*
%TD*%
D10*
%TO.C,"D2"*%
%TO.CFtp,"EVERLIGHT_6-SMD-1.6x1.6"*%
%TO.CVal,"LED_RGB"*%
%TO.CLbN,"Open Ephys"*%
%TO.CMnt,SMD*%
%TO.CRot,180*%
X179249200Y-158977760D03*
D11*
X180499199Y-160177759D02*
X177999201Y-160177759D01*
X177999201Y-157777761D01*
X180499199Y-157777761D01*
X180499199Y-160177759D01*
D13*
%TO.P,"D2","1","BA"*%
X178574200Y-159702760D03*
D12*
%TO.P,"D2","2","BK"*%
X179924200Y-159702760D03*
%TO.P,"D2","3","RA"*%
X178499200Y-158977760D03*
%TO.P,"D2","4","RK"*%
X179999200Y-158977760D03*
%TO.P,"D2","5","GA"*%
X178574200Y-158252760D03*
%TO.P,"D2","6","GK"*%
X179924200Y-158252760D03*
%TD*%
D10*
%TO.C,"D1"*%
%TO.CFtp,"EVERLIGHT_6-SMD-1.6x1.6"*%
%TO.CVal,"LED_RGB"*%
%TO.CLbN,"Open Ephys"*%
%TO.CMnt,SMD*%
%TO.CRot,180*%
X174249200Y-158977760D03*
D11*
X175499199Y-160177759D02*
X172999201Y-160177759D01*
X172999201Y-157777761D01*
X175499199Y-157777761D01*
X175499199Y-160177759D01*
D13*
%TO.P,"D1","1","BA"*%
X173574200Y-159702760D03*
D12*
%TO.P,"D1","2","BK"*%
X174924200Y-159702760D03*
%TO.P,"D1","3","RA"*%
X173499200Y-158977760D03*
%TO.P,"D1","4","RK"*%
X174999200Y-158977760D03*
%TO.P,"D1","5","GA"*%
X173574200Y-158252760D03*
%TO.P,"D1","6","GK"*%
X174924200Y-158252760D03*
%TD*%
D10*
%TO.C,"J1"*%
%TO.CFtp,"JST_SM08B-SURS-TF(LF)(SN)"*%
%TO.CVal,"SM08B-SURS-TF(LF)(SN)"*%
%TO.CLbN,"Open Ephys"*%
%TO.CMnt,SMD*%
%TO.CRot,0*%
X165000000Y-160500000D03*
D11*
X170199999Y-162649999D02*
X159800001Y-162649999D01*
X159800001Y-158350001D01*
X170199999Y-158350001D01*
X170199999Y-162649999D01*
D13*
%TO.P,"J1","1","Pin_1"*%
X162200000Y-159350000D03*
D12*
%TO.P,"J1","2","Pin_2"*%
X163000000Y-159350000D03*
%TO.P,"J1","3","Pin_3"*%
X163800000Y-159350000D03*
%TO.P,"J1","4","Pin_4"*%
X164600000Y-159350000D03*
%TO.P,"J1","5","Pin_5"*%
X165400000Y-159350000D03*
%TO.P,"J1","6","Pin_6"*%
X166200000Y-159350000D03*
%TO.P,"J1","7","Pin_7"*%
X167000000Y-159350000D03*
%TO.P,"J1","8","Pin_8"*%
X167800000Y-159350000D03*
%TO.P,"J1","MP"*%
X160900000Y-161300000D03*
X169100000Y-161300000D03*
%TD*%
D10*
%TO.C,"H2"*%
%TO.CFtp,"BIVAR_SLP3-150-100-R"*%
%TO.CVal,"SLP3-150-100-R"*%
%TO.CLbN,"Open Ephys"*%
%TO.CMnt,SMD*%
%TO.CRot,180*%
X255249200Y-152677760D03*
D11*
X257509799Y-153820759D02*
X252988601Y-153820759D01*
X252988601Y-151763361D01*
X257509799Y-151763361D01*
X257509799Y-153820759D01*
X257509799Y-148207359D02*
X252988601Y-148207359D01*
X252988601Y-147470761D01*
X257509799Y-147470761D01*
X257509799Y-148207359D01*
D12*
%TO.P,"H2",*%
X256519200Y-152677760D03*
X253979200Y-152677760D03*
%TD*%
D10*
%TO.C,"H1"*%
%TO.CFtp,"BIVAR_SLP3-150-100-R"*%
%TO.CVal,"SLP3-150-100-R"*%
%TO.CLbN,"Open Ephys"*%
%TO.CMnt,SMD*%
%TO.CRot,180*%
X260249200Y-152677760D03*
D11*
X262509799Y-153820759D02*
X257988601Y-153820759D01*
X257988601Y-151763361D01*
X262509799Y-151763361D01*
X262509799Y-153820759D01*
X262509799Y-148207359D02*
X257988601Y-148207359D01*
X257988601Y-147470761D01*
X262509799Y-147470761D01*
X262509799Y-148207359D01*
D12*
%TO.P,"H1",*%
X261519200Y-152677760D03*
X258979200Y-152677760D03*
%TD*%
D10*
%TO.C,"D2"*%
%TO.CFtp,"EVERLIGHT_6-SMD-1.6x1.6"*%
%TO.CVal,"LED_RGB"*%
%TO.CLbN,"Open Ephys"*%
%TO.CMnt,SMD*%
%TO.CRot,180*%
X260249200Y-149977760D03*
D11*
X261499199Y-151177759D02*
X258999201Y-151177759D01*
X258999201Y-148777761D01*
X261499199Y-148777761D01*
X261499199Y-151177759D01*
D13*
%TO.P,"D2","1","BA"*%
X259574200Y-150702760D03*
D12*
%TO.P,"D2","2","BK"*%
X260924200Y-150702760D03*
%TO.P,"D2","3","RA"*%
X259499200Y-149977760D03*
%TO.P,"D2","4","RK"*%
X260999200Y-149977760D03*
%TO.P,"D2","5","GA"*%
X259574200Y-149252760D03*
%TO.P,"D2","6","GK"*%
X260924200Y-149252760D03*
%TD*%
D10*
%TO.C,"D1"*%
%TO.CFtp,"EVERLIGHT_6-SMD-1.6x1.6"*%
%TO.CVal,"LED_RGB"*%
%TO.CLbN,"Open Ephys"*%
%TO.CMnt,SMD*%
%TO.CRot,180*%
X255249200Y-149977760D03*
D11*
X256499199Y-151177759D02*
X253999201Y-151177759D01*
X253999201Y-148777761D01*
X256499199Y-148777761D01*
X256499199Y-151177759D01*
D13*
%TO.P,"D1","1","BA"*%
X254574200Y-150702760D03*
D12*
%TO.P,"D1","2","BK"*%
X255924200Y-150702760D03*
%TO.P,"D1","3","RA"*%
X254499200Y-149977760D03*
%TO.P,"D1","4","RK"*%
X255999200Y-149977760D03*
%TO.P,"D1","5","GA"*%
X254574200Y-149252760D03*
%TO.P,"D1","6","GK"*%
X255924200Y-149252760D03*
%TD*%
D10*
%TO.C,"J1"*%
%TO.CFtp,"JST_SM08B-SURS-TF(LF)(SN)"*%
%TO.CVal,"SM08B-SURS-TF(LF)(SN)"*%
%TO.CLbN,"Open Ephys"*%
%TO.CMnt,SMD*%
%TO.CRot,0*%
X246000000Y-151500000D03*
D11*
X251199999Y-153649999D02*
X240800001Y-153649999D01*
X240800001Y-149350001D01*
X251199999Y-149350001D01*
X251199999Y-153649999D01*
D13*
%TO.P,"J1","1","Pin_1"*%
X243200000Y-150350000D03*
D12*
%TO.P,"J1","2","Pin_2"*%
X244000000Y-150350000D03*
%TO.P,"J1","3","Pin_3"*%
X244800000Y-150350000D03*
%TO.P,"J1","4","Pin_4"*%
X245600000Y-150350000D03*
%TO.P,"J1","5","Pin_5"*%
X246400000Y-150350000D03*
%TO.P,"J1","6","Pin_6"*%
X247200000Y-150350000D03*
%TO.P,"J1","7","Pin_7"*%
X248000000Y-150350000D03*
%TO.P,"J1","8","Pin_8"*%
X248800000Y-150350000D03*
%TO.P,"J1","MP"*%
X241900000Y-152300000D03*
X250100000Y-152300000D03*
%TD*%
D10*
%TO.C,"H2"*%
%TO.CFtp,"BIVAR_SLP3-150-100-R"*%
%TO.CVal,"SLP3-150-100-R"*%
%TO.CLbN,"Open Ephys"*%
%TO.CMnt,SMD*%
%TO.CRot,180*%
X228249200Y-152677760D03*
D11*
X230509799Y-153820759D02*
X225988601Y-153820759D01*
X225988601Y-151763361D01*
X230509799Y-151763361D01*
X230509799Y-153820759D01*
X230509799Y-148207359D02*
X225988601Y-148207359D01*
X225988601Y-147470761D01*
X230509799Y-147470761D01*
X230509799Y-148207359D01*
D12*
%TO.P,"H2",*%
X229519200Y-152677760D03*
X226979200Y-152677760D03*
%TD*%
D10*
%TO.C,"H1"*%
%TO.CFtp,"BIVAR_SLP3-150-100-R"*%
%TO.CVal,"SLP3-150-100-R"*%
%TO.CLbN,"Open Ephys"*%
%TO.CMnt,SMD*%
%TO.CRot,180*%
X233249200Y-152677760D03*
D11*
X235509799Y-153820759D02*
X230988601Y-153820759D01*
X230988601Y-151763361D01*
X235509799Y-151763361D01*
X235509799Y-153820759D01*
X235509799Y-148207359D02*
X230988601Y-148207359D01*
X230988601Y-147470761D01*
X235509799Y-147470761D01*
X235509799Y-148207359D01*
D12*
%TO.P,"H1",*%
X234519200Y-152677760D03*
X231979200Y-152677760D03*
%TD*%
D10*
%TO.C,"D2"*%
%TO.CFtp,"EVERLIGHT_6-SMD-1.6x1.6"*%
%TO.CVal,"LED_RGB"*%
%TO.CLbN,"Open Ephys"*%
%TO.CMnt,SMD*%
%TO.CRot,180*%
X233249200Y-149977760D03*
D11*
X234499199Y-151177759D02*
X231999201Y-151177759D01*
X231999201Y-148777761D01*
X234499199Y-148777761D01*
X234499199Y-151177759D01*
D13*
%TO.P,"D2","1","BA"*%
X232574200Y-150702760D03*
D12*
%TO.P,"D2","2","BK"*%
X233924200Y-150702760D03*
%TO.P,"D2","3","RA"*%
X232499200Y-149977760D03*
%TO.P,"D2","4","RK"*%
X233999200Y-149977760D03*
%TO.P,"D2","5","GA"*%
X232574200Y-149252760D03*
%TO.P,"D2","6","GK"*%
X233924200Y-149252760D03*
%TD*%
D10*
%TO.C,"D1"*%
%TO.CFtp,"EVERLIGHT_6-SMD-1.6x1.6"*%
%TO.CVal,"LED_RGB"*%
%TO.CLbN,"Open Ephys"*%
%TO.CMnt,SMD*%
%TO.CRot,180*%
X228249200Y-149977760D03*
D11*
X229499199Y-151177759D02*
X226999201Y-151177759D01*
X226999201Y-148777761D01*
X229499199Y-148777761D01*
X229499199Y-151177759D01*
D13*
%TO.P,"D1","1","BA"*%
X227574200Y-150702760D03*
D12*
%TO.P,"D1","2","BK"*%
X228924200Y-150702760D03*
%TO.P,"D1","3","RA"*%
X227499200Y-149977760D03*
%TO.P,"D1","4","RK"*%
X228999200Y-149977760D03*
%TO.P,"D1","5","GA"*%
X227574200Y-149252760D03*
%TO.P,"D1","6","GK"*%
X228924200Y-149252760D03*
%TD*%
D10*
%TO.C,"J1"*%
%TO.CFtp,"JST_SM08B-SURS-TF(LF)(SN)"*%
%TO.CVal,"SM08B-SURS-TF(LF)(SN)"*%
%TO.CLbN,"Open Ephys"*%
%TO.CMnt,SMD*%
%TO.CRot,0*%
X219000000Y-151500000D03*
D11*
X224199999Y-153649999D02*
X213800001Y-153649999D01*
X213800001Y-149350001D01*
X224199999Y-149350001D01*
X224199999Y-153649999D01*
D13*
%TO.P,"J1","1","Pin_1"*%
X216200000Y-150350000D03*
D12*
%TO.P,"J1","2","Pin_2"*%
X217000000Y-150350000D03*
%TO.P,"J1","3","Pin_3"*%
X217800000Y-150350000D03*
%TO.P,"J1","4","Pin_4"*%
X218600000Y-150350000D03*
%TO.P,"J1","5","Pin_5"*%
X219400000Y-150350000D03*
%TO.P,"J1","6","Pin_6"*%
X220200000Y-150350000D03*
%TO.P,"J1","7","Pin_7"*%
X221000000Y-150350000D03*
%TO.P,"J1","8","Pin_8"*%
X221800000Y-150350000D03*
%TO.P,"J1","MP"*%
X214900000Y-152300000D03*
X223100000Y-152300000D03*
%TD*%
D10*
%TO.C,"H2"*%
%TO.CFtp,"BIVAR_SLP3-150-100-R"*%
%TO.CVal,"SLP3-150-100-R"*%
%TO.CLbN,"Open Ephys"*%
%TO.CMnt,SMD*%
%TO.CRot,180*%
X201449200Y-152677760D03*
D11*
X203709799Y-153820759D02*
X199188601Y-153820759D01*
X199188601Y-151763361D01*
X203709799Y-151763361D01*
X203709799Y-153820759D01*
X203709799Y-148207359D02*
X199188601Y-148207359D01*
X199188601Y-147470761D01*
X203709799Y-147470761D01*
X203709799Y-148207359D01*
D12*
%TO.P,"H2",*%
X202719200Y-152677760D03*
X200179200Y-152677760D03*
%TD*%
D10*
%TO.C,"H1"*%
%TO.CFtp,"BIVAR_SLP3-150-100-R"*%
%TO.CVal,"SLP3-150-100-R"*%
%TO.CLbN,"Open Ephys"*%
%TO.CMnt,SMD*%
%TO.CRot,180*%
X206449200Y-152677760D03*
D11*
X208709799Y-153820759D02*
X204188601Y-153820759D01*
X204188601Y-151763361D01*
X208709799Y-151763361D01*
X208709799Y-153820759D01*
X208709799Y-148207359D02*
X204188601Y-148207359D01*
X204188601Y-147470761D01*
X208709799Y-147470761D01*
X208709799Y-148207359D01*
D12*
%TO.P,"H1",*%
X207719200Y-152677760D03*
X205179200Y-152677760D03*
%TD*%
D10*
%TO.C,"D2"*%
%TO.CFtp,"EVERLIGHT_6-SMD-1.6x1.6"*%
%TO.CVal,"LED_RGB"*%
%TO.CLbN,"Open Ephys"*%
%TO.CMnt,SMD*%
%TO.CRot,180*%
X206449200Y-149977760D03*
D11*
X207699199Y-151177759D02*
X205199201Y-151177759D01*
X205199201Y-148777761D01*
X207699199Y-148777761D01*
X207699199Y-151177759D01*
D13*
%TO.P,"D2","1","BA"*%
X205774200Y-150702760D03*
D12*
%TO.P,"D2","2","BK"*%
X207124200Y-150702760D03*
%TO.P,"D2","3","RA"*%
X205699200Y-149977760D03*
%TO.P,"D2","4","RK"*%
X207199200Y-149977760D03*
%TO.P,"D2","5","GA"*%
X205774200Y-149252760D03*
%TO.P,"D2","6","GK"*%
X207124200Y-149252760D03*
%TD*%
D10*
%TO.C,"D1"*%
%TO.CFtp,"EVERLIGHT_6-SMD-1.6x1.6"*%
%TO.CVal,"LED_RGB"*%
%TO.CLbN,"Open Ephys"*%
%TO.CMnt,SMD*%
%TO.CRot,180*%
X201449200Y-149977760D03*
D11*
X202699199Y-151177759D02*
X200199201Y-151177759D01*
X200199201Y-148777761D01*
X202699199Y-148777761D01*
X202699199Y-151177759D01*
D13*
%TO.P,"D1","1","BA"*%
X200774200Y-150702760D03*
D12*
%TO.P,"D1","2","BK"*%
X202124200Y-150702760D03*
%TO.P,"D1","3","RA"*%
X200699200Y-149977760D03*
%TO.P,"D1","4","RK"*%
X202199200Y-149977760D03*
%TO.P,"D1","5","GA"*%
X200774200Y-149252760D03*
%TO.P,"D1","6","GK"*%
X202124200Y-149252760D03*
%TD*%
D10*
%TO.C,"J1"*%
%TO.CFtp,"JST_SM08B-SURS-TF(LF)(SN)"*%
%TO.CVal,"SM08B-SURS-TF(LF)(SN)"*%
%TO.CLbN,"Open Ephys"*%
%TO.CMnt,SMD*%
%TO.CRot,0*%
X192200000Y-151500000D03*
D11*
X197399999Y-153649999D02*
X187000001Y-153649999D01*
X187000001Y-149350001D01*
X197399999Y-149350001D01*
X197399999Y-153649999D01*
D13*
%TO.P,"J1","1","Pin_1"*%
X189400000Y-150350000D03*
D12*
%TO.P,"J1","2","Pin_2"*%
X190200000Y-150350000D03*
%TO.P,"J1","3","Pin_3"*%
X191000000Y-150350000D03*
%TO.P,"J1","4","Pin_4"*%
X191800000Y-150350000D03*
%TO.P,"J1","5","Pin_5"*%
X192600000Y-150350000D03*
%TO.P,"J1","6","Pin_6"*%
X193400000Y-150350000D03*
%TO.P,"J1","7","Pin_7"*%
X194200000Y-150350000D03*
%TO.P,"J1","8","Pin_8"*%
X195000000Y-150350000D03*
%TO.P,"J1","MP"*%
X188100000Y-152300000D03*
X196300000Y-152300000D03*
%TD*%
D10*
%TO.C,"H2"*%
%TO.CFtp,"BIVAR_SLP3-150-100-R"*%
%TO.CVal,"SLP3-150-100-R"*%
%TO.CLbN,"Open Ephys"*%
%TO.CMnt,SMD*%
%TO.CRot,180*%
X174249200Y-152677760D03*
D11*
X176509799Y-153820759D02*
X171988601Y-153820759D01*
X171988601Y-151763361D01*
X176509799Y-151763361D01*
X176509799Y-153820759D01*
X176509799Y-148207359D02*
X171988601Y-148207359D01*
X171988601Y-147470761D01*
X176509799Y-147470761D01*
X176509799Y-148207359D01*
D12*
%TO.P,"H2",*%
X175519200Y-152677760D03*
X172979200Y-152677760D03*
%TD*%
D10*
%TO.C,"H1"*%
%TO.CFtp,"BIVAR_SLP3-150-100-R"*%
%TO.CVal,"SLP3-150-100-R"*%
%TO.CLbN,"Open Ephys"*%
%TO.CMnt,SMD*%
%TO.CRot,180*%
X179249200Y-152677760D03*
D11*
X181509799Y-153820759D02*
X176988601Y-153820759D01*
X176988601Y-151763361D01*
X181509799Y-151763361D01*
X181509799Y-153820759D01*
X181509799Y-148207359D02*
X176988601Y-148207359D01*
X176988601Y-147470761D01*
X181509799Y-147470761D01*
X181509799Y-148207359D01*
D12*
%TO.P,"H1",*%
X180519200Y-152677760D03*
X177979200Y-152677760D03*
%TD*%
D10*
%TO.C,"D2"*%
%TO.CFtp,"EVERLIGHT_6-SMD-1.6x1.6"*%
%TO.CVal,"LED_RGB"*%
%TO.CLbN,"Open Ephys"*%
%TO.CMnt,SMD*%
%TO.CRot,180*%
X179249200Y-149977760D03*
D11*
X180499199Y-151177759D02*
X177999201Y-151177759D01*
X177999201Y-148777761D01*
X180499199Y-148777761D01*
X180499199Y-151177759D01*
D13*
%TO.P,"D2","1","BA"*%
X178574200Y-150702760D03*
D12*
%TO.P,"D2","2","BK"*%
X179924200Y-150702760D03*
%TO.P,"D2","3","RA"*%
X178499200Y-149977760D03*
%TO.P,"D2","4","RK"*%
X179999200Y-149977760D03*
%TO.P,"D2","5","GA"*%
X178574200Y-149252760D03*
%TO.P,"D2","6","GK"*%
X179924200Y-149252760D03*
%TD*%
D10*
%TO.C,"D1"*%
%TO.CFtp,"EVERLIGHT_6-SMD-1.6x1.6"*%
%TO.CVal,"LED_RGB"*%
%TO.CLbN,"Open Ephys"*%
%TO.CMnt,SMD*%
%TO.CRot,180*%
X174249200Y-149977760D03*
D11*
X175499199Y-151177759D02*
X172999201Y-151177759D01*
X172999201Y-148777761D01*
X175499199Y-148777761D01*
X175499199Y-151177759D01*
D13*
%TO.P,"D1","1","BA"*%
X173574200Y-150702760D03*
D12*
%TO.P,"D1","2","BK"*%
X174924200Y-150702760D03*
%TO.P,"D1","3","RA"*%
X173499200Y-149977760D03*
%TO.P,"D1","4","RK"*%
X174999200Y-149977760D03*
%TO.P,"D1","5","GA"*%
X173574200Y-149252760D03*
%TO.P,"D1","6","GK"*%
X174924200Y-149252760D03*
%TD*%
D10*
%TO.C,"J1"*%
%TO.CFtp,"JST_SM08B-SURS-TF(LF)(SN)"*%
%TO.CVal,"SM08B-SURS-TF(LF)(SN)"*%
%TO.CLbN,"Open Ephys"*%
%TO.CMnt,SMD*%
%TO.CRot,0*%
X165000000Y-151500000D03*
D11*
X170199999Y-153649999D02*
X159800001Y-153649999D01*
X159800001Y-149350001D01*
X170199999Y-149350001D01*
X170199999Y-153649999D01*
D13*
%TO.P,"J1","1","Pin_1"*%
X162200000Y-150350000D03*
D12*
%TO.P,"J1","2","Pin_2"*%
X163000000Y-150350000D03*
%TO.P,"J1","3","Pin_3"*%
X163800000Y-150350000D03*
%TO.P,"J1","4","Pin_4"*%
X164600000Y-150350000D03*
%TO.P,"J1","5","Pin_5"*%
X165400000Y-150350000D03*
%TO.P,"J1","6","Pin_6"*%
X166200000Y-150350000D03*
%TO.P,"J1","7","Pin_7"*%
X167000000Y-150350000D03*
%TO.P,"J1","8","Pin_8"*%
X167800000Y-150350000D03*
%TO.P,"J1","MP"*%
X160900000Y-152300000D03*
X169100000Y-152300000D03*
%TD*%
D10*
%TO.C,"H2"*%
%TO.CFtp,"BIVAR_SLP3-150-100-R"*%
%TO.CVal,"SLP3-150-100-R"*%
%TO.CLbN,"Open Ephys"*%
%TO.CMnt,SMD*%
%TO.CRot,180*%
X255249200Y-143677760D03*
D11*
X257509799Y-144820759D02*
X252988601Y-144820759D01*
X252988601Y-142763361D01*
X257509799Y-142763361D01*
X257509799Y-144820759D01*
X257509799Y-139207359D02*
X252988601Y-139207359D01*
X252988601Y-138470761D01*
X257509799Y-138470761D01*
X257509799Y-139207359D01*
D12*
%TO.P,"H2",*%
X256519200Y-143677760D03*
X253979200Y-143677760D03*
%TD*%
D10*
%TO.C,"H1"*%
%TO.CFtp,"BIVAR_SLP3-150-100-R"*%
%TO.CVal,"SLP3-150-100-R"*%
%TO.CLbN,"Open Ephys"*%
%TO.CMnt,SMD*%
%TO.CRot,180*%
X260249200Y-143677760D03*
D11*
X262509799Y-144820759D02*
X257988601Y-144820759D01*
X257988601Y-142763361D01*
X262509799Y-142763361D01*
X262509799Y-144820759D01*
X262509799Y-139207359D02*
X257988601Y-139207359D01*
X257988601Y-138470761D01*
X262509799Y-138470761D01*
X262509799Y-139207359D01*
D12*
%TO.P,"H1",*%
X261519200Y-143677760D03*
X258979200Y-143677760D03*
%TD*%
D10*
%TO.C,"D2"*%
%TO.CFtp,"EVERLIGHT_6-SMD-1.6x1.6"*%
%TO.CVal,"LED_RGB"*%
%TO.CLbN,"Open Ephys"*%
%TO.CMnt,SMD*%
%TO.CRot,180*%
X260249200Y-140977760D03*
D11*
X261499199Y-142177759D02*
X258999201Y-142177759D01*
X258999201Y-139777761D01*
X261499199Y-139777761D01*
X261499199Y-142177759D01*
D13*
%TO.P,"D2","1","BA"*%
X259574200Y-141702760D03*
D12*
%TO.P,"D2","2","BK"*%
X260924200Y-141702760D03*
%TO.P,"D2","3","RA"*%
X259499200Y-140977760D03*
%TO.P,"D2","4","RK"*%
X260999200Y-140977760D03*
%TO.P,"D2","5","GA"*%
X259574200Y-140252760D03*
%TO.P,"D2","6","GK"*%
X260924200Y-140252760D03*
%TD*%
D10*
%TO.C,"D1"*%
%TO.CFtp,"EVERLIGHT_6-SMD-1.6x1.6"*%
%TO.CVal,"LED_RGB"*%
%TO.CLbN,"Open Ephys"*%
%TO.CMnt,SMD*%
%TO.CRot,180*%
X255249200Y-140977760D03*
D11*
X256499199Y-142177759D02*
X253999201Y-142177759D01*
X253999201Y-139777761D01*
X256499199Y-139777761D01*
X256499199Y-142177759D01*
D13*
%TO.P,"D1","1","BA"*%
X254574200Y-141702760D03*
D12*
%TO.P,"D1","2","BK"*%
X255924200Y-141702760D03*
%TO.P,"D1","3","RA"*%
X254499200Y-140977760D03*
%TO.P,"D1","4","RK"*%
X255999200Y-140977760D03*
%TO.P,"D1","5","GA"*%
X254574200Y-140252760D03*
%TO.P,"D1","6","GK"*%
X255924200Y-140252760D03*
%TD*%
D10*
%TO.C,"J1"*%
%TO.CFtp,"JST_SM08B-SURS-TF(LF)(SN)"*%
%TO.CVal,"SM08B-SURS-TF(LF)(SN)"*%
%TO.CLbN,"Open Ephys"*%
%TO.CMnt,SMD*%
%TO.CRot,0*%
X246000000Y-142500000D03*
D11*
X251199999Y-144649999D02*
X240800001Y-144649999D01*
X240800001Y-140350001D01*
X251199999Y-140350001D01*
X251199999Y-144649999D01*
D13*
%TO.P,"J1","1","Pin_1"*%
X243200000Y-141350000D03*
D12*
%TO.P,"J1","2","Pin_2"*%
X244000000Y-141350000D03*
%TO.P,"J1","3","Pin_3"*%
X244800000Y-141350000D03*
%TO.P,"J1","4","Pin_4"*%
X245600000Y-141350000D03*
%TO.P,"J1","5","Pin_5"*%
X246400000Y-141350000D03*
%TO.P,"J1","6","Pin_6"*%
X247200000Y-141350000D03*
%TO.P,"J1","7","Pin_7"*%
X248000000Y-141350000D03*
%TO.P,"J1","8","Pin_8"*%
X248800000Y-141350000D03*
%TO.P,"J1","MP"*%
X241900000Y-143300000D03*
X250100000Y-143300000D03*
%TD*%
D10*
%TO.C,"H2"*%
%TO.CFtp,"BIVAR_SLP3-150-100-R"*%
%TO.CVal,"SLP3-150-100-R"*%
%TO.CLbN,"Open Ephys"*%
%TO.CMnt,SMD*%
%TO.CRot,180*%
X228249200Y-143677760D03*
D11*
X230509799Y-144820759D02*
X225988601Y-144820759D01*
X225988601Y-142763361D01*
X230509799Y-142763361D01*
X230509799Y-144820759D01*
X230509799Y-139207359D02*
X225988601Y-139207359D01*
X225988601Y-138470761D01*
X230509799Y-138470761D01*
X230509799Y-139207359D01*
D12*
%TO.P,"H2",*%
X229519200Y-143677760D03*
X226979200Y-143677760D03*
%TD*%
D10*
%TO.C,"H1"*%
%TO.CFtp,"BIVAR_SLP3-150-100-R"*%
%TO.CVal,"SLP3-150-100-R"*%
%TO.CLbN,"Open Ephys"*%
%TO.CMnt,SMD*%
%TO.CRot,180*%
X233249200Y-143677760D03*
D11*
X235509799Y-144820759D02*
X230988601Y-144820759D01*
X230988601Y-142763361D01*
X235509799Y-142763361D01*
X235509799Y-144820759D01*
X235509799Y-139207359D02*
X230988601Y-139207359D01*
X230988601Y-138470761D01*
X235509799Y-138470761D01*
X235509799Y-139207359D01*
D12*
%TO.P,"H1",*%
X234519200Y-143677760D03*
X231979200Y-143677760D03*
%TD*%
D10*
%TO.C,"D2"*%
%TO.CFtp,"EVERLIGHT_6-SMD-1.6x1.6"*%
%TO.CVal,"LED_RGB"*%
%TO.CLbN,"Open Ephys"*%
%TO.CMnt,SMD*%
%TO.CRot,180*%
X233249200Y-140977760D03*
D11*
X234499199Y-142177759D02*
X231999201Y-142177759D01*
X231999201Y-139777761D01*
X234499199Y-139777761D01*
X234499199Y-142177759D01*
D13*
%TO.P,"D2","1","BA"*%
X232574200Y-141702760D03*
D12*
%TO.P,"D2","2","BK"*%
X233924200Y-141702760D03*
%TO.P,"D2","3","RA"*%
X232499200Y-140977760D03*
%TO.P,"D2","4","RK"*%
X233999200Y-140977760D03*
%TO.P,"D2","5","GA"*%
X232574200Y-140252760D03*
%TO.P,"D2","6","GK"*%
X233924200Y-140252760D03*
%TD*%
D10*
%TO.C,"D1"*%
%TO.CFtp,"EVERLIGHT_6-SMD-1.6x1.6"*%
%TO.CVal,"LED_RGB"*%
%TO.CLbN,"Open Ephys"*%
%TO.CMnt,SMD*%
%TO.CRot,180*%
X228249200Y-140977760D03*
D11*
X229499199Y-142177759D02*
X226999201Y-142177759D01*
X226999201Y-139777761D01*
X229499199Y-139777761D01*
X229499199Y-142177759D01*
D13*
%TO.P,"D1","1","BA"*%
X227574200Y-141702760D03*
D12*
%TO.P,"D1","2","BK"*%
X228924200Y-141702760D03*
%TO.P,"D1","3","RA"*%
X227499200Y-140977760D03*
%TO.P,"D1","4","RK"*%
X228999200Y-140977760D03*
%TO.P,"D1","5","GA"*%
X227574200Y-140252760D03*
%TO.P,"D1","6","GK"*%
X228924200Y-140252760D03*
%TD*%
D10*
%TO.C,"J1"*%
%TO.CFtp,"JST_SM08B-SURS-TF(LF)(SN)"*%
%TO.CVal,"SM08B-SURS-TF(LF)(SN)"*%
%TO.CLbN,"Open Ephys"*%
%TO.CMnt,SMD*%
%TO.CRot,0*%
X219000000Y-142500000D03*
D11*
X224199999Y-144649999D02*
X213800001Y-144649999D01*
X213800001Y-140350001D01*
X224199999Y-140350001D01*
X224199999Y-144649999D01*
D13*
%TO.P,"J1","1","Pin_1"*%
X216200000Y-141350000D03*
D12*
%TO.P,"J1","2","Pin_2"*%
X217000000Y-141350000D03*
%TO.P,"J1","3","Pin_3"*%
X217800000Y-141350000D03*
%TO.P,"J1","4","Pin_4"*%
X218600000Y-141350000D03*
%TO.P,"J1","5","Pin_5"*%
X219400000Y-141350000D03*
%TO.P,"J1","6","Pin_6"*%
X220200000Y-141350000D03*
%TO.P,"J1","7","Pin_7"*%
X221000000Y-141350000D03*
%TO.P,"J1","8","Pin_8"*%
X221800000Y-141350000D03*
%TO.P,"J1","MP"*%
X214900000Y-143300000D03*
X223100000Y-143300000D03*
%TD*%
D10*
%TO.C,"H2"*%
%TO.CFtp,"BIVAR_SLP3-150-100-R"*%
%TO.CVal,"SLP3-150-100-R"*%
%TO.CLbN,"Open Ephys"*%
%TO.CMnt,SMD*%
%TO.CRot,180*%
X201249200Y-143677760D03*
D11*
X203509799Y-144820759D02*
X198988601Y-144820759D01*
X198988601Y-142763361D01*
X203509799Y-142763361D01*
X203509799Y-144820759D01*
X203509799Y-139207359D02*
X198988601Y-139207359D01*
X198988601Y-138470761D01*
X203509799Y-138470761D01*
X203509799Y-139207359D01*
D12*
%TO.P,"H2",*%
X202519200Y-143677760D03*
X199979200Y-143677760D03*
%TD*%
D10*
%TO.C,"H1"*%
%TO.CFtp,"BIVAR_SLP3-150-100-R"*%
%TO.CVal,"SLP3-150-100-R"*%
%TO.CLbN,"Open Ephys"*%
%TO.CMnt,SMD*%
%TO.CRot,180*%
X206249200Y-143677760D03*
D11*
X208509799Y-144820759D02*
X203988601Y-144820759D01*
X203988601Y-142763361D01*
X208509799Y-142763361D01*
X208509799Y-144820759D01*
X208509799Y-139207359D02*
X203988601Y-139207359D01*
X203988601Y-138470761D01*
X208509799Y-138470761D01*
X208509799Y-139207359D01*
D12*
%TO.P,"H1",*%
X207519200Y-143677760D03*
X204979200Y-143677760D03*
%TD*%
D10*
%TO.C,"D2"*%
%TO.CFtp,"EVERLIGHT_6-SMD-1.6x1.6"*%
%TO.CVal,"LED_RGB"*%
%TO.CLbN,"Open Ephys"*%
%TO.CMnt,SMD*%
%TO.CRot,180*%
X206249200Y-140977760D03*
D11*
X207499199Y-142177759D02*
X204999201Y-142177759D01*
X204999201Y-139777761D01*
X207499199Y-139777761D01*
X207499199Y-142177759D01*
D13*
%TO.P,"D2","1","BA"*%
X205574200Y-141702760D03*
D12*
%TO.P,"D2","2","BK"*%
X206924200Y-141702760D03*
%TO.P,"D2","3","RA"*%
X205499200Y-140977760D03*
%TO.P,"D2","4","RK"*%
X206999200Y-140977760D03*
%TO.P,"D2","5","GA"*%
X205574200Y-140252760D03*
%TO.P,"D2","6","GK"*%
X206924200Y-140252760D03*
%TD*%
D10*
%TO.C,"D1"*%
%TO.CFtp,"EVERLIGHT_6-SMD-1.6x1.6"*%
%TO.CVal,"LED_RGB"*%
%TO.CLbN,"Open Ephys"*%
%TO.CMnt,SMD*%
%TO.CRot,180*%
X201249200Y-140977760D03*
D11*
X202499199Y-142177759D02*
X199999201Y-142177759D01*
X199999201Y-139777761D01*
X202499199Y-139777761D01*
X202499199Y-142177759D01*
D13*
%TO.P,"D1","1","BA"*%
X200574200Y-141702760D03*
D12*
%TO.P,"D1","2","BK"*%
X201924200Y-141702760D03*
%TO.P,"D1","3","RA"*%
X200499200Y-140977760D03*
%TO.P,"D1","4","RK"*%
X201999200Y-140977760D03*
%TO.P,"D1","5","GA"*%
X200574200Y-140252760D03*
%TO.P,"D1","6","GK"*%
X201924200Y-140252760D03*
%TD*%
D10*
%TO.C,"J1"*%
%TO.CFtp,"JST_SM08B-SURS-TF(LF)(SN)"*%
%TO.CVal,"SM08B-SURS-TF(LF)(SN)"*%
%TO.CLbN,"Open Ephys"*%
%TO.CMnt,SMD*%
%TO.CRot,0*%
X192000000Y-142500000D03*
D11*
X197199999Y-144649999D02*
X186800001Y-144649999D01*
X186800001Y-140350001D01*
X197199999Y-140350001D01*
X197199999Y-144649999D01*
D13*
%TO.P,"J1","1","Pin_1"*%
X189200000Y-141350000D03*
D12*
%TO.P,"J1","2","Pin_2"*%
X190000000Y-141350000D03*
%TO.P,"J1","3","Pin_3"*%
X190800000Y-141350000D03*
%TO.P,"J1","4","Pin_4"*%
X191600000Y-141350000D03*
%TO.P,"J1","5","Pin_5"*%
X192400000Y-141350000D03*
%TO.P,"J1","6","Pin_6"*%
X193200000Y-141350000D03*
%TO.P,"J1","7","Pin_7"*%
X194000000Y-141350000D03*
%TO.P,"J1","8","Pin_8"*%
X194800000Y-141350000D03*
%TO.P,"J1","MP"*%
X187900000Y-143300000D03*
X196100000Y-143300000D03*
%TD*%
D10*
%TO.C,"H2"*%
%TO.CFtp,"BIVAR_SLP3-150-100-R"*%
%TO.CVal,"SLP3-150-100-R"*%
%TO.CLbN,"Open Ephys"*%
%TO.CMnt,SMD*%
%TO.CRot,180*%
X174249200Y-143677760D03*
D11*
X176509799Y-144820759D02*
X171988601Y-144820759D01*
X171988601Y-142763361D01*
X176509799Y-142763361D01*
X176509799Y-144820759D01*
X176509799Y-139207359D02*
X171988601Y-139207359D01*
X171988601Y-138470761D01*
X176509799Y-138470761D01*
X176509799Y-139207359D01*
D12*
%TO.P,"H2",*%
X175519200Y-143677760D03*
X172979200Y-143677760D03*
%TD*%
D10*
%TO.C,"H1"*%
%TO.CFtp,"BIVAR_SLP3-150-100-R"*%
%TO.CVal,"SLP3-150-100-R"*%
%TO.CLbN,"Open Ephys"*%
%TO.CMnt,SMD*%
%TO.CRot,180*%
X179249200Y-143677760D03*
D11*
X181509799Y-144820759D02*
X176988601Y-144820759D01*
X176988601Y-142763361D01*
X181509799Y-142763361D01*
X181509799Y-144820759D01*
X181509799Y-139207359D02*
X176988601Y-139207359D01*
X176988601Y-138470761D01*
X181509799Y-138470761D01*
X181509799Y-139207359D01*
D12*
%TO.P,"H1",*%
X180519200Y-143677760D03*
X177979200Y-143677760D03*
%TD*%
D10*
%TO.C,"D2"*%
%TO.CFtp,"EVERLIGHT_6-SMD-1.6x1.6"*%
%TO.CVal,"LED_RGB"*%
%TO.CLbN,"Open Ephys"*%
%TO.CMnt,SMD*%
%TO.CRot,180*%
X179249200Y-140977760D03*
D11*
X180499199Y-142177759D02*
X177999201Y-142177759D01*
X177999201Y-139777761D01*
X180499199Y-139777761D01*
X180499199Y-142177759D01*
D13*
%TO.P,"D2","1","BA"*%
X178574200Y-141702760D03*
D12*
%TO.P,"D2","2","BK"*%
X179924200Y-141702760D03*
%TO.P,"D2","3","RA"*%
X178499200Y-140977760D03*
%TO.P,"D2","4","RK"*%
X179999200Y-140977760D03*
%TO.P,"D2","5","GA"*%
X178574200Y-140252760D03*
%TO.P,"D2","6","GK"*%
X179924200Y-140252760D03*
%TD*%
D10*
%TO.C,"D1"*%
%TO.CFtp,"EVERLIGHT_6-SMD-1.6x1.6"*%
%TO.CVal,"LED_RGB"*%
%TO.CLbN,"Open Ephys"*%
%TO.CMnt,SMD*%
%TO.CRot,180*%
X174249200Y-140977760D03*
D11*
X175499199Y-142177759D02*
X172999201Y-142177759D01*
X172999201Y-139777761D01*
X175499199Y-139777761D01*
X175499199Y-142177759D01*
D13*
%TO.P,"D1","1","BA"*%
X173574200Y-141702760D03*
D12*
%TO.P,"D1","2","BK"*%
X174924200Y-141702760D03*
%TO.P,"D1","3","RA"*%
X173499200Y-140977760D03*
%TO.P,"D1","4","RK"*%
X174999200Y-140977760D03*
%TO.P,"D1","5","GA"*%
X173574200Y-140252760D03*
%TO.P,"D1","6","GK"*%
X174924200Y-140252760D03*
%TD*%
D10*
%TO.C,"J1"*%
%TO.CFtp,"JST_SM08B-SURS-TF(LF)(SN)"*%
%TO.CVal,"SM08B-SURS-TF(LF)(SN)"*%
%TO.CLbN,"Open Ephys"*%
%TO.CMnt,SMD*%
%TO.CRot,0*%
X165000000Y-142500000D03*
D11*
X170199999Y-144649999D02*
X159800001Y-144649999D01*
X159800001Y-140350001D01*
X170199999Y-140350001D01*
X170199999Y-144649999D01*
D13*
%TO.P,"J1","1","Pin_1"*%
X162200000Y-141350000D03*
D12*
%TO.P,"J1","2","Pin_2"*%
X163000000Y-141350000D03*
%TO.P,"J1","3","Pin_3"*%
X163800000Y-141350000D03*
%TO.P,"J1","4","Pin_4"*%
X164600000Y-141350000D03*
%TO.P,"J1","5","Pin_5"*%
X165400000Y-141350000D03*
%TO.P,"J1","6","Pin_6"*%
X166200000Y-141350000D03*
%TO.P,"J1","7","Pin_7"*%
X167000000Y-141350000D03*
%TO.P,"J1","8","Pin_8"*%
X167800000Y-141350000D03*
%TO.P,"J1","MP"*%
X160900000Y-143300000D03*
X169100000Y-143300000D03*
%TD*%
D10*
%TO.C,"H2"*%
%TO.CFtp,"BIVAR_SLP3-150-100-R"*%
%TO.CVal,"SLP3-150-100-R"*%
%TO.CLbN,"Open Ephys"*%
%TO.CMnt,SMD*%
%TO.CRot,180*%
X174249200Y-134677760D03*
D11*
X176509799Y-135820759D02*
X171988601Y-135820759D01*
X171988601Y-133763361D01*
X176509799Y-133763361D01*
X176509799Y-135820759D01*
X176509799Y-130207359D02*
X171988601Y-130207359D01*
X171988601Y-129470761D01*
X176509799Y-129470761D01*
X176509799Y-130207359D01*
D12*
%TO.P,"H2",*%
X175519200Y-134677760D03*
X172979200Y-134677760D03*
%TD*%
D10*
%TO.C,"H1"*%
%TO.CFtp,"BIVAR_SLP3-150-100-R"*%
%TO.CVal,"SLP3-150-100-R"*%
%TO.CLbN,"Open Ephys"*%
%TO.CMnt,SMD*%
%TO.CRot,180*%
X179249200Y-134677760D03*
D11*
X181509799Y-135820759D02*
X176988601Y-135820759D01*
X176988601Y-133763361D01*
X181509799Y-133763361D01*
X181509799Y-135820759D01*
X181509799Y-130207359D02*
X176988601Y-130207359D01*
X176988601Y-129470761D01*
X181509799Y-129470761D01*
X181509799Y-130207359D01*
D12*
%TO.P,"H1",*%
X180519200Y-134677760D03*
X177979200Y-134677760D03*
%TD*%
D10*
%TO.C,"D2"*%
%TO.CFtp,"EVERLIGHT_6-SMD-1.6x1.6"*%
%TO.CVal,"LED_RGB"*%
%TO.CLbN,"Open Ephys"*%
%TO.CMnt,SMD*%
%TO.CRot,180*%
X179249200Y-131977760D03*
D11*
X180499199Y-133177759D02*
X177999201Y-133177759D01*
X177999201Y-130777761D01*
X180499199Y-130777761D01*
X180499199Y-133177759D01*
D13*
%TO.P,"D2","1","BA"*%
X178574200Y-132702760D03*
D12*
%TO.P,"D2","2","BK"*%
X179924200Y-132702760D03*
%TO.P,"D2","3","RA"*%
X178499200Y-131977760D03*
%TO.P,"D2","4","RK"*%
X179999200Y-131977760D03*
%TO.P,"D2","5","GA"*%
X178574200Y-131252760D03*
%TO.P,"D2","6","GK"*%
X179924200Y-131252760D03*
%TD*%
D10*
%TO.C,"D1"*%
%TO.CFtp,"EVERLIGHT_6-SMD-1.6x1.6"*%
%TO.CVal,"LED_RGB"*%
%TO.CLbN,"Open Ephys"*%
%TO.CMnt,SMD*%
%TO.CRot,180*%
X174249200Y-131977760D03*
D11*
X175499199Y-133177759D02*
X172999201Y-133177759D01*
X172999201Y-130777761D01*
X175499199Y-130777761D01*
X175499199Y-133177759D01*
D13*
%TO.P,"D1","1","BA"*%
X173574200Y-132702760D03*
D12*
%TO.P,"D1","2","BK"*%
X174924200Y-132702760D03*
%TO.P,"D1","3","RA"*%
X173499200Y-131977760D03*
%TO.P,"D1","4","RK"*%
X174999200Y-131977760D03*
%TO.P,"D1","5","GA"*%
X173574200Y-131252760D03*
%TO.P,"D1","6","GK"*%
X174924200Y-131252760D03*
%TD*%
D10*
%TO.C,"J1"*%
%TO.CFtp,"JST_SM08B-SURS-TF(LF)(SN)"*%
%TO.CVal,"SM08B-SURS-TF(LF)(SN)"*%
%TO.CLbN,"Open Ephys"*%
%TO.CMnt,SMD*%
%TO.CRot,0*%
X165000000Y-133500000D03*
D11*
X170199999Y-135649999D02*
X159800001Y-135649999D01*
X159800001Y-131350001D01*
X170199999Y-131350001D01*
X170199999Y-135649999D01*
D13*
%TO.P,"J1","1","Pin_1"*%
X162200000Y-132350000D03*
D12*
%TO.P,"J1","2","Pin_2"*%
X163000000Y-132350000D03*
%TO.P,"J1","3","Pin_3"*%
X163800000Y-132350000D03*
%TO.P,"J1","4","Pin_4"*%
X164600000Y-132350000D03*
%TO.P,"J1","5","Pin_5"*%
X165400000Y-132350000D03*
%TO.P,"J1","6","Pin_6"*%
X166200000Y-132350000D03*
%TO.P,"J1","7","Pin_7"*%
X167000000Y-132350000D03*
%TO.P,"J1","8","Pin_8"*%
X167800000Y-132350000D03*
%TO.P,"J1","MP"*%
X160900000Y-134300000D03*
X169100000Y-134300000D03*
%TD*%
D10*
%TO.C,"H2"*%
%TO.CFtp,"BIVAR_SLP3-150-100-R"*%
%TO.CVal,"SLP3-150-100-R"*%
%TO.CLbN,"Open Ephys"*%
%TO.CMnt,SMD*%
%TO.CRot,180*%
X201249200Y-134877760D03*
D11*
X203509799Y-136020759D02*
X198988601Y-136020759D01*
X198988601Y-133963361D01*
X203509799Y-133963361D01*
X203509799Y-136020759D01*
X203509799Y-130407359D02*
X198988601Y-130407359D01*
X198988601Y-129670761D01*
X203509799Y-129670761D01*
X203509799Y-130407359D01*
D12*
%TO.P,"H2",*%
X202519200Y-134877760D03*
X199979200Y-134877760D03*
%TD*%
D10*
%TO.C,"H1"*%
%TO.CFtp,"BIVAR_SLP3-150-100-R"*%
%TO.CVal,"SLP3-150-100-R"*%
%TO.CLbN,"Open Ephys"*%
%TO.CMnt,SMD*%
%TO.CRot,180*%
X206249200Y-134877760D03*
D11*
X208509799Y-136020759D02*
X203988601Y-136020759D01*
X203988601Y-133963361D01*
X208509799Y-133963361D01*
X208509799Y-136020759D01*
X208509799Y-130407359D02*
X203988601Y-130407359D01*
X203988601Y-129670761D01*
X208509799Y-129670761D01*
X208509799Y-130407359D01*
D12*
%TO.P,"H1",*%
X207519200Y-134877760D03*
X204979200Y-134877760D03*
%TD*%
D10*
%TO.C,"D2"*%
%TO.CFtp,"EVERLIGHT_6-SMD-1.6x1.6"*%
%TO.CVal,"LED_RGB"*%
%TO.CLbN,"Open Ephys"*%
%TO.CMnt,SMD*%
%TO.CRot,180*%
X206249200Y-132177760D03*
D11*
X207499199Y-133377759D02*
X204999201Y-133377759D01*
X204999201Y-130977761D01*
X207499199Y-130977761D01*
X207499199Y-133377759D01*
D13*
%TO.P,"D2","1","BA"*%
X205574200Y-132902760D03*
D12*
%TO.P,"D2","2","BK"*%
X206924200Y-132902760D03*
%TO.P,"D2","3","RA"*%
X205499200Y-132177760D03*
%TO.P,"D2","4","RK"*%
X206999200Y-132177760D03*
%TO.P,"D2","5","GA"*%
X205574200Y-131452760D03*
%TO.P,"D2","6","GK"*%
X206924200Y-131452760D03*
%TD*%
D10*
%TO.C,"D1"*%
%TO.CFtp,"EVERLIGHT_6-SMD-1.6x1.6"*%
%TO.CVal,"LED_RGB"*%
%TO.CLbN,"Open Ephys"*%
%TO.CMnt,SMD*%
%TO.CRot,180*%
X201249200Y-132177760D03*
D11*
X202499199Y-133377759D02*
X199999201Y-133377759D01*
X199999201Y-130977761D01*
X202499199Y-130977761D01*
X202499199Y-133377759D01*
D13*
%TO.P,"D1","1","BA"*%
X200574200Y-132902760D03*
D12*
%TO.P,"D1","2","BK"*%
X201924200Y-132902760D03*
%TO.P,"D1","3","RA"*%
X200499200Y-132177760D03*
%TO.P,"D1","4","RK"*%
X201999200Y-132177760D03*
%TO.P,"D1","5","GA"*%
X200574200Y-131452760D03*
%TO.P,"D1","6","GK"*%
X201924200Y-131452760D03*
%TD*%
D10*
%TO.C,"J1"*%
%TO.CFtp,"JST_SM08B-SURS-TF(LF)(SN)"*%
%TO.CVal,"SM08B-SURS-TF(LF)(SN)"*%
%TO.CLbN,"Open Ephys"*%
%TO.CMnt,SMD*%
%TO.CRot,0*%
X192000000Y-133700000D03*
D11*
X197199999Y-135849999D02*
X186800001Y-135849999D01*
X186800001Y-131550001D01*
X197199999Y-131550001D01*
X197199999Y-135849999D01*
D13*
%TO.P,"J1","1","Pin_1"*%
X189200000Y-132550000D03*
D12*
%TO.P,"J1","2","Pin_2"*%
X190000000Y-132550000D03*
%TO.P,"J1","3","Pin_3"*%
X190800000Y-132550000D03*
%TO.P,"J1","4","Pin_4"*%
X191600000Y-132550000D03*
%TO.P,"J1","5","Pin_5"*%
X192400000Y-132550000D03*
%TO.P,"J1","6","Pin_6"*%
X193200000Y-132550000D03*
%TO.P,"J1","7","Pin_7"*%
X194000000Y-132550000D03*
%TO.P,"J1","8","Pin_8"*%
X194800000Y-132550000D03*
%TO.P,"J1","MP"*%
X187900000Y-134500000D03*
X196100000Y-134500000D03*
%TD*%
D10*
%TO.C,"H2"*%
%TO.CFtp,"BIVAR_SLP3-150-100-R"*%
%TO.CVal,"SLP3-150-100-R"*%
%TO.CLbN,"Open Ephys"*%
%TO.CMnt,SMD*%
%TO.CRot,180*%
X228249200Y-134877760D03*
D11*
X230509799Y-136020759D02*
X225988601Y-136020759D01*
X225988601Y-133963361D01*
X230509799Y-133963361D01*
X230509799Y-136020759D01*
X230509799Y-130407359D02*
X225988601Y-130407359D01*
X225988601Y-129670761D01*
X230509799Y-129670761D01*
X230509799Y-130407359D01*
D12*
%TO.P,"H2",*%
X229519200Y-134877760D03*
X226979200Y-134877760D03*
%TD*%
D10*
%TO.C,"H1"*%
%TO.CFtp,"BIVAR_SLP3-150-100-R"*%
%TO.CVal,"SLP3-150-100-R"*%
%TO.CLbN,"Open Ephys"*%
%TO.CMnt,SMD*%
%TO.CRot,180*%
X233249200Y-134877760D03*
D11*
X235509799Y-136020759D02*
X230988601Y-136020759D01*
X230988601Y-133963361D01*
X235509799Y-133963361D01*
X235509799Y-136020759D01*
X235509799Y-130407359D02*
X230988601Y-130407359D01*
X230988601Y-129670761D01*
X235509799Y-129670761D01*
X235509799Y-130407359D01*
D12*
%TO.P,"H1",*%
X234519200Y-134877760D03*
X231979200Y-134877760D03*
%TD*%
D10*
%TO.C,"D2"*%
%TO.CFtp,"EVERLIGHT_6-SMD-1.6x1.6"*%
%TO.CVal,"LED_RGB"*%
%TO.CLbN,"Open Ephys"*%
%TO.CMnt,SMD*%
%TO.CRot,180*%
X233249200Y-132177760D03*
D11*
X234499199Y-133377759D02*
X231999201Y-133377759D01*
X231999201Y-130977761D01*
X234499199Y-130977761D01*
X234499199Y-133377759D01*
D13*
%TO.P,"D2","1","BA"*%
X232574200Y-132902760D03*
D12*
%TO.P,"D2","2","BK"*%
X233924200Y-132902760D03*
%TO.P,"D2","3","RA"*%
X232499200Y-132177760D03*
%TO.P,"D2","4","RK"*%
X233999200Y-132177760D03*
%TO.P,"D2","5","GA"*%
X232574200Y-131452760D03*
%TO.P,"D2","6","GK"*%
X233924200Y-131452760D03*
%TD*%
D10*
%TO.C,"D1"*%
%TO.CFtp,"EVERLIGHT_6-SMD-1.6x1.6"*%
%TO.CVal,"LED_RGB"*%
%TO.CLbN,"Open Ephys"*%
%TO.CMnt,SMD*%
%TO.CRot,180*%
X228249200Y-132177760D03*
D11*
X229499199Y-133377759D02*
X226999201Y-133377759D01*
X226999201Y-130977761D01*
X229499199Y-130977761D01*
X229499199Y-133377759D01*
D13*
%TO.P,"D1","1","BA"*%
X227574200Y-132902760D03*
D12*
%TO.P,"D1","2","BK"*%
X228924200Y-132902760D03*
%TO.P,"D1","3","RA"*%
X227499200Y-132177760D03*
%TO.P,"D1","4","RK"*%
X228999200Y-132177760D03*
%TO.P,"D1","5","GA"*%
X227574200Y-131452760D03*
%TO.P,"D1","6","GK"*%
X228924200Y-131452760D03*
%TD*%
D10*
%TO.C,"J1"*%
%TO.CFtp,"JST_SM08B-SURS-TF(LF)(SN)"*%
%TO.CVal,"SM08B-SURS-TF(LF)(SN)"*%
%TO.CLbN,"Open Ephys"*%
%TO.CMnt,SMD*%
%TO.CRot,0*%
X219000000Y-133700000D03*
D11*
X224199999Y-135849999D02*
X213800001Y-135849999D01*
X213800001Y-131550001D01*
X224199999Y-131550001D01*
X224199999Y-135849999D01*
D13*
%TO.P,"J1","1","Pin_1"*%
X216200000Y-132550000D03*
D12*
%TO.P,"J1","2","Pin_2"*%
X217000000Y-132550000D03*
%TO.P,"J1","3","Pin_3"*%
X217800000Y-132550000D03*
%TO.P,"J1","4","Pin_4"*%
X218600000Y-132550000D03*
%TO.P,"J1","5","Pin_5"*%
X219400000Y-132550000D03*
%TO.P,"J1","6","Pin_6"*%
X220200000Y-132550000D03*
%TO.P,"J1","7","Pin_7"*%
X221000000Y-132550000D03*
%TO.P,"J1","8","Pin_8"*%
X221800000Y-132550000D03*
%TO.P,"J1","MP"*%
X214900000Y-134500000D03*
X223100000Y-134500000D03*
%TD*%
D10*
%TO.C,"H2"*%
%TO.CFtp,"BIVAR_SLP3-150-100-R"*%
%TO.CVal,"SLP3-150-100-R"*%
%TO.CLbN,"Open Ephys"*%
%TO.CMnt,SMD*%
%TO.CRot,180*%
X255249200Y-134877760D03*
D11*
X257509799Y-136020759D02*
X252988601Y-136020759D01*
X252988601Y-133963361D01*
X257509799Y-133963361D01*
X257509799Y-136020759D01*
X257509799Y-130407359D02*
X252988601Y-130407359D01*
X252988601Y-129670761D01*
X257509799Y-129670761D01*
X257509799Y-130407359D01*
D12*
%TO.P,"H2",*%
X256519200Y-134877760D03*
X253979200Y-134877760D03*
%TD*%
D10*
%TO.C,"H1"*%
%TO.CFtp,"BIVAR_SLP3-150-100-R"*%
%TO.CVal,"SLP3-150-100-R"*%
%TO.CLbN,"Open Ephys"*%
%TO.CMnt,SMD*%
%TO.CRot,180*%
X260249200Y-134877760D03*
D11*
X262509799Y-136020759D02*
X257988601Y-136020759D01*
X257988601Y-133963361D01*
X262509799Y-133963361D01*
X262509799Y-136020759D01*
X262509799Y-130407359D02*
X257988601Y-130407359D01*
X257988601Y-129670761D01*
X262509799Y-129670761D01*
X262509799Y-130407359D01*
D12*
%TO.P,"H1",*%
X261519200Y-134877760D03*
X258979200Y-134877760D03*
%TD*%
D10*
%TO.C,"D2"*%
%TO.CFtp,"EVERLIGHT_6-SMD-1.6x1.6"*%
%TO.CVal,"LED_RGB"*%
%TO.CLbN,"Open Ephys"*%
%TO.CMnt,SMD*%
%TO.CRot,180*%
X260249200Y-132177760D03*
D11*
X261499199Y-133377759D02*
X258999201Y-133377759D01*
X258999201Y-130977761D01*
X261499199Y-130977761D01*
X261499199Y-133377759D01*
D13*
%TO.P,"D2","1","BA"*%
X259574200Y-132902760D03*
D12*
%TO.P,"D2","2","BK"*%
X260924200Y-132902760D03*
%TO.P,"D2","3","RA"*%
X259499200Y-132177760D03*
%TO.P,"D2","4","RK"*%
X260999200Y-132177760D03*
%TO.P,"D2","5","GA"*%
X259574200Y-131452760D03*
%TO.P,"D2","6","GK"*%
X260924200Y-131452760D03*
%TD*%
D10*
%TO.C,"D1"*%
%TO.CFtp,"EVERLIGHT_6-SMD-1.6x1.6"*%
%TO.CVal,"LED_RGB"*%
%TO.CLbN,"Open Ephys"*%
%TO.CMnt,SMD*%
%TO.CRot,180*%
X255249200Y-132177760D03*
D11*
X256499199Y-133377759D02*
X253999201Y-133377759D01*
X253999201Y-130977761D01*
X256499199Y-130977761D01*
X256499199Y-133377759D01*
D13*
%TO.P,"D1","1","BA"*%
X254574200Y-132902760D03*
D12*
%TO.P,"D1","2","BK"*%
X255924200Y-132902760D03*
%TO.P,"D1","3","RA"*%
X254499200Y-132177760D03*
%TO.P,"D1","4","RK"*%
X255999200Y-132177760D03*
%TO.P,"D1","5","GA"*%
X254574200Y-131452760D03*
%TO.P,"D1","6","GK"*%
X255924200Y-131452760D03*
%TD*%
D10*
%TO.C,"J1"*%
%TO.CFtp,"JST_SM08B-SURS-TF(LF)(SN)"*%
%TO.CVal,"SM08B-SURS-TF(LF)(SN)"*%
%TO.CLbN,"Open Ephys"*%
%TO.CMnt,SMD*%
%TO.CRot,0*%
X246000000Y-133700000D03*
D11*
X251199999Y-135849999D02*
X240800001Y-135849999D01*
X240800001Y-131550001D01*
X251199999Y-131550001D01*
X251199999Y-135849999D01*
D13*
%TO.P,"J1","1","Pin_1"*%
X243200000Y-132550000D03*
D12*
%TO.P,"J1","2","Pin_2"*%
X244000000Y-132550000D03*
%TO.P,"J1","3","Pin_3"*%
X244800000Y-132550000D03*
%TO.P,"J1","4","Pin_4"*%
X245600000Y-132550000D03*
%TO.P,"J1","5","Pin_5"*%
X246400000Y-132550000D03*
%TO.P,"J1","6","Pin_6"*%
X247200000Y-132550000D03*
%TO.P,"J1","7","Pin_7"*%
X248000000Y-132550000D03*
%TO.P,"J1","8","Pin_8"*%
X248800000Y-132550000D03*
%TO.P,"J1","MP"*%
X241900000Y-134500000D03*
X250100000Y-134500000D03*
%TD*%
D10*
%TO.C,"H2"*%
%TO.CFtp,"BIVAR_SLP3-150-100-R"*%
%TO.CVal,"SLP3-150-100-R"*%
%TO.CLbN,"Open Ephys"*%
%TO.CMnt,SMD*%
%TO.CRot,180*%
X255249200Y-125677760D03*
D11*
X257509799Y-126820759D02*
X252988601Y-126820759D01*
X252988601Y-124763361D01*
X257509799Y-124763361D01*
X257509799Y-126820759D01*
X257509799Y-121207359D02*
X252988601Y-121207359D01*
X252988601Y-120470761D01*
X257509799Y-120470761D01*
X257509799Y-121207359D01*
D12*
%TO.P,"H2",*%
X256519200Y-125677760D03*
X253979200Y-125677760D03*
%TD*%
D10*
%TO.C,"H1"*%
%TO.CFtp,"BIVAR_SLP3-150-100-R"*%
%TO.CVal,"SLP3-150-100-R"*%
%TO.CLbN,"Open Ephys"*%
%TO.CMnt,SMD*%
%TO.CRot,180*%
X260249200Y-125677760D03*
D11*
X262509799Y-126820759D02*
X257988601Y-126820759D01*
X257988601Y-124763361D01*
X262509799Y-124763361D01*
X262509799Y-126820759D01*
X262509799Y-121207359D02*
X257988601Y-121207359D01*
X257988601Y-120470761D01*
X262509799Y-120470761D01*
X262509799Y-121207359D01*
D12*
%TO.P,"H1",*%
X261519200Y-125677760D03*
X258979200Y-125677760D03*
%TD*%
D10*
%TO.C,"D2"*%
%TO.CFtp,"EVERLIGHT_6-SMD-1.6x1.6"*%
%TO.CVal,"LED_RGB"*%
%TO.CLbN,"Open Ephys"*%
%TO.CMnt,SMD*%
%TO.CRot,180*%
X260249200Y-122977760D03*
D11*
X261499199Y-124177759D02*
X258999201Y-124177759D01*
X258999201Y-121777761D01*
X261499199Y-121777761D01*
X261499199Y-124177759D01*
D13*
%TO.P,"D2","1","BA"*%
X259574200Y-123702760D03*
D12*
%TO.P,"D2","2","BK"*%
X260924200Y-123702760D03*
%TO.P,"D2","3","RA"*%
X259499200Y-122977760D03*
%TO.P,"D2","4","RK"*%
X260999200Y-122977760D03*
%TO.P,"D2","5","GA"*%
X259574200Y-122252760D03*
%TO.P,"D2","6","GK"*%
X260924200Y-122252760D03*
%TD*%
D10*
%TO.C,"D1"*%
%TO.CFtp,"EVERLIGHT_6-SMD-1.6x1.6"*%
%TO.CVal,"LED_RGB"*%
%TO.CLbN,"Open Ephys"*%
%TO.CMnt,SMD*%
%TO.CRot,180*%
X255249200Y-122977760D03*
D11*
X256499199Y-124177759D02*
X253999201Y-124177759D01*
X253999201Y-121777761D01*
X256499199Y-121777761D01*
X256499199Y-124177759D01*
D13*
%TO.P,"D1","1","BA"*%
X254574200Y-123702760D03*
D12*
%TO.P,"D1","2","BK"*%
X255924200Y-123702760D03*
%TO.P,"D1","3","RA"*%
X254499200Y-122977760D03*
%TO.P,"D1","4","RK"*%
X255999200Y-122977760D03*
%TO.P,"D1","5","GA"*%
X254574200Y-122252760D03*
%TO.P,"D1","6","GK"*%
X255924200Y-122252760D03*
%TD*%
D10*
%TO.C,"J1"*%
%TO.CFtp,"JST_SM08B-SURS-TF(LF)(SN)"*%
%TO.CVal,"SM08B-SURS-TF(LF)(SN)"*%
%TO.CLbN,"Open Ephys"*%
%TO.CMnt,SMD*%
%TO.CRot,0*%
X246000000Y-124500000D03*
D11*
X251199999Y-126649999D02*
X240800001Y-126649999D01*
X240800001Y-122350001D01*
X251199999Y-122350001D01*
X251199999Y-126649999D01*
D13*
%TO.P,"J1","1","Pin_1"*%
X243200000Y-123350000D03*
D12*
%TO.P,"J1","2","Pin_2"*%
X244000000Y-123350000D03*
%TO.P,"J1","3","Pin_3"*%
X244800000Y-123350000D03*
%TO.P,"J1","4","Pin_4"*%
X245600000Y-123350000D03*
%TO.P,"J1","5","Pin_5"*%
X246400000Y-123350000D03*
%TO.P,"J1","6","Pin_6"*%
X247200000Y-123350000D03*
%TO.P,"J1","7","Pin_7"*%
X248000000Y-123350000D03*
%TO.P,"J1","8","Pin_8"*%
X248800000Y-123350000D03*
%TO.P,"J1","MP"*%
X241900000Y-125300000D03*
X250100000Y-125300000D03*
%TD*%
D10*
%TO.C,"H2"*%
%TO.CFtp,"BIVAR_SLP3-150-100-R"*%
%TO.CVal,"SLP3-150-100-R"*%
%TO.CLbN,"Open Ephys"*%
%TO.CMnt,SMD*%
%TO.CRot,180*%
X228249200Y-125677760D03*
D11*
X230509799Y-126820759D02*
X225988601Y-126820759D01*
X225988601Y-124763361D01*
X230509799Y-124763361D01*
X230509799Y-126820759D01*
X230509799Y-121207359D02*
X225988601Y-121207359D01*
X225988601Y-120470761D01*
X230509799Y-120470761D01*
X230509799Y-121207359D01*
D12*
%TO.P,"H2",*%
X229519200Y-125677760D03*
X226979200Y-125677760D03*
%TD*%
D10*
%TO.C,"H1"*%
%TO.CFtp,"BIVAR_SLP3-150-100-R"*%
%TO.CVal,"SLP3-150-100-R"*%
%TO.CLbN,"Open Ephys"*%
%TO.CMnt,SMD*%
%TO.CRot,180*%
X233249200Y-125677760D03*
D11*
X235509799Y-126820759D02*
X230988601Y-126820759D01*
X230988601Y-124763361D01*
X235509799Y-124763361D01*
X235509799Y-126820759D01*
X235509799Y-121207359D02*
X230988601Y-121207359D01*
X230988601Y-120470761D01*
X235509799Y-120470761D01*
X235509799Y-121207359D01*
D12*
%TO.P,"H1",*%
X234519200Y-125677760D03*
X231979200Y-125677760D03*
%TD*%
D10*
%TO.C,"D2"*%
%TO.CFtp,"EVERLIGHT_6-SMD-1.6x1.6"*%
%TO.CVal,"LED_RGB"*%
%TO.CLbN,"Open Ephys"*%
%TO.CMnt,SMD*%
%TO.CRot,180*%
X233249200Y-122977760D03*
D11*
X234499199Y-124177759D02*
X231999201Y-124177759D01*
X231999201Y-121777761D01*
X234499199Y-121777761D01*
X234499199Y-124177759D01*
D13*
%TO.P,"D2","1","BA"*%
X232574200Y-123702760D03*
D12*
%TO.P,"D2","2","BK"*%
X233924200Y-123702760D03*
%TO.P,"D2","3","RA"*%
X232499200Y-122977760D03*
%TO.P,"D2","4","RK"*%
X233999200Y-122977760D03*
%TO.P,"D2","5","GA"*%
X232574200Y-122252760D03*
%TO.P,"D2","6","GK"*%
X233924200Y-122252760D03*
%TD*%
D10*
%TO.C,"D1"*%
%TO.CFtp,"EVERLIGHT_6-SMD-1.6x1.6"*%
%TO.CVal,"LED_RGB"*%
%TO.CLbN,"Open Ephys"*%
%TO.CMnt,SMD*%
%TO.CRot,180*%
X228249200Y-122977760D03*
D11*
X229499199Y-124177759D02*
X226999201Y-124177759D01*
X226999201Y-121777761D01*
X229499199Y-121777761D01*
X229499199Y-124177759D01*
D13*
%TO.P,"D1","1","BA"*%
X227574200Y-123702760D03*
D12*
%TO.P,"D1","2","BK"*%
X228924200Y-123702760D03*
%TO.P,"D1","3","RA"*%
X227499200Y-122977760D03*
%TO.P,"D1","4","RK"*%
X228999200Y-122977760D03*
%TO.P,"D1","5","GA"*%
X227574200Y-122252760D03*
%TO.P,"D1","6","GK"*%
X228924200Y-122252760D03*
%TD*%
D10*
%TO.C,"J1"*%
%TO.CFtp,"JST_SM08B-SURS-TF(LF)(SN)"*%
%TO.CVal,"SM08B-SURS-TF(LF)(SN)"*%
%TO.CLbN,"Open Ephys"*%
%TO.CMnt,SMD*%
%TO.CRot,0*%
X219000000Y-124500000D03*
D11*
X224199999Y-126649999D02*
X213800001Y-126649999D01*
X213800001Y-122350001D01*
X224199999Y-122350001D01*
X224199999Y-126649999D01*
D13*
%TO.P,"J1","1","Pin_1"*%
X216200000Y-123350000D03*
D12*
%TO.P,"J1","2","Pin_2"*%
X217000000Y-123350000D03*
%TO.P,"J1","3","Pin_3"*%
X217800000Y-123350000D03*
%TO.P,"J1","4","Pin_4"*%
X218600000Y-123350000D03*
%TO.P,"J1","5","Pin_5"*%
X219400000Y-123350000D03*
%TO.P,"J1","6","Pin_6"*%
X220200000Y-123350000D03*
%TO.P,"J1","7","Pin_7"*%
X221000000Y-123350000D03*
%TO.P,"J1","8","Pin_8"*%
X221800000Y-123350000D03*
%TO.P,"J1","MP"*%
X214900000Y-125300000D03*
X223100000Y-125300000D03*
%TD*%
D10*
%TO.C,"H2"*%
%TO.CFtp,"BIVAR_SLP3-150-100-R"*%
%TO.CVal,"SLP3-150-100-R"*%
%TO.CLbN,"Open Ephys"*%
%TO.CMnt,SMD*%
%TO.CRot,180*%
X201249200Y-125677760D03*
D11*
X203509799Y-126820759D02*
X198988601Y-126820759D01*
X198988601Y-124763361D01*
X203509799Y-124763361D01*
X203509799Y-126820759D01*
X203509799Y-121207359D02*
X198988601Y-121207359D01*
X198988601Y-120470761D01*
X203509799Y-120470761D01*
X203509799Y-121207359D01*
D12*
%TO.P,"H2",*%
X202519200Y-125677760D03*
X199979200Y-125677760D03*
%TD*%
D10*
%TO.C,"H1"*%
%TO.CFtp,"BIVAR_SLP3-150-100-R"*%
%TO.CVal,"SLP3-150-100-R"*%
%TO.CLbN,"Open Ephys"*%
%TO.CMnt,SMD*%
%TO.CRot,180*%
X206249200Y-125677760D03*
D11*
X208509799Y-126820759D02*
X203988601Y-126820759D01*
X203988601Y-124763361D01*
X208509799Y-124763361D01*
X208509799Y-126820759D01*
X208509799Y-121207359D02*
X203988601Y-121207359D01*
X203988601Y-120470761D01*
X208509799Y-120470761D01*
X208509799Y-121207359D01*
D12*
%TO.P,"H1",*%
X207519200Y-125677760D03*
X204979200Y-125677760D03*
%TD*%
D10*
%TO.C,"D2"*%
%TO.CFtp,"EVERLIGHT_6-SMD-1.6x1.6"*%
%TO.CVal,"LED_RGB"*%
%TO.CLbN,"Open Ephys"*%
%TO.CMnt,SMD*%
%TO.CRot,180*%
X206249200Y-122977760D03*
D11*
X207499199Y-124177759D02*
X204999201Y-124177759D01*
X204999201Y-121777761D01*
X207499199Y-121777761D01*
X207499199Y-124177759D01*
D13*
%TO.P,"D2","1","BA"*%
X205574200Y-123702760D03*
D12*
%TO.P,"D2","2","BK"*%
X206924200Y-123702760D03*
%TO.P,"D2","3","RA"*%
X205499200Y-122977760D03*
%TO.P,"D2","4","RK"*%
X206999200Y-122977760D03*
%TO.P,"D2","5","GA"*%
X205574200Y-122252760D03*
%TO.P,"D2","6","GK"*%
X206924200Y-122252760D03*
%TD*%
D10*
%TO.C,"D1"*%
%TO.CFtp,"EVERLIGHT_6-SMD-1.6x1.6"*%
%TO.CVal,"LED_RGB"*%
%TO.CLbN,"Open Ephys"*%
%TO.CMnt,SMD*%
%TO.CRot,180*%
X201249200Y-122977760D03*
D11*
X202499199Y-124177759D02*
X199999201Y-124177759D01*
X199999201Y-121777761D01*
X202499199Y-121777761D01*
X202499199Y-124177759D01*
D13*
%TO.P,"D1","1","BA"*%
X200574200Y-123702760D03*
D12*
%TO.P,"D1","2","BK"*%
X201924200Y-123702760D03*
%TO.P,"D1","3","RA"*%
X200499200Y-122977760D03*
%TO.P,"D1","4","RK"*%
X201999200Y-122977760D03*
%TO.P,"D1","5","GA"*%
X200574200Y-122252760D03*
%TO.P,"D1","6","GK"*%
X201924200Y-122252760D03*
%TD*%
D10*
%TO.C,"J1"*%
%TO.CFtp,"JST_SM08B-SURS-TF(LF)(SN)"*%
%TO.CVal,"SM08B-SURS-TF(LF)(SN)"*%
%TO.CLbN,"Open Ephys"*%
%TO.CMnt,SMD*%
%TO.CRot,0*%
X192000000Y-124500000D03*
D11*
X197199999Y-126649999D02*
X186800001Y-126649999D01*
X186800001Y-122350001D01*
X197199999Y-122350001D01*
X197199999Y-126649999D01*
D13*
%TO.P,"J1","1","Pin_1"*%
X189200000Y-123350000D03*
D12*
%TO.P,"J1","2","Pin_2"*%
X190000000Y-123350000D03*
%TO.P,"J1","3","Pin_3"*%
X190800000Y-123350000D03*
%TO.P,"J1","4","Pin_4"*%
X191600000Y-123350000D03*
%TO.P,"J1","5","Pin_5"*%
X192400000Y-123350000D03*
%TO.P,"J1","6","Pin_6"*%
X193200000Y-123350000D03*
%TO.P,"J1","7","Pin_7"*%
X194000000Y-123350000D03*
%TO.P,"J1","8","Pin_8"*%
X194800000Y-123350000D03*
%TO.P,"J1","MP"*%
X187900000Y-125300000D03*
X196100000Y-125300000D03*
%TD*%
D10*
%TO.C,"(11\u002C 12)"*%
%TO.CFtp,"Fiducial_1mm_Mask2mm"*%
%TO.CVal,"Fiducial_1mm_Mask2mm"*%
%TO.CLbN,"Fiducial"*%
%TO.CMnt,SMD*%
%TO.CRot,0*%
X149949200Y-182277760D03*
D11*
X150574199Y-181195228D02*
X150574199Y-181195229D01*
X150906755Y-181474276D01*
X150906755Y-181474275D01*
X151123815Y-181850235D01*
X151199199Y-182277760D01*
X151123815Y-182705285D01*
X150906755Y-183081244D01*
X150574199Y-183360291D01*
X150166260Y-183508769D01*
X149732140Y-183508769D01*
X149324200Y-183360291D01*
X149324201Y-183360291D01*
X148991644Y-183081244D01*
X148774585Y-182705285D01*
X148699201Y-182277760D01*
X148774585Y-181850235D01*
X148991644Y-181474275D01*
X148991645Y-181474276D01*
X149324201Y-181195229D01*
X149324200Y-181195228D01*
X149732140Y-181046751D01*
X150166260Y-181046751D01*
X150574199Y-181195228D01*
D12*
%TO.P,"(11\u002C 12)",*%
X149949200Y-182277760D03*
%TD*%
D10*
%TO.C,"(135\u002C 15)"*%
%TO.CFtp,"Fiducial_1mm_Mask2mm"*%
%TO.CVal,"Fiducial_1mm_Mask2mm"*%
%TO.CLbN,"Fiducial"*%
%TO.CMnt,SMD*%
%TO.CRot,0*%
X273949200Y-179277760D03*
D11*
X274574199Y-178195228D02*
X274574199Y-178195229D01*
X274906755Y-178474276D01*
X274906755Y-178474275D01*
X275123815Y-178850235D01*
X275199199Y-179277760D01*
X275123815Y-179705285D01*
X274906755Y-180081244D01*
X274574199Y-180360291D01*
X274166260Y-180508769D01*
X273732140Y-180508769D01*
X273324200Y-180360291D01*
X273324201Y-180360291D01*
X272991644Y-180081244D01*
X272774585Y-179705285D01*
X272699201Y-179277760D01*
X272774585Y-178850235D01*
X272991644Y-178474275D01*
X272991645Y-178474276D01*
X273324201Y-178195229D01*
X273324200Y-178195228D01*
X273732140Y-178046751D01*
X274166260Y-178046751D01*
X274574199Y-178195228D01*
D12*
%TO.P,"(135\u002C 15)",*%
X273949200Y-179277760D03*
%TD*%
D10*
%TO.C,"(15\u002C 83)"*%
%TO.CFtp,"Fiducial_1mm_Mask2mm"*%
%TO.CVal,"Fiducial_1mm_Mask2mm"*%
%TO.CLbN,"Fiducial"*%
%TO.CMnt,SMD*%
%TO.CRot,0*%
X153949200Y-111277760D03*
D11*
X154574199Y-110195228D02*
X154574199Y-110195229D01*
X154906755Y-110474276D01*
X154906755Y-110474275D01*
X155123815Y-110850235D01*
X155199199Y-111277760D01*
X155123815Y-111705285D01*
X154906755Y-112081244D01*
X154574199Y-112360291D01*
X154166260Y-112508769D01*
X153732140Y-112508769D01*
X153324200Y-112360291D01*
X153324201Y-112360291D01*
X152991644Y-112081244D01*
X152774585Y-111705285D01*
X152699201Y-111277760D01*
X152774585Y-110850235D01*
X152991644Y-110474275D01*
X152991645Y-110474276D01*
X153324201Y-110195229D01*
X153324200Y-110195228D01*
X153732140Y-110046751D01*
X154166260Y-110046751D01*
X154574199Y-110195228D01*
D12*
%TO.P,"(15\u002C 83)",*%
X153949200Y-111277760D03*
%TD*%
D10*
%TO.C,"D2"*%
%TO.CFtp,"EVERLIGHT_6-SMD-1.6x1.6"*%
%TO.CVal,"LED_RGB"*%
%TO.CLbN,"Open Ephys"*%
%TO.CMnt,SMD*%
%TO.CRot,180*%
X179249200Y-122977760D03*
D11*
X180499199Y-124177759D02*
X177999201Y-124177759D01*
X177999201Y-121777761D01*
X180499199Y-121777761D01*
X180499199Y-124177759D01*
D13*
%TO.P,"D2","1","BA"*%
X178574200Y-123702760D03*
D12*
%TO.P,"D2","2","BK"*%
X179924200Y-123702760D03*
%TO.P,"D2","3","RA"*%
X178499200Y-122977760D03*
%TO.P,"D2","4","RK"*%
X179999200Y-122977760D03*
%TO.P,"D2","5","GA"*%
X178574200Y-122252760D03*
%TO.P,"D2","6","GK"*%
X179924200Y-122252760D03*
%TD*%
D10*
%TO.C,"D1"*%
%TO.CFtp,"EVERLIGHT_6-SMD-1.6x1.6"*%
%TO.CVal,"LED_RGB"*%
%TO.CLbN,"Open Ephys"*%
%TO.CMnt,SMD*%
%TO.CRot,180*%
X174249200Y-122977760D03*
D11*
X175499199Y-124177759D02*
X172999201Y-124177759D01*
X172999201Y-121777761D01*
X175499199Y-121777761D01*
X175499199Y-124177759D01*
D13*
%TO.P,"D1","1","BA"*%
X173574200Y-123702760D03*
D12*
%TO.P,"D1","6","GK"*%
X174924200Y-122252760D03*
%TO.P,"D1","5","GA"*%
X173574200Y-122252760D03*
%TO.P,"D1","4","RK"*%
X174999200Y-122977760D03*
%TO.P,"D1","3","RA"*%
X173499200Y-122977760D03*
%TO.P,"D1","2","BK"*%
X174924200Y-123702760D03*
%TD*%
D10*
%TO.C,"H1"*%
%TO.CFtp,"BIVAR_SLP3-150-100-R"*%
%TO.CVal,"SLP3-150-100-R"*%
%TO.CLbN,"Open Ephys"*%
%TO.CMnt,SMD*%
%TO.CRot,180*%
X179249200Y-125677760D03*
D11*
X181509799Y-126820759D02*
X176988601Y-126820759D01*
X176988601Y-124763361D01*
X181509799Y-124763361D01*
X181509799Y-126820759D01*
X181509799Y-121207359D02*
X176988601Y-121207359D01*
X176988601Y-120470761D01*
X181509799Y-120470761D01*
X181509799Y-121207359D01*
D12*
%TO.P,"H1",*%
X180519200Y-125677760D03*
X177979200Y-125677760D03*
%TD*%
D10*
%TO.C,"J1"*%
%TO.CFtp,"JST_SM08B-SURS-TF(LF)(SN)"*%
%TO.CVal,"SM08B-SURS-TF(LF)(SN)"*%
%TO.CLbN,"Open Ephys"*%
%TO.CMnt,SMD*%
%TO.CRot,0*%
X165000000Y-124500000D03*
D11*
X170199999Y-126649999D02*
X159800001Y-126649999D01*
X159800001Y-122350001D01*
X170199999Y-122350001D01*
X170199999Y-126649999D01*
D13*
%TO.P,"J1","1","Pin_1"*%
X162200000Y-123350000D03*
D12*
%TO.P,"J1","2","Pin_2"*%
X163000000Y-123350000D03*
%TO.P,"J1","3","Pin_3"*%
X163800000Y-123350000D03*
%TO.P,"J1","4","Pin_4"*%
X164600000Y-123350000D03*
%TO.P,"J1","5","Pin_5"*%
X165400000Y-123350000D03*
%TO.P,"J1","6","Pin_6"*%
X166200000Y-123350000D03*
%TO.P,"J1","7","Pin_7"*%
X167000000Y-123350000D03*
%TO.P,"J1","8","Pin_8"*%
X167800000Y-123350000D03*
%TO.P,"J1","MP"*%
X160900000Y-125300000D03*
X169100000Y-125300000D03*
%TD*%
D10*
%TO.C,"H2"*%
%TO.CFtp,"BIVAR_SLP3-150-100-R"*%
%TO.CVal,"SLP3-150-100-R"*%
%TO.CLbN,"Open Ephys"*%
%TO.CMnt,SMD*%
%TO.CRot,180*%
X174249200Y-125677760D03*
D11*
X176509799Y-126820759D02*
X171988601Y-126820759D01*
X171988601Y-124763361D01*
X176509799Y-124763361D01*
X176509799Y-126820759D01*
X176509799Y-121207359D02*
X171988601Y-121207359D01*
X171988601Y-120470761D01*
X176509799Y-120470761D01*
X176509799Y-121207359D01*
D12*
%TO.P,"H2",*%
X175519200Y-125677760D03*
X172979200Y-125677760D03*
%TD*%
M02*
