  0
SECTION
  2
HEADER
  9
$ACADVER
  1
AC1009
  9
$DWGCODEPAGE
  3
ansi_1252
  9
$INSBASE
 10
0.0
 20
0.0
 30
0.0
  9
$EXTMIN
 10
-120.2034443111
 20
-9.2075
 30
0.0
  9
$EXTMAX
 10
11.43
 20
19.709358136
 30
0.0
  9
$LIMMIN
 10
0.0
 20
0.0
  9
$LIMMAX
 10
420.0
 20
297.0
  9
$ORTHOMODE
 70
     0
  9
$REGENMODE
 70
     1
  9
$FILLMODE
 70
     1
  9
$QTEXTMODE
 70
     0
  9
$MIRRTEXT
 70
     1
  9
$DRAGMODE
 70
     2
  9
$LTSCALE
 40
1.0
  9
$OSMODE
 70
    37
  9
$ATTMODE
 70
     1
  9
$TEXTSIZE
 40
3.0
  9
$TRACEWID
 40
1.0
  9
$TEXTSTYLE
  7
STANDARD
  9
$CLAYER
  8
0
  9
$CELTYPE
  6
BYLAYER
  9
$CECOLOR
 62
   256
  9
$DIMSCALE
 40
1.0
  9
$DIMASZ
 40
3.302
  9
$DIMEXO
 40
0.0
  9
$DIMDLI
 40
3.75
  9
$DIMRND
 40
0.0
  9
$DIMDLE
 40
0.0
  9
$DIMEXE
 40
1.0
  9
$DIMTP
 40
0.0
  9
$DIMTM
 40
0.0
  9
$DIMTXT
 40
3.0
  9
$DIMCEN
 40
2.5
  9
$DIMTSZ
 40
0.0
  9
$DIMTOL
 70
     0
  9
$DIMLIM
 70
     0
  9
$DIMTIH
 70
     1
  9
$DIMTOH
 70
     1
  9
$DIMSE1
 70
     0
  9
$DIMSE2
 70
     0
  9
$DIMTAD
 70
     1
  9
$DIMZIN
 70
     0
  9
$DIMBLK
  1

  9
$DIMASO
 70
     1
  9
$DIMSHO
 70
     1
  9
$DIMPOST
  1

  9
$DIMAPOST
  1

  9
$DIMALT
 70
     0
  9
$DIMALTD
 70
     3
  9
$DIMALTF
 40
0.0393700787
  9
$DIMLFAC
 40
1.0
  9
$DIMTOFL
 70
     1
  9
$DIMTVP
 40
0.0
  9
$DIMTIX
 70
     0
  9
$DIMSOXD
 70
     0
  9
$DIMSAH
 70
     0
  9
$DIMBLK1
  1

  9
$DIMBLK2
  1

  9
$DIMSTYLE
  2
ISO-25
  9
$DIMCLRD
 70
     0
  9
$DIMCLRE
 70
     0
  9
$DIMCLRT
 70
     0
  9
$DIMTFAC
 40
1.0
  9
$DIMGAP
 40
1.524
  9
$LUNITS
 70
     2
  9
$LUPREC
 70
     6
  9
$SKETCHINC
 40
1.0
  9
$FILLETRAD
 40
0.0
  9
$AUNITS
 70
     0
  9
$AUPREC
 70
     8
  9
$MENU
  1
.
  9
$ELEVATION
 40
0.0
  9
$PELEVATION
 40
0.0
  9
$THICKNESS
 40
0.0
  9
$LIMCHECK
 70
     0
  9
$CHAMFERA
 40
0.0
  9
$CHAMFERB
 40
0.0
  9
$SKPOLY
 70
     0
  9
$TDCREATE
 40
2460063.310990093
  9
$TDUPDATE
 40
2460063.311564873
  9
$TDINDWG
 40
0.0000000116
  9
$TDUSRTIMER
 40
0.0000000116
  9
$USRTIMER
 70
     1
  9
$ANGBASE
 50
0.0
  9
$ANGDIR
 70
     0
  9
$PDMODE
 70
     0
  9
$PDSIZE
 40
-1.0
  9
$PLINEWID
 40
0.0
  9
$COORDS
 70
     1
  9
$SPLFRAME
 70
     0
  9
$SPLINETYPE
 70
     6
  9
$SPLINESEGS
 70
     8
  9
$ATTDIA
 70
     0
  9
$ATTREQ
 70
     1
  9
$HANDLING
 70
     1
  9
$HANDSEED
  5
44A
  9
$SURFTAB1
 70
     6
  9
$SURFTAB2
 70
     6
  9
$SURFTYPE
 70
     6
  9
$SURFU
 70
     6
  9
$SURFV
 70
     6
  9
$UCSNAME
  2

  9
$UCSORG
 10
0.0
 20
0.0
 30
0.0
  9
$UCSXDIR
 10
1.0
 20
0.0
 30
0.0
  9
$UCSYDIR
 10
0.0
 20
1.0
 30
0.0
  9
$PUCSNAME
  2

  9
$PUCSORG
 10
0.0
 20
0.0
 30
0.0
  9
$PUCSXDIR
 10
1.0
 20
0.0
 30
0.0
  9
$PUCSYDIR
 10
0.0
 20
1.0
 30
0.0
  9
$USERI1
 70
     0
  9
$USERI2
 70
     0
  9
$USERI3
 70
     0
  9
$USERI4
 70
     0
  9
$USERI5
 70
     0
  9
$USERR1
 40
0.0
  9
$USERR2
 40
0.0
  9
$USERR3
 40
0.0
  9
$USERR4
 40
0.0
  9
$USERR5
 40
0.0
  9
$WORLDVIEW
 70
     1
  9
$SHADEDGE
 70
     3
  9
$SHADEDIF
 70
    70
  9
$TILEMODE
 70
     1
  9
$MAXACTVP
 70
    64
  9
$PLIMCHECK
 70
     0
  9
$PEXTMIN
 10
1.0000000000E+20
 20
1.0000000000E+20
 30
1.0000000000E+20
  9
$PEXTMAX
 10
-1.0000000000E+20
 20
-1.0000000000E+20
 30
-1.0000000000E+20
  9
$PLIMMIN
 10
0.0
 20
0.0
  9
$PLIMMAX
 10
420.0
 20
297.0
  9
$UNITMODE
 70
     0
  9
$VISRETAIN
 70
     1
  9
$PLINEGEN
 70
     0
  9
$PSLTSCALE
 70
     1
  0
ENDSEC
  0
SECTION
  2
TABLES
  0
TABLE
  2
VPORT
 70
     1
  0
VPORT
  2
*ACTIVE
 70
     0
 10
0.0
 20
0.0
 11
1.0
 21
1.0
 12
-54.3867221555
 22
5.250929068
 13
0.0
 23
0.0
 14
10.0
 24
10.0
 15
10.0
 25
10.0
 16
0.0
 26
0.0
 36
1.0
 17
0.0
 27
0.0
 37
0.0
 40
29.4951952988
 41
4.5521350795
 42
50.0
 43
0.0
 44
0.0
 50
0.0
 51
0.0
 71
     0
 72
   100
 73
     1
 74
     3
 75
     0
 76
     0
 77
     0
 78
     0
  0
ENDTAB
  0
TABLE
  2
LTYPE
 70
     6
  0
LTYPE
  2
CONTINUOUS
 70
     0
  3
Solid line
 72
    65
 73
     0
 40
0.0
  0
LTYPE
  2
HIDDEN
 70
     0
  3
Hidden __ __ __ __ __ __ __ __ __ __ __ __ __ __
 72
    65
 73
     2
 40
1.905
 49
1.27
 49
-0.635
  0
LTYPE
  2
PHANTOM
 70
     0
  3
Phantom ______  __  __  ______  __  __  ______
 72
    65
 73
     6
 40
12.7
 49
6.35
 49
-1.27
 49
1.27
 49
-1.27
 49
1.27
 49
-1.27
  0
LTYPE
  2
CENTER
 70
     0
  3
Center ____ _ ____ _ ____ _ ____ _ ____ _ ____
 72
    65
 73
     4
 40
10.16
 49
6.35
 49
-1.27
 49
1.27
 49
-1.27
  0
LTYPE
  2
CENTERX2
 70
     0
  3
Center (2x) ________  __  ________  __  _____
 72
    65
 73
     4
 40
20.32
 49
12.7
 49
-2.54
 49
2.54
 49
-2.54
  0
LTYPE
  2
DOT2
 70
     0
  3
Dot (.5x) ........................................
 72
    65
 73
     2
 40
0.635
 49
0.0
 49
-0.635
  0
ENDTAB
  0
TABLE
  2
LAYER
 70
     5
  0
LAYER
  2
0
 70
     0
 62
     7
  6
CONTINUOUS
  0
LAYER
  2
DEFPOINTS
 70
     0
 62
     7
  6
CONTINUOUS
  0
LAYER
  2
CUT
 70
     0
 62
     1
  6
CONTINUOUS
  0
LAYER
  2
BEND
 70
     0
 62
     3
  6
CONTINUOUS
  0
LAYER
  2
ENGRAVE
 70
     0
 62
     5
  6
HIDDEN
  0
ENDTAB
  0
TABLE
  2
STYLE
 70
     1
  0
STYLE
  2
STANDARD
 70
     0
 40
0.0
 41
1.0
 50
0.0
 71
     0
 42
3.0
  3
txt
  4

  0
ENDTAB
  0
TABLE
  2
VIEW
 70
     0
  0
ENDTAB
  0
TABLE
  2
UCS
 70
     0
  0
ENDTAB
  0
TABLE
  2
APPID
 70
     1
  0
APPID
  2
ACAD
 70
     0
  0
ENDTAB
  0
TABLE
  2
DIMSTYLE
 70
     1
  0
DIMSTYLE
  2
ISO-25
 70
     0
  3

  4

  5

  6

  7

 40
1.0
 41
2.5
 42
0.625
 43
3.75
 44
1.25
 45
0.0
 46
0.0
 47
0.0
 48
0.0
140
2.5
141
2.5
142
0.0
143
0.0393700787
144
1.0
145
0.0
146
1.0
147
0.625
 71
     0
 72
     0
 73
     0
 74
     0
 75
     0
 76
     0
 77
     1
 78
     8
170
     0
171
     3
172
     1
173
     0
174
     0
175
     0
176
     0
177
     0
178
     0
  0
ENDTAB
  0
ENDSEC
  0
SECTION
  2
BLOCKS
  0
BLOCK
  8
0
  2
$MODEL_SPACE
 70
     0
 10
0.0
 20
0.0
 30
0.0
  3
$MODEL_SPACE
  1

  0
ENDBLK
  5
21
  8
0
  0
BLOCK
 67
     1
  8
0
  2
$PAPER_SPACE
 70
     0
 10
0.0
 20
0.0
 30
0.0
  3
$PAPER_SPACE
  1

  0
ENDBLK
  5
1D
 67
     1
  8
0
  0
ENDSEC
  0
SECTION
  2
ENTITIES
  0
CIRCLE
  5
67
  8
CUT
 10
-9.983058136
 20
16.209358136
 30
0.0
 40
1.199999999999999
  0
CIRCLE
  5
68
  8
CUT
 10
-95.377858136
 20
16.209358136
 30
0.0
 40
1.199999999999999
  0
CIRCLE
  5
69
  8
CUT
 10
-74.847858136
 20
-2.7525
 30
0.0
 40
1.999999999999986
  0
CIRCLE
  5
6A
  8
CUT
 10
-69.847858136
 20
-2.7525
 30
0.0
 40
2.0
  0
CIRCLE
  5
6B
  8
CUT
 10
-64.847858136
 20
-2.7525
 30
0.0
 40
2.0
  0
CIRCLE
  5
6C
  8
CUT
 10
-60.347858136
 20
-2.7525
 30
0.0
 40
2.0
  0
CIRCLE
  5
6D
  8
CUT
 10
-55.847858136
 20
-2.7525
 30
0.0
 40
2.000000000000007
  0
CIRCLE
  5
76
  8
CUT
 10
-74.847858136
 20
4.7632
 30
0.0
 40
1.600000000000023
  0
CIRCLE
  5
77
  8
CUT
 10
-69.847858136
 20
4.7632
 30
0.0
 40
1.599999999999994
  0
LINE
  5
AD
  8
CUT
 10
-29.127858136
 20
0.6975
 30
0.0
 11
-50.627858136
 21
0.6975
 31
0.0
  0
LINE
  5
AE
  8
CUT
 10
-52.627858136
 20
-1.3025
 30
0.0
 11
-52.627858136
 21
-2.8025
 31
0.0
  0
LINE
  5
AF
  8
CUT
 10
-50.627858136
 20
-4.8025
 30
0.0
 11
-29.127858136
 21
-4.8025
 31
0.0
  0
LINE
  5
B0
  8
CUT
 10
-27.127858136
 20
-2.8025
 30
0.0
 11
-27.127858136
 21
-1.3025
 31
0.0
  0
LINE
  5
B1
  8
CUT
 10
-100.147858136
 20
5.1435
 30
0.0
 11
-100.147858136
 21
7.2075
 31
0.0
  0
LINE
  5
B2
  8
CUT
 10
-98.877858136
 20
16.209358136
 30
0.0
 11
-98.877858136
 21
5.1435
 31
0.0
  0
LINE
  5
B3
  8
CUT
 10
-91.877858136
 20
5.1435
 30
0.0
 11
-91.877858136
 21
16.209358136
 31
0.0
  0
LINE
  5
B4
  8
CUT
 10
-90.607858136
 20
7.2075
 30
0.0
 11
-90.607858136
 21
5.1435
 31
0.0
  0
LINE
  5
B5
  8
CUT
 10
-16.753058136
 20
9.2075
 30
0.0
 11
-88.607858136
 21
9.2075
 31
0.0
  0
LINE
  5
B6
  8
CUT
 10
-14.753058136
 20
5.1435
 30
0.0
 11
-14.753058136
 21
7.2075
 31
0.0
  0
LINE
  5
B7
  8
CUT
 10
-13.483058136
 20
16.209358136
 30
0.0
 11
-13.483058136
 21
5.1435
 31
0.0
  0
LINE
  5
B8
  8
CUT
 10
-6.483058136
 20
5.4925
 30
0.0
 11
-6.483058136
 21
16.209358136
 31
0.0
  0
LINE
  5
B9
  8
CUT
 10
-4.483058136
 20
3.4925
 30
0.0
 11
2.794
 21
3.4925
 31
0.0
  0
LINE
  5
BA
  8
CUT
 10
2.794
 20
4.7625
 30
0.0
 11
0.73
 21
4.7625
 31
0.0
  0
LINE
  5
BB
  8
CUT
 10
-1.27
 20
6.7625
 30
0.0
 11
-1.27
 21
10.3825
 31
0.0
  0
LINE
  5
BC
  8
CUT
 10
0.8702
 20
12.3825
 30
0.0
 11
0.73
 21
12.3825
 31
0.0
  0
LINE
  5
BD
  8
CUT
 10
2.8702
 20
10.3825
 30
0.0
 11
2.8702
 21
9.2075
 31
0.0
  0
LINE
  5
BE
  8
CUT
 10
7.2898
 20
9.2075
 30
0.0
 11
7.2898
 21
10.3825
 31
0.0
  0
LINE
  5
BF
  8
CUT
 10
9.2898
 20
12.3825
 30
0.0
 11
9.43
 21
12.3825
 31
0.0
  0
LINE
  5
C0
  8
CUT
 10
11.43
 20
10.3825
 30
0.0
 11
11.43
 21
6.7625
 31
0.0
  0
LINE
  5
C1
  8
CUT
 10
9.43
 20
4.7625
 30
0.0
 11
7.439
 21
4.7625
 31
0.0
  0
LINE
  5
C2
  8
CUT
 10
7.439
 20
4.7625
 30
0.0
 11
7.439
 21
1.7145
 31
0.0
  0
LINE
  5
C3
  8
CUT
 10
7.439
 20
1.7145
 30
0.0
 11
9.43
 21
1.7145
 31
0.0
  0
LINE
  5
C4
  8
CUT
 10
11.43
 20
-0.2855
 30
0.0
 11
11.43
 21
-4.6675
 31
0.0
  0
LINE
  5
C5
  8
CUT
 10
-2.957858136
 20
-6.6675
 30
0.0
 11
9.43
 21
-6.6675
 31
0.0
  0
LINE
  5
C6
  8
CUT
 10
-4.9120716984
 20
-8.6217135624
 30
0.0
 11
-2.957858136
 21
-6.6675
 31
0.0
  0
LINE
  5
C7
  8
CUT
 10
-107.6494310113
 20
-9.2075
 30
0.0
 11
-6.3262852608
 21
-9.2075
 31
0.0
  0
LINE
  5
C8
  8
CUT
 10
-112.592658136
 20
-5.0927
 30
0.0
 11
-109.0636445737
 21
-8.6217135624
 31
0.0
  0
LINE
  5
C9
  8
CUT
 10
-112.592658136
 20
-5.0927
 30
0.0
 11
-118.2034443111
 21
-5.0927
 31
0.0
  0
LINE
  5
CA
  8
CUT
 10
-120.2034443111
 20
-3.0927
 30
0.0
 11
-120.2034443111
 21
3.0927
 31
0.0
  0
LINE
  5
CB
  8
CUT
 10
-118.2034443111
 20
5.0927
 30
0.0
 11
-112.592658136
 21
5.0927
 31
0.0
  0
LINE
  5
CC
  8
CUT
 10
-109.0636445737
 20
8.6217135624
 30
0.0
 11
-112.592658136
 21
5.0927
 31
0.0
  0
LINE
  5
CD
  8
CUT
 10
-102.147858136
 20
9.2075
 30
0.0
 11
-107.6494310113
 21
9.2075
 31
0.0
  0
ARC
  5
CE
  8
CUT
 10
-50.627858136
 20
-1.3025
 30
0.0
 40
2.000000000000014
 50
90.0
 51
180.0
  0
ARC
  5
CF
  8
CUT
 10
-50.627858136
 20
-2.8025
 30
0.0
 40
2.000000000000007
 50
180.0
 51
270.0
  0
ARC
  5
D0
  8
CUT
 10
-29.127858136
 20
-2.8025
 30
0.0
 40
2.000000000000008
 50
270.0
 51
0.0
  0
ARC
  5
D1
  8
CUT
 10
-29.127858136
 20
-1.3025
 30
0.0
 40
2.000000000000008
 50
0.0
 51
90.0
  0
ARC
  5
D2
  8
CUT
 10
-102.147858136
 20
7.2075
 30
0.0
 40
2.0
 50
0.0
 51
90.0
  0
ARC
  5
D3
  8
CUT
 10
-99.512858136
 20
5.1435
 30
0.0
 40
0.6350000000000051
 50
180.0
 51
0.0
  0
ARC
  5
D4
  8
CUT
 10
-95.377858136
 20
16.209358136
 30
0.0
 40
3.5
 50
0.0
 51
180.0
  0
ARC
  5
D5
  8
CUT
 10
-91.242858136
 20
5.1435
 30
0.0
 40
0.6350000000000051
 50
180.0
 51
0.0
  0
ARC
  5
D6
  8
CUT
 10
-88.607858136
 20
7.2075
 30
0.0
 40
2.000000000000014
 50
90.0
 51
180.0
  0
ARC
  5
D7
  8
CUT
 10
-16.753058136
 20
7.2075
 30
0.0
 40
1.999999999999998
 50
0.0
 51
90.0
  0
ARC
  5
D8
  8
CUT
 10
-14.118058136
 20
5.1435
 30
0.0
 40
0.634999999999998
 50
180.0
 51
0.0
  0
ARC
  5
D9
  8
CUT
 10
-9.983058136
 20
16.209358136
 30
0.0
 40
3.500000000000004
 50
0.0
 51
180.0
  0
ARC
  5
DA
  8
CUT
 10
-4.483058136
 20
5.4925
 30
0.0
 40
2.000000000000002
 50
180.0
 51
270.0
  0
ARC
  5
DB
  8
CUT
 10
2.794
 20
4.1275
 30
0.0
 40
0.6350000000000025
 50
270.0
 51
90.0
  0
ARC
  5
DC
  8
CUT
 10
0.73
 20
6.7625
 30
0.0
 40
2.000000000000002
 50
180.0
 51
270.0
  0
ARC
  5
DD
  8
CUT
 10
0.73
 20
10.3825
 30
0.0
 40
1.999999999999995
 50
90.0
 51
180.0
  0
ARC
  5
DE
  8
CUT
 10
0.8702
 20
10.3825
 30
0.0
 40
1.999999999999993
 50
0.0
 51
90.0
  0
ARC
  5
DF
  8
CUT
 10
5.08
 20
9.2075
 30
0.0
 40
2.209800000000001
 50
180.0
 51
0.0
  0
ARC
  5
E0
  8
CUT
 10
9.2898
 20
10.3825
 30
0.0
 40
2.000000000000002
 50
90.0
 51
180.0
  0
ARC
  5
E1
  8
CUT
 10
9.43
 20
10.3825
 30
0.0
 40
2.000000000000007
 50
0.0
 51
90.0
  0
ARC
  5
E2
  8
CUT
 10
9.43
 20
6.7625
 30
0.0
 40
2.0
 50
270.0
 51
0.0
  0
ARC
  5
E3
  8
CUT
 10
9.43
 20
-0.2855
 30
0.0
 40
2.000000000000004
 50
0.0
 51
90.0
  0
ARC
  5
E4
  8
CUT
 10
9.43
 20
-4.6675
 30
0.0
 40
1.999999999999996
 50
270.0
 51
0.0
  0
ARC
  5
E5
  8
CUT
 10
-6.3262852608
 20
-7.2075
 30
0.0
 40
1.999999999999923
 50
270.0
 51
315.0
  0
ARC
  5
E6
  8
CUT
 10
-107.6494310113
 20
-7.2075
 30
0.0
 40
2.000000000000048
 50
225.0
 51
270.0
  0
ARC
  5
E7
  8
CUT
 10
-118.2034443111
 20
-3.0927
 30
0.0
 40
2.0
 50
180.0
 51
270.0
  0
ARC
  5
E8
  8
CUT
 10
-118.2034443111
 20
3.0927
 30
0.0
 40
2.0
 50
90.0
 51
180.0
  0
ARC
  5
E9
  8
CUT
 10
-107.6494310113
 20
7.2075
 30
0.0
 40
1.999999999999955
 50
90.0
 51
135.0
  0
LINE
  5
EC
  8
0
  6
CONTINUOUS
 62
     7
 10
-0.071929068
 20
3.4925
 30
0.0
 11
-0.071929068
 21
-6.6675
 31
0.0
  0
LINE
  5
ED
  8
0
  6
CONTINUOUS
 62
     7
 10
-112.681320862
 20
5.0927
 30
0.0
 11
-112.681320862
 21
-5.0927
 31
0.0
  0
LINE
  5
F0
  8
0
  6
CONTINUOUS
 62
     7
 10
-6.483058136
 20
8.009429068
 30
0.0
 11
-13.483058136
 21
8.009429068
 31
0.0
  0
LINE
  5
F1
  8
0
  6
CONTINUOUS
 62
     7
 10
-91.877858136
 20
8.009429068
 30
0.0
 11
-98.877858136
 21
8.009429068
 31
0.0
  0
ARC
  5
F2
  8
ENGRAVE
 10
-93.8227428267
 20
3.2005044933
 30
0.0
 40
0.1523339053025921
 50
126.1749512682
 51
144.2289990785
  0
ARC
  5
F3
  8
ENGRAVE
 10
-93.7509925497
 20
3.1488119294
 30
0.0
 40
0.2407659323335201
 50
144.229034504
 51
157.0419018795
  0
ARC
  5
F4
  8
ENGRAVE
 10
-93.7231056486
 20
3.1369987272
 30
0.0
 40
0.2710517540563737
 50
157.0419064369
 51
169.1306345632
  0
ARC
  5
F5
  8
ENGRAVE
 10
-93.720697164
 20
3.1365364922
 30
0.0
 40
0.2735041935527849
 50
169.13068202
 51
181.1380462254
  0
ARC
  5
F6
  8
ENGRAVE
 10
-93.2754175647
 20
3.1453820085
 30
0.0
 40
0.7188716426169799
 50
181.1380397282
 51
188.8123461878
  0
ARC
  5
F7
  8
ENGRAVE
 10
83.7699051673
 20
30.5924163014
 30
0.0
 40
179.8790960026861
 50
188.8123161765
 51
188.9672439407
  0
ARC
  5
F8
  8
ENGRAVE
 10
-5.9583601969
 20
16.4334590796
 30
0.0
 40
89.04057072361877
 50
188.9672592219
 51
189.3330351677
  0
ARC
  5
F9
  8
ENGRAVE
 10
55.680401228
 20
26.5637341529
 30
0.0
 40
151.5062363572581
 50
189.3330520006
 51
189.578736209
  0
ARC
  5
FA
  8
ENGRAVE
 10
-249.6705752502
 20
-24.965744095
 30
0.0
 40
158.1621442770697
 50
9.3458090057
 51
9.5786589736
  0
ARC
  5
FB
  8
ENGRAVE
 10
-175.2699266556
 20
-12.721077876
 30
0.0
 40
82.76062995471294
 50
8.9676538198
 51
9.3458056214
  0
ARC
  5
FC
  8
ENGRAVE
 10
-93.4973473747
 20
-0.3088422465
 30
0.0
 40
0.0526102496792098
 50
338.7651134061
 51
8.9186276893
  0
ARC
  5
FD
  8
ENGRAVE
 10
-93.4589305051
 20
-0.3237700695
 30
0.0
 40
0.0113950125570962
 50
236.1684216889
 51
338.765039513
  0
ARC
  5
FE
  8
ENGRAVE
 10
140.3783475342
 20
348.5633513255
 30
0.0
 40
420.0138903338126
 50
236.0935759418
 51
236.1685188188
  0
ARC
  5
FF
  8
ENGRAVE
 10
-63.1411732354
 20
45.7676593003
 30
0.0
 40
55.17772649681398
 50
235.4495527904
 51
236.0935556571
  0
ARC
  5
100
  8
ENGRAVE
 10
-31.8985431194
 20
91.1405862229
 30
0.0
 40
110.2667856109157
 50
235.0659751051
 51
235.4496272864
  0
ARC
  5
101
  8
ENGRAVE
 10
-160.1872349593
 20
-92.5246867202
 30
0.0
 40
113.7665175814792
 50
55.0660547366
 51
55.4398520707
  0
ARC
  5
102
  8
ENGRAVE
 10
-129.8969823134
 20
-48.5510783418
 30
0.0
 40
60.37009785909514
 50
55.4398615314
 51
56.0405491083
  0
ARC
  5
103
  8
ENGRAVE
 10
-257.8391168017
 20
-238.5227311272
 30
0.0
 40
289.4081266652626
 50
56.0405233233
 51
56.1509895776
  0
ARC
  5
104
  8
ENGRAVE
 10
-96.6793786305
 20
1.7699173725
 30
0.0
 40
0.0761060895628497
 50
56.1510434578
 51
89.9999336547
  0
ARC
  5
105
  8
ENGRAVE
 10
-96.6793785667
 20
1.7889016047
 30
0.0
 40
0.057121857320442
 50
89.9999755799
 51
133.9601549472
  0
ARC
  5
106
  8
ENGRAVE
 10
25.5949762965
 20
-125.0061619585
 30
0.0
 40
176.2048042184875
 50
133.9601730541
 51
134.1251848705
  0
ARC
  5
107
  8
ENGRAVE
 10
-68.9504476787
 20
-27.5285536493
 30
0.0
 40
40.4081867483545
 50
134.1252562282
 51
134.9448115649
  0
ARC
  5
108
  8
ENGRAVE
 10
-43.5586219377
 20
-52.9692355125
 30
0.0
 40
76.3522141816231
 50
134.9448682226
 51
135.4538830908
  0
ARC
  5
109
  8
ENGRAVE
 10
-98.1143761518
 20
-2.1746275653
 30
0.0
 40
1.839775821688088
 50
135.4074098099
 51
139.1885881408
  0
ARC
  5
10A
  8
ENGRAVE
 10
-98.4999356616
 20
-1.8416899792
 30
0.0
 40
1.330360890865476
 50
139.1885070132
 51
144.0098084672
  0
ARC
  5
10B
  8
ENGRAVE
 10
-98.6227239888
 20
-1.7525094241
 30
0.0
 40
1.178604030335191
 50
144.0098763327
 51
148.4857118767
  0
ARC
  5
10C
  8
ENGRAVE
 10
-99.5580514173
 20
-1.1790190964
 30
0.0
 40
0.0814583907744673
 50
148.485745576
 51
179.999966927
  0
ARC
  5
10D
  8
ENGRAVE
 10
-99.419801322
 20
-1.1790190545
 30
0.0
 40
0.2197084860692715
 50
179.999998645
 51
203.9469011328
  0
ARC
  5
10E
  8
ENGRAVE
 10
-99.2540202211
 20
-1.1053927124
 30
0.0
 40
0.4011036669519238
 50
203.9468825503
 51
219.2080494864
  0
ARC
  5
10F
  8
ENGRAVE
 10
-99.2532507641
 20
-1.1047657678
 30
0.0
 40
0.4020962007495154
 50
219.2079623426
 51
234.4520165648
  0
ARC
  5
110
  8
ENGRAVE
 10
-99.3575595681
 20
-1.2507428995
 30
0.0
 40
0.2226814589990856
 50
234.4519676624
 51
258.1771448622
  0
ARC
  5
111
  8
ENGRAVE
 10
-99.594927346
 20
-2.3846956342
 30
0.0
 40
0.9358487592356289
 50
68.2541848736
 51
78.1771090443
  0
ARC
  5
112
  8
ENGRAVE
 10
-2745.9719001094
 20
-6642.0896054202
 30
0.0
 40
7148.591828956961
 50
68.2163724065
 51
68.2424992818
  0
ARC
  5
113
  8
ENGRAVE
 10
-94.8540474199
 20
-8.3251814299
 30
0.0
 40
4.695392008321189
 50
63.8754933925
 51
68.2163900223
  0
ARC
  5
114
  8
ENGRAVE
 10
-92.4646175779
 20
-3.4530236467
 30
0.0
 40
0.731144311931904
 50
243.8755094969
 51
254.138797103
  0
ARC
  5
115
  8
ENGRAVE
 10
-92.5592761443
 20
-3.7861800468
 30
0.0
 40
0.3848013732675593
 50
254.1388429903
 51
270.7315258874
  0
ARC
  5
116
  8
ENGRAVE
 10
-92.557651977
 20
-3.9133944216
 30
0.0
 40
0.257576630934246
 50
270.7315559036
 51
291.5017497965
  0
ARC
  5
117
  8
ENGRAVE
 10
-92.5242402005
 20
-3.9982080232
 30
0.0
 40
0.1664191089136864
 50
291.5018080423
 51
320.309843624
  0
ARC
  5
118
  8
ENGRAVE
 10
-92.5544868421
 20
-3.9731053386
 30
0.0
 40
0.2057256489923462
 50
320.309797358
 51
336.5128080691
  0
ARC
  5
119
  8
ENGRAVE
 10
-98.6737932088
 20
-1.3139831433
 30
0.0
 40
6.87781986742548
 50
336.5128198829
 51
337.7976069837
  0
ARC
  5
11A
  8
ENGRAVE
 10
-97.9939495824
 20
-1.5914484533
 30
0.0
 40
6.143534940017389
 50
337.7975477622
 51
339.5209723236
  0
ARC
  5
11B
  8
ENGRAVE
 10
-100.5915511575
 20
-0.6213260546
 30
0.0
 40
8.91638030384893
 50
339.520956983
 51
340.8245365003
  0
ARC
  5
11C
  8
ENGRAVE
 10
-54.7288272934
 20
-16.5704119015
 30
0.0
 40
39.64041921578049
 50
160.4715749926
 51
160.8245167154
  0
ARC
  5
11D
  8
ENGRAVE
 10
9.8801091101
 20
-39.4858372893
 30
0.0
 40
108.192818035098
 50
160.3046687637
 51
160.4715140441
  0
ARC
  5
11E
  8
ENGRAVE
 10
15.6661667117
 20
-41.5570798655
 30
0.0
 40
114.3384269044953
 50
160.13939666
 51
160.3046376595
  0
ARC
  5
11F
  8
ENGRAVE
 10
-24.0977982556
 20
-27.1937480938
 30
0.0
 40
72.05984829201019
 50
159.9057801313
 51
160.1393176478
  0
ARC
  5
120
  8
ENGRAVE
 10
-125.778102742
 20
10.0043595009
 30
0.0
 40
36.21103204552973
 50
339.905733828
 51
340.585718144
  0
ARC
  5
121
  8
ENGRAVE
 10
-92.775288432
 20
-1.6270142246
 30
0.0
 40
1.218538463009891
 50
340.5857494678
 51
348.4917213549
  0
ARC
  5
122
  8
ENGRAVE
 10
-91.8968187465
 20
-1.8058729738
 30
0.0
 40
0.3220456072403117
 50
348.4917011464
 51
8.056836504
  0
ARC
  5
123
  8
ENGRAVE
 10
-92.0447723246
 20
-1.8268161236
 30
0.0
 40
0.4714741079210404
 50
8.0568296482
 51
22.7607201293
  0
ARC
  5
124
  8
ENGRAVE
 10
-70.7107453627
 20
7.1240117102
 30
0.0
 40
22.66416993591205
 50
201.2360665407
 51
202.7607993293
  0
ARC
  5
125
  8
ENGRAVE
 10
1728.732200554
 20
706.3867728891
 30
0.0
 40
1953.198636031013
 50
201.1728501749
 51
201.2361047139
  0
ARC
  5
126
  8
ENGRAVE
 10
-93.3390441407
 20
3.1932222617
 30
0.0
 40
0.1447248673351003
 50
179.9999955681
 51
201.167457229
  0
ARC
  5
127
  8
ENGRAVE
 10
-93.5701858474
 20
3.1932223037
 30
0.0
 40
0.0864168393232445
 50
359.9999795514
 51
41.2625842141
  0
ARC
  5
128
  8
ENGRAVE
 10
-93.8571030542
 20
2.9414914661
 30
0.0
 40
0.4681103002855809
 50
41.2625562186
 51
53.0790690405
  0
ARC
  5
129
  8
ENGRAVE
 10
-93.8722217613
 20
2.9213713581
 30
0.0
 40
0.4932776213438371
 50
53.0790127785
 51
64.8827253965
  0
ARC
  5
12A
  8
ENGRAVE
 10
-93.7389429407
 20
3.2056682355
 30
0.0
 40
0.1792904265799622
 50
64.8826945551
 51
90.0000404343
  0
ARC
  5
12B
  8
ENGRAVE
 10
-93.7389428169
 20
3.1981377697
 30
0.0
 40
0.1868208923308048
 50
90.0000767686
 51
102.493293317
  0
ARC
  5
12C
  8
ENGRAVE
 10
-93.6916332159
 20
2.9846189028
 30
0.0
 40
0.4055181828183738
 50
102.4932696824
 51
109.4917210936
  0
ARC
  5
12D
  8
ENGRAVE
 10
-93.685579195
 20
2.9675122575
 30
0.0
 40
0.4236644905320314
 50
109.4915963715
 51
116.3925055238
  0
ARC
  5
12E
  8
ENGRAVE
 10
-93.7557031279
 20
3.1088225401
 30
0.0
 40
0.2659116397174126
 50
116.3925177916
 51
126.1749834448
  0
ARC
  5
12F
  8
ENGRAVE
 10
-221.2707742701
 20
-93.7463247912
 30
0.0
 40
156.6194366367342
 50
36.5224763598
 51
36.7374500615
  0
ARC
  5
130
  8
ENGRAVE
 10
-159.0758087325
 20
-47.6866356583
 30
0.0
 40
79.22622827037347
 50
36.1644535134
 51
36.5224372527
  0
ARC
  5
131
  8
ENGRAVE
 10
-94.8579893637
 20
-1.2978574059
 30
0.0
 40
0.00714226234167
 50
313.4810526486
 51
36.1417377442
  0
ARC
  5
132
  8
ENGRAVE
 10
-94.8786565187
 20
-1.2760642618
 30
0.0
 40
0.0371767829595419
 50
265.245641981
 51
313.4809699543
  0
ARC
  5
133
  8
ENGRAVE
 10
-98.7320526888
 20
-0.9246035484
 30
0.0
 40
0.0675902773860607
 50
229.9992274245
 51
265.2311927864
  0
ARC
  5
134
  8
ENGRAVE
 10
-98.7643082233
 20
-0.9630431773
 30
0.0
 40
0.0174103553235004
 50
135.8198487182
 51
229.9991589323
  0
ARC
  5
135
  8
ENGRAVE
 10
-96.6876846351
 20
1.0782120365
 30
0.0
 40
0.0829904037853216
 50
96.742142053
 51
135.7714309533
  0
ARC
  5
136
  8
ENGRAVE
 10
-96.695527252
 20
1.1445520369
 30
0.0
 40
0.0161884405019057
 50
37.5122848926
 51
96.7421908416
  0
ARC
  5
137
  8
ENGRAVE
 10
-145.9841972818
 20
-37.1949208386
 30
0.0
 40
62.45905182930174
 50
37.0139782309
 51
37.4700520338
  0
ARC
  5
138
  8
ENGRAVE
 10
-193.4069299714
 20
-72.948820285
 30
0.0
 40
121.8497657614522
 50
36.7374161401
 51
37.0140400292
  0
ARC
  5
139
  8
ENGRAVE
 10
-124.0398847161
 20
-12.4845738013
 30
0.0
 40
33.64145497527186
 50
20.7342083149
 51
21.284475924
  0
ARC
  5
13A
  8
ENGRAVE
 10
-108.83530343
 20
-6.7288730282
 30
0.0
 40
17.38392184527222
 50
19.832402403
 51
20.7342333179
  0
ARC
  5
13B
  8
ENGRAVE
 10
-175.733109497
 20
-30.8562310205
 30
0.0
 40
88.49964345631723
 50
19.6765096556
 51
19.8323541519
  0
ARC
  5
13C
  8
ENGRAVE
 10
-92.4149422776
 20
-1.0625408464
 30
0.0
 40
0.0147240463567094
 50
314.9999353003
 51
19.6765211378
  0
ARC
  5
13D
  8
ENGRAVE
 10
-92.4123900557
 20
-1.0650930992
 30
0.0
 40
0.0111146376273217
 50
240.8778922914
 51
315.0000269552
  0
ARC
  5
13E
  8
ENGRAVE
 10
-91.3090112879
 20
0.9154965934
 30
0.0
 40
2.278311196310433
 50
239.1584623527
 51
240.8779910211
  0
ARC
  5
13F
  8
ENGRAVE
 10
-91.7040258907
 20
0.2539462312
 30
0.0
 40
1.507801353339687
 50
235.9865779993
 51
239.1584989947
  0
ARC
  5
140
  8
ENGRAVE
 10
-90.9371189585
 20
1.3903515067
 30
0.0
 40
2.87877297701826
 50
234.0316190831
 51
235.986503668
  0
ARC
  5
141
  8
ENGRAVE
 10
-153.3079915569
 20
-9.9071535895
 30
0.0
 40
61.15347551175447
 50
9.169495706
 51
9.403949954
  0
ARC
  5
142
  8
ENGRAVE
 10
-133.1269678579
 20
-6.5646985561
 30
0.0
 40
40.69752959911894
 50
9.4038404999
 51
9.7219464635
  0
ARC
  5
143
  8
ENGRAVE
 10
-143.7693764634
 20
-8.3880020177
 30
0.0
 40
51.49499672983125
 50
9.7219107293
 51
9.9329883213
  0
ARC
  5
144
  8
ENGRAVE
 10
-94.0387930428
 20
0.3208824524
 30
0.0
 40
1.007616167321809
 50
9.9329600704
 51
13.4957829695
  0
ARC
  5
145
  8
ENGRAVE
 10
-93.0508374472
 20
0.5579926994
 30
0.0
 40
0.008394427203337
 50
40.9075775087
 51
193.4957688829
  0
ARC
  5
146
  8
ENGRAVE
 10
-93.2308790681
 20
0.4019941972
 30
0.0
 40
0.2466180993157217
 50
23.8190863282
 51
40.9075556753
  0
ARC
  5
147
  8
ENGRAVE
 10
-100.4840032495
 20
-2.7998921749
 30
0.0
 40
8.175040813257342
 50
21.7108316557
 51
23.8190276937
  0
ARC
  5
148
  8
ENGRAVE
 10
-159.5925558806
 20
-26.3348972505
 30
0.0
 40
71.79671524937447
 50
21.2844849688
 51
21.7107650768
  0
ARC
  5
149
  8
ENGRAVE
 10
-117.1745385622
 20
-32.8828912118
 30
0.0
 40
39.73460257964677
 50
54.2952521182
 51
55.0066342319
  0
ARC
  5
14A
  8
ENGRAVE
 10
-107.3183167723
 20
-19.1689311967
 30
0.0
 40
22.84620990104214
 50
53.2185954615
 51
54.2952898289
  0
ARC
  5
14B
  8
ENGRAVE
 10
-122.4106855424
 20
-39.3570237427
 30
0.0
 40
48.05213531031352
 50
52.7808920973
 51
53.2186313205
  0
ARC
  5
14C
  8
ENGRAVE
 10
-93.4417886777
 20
-1.2183292475
 30
0.0
 40
0.1589520442351112
 50
28.1550158993
 51
52.7808687771
  0
ARC
  5
14D
  8
ENGRAVE
 10
-93.5177257382
 20
-1.2589691186
 30
0.0
 40
0.2450800668530109
 50
18.0373274461
 51
28.1549138513
  0
ARC
  5
14E
  8
ENGRAVE
 10
-93.8351137359
 20
-1.3623233338
 30
0.0
 40
0.5788722700857153
 50
12.7143563634
 51
18.0373228509
  0
ARC
  5
14F
  8
ENGRAVE
 10
-93.863457198
 20
-1.3687180025
 30
0.0
 40
0.6079281409316757
 50
7.4616868815
 51
12.7143316003
  0
ARC
  5
150
  8
ENGRAVE
 10
-93.637951412
 20
-1.3391826771
 30
0.0
 40
0.3804964039592418
 50
0.000011805
 51
7.4616392411
  0
ARC
  5
151
  8
ENGRAVE
 10
-93.6374650424
 20
-1.3391825676
 30
0.0
 40
0.3800100343660817
 50
350.4673534606
 51
359.9999953115
  0
ARC
  5
152
  8
ENGRAVE
 10
-93.3046329246
 20
-1.3950745498
 30
0.0
 40
0.0425176162398114
 50
302.7826865534
 51
350.467371567
  0
ARC
  5
153
  8
ENGRAVE
 10
-93.3168754218
 20
-1.3760653866
 30
0.0
 40
0.0651279462357832
 50
267.4701953781
 51
302.7827277665
  0
ARC
  5
154
  8
ENGRAVE
 10
-93.2735138045
 20
-0.3945902275
 30
0.0
 40
1.047560497496415
 50
262.8137181938
 51
267.4703074376
  0
ARC
  5
155
  8
ENGRAVE
 10
-93.925639073
 20
-5.5666342397
 30
0.0
 40
4.165433520276621
 50
82.8136879226
 51
83.8741106422
  0
ARC
  5
156
  8
ENGRAVE
 10
-95.6938534991
 20
-22.0416605645
 30
0.0
 40
20.73507668661642
 50
83.8740767748
 51
84.1967663918
  0
ARC
  5
157
  8
ENGRAVE
 10
-95.9447966487
 20
-24.5105431379
 30
0.0
 40
23.21667972194274
 50
84.1967113264
 51
84.519630126
  0
ARC
  5
158
  8
ENGRAVE
 10
-95.701960596
 20
-21.979862006
 30
0.0
 40
20.67437440231676
 50
84.5197245351
 51
84.8719787102
  0
ARC
  5
159
  8
ENGRAVE
 10
-42.4136659472
 20
38.8405675594
 30
0.0
 40
65.51550093274197
 50
216.5162830356
 51
216.8841216242
  0
ARC
  5
15A
  8
ENGRAVE
 10
-69.1719817599
 20
19.0287025464
 30
0.0
 40
32.22109508994497
 50
215.8908694496
 51
216.5163086262
  0
ARC
  5
15B
  8
ENGRAVE
 10
71.7592801955
 20
121.0115071507
 30
0.0
 40
206.181185430539
 50
215.8048824583
 51
215.8908261235
  0
ARC
  5
15C
  8
ENGRAVE
 10
-95.4526406662
 20
0.3928042838
 30
0.0
 40
0.0048095782739029
 50
89.9998518846
 51
215.8046791289
  0
ARC
  5
15D
  8
ENGRAVE
 10
-95.4526406533
 20
0.3670420723
 30
0.0
 40
0.0305717897721874
 50
55.6476778254
 51
90.0000009756
  0
ARC
  5
15E
  8
ENGRAVE
 10
-131.3120071645
 20
-52.6696589237
 30
0.0
 40
64.051400271723
 50
55.2343359127
 51
55.6053830566
  0
ARC
  5
15F
  8
ENGRAVE
 10
-164.97221416
 20
-101.1620103912
 30
0.0
 40
123.0812036409221
 50
55.0066712599
 51
55.2342500213
  0
ARC
  5
160
  8
ENGRAVE
 10
-109.9586192621
 20
-166.2059803953
 30
0.0
 40
165.0707812294849
 50
84.8339546197
 51
85.1419765449
  0
ARC
  5
161
  8
ENGRAVE
 10
-95.9924357829
 20
-11.7291417594
 30
0.0
 40
9.963889197217522
 50
82.4484115662
 51
84.833892491
  0
ARC
  5
162
  8
ENGRAVE
 10
-95.1663454792
 20
-5.4977359567
 30
0.0
 40
3.677964963765991
 50
78.6690902674
 51
82.4484356321
  0
ARC
  5
163
  8
ENGRAVE
 10
-94.4687377757
 20
-2.0163270542
 30
0.0
 40
0.1273503050765632
 50
35.6103333675
 51
78.6691872588
  0
ARC
  5
164
  8
ENGRAVE
 10
-91.487144952
 20
0.1191031731
 30
0.0
 40
3.540068135940385
 50
215.6104118477
 51
216.7334001386
  0
ARC
  5
165
  8
ENGRAVE
 10
52.7997798327
 20
107.716089578
 30
0.0
 40
183.5284370512065
 50
216.7860255787
 51
216.8728859763
  0
ARC
  5
166
  8
ENGRAVE
 10
-120.238747557
 20
-22.5104070957
 30
0.0
 40
33.03849002607112
 50
36.408193374
 51
36.9353136161
  0
ARC
  5
167
  8
ENGRAVE
 10
-107.1739925623
 20
-12.8753618981
 30
0.0
 40
16.80513180815925
 50
35.5341124228
 51
36.4082125967
  0
ARC
  5
168
  8
ENGRAVE
 10
-171.2333046959
 20
-58.6257973331
 30
0.0
 40
95.52423885036784
 50
35.398569396
 51
35.534016603
  0
ARC
  5
169
  8
ENGRAVE
 10
-93.3749958221
 20
-3.2977030564
 30
0.0
 40
0.0092438130140282
 50
315.0001240912
 51
35.3987025706
  0
ARC
  5
16A
  8
ENGRAVE
 10
-93.3771088938
 20
-3.2955899349
 30
0.0
 40
0.0122321829149243
 50
248.6066534386
 51
314.9999291345
  0
ARC
  5
16B
  8
ENGRAVE
 10
-37.8697418358
 20
140.1263656097
 30
0.0
 40
153.7994204295759
 50
248.3133314453
 51
248.5917887968
  0
ARC
  5
16C
  8
ENGRAVE
 10
17.1599459876
 20
278.5024550848
 30
0.0
 40
302.716204843832
 50
248.145490962
 51
248.3132529745
  0
ARC
  5
16D
  8
ENGRAVE
 10
-18.7065739968
 20
189.0760250045
 30
0.0
 40
206.3653166661346
 50
247.9006654876
 51
248.1454329646
  0
ARC
  5
16E
  8
ENGRAVE
 10
-59.3106049673
 20
89.0769976077
 30
0.0
 40
98.43713308386965
 50
247.4748381603
 51
247.9006599036
  0
ARC
  5
16F
  8
ENGRAVE
 10
71.6748646166
 20
404.9124979274
 30
0.0
 40
440.3570893665237
 50
247.3926102737
 51
247.4748870096
  0
ARC
  5
170
  8
ENGRAVE
 10
-97.6025923541
 20
-1.602685144
 30
0.0
 40
0.0055803352527449
 50
90.9390404312
 51
247.3925901848
  0
ARC
  5
171
  8
ENGRAVE
 10
-97.5937386228
 20
-2.142810023
 30
0.0
 40
0.5457777745300323
 50
85.4207577361
 51
90.9391080688
  0
ARC
  5
172
  8
ENGRAVE
 10
-113.3690822755
 20
-203.1318766035
 30
0.0
 40
202.1526240454806
 50
85.2361285694
 51
85.383264111
  0
ARC
  5
173
  8
ENGRAVE
 10
-127.054937734
 20
-367.356359228
 30
0.0
 40
366.946384039275
 50
85.1419625022
 51
85.2361567585
  0
ARC
  5
174
  8
ENGRAVE
 10
-93.2100060675
 20
-2.0356443068
 30
0.0
 40
0.0644287119255343
 50
10.332927601
 51
48.0413473181
  0
ARC
  5
175
  8
ENGRAVE
 10
-219.2179746442
 20
-25.0101421656
 30
0.0
 40
128.1496960016165
 50
10.143231458
 51
10.3329950364
  0
ARC
  5
176
  8
ENGRAVE
 10
-254.0219092026
 20
-31.2366893233
 30
0.0
 40
163.5062194484885
 50
9.9930905423
 51
10.1432054631
  0
ARC
  5
177
  8
ENGRAVE
 10
-93.0323965449
 20
-2.869911938
 30
0.0
 40
0.0366588416500396
 50
318.8617585499
 51
9.9930118756
  0
ARC
  5
178
  8
ENGRAVE
 10
-93.0142102711
 20
-2.8857982362
 30
0.0
 40
0.0125110669237698
 50
216.4440426514
 51
318.8618014533
  0
ARC
  5
179
  8
ENGRAVE
 10
222.0502447419
 20
229.7734290139
 30
0.0
 40
391.670431754393
 50
216.3605772253
 51
216.4439998766
  0
ARC
  5
17A
  8
ENGRAVE
 10
96.7232969678
 20
137.507215511
 30
0.0
 40
236.0429984643091
 50
216.2241633521
 51
216.3605272912
  0
ARC
  5
17B
  8
ENGRAVE
 10
-93.6332141227
 20
-1.9360094729
 30
0.0
 40
0.07686888536481
 50
180.0000245687
 51
216.2241366676
  0
ARC
  5
17C
  8
ENGRAVE
 10
-93.6897318897
 20
-1.9360094989
 30
0.0
 40
0.020351118316641
 50
85.5746671963
 51
180.000019782
  0
ARC
  5
17D
  8
ENGRAVE
 10
-94.7137384033
 20
-15.1674963928
 30
0.0
 40
13.29140362986882
 50
84.560248888
 51
85.574606745
  0
ARC
  5
17E
  8
ENGRAVE
 10
-94.2518662671
 20
-10.3171805732
 30
0.0
 40
8.419146512287856
 50
83.0026557768
 51
84.5601602692
  0
ARC
  5
17F
  8
ENGRAVE
 10
-93.2394275105
 20
-2.0683674904
 30
0.0
 40
0.1084335758808715
 50
48.0413127742
 51
83.0026430706
  0
ARC
  5
180
  8
ENGRAVE
 10
-109.0195397515
 20
3.6945786578
 30
0.0
 40
17.79270351182319
 50
339.1741460323
 51
339.7060790941
  0
ARC
  5
181
  8
ENGRAVE
 10
-100.0074691487
 20
0.2665629471
 30
0.0
 40
8.150675288333126
 50
338.2205012524
 51
339.174126703
  0
ARC
  5
182
  8
ENGRAVE
 10
-110.0315501149
 20
4.2717376345
 30
0.0
 40
18.94528614253273
 50
337.8806557619
 51
338.2205340768
  0
ARC
  5
183
  8
ENGRAVE
 10
-92.4827434698
 20
-2.8609965019
 30
0.0
 40
0.0023056239972179
 50
187.7580377043
 51
337.8807457796
  0
ARC
  5
184
  8
ENGRAVE
 10
-92.9565449771
 20
-2.9255444198
 30
0.0
 40
0.47587248301754
 50
7.7578782452
 51
9.842241233
  0
ARC
  5
185
  8
ENGRAVE
 10
-65.5919083353
 20
2.2957107325
 30
0.0
 40
27.3790989779313
 50
189.6717257457
 51
189.990060892
  0
ARC
  5
186
  8
ENGRAVE
 10
-76.487554266
 20
0.4388040334
 30
0.0
 40
16.32635258909239
 50
189.2027719484
 51
189.6716799536
  0
ARC
  5
187
  8
ENGRAVE
 10
-62.7414209995
 20
2.665848723
 30
0.0
 40
30.25172180609589
 50
188.9870628945
 51
189.2027241449
  0
ARC
  5
188
  8
ENGRAVE
 10
-92.4646678247
 20
-2.0349717233
 30
0.0
 40
0.1590463733183997
 50
180.1044405635
 51
188.9870240003
  0
ARC
  5
189
  8
ENGRAVE
 10
-92.6007010562
 20
-2.0352197059
 30
0.0
 40
0.0230129157800332
 50
98.0856353222
 51
180.1043991637
  0
ARC
  5
18A
  8
ENGRAVE
 10
-92.535724618
 20
-2.492588474
 30
0.0
 40
0.4849740911892447
 50
89.0511311432
 51
98.0856597623
  0
ARC
  5
18B
  8
ENGRAVE
 10
-92.540469845
 20
-2.7791064383
 30
0.0
 40
0.7715313472414475
 50
81.2417755967
 51
89.0511458538
  0
ARC
  5
18C
  8
ENGRAVE
 10
-92.6562529794
 20
-3.5306532147
 30
0.0
 40
1.531944584516567
 50
76.5673697948
 51
81.2418279146
  0
LINE
  5
19C
  8
ENGRAVE
 10
-56.222858136
 20
5.1382
 30
0.0
 11
-55.472858136
 21
5.1382
 31
0.0
  0
LINE
  5
19E
  8
ENGRAVE
 10
-55.847858136
 20
6.0132
 30
0.0
 11
-56.722858136
 21
5.1382
 31
0.0
  0
LINE
  5
19F
  8
ENGRAVE
 10
-56.722858136
 20
5.1382
 30
0.0
 11
-56.222858136
 21
5.1382
 31
0.0
  0
LINE
  5
1A0
  8
ENGRAVE
 10
-56.222858136
 20
5.1382
 30
0.0
 11
-56.222858136
 21
3.5132
 31
0.0
  0
LINE
  5
1A1
  8
ENGRAVE
 10
-56.222858136
 20
3.5132
 30
0.0
 11
-55.472858136
 21
3.5132
 31
0.0
  0
LINE
  5
1A2
  8
ENGRAVE
 10
-55.472858136
 20
3.5132
 30
0.0
 11
-55.472858136
 21
5.1382
 31
0.0
  0
LINE
  5
1A3
  8
ENGRAVE
 10
-55.472858136
 20
5.1382
 30
0.0
 11
-54.972858136
 21
5.1382
 31
0.0
  0
LINE
  5
1A4
  8
ENGRAVE
 10
-54.972858136
 20
5.1382
 30
0.0
 11
-55.847858136
 21
6.0132
 31
0.0
  0
LINE
  5
1A6
  8
ENGRAVE
 10
-60.347858136
 20
3.5132
 30
0.0
 11
-59.472858136
 21
4.3882
 31
0.0
  0
LINE
  5
1A7
  8
ENGRAVE
 10
-59.472858136
 20
4.3882
 30
0.0
 11
-59.972858136
 21
4.3882
 31
0.0
  0
LINE
  5
1A8
  8
ENGRAVE
 10
-59.972858136
 20
4.3882
 30
0.0
 11
-59.972858136
 21
6.0132
 31
0.0
  0
LINE
  5
1A9
  8
ENGRAVE
 10
-59.972858136
 20
6.0132
 30
0.0
 11
-60.722858136
 21
6.0132
 31
0.0
  0
LINE
  5
1AA
  8
ENGRAVE
 10
-60.722858136
 20
6.0132
 30
0.0
 11
-60.722858136
 21
4.3882
 31
0.0
  0
LINE
  5
1AB
  8
ENGRAVE
 10
-60.722858136
 20
4.3882
 30
0.0
 11
-61.222858136
 21
4.3882
 31
0.0
  0
LINE
  5
1AC
  8
ENGRAVE
 10
-61.222858136
 20
4.3882
 30
0.0
 11
-60.347858136
 21
3.5132
 31
0.0
  0
LINE
  5
1AF
  8
ENGRAVE
 10
-64.847858136
 20
3.5132
 30
0.0
 11
-63.972858136
 21
4.3882
 31
0.0
  0
LINE
  5
1B0
  8
ENGRAVE
 10
-63.972858136
 20
4.3882
 30
0.0
 11
-64.472858136
 21
4.3882
 31
0.0
  0
LINE
  5
1B1
  8
ENGRAVE
 10
-64.472858136
 20
4.3882
 30
0.0
 11
-64.472858136
 21
6.0132
 31
0.0
  0
LINE
  5
1B2
  8
ENGRAVE
 10
-64.472858136
 20
6.0132
 30
0.0
 11
-65.222858136
 21
6.0132
 31
0.0
  0
LINE
  5
1B3
  8
ENGRAVE
 10
-65.222858136
 20
6.0132
 30
0.0
 11
-65.222858136
 21
4.3882
 31
0.0
  0
LINE
  5
1B4
  8
ENGRAVE
 10
-65.222858136
 20
4.3882
 30
0.0
 11
-65.722858136
 21
4.3882
 31
0.0
  0
LINE
  5
1B5
  8
ENGRAVE
 10
-65.722858136
 20
4.3882
 30
0.0
 11
-64.847858136
 21
3.5132
 31
0.0
  0
LINE
  5
1BF
  8
ENGRAVE
 10
-93.5209214385
 20
0.1793878718
 30
0.0
 11
-93.4453732085
 21
-0.3006859965
 31
0.0
  0
LINE
  5
1C0
  8
ENGRAVE
 10
-97.9737807864
 20
0.5905544228
 30
0.0
 11
-98.4627492475
 21
0.0938022085
 31
0.0
  0
LINE
  5
1C1
  8
ENGRAVE
 10
-98.4627492475
 20
0.0938022085
 30
0.0
 11
-98.9096725505
 21
-0.3601810502
 31
0.0
  0
LINE
  5
1C2
  8
ENGRAVE
 10
-98.9096725505
 20
-0.3601810502
 30
0.0
 11
-99.2843534826
 21
-0.7407358264
 31
0.0
  0
LINE
  5
1C3
  8
ENGRAVE
 10
-99.2843534826
 20
-0.7407358264
 30
0.0
 11
-99.424511508
 21
-0.8829927784
 31
0.0
  0
LINE
  5
1C4
  8
ENGRAVE
 10
-99.2482051168
 20
-1.5154450397
 30
0.0
 11
-96.1388375111
 21
-2.7560637617
 31
0.0
  0
LINE
  5
1C5
  8
ENGRAVE
 10
-92.6158664958
 20
0.925129391
 30
0.0
 11
-93.4740042831
 21
3.1409628398
 31
0.0
  0
LINE
  5
1C6
  8
ENGRAVE
 10
-95.1143695706
 20
-0.9348491011
 30
0.0
 11
-94.852221555
 21
-1.2936450082
 31
0.0
  0
LINE
  5
1C7
  8
ENGRAVE
 10
-94.8817378795
 20
-1.3131131269
 30
0.0
 11
-96.8120647205
 21
-1.1524625046
 31
0.0
  0
LINE
  5
1C8
  8
ENGRAVE
 10
-96.8120647205
 20
-1.1524625046
 30
0.0
 11
-98.7376718284
 21
-0.9919598463
 31
0.0
  0
LINE
  5
1C9
  8
ENGRAVE
 10
-98.7767940959
 20
-0.9509096098
 30
0.0
 11
-97.7586443896
 21
0.0964599044
 31
0.0
  0
LINE
  5
1CA
  8
ENGRAVE
 10
-97.7586443896
 20
0.0964599044
 30
0.0
 11
-96.7471524791
 21
1.1360997091
 31
0.0
  0
LINE
  5
1CB
  8
ENGRAVE
 10
-96.682686212
 20
1.1544096886
 30
0.0
 11
-96.4122325631
 21
0.8018351985
 31
0.0
  0
LINE
  5
1CC
  8
ENGRAVE
 10
-92.6279337394
 20
-0.9395581975
 30
0.0
 11
-92.8346886424
 21
-0.7895159986
 31
0.0
  0
LINE
  5
1CD
  8
ENGRAVE
 10
-92.8346886424
 20
-0.7895159986
 30
0.0
 11
-92.9359812668
 21
-0.1620039909
 31
0.0
  0
LINE
  5
1CE
  8
ENGRAVE
 10
-93.8540557823
 20
-1.3882373803
 30
0.0
 11
-94.1564483565
 21
-1.3611007022
 31
0.0
  0
LINE
  5
1CF
  8
ENGRAVE
 10
-94.1564483565
 20
-1.3611007022
 30
0.0
 11
-94.8163063379
 21
-0.4817434427
 31
0.0
  0
LINE
  5
1D0
  8
ENGRAVE
 10
-95.4353895975
 20
0.3922816326
 30
0.0
 11
-95.1300449835
 21
0.1834156273
 31
0.0
  0
LINE
  5
1D1
  8
ENGRAVE
 10
-94.3242515876
 20
-1.9981847964
 30
0.0
 11
-94.1840066123
 21
-2.1859291877
 31
0.0
  0
LINE
  5
1D2
  8
ENGRAVE
 10
-94.0172263205
 20
-2.4086302204
 30
0.0
 11
-93.8306052614
 21
-2.6571493354
 31
0.0
  0
LINE
  5
1D3
  8
ENGRAVE
 10
-93.3815708109
 20
-3.3069792982
 30
0.0
 11
-94.0081009779
 21
-3.0614353976
 31
0.0
  0
LINE
  5
1D4
  8
ENGRAVE
 10
-97.5501649286
 20
-1.5987744429
 30
0.0
 11
-97.0978021233
 21
-1.6351549163
 31
0.0
  0
LINE
  5
1D5
  8
ENGRAVE
 10
-92.3003793936
 20
-2.0406169061
 30
0.0
 11
-92.1806655338
 21
-2.0692087379
 31
0.0
  0
LINE
  5
1D6
  8
ENGRAVE
 10
-92.1806655338
 20
-2.0692087379
 30
0.0
 11
-92.3313051564
 21
-2.4765739379
 31
0.0
  0
LINE
  5
1D7
  8
ENGRAVE
 10
-92.4876763168
 20
-2.8442007079
 30
0.0
 11
-92.5071130231
 21
-2.7323087579
 31
0.0
  0
LINE
  5
1D8
  8
ENGRAVE
 10
-92.5071130231
 20
-2.7323087579
 30
0.0
 11
-92.5296851289
 21
-2.6030312307
 31
0.0
  0
LINE
  5
1D9
  8
ENGRAVE
 10
-92.5296851289
 20
-2.6030312307
 30
0.0
 11
-92.555881608
 21
-2.4539425379
 31
0.0
  0
POLYLINE
  5
1DA
  8
ENGRAVE
 66
     1
 10
0.0
 20
0.0
 30
0.0
 70
   128
  0
VERTEX
  5
1EB
  8
ENGRAVE
 10
-75.1549494822
 20
2.70535
 30
0.0
  0
VERTEX
  5
1EC
  8
ENGRAVE
 10
-74.6555504437
 20
2.70535
 30
0.0
  0
VERTEX
  5
1ED
  8
ENGRAVE
 10
-74.6555504437
 20
2.70535
 30
0.0
  0
VERTEX
  5
1EE
  8
ENGRAVE
 10
-73.4440119822
 20
-0.29465
 30
0.0
  0
VERTEX
  5
1EF
  8
ENGRAVE
 10
-73.4440119822
 20
-0.29465
 30
0.0
  0
VERTEX
  5
1F0
  8
ENGRAVE
 10
-74.0191321745
 20
-0.29465
 30
0.0
  0
VERTEX
  5
1F1
  8
ENGRAVE
 10
-74.0191321745
 20
-0.29465
 30
0.0
  0
VERTEX
  5
1F2
  8
ENGRAVE
 10
-74.2523052514
 20
0.3207346154
 30
0.0
  0
VERTEX
  5
1F3
  8
ENGRAVE
 10
-74.2523052514
 20
0.3207346154
 30
0.0
  0
VERTEX
  5
1F4
  8
ENGRAVE
 10
-75.5593965976
 20
0.3207346154
 30
0.0
  0
VERTEX
  5
1F5
  8
ENGRAVE
 10
-75.5593965976
 20
0.3207346154
 30
0.0
  0
VERTEX
  5
1F6
  8
ENGRAVE
 10
-75.7925696745
 20
-0.29465
 30
0.0
  0
VERTEX
  5
1F7
  8
ENGRAVE
 10
-75.7925696745
 20
-0.29465
 30
0.0
  0
VERTEX
  5
1F8
  8
ENGRAVE
 10
-76.3670889053
 20
-0.29465
 30
0.0
  0
VERTEX
  5
1F9
  8
ENGRAVE
 10
-76.3670889053
 20
-0.29465
 30
0.0
  0
VERTEX
  5
1FA
  8
ENGRAVE
 10
-75.1549494822
 20
2.70535
 30
0.0
  0
SEQEND
  5
43C
  8
ENGRAVE
  0
POLYLINE
  5
1DB
  8
ENGRAVE
 66
     1
 10
0.0
 20
0.0
 30
0.0
 70
   128
  0
VERTEX
  5
1FB
  8
ENGRAVE
 10
-74.9055504437
 20
1.9006625
 30
0.0
  0
VERTEX
  5
1FC
  8
ENGRAVE
 10
-75.3550696745
 20
0.8591961538
 30
0.0
  0
VERTEX
  5
1FD
  8
ENGRAVE
 10
-75.3550696745
 20
0.8591961538
 30
0.0
  0
VERTEX
  5
1FE
  8
ENGRAVE
 10
-74.456031213
 20
0.8591961538
 30
0.0
  0
VERTEX
  5
1FF
  8
ENGRAVE
 10
-74.456031213
 20
0.8591961538
 30
0.0
  0
VERTEX
  5
200
  8
ENGRAVE
 10
-74.9055504437
 20
1.9006625
 30
0.0
  0
SEQEND
  5
43D
  8
ENGRAVE
  0
POLYLINE
  5
1DC
  8
ENGRAVE
 66
     1
 10
0.0
 20
0.0
 30
0.0
 70
   128
  0
VERTEX
  5
201
  8
ENGRAVE
 10
-70.6940119822
 20
-0.29465
 30
0.0
  0
VERTEX
  5
202
  8
ENGRAVE
 10
-70.6940119822
 20
2.70535
 30
0.0
  0
VERTEX
  5
203
  8
ENGRAVE
 10
-70.6940119822
 20
2.70535
 30
0.0
  0
VERTEX
  5
204
  8
ENGRAVE
 10
-70.2132427514
 20
2.70535
 30
0.0
  0
VERTEX
  5
205
  8
ENGRAVE
 10
-70.2132427514
 20
2.70535
 30
0.0
  0
VERTEX
  5
206
  8
ENGRAVE
 10
-70.112281213
 20
2.7047490385
 30
0.0
  0
VERTEX
  5
207
  8
ENGRAVE
 10
-70.0179302514
 20
2.7017442308
 30
0.0
  0
VERTEX
  5
208
  8
ENGRAVE
 10
-69.9313917899
 20
2.6975375
 30
0.0
  0
VERTEX
  5
209
  8
ENGRAVE
 10
-69.8508629437
 20
2.6921288462
 30
0.0
  0
VERTEX
  5
20A
  8
ENGRAVE
 10
-69.7781465976
 20
2.6843163462
 30
0.0
  0
VERTEX
  5
20B
  8
ENGRAVE
 10
-69.7120408284
 20
2.6753019231
 30
0.0
  0
VERTEX
  5
20C
  8
ENGRAVE
 10
-69.6531465976
 20
2.6644846154
 30
0.0
  0
VERTEX
  5
20D
  8
ENGRAVE
 10
-69.6014639053
 20
2.6518644231
 30
0.0
  0
VERTEX
  5
20E
  8
ENGRAVE
 10
-69.6014639053
 20
2.6518644231
 30
0.0
  0
VERTEX
  5
20F
  8
ENGRAVE
 10
-69.534156213
 20
2.6320326923
 30
0.0
  0
VERTEX
  5
210
  8
ENGRAVE
 10
-69.4710552514
 20
2.6079942308
 30
0.0
  0
VERTEX
  5
211
  8
ENGRAVE
 10
-69.4109590976
 20
2.58035
 30
0.0
  0
VERTEX
  5
212
  8
ENGRAVE
 10
-69.354468713
 20
2.5491
 30
0.0
  0
VERTEX
  5
213
  8
ENGRAVE
 10
-69.3015840976
 20
2.5136432692
 30
0.0
  0
VERTEX
  5
214
  8
ENGRAVE
 10
-69.2523052514
 20
2.4739798077
 30
0.0
  0
VERTEX
  5
215
  8
ENGRAVE
 10
-69.206031213
 20
2.4307105769
 30
0.0
  0
VERTEX
  5
216
  8
ENGRAVE
 10
-69.1639639053
 20
2.3838355769
 30
0.0
  0
VERTEX
  5
217
  8
ENGRAVE
 10
-69.1261033284
 20
2.3339557692
 30
0.0
  0
VERTEX
  5
218
  8
ENGRAVE
 10
-69.0930504437
 20
2.2816721154
 30
0.0
  0
VERTEX
  5
219
  8
ENGRAVE
 10
-69.0648052514
 20
2.2275855769
 30
0.0
  0
VERTEX
  5
21A
  8
ENGRAVE
 10
-69.041968713
 20
2.1710951923
 30
0.0
  0
VERTEX
  5
21B
  8
ENGRAVE
 10
-69.0245408284
 20
2.1122009615
 30
0.0
  0
VERTEX
  5
21C
  8
ENGRAVE
 10
-69.011920636
 20
2.0515038462
 30
0.0
  0
VERTEX
  5
21D
  8
ENGRAVE
 10
-69.004108136
 20
1.9884028846
 30
0.0
  0
VERTEX
  5
21E
  8
ENGRAVE
 10
-69.0017042899
 20
1.9228980769
 30
0.0
  0
VERTEX
  5
21F
  8
ENGRAVE
 10
-69.0017042899
 20
1.9228980769
 30
0.0
  0
VERTEX
  5
220
  8
ENGRAVE
 10
-69.0065119822
 20
1.8387634615
 30
0.0
  0
VERTEX
  5
221
  8
ENGRAVE
 10
-69.019733136
 20
1.7582346154
 30
0.0
  0
VERTEX
  5
222
  8
ENGRAVE
 10
-69.043170636
 20
1.6819125
 30
0.0
  0
VERTEX
  5
223
  8
ENGRAVE
 10
-69.0750215976
 20
1.6091961538
 30
0.0
  0
VERTEX
  5
224
  8
ENGRAVE
 10
-69.1170889053
 20
1.5400855769
 30
0.0
  0
VERTEX
  5
225
  8
ENGRAVE
 10
-69.1711754437
 20
1.4727778846
 30
0.0
  0
VERTEX
  5
226
  8
ENGRAVE
 10
-69.2360792899
 20
1.4078740385
 30
0.0
  0
VERTEX
  5
227
  8
ENGRAVE
 10
-69.3130023668
 20
1.3447730769
 30
0.0
  0
VERTEX
  5
228
  8
ENGRAVE
 10
-69.3130023668
 20
1.3447730769
 30
0.0
  0
VERTEX
  5
229
  8
ENGRAVE
 10
-69.2499014053
 20
1.3117201923
 30
0.0
  0
VERTEX
  5
22A
  8
ENGRAVE
 10
-69.1910071745
 20
1.2768644231
 30
0.0
  0
VERTEX
  5
22B
  8
ENGRAVE
 10
-69.136920636
 20
1.2402057692
 30
0.0
  0
VERTEX
  5
22C
  8
ENGRAVE
 10
-69.0864398668
 20
1.2011432692
 30
0.0
  0
VERTEX
  5
22D
  8
ENGRAVE
 10
-69.0413677514
 20
1.1602778846
 30
0.0
  0
VERTEX
  5
22E
  8
ENGRAVE
 10
-68.9999014053
 20
1.1176096154
 30
0.0
  0
VERTEX
  5
22F
  8
ENGRAVE
 10
-68.9632427514
 20
1.0725375
 30
0.0
  0
VERTEX
  5
230
  8
ENGRAVE
 10
-68.9307908284
 20
1.0256625
 30
0.0
  0
VERTEX
  5
231
  8
ENGRAVE
 10
-68.902545636
 20
0.9769846154
 30
0.0
  0
VERTEX
  5
232
  8
ENGRAVE
 10
-68.877906213
 20
0.9259028846
 30
0.0
  0
VERTEX
  5
233
  8
ENGRAVE
 10
-68.8568725591
 20
0.8724173077
 30
0.0
  0
VERTEX
  5
234
  8
ENGRAVE
 10
-68.8394446745
 20
0.8171288462
 30
0.0
  0
VERTEX
  5
235
  8
ENGRAVE
 10
-68.8262235207
 20
0.7594365385
 30
0.0
  0
VERTEX
  5
236
  8
ENGRAVE
 10
-68.8172090976
 20
0.6999413462
 30
0.0
  0
VERTEX
  5
237
  8
ENGRAVE
 10
-68.8111994822
 20
0.6380423077
 30
0.0
  0
VERTEX
  5
238
  8
ENGRAVE
 10
-68.8093965976
 20
0.5737394231
 30
0.0
  0
VERTEX
  5
239
  8
ENGRAVE
 10
-68.8093965976
 20
0.5737394231
 30
0.0
  0
VERTEX
  5
23A
  8
ENGRAVE
 10
-68.8178100591
 20
0.4511432692
 30
0.0
  0
VERTEX
  5
23B
  8
ENGRAVE
 10
-68.8418485207
 20
0.3339557692
 30
0.0
  0
VERTEX
  5
23C
  8
ENGRAVE
 10
-68.8833148668
 20
0.2221769231
 30
0.0
  0
VERTEX
  5
23D
  8
ENGRAVE
 10
-68.940406213
 20
0.1158067308
 30
0.0
  0
VERTEX
  5
23E
  8
ENGRAVE
 10
-69.010718713
 20
0.0190519231
 30
0.0
  0
VERTEX
  5
23F
  8
ENGRAVE
 10
-69.0906465976
 20
-0.0644817308
 30
0.0
  0
VERTEX
  5
240
  8
ENGRAVE
 10
-69.1795889053
 20
-0.1347942308
 30
0.0
  0
VERTEX
  5
241
  8
ENGRAVE
 10
-69.2787475591
 20
-0.1924865385
 30
0.0
  0
VERTEX
  5
242
  8
ENGRAVE
 10
-69.3328340976
 20
-0.216525
 30
0.0
  0
VERTEX
  5
243
  8
ENGRAVE
 10
-69.3917283284
 20
-0.2369576923
 30
0.0
  0
VERTEX
  5
244
  8
ENGRAVE
 10
-69.456031213
 20
-0.2549865385
 30
0.0
  0
VERTEX
  5
245
  8
ENGRAVE
 10
-69.5251417899
 20
-0.2688086538
 30
0.0
  0
VERTEX
  5
246
  8
ENGRAVE
 10
-69.5990600591
 20
-0.2802269231
 30
0.0
  0
VERTEX
  5
247
  8
ENGRAVE
 10
-69.6777860207
 20
-0.2880394231
 30
0.0
  0
VERTEX
  5
248
  8
ENGRAVE
 10
-69.7613196745
 20
-0.2928471154
 30
0.0
  0
VERTEX
  5
249
  8
ENGRAVE
 10
-69.8502619822
 20
-0.29465
 30
0.0
  0
VERTEX
  5
24A
  8
ENGRAVE
 10
-69.8502619822
 20
-0.29465
 30
0.0
  0
VERTEX
  5
24B
  8
ENGRAVE
 10
-70.6940119822
 20
-0.29465
 30
0.0
  0
SEQEND
  5
43E
  8
ENGRAVE
  0
POLYLINE
  5
1DD
  8
ENGRAVE
 66
     1
 10
0.0
 20
0.0
 30
0.0
 70
   128
  0
VERTEX
  5
24C
  8
ENGRAVE
 10
-70.1555504437
 20
2.1668884615
 30
0.0
  0
VERTEX
  5
24D
  8
ENGRAVE
 10
-70.1555504437
 20
1.5130423077
 30
0.0
  0
VERTEX
  5
24E
  8
ENGRAVE
 10
-70.1555504437
 20
1.5130423077
 30
0.0
  0
VERTEX
  5
24F
  8
ENGRAVE
 10
-70.0125215976
 20
1.5130423077
 30
0.0
  0
VERTEX
  5
250
  8
ENGRAVE
 10
-70.0125215976
 20
1.5130423077
 30
0.0
  0
VERTEX
  5
251
  8
ENGRAVE
 10
-69.9542283284
 20
1.5142442308
 30
0.0
  0
VERTEX
  5
252
  8
ENGRAVE
 10
-69.9001417899
 20
1.5184509615
 30
0.0
  0
VERTEX
  5
253
  8
ENGRAVE
 10
-69.8502619822
 20
1.5256625
 30
0.0
  0
VERTEX
  5
254
  8
ENGRAVE
 10
-69.8033869822
 20
1.5358788462
 30
0.0
  0
VERTEX
  5
255
  8
ENGRAVE
 10
-69.7613196745
 20
1.5484990385
 30
0.0
  0
VERTEX
  5
256
  8
ENGRAVE
 10
-69.7222571745
 20
1.5641240385
 30
0.0
  0
VERTEX
  5
257
  8
ENGRAVE
 10
-69.6874014053
 20
1.5827538462
 30
0.0
  0
VERTEX
  5
258
  8
ENGRAVE
 10
-69.6567523668
 20
1.6037875
 30
0.0
  0
VERTEX
  5
259
  8
ENGRAVE
 10
-69.605670636
 20
1.6530663462
 30
0.0
  0
VERTEX
  5
25A
  8
ENGRAVE
 10
-69.5690119822
 20
1.7107586538
 30
0.0
  0
VERTEX
  5
25B
  8
ENGRAVE
 10
-69.5473773668
 20
1.7768644231
 30
0.0
  0
VERTEX
  5
25C
  8
ENGRAVE
 10
-69.5401658284
 20
1.8507826923
 30
0.0
  0
VERTEX
  5
25D
  8
ENGRAVE
 10
-69.5401658284
 20
1.8507826923
 30
0.0
  0
VERTEX
  5
25E
  8
ENGRAVE
 10
-69.5467764053
 20
1.9198932692
 30
0.0
  0
VERTEX
  5
25F
  8
ENGRAVE
 10
-69.5678100591
 20
1.9811913462
 30
0.0
  0
VERTEX
  5
260
  8
ENGRAVE
 10
-69.6020648668
 20
2.0352778846
 30
0.0
  0
VERTEX
  5
261
  8
ENGRAVE
 10
-69.6507427514
 20
2.0815519231
 30
0.0
  0
VERTEX
  5
262
  8
ENGRAVE
 10
-69.6801898668
 20
2.1013836538
 30
0.0
  0
VERTEX
  5
263
  8
ENGRAVE
 10
-69.7132427514
 20
2.1188115385
 30
0.0
  0
VERTEX
  5
264
  8
ENGRAVE
 10
-69.7493004437
 20
2.1338355769
 30
0.0
  0
VERTEX
  5
265
  8
ENGRAVE
 10
-69.7895648668
 20
2.1458548077
 30
0.0
  0
VERTEX
  5
266
  8
ENGRAVE
 10
-69.8334350591
 20
2.1548692308
 30
0.0
  0
VERTEX
  5
267
  8
ENGRAVE
 10
-69.8809110207
 20
2.1614798077
 30
0.0
  0
VERTEX
  5
268
  8
ENGRAVE
 10
-69.9319927514
 20
2.1656865385
 30
0.0
  0
VERTEX
  5
269
  8
ENGRAVE
 10
-69.9866802514
 20
2.1668884615
 30
0.0
  0
VERTEX
  5
26A
  8
ENGRAVE
 10
-69.9866802514
 20
2.1668884615
 30
0.0
  0
VERTEX
  5
26B
  8
ENGRAVE
 10
-70.1555504437
 20
2.1668884615
 30
0.0
  0
SEQEND
  5
43F
  8
ENGRAVE
  0
POLYLINE
  5
1DE
  8
ENGRAVE
 66
     1
 10
0.0
 20
0.0
 30
0.0
 70
   128
  0
VERTEX
  5
26C
  8
ENGRAVE
 10
-70.1555504437
 20
1.0130423077
 30
0.0
  0
VERTEX
  5
26D
  8
ENGRAVE
 10
-70.1555504437
 20
0.2438115385
 30
0.0
  0
VERTEX
  5
26E
  8
ENGRAVE
 10
-70.1555504437
 20
0.2438115385
 30
0.0
  0
VERTEX
  5
26F
  8
ENGRAVE
 10
-70.0005023668
 20
0.2438115385
 30
0.0
  0
VERTEX
  5
270
  8
ENGRAVE
 10
-70.0005023668
 20
0.2438115385
 30
0.0
  0
VERTEX
  5
271
  8
ENGRAVE
 10
-69.9085552514
 20
0.2450134615
 30
0.0
  0
VERTEX
  5
272
  8
ENGRAVE
 10
-69.8238196745
 20
0.2492201923
 30
0.0
  0
VERTEX
  5
273
  8
ENGRAVE
 10
-69.7474975591
 20
0.2564317308
 30
0.0
  0
VERTEX
  5
274
  8
ENGRAVE
 10
-69.6783869822
 20
0.2660471154
 30
0.0
  0
VERTEX
  5
275
  8
ENGRAVE
 10
-69.6176898668
 20
0.2786673077
 30
0.0
  0
VERTEX
  5
276
  8
ENGRAVE
 10
-69.5648052514
 20
0.2942923077
 30
0.0
  0
VERTEX
  5
277
  8
ENGRAVE
 10
-69.5191321745
 20
0.3123211538
 30
0.0
  0
VERTEX
  5
278
  8
ENGRAVE
 10
-69.4818725591
 20
0.3333548077
 30
0.0
  0
VERTEX
  5
279
  8
ENGRAVE
 10
-69.4506225591
 20
0.3573932692
 30
0.0
  0
VERTEX
  5
27A
  8
ENGRAVE
 10
-69.4229783284
 20
0.3832346154
 30
0.0
  0
VERTEX
  5
27B
  8
ENGRAVE
 10
-69.4001417899
 20
0.4120807692
 30
0.0
  0
VERTEX
  5
27C
  8
ENGRAVE
 10
-69.3815119822
 20
0.4439317308
 30
0.0
  0
VERTEX
  5
27D
  8
ENGRAVE
 10
-69.3664879437
 20
0.4775855769
 30
0.0
  0
VERTEX
  5
27E
  8
ENGRAVE
 10
-69.3562715976
 20
0.5142442308
 30
0.0
  0
VERTEX
  5
27F
  8
ENGRAVE
 10
-69.3496610207
 20
0.5533067308
 30
0.0
  0
VERTEX
  5
280
  8
ENGRAVE
 10
-69.347858136
 20
0.5947730769
 30
0.0
  0
VERTEX
  5
281
  8
ENGRAVE
 10
-69.347858136
 20
0.5947730769
 30
0.0
  0
VERTEX
  5
282
  8
ENGRAVE
 10
-69.3502619822
 20
0.6422490385
 30
0.0
  0
VERTEX
  5
283
  8
ENGRAVE
 10
-69.3574735207
 20
0.6867201923
 30
0.0
  0
VERTEX
  5
284
  8
ENGRAVE
 10
-69.370093713
 20
0.7287875
 30
0.0
  0
VERTEX
  5
285
  8
ENGRAVE
 10
-69.386920636
 20
0.7684509615
 30
0.0
  0
VERTEX
  5
286
  8
ENGRAVE
 10
-69.409156213
 20
0.8051096154
 30
0.0
  0
VERTEX
  5
287
  8
ENGRAVE
 10
-69.4361994822
 20
0.8393644231
 30
0.0
  0
VERTEX
  5
288
  8
ENGRAVE
 10
-69.4686514053
 20
0.8712153846
 30
0.0
  0
VERTEX
  5
289
  8
ENGRAVE
 10
-69.5053100591
 20
0.9006625
 30
0.0
  0
VERTEX
  5
28A
  8
ENGRAVE
 10
-69.5479783284
 20
0.9271048077
 30
0.0
  0
VERTEX
  5
28B
  8
ENGRAVE
 10
-69.596656213
 20
0.9499413462
 30
0.0
  0
VERTEX
  5
28C
  8
ENGRAVE
 10
-69.6519446745
 20
0.9691721154
 30
0.0
  0
VERTEX
  5
28D
  8
ENGRAVE
 10
-69.713843713
 20
0.9847971154
 30
0.0
  0
VERTEX
  5
28E
  8
ENGRAVE
 10
-69.7823533284
 20
0.9974173077
 30
0.0
  0
VERTEX
  5
28F
  8
ENGRAVE
 10
-69.8574735207
 20
1.0058307692
 30
0.0
  0
VERTEX
  5
290
  8
ENGRAVE
 10
-69.9392042899
 20
1.0112394231
 30
0.0
  0
VERTEX
  5
291
  8
ENGRAVE
 10
-70.0269446745
 20
1.0130423077
 30
0.0
  0
VERTEX
  5
292
  8
ENGRAVE
 10
-70.0269446745
 20
1.0130423077
 30
0.0
  0
VERTEX
  5
293
  8
ENGRAVE
 10
-70.1555504437
 20
1.0130423077
 30
0.0
  0
SEQEND
  5
440
  8
ENGRAVE
  0
POLYLINE
  5
1DF
  8
ENGRAVE
 66
     1
 10
0.0
 20
0.0
 30
0.0
 70
   128
  0
VERTEX
  5
294
  8
ENGRAVE
 10
-64.8761033284
 20
2.7822730769
 30
0.0
  0
VERTEX
  5
295
  8
ENGRAVE
 10
-64.7979783284
 20
2.7798692308
 30
0.0
  0
VERTEX
  5
296
  8
ENGRAVE
 10
-64.722858136
 20
2.7720567308
 30
0.0
  0
VERTEX
  5
297
  8
ENGRAVE
 10
-64.6501417899
 20
2.7594365385
 30
0.0
  0
VERTEX
  5
298
  8
ENGRAVE
 10
-64.5804302514
 20
2.7420086538
 30
0.0
  0
VERTEX
  5
299
  8
ENGRAVE
 10
-64.5131225591
 20
2.7191721154
 30
0.0
  0
VERTEX
  5
29A
  8
ENGRAVE
 10
-64.4488196745
 20
2.6915278846
 30
0.0
  0
VERTEX
  5
29B
  8
ENGRAVE
 10
-64.3875215976
 20
2.658475
 30
0.0
  0
VERTEX
  5
29C
  8
ENGRAVE
 10
-64.3286273668
 20
2.6206144231
 30
0.0
  0
VERTEX
  5
29D
  8
ENGRAVE
 10
-64.2727379437
 20
2.5779461538
 30
0.0
  0
VERTEX
  5
29E
  8
ENGRAVE
 10
-64.2198533284
 20
2.5292682692
 30
0.0
  0
VERTEX
  5
29F
  8
ENGRAVE
 10
-64.1705744822
 20
2.4757826923
 30
0.0
  0
VERTEX
  5
2A0
  8
ENGRAVE
 10
-64.1249014053
 20
2.4168884615
 30
0.0
  0
VERTEX
  5
2A1
  8
ENGRAVE
 10
-64.082233136
 20
2.3525855769
 30
0.0
  0
VERTEX
  5
2A2
  8
ENGRAVE
 10
-64.0425696745
 20
2.2828740385
 30
0.0
  0
VERTEX
  5
2A3
  8
ENGRAVE
 10
-64.0065119822
 20
2.2083548077
 30
0.0
  0
VERTEX
  5
2A4
  8
ENGRAVE
 10
-63.9734590976
 20
2.1278259615
 30
0.0
  0
VERTEX
  5
2A5
  8
ENGRAVE
 10
-63.9440119822
 20
2.0406865385
 30
0.0
  0
VERTEX
  5
2A6
  8
ENGRAVE
 10
-63.9187715976
 20
1.9457346154
 30
0.0
  0
VERTEX
  5
2A7
  8
ENGRAVE
 10
-63.8971369822
 20
1.8423692308
 30
0.0
  0
VERTEX
  5
2A8
  8
ENGRAVE
 10
-63.879108136
 20
1.7311913462
 30
0.0
  0
VERTEX
  5
2A9
  8
ENGRAVE
 10
-63.8652860207
 20
1.6116
 30
0.0
  0
VERTEX
  5
2AA
  8
ENGRAVE
 10
-63.855670636
 20
1.4835951923
 30
0.0
  0
VERTEX
  5
2AB
  8
ENGRAVE
 10
-63.8496610207
 20
1.3477778846
 30
0.0
  0
VERTEX
  5
2AC
  8
ENGRAVE
 10
-63.847858136
 20
1.2041480769
 30
0.0
  0
VERTEX
  5
2AD
  8
ENGRAVE
 10
-63.847858136
 20
1.2041480769
 30
0.0
  0
VERTEX
  5
2AE
  8
ENGRAVE
 10
-63.8496610207
 20
1.0587153846
 30
0.0
  0
VERTEX
  5
2AF
  8
ENGRAVE
 10
-63.855670636
 20
0.9216961538
 30
0.0
  0
VERTEX
  5
2B0
  8
ENGRAVE
 10
-63.8658869822
 20
0.7930903846
 30
0.0
  0
VERTEX
  5
2B1
  8
ENGRAVE
 10
-63.8797090976
 20
0.6722971154
 30
0.0
  0
VERTEX
  5
2B2
  8
ENGRAVE
 10
-63.8977379437
 20
0.5605182692
 30
0.0
  0
VERTEX
  5
2B3
  8
ENGRAVE
 10
-63.9193725591
 20
0.4565519231
 30
0.0
  0
VERTEX
  5
2B4
  8
ENGRAVE
 10
-63.9452139053
 20
0.3603980769
 30
0.0
  0
VERTEX
  5
2B5
  8
ENGRAVE
 10
-63.9752619822
 20
0.2732586538
 30
0.0
  0
VERTEX
  5
2B6
  8
ENGRAVE
 10
-64.0083148668
 20
0.1927298077
 30
0.0
  0
VERTEX
  5
2B7
  8
ENGRAVE
 10
-64.0443725591
 20
0.1182105769
 30
0.0
  0
VERTEX
  5
2B8
  8
ENGRAVE
 10
-64.0834350591
 20
0.0484990385
 30
0.0
  0
VERTEX
  5
2B9
  8
ENGRAVE
 10
-64.1243004437
 20
-0.0152028846
 30
0.0
  0
VERTEX
  5
2BA
  8
ENGRAVE
 10
-64.1687715976
 20
-0.0734961538
 30
0.0
  0
VERTEX
  5
2BB
  8
ENGRAVE
 10
-64.2156465976
 20
-0.1263807692
 30
0.0
  0
VERTEX
  5
2BC
  8
ENGRAVE
 10
-64.2655264053
 20
-0.1732557692
 30
0.0
  0
VERTEX
  5
2BD
  8
ENGRAVE
 10
-64.3178100591
 20
-0.2153230769
 30
0.0
  0
VERTEX
  5
2BE
  8
ENGRAVE
 10
-64.3730985207
 20
-0.2519817308
 30
0.0
  0
VERTEX
  5
2BF
  8
ENGRAVE
 10
-64.4319927514
 20
-0.2838326923
 30
0.0
  0
VERTEX
  5
2C0
  8
ENGRAVE
 10
-64.4944927514
 20
-0.310275
 30
0.0
  0
VERTEX
  5
2C1
  8
ENGRAVE
 10
-64.5605985207
 20
-0.3325105769
 30
0.0
  0
VERTEX
  5
2C2
  8
ENGRAVE
 10
-64.6303100591
 20
-0.3493375
 30
0.0
  0
VERTEX
  5
2C3
  8
ENGRAVE
 10
-64.7036273668
 20
-0.3619576923
 30
0.0
  0
VERTEX
  5
2C4
  8
ENGRAVE
 10
-64.7799494822
 20
-0.3691692308
 30
0.0
  0
VERTEX
  5
2C5
  8
ENGRAVE
 10
-64.8604783284
 20
-0.3715730769
 30
0.0
  0
VERTEX
  5
2C6
  8
ENGRAVE
 10
-64.8604783284
 20
-0.3715730769
 30
0.0
  0
VERTEX
  5
2C7
  8
ENGRAVE
 10
-64.9410071745
 20
-0.3691692308
 30
0.0
  0
VERTEX
  5
2C8
  8
ENGRAVE
 10
-65.0179302514
 20
-0.3619576923
 30
0.0
  0
VERTEX
  5
2C9
  8
ENGRAVE
 10
-65.0912475591
 20
-0.3493375
 30
0.0
  0
VERTEX
  5
2CA
  8
ENGRAVE
 10
-65.1615600591
 20
-0.3325105769
 30
0.0
  0
VERTEX
  5
2CB
  8
ENGRAVE
 10
-65.2288677514
 20
-0.310275
 30
0.0
  0
VERTEX
  5
2CC
  8
ENGRAVE
 10
-65.293170636
 20
-0.2832317308
 30
0.0
  0
VERTEX
  5
2CD
  8
ENGRAVE
 10
-65.3538677514
 20
-0.2513807692
 30
0.0
  0
VERTEX
  5
2CE
  8
ENGRAVE
 10
-65.4109590976
 20
-0.2147221154
 30
0.0
  0
VERTEX
  5
2CF
  8
ENGRAVE
 10
-65.465045636
 20
-0.1726548077
 30
0.0
  0
VERTEX
  5
2D0
  8
ENGRAVE
 10
-65.5161273668
 20
-0.1257798077
 30
0.0
  0
VERTEX
  5
2D1
  8
ENGRAVE
 10
-65.5648052514
 20
-0.0734961538
 30
0.0
  0
VERTEX
  5
2D2
  8
ENGRAVE
 10
-65.6098773668
 20
-0.0164048077
 30
0.0
  0
VERTEX
  5
2D3
  8
ENGRAVE
 10
-65.6519446745
 20
0.0454942308
 30
0.0
  0
VERTEX
  5
2D4
  8
ENGRAVE
 10
-65.6910071745
 20
0.1128019231
 30
0.0
  0
VERTEX
  5
2D5
  8
ENGRAVE
 10
-65.7270648668
 20
0.1855182692
 30
0.0
  0
VERTEX
  5
2D6
  8
ENGRAVE
 10
-65.7601177514
 20
0.2630423077
 30
0.0
  0
VERTEX
  5
2D7
  8
ENGRAVE
 10
-65.7895648668
 20
0.3477778846
 30
0.0
  0
VERTEX
  5
2D8
  8
ENGRAVE
 10
-65.815406213
 20
0.4403259615
 30
0.0
  0
VERTEX
  5
2D9
  8
ENGRAVE
 10
-65.8370408284
 20
0.5418884615
 30
0.0
  0
VERTEX
  5
2DA
  8
ENGRAVE
 10
-65.854468713
 20
0.6518644231
 30
0.0
  0
VERTEX
  5
2DB
  8
ENGRAVE
 10
-65.8682908284
 20
0.7702538462
 30
0.0
  0
VERTEX
  5
2DC
  8
ENGRAVE
 10
-65.8785071745
 20
0.8970567308
 30
0.0
  0
VERTEX
  5
2DD
  8
ENGRAVE
 10
-65.8845167899
 20
1.0322730769
 30
0.0
  0
VERTEX
  5
2DE
  8
ENGRAVE
 10
-65.8863196745
 20
1.1759028846
 30
0.0
  0
VERTEX
  5
2DF
  8
ENGRAVE
 10
-65.8863196745
 20
1.1759028846
 30
0.0
  0
VERTEX
  5
2E0
  8
ENGRAVE
 10
-65.8827139053
 20
1.3754221154
 30
0.0
  0
VERTEX
  5
2E1
  8
ENGRAVE
 10
-65.8706946745
 20
1.5605182692
 30
0.0
  0
VERTEX
  5
2E2
  8
ENGRAVE
 10
-65.8514639053
 20
1.7317923077
 30
0.0
  0
VERTEX
  5
2E3
  8
ENGRAVE
 10
-65.824420636
 20
1.8886432692
 30
0.0
  0
VERTEX
  5
2E4
  8
ENGRAVE
 10
-65.7901658284
 20
2.0310711538
 30
0.0
  0
VERTEX
  5
2E5
  8
ENGRAVE
 10
-65.7474975591
 20
2.1596769231
 30
0.0
  0
VERTEX
  5
2E6
  8
ENGRAVE
 10
-65.6976177514
 20
2.2738596154
 30
0.0
  0
VERTEX
  5
2E7
  8
ENGRAVE
 10
-65.6399254437
 20
2.3742201923
 30
0.0
  0
VERTEX
  5
2E8
  8
ENGRAVE
 10
-65.6399254437
 20
2.3742201923
 30
0.0
  0
VERTEX
  5
2E9
  8
ENGRAVE
 10
-65.5678100591
 20
2.4697730769
 30
0.0
  0
VERTEX
  5
2EA
  8
ENGRAVE
 10
-65.4890840976
 20
2.5527057692
 30
0.0
  0
VERTEX
  5
2EB
  8
ENGRAVE
 10
-65.4037475591
 20
2.6230182692
 30
0.0
  0
VERTEX
  5
2EC
  8
ENGRAVE
 10
-65.3118004437
 20
2.6801096154
 30
0.0
  0
VERTEX
  5
2ED
  8
ENGRAVE
 10
-65.2126417899
 20
2.7251817308
 30
0.0
  0
VERTEX
  5
2EE
  8
ENGRAVE
 10
-65.1074735207
 20
2.7570326923
 30
0.0
  0
VERTEX
  5
2EF
  8
ENGRAVE
 10
-64.995093713
 20
2.7756625
 30
0.0
  0
VERTEX
  5
2F0
  8
ENGRAVE
 10
-64.8761033284
 20
2.7822730769
 30
0.0
  0
SEQEND
  5
441
  8
ENGRAVE
  0
POLYLINE
  5
1E0
  8
ENGRAVE
 66
     1
 10
0.0
 20
0.0
 30
0.0
 70
   128
  0
VERTEX
  5
2F1
  8
ENGRAVE
 10
-64.8628821745
 20
2.2438115385
 30
0.0
  0
VERTEX
  5
2F2
  8
ENGRAVE
 10
-64.9331946745
 20
2.2378019231
 30
0.0
  0
VERTEX
  5
2F3
  8
ENGRAVE
 10
-64.9986994822
 20
2.2203740385
 30
0.0
  0
VERTEX
  5
2F4
  8
ENGRAVE
 10
-65.0611994822
 20
2.1915278846
 30
0.0
  0
VERTEX
  5
2F5
  8
ENGRAVE
 10
-65.1188917899
 20
2.1506625
 30
0.0
  0
VERTEX
  5
2F6
  8
ENGRAVE
 10
-65.1459350591
 20
2.1254221154
 30
0.0
  0
VERTEX
  5
2F7
  8
ENGRAVE
 10
-65.1711754437
 20
2.095975
 30
0.0
  0
VERTEX
  5
2F8
  8
ENGRAVE
 10
-65.1952139053
 20
2.0623211538
 30
0.0
  0
VERTEX
  5
2F9
  8
ENGRAVE
 10
-65.2168485207
 20
2.0244605769
 30
0.0
  0
VERTEX
  5
2FA
  8
ENGRAVE
 10
-65.237281213
 20
1.9823932692
 30
0.0
  0
VERTEX
  5
2FB
  8
ENGRAVE
 10
-65.2565119822
 20
1.9367201923
 30
0.0
  0
VERTEX
  5
2FC
  8
ENGRAVE
 10
-65.2733389053
 20
1.8862394231
 30
0.0
  0
VERTEX
  5
2FD
  8
ENGRAVE
 10
-65.2889639053
 20
1.8315519231
 30
0.0
  0
VERTEX
  5
2FE
  8
ENGRAVE
 10
-65.3027860207
 20
1.7720567308
 30
0.0
  0
VERTEX
  5
2FF
  8
ENGRAVE
 10
-65.3148052514
 20
1.70535
 30
0.0
  0
VERTEX
  5
300
  8
ENGRAVE
 10
-65.3250215976
 20
1.6326336538
 30
0.0
  0
VERTEX
  5
301
  8
ENGRAVE
 10
-65.3328340976
 20
1.5533067308
 30
0.0
  0
VERTEX
  5
302
  8
ENGRAVE
 10
-65.3394446745
 20
1.4673692308
 30
0.0
  0
VERTEX
  5
303
  8
ENGRAVE
 10
-65.3442523668
 20
1.3748211538
 30
0.0
  0
VERTEX
  5
304
  8
ENGRAVE
 10
-65.346656213
 20
1.2756625
 30
0.0
  0
VERTEX
  5
305
  8
ENGRAVE
 10
-65.347858136
 20
1.1698932692
 30
0.0
  0
VERTEX
  5
306
  8
ENGRAVE
 10
-65.347858136
 20
1.1698932692
 30
0.0
  0
VERTEX
  5
307
  8
ENGRAVE
 10
-65.3454542899
 20
1.0328740385
 30
0.0
  0
VERTEX
  5
308
  8
ENGRAVE
 10
-65.3394446745
 20
0.9072730769
 30
0.0
  0
VERTEX
  5
309
  8
ENGRAVE
 10
-65.3286273668
 20
0.7924894231
 30
0.0
  0
VERTEX
  5
30A
  8
ENGRAVE
 10
-65.3142042899
 20
0.6891240385
 30
0.0
  0
VERTEX
  5
30B
  8
ENGRAVE
 10
-65.2949735207
 20
0.595975
 30
0.0
  0
VERTEX
  5
30C
  8
ENGRAVE
 10
-65.2721369822
 20
0.5142442308
 30
0.0
  0
VERTEX
  5
30D
  8
ENGRAVE
 10
-65.2444927514
 20
0.4433307692
 30
0.0
  0
VERTEX
  5
30E
  8
ENGRAVE
 10
-65.2132427514
 20
0.3838355769
 30
0.0
  0
VERTEX
  5
30F
  8
ENGRAVE
 10
-65.1783869822
 20
0.3327538462
 30
0.0
  0
VERTEX
  5
310
  8
ENGRAVE
 10
-65.1405264053
 20
0.2888836538
 30
0.0
  0
VERTEX
  5
311
  8
ENGRAVE
 10
-65.1008629437
 20
0.2516240385
 30
0.0
  0
VERTEX
  5
312
  8
ENGRAVE
 10
-65.0581946745
 20
0.220975
 30
0.0
  0
VERTEX
  5
313
  8
ENGRAVE
 10
-65.0131225591
 20
0.1975375
 30
0.0
  0
VERTEX
  5
314
  8
ENGRAVE
 10
-64.9656465976
 20
0.1807105769
 30
0.0
  0
VERTEX
  5
315
  8
ENGRAVE
 10
-64.9151658284
 20
0.1704942308
 30
0.0
  0
VERTEX
  5
316
  8
ENGRAVE
 10
-64.8628821745
 20
0.1668884615
 30
0.0
  0
VERTEX
  5
317
  8
ENGRAVE
 10
-64.8628821745
 20
0.1668884615
 30
0.0
  0
VERTEX
  5
318
  8
ENGRAVE
 10
-64.8124014053
 20
0.1698932692
 30
0.0
  0
VERTEX
  5
319
  8
ENGRAVE
 10
-64.7649254437
 20
0.1795086538
 30
0.0
  0
VERTEX
  5
31A
  8
ENGRAVE
 10
-64.7198533284
 20
0.1957346154
 30
0.0
  0
VERTEX
  5
31B
  8
ENGRAVE
 10
-64.6771850591
 20
0.2185711538
 30
0.0
  0
VERTEX
  5
31C
  8
ENGRAVE
 10
-64.6375215976
 20
0.2474173077
 30
0.0
  0
VERTEX
  5
31D
  8
ENGRAVE
 10
-64.6002619822
 20
0.2828740385
 30
0.0
  0
VERTEX
  5
31E
  8
ENGRAVE
 10
-64.5660071745
 20
0.3249413462
 30
0.0
  0
VERTEX
  5
31F
  8
ENGRAVE
 10
-64.534156213
 20
0.3730182692
 30
0.0
  0
VERTEX
  5
320
  8
ENGRAVE
 10
-64.534156213
 20
0.3730182692
 30
0.0
  0
VERTEX
  5
321
  8
ENGRAVE
 10
-64.4993004437
 20
0.4403259615
 30
0.0
  0
VERTEX
  5
322
  8
ENGRAVE
 10
-64.4692523668
 20
0.51785
 30
0.0
  0
VERTEX
  5
323
  8
ENGRAVE
 10
-64.4440119822
 20
0.6061913462
 30
0.0
  0
VERTEX
  5
324
  8
ENGRAVE
 10
-64.4229783284
 20
0.7047490385
 30
0.0
  0
VERTEX
  5
325
  8
ENGRAVE
 10
-64.4073533284
 20
0.8141240385
 30
0.0
  0
VERTEX
  5
326
  8
ENGRAVE
 10
-64.3953340976
 20
0.9337153846
 30
0.0
  0
VERTEX
  5
327
  8
ENGRAVE
 10
-64.3887235207
 20
1.0635230769
 30
0.0
  0
VERTEX
  5
328
  8
ENGRAVE
 10
-64.3863196745
 20
1.2041480769
 30
0.0
  0
VERTEX
  5
329
  8
ENGRAVE
 10
-64.3863196745
 20
1.2041480769
 30
0.0
  0
VERTEX
  5
32A
  8
ENGRAVE
 10
-64.3881225591
 20
1.345975
 30
0.0
  0
VERTEX
  5
32B
  8
ENGRAVE
 10
-64.394733136
 20
1.4769846154
 30
0.0
  0
VERTEX
  5
32C
  8
ENGRAVE
 10
-64.4049494822
 20
1.595975
 30
0.0
  0
VERTEX
  5
32D
  8
ENGRAVE
 10
-64.4193725591
 20
1.7035471154
 30
0.0
  0
VERTEX
  5
32E
  8
ENGRAVE
 10
-64.4380023668
 20
1.7997009615
 30
0.0
  0
VERTEX
  5
32F
  8
ENGRAVE
 10
-64.4608389053
 20
1.8844365385
 30
0.0
  0
VERTEX
  5
330
  8
ENGRAVE
 10
-64.4878821745
 20
1.9577538462
 30
0.0
  0
VERTEX
  5
331
  8
ENGRAVE
 10
-64.5191321745
 20
2.0196528846
 30
0.0
  0
VERTEX
  5
332
  8
ENGRAVE
 10
-64.5533869822
 20
2.0719365385
 30
0.0
  0
VERTEX
  5
333
  8
ENGRAVE
 10
-64.5906465976
 20
2.1176096154
 30
0.0
  0
VERTEX
  5
334
  8
ENGRAVE
 10
-64.6297090976
 20
2.1560711538
 30
0.0
  0
VERTEX
  5
335
  8
ENGRAVE
 10
-64.6711754437
 20
2.1879221154
 30
0.0
  0
VERTEX
  5
336
  8
ENGRAVE
 10
-64.7156465976
 20
2.2125615385
 30
0.0
  0
VERTEX
  5
337
  8
ENGRAVE
 10
-64.7625215976
 20
2.2299894231
 30
0.0
  0
VERTEX
  5
338
  8
ENGRAVE
 10
-64.8111994822
 20
2.2402057692
 30
0.0
  0
VERTEX
  5
339
  8
ENGRAVE
 10
-64.8628821745
 20
2.2438115385
 30
0.0
  0
SEQEND
  5
442
  8
ENGRAVE
  0
POLYLINE
  5
1E1
  8
ENGRAVE
 66
     1
 10
0.0
 20
0.0
 30
0.0
 70
   128
  0
VERTEX
  5
33A
  8
ENGRAVE
 10
-60.8340360207
 20
2.70535
 30
0.0
  0
VERTEX
  5
33B
  8
ENGRAVE
 10
-60.0017042899
 20
2.70535
 30
0.0
  0
VERTEX
  5
33C
  8
ENGRAVE
 10
-60.0017042899
 20
2.70535
 30
0.0
  0
VERTEX
  5
33D
  8
ENGRAVE
 10
-60.0017042899
 20
-0.29465
 30
0.0
  0
VERTEX
  5
33E
  8
ENGRAVE
 10
-60.0017042899
 20
-0.29465
 30
0.0
  0
VERTEX
  5
33F
  8
ENGRAVE
 10
-60.5401658284
 20
-0.29465
 30
0.0
  0
VERTEX
  5
340
  8
ENGRAVE
 10
-60.5401658284
 20
-0.29465
 30
0.0
  0
VERTEX
  5
341
  8
ENGRAVE
 10
-60.5401658284
 20
2.20535
 30
0.0
  0
VERTEX
  5
342
  8
ENGRAVE
 10
-60.5401658284
 20
2.20535
 30
0.0
  0
VERTEX
  5
343
  8
ENGRAVE
 10
-61.1555504437
 20
2.20535
 30
0.0
  0
VERTEX
  5
344
  8
ENGRAVE
 10
-61.1555504437
 20
2.20535
 30
0.0
  0
VERTEX
  5
345
  8
ENGRAVE
 10
-60.8340360207
 20
2.70535
 30
0.0
  0
SEQEND
  5
443
  8
ENGRAVE
  0
POLYLINE
  5
1E2
  8
ENGRAVE
 66
     1
 10
0.0
 20
0.0
 30
0.0
 70
   128
  0
VERTEX
  5
346
  8
ENGRAVE
 10
-56.3093965976
 20
1.70535
 30
0.0
  0
VERTEX
  5
347
  8
ENGRAVE
 10
-56.847858136
 20
1.70535
 30
0.0
  0
VERTEX
  5
348
  8
ENGRAVE
 10
-56.847858136
 20
1.70535
 30
0.0
  0
VERTEX
  5
349
  8
ENGRAVE
 10
-56.838843713
 20
1.8273451923
 30
0.0
  0
VERTEX
  5
34A
  8
ENGRAVE
 10
-56.8214158284
 20
1.9427298077
 30
0.0
  0
VERTEX
  5
34B
  8
ENGRAVE
 10
-56.7967764053
 20
2.0515038462
 30
0.0
  0
VERTEX
  5
34C
  8
ENGRAVE
 10
-56.7643244822
 20
2.1536673077
 30
0.0
  0
VERTEX
  5
34D
  8
ENGRAVE
 10
-56.7240600591
 20
2.2486192308
 30
0.0
  0
VERTEX
  5
34E
  8
ENGRAVE
 10
-56.675983136
 20
2.3375615385
 30
0.0
  0
VERTEX
  5
34F
  8
ENGRAVE
 10
-56.620093713
 20
2.4192923077
 30
0.0
  0
VERTEX
  5
350
  8
ENGRAVE
 10
-56.5563917899
 20
2.4944125
 30
0.0
  0
VERTEX
  5
351
  8
ENGRAVE
 10
-56.4866802514
 20
2.5617201923
 30
0.0
  0
VERTEX
  5
352
  8
ENGRAVE
 10
-56.4121610207
 20
2.6206144231
 30
0.0
  0
VERTEX
  5
353
  8
ENGRAVE
 10
-56.332233136
 20
2.6698932692
 30
0.0
  0
VERTEX
  5
354
  8
ENGRAVE
 10
-56.2480985207
 20
2.7101576923
 30
0.0
  0
VERTEX
  5
355
  8
ENGRAVE
 10
-56.159156213
 20
2.7420086538
 30
0.0
  0
VERTEX
  5
356
  8
ENGRAVE
 10
-56.065406213
 20
2.7642442308
 30
0.0
  0
VERTEX
  5
357
  8
ENGRAVE
 10
-55.9668485207
 20
2.7780663462
 30
0.0
  0
VERTEX
  5
358
  8
ENGRAVE
 10
-55.863483136
 20
2.7822730769
 30
0.0
  0
VERTEX
  5
359
  8
ENGRAVE
 10
-55.863483136
 20
2.7822730769
 30
0.0
  0
VERTEX
  5
35A
  8
ENGRAVE
 10
-55.7366802514
 20
2.7750615385
 30
0.0
  0
VERTEX
  5
35B
  8
ENGRAVE
 10
-55.6176898668
 20
2.7534269231
 30
0.0
  0
VERTEX
  5
35C
  8
ENGRAVE
 10
-55.5065119822
 20
2.7167682692
 30
0.0
  0
VERTEX
  5
35D
  8
ENGRAVE
 10
-55.4031465976
 20
2.6656865385
 30
0.0
  0
VERTEX
  5
35E
  8
ENGRAVE
 10
-55.3081946745
 20
2.6007826923
 30
0.0
  0
VERTEX
  5
35F
  8
ENGRAVE
 10
-55.222858136
 20
2.5232586538
 30
0.0
  0
VERTEX
  5
360
  8
ENGRAVE
 10
-55.1483389053
 20
2.4325134615
 30
0.0
  0
VERTEX
  5
361
  8
ENGRAVE
 10
-55.0834350591
 20
2.3291480769
 30
0.0
  0
VERTEX
  5
362
  8
ENGRAVE
 10
-55.0305504437
 20
2.2191721154
 30
0.0
  0
VERTEX
  5
363
  8
ENGRAVE
 10
-54.9932908284
 20
2.1079942308
 30
0.0
  0
VERTEX
  5
364
  8
ENGRAVE
 10
-54.9704542899
 20
1.9956144231
 30
0.0
  0
VERTEX
  5
365
  8
ENGRAVE
 10
-54.9632427514
 20
1.8826336538
 30
0.0
  0
VERTEX
  5
366
  8
ENGRAVE
 10
-54.9632427514
 20
1.8826336538
 30
0.0
  0
VERTEX
  5
367
  8
ENGRAVE
 10
-54.9656465976
 20
1.8141240385
 30
0.0
  0
VERTEX
  5
368
  8
ENGRAVE
 10
-54.9722571745
 20
1.7450134615
 30
0.0
  0
VERTEX
  5
369
  8
ENGRAVE
 10
-54.9830744822
 20
1.6741
 30
0.0
  0
VERTEX
  5
36A
  8
ENGRAVE
 10
-54.9986994822
 20
1.6019846154
 30
0.0
  0
VERTEX
  5
36B
  8
ENGRAVE
 10
-55.018531213
 20
1.5286673077
 30
0.0
  0
VERTEX
  5
36C
  8
ENGRAVE
 10
-55.0425696745
 20
1.4541480769
 30
0.0
  0
VERTEX
  5
36D
  8
ENGRAVE
 10
-55.0714158284
 20
1.3778259615
 30
0.0
  0
VERTEX
  5
36E
  8
ENGRAVE
 10
-55.104468713
 20
1.3009028846
 30
0.0
  0
VERTEX
  5
36F
  8
ENGRAVE
 10
-55.143531213
 20
1.2215759615
 30
0.0
  0
VERTEX
  5
370
  8
ENGRAVE
 10
-55.1898052514
 20
1.1380423077
 30
0.0
  0
VERTEX
  5
371
  8
ENGRAVE
 10
-55.2432908284
 20
1.0515038462
 30
0.0
  0
VERTEX
  5
372
  8
ENGRAVE
 10
-55.3039879437
 20
0.9613596154
 30
0.0
  0
VERTEX
  5
373
  8
ENGRAVE
 10
-55.3724975591
 20
0.8670086538
 30
0.0
  0
VERTEX
  5
374
  8
ENGRAVE
 10
-55.448218713
 20
0.7696528846
 30
0.0
  0
VERTEX
  5
375
  8
ENGRAVE
 10
-55.5311514053
 20
0.6686913462
 30
0.0
  0
VERTEX
  5
376
  8
ENGRAVE
 10
-55.621295636
 20
0.5641240385
 30
0.0
  0
VERTEX
  5
377
  8
ENGRAVE
 10
-55.621295636
 20
0.5641240385
 30
0.0
  0
VERTEX
  5
378
  8
ENGRAVE
 10
-55.9343965976
 20
0.20535
 30
0.0
  0
VERTEX
  5
379
  8
ENGRAVE
 10
-55.9343965976
 20
0.20535
 30
0.0
  0
VERTEX
  5
37A
  8
ENGRAVE
 10
-54.924781213
 20
0.20535
 30
0.0
  0
VERTEX
  5
37B
  8
ENGRAVE
 10
-54.924781213
 20
0.20535
 30
0.0
  0
VERTEX
  5
37C
  8
ENGRAVE
 10
-54.924781213
 20
-0.29465
 30
0.0
  0
VERTEX
  5
37D
  8
ENGRAVE
 10
-54.924781213
 20
-0.29465
 30
0.0
  0
VERTEX
  5
37E
  8
ENGRAVE
 10
-56.924781213
 20
-0.29465
 30
0.0
  0
VERTEX
  5
37F
  8
ENGRAVE
 10
-56.924781213
 20
-0.29465
 30
0.0
  0
VERTEX
  5
380
  8
ENGRAVE
 10
-56.924781213
 20
-0.0218134615
 30
0.0
  0
VERTEX
  5
381
  8
ENGRAVE
 10
-56.924781213
 20
-0.0218134615
 30
0.0
  0
VERTEX
  5
382
  8
ENGRAVE
 10
-56.0365600591
 20
0.9234990385
 30
0.0
  0
VERTEX
  5
383
  8
ENGRAVE
 10
-56.0365600591
 20
0.9234990385
 30
0.0
  0
VERTEX
  5
384
  8
ENGRAVE
 10
-55.9596369822
 20
1.0064317308
 30
0.0
  0
VERTEX
  5
385
  8
ENGRAVE
 10
-55.8887235207
 20
1.0851576923
 30
0.0
  0
VERTEX
  5
386
  8
ENGRAVE
 10
-55.8250215976
 20
1.1596769231
 30
0.0
  0
VERTEX
  5
387
  8
ENGRAVE
 10
-55.768531213
 20
1.2305903846
 30
0.0
  0
VERTEX
  5
388
  8
ENGRAVE
 10
-55.7180504437
 20
1.2966961538
 30
0.0
  0
VERTEX
  5
389
  8
ENGRAVE
 10
-55.674781213
 20
1.3585951923
 30
0.0
  0
VERTEX
  5
38A
  8
ENGRAVE
 10
-55.6381225591
 20
1.4168884615
 30
0.0
  0
VERTEX
  5
38B
  8
ENGRAVE
 10
-55.6080744822
 20
1.4703740385
 30
0.0
  0
VERTEX
  5
38C
  8
ENGRAVE
 10
-55.5618004437
 20
1.5713355769
 30
0.0
  0
VERTEX
  5
38D
  8
ENGRAVE
 10
-55.5281465976
 20
1.6674894231
 30
0.0
  0
VERTEX
  5
38E
  8
ENGRAVE
 10
-55.5083148668
 20
1.7588355769
 30
0.0
  0
VERTEX
  5
38F
  8
ENGRAVE
 10
-55.5017042899
 20
1.8447730769
 30
0.0
  0
VERTEX
  5
390
  8
ENGRAVE
 10
-55.5017042899
 20
1.8447730769
 30
0.0
  0
VERTEX
  5
391
  8
ENGRAVE
 10
-55.5083148668
 20
1.9277057692
 30
0.0
  0
VERTEX
  5
392
  8
ENGRAVE
 10
-55.5293485207
 20
2.0028259615
 30
0.0
  0
VERTEX
  5
393
  8
ENGRAVE
 10
-55.5636033284
 20
2.0707346154
 30
0.0
  0
VERTEX
  5
394
  8
ENGRAVE
 10
-55.6116802514
 20
2.1308307692
 30
0.0
  0
VERTEX
  5
395
  8
ENGRAVE
 10
-55.6705744822
 20
2.1801096154
 30
0.0
  0
VERTEX
  5
396
  8
ENGRAVE
 10
-55.7366802514
 20
2.2155663462
 30
0.0
  0
VERTEX
  5
397
  8
ENGRAVE
 10
-55.8118004437
 20
2.2366
 30
0.0
  0
VERTEX
  5
398
  8
ENGRAVE
 10
-55.8941321745
 20
2.2438115385
 30
0.0
  0
VERTEX
  5
399
  8
ENGRAVE
 10
-55.8941321745
 20
2.2438115385
 30
0.0
  0
VERTEX
  5
39A
  8
ENGRAVE
 10
-55.9368004437
 20
2.2414076923
 30
0.0
  0
VERTEX
  5
39B
  8
ENGRAVE
 10
-55.9776658284
 20
2.2347971154
 30
0.0
  0
VERTEX
  5
39C
  8
ENGRAVE
 10
-56.0167283284
 20
2.2233788462
 30
0.0
  0
VERTEX
  5
39D
  8
ENGRAVE
 10
-56.0539879437
 20
2.2077538462
 30
0.0
  0
VERTEX
  5
39E
  8
ENGRAVE
 10
-56.0894446745
 20
2.1873211538
 30
0.0
  0
VERTEX
  5
39F
  8
ENGRAVE
 10
-56.1230985207
 20
2.1620807692
 30
0.0
  0
VERTEX
  5
3A0
  8
ENGRAVE
 10
-56.1549494822
 20
2.1326336538
 30
0.0
  0
VERTEX
  5
3A1
  8
ENGRAVE
 10
-56.1849975591
 20
2.0989798077
 30
0.0
  0
VERTEX
  5
3A2
  8
ENGRAVE
 10
-56.2126417899
 20
2.0611192308
 30
0.0
  0
VERTEX
  5
3A3
  8
ENGRAVE
 10
-56.2366802514
 20
2.0202538462
 30
0.0
  0
VERTEX
  5
3A4
  8
ENGRAVE
 10
-56.2571129437
 20
1.9757826923
 30
0.0
  0
VERTEX
  5
3A5
  8
ENGRAVE
 10
-56.2745408284
 20
1.9283067308
 30
0.0
  0
VERTEX
  5
3A6
  8
ENGRAVE
 10
-56.2883629437
 20
1.877225
 30
0.0
  0
VERTEX
  5
3A7
  8
ENGRAVE
 10
-56.2985792899
 20
1.8231384615
 30
0.0
  0
VERTEX
  5
3A8
  8
ENGRAVE
 10
-56.3057908284
 20
1.7660471154
 30
0.0
  0
VERTEX
  5
3A9
  8
ENGRAVE
 10
-56.3093965976
 20
1.70535
 30
0.0
  0
SEQEND
  5
444
  8
ENGRAVE
  0
POLYLINE
  5
1E3
  8
ENGRAVE
 66
     1
 10
0.0
 20
0.0
 30
0.0
 70
   128
  0
VERTEX
  5
3AA
  8
ENGRAVE
 10
-45.6849494822
 20
4.6975
 30
0.0
  0
VERTEX
  5
3AB
  8
ENGRAVE
 10
-45.1855504437
 20
4.6975
 30
0.0
  0
VERTEX
  5
3AC
  8
ENGRAVE
 10
-45.1855504437
 20
4.6975
 30
0.0
  0
VERTEX
  5
3AD
  8
ENGRAVE
 10
-43.9740119822
 20
1.6975
 30
0.0
  0
VERTEX
  5
3AE
  8
ENGRAVE
 10
-43.9740119822
 20
1.6975
 30
0.0
  0
VERTEX
  5
3AF
  8
ENGRAVE
 10
-44.5491321745
 20
1.6975
 30
0.0
  0
VERTEX
  5
3B0
  8
ENGRAVE
 10
-44.5491321745
 20
1.6975
 30
0.0
  0
VERTEX
  5
3B1
  8
ENGRAVE
 10
-44.7823052514
 20
2.3128846154
 30
0.0
  0
VERTEX
  5
3B2
  8
ENGRAVE
 10
-44.7823052514
 20
2.3128846154
 30
0.0
  0
VERTEX
  5
3B3
  8
ENGRAVE
 10
-46.0893965976
 20
2.3128846154
 30
0.0
  0
VERTEX
  5
3B4
  8
ENGRAVE
 10
-46.0893965976
 20
2.3128846154
 30
0.0
  0
VERTEX
  5
3B5
  8
ENGRAVE
 10
-46.3225696745
 20
1.6975
 30
0.0
  0
VERTEX
  5
3B6
  8
ENGRAVE
 10
-46.3225696745
 20
1.6975
 30
0.0
  0
VERTEX
  5
3B7
  8
ENGRAVE
 10
-46.8970889053
 20
1.6975
 30
0.0
  0
VERTEX
  5
3B8
  8
ENGRAVE
 10
-46.8970889053
 20
1.6975
 30
0.0
  0
VERTEX
  5
3B9
  8
ENGRAVE
 10
-45.6849494822
 20
4.6975
 30
0.0
  0
SEQEND
  5
445
  8
ENGRAVE
  0
POLYLINE
  5
1E4
  8
ENGRAVE
 66
     1
 10
0.0
 20
0.0
 30
0.0
 70
   128
  0
VERTEX
  5
3BA
  8
ENGRAVE
 10
-45.4355504437
 20
3.8928125
 30
0.0
  0
VERTEX
  5
3BB
  8
ENGRAVE
 10
-45.8850696745
 20
2.8513461538
 30
0.0
  0
VERTEX
  5
3BC
  8
ENGRAVE
 10
-45.8850696745
 20
2.8513461538
 30
0.0
  0
VERTEX
  5
3BD
  8
ENGRAVE
 10
-44.986031213
 20
2.8513461538
 30
0.0
  0
VERTEX
  5
3BE
  8
ENGRAVE
 10
-44.986031213
 20
2.8513461538
 30
0.0
  0
VERTEX
  5
3BF
  8
ENGRAVE
 10
-45.4355504437
 20
3.8928125
 30
0.0
  0
SEQEND
  5
446
  8
ENGRAVE
  0
POLYLINE
  5
1E5
  8
ENGRAVE
 66
     1
 10
0.0
 20
0.0
 30
0.0
 70
   128
  0
VERTEX
  5
3C0
  8
ENGRAVE
 10
-43.5317042899
 20
4.6975
 30
0.0
  0
VERTEX
  5
3C1
  8
ENGRAVE
 10
-42.9932427514
 20
4.6975
 30
0.0
  0
VERTEX
  5
3C2
  8
ENGRAVE
 10
-42.9932427514
 20
4.6975
 30
0.0
  0
VERTEX
  5
3C3
  8
ENGRAVE
 10
-42.9932427514
 20
2.7455769231
 30
0.0
  0
VERTEX
  5
3C4
  8
ENGRAVE
 10
-42.9932427514
 20
2.7455769231
 30
0.0
  0
VERTEX
  5
3C5
  8
ENGRAVE
 10
-42.9926417899
 20
2.6848798077
 30
0.0
  0
VERTEX
  5
3C6
  8
ENGRAVE
 10
-42.9902379437
 20
2.6283894231
 30
0.0
  0
VERTEX
  5
3C7
  8
ENGRAVE
 10
-42.987233136
 20
2.5773076923
 30
0.0
  0
VERTEX
  5
3C8
  8
ENGRAVE
 10
-42.9824254437
 20
2.5304326923
 30
0.0
  0
VERTEX
  5
3C9
  8
ENGRAVE
 10
-42.9758148668
 20
2.4877644231
 30
0.0
  0
VERTEX
  5
3CA
  8
ENGRAVE
 10
-42.9686033284
 20
2.4499038462
 30
0.0
  0
VERTEX
  5
3CB
  8
ENGRAVE
 10
-42.9595889053
 20
2.4168509615
 30
0.0
  0
VERTEX
  5
3CC
  8
ENGRAVE
 10
-42.9493725591
 20
2.3886057692
 30
0.0
  0
VERTEX
  5
3CD
  8
ENGRAVE
 10
-42.9241321745
 20
2.3387259615
 30
0.0
  0
VERTEX
  5
3CE
  8
ENGRAVE
 10
-42.8910792899
 20
2.2948557692
 30
0.0
  0
VERTEX
  5
3CF
  8
ENGRAVE
 10
-42.8514158284
 20
2.2551923077
 30
0.0
  0
VERTEX
  5
3D0
  8
ENGRAVE
 10
-42.8045408284
 20
2.2215384615
 30
0.0
  0
VERTEX
  5
3D1
  8
ENGRAVE
 10
-42.751656213
 20
2.1944951923
 30
0.0
  0
VERTEX
  5
3D2
  8
ENGRAVE
 10
-42.6933629437
 20
2.1746634615
 30
0.0
  0
VERTEX
  5
3D3
  8
ENGRAVE
 10
-42.6296610207
 20
2.1632451923
 30
0.0
  0
VERTEX
  5
3D4
  8
ENGRAVE
 10
-42.5611514053
 20
2.1590384615
 30
0.0
  0
VERTEX
  5
3D5
  8
ENGRAVE
 10
-42.5611514053
 20
2.1590384615
 30
0.0
  0
VERTEX
  5
3D6
  8
ENGRAVE
 10
-42.4884350591
 20
2.1632451923
 30
0.0
  0
VERTEX
  5
3D7
  8
ENGRAVE
 10
-42.4205264053
 20
2.1764663462
 30
0.0
  0
VERTEX
  5
3D8
  8
ENGRAVE
 10
-42.3586273668
 20
2.1981009615
 30
0.0
  0
VERTEX
  5
3D9
  8
ENGRAVE
 10
-42.3015360207
 20
2.22875
 30
0.0
  0
VERTEX
  5
3DA
  8
ENGRAVE
 10
-42.2510552514
 20
2.2660096154
 30
0.0
  0
VERTEX
  5
3DB
  8
ENGRAVE
 10
-42.2089879437
 20
2.3080769231
 30
0.0
  0
VERTEX
  5
3DC
  8
ENGRAVE
 10
-42.1759350591
 20
2.3543509615
 30
0.0
  0
VERTEX
  5
3DD
  8
ENGRAVE
 10
-42.1506946745
 20
2.4060336538
 30
0.0
  0
VERTEX
  5
3DE
  8
ENGRAVE
 10
-42.1410792899
 20
2.4360817308
 30
0.0
  0
VERTEX
  5
3DF
  8
ENGRAVE
 10
-42.1320648668
 20
2.4721394231
 30
0.0
  0
VERTEX
  5
3E0
  8
ENGRAVE
 10
-42.1248533284
 20
2.5142067308
 30
0.0
  0
VERTEX
  5
3E1
  8
ENGRAVE
 10
-42.118843713
 20
2.5628846154
 30
0.0
  0
VERTEX
  5
3E2
  8
ENGRAVE
 10
-42.1146369822
 20
2.6169711538
 30
0.0
  0
VERTEX
  5
3E3
  8
ENGRAVE
 10
-42.111031213
 20
2.6776682692
 30
0.0
  0
VERTEX
  5
3E4
  8
ENGRAVE
 10
-42.1092283284
 20
2.744375
 30
0.0
  0
VERTEX
  5
3E5
  8
ENGRAVE
 10
-42.1086273668
 20
2.8170913462
 30
0.0
  0
VERTEX
  5
3E6
  8
ENGRAVE
 10
-42.1086273668
 20
2.8170913462
 30
0.0
  0
VERTEX
  5
3E7
  8
ENGRAVE
 10
-42.1086273668
 20
4.6975
 30
0.0
  0
VERTEX
  5
3E8
  8
ENGRAVE
 10
-42.1086273668
 20
4.6975
 30
0.0
  0
VERTEX
  5
3E9
  8
ENGRAVE
 10
-41.5701658284
 20
4.6975
 30
0.0
  0
VERTEX
  5
3EA
  8
ENGRAVE
 10
-41.5701658284
 20
4.6975
 30
0.0
  0
VERTEX
  5
3EB
  8
ENGRAVE
 10
-41.5701658284
 20
2.9078365385
 30
0.0
  0
VERTEX
  5
3EC
  8
ENGRAVE
 10
-41.5701658284
 20
2.9078365385
 30
0.0
  0
VERTEX
  5
3ED
  8
ENGRAVE
 10
-41.5707667899
 20
2.7990625
 30
0.0
  0
VERTEX
  5
3EE
  8
ENGRAVE
 10
-41.573170636
 20
2.6987019231
 30
0.0
  0
VERTEX
  5
3EF
  8
ENGRAVE
 10
-41.5773773668
 20
2.6073557692
 30
0.0
  0
VERTEX
  5
3F0
  8
ENGRAVE
 10
-41.5821850591
 20
2.5244230769
 30
0.0
  0
VERTEX
  5
3F1
  8
ENGRAVE
 10
-41.5893965976
 20
2.4505048077
 30
0.0
  0
VERTEX
  5
3F2
  8
ENGRAVE
 10
-41.5978100591
 20
2.385
 30
0.0
  0
VERTEX
  5
3F3
  8
ENGRAVE
 10
-41.6080264053
 20
2.3279086538
 30
0.0
  0
VERTEX
  5
3F4
  8
ENGRAVE
 10
-41.6194446745
 20
2.2798317308
 30
0.0
  0
VERTEX
  5
3F5
  8
ENGRAVE
 10
-41.6494927514
 20
2.1926923077
 30
0.0
  0
VERTEX
  5
3F6
  8
ENGRAVE
 10
-41.6909590976
 20
2.1073557692
 30
0.0
  0
VERTEX
  5
3F7
  8
ENGRAVE
 10
-41.743843713
 20
2.0232211538
 30
0.0
  0
VERTEX
  5
3F8
  8
ENGRAVE
 10
-41.807545636
 20
1.9408894231
 30
0.0
  0
VERTEX
  5
3F9
  8
ENGRAVE
 10
-41.8796610207
 20
1.8645673077
 30
0.0
  0
VERTEX
  5
3FA
  8
ENGRAVE
 10
-41.9571850591
 20
1.7984615385
 30
0.0
  0
VERTEX
  5
3FB
  8
ENGRAVE
 10
-42.0395167899
 20
1.7431730769
 30
0.0
  0
VERTEX
  5
3FC
  8
ENGRAVE
 10
-42.127858136
 20
1.6987019231
 30
0.0
  0
VERTEX
  5
3FD
  8
ENGRAVE
 10
-42.2222090976
 20
1.6644471154
 30
0.0
  0
VERTEX
  5
3FE
  8
ENGRAVE
 10
-42.3237715976
 20
1.6404086538
 30
0.0
  0
VERTEX
  5
3FF
  8
ENGRAVE
 10
-42.432545636
 20
1.6253846154
 30
0.0
  0
VERTEX
  5
400
  8
ENGRAVE
 10
-42.5491321745
 20
1.6205769231
 30
0.0
  0
VERTEX
  5
401
  8
ENGRAVE
 10
-42.5491321745
 20
1.6205769231
 30
0.0
  0
VERTEX
  5
402
  8
ENGRAVE
 10
-42.626656213
 20
1.6229807692
 30
0.0
  0
VERTEX
  5
403
  8
ENGRAVE
 10
-42.7017764053
 20
1.6301923077
 30
0.0
  0
VERTEX
  5
404
  8
ENGRAVE
 10
-42.7738917899
 20
1.6416105769
 30
0.0
  0
VERTEX
  5
405
  8
ENGRAVE
 10
-42.8436033284
 20
1.6578365385
 30
0.0
  0
VERTEX
  5
406
  8
ENGRAVE
 10
-42.9109110207
 20
1.6788701923
 30
0.0
  0
VERTEX
  5
407
  8
ENGRAVE
 10
-42.9758148668
 20
1.7047115385
 30
0.0
  0
VERTEX
  5
408
  8
ENGRAVE
 10
-43.0383148668
 20
1.7353605769
 30
0.0
  0
VERTEX
  5
409
  8
ENGRAVE
 10
-43.0978100591
 20
1.7702163462
 30
0.0
  0
VERTEX
  5
40A
  8
ENGRAVE
 10
-43.1543004437
 20
1.8086778846
 30
0.0
  0
VERTEX
  5
40B
  8
ENGRAVE
 10
-43.205983136
 20
1.8501442308
 30
0.0
  0
VERTEX
  5
40C
  8
ENGRAVE
 10
-43.2540600591
 20
1.8934134615
 30
0.0
  0
VERTEX
  5
40D
  8
ENGRAVE
 10
-43.2979302514
 20
1.9390865385
 30
0.0
  0
VERTEX
  5
40E
  8
ENGRAVE
 10
-43.337593713
 20
1.9871634615
 30
0.0
  0
VERTEX
  5
40F
  8
ENGRAVE
 10
-43.3730504437
 20
2.0376442308
 30
0.0
  0
VERTEX
  5
410
  8
ENGRAVE
 10
-43.4043004437
 20
2.0905288462
 30
0.0
  0
VERTEX
  5
411
  8
ENGRAVE
 10
-43.431343713
 20
2.1458173077
 30
0.0
  0
VERTEX
  5
412
  8
ENGRAVE
 10
-43.454781213
 20
2.2071153846
 30
0.0
  0
VERTEX
  5
413
  8
ENGRAVE
 10
-43.4752139053
 20
2.2780288462
 30
0.0
  0
VERTEX
  5
414
  8
ENGRAVE
 10
-43.4926417899
 20
2.3585576923
 30
0.0
  0
VERTEX
  5
415
  8
ENGRAVE
 10
-43.5064639053
 20
2.4493028846
 30
0.0
  0
VERTEX
  5
416
  8
ENGRAVE
 10
-43.5178821745
 20
2.5490625
 30
0.0
  0
VERTEX
  5
417
  8
ENGRAVE
 10
-43.5256946745
 20
2.6590384615
 30
0.0
  0
VERTEX
  5
418
  8
ENGRAVE
 10
-43.5299014053
 20
2.7786298077
 30
0.0
  0
VERTEX
  5
419
  8
ENGRAVE
 10
-43.5317042899
 20
2.9078365385
 30
0.0
  0
VERTEX
  5
41A
  8
ENGRAVE
 10
-43.5317042899
 20
2.9078365385
 30
0.0
  0
VERTEX
  5
41B
  8
ENGRAVE
 10
-43.5317042899
 20
4.6975
 30
0.0
  0
SEQEND
  5
447
  8
ENGRAVE
  0
POLYLINE
  5
1E6
  8
ENGRAVE
 66
     1
 10
0.0
 20
0.0
 30
0.0
 70
   128
  0
VERTEX
  5
41C
  8
ENGRAVE
 10
-41.0611514053
 20
4.6975
 30
0.0
  0
VERTEX
  5
41D
  8
ENGRAVE
 10
-40.4265360207
 20
4.6975
 30
0.0
  0
VERTEX
  5
41E
  8
ENGRAVE
 10
-40.4265360207
 20
4.6975
 30
0.0
  0
VERTEX
  5
41F
  8
ENGRAVE
 10
-39.799733136
 20
3.7341586538
 30
0.0
  0
VERTEX
  5
420
  8
ENGRAVE
 10
-39.799733136
 20
3.7341586538
 30
0.0
  0
VERTEX
  5
421
  8
ENGRAVE
 10
-39.1717283284
 20
4.6975
 30
0.0
  0
VERTEX
  5
422
  8
ENGRAVE
 10
-39.1717283284
 20
4.6975
 30
0.0
  0
VERTEX
  5
423
  8
ENGRAVE
 10
-38.5365119822
 20
4.6975
 30
0.0
  0
VERTEX
  5
424
  8
ENGRAVE
 10
-38.5365119822
 20
4.6975
 30
0.0
  0
VERTEX
  5
425
  8
ENGRAVE
 10
-39.4824254437
 20
3.2467788462
 30
0.0
  0
VERTEX
  5
426
  8
ENGRAVE
 10
-39.4824254437
 20
3.2467788462
 30
0.0
  0
VERTEX
  5
427
  8
ENGRAVE
 10
-38.4740119822
 20
1.6975
 30
0.0
  0
VERTEX
  5
428
  8
ENGRAVE
 10
-38.4740119822
 20
1.6975
 30
0.0
  0
VERTEX
  5
429
  8
ENGRAVE
 10
-39.1086273668
 20
1.6975
 30
0.0
  0
VERTEX
  5
42A
  8
ENGRAVE
 10
-39.1086273668
 20
1.6975
 30
0.0
  0
VERTEX
  5
42B
  8
ENGRAVE
 10
-39.799733136
 20
2.76
 30
0.0
  0
VERTEX
  5
42C
  8
ENGRAVE
 10
-39.799733136
 20
2.76
 30
0.0
  0
VERTEX
  5
42D
  8
ENGRAVE
 10
-40.4926417899
 20
1.6975
 30
0.0
  0
VERTEX
  5
42E
  8
ENGRAVE
 10
-40.4926417899
 20
1.6975
 30
0.0
  0
VERTEX
  5
42F
  8
ENGRAVE
 10
-41.127858136
 20
1.6975
 30
0.0
  0
VERTEX
  5
430
  8
ENGRAVE
 10
-41.127858136
 20
1.6975
 30
0.0
  0
VERTEX
  5
431
  8
ENGRAVE
 10
-40.1170408284
 20
3.2473798077
 30
0.0
  0
VERTEX
  5
432
  8
ENGRAVE
 10
-40.1170408284
 20
3.2473798077
 30
0.0
  0
VERTEX
  5
433
  8
ENGRAVE
 10
-41.0611514053
 20
4.6975
 30
0.0
  0
SEQEND
  5
448
  8
ENGRAVE
  0
CIRCLE
  5
1E7
  8
ENGRAVE
 10
-37.8611010042
 20
1.9861143226
 30
0.0
 40
0.3267796553433537
  0
POLYLINE
  5
1E8
  8
ENGRAVE
 66
     1
 10
0.0
 20
0.0
 30
0.0
 70
   128
  0
VERTEX
  5
434
  8
ENGRAVE
 10
-36.9932427514
 20
4.6975
 30
0.0
  0
VERTEX
  5
435
  8
ENGRAVE
 10
-36.454781213
 20
4.6975
 30
0.0
  0
VERTEX
  5
436
  8
ENGRAVE
 10
-36.454781213
 20
4.6975
 30
0.0
  0
VERTEX
  5
437
  8
ENGRAVE
 10
-36.454781213
 20
1.6975
 30
0.0
  0
VERTEX
  5
438
  8
ENGRAVE
 10
-36.454781213
 20
1.6975
 30
0.0
  0
VERTEX
  5
439
  8
ENGRAVE
 10
-36.9932427514
 20
1.6975
 30
0.0
  0
VERTEX
  5
43A
  8
ENGRAVE
 10
-36.9932427514
 20
1.6975
 30
0.0
  0
VERTEX
  5
43B
  8
ENGRAVE
 10
-36.9932427514
 20
4.6975
 30
0.0
  0
SEQEND
  5
449
  8
ENGRAVE
  0
CIRCLE
  5
1E9
  8
ENGRAVE
 10
-34.3593758905
 20
3.208134497
 30
0.0
 40
1.566303159699271
  0
CIRCLE
  5
1EA
  8
ENGRAVE
 10
-34.3557961712
 20
3.2102503807
 30
0.0
 40
1.025724517009502
  0
ENDSEC
  0
EOF
