  0
SECTION
  2
HEADER
  9
$ACADVER
  1
AC1009
  9
$DWGCODEPAGE
  3
ansi_1252
  9
$INSBASE
 10
0.0
 20
0.0
 30
0.0
  9
$EXTMIN
 10
-123.6294443111
 20
-9.2075
 30
0.0
  9
$EXTMAX
 10
11.43
 20
19.709358136
 30
0.0
  9
$LIMMIN
 10
0.0
 20
0.0
  9
$LIMMAX
 10
420.0
 20
297.0
  9
$ORTHOMODE
 70
     0
  9
$REGENMODE
 70
     1
  9
$FILLMODE
 70
     1
  9
$QTEXTMODE
 70
     0
  9
$MIRRTEXT
 70
     1
  9
$DRAGMODE
 70
     2
  9
$LTSCALE
 40
1.0
  9
$OSMODE
 70
    37
  9
$ATTMODE
 70
     1
  9
$TEXTSIZE
 40
3.5
  9
$TRACEWID
 40
1.0
  9
$TEXTSTYLE
  7
STANDARD
  9
$CLAYER
  8
0
  9
$CELTYPE
  6
BYLAYER
  9
$CECOLOR
 62
   256
  9
$DIMSCALE
 40
1.0
  9
$DIMASZ
 40
3.302
  9
$DIMEXO
 40
0.0
  9
$DIMDLI
 40
3.75
  9
$DIMRND
 40
0.0
  9
$DIMDLE
 40
0.0
  9
$DIMEXE
 40
1.0
  9
$DIMTP
 40
0.0
  9
$DIMTM
 40
0.0
  9
$DIMTXT
 40
3.5
  9
$DIMCEN
 40
2.5
  9
$DIMTSZ
 40
0.0
  9
$DIMTOL
 70
     0
  9
$DIMLIM
 70
     0
  9
$DIMTIH
 70
     1
  9
$DIMTOH
 70
     1
  9
$DIMSE1
 70
     0
  9
$DIMSE2
 70
     0
  9
$DIMTAD
 70
     1
  9
$DIMZIN
 70
     0
  9
$DIMBLK
  1

  9
$DIMASO
 70
     1
  9
$DIMSHO
 70
     1
  9
$DIMPOST
  1

  9
$DIMAPOST
  1

  9
$DIMALT
 70
     0
  9
$DIMALTD
 70
     3
  9
$DIMALTF
 40
0.0393700787
  9
$DIMLFAC
 40
1.0
  9
$DIMTOFL
 70
     1
  9
$DIMTVP
 40
0.0
  9
$DIMTIX
 70
     0
  9
$DIMSOXD
 70
     0
  9
$DIMSAH
 70
     0
  9
$DIMBLK1
  1

  9
$DIMBLK2
  1

  9
$DIMSTYLE
  2
ISO-25
  9
$DIMCLRD
 70
     0
  9
$DIMCLRE
 70
     0
  9
$DIMCLRT
 70
     0
  9
$DIMTFAC
 40
1.0
  9
$DIMGAP
 40
1.524
  9
$LUNITS
 70
     2
  9
$LUPREC
 70
     6
  9
$SKETCHINC
 40
1.0
  9
$FILLETRAD
 40
0.0
  9
$AUNITS
 70
     0
  9
$AUPREC
 70
     8
  9
$MENU
  1
.
  9
$ELEVATION
 40
0.0
  9
$PELEVATION
 40
0.0
  9
$THICKNESS
 40
0.0
  9
$LIMCHECK
 70
     0
  9
$CHAMFERA
 40
0.0
  9
$CHAMFERB
 40
0.0
  9
$SKPOLY
 70
     0
  9
$TDCREATE
 40
2460033.923496355
  9
$TDUPDATE
 40
2460033.92400463
  9
$TDINDWG
 40
0.0000000116
  9
$TDUSRTIMER
 40
0.0000000116
  9
$USRTIMER
 70
     1
  9
$ANGBASE
 50
0.0
  9
$ANGDIR
 70
     0
  9
$PDMODE
 70
     0
  9
$PDSIZE
 40
-1.0
  9
$PLINEWID
 40
0.0
  9
$COORDS
 70
     1
  9
$SPLFRAME
 70
     0
  9
$SPLINETYPE
 70
     6
  9
$SPLINESEGS
 70
     8
  9
$ATTDIA
 70
     0
  9
$ATTREQ
 70
     1
  9
$HANDLING
 70
     1
  9
$HANDSEED
  5
2E9
  9
$SURFTAB1
 70
     6
  9
$SURFTAB2
 70
     6
  9
$SURFTYPE
 70
     6
  9
$SURFU
 70
     6
  9
$SURFV
 70
     6
  9
$UCSNAME
  2

  9
$UCSORG
 10
0.0
 20
0.0
 30
0.0
  9
$UCSXDIR
 10
1.0
 20
0.0
 30
0.0
  9
$UCSYDIR
 10
0.0
 20
1.0
 30
0.0
  9
$PUCSNAME
  2

  9
$PUCSORG
 10
0.0
 20
0.0
 30
0.0
  9
$PUCSXDIR
 10
1.0
 20
0.0
 30
0.0
  9
$PUCSYDIR
 10
0.0
 20
1.0
 30
0.0
  9
$USERI1
 70
     0
  9
$USERI2
 70
     0
  9
$USERI3
 70
     0
  9
$USERI4
 70
     0
  9
$USERI5
 70
     0
  9
$USERR1
 40
0.0
  9
$USERR2
 40
0.0
  9
$USERR3
 40
0.0
  9
$USERR4
 40
0.0
  9
$USERR5
 40
0.0
  9
$WORLDVIEW
 70
     1
  9
$SHADEDGE
 70
     3
  9
$SHADEDIF
 70
    70
  9
$TILEMODE
 70
     1
  9
$MAXACTVP
 70
    64
  9
$PLIMCHECK
 70
     0
  9
$PEXTMIN
 10
1.0000000000E+20
 20
1.0000000000E+20
 30
1.0000000000E+20
  9
$PEXTMAX
 10
-1.0000000000E+20
 20
-1.0000000000E+20
 30
-1.0000000000E+20
  9
$PLIMMIN
 10
0.0
 20
0.0
  9
$PLIMMAX
 10
420.0
 20
297.0
  9
$UNITMODE
 70
     0
  9
$VISRETAIN
 70
     1
  9
$PLINEGEN
 70
     0
  9
$PSLTSCALE
 70
     1
  0
ENDSEC
  0
SECTION
  2
TABLES
  0
TABLE
  2
VPORT
 70
     1
  0
VPORT
  2
*ACTIVE
 70
     0
 10
0.0
 20
0.0
 11
1.0
 21
1.0
 12
-56.0997221555
 22
5.250929068
 13
0.0
 23
0.0
 14
10.0
 24
10.0
 15
10.0
 25
10.0
 16
0.0
 26
0.0
 36
1.0
 17
0.0
 27
0.0
 37
0.0
 40
29.4951952988
 41
4.6706126812
 42
50.0
 43
0.0
 44
0.0
 50
0.0
 51
0.0
 71
     0
 72
   100
 73
     1
 74
     3
 75
     0
 76
     0
 77
     0
 78
     0
  0
ENDTAB
  0
TABLE
  2
LTYPE
 70
     6
  0
LTYPE
  2
CONTINUOUS
 70
     0
  3
Solid line
 72
    65
 73
     0
 40
0.0
  0
LTYPE
  2
HIDDEN
 70
     0
  3
Hidden __ __ __ __ __ __ __ __ __ __ __ __ __ __
 72
    65
 73
     2
 40
1.905
 49
1.27
 49
-0.635
  0
LTYPE
  2
PHANTOM
 70
     0
  3
Phantom ______  __  __  ______  __  __  ______
 72
    65
 73
     6
 40
12.7
 49
6.35
 49
-1.27
 49
1.27
 49
-1.27
 49
1.27
 49
-1.27
  0
LTYPE
  2
CENTER
 70
     0
  3
Center ____ _ ____ _ ____ _ ____ _ ____ _ ____
 72
    65
 73
     4
 40
10.16
 49
6.35
 49
-1.27
 49
1.27
 49
-1.27
  0
LTYPE
  2
CENTERX2
 70
     0
  3
Center (2x) ________  __  ________  __  _____
 72
    65
 73
     4
 40
20.32
 49
12.7
 49
-2.54
 49
2.54
 49
-2.54
  0
LTYPE
  2
DOT2
 70
     0
  3
Dot (.5x) ........................................
 72
    65
 73
     2
 40
0.635
 49
0.0
 49
-0.635
  0
ENDTAB
  0
TABLE
  2
LAYER
 70
     2
  0
LAYER
  2
0
 70
     0
 62
     7
  6
CONTINUOUS
  0
LAYER
  2
DEFPOINTS
 70
     0
 62
     7
  6
CONTINUOUS
  0
ENDTAB
  0
TABLE
  2
STYLE
 70
     1
  0
STYLE
  2
STANDARD
 70
     0
 40
0.0
 41
1.0
 50
0.0
 71
     0
 42
3.5
  3
txt
  4

  0
ENDTAB
  0
TABLE
  2
VIEW
 70
     0
  0
ENDTAB
  0
TABLE
  2
UCS
 70
     0
  0
ENDTAB
  0
TABLE
  2
APPID
 70
     1
  0
APPID
  2
ACAD
 70
     0
  0
ENDTAB
  0
TABLE
  2
DIMSTYLE
 70
     1
  0
DIMSTYLE
  2
ISO-25
 70
     0
  3

  4

  5

  6

  7

 40
1.0
 41
2.5
 42
0.625
 43
3.75
 44
1.25
 45
0.0
 46
0.0
 47
0.0
 48
0.0
140
2.5
141
2.5
142
0.0
143
0.0393700787
144
1.0
145
0.0
146
1.0
147
0.625
 71
     0
 72
     0
 73
     0
 74
     0
 75
     0
 76
     0
 77
     1
 78
     8
170
     0
171
     3
172
     1
173
     0
174
     0
175
     0
176
     0
177
     0
178
     0
  0
ENDTAB
  0
ENDSEC
  0
SECTION
  2
BLOCKS
  0
BLOCK
  8
0
  2
$MODEL_SPACE
 70
     0
 10
0.0
 20
0.0
 30
0.0
  3
$MODEL_SPACE
  1

  0
ENDBLK
  5
21
  8
0
  0
BLOCK
 67
     1
  8
0
  2
$PAPER_SPACE
 70
     0
 10
0.0
 20
0.0
 30
0.0
  3
$PAPER_SPACE
  1

  0
ENDBLK
  5
1D
 67
     1
  8
0
  0
ENDSEC
  0
SECTION
  2
ENTITIES
  0
CIRCLE
  5
64
  8
0
  6
CONTINUOUS
 62
     7
 10
-9.983058136
 20
16.209358136
 30
0.0
 40
1.200000000000003
  0
CIRCLE
  5
65
  8
0
  6
CONTINUOUS
 62
     7
 10
-95.377858136
 20
16.209358136
 30
0.0
 40
1.199999999999999
  0
CIRCLE
  5
66
  8
0
  6
CONTINUOUS
 62
     7
 10
-77.117858136
 20
-2.7525
 30
0.0
 40
2.000000000000028
  0
CIRCLE
  5
67
  8
0
  6
CONTINUOUS
 62
     7
 10
-72.117858136
 20
-2.7525
 30
0.0
 40
1.999999999999986
  0
CIRCLE
  5
68
  8
0
  6
CONTINUOUS
 62
     7
 10
-67.117858136
 20
-2.7525
 30
0.0
 40
1.999999999999986
  0
CIRCLE
  5
69
  8
0
  6
CONTINUOUS
 62
     7
 10
-62.117858136
 20
-2.7525
 30
0.0
 40
2.000000000000007
  0
CIRCLE
  5
6A
  8
0
  6
CONTINUOUS
 62
     7
 10
-57.117858136
 20
-2.7525
 30
0.0
 40
2.000000000000007
  0
CIRCLE
  5
73
  8
0
  6
CONTINUOUS
 62
     7
 10
-77.117858136
 20
2.7475
 30
0.0
 40
1.485000000000014
  0
CIRCLE
  5
74
  8
0
  6
CONTINUOUS
 62
     7
 10
-72.117858136
 20
2.7475
 30
0.0
 40
1.484999999999985
  0
LINE
  5
AA
  8
0
  6
CONTINUOUS
 62
     7
 10
-30.667858136
 20
0.6975
 30
0.0
 11
-52.167858136
 21
0.6975
 31
0.0
  0
LINE
  5
AB
  8
0
  6
CONTINUOUS
 62
     7
 10
-54.167858136
 20
-1.3025
 30
0.0
 11
-54.167858136
 21
-2.8025
 31
0.0
  0
LINE
  5
AC
  8
0
  6
CONTINUOUS
 62
     7
 10
-52.167858136
 20
-4.8025
 30
0.0
 11
-30.667858136
 21
-4.8025
 31
0.0
  0
LINE
  5
AD
  8
0
  6
CONTINUOUS
 62
     7
 10
-28.667858136
 20
-2.8025
 30
0.0
 11
-28.667858136
 21
-1.3025
 31
0.0
  0
LINE
  5
AE
  8
0
  6
CONTINUOUS
 62
     7
 10
-100.147858136
 20
5.1435
 30
0.0
 11
-100.147858136
 21
7.2075
 31
0.0
  0
LINE
  5
AF
  8
0
  6
CONTINUOUS
 62
     7
 10
-98.877858136
 20
16.209358136
 30
0.0
 11
-98.877858136
 21
5.1435
 31
0.0
  0
LINE
  5
B0
  8
0
  6
CONTINUOUS
 62
     7
 10
-91.877858136
 20
5.1435
 30
0.0
 11
-91.877858136
 21
16.209358136
 31
0.0
  0
LINE
  5
B1
  8
0
  6
CONTINUOUS
 62
     7
 10
-90.607858136
 20
7.2075
 30
0.0
 11
-90.607858136
 21
5.1435
 31
0.0
  0
LINE
  5
B2
  8
0
  6
CONTINUOUS
 62
     7
 10
-16.753058136
 20
9.2075
 30
0.0
 11
-88.607858136
 21
9.2075
 31
0.0
  0
LINE
  5
B3
  8
0
  6
CONTINUOUS
 62
     7
 10
-14.753058136
 20
5.1435
 30
0.0
 11
-14.753058136
 21
7.2075
 31
0.0
  0
LINE
  5
B4
  8
0
  6
CONTINUOUS
 62
     7
 10
-13.483058136
 20
16.209358136
 30
0.0
 11
-13.483058136
 21
5.1435
 31
0.0
  0
LINE
  5
B5
  8
0
  6
CONTINUOUS
 62
     7
 10
-6.483058136
 20
2.3175
 30
0.0
 11
-6.483058136
 21
16.209358136
 31
0.0
  0
LINE
  5
B6
  8
0
  6
CONTINUOUS
 62
     7
 10
-4.483058136
 20
0.3175
 30
0.0
 11
2.794
 21
0.3175
 31
0.0
  0
LINE
  5
B7
  8
0
  6
CONTINUOUS
 62
     7
 10
2.794
 20
1.5875
 30
0.0
 11
0.73
 21
1.5875
 31
0.0
  0
LINE
  5
B8
  8
0
  6
CONTINUOUS
 62
     7
 10
-1.27
 20
3.5875
 30
0.0
 11
-1.27
 21
7.2075
 31
0.0
  0
LINE
  5
B9
  8
0
  6
CONTINUOUS
 62
     7
 10
0.8702
 20
9.2075
 30
0.0
 11
0.73
 21
9.2075
 31
0.0
  0
LINE
  5
BA
  8
0
  6
CONTINUOUS
 62
     7
 10
2.8702
 20
7.2075
 30
0.0
 11
2.8702
 21
6.0325
 31
0.0
  0
LINE
  5
BB
  8
0
  6
CONTINUOUS
 62
     7
 10
7.2898
 20
6.0325
 30
0.0
 11
7.2898
 21
7.2075
 31
0.0
  0
LINE
  5
BC
  8
0
  6
CONTINUOUS
 62
     7
 10
9.2898
 20
9.2075
 30
0.0
 11
9.43
 21
9.2075
 31
0.0
  0
LINE
  5
BD
  8
0
  6
CONTINUOUS
 62
     7
 10
11.43
 20
7.2075
 30
0.0
 11
11.43
 21
3.5875
 31
0.0
  0
LINE
  5
BE
  8
0
  6
CONTINUOUS
 62
     7
 10
9.43
 20
1.5875
 30
0.0
 11
7.439
 21
1.5875
 31
0.0
  0
LINE
  5
BF
  8
0
  6
CONTINUOUS
 62
     7
 10
7.439
 20
1.5875
 30
0.0
 11
7.439
 21
-1.4605
 31
0.0
  0
LINE
  5
C0
  8
0
  6
CONTINUOUS
 62
     7
 10
7.439
 20
-1.4605
 30
0.0
 11
9.43
 21
-1.4605
 31
0.0
  0
LINE
  5
C1
  8
0
  6
CONTINUOUS
 62
     7
 10
11.43
 20
-3.4605
 30
0.0
 11
11.43
 21
-4.6675
 31
0.0
  0
LINE
  5
C2
  8
0
  6
CONTINUOUS
 62
     7
 10
-2.957858136
 20
-6.6675
 30
0.0
 11
9.43
 21
-6.6675
 31
0.0
  0
LINE
  5
C3
  8
0
  6
CONTINUOUS
 62
     7
 10
-4.9120716984
 20
-8.6217135624
 30
0.0
 11
-2.957858136
 21
-6.6675
 31
0.0
  0
LINE
  5
C4
  8
0
  6
CONTINUOUS
 62
     7
 10
-111.0754310113
 20
-9.2075
 30
0.0
 11
-6.3262852608
 21
-9.2075
 31
0.0
  0
LINE
  5
C5
  8
0
  6
CONTINUOUS
 62
     7
 10
-116.018658136
 20
-5.0927
 30
0.0
 11
-112.4896445737
 21
-8.6217135624
 31
0.0
  0
LINE
  5
C6
  8
0
  6
CONTINUOUS
 62
     7
 10
-116.018658136
 20
-5.0927
 30
0.0
 11
-121.6294443111
 21
-5.0927
 31
0.0
  0
LINE
  5
C7
  8
0
  6
CONTINUOUS
 62
     7
 10
-123.6294443111
 20
-3.0927
 30
0.0
 11
-123.6294443111
 21
3.0927
 31
0.0
  0
LINE
  5
C8
  8
0
  6
CONTINUOUS
 62
     7
 10
-121.6294443111
 20
5.0927
 30
0.0
 11
-116.018658136
 21
5.0927
 31
0.0
  0
LINE
  5
C9
  8
0
  6
CONTINUOUS
 62
     7
 10
-112.4896445737
 20
8.6217135624
 30
0.0
 11
-116.018658136
 21
5.0927
 31
0.0
  0
LINE
  5
CA
  8
0
  6
CONTINUOUS
 62
     7
 10
-102.147858136
 20
9.2075
 30
0.0
 11
-111.0754310113
 21
9.2075
 31
0.0
  0
ARC
  5
CB
  8
0
  6
CONTINUOUS
 62
     7
 10
-52.167858136
 20
-1.3025
 30
0.0
 40
2.000000000000014
 50
90.0
 51
180.0
  0
ARC
  5
CC
  8
0
  6
CONTINUOUS
 62
     7
 10
-52.167858136
 20
-2.8025
 30
0.0
 40
2.000000000000002
 50
180.0
 51
270.0
  0
ARC
  5
CD
  8
0
  6
CONTINUOUS
 62
     7
 10
-30.667858136
 20
-2.8025
 30
0.0
 40
2.000000000000007
 50
270.0
 51
0.0
  0
ARC
  5
CE
  8
0
  6
CONTINUOUS
 62
     7
 10
-30.667858136
 20
-1.3025
 30
0.0
 40
1.999999999999997
 50
0.0
 51
90.0
  0
ARC
  5
CF
  8
0
  6
CONTINUOUS
 62
     7
 10
-102.147858136
 20
7.2075
 30
0.0
 40
2.000000000000003
 50
0.0
 51
90.0
  0
ARC
  5
D0
  8
0
  6
CONTINUOUS
 62
     7
 10
-99.512858136
 20
5.1435
 30
0.0
 40
0.6350000000000051
 50
180.0
 51
0.0
  0
ARC
  5
D1
  8
0
  6
CONTINUOUS
 62
     7
 10
-95.377858136
 20
16.209358136
 30
0.0
 40
3.500000000000014
 50
0.0
 51
180.0
  0
ARC
  5
D2
  8
0
  6
CONTINUOUS
 62
     7
 10
-91.242858136
 20
5.1435
 30
0.0
 40
0.6350000000000051
 50
180.0
 51
0.0
  0
ARC
  5
D3
  8
0
  6
CONTINUOUS
 62
     7
 10
-88.607858136
 20
7.2075
 30
0.0
 40
2.000000000000015
 50
90.0
 51
180.0
  0
ARC
  5
D4
  8
0
  6
CONTINUOUS
 62
     7
 10
-16.753058136
 20
7.2075
 30
0.0
 40
2.0
 50
0.0
 51
90.0
  0
ARC
  5
D5
  8
0
  6
CONTINUOUS
 62
     7
 10
-14.118058136
 20
5.1435
 30
0.0
 40
0.634999999999998
 50
180.0
 51
0.0
  0
ARC
  5
D6
  8
0
  6
CONTINUOUS
 62
     7
 10
-9.983058136
 20
16.209358136
 30
0.0
 40
3.500000000000005
 50
0.0
 51
180.0
  0
ARC
  5
D7
  8
0
  6
CONTINUOUS
 62
     7
 10
-4.483058136
 20
2.3175
 30
0.0
 40
2.000000000000002
 50
180.0
 51
270.0
  0
ARC
  5
D8
  8
0
  6
CONTINUOUS
 62
     7
 10
2.794
 20
0.9525
 30
0.0
 40
0.6350000000000037
 50
270.0
 51
90.0
  0
ARC
  5
D9
  8
0
  6
CONTINUOUS
 62
     7
 10
0.73
 20
3.5875
 30
0.0
 40
1.999999999999992
 50
180.0
 51
270.0
  0
ARC
  5
DA
  8
0
  6
CONTINUOUS
 62
     7
 10
0.73
 20
7.2075
 30
0.0
 40
2.000000000000001
 50
90.0
 51
180.0
  0
ARC
  5
DB
  8
0
  6
CONTINUOUS
 62
     7
 10
0.8702
 20
7.2075
 30
0.0
 40
1.999999999999987
 50
0.0
 51
90.0
  0
ARC
  5
DC
  8
0
  6
CONTINUOUS
 62
     7
 10
5.08
 20
6.0325
 30
0.0
 40
2.209799999999999
 50
180.0
 51
0.0
  0
ARC
  5
DD
  8
0
  6
CONTINUOUS
 62
     7
 10
9.2898
 20
7.2075
 30
0.0
 40
2.000000000000004
 50
90.0
 51
180.0
  0
ARC
  5
DE
  8
0
  6
CONTINUOUS
 62
     7
 10
9.43
 20
7.2075
 30
0.0
 40
2.000000000000005
 50
0.0
 51
90.0
  0
ARC
  5
DF
  8
0
  6
CONTINUOUS
 62
     7
 10
9.43
 20
3.5875
 30
0.0
 40
2.000000000000002
 50
270.0
 51
0.0
  0
ARC
  5
E0
  8
0
  6
CONTINUOUS
 62
     7
 10
9.43
 20
-3.4605
 30
0.0
 40
2.000000000000004
 50
0.0
 51
90.0
  0
ARC
  5
E1
  8
0
  6
CONTINUOUS
 62
     7
 10
9.43
 20
-4.6675
 30
0.0
 40
2.0
 50
270.0
 51
0.0
  0
ARC
  5
E2
  8
0
  6
CONTINUOUS
 62
     7
 10
-6.3262852608
 20
-7.2075
 30
0.0
 40
1.999999999999964
 50
270.0
 51
315.0
  0
ARC
  5
E3
  8
0
  6
CONTINUOUS
 62
     7
 10
-111.0754310113
 20
-7.2075
 30
0.0
 40
1.999999999999973
 50
225.0
 51
270.0
  0
ARC
  5
E4
  8
0
  6
CONTINUOUS
 62
     7
 10
-121.6294443111
 20
-3.0927
 30
0.0
 40
2.000000000000015
 50
180.0
 51
270.0
  0
ARC
  5
E5
  8
0
  6
CONTINUOUS
 62
     7
 10
-121.6294443111
 20
3.0927
 30
0.0
 40
2.000000000000014
 50
90.0
 51
180.0
  0
ARC
  5
E6
  8
0
  6
CONTINUOUS
 62
     7
 10
-111.0754310113
 20
7.2075
 30
0.0
 40
2.000000000000077
 50
90.0
 51
135.0
  0
LINE
  5
E9
  8
0
  6
CONTINUOUS
 62
     8
 10
-0.071929068
 20
0.3175
 30
0.0
 11
-0.071929068
 21
-6.6675
 31
0.0
  0
LINE
  5
EA
  8
0
  6
CONTINUOUS
 62
     8
 10
-116.107320862
 20
5.0927
 30
0.0
 11
-116.107320862
 21
-5.0927
 31
0.0
  0
LINE
  5
ED
  8
0
  6
CONTINUOUS
 62
     8
 10
-6.483058136
 20
8.009429068
 30
0.0
 11
-13.483058136
 21
8.009429068
 31
0.0
  0
LINE
  5
EE
  8
0
  6
CONTINUOUS
 62
     8
 10
-91.877858136
 20
8.009429068
 30
0.0
 11
-98.877858136
 21
8.009429068
 31
0.0
  0
LINE
  5
F1
  8
0
  6
CENTERX2
 62
     8
 10
-6.483058136
 20
9.2075
 30
0.0
 11
-6.483058136
 21
-9.2075
 31
0.0
  0
LINE
  5
FF
  8
0
  6
CONTINUOUS
 62
     8
 10
-57.117858136
 20
3.7475
 30
0.0
 11
-58.367858136
 21
2.4975
 31
0.0
  0
LINE
  5
100
  8
0
  6
CONTINUOUS
 62
     8
 10
-58.367858136
 20
2.4975
 30
0.0
 11
-57.617858136
 21
2.4975
 31
0.0
  0
LINE
  5
101
  8
0
  6
CONTINUOUS
 62
     8
 10
-57.617858136
 20
2.4975
 30
0.0
 11
-57.617858136
 21
0.2475
 31
0.0
  0
LINE
  5
102
  8
0
  6
CONTINUOUS
 62
     8
 10
-57.617858136
 20
0.2475
 30
0.0
 11
-56.617858136
 21
0.2475
 31
0.0
  0
LINE
  5
103
  8
0
  6
CONTINUOUS
 62
     8
 10
-56.617858136
 20
0.2475
 30
0.0
 11
-56.617858136
 21
2.4975
 31
0.0
  0
LINE
  5
104
  8
0
  6
CONTINUOUS
 62
     8
 10
-56.617858136
 20
2.4975
 30
0.0
 11
-55.867858136
 21
2.4975
 31
0.0
  0
LINE
  5
105
  8
0
  6
CONTINUOUS
 62
     8
 10
-55.867858136
 20
2.4975
 30
0.0
 11
-57.117858136
 21
3.7475
 31
0.0
  0
LINE
  5
107
  8
0
  6
CONTINUOUS
 62
     8
 10
-62.117858136
 20
0.2475
 30
0.0
 11
-60.867858136
 21
1.4975
 31
0.0
  0
LINE
  5
108
  8
0
  6
CONTINUOUS
 62
     8
 10
-60.867858136
 20
1.4975
 30
0.0
 11
-61.617858136
 21
1.4975
 31
0.0
  0
LINE
  5
109
  8
0
  6
CONTINUOUS
 62
     8
 10
-61.617858136
 20
1.4975
 30
0.0
 11
-61.617858136
 21
3.7475
 31
0.0
  0
LINE
  5
10A
  8
0
  6
CONTINUOUS
 62
     8
 10
-61.617858136
 20
3.7475
 30
0.0
 11
-62.617858136
 21
3.7475
 31
0.0
  0
LINE
  5
10B
  8
0
  6
CONTINUOUS
 62
     8
 10
-62.617858136
 20
3.7475
 30
0.0
 11
-62.617858136
 21
1.4975
 31
0.0
  0
LINE
  5
10C
  8
0
  6
CONTINUOUS
 62
     8
 10
-62.617858136
 20
1.4975
 30
0.0
 11
-63.367858136
 21
1.4975
 31
0.0
  0
LINE
  5
10D
  8
0
  6
CONTINUOUS
 62
     8
 10
-63.367858136
 20
1.4975
 30
0.0
 11
-62.117858136
 21
0.2475
 31
0.0
  0
LINE
  5
110
  8
0
  6
CONTINUOUS
 62
     8
 10
-67.117858136
 20
0.2475
 30
0.0
 11
-65.867858136
 21
1.4975
 31
0.0
  0
LINE
  5
111
  8
0
  6
CONTINUOUS
 62
     8
 10
-65.867858136
 20
1.4975
 30
0.0
 11
-66.617858136
 21
1.4975
 31
0.0
  0
LINE
  5
112
  8
0
  6
CONTINUOUS
 62
     8
 10
-66.617858136
 20
1.4975
 30
0.0
 11
-66.617858136
 21
3.7475
 31
0.0
  0
LINE
  5
113
  8
0
  6
CONTINUOUS
 62
     8
 10
-66.617858136
 20
3.7475
 30
0.0
 11
-67.617858136
 21
3.7475
 31
0.0
  0
LINE
  5
114
  8
0
  6
CONTINUOUS
 62
     8
 10
-67.617858136
 20
3.7475
 30
0.0
 11
-67.617858136
 21
1.4975
 31
0.0
  0
LINE
  5
115
  8
0
  6
CONTINUOUS
 62
     8
 10
-67.617858136
 20
1.4975
 30
0.0
 11
-68.367858136
 21
1.4975
 31
0.0
  0
LINE
  5
116
  8
0
  6
CONTINUOUS
 62
     8
 10
-68.367858136
 20
1.4975
 30
0.0
 11
-67.117858136
 21
0.2475
 31
0.0
  0
POLYLINE
  5
118
  8
0
  6
CONTINUOUS
 62
     8
 66
     1
 10
0.0
 20
0.0
 30
0.0
 70
   128
  0
VERTEX
  5
121
  8
0
  6
CONTINUOUS
 62
     8
 10
-77.4761313732
 20
8.2475
 30
0.0
  0
VERTEX
  5
122
  8
0
  6
CONTINUOUS
 62
     8
 10
-76.8934991617
 20
8.2475
 30
0.0
  0
VERTEX
  5
123
  8
0
  6
CONTINUOUS
 62
     8
 10
-76.8934991617
 20
8.2475
 30
0.0
  0
VERTEX
  5
124
  8
0
  6
CONTINUOUS
 62
     8
 10
-75.4800376232
 20
4.7475
 30
0.0
  0
VERTEX
  5
125
  8
0
  6
CONTINUOUS
 62
     8
 10
-75.4800376232
 20
4.7475
 30
0.0
  0
VERTEX
  5
126
  8
0
  6
CONTINUOUS
 62
     8
 10
-76.1510111809
 20
4.7475
 30
0.0
  0
VERTEX
  5
127
  8
0
  6
CONTINUOUS
 62
     8
 10
-76.1510111809
 20
4.7475
 30
0.0
  0
VERTEX
  5
128
  8
0
  6
CONTINUOUS
 62
     8
 10
-76.4230464373
 20
5.4654487179
 30
0.0
  0
VERTEX
  5
129
  8
0
  6
CONTINUOUS
 62
     8
 10
-76.4230464373
 20
5.4654487179
 30
0.0
  0
VERTEX
  5
12A
  8
0
  6
CONTINUOUS
 62
     8
 10
-77.9479863412
 20
5.4654487179
 30
0.0
  0
VERTEX
  5
12B
  8
0
  6
CONTINUOUS
 62
     8
 10
-77.9479863412
 20
5.4654487179
 30
0.0
  0
VERTEX
  5
12C
  8
0
  6
CONTINUOUS
 62
     8
 10
-78.2200215976
 20
4.7475
 30
0.0
  0
VERTEX
  5
12D
  8
0
  6
CONTINUOUS
 62
     8
 10
-78.2200215976
 20
4.7475
 30
0.0
  0
VERTEX
  5
12E
  8
0
  6
CONTINUOUS
 62
     8
 10
-78.8902940335
 20
4.7475
 30
0.0
  0
VERTEX
  5
12F
  8
0
  6
CONTINUOUS
 62
     8
 10
-78.8902940335
 20
4.7475
 30
0.0
  0
VERTEX
  5
130
  8
0
  6
CONTINUOUS
 62
     8
 10
-77.4761313732
 20
8.2475
 30
0.0
  0
SEQEND
  5
2E0
  8
0
  6
CONTINUOUS
 62
     8
  0
POLYLINE
  5
119
  8
0
  6
CONTINUOUS
 62
     8
 66
     1
 10
0.0
 20
0.0
 30
0.0
 70
   128
  0
VERTEX
  5
131
  8
0
  6
CONTINUOUS
 62
     8
 10
-77.1851658284
 20
7.3086979167
 30
0.0
  0
VERTEX
  5
132
  8
0
  6
CONTINUOUS
 62
     8
 10
-77.7096049309
 20
6.0936538462
 30
0.0
  0
VERTEX
  5
133
  8
0
  6
CONTINUOUS
 62
     8
 10
-77.7096049309
 20
6.0936538462
 30
0.0
  0
VERTEX
  5
134
  8
0
  6
CONTINUOUS
 62
     8
 10
-76.6607267258
 20
6.0936538462
 30
0.0
  0
VERTEX
  5
135
  8
0
  6
CONTINUOUS
 62
     8
 10
-76.6607267258
 20
6.0936538462
 30
0.0
  0
VERTEX
  5
136
  8
0
  6
CONTINUOUS
 62
     8
 10
-77.1851658284
 20
7.3086979167
 30
0.0
  0
SEQEND
  5
2E1
  8
0
  6
CONTINUOUS
 62
     8
  0
POLYLINE
  5
11A
  8
0
  6
CONTINUOUS
 62
     8
 66
     1
 10
0.0
 20
0.0
 30
0.0
 70
   128
  0
VERTEX
  5
137
  8
0
  6
CONTINUOUS
 62
     8
 10
-73.1050376232
 20
4.7475
 30
0.0
  0
VERTEX
  5
138
  8
0
  6
CONTINUOUS
 62
     8
 10
-73.1050376232
 20
8.2475
 30
0.0
  0
VERTEX
  5
139
  8
0
  6
CONTINUOUS
 62
     8
 10
-73.1050376232
 20
8.2475
 30
0.0
  0
VERTEX
  5
13A
  8
0
  6
CONTINUOUS
 62
     8
 10
-72.5441401873
 20
8.2475
 30
0.0
  0
VERTEX
  5
13B
  8
0
  6
CONTINUOUS
 62
     8
 10
-72.5441401873
 20
8.2475
 30
0.0
  0
VERTEX
  5
13C
  8
0
  6
CONTINUOUS
 62
     8
 10
-72.4263517258
 20
8.2467988782
 30
0.0
  0
VERTEX
  5
13D
  8
0
  6
CONTINUOUS
 62
     8
 10
-72.316275604
 20
8.2432932692
 30
0.0
  0
VERTEX
  5
13E
  8
0
  6
CONTINUOUS
 62
     8
 10
-72.2153140655
 20
8.2383854167
 30
0.0
  0
VERTEX
  5
13F
  8
0
  6
CONTINUOUS
 62
     8
 10
-72.121363745
 20
8.2320753205
 30
0.0
  0
VERTEX
  5
140
  8
0
  6
CONTINUOUS
 62
     8
 10
-72.0365280078
 20
8.2229607372
 30
0.0
  0
VERTEX
  5
141
  8
0
  6
CONTINUOUS
 62
     8
 10
-71.9594046104
 20
8.2124439103
 30
0.0
  0
VERTEX
  5
142
  8
0
  6
CONTINUOUS
 62
     8
 10
-71.8906946745
 20
8.1998237179
 30
0.0
  0
VERTEX
  5
143
  8
0
  6
CONTINUOUS
 62
     8
 10
-71.8303982001
 20
8.1851001603
 30
0.0
  0
VERTEX
  5
144
  8
0
  6
CONTINUOUS
 62
     8
 10
-71.8303982001
 20
8.1851001603
 30
0.0
  0
VERTEX
  5
145
  8
0
  6
CONTINUOUS
 62
     8
 10
-71.7518725591
 20
8.161963141
 30
0.0
  0
VERTEX
  5
146
  8
0
  6
CONTINUOUS
 62
     8
 10
-71.6782547707
 20
8.1339182692
 30
0.0
  0
VERTEX
  5
147
  8
0
  6
CONTINUOUS
 62
     8
 10
-71.6081425912
 20
8.1016666667
 30
0.0
  0
VERTEX
  5
148
  8
0
  6
CONTINUOUS
 62
     8
 10
-71.5422371425
 20
8.0652083333
 30
0.0
  0
VERTEX
  5
149
  8
0
  6
CONTINUOUS
 62
     8
 10
-71.4805384245
 20
8.0238421474
 30
0.0
  0
VERTEX
  5
14A
  8
0
  6
CONTINUOUS
 62
     8
 10
-71.4230464373
 20
7.977568109
 30
0.0
  0
VERTEX
  5
14B
  8
0
  6
CONTINUOUS
 62
     8
 10
-71.3690600591
 20
7.9270873397
 30
0.0
  0
VERTEX
  5
14C
  8
0
  6
CONTINUOUS
 62
     8
 10
-71.3199815335
 20
7.8723998397
 30
0.0
  0
VERTEX
  5
14D
  8
0
  6
CONTINUOUS
 62
     8
 10
-71.2758108604
 20
7.8142067308
 30
0.0
  0
VERTEX
  5
14E
  8
0
  6
CONTINUOUS
 62
     8
 10
-71.2372491617
 20
7.7532091346
 30
0.0
  0
VERTEX
  5
14F
  8
0
  6
CONTINUOUS
 62
     8
 10
-71.2042964373
 20
7.6901081731
 30
0.0
  0
VERTEX
  5
150
  8
0
  6
CONTINUOUS
 62
     8
 10
-71.1776538091
 20
7.6242027244
 30
0.0
  0
VERTEX
  5
151
  8
0
  6
CONTINUOUS
 62
     8
 10
-71.1573212771
 20
7.5554927885
 30
0.0
  0
VERTEX
  5
152
  8
0
  6
CONTINUOUS
 62
     8
 10
-71.1425977194
 20
7.4846794872
 30
0.0
  0
VERTEX
  5
153
  8
0
  6
CONTINUOUS
 62
     8
 10
-71.133483136
 20
7.4110616987
 30
0.0
  0
VERTEX
  5
154
  8
0
  6
CONTINUOUS
 62
     8
 10
-71.1306786489
 20
7.3346394231
 30
0.0
  0
VERTEX
  5
155
  8
0
  6
CONTINUOUS
 62
     8
 10
-71.1306786489
 20
7.3346394231
 30
0.0
  0
VERTEX
  5
156
  8
0
  6
CONTINUOUS
 62
     8
 10
-71.1362876232
 20
7.2364823718
 30
0.0
  0
VERTEX
  5
157
  8
0
  6
CONTINUOUS
 62
     8
 10
-71.1517123027
 20
7.1425320513
 30
0.0
  0
VERTEX
  5
158
  8
0
  6
CONTINUOUS
 62
     8
 10
-71.1790560527
 20
7.0534895833
 30
0.0
  0
VERTEX
  5
159
  8
0
  6
CONTINUOUS
 62
     8
 10
-71.2162155078
 20
6.9686538462
 30
0.0
  0
VERTEX
  5
15A
  8
0
  6
CONTINUOUS
 62
     8
 10
-71.2652940335
 20
6.8880248397
 30
0.0
  0
VERTEX
  5
15B
  8
0
  6
CONTINUOUS
 62
     8
 10
-71.328394995
 20
6.8094991987
 30
0.0
  0
VERTEX
  5
15C
  8
0
  6
CONTINUOUS
 62
     8
 10
-71.4041161489
 20
6.7337780449
 30
0.0
  0
VERTEX
  5
15D
  8
0
  6
CONTINUOUS
 62
     8
 10
-71.4938597386
 20
6.6601602564
 30
0.0
  0
VERTEX
  5
15E
  8
0
  6
CONTINUOUS
 62
     8
 10
-71.4938597386
 20
6.6601602564
 30
0.0
  0
VERTEX
  5
15F
  8
0
  6
CONTINUOUS
 62
     8
 10
-71.4202419501
 20
6.6215985577
 30
0.0
  0
VERTEX
  5
160
  8
0
  6
CONTINUOUS
 62
     8
 10
-71.3515320143
 20
6.5809334936
 30
0.0
  0
VERTEX
  5
161
  8
0
  6
CONTINUOUS
 62
     8
 10
-71.2884310527
 20
6.5381650641
 30
0.0
  0
VERTEX
  5
162
  8
0
  6
CONTINUOUS
 62
     8
 10
-71.2295368219
 20
6.4925921474
 30
0.0
  0
VERTEX
  5
163
  8
0
  6
CONTINUOUS
 62
     8
 10
-71.1769526873
 20
6.4449158654
 30
0.0
  0
VERTEX
  5
164
  8
0
  6
CONTINUOUS
 62
     8
 10
-71.1285752835
 20
6.3951362179
 30
0.0
  0
VERTEX
  5
165
  8
0
  6
CONTINUOUS
 62
     8
 10
-71.085806854
 20
6.3425520833
 30
0.0
  0
VERTEX
  5
166
  8
0
  6
CONTINUOUS
 62
     8
 10
-71.0479462771
 20
6.2878645833
 30
0.0
  0
VERTEX
  5
167
  8
0
  6
CONTINUOUS
 62
     8
 10
-71.0149935527
 20
6.2310737179
 30
0.0
  0
VERTEX
  5
168
  8
0
  6
CONTINUOUS
 62
     8
 10
-70.9862475591
 20
6.1714783654
 30
0.0
  0
VERTEX
  5
169
  8
0
  6
CONTINUOUS
 62
     8
 10
-70.9617082963
 20
6.1090785256
 30
0.0
  0
VERTEX
  5
16A
  8
0
  6
CONTINUOUS
 62
     8
 10
-70.9413757643
 20
6.0445753205
 30
0.0
  0
VERTEX
  5
16B
  8
0
  6
CONTINUOUS
 62
     8
 10
-70.9259510848
 20
5.9772676282
 30
0.0
  0
VERTEX
  5
16C
  8
0
  6
CONTINUOUS
 62
     8
 10
-70.9154342578
 20
5.9078565705
 30
0.0
  0
VERTEX
  5
16D
  8
0
  6
CONTINUOUS
 62
     8
 10
-70.9084230399
 20
5.8356410256
 30
0.0
  0
VERTEX
  5
16E
  8
0
  6
CONTINUOUS
 62
     8
 10
-70.9063196745
 20
5.7606209936
 30
0.0
  0
VERTEX
  5
16F
  8
0
  6
CONTINUOUS
 62
     8
 10
-70.9063196745
 20
5.7606209936
 30
0.0
  0
VERTEX
  5
170
  8
0
  6
CONTINUOUS
 62
     8
 10
-70.9161353796
 20
5.6175921474
 30
0.0
  0
VERTEX
  5
171
  8
0
  6
CONTINUOUS
 62
     8
 10
-70.9441802514
 20
5.4808733974
 30
0.0
  0
VERTEX
  5
172
  8
0
  6
CONTINUOUS
 62
     8
 10
-70.9925576553
 20
5.3504647436
 30
0.0
  0
VERTEX
  5
173
  8
0
  6
CONTINUOUS
 62
     8
 10
-71.0591642258
 20
5.2263661859
 30
0.0
  0
VERTEX
  5
174
  8
0
  6
CONTINUOUS
 62
     8
 10
-71.1411954758
 20
5.1134855769
 30
0.0
  0
VERTEX
  5
175
  8
0
  6
CONTINUOUS
 62
     8
 10
-71.2344446745
 20
5.0160296474
 30
0.0
  0
VERTEX
  5
176
  8
0
  6
CONTINUOUS
 62
     8
 10
-71.3382107001
 20
4.9339983974
 30
0.0
  0
VERTEX
  5
177
  8
0
  6
CONTINUOUS
 62
     8
 10
-71.4538957963
 20
4.8666907051
 30
0.0
  0
VERTEX
  5
178
  8
0
  6
CONTINUOUS
 62
     8
 10
-71.5169967578
 20
4.8386458333
 30
0.0
  0
VERTEX
  5
179
  8
0
  6
CONTINUOUS
 62
     8
 10
-71.5857066937
 20
4.8148076923
 30
0.0
  0
VERTEX
  5
17A
  8
0
  6
CONTINUOUS
 62
     8
 10
-71.6607267258
 20
4.7937740385
 30
0.0
  0
VERTEX
  5
17B
  8
0
  6
CONTINUOUS
 62
     8
 10
-71.7413557322
 20
4.7776482372
 30
0.0
  0
VERTEX
  5
17C
  8
0
  6
CONTINUOUS
 62
     8
 10
-71.827593713
 20
4.7643269231
 30
0.0
  0
VERTEX
  5
17D
  8
0
  6
CONTINUOUS
 62
     8
 10
-71.9194406681
 20
4.7552123397
 30
0.0
  0
VERTEX
  5
17E
  8
0
  6
CONTINUOUS
 62
     8
 10
-72.0168965976
 20
4.7496033654
 30
0.0
  0
VERTEX
  5
17F
  8
0
  6
CONTINUOUS
 62
     8
 10
-72.1206626232
 20
4.7475
 30
0.0
  0
VERTEX
  5
180
  8
0
  6
CONTINUOUS
 62
     8
 10
-72.1206626232
 20
4.7475
 30
0.0
  0
VERTEX
  5
181
  8
0
  6
CONTINUOUS
 62
     8
 10
-73.1050376232
 20
4.7475
 30
0.0
  0
SEQEND
  5
2E2
  8
0
  6
CONTINUOUS
 62
     8
  0
POLYLINE
  5
11B
  8
0
  6
CONTINUOUS
 62
     8
 66
     1
 10
0.0
 20
0.0
 30
0.0
 70
   128
  0
VERTEX
  5
182
  8
0
  6
CONTINUOUS
 62
     8
 10
-72.476832495
 20
7.6192948718
 30
0.0
  0
VERTEX
  5
183
  8
0
  6
CONTINUOUS
 62
     8
 10
-72.476832495
 20
6.856474359
 30
0.0
  0
VERTEX
  5
184
  8
0
  6
CONTINUOUS
 62
     8
 10
-72.476832495
 20
6.856474359
 30
0.0
  0
VERTEX
  5
185
  8
0
  6
CONTINUOUS
 62
     8
 10
-72.3099655078
 20
6.856474359
 30
0.0
  0
VERTEX
  5
186
  8
0
  6
CONTINUOUS
 62
     8
 10
-72.3099655078
 20
6.856474359
 30
0.0
  0
VERTEX
  5
187
  8
0
  6
CONTINUOUS
 62
     8
 10
-72.2419566937
 20
6.8578766026
 30
0.0
  0
VERTEX
  5
188
  8
0
  6
CONTINUOUS
 62
     8
 10
-72.1788557322
 20
6.8627844551
 30
0.0
  0
VERTEX
  5
189
  8
0
  6
CONTINUOUS
 62
     8
 10
-72.1206626232
 20
6.8711979167
 30
0.0
  0
VERTEX
  5
18A
  8
0
  6
CONTINUOUS
 62
     8
 10
-72.0659751232
 20
6.8831169872
 30
0.0
  0
VERTEX
  5
18B
  8
0
  6
CONTINUOUS
 62
     8
 10
-72.0168965976
 20
6.8978405449
 30
0.0
  0
VERTEX
  5
18C
  8
0
  6
CONTINUOUS
 62
     8
 10
-71.9713236809
 20
6.9160697115
 30
0.0
  0
VERTEX
  5
18D
  8
0
  6
CONTINUOUS
 62
     8
 10
-71.9306586168
 20
6.9378044872
 30
0.0
  0
VERTEX
  5
18E
  8
0
  6
CONTINUOUS
 62
     8
 10
-71.8949014053
 20
6.96234375
 30
0.0
  0
VERTEX
  5
18F
  8
0
  6
CONTINUOUS
 62
     8
 10
-71.8353060527
 20
7.0198357372
 30
0.0
  0
VERTEX
  5
190
  8
0
  6
CONTINUOUS
 62
     8
 10
-71.7925376232
 20
7.0871434295
 30
0.0
  0
VERTEX
  5
191
  8
0
  6
CONTINUOUS
 62
     8
 10
-71.7672972386
 20
7.1642668269
 30
0.0
  0
VERTEX
  5
192
  8
0
  6
CONTINUOUS
 62
     8
 10
-71.7588837771
 20
7.2505048077
 30
0.0
  0
VERTEX
  5
193
  8
0
  6
CONTINUOUS
 62
     8
 10
-71.7588837771
 20
7.2505048077
 30
0.0
  0
VERTEX
  5
194
  8
0
  6
CONTINUOUS
 62
     8
 10
-71.7665961168
 20
7.3311338141
 30
0.0
  0
VERTEX
  5
195
  8
0
  6
CONTINUOUS
 62
     8
 10
-71.7911353796
 20
7.4026482372
 30
0.0
  0
VERTEX
  5
196
  8
0
  6
CONTINUOUS
 62
     8
 10
-71.8310993219
 20
7.4657491987
 30
0.0
  0
VERTEX
  5
197
  8
0
  6
CONTINUOUS
 62
     8
 10
-71.8878901873
 20
7.5197355769
 30
0.0
  0
VERTEX
  5
198
  8
0
  6
CONTINUOUS
 62
     8
 10
-71.9222451553
 20
7.5428725962
 30
0.0
  0
VERTEX
  5
199
  8
0
  6
CONTINUOUS
 62
     8
 10
-71.960806854
 20
7.5632051282
 30
0.0
  0
VERTEX
  5
19A
  8
0
  6
CONTINUOUS
 62
     8
 10
-72.0028741617
 20
7.5807331731
 30
0.0
  0
VERTEX
  5
19B
  8
0
  6
CONTINUOUS
 62
     8
 10
-72.0498493219
 20
7.594755609
 30
0.0
  0
VERTEX
  5
19C
  8
0
  6
CONTINUOUS
 62
     8
 10
-72.101031213
 20
7.6052724359
 30
0.0
  0
VERTEX
  5
19D
  8
0
  6
CONTINUOUS
 62
     8
 10
-72.1564198348
 20
7.6129847756
 30
0.0
  0
VERTEX
  5
19E
  8
0
  6
CONTINUOUS
 62
     8
 10
-72.2160151873
 20
7.6178926282
 30
0.0
  0
VERTEX
  5
19F
  8
0
  6
CONTINUOUS
 62
     8
 10
-72.2798172707
 20
7.6192948718
 30
0.0
  0
VERTEX
  5
1A0
  8
0
  6
CONTINUOUS
 62
     8
 10
-72.2798172707
 20
7.6192948718
 30
0.0
  0
VERTEX
  5
1A1
  8
0
  6
CONTINUOUS
 62
     8
 10
-72.476832495
 20
7.6192948718
 30
0.0
  0
SEQEND
  5
2E3
  8
0
  6
CONTINUOUS
 62
     8
  0
POLYLINE
  5
11C
  8
0
  6
CONTINUOUS
 62
     8
 66
     1
 10
0.0
 20
0.0
 30
0.0
 70
   128
  0
VERTEX
  5
1A2
  8
0
  6
CONTINUOUS
 62
     8
 10
-72.476832495
 20
6.2731410256
 30
0.0
  0
VERTEX
  5
1A3
  8
0
  6
CONTINUOUS
 62
     8
 10
-72.476832495
 20
5.3757051282
 30
0.0
  0
VERTEX
  5
1A4
  8
0
  6
CONTINUOUS
 62
     8
 10
-72.476832495
 20
5.3757051282
 30
0.0
  0
VERTEX
  5
1A5
  8
0
  6
CONTINUOUS
 62
     8
 10
-72.2959430719
 20
5.3757051282
 30
0.0
  0
VERTEX
  5
1A6
  8
0
  6
CONTINUOUS
 62
     8
 10
-72.2959430719
 20
5.3757051282
 30
0.0
  0
VERTEX
  5
1A7
  8
0
  6
CONTINUOUS
 62
     8
 10
-72.1886714373
 20
5.3771073718
 30
0.0
  0
VERTEX
  5
1A8
  8
0
  6
CONTINUOUS
 62
     8
 10
-72.0898132643
 20
5.3820152244
 30
0.0
  0
VERTEX
  5
1A9
  8
0
  6
CONTINUOUS
 62
     8
 10
-72.0007707963
 20
5.3904286859
 30
0.0
  0
VERTEX
  5
1AA
  8
0
  6
CONTINUOUS
 62
     8
 10
-71.9201417899
 20
5.4016466346
 30
0.0
  0
VERTEX
  5
1AB
  8
0
  6
CONTINUOUS
 62
     8
 10
-71.8493284886
 20
5.4163701923
 30
0.0
  0
VERTEX
  5
1AC
  8
0
  6
CONTINUOUS
 62
     8
 10
-71.7876297707
 20
5.434599359
 30
0.0
  0
VERTEX
  5
1AD
  8
0
  6
CONTINUOUS
 62
     8
 10
-71.7343445143
 20
5.4556330128
 30
0.0
  0
VERTEX
  5
1AE
  8
0
  6
CONTINUOUS
 62
     8
 10
-71.690874963
 20
5.4801722756
 30
0.0
  0
VERTEX
  5
1AF
  8
0
  6
CONTINUOUS
 62
     8
 10
-71.6544166296
 20
5.5082171474
 30
0.0
  0
VERTEX
  5
1B0
  8
0
  6
CONTINUOUS
 62
     8
 10
-71.6221650271
 20
5.5383653846
 30
0.0
  0
VERTEX
  5
1B1
  8
0
  6
CONTINUOUS
 62
     8
 10
-71.5955223989
 20
5.5720192308
 30
0.0
  0
VERTEX
  5
1B2
  8
0
  6
CONTINUOUS
 62
     8
 10
-71.5737876232
 20
5.6091786859
 30
0.0
  0
VERTEX
  5
1B3
  8
0
  6
CONTINUOUS
 62
     8
 10
-71.5562595784
 20
5.6484415064
 30
0.0
  0
VERTEX
  5
1B4
  8
0
  6
CONTINUOUS
 62
     8
 10
-71.5443405078
 20
5.6912099359
 30
0.0
  0
VERTEX
  5
1B5
  8
0
  6
CONTINUOUS
 62
     8
 10
-71.5366281681
 20
5.7367828526
 30
0.0
  0
VERTEX
  5
1B6
  8
0
  6
CONTINUOUS
 62
     8
 10
-71.5345248027
 20
5.7851602564
 30
0.0
  0
VERTEX
  5
1B7
  8
0
  6
CONTINUOUS
 62
     8
 10
-71.5345248027
 20
5.7851602564
 30
0.0
  0
VERTEX
  5
1B8
  8
0
  6
CONTINUOUS
 62
     8
 10
-71.5373292899
 20
5.8405488782
 30
0.0
  0
VERTEX
  5
1B9
  8
0
  6
CONTINUOUS
 62
     8
 10
-71.5457427514
 20
5.892431891
 30
0.0
  0
VERTEX
  5
1BA
  8
0
  6
CONTINUOUS
 62
     8
 10
-71.5604663091
 20
5.9415104167
 30
0.0
  0
VERTEX
  5
1BB
  8
0
  6
CONTINUOUS
 62
     8
 10
-71.5800977194
 20
5.9877844551
 30
0.0
  0
VERTEX
  5
1BC
  8
0
  6
CONTINUOUS
 62
     8
 10
-71.6060392258
 20
6.0305528846
 30
0.0
  0
VERTEX
  5
1BD
  8
0
  6
CONTINUOUS
 62
     8
 10
-71.6375897066
 20
6.0705168269
 30
0.0
  0
VERTEX
  5
1BE
  8
0
  6
CONTINUOUS
 62
     8
 10
-71.6754502835
 20
6.1076762821
 30
0.0
  0
VERTEX
  5
1BF
  8
0
  6
CONTINUOUS
 62
     8
 10
-71.718218713
 20
6.14203125
 30
0.0
  0
VERTEX
  5
1C0
  8
0
  6
CONTINUOUS
 62
     8
 10
-71.7679983604
 20
6.172880609
 30
0.0
  0
VERTEX
  5
1C1
  8
0
  6
CONTINUOUS
 62
     8
 10
-71.8247892258
 20
6.1995232372
 30
0.0
  0
VERTEX
  5
1C2
  8
0
  6
CONTINUOUS
 62
     8
 10
-71.8892924309
 20
6.2219591346
 30
0.0
  0
VERTEX
  5
1C3
  8
0
  6
CONTINUOUS
 62
     8
 10
-71.9615079758
 20
6.2401883013
 30
0.0
  0
VERTEX
  5
1C4
  8
0
  6
CONTINUOUS
 62
     8
 10
-72.0414358604
 20
6.254911859
 30
0.0
  0
VERTEX
  5
1C5
  8
0
  6
CONTINUOUS
 62
     8
 10
-72.1290760848
 20
6.2647275641
 30
0.0
  0
VERTEX
  5
1C6
  8
0
  6
CONTINUOUS
 62
     8
 10
-72.2244286489
 20
6.2710376603
 30
0.0
  0
VERTEX
  5
1C7
  8
0
  6
CONTINUOUS
 62
     8
 10
-72.3267924309
 20
6.2731410256
 30
0.0
  0
VERTEX
  5
1C8
  8
0
  6
CONTINUOUS
 62
     8
 10
-72.3267924309
 20
6.2731410256
 30
0.0
  0
VERTEX
  5
1C9
  8
0
  6
CONTINUOUS
 62
     8
 10
-72.476832495
 20
6.2731410256
 30
0.0
  0
SEQEND
  5
2E4
  8
0
  6
CONTINUOUS
 62
     8
  0
POLYLINE
  5
11D
  8
0
  6
CONTINUOUS
 62
     8
 66
     1
 10
0.0
 20
0.0
 30
0.0
 70
   128
  0
VERTEX
  5
1CA
  8
0
  6
CONTINUOUS
 62
     8
 10
-67.1508108604
 20
8.3372435897
 30
0.0
  0
VERTEX
  5
1CB
  8
0
  6
CONTINUOUS
 62
     8
 10
-67.0596650271
 20
8.3344391026
 30
0.0
  0
VERTEX
  5
1CC
  8
0
  6
CONTINUOUS
 62
     8
 10
-66.9720248027
 20
8.3253245192
 30
0.0
  0
VERTEX
  5
1CD
  8
0
  6
CONTINUOUS
 62
     8
 10
-66.8871890655
 20
8.3106009615
 30
0.0
  0
VERTEX
  5
1CE
  8
0
  6
CONTINUOUS
 62
     8
 10
-66.8058589373
 20
8.2902684295
 30
0.0
  0
VERTEX
  5
1CF
  8
0
  6
CONTINUOUS
 62
     8
 10
-66.7273332963
 20
8.2636258013
 30
0.0
  0
VERTEX
  5
1D0
  8
0
  6
CONTINUOUS
 62
     8
 10
-66.6523132643
 20
8.2313741987
 30
0.0
  0
VERTEX
  5
1D1
  8
0
  6
CONTINUOUS
 62
     8
 10
-66.5807988412
 20
8.1928125
 30
0.0
  0
VERTEX
  5
1D2
  8
0
  6
CONTINUOUS
 62
     8
 10
-66.5120889053
 20
8.1486418269
 30
0.0
  0
VERTEX
  5
1D3
  8
0
  6
CONTINUOUS
 62
     8
 10
-66.4468845784
 20
8.0988621795
 30
0.0
  0
VERTEX
  5
1D4
  8
0
  6
CONTINUOUS
 62
     8
 10
-66.3851858604
 20
8.0420713141
 30
0.0
  0
VERTEX
  5
1D5
  8
0
  6
CONTINUOUS
 62
     8
 10
-66.3276938732
 20
7.9796714744
 30
0.0
  0
VERTEX
  5
1D6
  8
0
  6
CONTINUOUS
 62
     8
 10
-66.2744086168
 20
7.9109615385
 30
0.0
  0
VERTEX
  5
1D7
  8
0
  6
CONTINUOUS
 62
     8
 10
-66.2246289694
 20
7.8359415064
 30
0.0
  0
VERTEX
  5
1D8
  8
0
  6
CONTINUOUS
 62
     8
 10
-66.1783549309
 20
7.7546113782
 30
0.0
  0
VERTEX
  5
1D9
  8
0
  6
CONTINUOUS
 62
     8
 10
-66.1362876232
 20
7.6676722756
 30
0.0
  0
VERTEX
  5
1DA
  8
0
  6
CONTINUOUS
 62
     8
 10
-66.0977259245
 20
7.5737219551
 30
0.0
  0
VERTEX
  5
1DB
  8
0
  6
CONTINUOUS
 62
     8
 10
-66.0633709566
 20
7.4720592949
 30
0.0
  0
VERTEX
  5
1DC
  8
0
  6
CONTINUOUS
 62
     8
 10
-66.0339238412
 20
7.3612820513
 30
0.0
  0
VERTEX
  5
1DD
  8
0
  6
CONTINUOUS
 62
     8
 10
-66.0086834566
 20
7.2406891026
 30
0.0
  0
VERTEX
  5
1DE
  8
0
  6
CONTINUOUS
 62
     8
 10
-65.9876498027
 20
7.1109815705
 30
0.0
  0
VERTEX
  5
1DF
  8
0
  6
CONTINUOUS
 62
     8
 10
-65.9715240014
 20
6.9714583333
 30
0.0
  0
VERTEX
  5
1E0
  8
0
  6
CONTINUOUS
 62
     8
 10
-65.9603060527
 20
6.822119391
 30
0.0
  0
VERTEX
  5
1E1
  8
0
  6
CONTINUOUS
 62
     8
 10
-65.9532948348
 20
6.6636658654
 30
0.0
  0
VERTEX
  5
1E2
  8
0
  6
CONTINUOUS
 62
     8
 10
-65.9511914694
 20
6.4960977564
 30
0.0
  0
VERTEX
  5
1E3
  8
0
  6
CONTINUOUS
 62
     8
 10
-65.9511914694
 20
6.4960977564
 30
0.0
  0
VERTEX
  5
1E4
  8
0
  6
CONTINUOUS
 62
     8
 10
-65.9532948348
 20
6.3264262821
 30
0.0
  0
VERTEX
  5
1E5
  8
0
  6
CONTINUOUS
 62
     8
 10
-65.9603060527
 20
6.1665705128
 30
0.0
  0
VERTEX
  5
1E6
  8
0
  6
CONTINUOUS
 62
     8
 10
-65.9722251232
 20
6.0165304487
 30
0.0
  0
VERTEX
  5
1E7
  8
0
  6
CONTINUOUS
 62
     8
 10
-65.9883509245
 20
5.8756049679
 30
0.0
  0
VERTEX
  5
1E8
  8
0
  6
CONTINUOUS
 62
     8
 10
-66.0093845784
 20
5.7451963141
 30
0.0
  0
VERTEX
  5
1E9
  8
0
  6
CONTINUOUS
 62
     8
 10
-66.034624963
 20
5.6239022436
 30
0.0
  0
VERTEX
  5
1EA
  8
0
  6
CONTINUOUS
 62
     8
 10
-66.0647732001
 20
5.5117227564
 30
0.0
  0
VERTEX
  5
1EB
  8
0
  6
CONTINUOUS
 62
     8
 10
-66.0998292899
 20
5.4100600962
 30
0.0
  0
VERTEX
  5
1EC
  8
0
  6
CONTINUOUS
 62
     8
 10
-66.1383909886
 20
5.3161097756
 30
0.0
  0
VERTEX
  5
1ED
  8
0
  6
CONTINUOUS
 62
     8
 10
-66.1804582963
 20
5.2291706731
 30
0.0
  0
VERTEX
  5
1EE
  8
0
  6
CONTINUOUS
 62
     8
 10
-66.226031213
 20
5.1478405449
 30
0.0
  0
VERTEX
  5
1EF
  8
0
  6
CONTINUOUS
 62
     8
 10
-66.273707495
 20
5.0735216346
 30
0.0
  0
VERTEX
  5
1F0
  8
0
  6
CONTINUOUS
 62
     8
 10
-66.3255905078
 20
5.0055128205
 30
0.0
  0
VERTEX
  5
1F1
  8
0
  6
CONTINUOUS
 62
     8
 10
-66.3802780078
 20
4.9438141026
 30
0.0
  0
VERTEX
  5
1F2
  8
0
  6
CONTINUOUS
 62
     8
 10
-66.4384711168
 20
4.8891266026
 30
0.0
  0
VERTEX
  5
1F3
  8
0
  6
CONTINUOUS
 62
     8
 10
-66.499468713
 20
4.8400480769
 30
0.0
  0
VERTEX
  5
1F4
  8
0
  6
CONTINUOUS
 62
     8
 10
-66.5639719181
 20
4.7972796474
 30
0.0
  0
VERTEX
  5
1F5
  8
0
  6
CONTINUOUS
 62
     8
 10
-66.632681854
 20
4.7601201923
 30
0.0
  0
VERTEX
  5
1F6
  8
0
  6
CONTINUOUS
 62
     8
 10
-66.7055985207
 20
4.7292708333
 30
0.0
  0
VERTEX
  5
1F7
  8
0
  6
CONTINUOUS
 62
     8
 10
-66.7827219181
 20
4.7033293269
 30
0.0
  0
VERTEX
  5
1F8
  8
0
  6
CONTINUOUS
 62
     8
 10
-66.8640520463
 20
4.6836979167
 30
0.0
  0
VERTEX
  5
1F9
  8
0
  6
CONTINUOUS
 62
     8
 10
-66.9495889053
 20
4.668974359
 30
0.0
  0
VERTEX
  5
1FA
  8
0
  6
CONTINUOUS
 62
     8
 10
-67.0386313732
 20
4.6605608974
 30
0.0
  0
VERTEX
  5
1FB
  8
0
  6
CONTINUOUS
 62
     8
 10
-67.1325816937
 20
4.6577564103
 30
0.0
  0
VERTEX
  5
1FC
  8
0
  6
CONTINUOUS
 62
     8
 10
-67.1325816937
 20
4.6577564103
 30
0.0
  0
VERTEX
  5
1FD
  8
0
  6
CONTINUOUS
 62
     8
 10
-67.2265320143
 20
4.6605608974
 30
0.0
  0
VERTEX
  5
1FE
  8
0
  6
CONTINUOUS
 62
     8
 10
-67.316275604
 20
4.668974359
 30
0.0
  0
VERTEX
  5
1FF
  8
0
  6
CONTINUOUS
 62
     8
 10
-67.401812463
 20
4.6836979167
 30
0.0
  0
VERTEX
  5
200
  8
0
  6
CONTINUOUS
 62
     8
 10
-67.483843713
 20
4.7033293269
 30
0.0
  0
VERTEX
  5
201
  8
0
  6
CONTINUOUS
 62
     8
 10
-67.562369354
 20
4.7292708333
 30
0.0
  0
VERTEX
  5
202
  8
0
  6
CONTINUOUS
 62
     8
 10
-67.637389386
 20
4.7608213141
 30
0.0
  0
VERTEX
  5
203
  8
0
  6
CONTINUOUS
 62
     8
 10
-67.7082026873
 20
4.7979807692
 30
0.0
  0
VERTEX
  5
204
  8
0
  6
CONTINUOUS
 62
     8
 10
-67.7748092578
 20
4.8407491987
 30
0.0
  0
VERTEX
  5
205
  8
0
  6
CONTINUOUS
 62
     8
 10
-67.8379102194
 20
4.8898277244
 30
0.0
  0
VERTEX
  5
206
  8
0
  6
CONTINUOUS
 62
     8
 10
-67.8975055719
 20
4.9445152244
 30
0.0
  0
VERTEX
  5
207
  8
0
  6
CONTINUOUS
 62
     8
 10
-67.9542964373
 20
5.0055128205
 30
0.0
  0
VERTEX
  5
208
  8
0
  6
CONTINUOUS
 62
     8
 10
-68.0068805719
 20
5.072119391
 30
0.0
  0
VERTEX
  5
209
  8
0
  6
CONTINUOUS
 62
     8
 10
-68.0559590976
 20
5.1443349359
 30
0.0
  0
VERTEX
  5
20A
  8
0
  6
CONTINUOUS
 62
     8
 10
-68.1015320143
 20
5.2228605769
 30
0.0
  0
VERTEX
  5
20B
  8
0
  6
CONTINUOUS
 62
     8
 10
-68.1435993219
 20
5.3076963141
 30
0.0
  0
VERTEX
  5
20C
  8
0
  6
CONTINUOUS
 62
     8
 10
-68.1821610207
 20
5.3981410256
 30
0.0
  0
VERTEX
  5
20D
  8
0
  6
CONTINUOUS
 62
     8
 10
-68.2165159886
 20
5.4969991987
 30
0.0
  0
VERTEX
  5
20E
  8
0
  6
CONTINUOUS
 62
     8
 10
-68.2466642258
 20
5.6049719551
 30
0.0
  0
VERTEX
  5
20F
  8
0
  6
CONTINUOUS
 62
     8
 10
-68.2719046104
 20
5.7234615385
 30
0.0
  0
VERTEX
  5
210
  8
0
  6
CONTINUOUS
 62
     8
 10
-68.2922371425
 20
5.8517668269
 30
0.0
  0
VERTEX
  5
211
  8
0
  6
CONTINUOUS
 62
     8
 10
-68.3083629437
 20
5.9898878205
 30
0.0
  0
VERTEX
  5
212
  8
0
  6
CONTINUOUS
 62
     8
 10
-68.3202820143
 20
6.1378245192
 30
0.0
  0
VERTEX
  5
213
  8
0
  6
CONTINUOUS
 62
     8
 10
-68.3272932322
 20
6.2955769231
 30
0.0
  0
VERTEX
  5
214
  8
0
  6
CONTINUOUS
 62
     8
 10
-68.3293965976
 20
6.4631450321
 30
0.0
  0
VERTEX
  5
215
  8
0
  6
CONTINUOUS
 62
     8
 10
-68.3293965976
 20
6.4631450321
 30
0.0
  0
VERTEX
  5
216
  8
0
  6
CONTINUOUS
 62
     8
 10
-68.3251898668
 20
6.6959174679
 30
0.0
  0
VERTEX
  5
217
  8
0
  6
CONTINUOUS
 62
     8
 10
-68.3111674309
 20
6.9118629808
 30
0.0
  0
VERTEX
  5
218
  8
0
  6
CONTINUOUS
 62
     8
 10
-68.2887315335
 20
7.1116826923
 30
0.0
  0
VERTEX
  5
219
  8
0
  6
CONTINUOUS
 62
     8
 10
-68.2571810527
 20
7.2946754808
 30
0.0
  0
VERTEX
  5
21A
  8
0
  6
CONTINUOUS
 62
     8
 10
-68.2172171104
 20
7.4608413462
 30
0.0
  0
VERTEX
  5
21B
  8
0
  6
CONTINUOUS
 62
     8
 10
-68.167437463
 20
7.6108814103
 30
0.0
  0
VERTEX
  5
21C
  8
0
  6
CONTINUOUS
 62
     8
 10
-68.109244354
 20
7.7440945513
 30
0.0
  0
VERTEX
  5
21D
  8
0
  6
CONTINUOUS
 62
     8
 10
-68.0419366617
 20
7.861181891
 30
0.0
  0
VERTEX
  5
21E
  8
0
  6
CONTINUOUS
 62
     8
 10
-68.0419366617
 20
7.861181891
 30
0.0
  0
VERTEX
  5
21F
  8
0
  6
CONTINUOUS
 62
     8
 10
-67.9578020463
 20
7.9726602564
 30
0.0
  0
VERTEX
  5
220
  8
0
  6
CONTINUOUS
 62
     8
 10
-67.8659550912
 20
8.0694150641
 30
0.0
  0
VERTEX
  5
221
  8
0
  6
CONTINUOUS
 62
     8
 10
-67.7663957963
 20
8.1514463141
 30
0.0
  0
VERTEX
  5
222
  8
0
  6
CONTINUOUS
 62
     8
 10
-67.6591241617
 20
8.2180528846
 30
0.0
  0
VERTEX
  5
223
  8
0
  6
CONTINUOUS
 62
     8
 10
-67.5434390655
 20
8.2706370192
 30
0.0
  0
VERTEX
  5
224
  8
0
  6
CONTINUOUS
 62
     8
 10
-67.4207427514
 20
8.3077964744
 30
0.0
  0
VERTEX
  5
225
  8
0
  6
CONTINUOUS
 62
     8
 10
-67.2896329758
 20
8.32953125
 30
0.0
  0
VERTEX
  5
226
  8
0
  6
CONTINUOUS
 62
     8
 10
-67.1508108604
 20
8.3372435897
 30
0.0
  0
SEQEND
  5
2E5
  8
0
  6
CONTINUOUS
 62
     8
  0
POLYLINE
  5
11E
  8
0
  6
CONTINUOUS
 62
     8
 66
     1
 10
0.0
 20
0.0
 30
0.0
 70
   128
  0
VERTEX
  5
227
  8
0
  6
CONTINUOUS
 62
     8
 10
-67.1353861809
 20
7.7090384615
 30
0.0
  0
VERTEX
  5
228
  8
0
  6
CONTINUOUS
 62
     8
 10
-67.2174174309
 20
7.7020272436
 30
0.0
  0
VERTEX
  5
229
  8
0
  6
CONTINUOUS
 62
     8
 10
-67.2938397066
 20
7.6816947115
 30
0.0
  0
VERTEX
  5
22A
  8
0
  6
CONTINUOUS
 62
     8
 10
-67.3667563732
 20
7.6480408654
 30
0.0
  0
VERTEX
  5
22B
  8
0
  6
CONTINUOUS
 62
     8
 10
-67.4340640655
 20
7.6003645833
 30
0.0
  0
VERTEX
  5
22C
  8
0
  6
CONTINUOUS
 62
     8
 10
-67.4656145463
 20
7.5709174679
 30
0.0
  0
VERTEX
  5
22D
  8
0
  6
CONTINUOUS
 62
     8
 10
-67.4950616617
 20
7.5365625
 30
0.0
  0
VERTEX
  5
22E
  8
0
  6
CONTINUOUS
 62
     8
 10
-67.5231065335
 20
7.4972996795
 30
0.0
  0
VERTEX
  5
22F
  8
0
  6
CONTINUOUS
 62
     8
 10
-67.5483469181
 20
7.4531290064
 30
0.0
  0
VERTEX
  5
230
  8
0
  6
CONTINUOUS
 62
     8
 10
-67.5721850591
 20
7.4040504808
 30
0.0
  0
VERTEX
  5
231
  8
0
  6
CONTINUOUS
 62
     8
 10
-67.5946209566
 20
7.3507652244
 30
0.0
  0
VERTEX
  5
232
  8
0
  6
CONTINUOUS
 62
     8
 10
-67.6142523668
 20
7.2918709936
 30
0.0
  0
VERTEX
  5
233
  8
0
  6
CONTINUOUS
 62
     8
 10
-67.6324815335
 20
7.2280689103
 30
0.0
  0
VERTEX
  5
234
  8
0
  6
CONTINUOUS
 62
     8
 10
-67.6486073348
 20
7.1586578526
 30
0.0
  0
VERTEX
  5
235
  8
0
  6
CONTINUOUS
 62
     8
 10
-67.6626297707
 20
7.0808333333
 30
0.0
  0
VERTEX
  5
236
  8
0
  6
CONTINUOUS
 62
     8
 10
-67.6745488412
 20
6.9959975962
 30
0.0
  0
VERTEX
  5
237
  8
0
  6
CONTINUOUS
 62
     8
 10
-67.6836634245
 20
6.9034495192
 30
0.0
  0
VERTEX
  5
238
  8
0
  6
CONTINUOUS
 62
     8
 10
-67.6913757643
 20
6.8031891026
 30
0.0
  0
VERTEX
  5
239
  8
0
  6
CONTINUOUS
 62
     8
 10
-67.6969847386
 20
6.6952163462
 30
0.0
  0
VERTEX
  5
23A
  8
0
  6
CONTINUOUS
 62
     8
 10
-67.6997892258
 20
6.57953125
 30
0.0
  0
VERTEX
  5
23B
  8
0
  6
CONTINUOUS
 62
     8
 10
-67.7011914694
 20
6.4561338141
 30
0.0
  0
VERTEX
  5
23C
  8
0
  6
CONTINUOUS
 62
     8
 10
-67.7011914694
 20
6.4561338141
 30
0.0
  0
VERTEX
  5
23D
  8
0
  6
CONTINUOUS
 62
     8
 10
-67.6983869822
 20
6.2962780449
 30
0.0
  0
VERTEX
  5
23E
  8
0
  6
CONTINUOUS
 62
     8
 10
-67.6913757643
 20
6.1497435897
 30
0.0
  0
VERTEX
  5
23F
  8
0
  6
CONTINUOUS
 62
     8
 10
-67.6787555719
 20
6.0158293269
 30
0.0
  0
VERTEX
  5
240
  8
0
  6
CONTINUOUS
 62
     8
 10
-67.6619286489
 20
5.8952363782
 30
0.0
  0
VERTEX
  5
241
  8
0
  6
CONTINUOUS
 62
     8
 10
-67.6394927514
 20
5.7865625
 30
0.0
  0
VERTEX
  5
242
  8
0
  6
CONTINUOUS
 62
     8
 10
-67.6128501232
 20
5.6912099359
 30
0.0
  0
VERTEX
  5
243
  8
0
  6
CONTINUOUS
 62
     8
 10
-67.5805985207
 20
5.6084775641
 30
0.0
  0
VERTEX
  5
244
  8
0
  6
CONTINUOUS
 62
     8
 10
-67.5441401873
 20
5.5390665064
 30
0.0
  0
VERTEX
  5
245
  8
0
  6
CONTINUOUS
 62
     8
 10
-67.5034751232
 20
5.4794711538
 30
0.0
  0
VERTEX
  5
246
  8
0
  6
CONTINUOUS
 62
     8
 10
-67.4593044501
 20
5.4282892628
 30
0.0
  0
VERTEX
  5
247
  8
0
  6
CONTINUOUS
 62
     8
 10
-67.4130304117
 20
5.3848197115
 30
0.0
  0
VERTEX
  5
248
  8
0
  6
CONTINUOUS
 62
     8
 10
-67.3632507643
 20
5.3490625
 30
0.0
  0
VERTEX
  5
249
  8
0
  6
CONTINUOUS
 62
     8
 10
-67.3106666296
 20
5.32171875
 30
0.0
  0
VERTEX
  5
24A
  8
0
  6
CONTINUOUS
 62
     8
 10
-67.2552780078
 20
5.3020873397
 30
0.0
  0
VERTEX
  5
24B
  8
0
  6
CONTINUOUS
 62
     8
 10
-67.1963837771
 20
5.2901682692
 30
0.0
  0
VERTEX
  5
24C
  8
0
  6
CONTINUOUS
 62
     8
 10
-67.1353861809
 20
5.2859615385
 30
0.0
  0
VERTEX
  5
24D
  8
0
  6
CONTINUOUS
 62
     8
 10
-67.1353861809
 20
5.2859615385
 30
0.0
  0
VERTEX
  5
24E
  8
0
  6
CONTINUOUS
 62
     8
 10
-67.0764919501
 20
5.2894671474
 30
0.0
  0
VERTEX
  5
24F
  8
0
  6
CONTINUOUS
 62
     8
 10
-67.0211033284
 20
5.3006850962
 30
0.0
  0
VERTEX
  5
250
  8
0
  6
CONTINUOUS
 62
     8
 10
-66.9685191937
 20
5.3196153846
 30
0.0
  0
VERTEX
  5
251
  8
0
  6
CONTINUOUS
 62
     8
 10
-66.9187395463
 20
5.3462580128
 30
0.0
  0
VERTEX
  5
252
  8
0
  6
CONTINUOUS
 62
     8
 10
-66.8724655078
 20
5.379911859
 30
0.0
  0
VERTEX
  5
253
  8
0
  6
CONTINUOUS
 62
     8
 10
-66.8289959566
 20
5.4212780449
 30
0.0
  0
VERTEX
  5
254
  8
0
  6
CONTINUOUS
 62
     8
 10
-66.7890320143
 20
5.4703565705
 30
0.0
  0
VERTEX
  5
255
  8
0
  6
CONTINUOUS
 62
     8
 10
-66.7518725591
 20
5.5264463141
 30
0.0
  0
VERTEX
  5
256
  8
0
  6
CONTINUOUS
 62
     8
 10
-66.7518725591
 20
5.5264463141
 30
0.0
  0
VERTEX
  5
257
  8
0
  6
CONTINUOUS
 62
     8
 10
-66.711207495
 20
5.6049719551
 30
0.0
  0
VERTEX
  5
258
  8
0
  6
CONTINUOUS
 62
     8
 10
-66.6761514053
 20
5.6954166667
 30
0.0
  0
VERTEX
  5
259
  8
0
  6
CONTINUOUS
 62
     8
 10
-66.6467042899
 20
5.7984815705
 30
0.0
  0
VERTEX
  5
25A
  8
0
  6
CONTINUOUS
 62
     8
 10
-66.6221650271
 20
5.9134655449
 30
0.0
  0
VERTEX
  5
25B
  8
0
  6
CONTINUOUS
 62
     8
 10
-66.6039358604
 20
6.0410697115
 30
0.0
  0
VERTEX
  5
25C
  8
0
  6
CONTINUOUS
 62
     8
 10
-66.5899134245
 20
6.1805929487
 30
0.0
  0
VERTEX
  5
25D
  8
0
  6
CONTINUOUS
 62
     8
 10
-66.5822010848
 20
6.3320352564
 30
0.0
  0
VERTEX
  5
25E
  8
0
  6
CONTINUOUS
 62
     8
 10
-66.5793965976
 20
6.4960977564
 30
0.0
  0
VERTEX
  5
25F
  8
0
  6
CONTINUOUS
 62
     8
 10
-66.5793965976
 20
6.4960977564
 30
0.0
  0
VERTEX
  5
260
  8
0
  6
CONTINUOUS
 62
     8
 10
-66.581499963
 20
6.6615625
 30
0.0
  0
VERTEX
  5
261
  8
0
  6
CONTINUOUS
 62
     8
 10
-66.5892123027
 20
6.8144070513
 30
0.0
  0
VERTEX
  5
262
  8
0
  6
CONTINUOUS
 62
     8
 10
-66.6011313732
 20
6.9532291667
 30
0.0
  0
VERTEX
  5
263
  8
0
  6
CONTINUOUS
 62
     8
 10
-66.6179582963
 20
7.0787299679
 30
0.0
  0
VERTEX
  5
264
  8
0
  6
CONTINUOUS
 62
     8
 10
-66.6396930719
 20
7.1909094551
 30
0.0
  0
VERTEX
  5
265
  8
0
  6
CONTINUOUS
 62
     8
 10
-66.6663357001
 20
7.2897676282
 30
0.0
  0
VERTEX
  5
266
  8
0
  6
CONTINUOUS
 62
     8
 10
-66.6978861809
 20
7.3753044872
 30
0.0
  0
VERTEX
  5
267
  8
0
  6
CONTINUOUS
 62
     8
 10
-66.7343445143
 20
7.4475200321
 30
0.0
  0
VERTEX
  5
268
  8
0
  6
CONTINUOUS
 62
     8
 10
-66.7743084566
 20
7.5085176282
 30
0.0
  0
VERTEX
  5
269
  8
0
  6
CONTINUOUS
 62
     8
 10
-66.8177780078
 20
7.5618028846
 30
0.0
  0
VERTEX
  5
26A
  8
0
  6
CONTINUOUS
 62
     8
 10
-66.8633509245
 20
7.6066746795
 30
0.0
  0
VERTEX
  5
26B
  8
0
  6
CONTINUOUS
 62
     8
 10
-66.9117283284
 20
7.6438341346
 30
0.0
  0
VERTEX
  5
26C
  8
0
  6
CONTINUOUS
 62
     8
 10
-66.9636113412
 20
7.6725801282
 30
0.0
  0
VERTEX
  5
26D
  8
0
  6
CONTINUOUS
 62
     8
 10
-67.0182988412
 20
7.6929126603
 30
0.0
  0
VERTEX
  5
26E
  8
0
  6
CONTINUOUS
 62
     8
 10
-67.0750897066
 20
7.7048317308
 30
0.0
  0
VERTEX
  5
26F
  8
0
  6
CONTINUOUS
 62
     8
 10
-67.1353861809
 20
7.7090384615
 30
0.0
  0
SEQEND
  5
2E6
  8
0
  6
CONTINUOUS
 62
     8
  0
POLYLINE
  5
11F
  8
0
  6
CONTINUOUS
 62
     8
 66
     1
 10
0.0
 20
0.0
 30
0.0
 70
   128
  0
VERTEX
  5
270
  8
0
  6
CONTINUOUS
 62
     8
 10
-62.6850656681
 20
8.2475
 30
0.0
  0
VERTEX
  5
271
  8
0
  6
CONTINUOUS
 62
     8
 10
-61.7140119822
 20
8.2475
 30
0.0
  0
VERTEX
  5
272
  8
0
  6
CONTINUOUS
 62
     8
 10
-61.7140119822
 20
8.2475
 30
0.0
  0
VERTEX
  5
273
  8
0
  6
CONTINUOUS
 62
     8
 10
-61.7140119822
 20
4.7475
 30
0.0
  0
VERTEX
  5
274
  8
0
  6
CONTINUOUS
 62
     8
 10
-61.7140119822
 20
4.7475
 30
0.0
  0
VERTEX
  5
275
  8
0
  6
CONTINUOUS
 62
     8
 10
-62.3422171104
 20
4.7475
 30
0.0
  0
VERTEX
  5
276
  8
0
  6
CONTINUOUS
 62
     8
 10
-62.3422171104
 20
4.7475
 30
0.0
  0
VERTEX
  5
277
  8
0
  6
CONTINUOUS
 62
     8
 10
-62.3422171104
 20
7.6641666667
 30
0.0
  0
VERTEX
  5
278
  8
0
  6
CONTINUOUS
 62
     8
 10
-62.3422171104
 20
7.6641666667
 30
0.0
  0
VERTEX
  5
279
  8
0
  6
CONTINUOUS
 62
     8
 10
-63.0601658284
 20
7.6641666667
 30
0.0
  0
VERTEX
  5
27A
  8
0
  6
CONTINUOUS
 62
     8
 10
-63.0601658284
 20
7.6641666667
 30
0.0
  0
VERTEX
  5
27B
  8
0
  6
CONTINUOUS
 62
     8
 10
-62.6850656681
 20
8.2475
 30
0.0
  0
SEQEND
  5
2E7
  8
0
  6
CONTINUOUS
 62
     8
  0
POLYLINE
  5
120
  8
0
  6
CONTINUOUS
 62
     8
 66
     1
 10
0.0
 20
0.0
 30
0.0
 70
   128
  0
VERTEX
  5
27C
  8
0
  6
CONTINUOUS
 62
     8
 10
-57.6563196745
 20
7.0808333333
 30
0.0
  0
VERTEX
  5
27D
  8
0
  6
CONTINUOUS
 62
     8
 10
-58.2845248027
 20
7.0808333333
 30
0.0
  0
VERTEX
  5
27E
  8
0
  6
CONTINUOUS
 62
     8
 10
-58.2845248027
 20
7.0808333333
 30
0.0
  0
VERTEX
  5
27F
  8
0
  6
CONTINUOUS
 62
     8
 10
-58.2740079758
 20
7.2231610577
 30
0.0
  0
VERTEX
  5
280
  8
0
  6
CONTINUOUS
 62
     8
 10
-58.2536754437
 20
7.3577764423
 30
0.0
  0
VERTEX
  5
281
  8
0
  6
CONTINUOUS
 62
     8
 10
-58.2249294501
 20
7.4846794872
 30
0.0
  0
VERTEX
  5
282
  8
0
  6
CONTINUOUS
 62
     8
 10
-58.1870688732
 20
7.6038701923
 30
0.0
  0
VERTEX
  5
283
  8
0
  6
CONTINUOUS
 62
     8
 10
-58.140093713
 20
7.7146474359
 30
0.0
  0
VERTEX
  5
284
  8
0
  6
CONTINUOUS
 62
     8
 10
-58.0840039694
 20
7.8184134615
 30
0.0
  0
VERTEX
  5
285
  8
0
  6
CONTINUOUS
 62
     8
 10
-58.0187996425
 20
7.9137660256
 30
0.0
  0
VERTEX
  5
286
  8
0
  6
CONTINUOUS
 62
     8
 10
-57.9444807322
 20
8.00140625
 30
0.0
  0
VERTEX
  5
287
  8
0
  6
CONTINUOUS
 62
     8
 10
-57.863150604
 20
8.079931891
 30
0.0
  0
VERTEX
  5
288
  8
0
  6
CONTINUOUS
 62
     8
 10
-57.7762115014
 20
8.1486418269
 30
0.0
  0
VERTEX
  5
289
  8
0
  6
CONTINUOUS
 62
     8
 10
-57.6829623027
 20
8.2061338141
 30
0.0
  0
VERTEX
  5
28A
  8
0
  6
CONTINUOUS
 62
     8
 10
-57.5848052514
 20
8.2531089744
 30
0.0
  0
VERTEX
  5
28B
  8
0
  6
CONTINUOUS
 62
     8
 10
-57.4810392258
 20
8.2902684295
 30
0.0
  0
VERTEX
  5
28C
  8
0
  6
CONTINUOUS
 62
     8
 10
-57.3716642258
 20
8.3162099359
 30
0.0
  0
VERTEX
  5
28D
  8
0
  6
CONTINUOUS
 62
     8
 10
-57.2566802514
 20
8.3323357372
 30
0.0
  0
VERTEX
  5
28E
  8
0
  6
CONTINUOUS
 62
     8
 10
-57.1360873027
 20
8.3372435897
 30
0.0
  0
VERTEX
  5
28F
  8
0
  6
CONTINUOUS
 62
     8
 10
-57.1360873027
 20
8.3372435897
 30
0.0
  0
VERTEX
  5
290
  8
0
  6
CONTINUOUS
 62
     8
 10
-56.988150604
 20
8.3288301282
 30
0.0
  0
VERTEX
  5
291
  8
0
  6
CONTINUOUS
 62
     8
 10
-56.8493284886
 20
8.3035897436
 30
0.0
  0
VERTEX
  5
292
  8
0
  6
CONTINUOUS
 62
     8
 10
-56.7196209566
 20
8.2608213141
 30
0.0
  0
VERTEX
  5
293
  8
0
  6
CONTINUOUS
 62
     8
 10
-56.5990280078
 20
8.2012259615
 30
0.0
  0
VERTEX
  5
294
  8
0
  6
CONTINUOUS
 62
     8
 10
-56.4882507643
 20
8.1255048077
 30
0.0
  0
VERTEX
  5
295
  8
0
  6
CONTINUOUS
 62
     8
 10
-56.3886914694
 20
8.0350600962
 30
0.0
  0
VERTEX
  5
296
  8
0
  6
CONTINUOUS
 62
     8
 10
-56.3017523668
 20
7.9291907051
 30
0.0
  0
VERTEX
  5
297
  8
0
  6
CONTINUOUS
 62
     8
 10
-56.226031213
 20
7.8085977564
 30
0.0
  0
VERTEX
  5
298
  8
0
  6
CONTINUOUS
 62
     8
 10
-56.164332495
 20
7.6802924679
 30
0.0
  0
VERTEX
  5
299
  8
0
  6
CONTINUOUS
 62
     8
 10
-56.1208629437
 20
7.5505849359
 30
0.0
  0
VERTEX
  5
29A
  8
0
  6
CONTINUOUS
 62
     8
 10
-56.0942203155
 20
7.4194751603
 30
0.0
  0
VERTEX
  5
29B
  8
0
  6
CONTINUOUS
 62
     8
 10
-56.085806854
 20
7.2876642628
 30
0.0
  0
VERTEX
  5
29C
  8
0
  6
CONTINUOUS
 62
     8
 10
-56.085806854
 20
7.2876642628
 30
0.0
  0
VERTEX
  5
29D
  8
0
  6
CONTINUOUS
 62
     8
 10
-56.0886113412
 20
7.2077363782
 30
0.0
  0
VERTEX
  5
29E
  8
0
  6
CONTINUOUS
 62
     8
 10
-56.0963236809
 20
7.1271073718
 30
0.0
  0
VERTEX
  5
29F
  8
0
  6
CONTINUOUS
 62
     8
 10
-56.1089438732
 20
7.044375
 30
0.0
  0
VERTEX
  5
2A0
  8
0
  6
CONTINUOUS
 62
     8
 10
-56.1271730399
 20
6.9602403846
 30
0.0
  0
VERTEX
  5
2A1
  8
0
  6
CONTINUOUS
 62
     8
 10
-56.1503100591
 20
6.8747035256
 30
0.0
  0
VERTEX
  5
2A2
  8
0
  6
CONTINUOUS
 62
     8
 10
-56.1783549309
 20
6.7877644231
 30
0.0
  0
VERTEX
  5
2A3
  8
0
  6
CONTINUOUS
 62
     8
 10
-56.2120087771
 20
6.6987219551
 30
0.0
  0
VERTEX
  5
2A4
  8
0
  6
CONTINUOUS
 62
     8
 10
-56.2505704758
 20
6.6089783654
 30
0.0
  0
VERTEX
  5
2A5
  8
0
  6
CONTINUOUS
 62
     8
 10
-56.2961433925
 20
6.5164302885
 30
0.0
  0
VERTEX
  5
2A6
  8
0
  6
CONTINUOUS
 62
     8
 10
-56.3501297707
 20
6.418974359
 30
0.0
  0
VERTEX
  5
2A7
  8
0
  6
CONTINUOUS
 62
     8
 10
-56.4125296104
 20
6.3180128205
 30
0.0
  0
VERTEX
  5
2A8
  8
0
  6
CONTINUOUS
 62
     8
 10
-56.4833429117
 20
6.2128445513
 30
0.0
  0
VERTEX
  5
2A9
  8
0
  6
CONTINUOUS
 62
     8
 10
-56.5632707963
 20
6.1027684295
 30
0.0
  0
VERTEX
  5
2AA
  8
0
  6
CONTINUOUS
 62
     8
 10
-56.6516121425
 20
5.9891866987
 30
0.0
  0
VERTEX
  5
2AB
  8
0
  6
CONTINUOUS
 62
     8
 10
-56.7483669501
 20
5.8713982372
 30
0.0
  0
VERTEX
  5
2AC
  8
0
  6
CONTINUOUS
 62
     8
 10
-56.8535352194
 20
5.7494030449
 30
0.0
  0
VERTEX
  5
2AD
  8
0
  6
CONTINUOUS
 62
     8
 10
-56.8535352194
 20
5.7494030449
 30
0.0
  0
VERTEX
  5
2AE
  8
0
  6
CONTINUOUS
 62
     8
 10
-57.2188196745
 20
5.3308333333
 30
0.0
  0
VERTEX
  5
2AF
  8
0
  6
CONTINUOUS
 62
     8
 10
-57.2188196745
 20
5.3308333333
 30
0.0
  0
VERTEX
  5
2B0
  8
0
  6
CONTINUOUS
 62
     8
 10
-56.0409350591
 20
5.3308333333
 30
0.0
  0
VERTEX
  5
2B1
  8
0
  6
CONTINUOUS
 62
     8
 10
-56.0409350591
 20
5.3308333333
 30
0.0
  0
VERTEX
  5
2B2
  8
0
  6
CONTINUOUS
 62
     8
 10
-56.0409350591
 20
4.7475
 30
0.0
  0
VERTEX
  5
2B3
  8
0
  6
CONTINUOUS
 62
     8
 10
-56.0409350591
 20
4.7475
 30
0.0
  0
VERTEX
  5
2B4
  8
0
  6
CONTINUOUS
 62
     8
 10
-58.3742683925
 20
4.7475
 30
0.0
  0
VERTEX
  5
2B5
  8
0
  6
CONTINUOUS
 62
     8
 10
-58.3742683925
 20
4.7475
 30
0.0
  0
VERTEX
  5
2B6
  8
0
  6
CONTINUOUS
 62
     8
 10
-58.3742683925
 20
5.0658092949
 30
0.0
  0
VERTEX
  5
2B7
  8
0
  6
CONTINUOUS
 62
     8
 10
-58.3742683925
 20
5.0658092949
 30
0.0
  0
VERTEX
  5
2B8
  8
0
  6
CONTINUOUS
 62
     8
 10
-57.3380103796
 20
6.1686738782
 30
0.0
  0
VERTEX
  5
2B9
  8
0
  6
CONTINUOUS
 62
     8
 10
-57.3380103796
 20
6.1686738782
 30
0.0
  0
VERTEX
  5
2BA
  8
0
  6
CONTINUOUS
 62
     8
 10
-57.2482667899
 20
6.2654286859
 30
0.0
  0
VERTEX
  5
2BB
  8
0
  6
CONTINUOUS
 62
     8
 10
-57.1655344181
 20
6.357275641
 30
0.0
  0
VERTEX
  5
2BC
  8
0
  6
CONTINUOUS
 62
     8
 10
-57.0912155078
 20
6.4442147436
 30
0.0
  0
VERTEX
  5
2BD
  8
0
  6
CONTINUOUS
 62
     8
 10
-57.0253100591
 20
6.5269471154
 30
0.0
  0
VERTEX
  5
2BE
  8
0
  6
CONTINUOUS
 62
     8
 10
-56.9664158284
 20
6.6040705128
 30
0.0
  0
VERTEX
  5
2BF
  8
0
  6
CONTINUOUS
 62
     8
 10
-56.9159350591
 20
6.6762860577
 30
0.0
  0
VERTEX
  5
2C0
  8
0
  6
CONTINUOUS
 62
     8
 10
-56.8731666296
 20
6.7442948718
 30
0.0
  0
VERTEX
  5
2C1
  8
0
  6
CONTINUOUS
 62
     8
 10
-56.8381105399
 20
6.8066947115
 30
0.0
  0
VERTEX
  5
2C2
  8
0
  6
CONTINUOUS
 62
     8
 10
-56.7841241617
 20
6.9244831731
 30
0.0
  0
VERTEX
  5
2C3
  8
0
  6
CONTINUOUS
 62
     8
 10
-56.7448613412
 20
7.0366626603
 30
0.0
  0
VERTEX
  5
2C4
  8
0
  6
CONTINUOUS
 62
     8
 10
-56.7217243219
 20
7.1432331731
 30
0.0
  0
VERTEX
  5
2C5
  8
0
  6
CONTINUOUS
 62
     8
 10
-56.7140119822
 20
7.2434935897
 30
0.0
  0
VERTEX
  5
2C6
  8
0
  6
CONTINUOUS
 62
     8
 10
-56.7140119822
 20
7.2434935897
 30
0.0
  0
VERTEX
  5
2C7
  8
0
  6
CONTINUOUS
 62
     8
 10
-56.7217243219
 20
7.3402483974
 30
0.0
  0
VERTEX
  5
2C8
  8
0
  6
CONTINUOUS
 62
     8
 10
-56.7462635848
 20
7.4278886218
 30
0.0
  0
VERTEX
  5
2C9
  8
0
  6
CONTINUOUS
 62
     8
 10
-56.7862275271
 20
7.5071153846
 30
0.0
  0
VERTEX
  5
2CA
  8
0
  6
CONTINUOUS
 62
     8
 10
-56.8423172707
 20
7.5772275641
 30
0.0
  0
VERTEX
  5
2CB
  8
0
  6
CONTINUOUS
 62
     8
 10
-56.9110272066
 20
7.6347195513
 30
0.0
  0
VERTEX
  5
2CC
  8
0
  6
CONTINUOUS
 62
     8
 10
-56.988150604
 20
7.6760857372
 30
0.0
  0
VERTEX
  5
2CD
  8
0
  6
CONTINUOUS
 62
     8
 10
-57.0757908284
 20
7.700625
 30
0.0
  0
VERTEX
  5
2CE
  8
0
  6
CONTINUOUS
 62
     8
 10
-57.1718445143
 20
7.7090384615
 30
0.0
  0
VERTEX
  5
2CF
  8
0
  6
CONTINUOUS
 62
     8
 10
-57.1718445143
 20
7.7090384615
 30
0.0
  0
VERTEX
  5
2D0
  8
0
  6
CONTINUOUS
 62
     8
 10
-57.2216241617
 20
7.7062339744
 30
0.0
  0
VERTEX
  5
2D1
  8
0
  6
CONTINUOUS
 62
     8
 10
-57.2693004437
 20
7.6985216346
 30
0.0
  0
VERTEX
  5
2D2
  8
0
  6
CONTINUOUS
 62
     8
 10
-57.3148733604
 20
7.6852003205
 30
0.0
  0
VERTEX
  5
2D3
  8
0
  6
CONTINUOUS
 62
     8
 10
-57.3583429117
 20
7.6669711538
 30
0.0
  0
VERTEX
  5
2D4
  8
0
  6
CONTINUOUS
 62
     8
 10
-57.3997090976
 20
7.6431330128
 30
0.0
  0
VERTEX
  5
2D5
  8
0
  6
CONTINUOUS
 62
     8
 10
-57.4389719181
 20
7.6136858974
 30
0.0
  0
VERTEX
  5
2D6
  8
0
  6
CONTINUOUS
 62
     8
 10
-57.4761313732
 20
7.5793309295
 30
0.0
  0
VERTEX
  5
2D7
  8
0
  6
CONTINUOUS
 62
     8
 10
-57.511187463
 20
7.540068109
 30
0.0
  0
VERTEX
  5
2D8
  8
0
  6
CONTINUOUS
 62
     8
 10
-57.5434390655
 20
7.4958974359
 30
0.0
  0
VERTEX
  5
2D9
  8
0
  6
CONTINUOUS
 62
     8
 10
-57.5714839373
 20
7.4482211538
 30
0.0
  0
VERTEX
  5
2DA
  8
0
  6
CONTINUOUS
 62
     8
 10
-57.5953220784
 20
7.396338141
 30
0.0
  0
VERTEX
  5
2DB
  8
0
  6
CONTINUOUS
 62
     8
 10
-57.6156546104
 20
7.3409495192
 30
0.0
  0
VERTEX
  5
2DC
  8
0
  6
CONTINUOUS
 62
     8
 10
-57.6317804117
 20
7.2813541667
 30
0.0
  0
VERTEX
  5
2DD
  8
0
  6
CONTINUOUS
 62
     8
 10
-57.6436994822
 20
7.2182532051
 30
0.0
  0
VERTEX
  5
2DE
  8
0
  6
CONTINUOUS
 62
     8
 10
-57.6521129437
 20
7.1516466346
 30
0.0
  0
VERTEX
  5
2DF
  8
0
  6
CONTINUOUS
 62
     8
 10
-57.6563196745
 20
7.0808333333
 30
0.0
  0
SEQEND
  5
2E8
  8
0
  6
CONTINUOUS
 62
     8
  0
ENDSEC
  0
EOF
