M48
; DRILL file KiCad 10.0.1 date 2026-07-01T12:38:27
; FORMAT={-:-/ absolute / inch / decimal}
; #@! TF.CreationDate,2026-07-01T12:38:27+01:00
; #@! TF.GenerationSoftware,Kicad,Pcbnew,10.0.1
; #@! TF.FileFunction,Plated,1,6,PTH
FMAT,2
INCH
; #@! TA.AperFunction,Plated,PTH,ViaDrill
T1C0.0079
; #@! TA.AperFunction,Plated,PTH,ViaDrill
T2C0.0118
; #@! TA.AperFunction,Plated,PTH,ViaDrill
T3C0.0138
; #@! TA.AperFunction,Plated,PTH,ViaDrill
T4C0.0157
; #@! TA.AperFunction,Plated,PTH,ViaDrill
T5C0.0276
; #@! TA.AperFunction,Plated,PTH,ComponentDrill
T6C0.0280
; #@! TA.AperFunction,Plated,PTH,ComponentDrill
T7C0.0315
; #@! TA.AperFunction,Plated,PTH,ComponentDrill
T8C0.1060
; #@! TA.AperFunction,Plated,PTH,ComponentDrill
T9C0.1063
%
G90
G05
T1
X4.376Y-8.3623
X4.376Y-8.4411
X4.376Y-8.5198
X4.376Y-8.5986
X4.376Y-8.6773
X4.376Y-8.756
X4.376Y-8.8348
X4.376Y-8.9135
X4.376Y-8.9923
X4.376Y-9.071
X4.376Y-9.1497
X4.376Y-9.2285
X4.376Y-9.3072
X4.376Y-9.386
X4.4272Y-8.5749
X4.4351Y-9.1183
X4.439Y-9.386
X4.4469Y-8.9411
X4.4489Y-9.2777
X4.4548Y-8.697
X4.4784Y-8.3072
X4.4941Y-8.4608
X4.5138Y-7.3545
X4.5138Y-9.386
X4.5178Y-8.8033
X4.5217Y-9.1812
X4.5256Y-8.7246
X4.5926Y-7.3545
X4.5965Y-9.386
X4.6004Y-8.9529
X4.6004Y-9.0671
X4.6044Y-8.5513
X4.6044Y-8.6812
X4.6359Y-7.7482
X4.6477Y-7.9293
X4.6477Y-8.0749
X4.6516Y-7.8545
X4.6516Y-8.0041
X4.6516Y-8.1537
X4.6536Y-9.2659
X4.6595Y-7.5198
X4.6713Y-7.3545
X4.6752Y-9.386
X4.6871Y-7.756
X4.6871Y-8.9608
X4.691Y-8.7324
X4.691Y-8.882
X4.6949Y-8.8033
X4.6949Y-9.0238
X4.7028Y-7.5159
X4.7146Y-8.9214
X4.7209Y-9.0497
X4.7225Y-8.3899
X4.7304Y-8.8781
X4.7304Y-8.9608
X4.7335Y-9.1029
X4.7343Y-7.76
X4.7343Y-8.5277
X4.7343Y-8.6143
X4.7343Y-8.6576
X4.7343Y-8.7679
X4.7343Y-8.8249
X4.7382Y-8.5789
X4.7422Y-7.445
X4.7422Y-7.5159
X4.7422Y-9.0513
X4.75Y-7.3545
X4.75Y-9.0041
X4.754Y-9.386
X4.772Y-9.0341
X4.7776Y-7.5553
X4.7776Y-7.7875
X4.7815Y-7.445
X4.7815Y-7.5159
X4.7855Y-7.7009
X4.7855Y-7.949
X4.7894Y-9.386
X4.7952Y-7.5868
X4.8012Y-8.9526
X4.8091Y-7.823
X4.8091Y-8.9805
X4.817Y-8.8776
X4.8209Y-7.1537
X4.8209Y-7.445
X4.8209Y-7.5159
X4.8288Y-7.3545
X4.8367Y-7.756
X4.8367Y-8.8545
X4.8524Y-7.1183
X4.8524Y-7.1812
X4.8524Y-7.8466
X4.8563Y-8.9057
X4.8603Y-7.445
X4.8603Y-7.5159
X4.8697Y-8.9332
X4.8721Y-7.7797
X4.8759Y-8.8033
X4.876Y-8.7521
X4.876Y-8.7757
X4.8839Y-8.5553
X4.8839Y-8.5828
X4.8878Y-8.4568
X4.8878Y-8.4883
X4.888Y-8.8224
X4.8893Y-9.0828
X4.8918Y-8.6208
X4.8924Y-9.0437
X4.8937Y-8.9883
X4.8957Y-7.1064
X4.8957Y-8.3584
X4.8957Y-9.1871
X4.8957Y-9.4923
X4.8966Y-8.8542
X4.8977Y-9.1537
X4.8986Y-8.7524
X4.8986Y-8.8815
X4.8989Y-8.9076
X4.8995Y-8.7198
X4.8996Y-7.5159
X4.9036Y-7.445
X4.9036Y-7.8584
X4.9075Y-8.4686
X4.9075Y-8.512
X4.9075Y-8.5944
X4.9075Y-8.6419
X4.9115Y-9.5434
X4.9154Y-8.4253
X4.9233Y-7.7915
X4.9311Y-7.5868
X4.9351Y-8.4411
X4.939Y-7.1104
X4.939Y-7.445
X4.939Y-7.512
X4.939Y-9.2423
X4.9469Y-8.6616
X4.9469Y-9.2088
X4.9508Y-7.8584
X4.9515Y-8.9443
X4.9548Y-8.5395
X4.9587Y-8.386
X4.9607Y-9.0398
X4.9666Y-8.502
X4.9666Y-9.2049
X4.9705Y-8.7364
X4.9712Y-8.9365
X4.9738Y-8.6609
X4.9745Y-9.5631
X4.976Y-9.1025
X4.9784Y-7.445
X4.9784Y-7.5159
X4.9784Y-7.7915
X4.9823Y-8.8348
X4.9902Y-8.3505
X4.9902Y-9.008
X4.9917Y-9.2064
X4.994Y-8.9364
X4.9941Y-8.4608
X4.9941Y-8.7364
X4.9981Y-8.4017
X5.002Y-8.6616
X5.0059Y-8.3702
X5.0099Y-7.2915
X5.0099Y-7.4057
X5.0099Y-7.8584
X5.0138Y-7.9844
X5.0138Y-8.4175
X5.0178Y-7.445
X5.0178Y-7.5159
X5.0178Y-8.7285
X5.0217Y-7.1104
X5.0217Y-7.1616
X5.0256Y-9.2167
X5.0296Y-8.4332
X5.0296Y-9.3328
X5.0374Y-7.7915
X5.0394Y-8.6576
X5.0395Y-8.6266
X5.0414Y-7.1261
X5.0414Y-9.197
X5.0445Y-8.8173
X5.0453Y-8.449
X5.0486Y-9.0363
X5.0486Y-8.7794
X5.0493Y-8.8992
X5.0532Y-9.5631
X5.0542Y-9.0969
X5.0565Y-8.614
X5.0571Y-7.445
X5.0571Y-7.5159
X5.0571Y-7.8584
X5.0571Y-8.5032
X5.0571Y-9.1616
X5.0619Y-9.0496
X5.065Y-8.4568
X5.0723Y-8.5319
X5.0723Y-8.8896
X5.0729Y-8.0553
X5.0737Y-8.5558
X5.0768Y-8.9962
X5.0808Y-8.1852
X5.0842Y-8.6725
X5.0886Y-8.4923
X5.0926Y-8.3466
X5.0965Y-7.445
X5.0965Y-7.5159
X5.0965Y-7.7915
X5.1044Y-8.508
X5.1083Y-8.0356
X5.1116Y-8.8264
X5.1122Y-7.8584
X5.1201Y-8.4647
X5.1221Y-9.2442
X5.1221Y-9.3013
X5.1241Y-8.7639
X5.1241Y-8.9647
X5.1241Y-9.1891
X5.1241Y-9.3683
X5.1319Y-9.5631
X5.1359Y-7.445
X5.1359Y-7.5159
X5.1359Y-8.4923
X5.1556Y-7.7915
X5.1595Y-7.8584
X5.1634Y-8.0474
X5.1674Y-7.3309
X5.1713Y-7.382
X5.1752Y-7.5159
X5.1792Y-7.4332
X5.1831Y-9.258
X5.1831Y-9.2777
X5.1851Y-8.5179
X5.1871Y-8.3269
X5.1871Y-9.2966
X5.2028Y-7.8584
X5.2028Y-7.9529
X5.2067Y-7.5001
X5.2067Y-7.7482
X5.2067Y-8.3466
X5.2107Y-9.5631
X5.2146Y-7.7915
X5.2185Y-7.3978
X5.2225Y-7.1379
X5.2225Y-7.256
X5.2264Y-7.0868
X5.2422Y-7.008
X5.2441Y-7.3407
X5.2461Y-7.4962
X5.2461Y-7.5238
X5.2461Y-7.8584
X5.2532Y-8.534
X5.254Y-7.4608
X5.2619Y-8.26
X5.2658Y-7.3742
X5.2737Y-7.4962
X5.2737Y-7.5238
X5.2737Y-7.7915
X5.2776Y-8.2797
X5.2894Y-7.4411
X5.2894Y-9.5631
X5.2993Y-7.3151
X5.3052Y-7.8584
X5.3071Y-7.3663
X5.3209Y-7.256
X5.3209Y-8.0001
X5.3248Y-7.1931
X5.3327Y-7.7915
X5.3367Y-7.5277
X5.3367Y-8.1812
X5.3367Y-9.0592
X5.3406Y-7.3623
X5.3406Y-9.3072
X5.3603Y-7.3013
X5.3603Y-8.197
X5.3642Y-7.0198
X5.3642Y-7.8584
X5.3642Y-8.2877
X5.3682Y-9.5631
X5.375Y-9.3043
X5.376Y-7.6773
X5.3898Y-7.3525
X5.3918Y-7.2521
X5.3918Y-7.7915
X5.3996Y-7.949
X5.3996Y-9.3112
X5.4075Y-7.6912
X5.4115Y-8.2442
X5.4154Y-7.7639
X5.4233Y-7.8584
X5.4264Y-9.637
X5.4333Y-9.5005
X5.4339Y-9.5291
X5.4339Y-9.5516
X5.4351Y-7.6616
X5.4358Y-9.4776
X5.443Y-7.0198
X5.4449Y-8.4371
X5.4488Y-7.5986
X5.4508Y-7.7915
X5.4548Y-7.7127
X5.4666Y-9.6655
X5.4721Y-7.608
X5.4804Y-8.4017
X5.4823Y-7.7088
X5.4823Y-7.8584
X5.4863Y-8.4805
X5.4902Y-7.2501
X5.4922Y-7.2226
X5.4922Y-7.2679
X5.4955Y-9.515
X5.4981Y-8.1694
X5.4999Y-9.448
X5.5012Y-9.3866
X5.5099Y-7.7915
X5.5103Y-9.4301
X5.5119Y-7.2226
X5.5217Y-7.0198
X5.5217Y-7.6064
X5.5217Y-8.3584
X5.5217Y-8.445
X5.5217Y-9.6261
X5.524Y-9.3803
X5.526Y-9.5114
X5.5296Y-7.2226
X5.5296Y-9.6064
X5.5303Y-9.4902
X5.5414Y-7.3545
X5.5414Y-7.5238
X5.5414Y-7.8584
X5.5434Y-7.4431
X5.5484Y-7.2254
X5.5493Y-7.9805
X5.5512Y-7.2915
X5.5512Y-8.3289
X5.5531Y-7.6694
X5.5552Y-8.4765
X5.565Y-7.6261
X5.565Y-8.4017
X5.5689Y-7.1675
X5.5689Y-7.7915
X5.5729Y-7.445
X5.5768Y-7.3781
X5.5768Y-7.508
X5.5772Y-9.4205
X5.5854Y-8.5349
X5.5965Y-8.3702
X5.5985Y-8.4332
X5.6004Y-7.8584
X5.6063Y-7.2797
X5.6122Y-8.7049
X5.6162Y-9.5671
X5.6162Y-9.5907
X5.6201Y-9.5395
X5.6241Y-8.0434
X5.628Y-7.7915
X5.6319Y-7.0749
X5.6364Y-8.3117
X5.6398Y-7.3505
X5.6398Y-7.3781
X5.6398Y-7.445
X5.6398Y-7.508
X5.6477Y-7.0907
X5.6477Y-8.7206
X5.6497Y-8.325
X5.6595Y-7.8584
X5.6634Y-7.0749
X5.6634Y-7.1064
X5.6634Y-8.3387
X5.6639Y-9.2211
X5.6752Y-7.5395
X5.6752Y-8.3545
X5.6792Y-7.0198
X5.6792Y-9.1458
X5.6792Y-9.6773
X5.6831Y-7.9411
X5.6831Y-8.0513
X5.6831Y-8.7127
X5.6852Y-7.2818
X5.6871Y-7.7915
X5.691Y-8.319
X5.7028Y-7.3781
X5.7028Y-7.445
X5.7028Y-7.508
X5.7048Y-7.1596
X5.7146Y-8.386
X5.7146Y-9.6183
X5.7185Y-7.8584
X5.7245Y-7.1596
X5.7264Y-7.3505
X5.7339Y-8.5276
X5.7343Y-8.6183
X5.7343Y-9.2206
X5.7382Y-8.3623
X5.7422Y-9.4057
X5.7441Y-7.1596
X5.7461Y-7.7915
X5.75Y-9.6419
X5.75Y-9.6694
X5.7579Y-7.0198
X5.7579Y-8.7088
X5.7579Y-9.3899
X5.7658Y-8.3584
X5.7658Y-8.5001
X5.7697Y-9.1891
X5.7697Y-9.4332
X5.7717Y-9.0945
X5.7736Y-8.9783
X5.7737Y-9.1379
X5.7737Y-9.3742
X5.7756Y-9.3978
X5.7776Y-7.1261
X5.7776Y-7.6616
X5.7776Y-7.8584
X5.7815Y-8.4017
X5.7815Y-8.5907
X5.7848Y-8.4765
X5.7854Y-7.1831
X5.7855Y-8.4529
X5.7894Y-9.1576
X5.7934Y-8.8742
X5.8012Y-7.6419
X5.8052Y-7.7915
X5.8052Y-8.6891
X5.8091Y-9.2639
X5.817Y-7.9765
X5.8209Y-7.6734
X5.8229Y-7.512
X5.8248Y-8.7009
X5.8288Y-8.4175
X5.8367Y-7.0198
X5.8367Y-7.4805
X5.8367Y-7.8584
X5.8367Y-9.6261
X5.8386Y-7.3072
X5.8386Y-7.4234
X5.8409Y-9.6799
X5.8426Y-7.512
X5.8485Y-9.2521
X5.8563Y-7.4785
X5.8642Y-7.512
X5.8642Y-7.7915
X5.876Y-7.9765
X5.8819Y-7.4785
X5.8839Y-7.512
X5.8839Y-9.2718
X5.8839Y-9.3682
X5.8839Y-9.3938
X5.8878Y-7.1104
X5.8878Y-8.7994
X5.8878Y-8.823
X5.8878Y-8.8505
X5.8878Y-9.1104
X5.8878Y-9.2088
X5.8957Y-7.8584
X5.8996Y-7.1576
X5.9027Y-9.6213
X5.9036Y-8.4332
X5.9115Y-7.4805
X5.9134Y-7.6222
X5.9154Y-7.0198
X5.9154Y-7.3584
X5.9154Y-7.3978
X5.9154Y-7.4529
X5.9154Y-7.5828
X5.9174Y-7.5474
X5.9213Y-9.5159
X5.9225Y-9.4478
X5.9233Y-7.7915
X5.9272Y-7.4962
X5.9311Y-9.6744
X5.9311Y-7.6064
X5.9311Y-8.008
X5.9311Y-9.012
X5.9351Y-8.5631
X5.9371Y-7.5671
X5.939Y-7.3781
X5.939Y-7.4371
X5.939Y-7.5277
X5.941Y-7.3209
X5.9469Y-8.9568
X5.9548Y-7.4175
X5.9548Y-8.4726
X5.9548Y-8.5001
X5.9587Y-7.3091
X5.9587Y-8.256
X5.9626Y-7.8033
X5.9626Y-8.882
X5.9666Y-7.2915
X5.9666Y-7.9175
X5.9685Y-8.1803
X5.9685Y-7.3387
X5.9745Y-7.7049
X5.9784Y-7.4608
X5.9823Y-8.4726
X5.9823Y-8.5001
X5.9843Y-9.4076
X5.9934Y-9.562
X5.9941Y-7.0198
X5.9941Y-7.7206
X5.9941Y-9.6734
X5.9949Y-9.4785
X5.9981Y-7.2757
X6.0059Y-7.4568
X6.0059Y-7.7462
X6.0079Y-7.9942
X6.0079Y-8.0257
X6.0099Y-7.2364
X6.0099Y-7.4135
X6.0138Y-7.9411
X6.0217Y-7.8545
X6.0217Y-9.0159
X6.0217Y-9.071
X6.0217Y-9.1183
X6.0256Y-7.4568
X6.0296Y-7.9942
X6.0296Y-8.0257
X6.0296Y-8.5356
X6.0355Y-9.3742
X6.0382Y-9.4273
X6.0453Y-7.4588
X6.0453Y-8.5159
X6.0453Y-8.5553
X6.0532Y-7.9647
X6.0532Y-8.5356
X6.0552Y-9.51
X6.0591Y-7.8683
X6.0611Y-7.4509
X6.0611Y-8.1694
X6.067Y-7.8151
X6.0689Y-8.5159
X6.0689Y-8.5553
X6.0709Y-9.5651
X6.0729Y-7.0198
X6.0729Y-7.1497
X6.0729Y-8.2403
X6.0729Y-8.5356
X6.0729Y-9.0198
X6.0729Y-9.071
X6.0729Y-9.1183
X6.0729Y-9.6734
X6.0768Y-7.4608
X6.0808Y-8.9332
X6.0898Y-7.7793
X6.0926Y-7.4529
X6.1103Y-9.3702
X6.1108Y-9.4713
X6.1122Y-7.8131
X6.1122Y-7.8742
X6.1122Y-8.256
X6.1201Y-7.7423
X6.1201Y-7.7718
X6.1201Y-9.1694
X6.1201Y-9.2167
X6.1241Y-9.1183
X6.126Y-9.5395
X6.128Y-8.4332
X6.1319Y-7.756
X6.1319Y-8.5316
X6.1437Y-7.7403
X6.1437Y-7.7718
X6.1437Y-8.2679
X6.1516Y-7.0198
X6.1516Y-9.6734
X6.1536Y-7.8328
X6.1556Y-7.756
X6.1575Y-7.8013
X6.1608Y-9.4694
X6.1615Y-7.8663
X6.1615Y-9.3702
X6.1654Y-7.7403
X6.1654Y-7.7718
X6.1674Y-8.1852
X6.1713Y-9.1183
X6.1713Y-9.1694
X6.1733Y-9.5553
X6.1733Y-7.2591
X6.1752Y-7.2875
X6.1752Y-8.4686
X6.1752Y-8.5001
X6.1827Y-9.4934
X6.1851Y-7.4785
X6.191Y-9.2659
X6.1949Y-7.4903
X6.1989Y-8.1321
X6.1989Y-7.2532
X6.2009Y-7.2788
X6.2028Y-8.4686
X6.2028Y-8.5001
X6.2087Y-9.3702
X6.2108Y-9.4666
X6.2176Y-7.2935
X6.2225Y-9.1183
X6.2225Y-9.1694
X6.2251Y-9.2826
X6.2264Y-8.1497
X6.228Y-7.7529
X6.2284Y-7.2522
X6.2294Y-7.2738
X6.2304Y-7.0198
X6.2304Y-9.6734
X6.2414Y-7.7667
X6.2434Y-9.534
X6.2491Y-7.2896
X6.2495Y-8.5356
X6.251Y-7.7335
X6.253Y-7.2482
X6.254Y-7.1616
X6.2599Y-7.7757
X6.2608Y-9.4779
X6.2619Y-7.758
X6.2638Y-9.3702
X6.265Y-9.5033
X6.2658Y-8.5198
X6.2726Y-7.7335
X6.2731Y-8.2006
X6.2737Y-8.5395
X6.2737Y-9.1183
X6.2737Y-9.1694
X6.2855Y-8.4805
X6.2855Y-9.2219
X6.2868Y-8.1117
X6.2894Y-8.508
X6.2894Y-8.5277
X6.2914Y-7.7324
X6.2934Y-8.1734
X6.2973Y-7.3761
X6.3005Y-8.1497
X6.3012Y-7.0474
X6.3023Y-7.2522
X6.3023Y-7.2896
X6.3052Y-7.3387
X6.3052Y-9.2219
X6.309Y-8.0274
X6.3091Y-7.0198
X6.3091Y-7.2049
X6.3091Y-9.6734
X6.3111Y-7.945
X6.313Y-9.4836
X6.3145Y-7.8514
X6.3201Y-7.7343
X6.3209Y-8.9726
X6.3209Y-9.0159
X6.3209Y-9.0671
X6.3248Y-7.3505
X6.3248Y-9.1183
X6.3248Y-9.1694
X6.3288Y-9.3781
X6.3327Y-7.3978
X6.3327Y-7.4175
X6.3367Y-8.2639
X6.3386Y-7.8801
X6.3445Y-7.947
X6.3445Y-8.01
X6.3445Y-8.4371
X6.3452Y-8.1116
X6.3466Y-7.14
X6.3485Y-7.3702
X6.3485Y-8.5434
X6.3524Y-7.3978
X6.3563Y-7.4175
X6.3655Y-9.2826
X6.3682Y-8.2639
X6.3721Y-7.4057
X6.3721Y-8.9726
X6.3721Y-9.0159
X6.3721Y-9.0671
X6.3721Y-9.1183
X6.3721Y-9.1694
X6.3733Y-9.4029
X6.3741Y-7.7738
X6.376Y-7.3474
X6.3839Y-7.4175
X6.3878Y-7.0198
X6.3878Y-9.2679
X6.3878Y-9.6734
X6.3918Y-8.4805
X6.3918Y-8.508
X6.4007Y-7.3467
X6.4036Y-7.882
X6.4036Y-7.947
X6.4036Y-8.008
X6.4048Y-9.3714
X6.4075Y-8.2639
X6.4134Y-9.4903
X6.4146Y-9.4419
X6.4154Y-9.0159
X6.4189Y-7.8526
X6.4193Y-8.4805
X6.4193Y-8.508
X6.4193Y-9.0671
X6.4193Y-9.1183
X6.4193Y-9.1694
X6.4193Y-9.5238
X6.4363Y-9.399
X6.4437Y-9.5332
X6.4445Y-9.569
X6.4499Y-7.2482
X6.4515Y-8.0455
X6.4556Y-9.4623
X6.4556Y-9.5057
X6.463Y-7.0628
X6.4634Y-9.486
X6.4634Y-9.5332
X6.465Y-9.569
X6.4666Y-7.0198
X6.4666Y-8.5434
X6.4666Y-9.6734
X6.4685Y-7.882
X6.4685Y-8.01
X6.4693Y-9.4387
X6.4705Y-7.947
X6.4705Y-9.071
X6.4705Y-9.1183
X6.4705Y-9.1694
X6.4705Y-9.2206
X6.4823Y-8.5316
X6.4882Y-9.3978
X6.4902Y-8.5513
X6.4941Y-7.1497
X6.4949Y-7.9707
X6.4971Y-7.2965
X6.4988Y-7.8604
X6.4991Y-7.2364
X6.5059Y-7.008
X6.509Y-7.263
X6.5099Y-8.4844
X6.5099Y-8.512
X6.5099Y-8.5316
X6.5138Y-8.5513
X6.5178Y-7.1812
X6.5178Y-7.3132
X6.5217Y-9.0749
X6.5217Y-9.1183
X6.5217Y-9.6734
X6.5237Y-7.2236
X6.5237Y-7.2827
X6.5245Y-9.6427
X6.5296Y-8.1183
X6.5335Y-9.4017
X6.5365Y-7.2551
X6.5365Y-7.3398
X6.5424Y-7.3132
X6.5453Y-8.1379
X6.5453Y-9.6399
X6.5454Y-7.2276
X6.5523Y-7.2886
X6.5532Y-7.8131
X6.5532Y-8.4255
X6.5611Y-8.0828
X6.5621Y-7.2571
X6.563Y-8.1931
X6.565Y-7.3348
X6.565Y-8.0198
X6.565Y-8.0395
X6.5689Y-8.1608
X6.5689Y-9.4017
X6.5729Y-7.2246
X6.5729Y-8.4371
X6.5729Y-7.3103
X6.574Y-8.5533
X6.5768Y-8.0592
X6.5768Y-8.4686
X6.5768Y-8.4923
X6.5768Y-9.1183
X6.5808Y-8.1025
X6.5808Y-8.5238
X6.5828Y-7.2866
X6.5847Y-7.256
X6.5847Y-9.0868
X6.6004Y-7.9785
X6.6004Y-7.9234
X6.6044Y-7.0868
X6.6083Y-7.008
X6.6095Y-7.0375
X6.6138Y-7.2446
X6.6201Y-7.9805
X6.6221Y-7.5651
X6.628Y-9.1655
X6.6351Y-7.5769
X6.6359Y-7.26
X6.6359Y-9.4057
X6.6398Y-7.9568
X6.6417Y-7.9825
X6.6437Y-7.9371
X6.6467Y-7.074
X6.6504Y-7.5899
X6.6516Y-8.2482
X6.6556Y-8.2836
X6.6646Y-7.6053
X6.6674Y-7.3781
X6.6674Y-7.4057
X6.6674Y-9.4096
X6.6713Y-7.2167
X6.6734Y-7.9311
X6.6752Y-8.2639
X6.6784Y-7.6171
X6.6831Y-7.0159
X6.6871Y-8.4332
X6.691Y-7.1537
X6.691Y-7.6297
X6.691Y-8.508
X6.6949Y-8.4726
X6.6949Y-9.6734
X6.6989Y-8.5553
X6.6989Y-9.512
X6.6989Y-9.5513
X6.6989Y-9.5907
X6.7028Y-7.0749
X6.7048Y-7.6427
X6.7067Y-7.3466
X6.7107Y-9.571
X6.7185Y-9.6222
X6.7189Y-7.6568
X6.7304Y-7.057
X6.7304Y-7.6694
X6.7343Y-8.2836
X6.7343Y-9.1379
X6.7381Y-8.7285
X6.7422Y-7.882
X6.7461Y-7.012
X6.7461Y-7.7482
X6.7461Y-9.0395
X6.75Y-8.2167
X6.75Y-8.5671
X6.7536Y-7.1242
X6.754Y-7.512
X6.754Y-7.8112
X6.754Y-8.3584
X6.754Y-8.4175
X6.754Y-8.8072
X6.754Y-9.2954
X6.7579Y-7.697
X6.7579Y-7.8584
X6.7579Y-7.9017
X6.7579Y-8.0356
X6.7579Y-9.0946
X6.7579Y-9.1852
X6.7619Y-7.445
X6.7619Y-8.5001
X6.7619Y-8.8505
X6.7658Y-7.5986
X6.7658Y-7.6458
X6.7658Y-9.2403
X6.7737Y-7.2167
X6.7737Y-9.6734
X6.7934Y-7.8899
X6.7973Y-8.4962
X6.7973Y-9.4411
X6.7995Y-9.2968
X6.8012Y-7.4608
X6.8012Y-8.0434
X6.8012Y-8.1616
X6.8012Y-8.5474
X6.8012Y-8.8072
X6.8012Y-8.9923
X6.8012Y-9.0474
X6.8012Y-9.1458
X6.8012Y-9.197
X6.8012Y-9.2442
X6.8014Y-8.4647
X6.8032Y-7.7714
X6.8036Y-7.9076
X6.8052Y-7.8112
X6.8052Y-7.8584
X6.8052Y-7.9686
X6.8052Y-8.2167
X6.8052Y-8.3151
X6.8052Y-8.4057
X6.8052Y-8.634
X6.8052Y-8.7285
X6.8052Y-8.756
X6.8052Y-8.9332
X6.8052Y-9.0946
X6.8091Y-7.5434
X6.8091Y-8.5868
X6.813Y-7.6497
X6.813Y-8.8505
X6.813Y-9.6143
X6.8248Y-7.5159
X6.8288Y-9.3427
X6.8406Y-7.008
X6.8447Y-8.7008
X6.8485Y-8.0434
X6.8485Y-8.8466
X6.8493Y-7.7694
X6.8504Y-7.7147
X6.8524Y-7.4568
X6.8524Y-7.5434
X6.8524Y-7.5907
X6.8524Y-7.6419
X6.8524Y-8.1616
X6.8524Y-8.2088
X6.8524Y-8.2639
X6.8524Y-8.4568
X6.8524Y-8.4962
X6.8524Y-8.5907
X6.8524Y-8.6655
X6.8524Y-8.7482
X6.8524Y-8.945
X6.8524Y-9.0907
X6.8524Y-9.6734
X6.8546Y-9.1421
X6.8563Y-8.1025
X6.8563Y-8.3545
X6.8563Y-8.4057
X6.8563Y-8.5474
X6.8563Y-8.9883
X6.8563Y-9.1852
X6.8563Y-9.2285
X6.8603Y-7.0198
X6.8603Y-7.4962
X6.8603Y-8.882
X6.8603Y-9.0395
X6.88Y-8.4962
X6.8996Y-7.7147
X6.8996Y-7.8623
X6.8996Y-8.2049
X6.8996Y-8.3505
X6.8996Y-8.8466
X6.8996Y-8.9962
X6.9036Y-7.4923
X6.9036Y-7.7679
X6.9036Y-7.9057
X6.9036Y-8.0041
X6.9036Y-8.4923
X6.9036Y-8.5474
X6.9036Y-8.5907
X6.9036Y-8.6143
X6.9036Y-8.6458
X6.9036Y-8.7482
X6.9036Y-8.9411
X6.9036Y-9.0395
X6.9075Y-8.1025
X6.9075Y-8.2521
X6.9075Y-8.4017
X6.9075Y-8.7009
X6.9075Y-9.0868
X6.9115Y-7.3151
X6.9115Y-8.1537
X6.9115Y-8.886
X6.9272Y-9.3545
X6.9311Y-9.1419
X6.9311Y-9.6734
X6.943Y-7.445
X6.943Y-8.4844
X6.9469Y-7.5474
X6.9469Y-8.9411
X6.9508Y-7.7049
X6.9508Y-7.8505
X6.9508Y-8.0907
X6.9508Y-8.1497
X6.9508Y-8.3427
X6.9508Y-8.4017
X6.9508Y-8.5907
X6.9508Y-8.7482
X6.9548Y-7.5986
X6.9548Y-7.6655
X6.9548Y-8.6458
X6.9548Y-8.8309
X6.9587Y-7.8033
X6.9587Y-7.9017
X6.9587Y-8.6852
X6.9587Y-8.886
X6.9587Y-8.9844
X6.9587Y-9.0356
X6.9587Y-9.0946
X6.9587Y-9.1379
X6.9626Y-7.4962
X6.9626Y-7.7482
X6.9626Y-8.5001
X6.9685Y-9.2986
X6.9705Y-7.0159
X6.9705Y-9.2442
X6.9863Y-9.1891
X6.9981Y-7.8938
X6.9981Y-8.1497
X6.9981Y-8.2915
X7.002Y-7.4962
X7.002Y-7.7442
X7.002Y-8.2049
X7.002Y-8.5474
X7.002Y-8.5946
X7.002Y-8.7009
X7.002Y-8.8466
X7.0059Y-7.5553
X7.0059Y-7.7994
X7.0059Y-7.8466
X7.0059Y-8.0946
X7.0059Y-8.4805
X7.0059Y-8.6458
X7.0059Y-8.7757
X7.0059Y-8.9411
X7.0059Y-9.4765
X7.0099Y-7.6497
X7.0099Y-7.7009
X7.0099Y-7.9529
X7.0099Y-8.0001
X7.0099Y-8.3427
X7.0099Y-8.4371
X7.0099Y-9.0356
X7.0099Y-9.6734
X7.0178Y-7.0198
X7.0256Y-9.3427
X7.0493Y-7.1379
X7.0493Y-7.7521
X7.0493Y-8.0946
X7.0493Y-8.5395
X7.0493Y-9.1379
X7.0512Y-8.3958
X7.0512Y-8.5946
X7.0512Y-9.2423
X7.0532Y-7.3466
X7.0532Y-7.8938
X7.0532Y-7.9923
X7.0532Y-8.2875
X7.0532Y-8.3348
X7.0532Y-8.4431
X7.0532Y-8.695
X7.0532Y-8.8112
X7.0532Y-8.8919
X7.0532Y-9.5513
X7.0552Y-8.9923
X7.0571Y-8.0316
X7.0571Y-8.0553
X7.0611Y-8.1497
X7.0611Y-8.2009
X7.0709Y-9.4588
X7.0808Y-7.7921
X7.0827Y-9.297
X7.0847Y-8.3899
X7.0886Y-9.6734
X7.0965Y-7.0198
X7.0965Y-7.445
X7.1004Y-7.4923
X7.1004Y-7.5474
X7.1004Y-7.8899
X7.1004Y-8.0946
X7.1004Y-8.4942
X7.1004Y-8.8446
X7.1004Y-8.9883
X7.1004Y-9.0415
X7.1004Y-9.0927
X7.1014Y-7.8058
X7.1024Y-8.5927
X7.1024Y-8.6419
X7.1024Y-8.7442
X7.1024Y-9.195
X7.1044Y-7.3938
X7.1044Y-7.6458
X7.1044Y-8.1419
X7.1044Y-8.2442
X7.1044Y-8.2954
X7.1044Y-8.9332
X7.1044Y-9.3427
X7.1083Y-8.0474
X7.1083Y-8.3466
X7.1103Y-9.2934
X7.1241Y-7.3348
X7.1398Y-7.7442
X7.1437Y-7.7954
X7.1437Y-9.6734
X7.1477Y-7.8427
X7.1477Y-7.8938
X7.1477Y-8.7442
X7.1496Y-8.8427
X7.1516Y-7.3938
X7.1516Y-7.6931
X7.1516Y-8.012
X7.1516Y-8.0434
X7.1516Y-8.0946
X7.1516Y-8.1458
X7.1516Y-8.2049
X7.1516Y-8.3446
X7.1516Y-8.5434
X7.1516Y-8.9942
X7.1536Y-8.3899
X7.1536Y-8.4431
X7.1536Y-8.7934
X7.1536Y-9.2442
X7.1556Y-7.2088
X7.1556Y-7.6419
X7.1556Y-9.1379
X7.1752Y-7.0198
X7.1949Y-7.445
X7.1989Y-7.7482
X7.1989Y-7.8427
X7.1989Y-8.5907
X7.1989Y-8.6537
X7.1989Y-9.2915
X7.1989Y-9.3427
X7.2008Y-8.6931
X7.2028Y-7.6931
X7.2028Y-7.7954
X7.2028Y-8.0474
X7.2028Y-8.0907
X7.2028Y-8.1931
X7.2028Y-8.3072
X7.2028Y-8.3466
X7.2028Y-8.449
X7.2028Y-8.5434
X7.2028Y-8.7423
X7.2028Y-8.8427
X7.2028Y-8.9371
X7.2028Y-8.9923
X7.2028Y-9.0434
X7.2028Y-9.0907
X7.2028Y-9.2403
X7.2067Y-7.8899
X7.2067Y-8.1458
X7.2067Y-9.1891
X7.2461Y-9.6734
X7.254Y-7.0198
X7.254Y-7.0868
X7.2737Y-7.8938
X7.2776Y-7.7482
X7.278Y-9.4289
X7.2815Y-7.8663
X7.3012Y-9.6734
X7.3087Y-9.2112
X7.3091Y-8.0277
X7.3091Y-8.1064
X7.3091Y-8.1852
X7.3091Y-8.2639
X7.3091Y-8.3427
X7.3091Y-8.4214
X7.3091Y-8.5198
X7.3091Y-8.6183
X7.3091Y-8.7364
X7.3091Y-8.8151
X7.3091Y-8.9332
X7.3091Y-9.0316
X7.3091Y-9.1301
X7.3091Y-9.2875
X7.3091Y-9.3663
X7.3091Y-9.445
X7.3091Y-9.5238
X7.3091Y-9.5986
X7.317Y-7.0198
X7.317Y-7.0828
X7.317Y-7.1616
X7.317Y-7.2403
X7.317Y-7.319
X7.317Y-7.3978
X7.317Y-7.4765
X7.317Y-7.5553
X7.317Y-7.634
X7.317Y-7.7127
X7.317Y-7.7915
X7.317Y-7.8702
X7.317Y-7.949
T2
X4.9941Y-8.2049
X5.0571Y-8.2127
X5.4471Y-7.3799
X6.2087Y-7.882
X6.3515Y-7.199
X6.3515Y-7.3467
X6.4548Y-7.199
X6.6752Y-7.1025
T3
X5.2934Y-8.8663
X5.586Y-9.344
X7.0532Y-7.5906
T4
X4.8248Y-7.9411
X4.943Y-8.2049
X4.9626Y-8.071
X4.9626Y-8.1497
X5.1162Y-8.2264
X5.1713Y-8.1616
X5.1871Y-9.0789
X5.1883Y-8.8427
X5.209Y-7.9978
X5.2422Y-7.9293
X5.2886Y-7.6474
X5.2934Y-9.0631
X5.3052Y-7.5986
X5.3091Y-8.3427
X5.3268Y-9.1832
X5.3327Y-9.0986
X5.3422Y-7.6793
X5.3445Y-8.3072
X5.3485Y-8.8899
X5.3563Y-8.4017
X5.3721Y-7.9293
X5.3839Y-8.2679
X5.443Y-8.2285
X5.4508Y-8.5749
X5.4528Y-7.2777
X5.502Y-8.6064
X5.5025Y-8.0592
X5.5099Y-8.7206
X5.5099Y-9.216
X5.5099Y-9.319
X5.5178Y-8.8643
X5.5178Y-9.0356
X5.5256Y-8.2364
X5.5453Y-8.7285
X5.5453Y-9.323
X5.5512Y-8.9805
X5.5847Y-8.7324
X5.5847Y-9.1852
X5.6241Y-8.2915
X5.6241Y-9.0592
X5.628Y-8.9411
X5.6319Y-8.5356
X5.6437Y-9.2088
X5.6516Y-9.5001
X5.6556Y-9.6222
X5.6674Y-8.5907
X5.6792Y-8.4017
X5.75Y-8.4293
X5.754Y-9.4883
X5.7579Y-8.9253
X5.7658Y-7.9293
X5.7658Y-8.0316
X5.7878Y-8.1514
X5.7894Y-9.0041
X5.8445Y-8.0946
X5.8563Y-9.5001
X5.8839Y-9.4214
X5.8996Y-8.9805
X5.9036Y-8.8742
X5.9075Y-8.0986
X5.9193Y-8.9253
X5.9311Y-8.0553
X5.9351Y-9.26
X5.939Y-7.9726
X5.9705Y-7.2442
X5.9784Y-9.26
X6.0099Y-7.1261
X6.0099Y-9.1891
X6.0099Y-9.2206
X6.0138Y-9.2639
X6.0591Y-8.1005
X6.0611Y-7.2442
X6.2166Y-7.7895
X6.5099Y-9.3742
X6.565Y-9.6576
X6.5808Y-9.197
X6.5808Y-9.2403
X6.5808Y-9.2875
X6.6004Y-9.4017
X6.628Y-9.2875
X6.6713Y-9.2875
X6.6792Y-9.6537
X6.7579Y-7.3427
X6.8052Y-7.3938
X6.8288Y-7.319
X6.876Y-7.319
X6.9036Y-7.3938
X6.9474Y-7.3269
X6.9508Y-7.3938
X6.9981Y-7.445
X7.002Y-7.3938
X7.0493Y-7.6419
X7.1477Y-7.5356
X7.1477Y-7.5946
X7.1989Y-7.4923
X7.1989Y-7.6379
X7.2461Y-7.1852
T5
X4.8209Y-8.4686
X5.4292Y-7.5139
X5.4469Y-7.0749
X5.5689Y-8.6075
X5.5886Y-8.8466
X5.6745Y-7.6485
X5.6989Y-8.6104
X5.8544Y-7.2305
X5.876Y-7.0513
X6.065Y-7.7482
X6.189Y-8.0139
X6.4353Y-8.1578
X6.456Y-7.7681
X6.5453Y-8.5159
X6.6063Y-8.1869
T6
X6.0858Y-9.3953
X6.0858Y-9.4453
X6.1358Y-9.3953
X6.1358Y-9.4453
X6.1858Y-9.3953
X6.1858Y-9.4453
X6.2358Y-9.3953
X6.2358Y-9.4453
X6.2858Y-9.3953
X6.2858Y-9.4453
T7
X4.3733Y-7.3871
X4.3733Y-7.4871
X4.3733Y-7.584
X4.3733Y-7.684
X4.3733Y-7.7809
X4.3733Y-7.8809
X4.3733Y-7.958
X4.3733Y-8.058
X4.3733Y-8.1352
X4.3733Y-8.2352
X4.4233Y-7.4371
X4.4233Y-7.634
X4.4233Y-7.8309
X4.4233Y-8.008
X4.4233Y-8.1852
X4.4733Y-7.3871
X4.4733Y-7.4871
X4.4733Y-7.584
X4.4733Y-7.684
X4.4733Y-7.7809
X4.4733Y-7.8809
X4.4733Y-7.958
X4.4733Y-8.058
X4.4733Y-8.1352
X4.4733Y-8.2352
T8
X6.922Y-7.1027
X6.922Y-9.5827
T9
X4.7737Y-7.258
X4.7737Y-9.4844
M30
