%TF.GenerationSoftware,KiCad,Pcbnew,10.0.1*%
%TF.CreationDate,2026-07-01T12:38:51+01:00*%
%TF.ProjectId,fmc-host,666d632d-686f-4737-942e-6b696361645f,rev?*%
%TF.SameCoordinates,Original*%
%TF.FileFunction,Paste,Bot*%
%TF.FilePolarity,Positive*%
%FSLAX46Y46*%
G04 Gerber Fmt 4.6, Leading zero omitted, Abs format (unit mm)*
G04 Created by KiCad (PCBNEW 10.0.1) date 2026-07-01 12:38:51*
%MOMM*%
%LPD*%
G01*
G04 APERTURE LIST*
G04 Aperture macros list*
%AMRotRect*
0 Rectangle, with rotation*
0 The origin of the aperture is its center*
0 $1 length*
0 $2 width*
0 $3 Rotation angle, in degrees counterclockwise*
0 Add horizontal line*
21,1,$1,$2,0,0,$3*%
G04 Aperture macros list end*
%ADD10C,0.000000*%
%ADD11R,0.762000X0.685800*%
%ADD12R,0.965200X1.524000*%
%ADD13R,0.685800X0.762000*%
%ADD14RotRect,0.965200X1.524000X135.000000*%
%ADD15R,1.219200X1.879600*%
%ADD16R,1.524000X0.965200*%
%ADD17R,1.066800X0.889000*%
%ADD18R,1.879600X1.219200*%
%ADD19R,3.000000X1.800000*%
%ADD20R,0.760000X1.270000*%
%ADD21R,1.600000X0.760000*%
%ADD22R,1.200000X0.350000*%
%ADD23R,0.250000X0.500000*%
%ADD24R,1.000000X0.550000*%
%ADD25RotRect,0.685800X0.762000X135.000000*%
%ADD26RotRect,0.965200X1.524000X45.000000*%
%ADD27RotRect,0.965200X1.524000X225.000000*%
%ADD28R,1.651000X2.794000*%
%ADD29RotRect,0.685800X0.762000X225.000000*%
%ADD30R,0.889000X1.066800*%
G04 APERTURE END LIST*
D10*
%TO.C,U24*%
G36*
X155601100Y-189703600D02*
G01*
X154901100Y-189703600D01*
X154901100Y-188803600D01*
X155601100Y-188803600D01*
X155601100Y-189703600D01*
G37*
G36*
X156501100Y-189703600D02*
G01*
X155801100Y-189703600D01*
X155801100Y-188803600D01*
X156501100Y-188803600D01*
X156501100Y-189703600D01*
G37*
%TD*%
D11*
%TO.C,C10*%
X127651100Y-207970200D03*
X127651100Y-209037000D03*
%TD*%
D12*
%TO.C,C59*%
X132009700Y-231803600D03*
X134092500Y-231803600D03*
%TD*%
D13*
%TO.C,C12*%
X140034500Y-187853600D03*
X138967700Y-187853600D03*
%TD*%
%TO.C,R80*%
X161484500Y-234803600D03*
X160417700Y-234803600D03*
%TD*%
D14*
%TO.C,C105*%
X138887481Y-212239981D03*
X137414719Y-210767219D03*
%TD*%
D11*
%TO.C,C18*%
X125251100Y-225437000D03*
X125251100Y-224370200D03*
%TD*%
D14*
%TO.C,C88*%
X140387481Y-210739981D03*
X138914719Y-209267219D03*
%TD*%
D15*
%TO.C,C35*%
X163950100Y-199753600D03*
X167252100Y-199753600D03*
%TD*%
D11*
%TO.C,C32*%
X147251100Y-239370200D03*
X147251100Y-240437000D03*
%TD*%
D13*
%TO.C,R66*%
X144917700Y-230803600D03*
X145984500Y-230803600D03*
%TD*%
%TO.C,C30*%
X135024500Y-195023600D03*
X133957700Y-195023600D03*
%TD*%
D11*
%TO.C,C61*%
X145449294Y-185213313D03*
X145449294Y-184146513D03*
%TD*%
D16*
%TO.C,C42*%
X142651100Y-191712200D03*
X142651100Y-193795000D03*
%TD*%
D13*
%TO.C,C43*%
X146467700Y-189003600D03*
X147534500Y-189003600D03*
%TD*%
%TO.C,R46*%
X167917700Y-217803600D03*
X168984500Y-217803600D03*
%TD*%
D11*
%TO.C,C8*%
X127651100Y-225437000D03*
X127651100Y-224370200D03*
%TD*%
D15*
%TO.C,C37*%
X144550100Y-187103600D03*
X147852100Y-187103600D03*
%TD*%
D12*
%TO.C,C74*%
X148309700Y-207003600D03*
X150392500Y-207003600D03*
%TD*%
D15*
%TO.C,C72*%
X133398294Y-192979913D03*
X136700294Y-192979913D03*
%TD*%
D17*
%TO.C,L11*%
X164801100Y-193540000D03*
X164801100Y-195267200D03*
%TD*%
D13*
%TO.C,C21*%
X140032694Y-188979913D03*
X138965894Y-188979913D03*
%TD*%
D11*
%TO.C,C56*%
X144374294Y-192196513D03*
X144374294Y-193263313D03*
%TD*%
%TO.C,C3*%
X162501100Y-198587000D03*
X162501100Y-197520200D03*
%TD*%
D13*
%TO.C,C84*%
X132617700Y-225603600D03*
X133684500Y-225603600D03*
%TD*%
D15*
%TO.C,C91*%
X165400100Y-204803600D03*
X168702100Y-204803600D03*
%TD*%
D11*
%TO.C,R58*%
X149951100Y-202070200D03*
X149951100Y-203137000D03*
%TD*%
D13*
%TO.C,C53*%
X159434500Y-205153600D03*
X158367700Y-205153600D03*
%TD*%
%TO.C,R63*%
X145983400Y-228400000D03*
X144916600Y-228400000D03*
%TD*%
%TO.C,C115*%
X144917700Y-232103600D03*
X145984500Y-232103600D03*
%TD*%
%TO.C,C51*%
X139984500Y-191203600D03*
X138917700Y-191203600D03*
%TD*%
%TO.C,R82*%
X145983400Y-229600000D03*
X144916600Y-229600000D03*
%TD*%
D11*
%TO.C,C23*%
X133051100Y-202370200D03*
X133051100Y-203437000D03*
%TD*%
D15*
%TO.C,C71*%
X172302100Y-196553600D03*
X169000100Y-196553600D03*
%TD*%
D16*
%TO.C,C64*%
X167051100Y-193812200D03*
X167051100Y-195895000D03*
%TD*%
D13*
%TO.C,C41*%
X165767700Y-201603600D03*
X166834500Y-201603600D03*
%TD*%
D18*
%TO.C,C2*%
X142801100Y-178852600D03*
X142801100Y-182154600D03*
%TD*%
D11*
%TO.C,C17*%
X123251100Y-218337000D03*
X123251100Y-217270200D03*
%TD*%
D19*
%TO.C,C136*%
X178251100Y-189128600D03*
X178251100Y-185678600D03*
%TD*%
D11*
%TO.C,C60*%
X165301100Y-197837000D03*
X165301100Y-196770200D03*
%TD*%
D13*
%TO.C,R64*%
X145984500Y-233403600D03*
X144917700Y-233403600D03*
%TD*%
D11*
%TO.C,R65*%
X149351100Y-233237000D03*
X149351100Y-232170200D03*
%TD*%
D13*
%TO.C,C65*%
X140030894Y-190078594D03*
X138964094Y-190078594D03*
%TD*%
%TO.C,C24*%
X159534500Y-200553600D03*
X158467700Y-200553600D03*
%TD*%
D20*
%TO.C,S3*%
X182586100Y-210113600D03*
X181316100Y-210113600D03*
X181316100Y-202493600D03*
X182586100Y-202493600D03*
%TD*%
D11*
%TO.C,C28*%
X148351100Y-239370200D03*
X148351100Y-240437000D03*
%TD*%
%TO.C,R26*%
X141251100Y-245037000D03*
X141251100Y-243970200D03*
%TD*%
D18*
%TO.C,C1*%
X162201100Y-191802600D03*
X162201100Y-195104600D03*
%TD*%
D11*
%TO.C,C25*%
X141774788Y-186035194D03*
X141774788Y-184968394D03*
%TD*%
%TO.C,C47*%
X141077907Y-192043888D03*
X141077907Y-193110688D03*
%TD*%
D13*
%TO.C,R81*%
X158117700Y-234803600D03*
X159184500Y-234803600D03*
%TD*%
D18*
%TO.C,C106*%
X152351100Y-187502600D03*
X152351100Y-190804600D03*
%TD*%
D11*
%TO.C,C138*%
X174651100Y-186670200D03*
X174651100Y-187737000D03*
%TD*%
D16*
%TO.C,C95*%
X142051100Y-236345000D03*
X142051100Y-234262200D03*
%TD*%
D13*
%TO.C,C63*%
X159534500Y-202803600D03*
X158467700Y-202803600D03*
%TD*%
D11*
%TO.C,C100*%
X142851100Y-230970200D03*
X142851100Y-232037000D03*
%TD*%
D21*
%TO.C,S1*%
X157631100Y-209053600D03*
X152551100Y-209053600D03*
%TD*%
D22*
%TO.C,U22*%
X184776100Y-197328600D03*
X184776100Y-197978600D03*
X184776100Y-198628600D03*
X184776100Y-199278600D03*
X178926100Y-199278600D03*
X178926100Y-198628600D03*
X178926100Y-197978600D03*
X178926100Y-197328600D03*
%TD*%
D16*
%TO.C,C62*%
X138651100Y-236345000D03*
X138651100Y-234262200D03*
%TD*%
D11*
%TO.C,C111*%
X170851100Y-182037000D03*
X170851100Y-180970200D03*
%TD*%
D13*
%TO.C,C50*%
X159434500Y-204003600D03*
X158367700Y-204003600D03*
%TD*%
%TO.C,C114*%
X148984500Y-228403600D03*
X147917700Y-228403600D03*
%TD*%
D16*
%TO.C,C40*%
X162151100Y-204062200D03*
X162151100Y-206145000D03*
%TD*%
D23*
%TO.C,U24*%
X156451100Y-190203600D03*
X155951100Y-190203600D03*
X155451100Y-190203600D03*
X154951100Y-190203600D03*
X154951100Y-188303600D03*
X155451100Y-188303600D03*
X155951100Y-188303600D03*
X156451100Y-188303600D03*
%TD*%
D11*
%TO.C,C132*%
X179051100Y-194970200D03*
X179051100Y-196037000D03*
%TD*%
D24*
%TO.C,U14*%
X136301100Y-232053600D03*
X136301100Y-231103600D03*
X136301100Y-230153600D03*
X139001100Y-230153600D03*
X139001100Y-232053600D03*
%TD*%
D11*
%TO.C,R27*%
X147051100Y-245437000D03*
X147051100Y-244370200D03*
%TD*%
D13*
%TO.C,R44*%
X167917700Y-218903600D03*
X168984500Y-218903600D03*
%TD*%
D15*
%TO.C,C92*%
X146000100Y-192453600D03*
X149302100Y-192453600D03*
%TD*%
%TO.C,C34*%
X165302100Y-208253600D03*
X162000100Y-208253600D03*
%TD*%
D11*
%TO.C,C55*%
X163801100Y-205020200D03*
X163801100Y-206087000D03*
%TD*%
D25*
%TO.C,C93*%
X143128271Y-218080771D03*
X142373929Y-217326429D03*
%TD*%
D26*
%TO.C,C103*%
X138614719Y-216739981D03*
X140087481Y-215267219D03*
%TD*%
D11*
%TO.C,C20*%
X161251100Y-198587000D03*
X161251100Y-197520200D03*
%TD*%
D13*
%TO.C,C57*%
X159534500Y-198303600D03*
X158467700Y-198303600D03*
%TD*%
D11*
%TO.C,R79*%
X179151100Y-202137000D03*
X179151100Y-201070200D03*
%TD*%
D19*
%TO.C,C133*%
X183951100Y-187328600D03*
X183951100Y-183878600D03*
%TD*%
D13*
%TO.C,C90*%
X132517700Y-230103600D03*
X133584500Y-230103600D03*
%TD*%
%TO.C,C33*%
X145484500Y-242303600D03*
X144417700Y-242303600D03*
%TD*%
D11*
%TO.C,R25*%
X141251100Y-241470200D03*
X141251100Y-242537000D03*
%TD*%
D13*
%TO.C,R42*%
X168984500Y-215603600D03*
X167917700Y-215603600D03*
%TD*%
D12*
%TO.C,C117*%
X149492500Y-230103600D03*
X147409700Y-230103600D03*
%TD*%
D11*
%TO.C,C135*%
X183585900Y-193870400D03*
X183585900Y-192803600D03*
%TD*%
D15*
%TO.C,C118*%
X158802100Y-186403600D03*
X155500100Y-186403600D03*
%TD*%
D13*
%TO.C,C49*%
X139984500Y-192353600D03*
X138917700Y-192353600D03*
%TD*%
%TO.C,R48*%
X141917700Y-219503600D03*
X142984500Y-219503600D03*
%TD*%
D11*
%TO.C,R40*%
X168951100Y-198470200D03*
X168951100Y-199537000D03*
%TD*%
D27*
%TO.C,C96*%
X145387481Y-214867219D03*
X143914719Y-216339981D03*
%TD*%
D15*
%TO.C,C70*%
X152850100Y-205803600D03*
X156152100Y-205803600D03*
%TD*%
D16*
%TO.C,C113*%
X168351100Y-183045000D03*
X168351100Y-180962200D03*
%TD*%
D11*
%TO.C,C19*%
X125151100Y-232437000D03*
X125151100Y-231370200D03*
%TD*%
D21*
%TO.C,S2*%
X138531100Y-197203600D03*
X133451100Y-197203600D03*
%TD*%
D11*
%TO.C,C7*%
X129551100Y-218537000D03*
X129551100Y-217470200D03*
%TD*%
D16*
%TO.C,C77*%
X138351100Y-219062200D03*
X138351100Y-221145000D03*
%TD*%
D28*
%TO.C,L13*%
X154704100Y-192503600D03*
X157498100Y-192503600D03*
%TD*%
D13*
%TO.C,C48*%
X159534500Y-199403600D03*
X158467700Y-199403600D03*
%TD*%
D11*
%TO.C,C137*%
X173451100Y-186670200D03*
X173451100Y-187737000D03*
%TD*%
%TO.C,C46*%
X160551100Y-204820200D03*
X160551100Y-205887000D03*
%TD*%
D13*
%TO.C,C87*%
X146467700Y-190253600D03*
X147534500Y-190253600D03*
%TD*%
%TO.C,R45*%
X167917700Y-216703600D03*
X168984500Y-216703600D03*
%TD*%
D12*
%TO.C,C109*%
X149392500Y-226703600D03*
X147309700Y-226703600D03*
%TD*%
D29*
%TO.C,C99*%
X143428271Y-212626429D03*
X142673929Y-213380771D03*
%TD*%
D13*
%TO.C,L14*%
X144217700Y-224703600D03*
X145284500Y-224703600D03*
%TD*%
%TO.C,C58*%
X140034500Y-185653600D03*
X138967700Y-185653600D03*
%TD*%
D30*
%TO.C,L9*%
X154087500Y-203703600D03*
X155814700Y-203703600D03*
%TD*%
D11*
%TO.C,C4*%
X143051100Y-186037000D03*
X143051100Y-184970200D03*
%TD*%
D17*
%TO.C,L3*%
X159751100Y-193490000D03*
X159751100Y-195217200D03*
%TD*%
D13*
%TO.C,R47*%
X167917700Y-214503600D03*
X168984500Y-214503600D03*
%TD*%
D12*
%TO.C,C66*%
X150132013Y-183998113D03*
X148049213Y-183998113D03*
%TD*%
D18*
%TO.C,C81*%
X140951100Y-230454600D03*
X140951100Y-227152600D03*
%TD*%
D30*
%TO.C,L10*%
X134760694Y-190929913D03*
X136487894Y-190929913D03*
%TD*%
D12*
%TO.C,C101*%
X141792500Y-223103600D03*
X139709700Y-223103600D03*
%TD*%
D13*
%TO.C,C11*%
X159534500Y-201653600D03*
X158467700Y-201653600D03*
%TD*%
D17*
%TO.C,L12*%
X145451100Y-181040000D03*
X145451100Y-182767200D03*
%TD*%
D15*
%TO.C,C73*%
X151302100Y-181403600D03*
X148000100Y-181403600D03*
%TD*%
%TO.C,C36*%
X145602100Y-195903600D03*
X142300100Y-195903600D03*
%TD*%
D11*
%TO.C,R78*%
X184751100Y-202137000D03*
X184751100Y-201070200D03*
%TD*%
D17*
%TO.C,L4*%
X139926094Y-180592632D03*
X139926094Y-182319832D03*
%TD*%
D12*
%TO.C,C69*%
X132109700Y-223603600D03*
X134192500Y-223603600D03*
%TD*%
D13*
%TO.C,R41*%
X167917700Y-213403600D03*
X168984500Y-213403600D03*
%TD*%
%TO.C,C86*%
X165767700Y-202853600D03*
X166834500Y-202853600D03*
%TD*%
D11*
%TO.C,C9*%
X127251100Y-232437000D03*
X127251100Y-231370200D03*
%TD*%
%TO.C,C85*%
X140351100Y-235937000D03*
X140351100Y-234870200D03*
%TD*%
D13*
%TO.C,R69*%
X170017700Y-183303600D03*
X171084500Y-183303600D03*
%TD*%
D11*
%TO.C,R57*%
X148551100Y-202070200D03*
X148551100Y-203137000D03*
%TD*%
D13*
%TO.C,R43*%
X150384500Y-185903600D03*
X149317700Y-185903600D03*
%TD*%
D14*
%TO.C,C108*%
X137387481Y-213739981D03*
X135914719Y-212267219D03*
%TD*%
D11*
%TO.C,C22*%
X146451100Y-202170200D03*
X146451100Y-203237000D03*
%TD*%
D13*
%TO.C,C29*%
X145484500Y-241103600D03*
X144417700Y-241103600D03*
%TD*%
%TO.C,C89*%
X149784500Y-204603600D03*
X148717700Y-204603600D03*
%TD*%
%TO.C,R59*%
X141484500Y-232103600D03*
X140417700Y-232103600D03*
%TD*%
D11*
%TO.C,C134*%
X182316300Y-190836800D03*
X182316300Y-191903600D03*
%TD*%
%TO.C,C83*%
X139951100Y-219570200D03*
X139951100Y-220637000D03*
%TD*%
D13*
%TO.C,C54*%
X140034500Y-186753600D03*
X138967700Y-186753600D03*
%TD*%
M02*
