%TF.GenerationSoftware,KiCad,Pcbnew,10.0.1*%
%TF.CreationDate,2026-08-11T12:59:20-04:00*%
%TF.ProjectId,fmc-host,666d632d-686f-4737-942e-6b696361645f,rev?*%
%TF.SameCoordinates,Original*%
%TF.FileFunction,Drillmap*%
%TF.FilePolarity,Positive*%
%FSLAX45Y45*%
G04 Gerber Fmt 4.5, Leading zero omitted, Abs format (unit mm)*
G04 Created by KiCad (PCBNEW 10.0.1) date 2026-08-11 12:59:20*
%MOMM*%
%LPD*%
G01*
G04 APERTURE LIST*
%ADD10C,0.200000*%
%ADD11C,0.127000*%
%ADD12C,0.132080*%
%ADD13C,0.180000*%
%ADD14C,0.230000*%
G04 APERTURE END LIST*
D10*
X11025110Y6489640D02*
X11025110Y-27490360D01*
D11*
X11025110Y3989640D02*
X11025110Y-2140360D01*
X11025110Y-2140360D02*
X13635110Y-2140360D01*
X11025110Y-3410360D02*
X11025110Y-9540360D01*
X11025110Y-9540360D02*
X13635110Y-9540360D01*
X11025110Y-10810360D02*
X11025110Y-16940360D01*
X11025110Y-16940360D02*
X13635110Y-16940360D01*
X12075110Y3989640D02*
X11025110Y3989640D01*
X12075110Y-3410360D02*
X11025110Y-3410360D01*
X12075110Y-10810360D02*
X11025110Y-10810360D01*
X12175110Y4199640D02*
X12175110Y4089640D01*
X12175110Y4089640D02*
G75*
G02*
X12075110Y3989640I-100000J0D01*
G01*
X12175110Y-3200360D02*
X12175110Y-3310360D01*
X12175110Y-3310360D02*
G75*
G02*
X12075110Y-3410360I-100000J0D01*
G01*
X12175110Y-10600360D02*
X12175110Y-10710360D01*
X12175110Y-10710360D02*
G75*
G02*
X12075110Y-10810360I-100000J0D01*
G01*
X13155110Y4199640D02*
X12175110Y4199640D01*
X13155110Y-3200360D02*
X12175110Y-3200360D01*
X13155110Y-10600360D02*
X12175110Y-10600360D01*
X13255110Y4459640D02*
X13255110Y4299640D01*
X13255110Y4299640D02*
G75*
G02*
X13155110Y4199640I-100000J0D01*
G01*
X13255110Y-2940360D02*
X13255110Y-3100360D01*
X13255110Y-3100360D02*
G75*
G02*
X13155110Y-3200360I-100000J0D01*
G01*
X13255110Y-10340360D02*
X13255110Y-10500360D01*
X13255110Y-10500360D02*
G75*
G02*
X13155110Y-10600360I-100000J0D01*
G01*
X13635110Y-2140360D02*
G75*
G02*
X13735110Y-2240360I0J-100000D01*
G01*
X13635110Y-9540360D02*
G75*
G02*
X13735110Y-9640360I0J-100000D01*
G01*
X13635110Y-16940360D02*
G75*
G02*
X13735110Y-17040360I0J-100000D01*
G01*
X13735110Y-2240360D02*
X13735110Y-2440360D01*
X13735110Y-2440360D02*
X18675110Y-2440360D01*
X13735110Y-9640360D02*
X13735110Y-9840360D01*
X13735110Y-9840360D02*
X18675110Y-9840360D01*
X13735110Y-17040360D02*
X13735110Y-17240360D01*
X13735110Y-17240360D02*
X18675110Y-17240360D01*
D10*
X18675110Y6359640D02*
X18675110Y-27420360D01*
D11*
X18675110Y4459640D02*
X13255110Y4459640D01*
X18675110Y-2440360D02*
X18675110Y4459640D01*
X18675110Y-2940360D02*
X13255110Y-2940360D01*
X18675110Y-9840360D02*
X18675110Y-2940360D01*
X18675110Y-10340360D02*
X13255110Y-10340360D01*
X18675110Y-17240360D02*
X18675110Y-10340360D01*
X11025110Y-18210360D02*
X11025110Y-24340360D01*
X11025110Y-24340360D02*
X13635110Y-24340360D01*
X12075110Y-18210360D02*
X11025110Y-18210360D01*
X12175110Y-18000360D02*
X12175110Y-18110360D01*
X13155110Y-18000360D02*
X12175110Y-18000360D01*
X13255110Y-17740360D02*
X13255110Y-17900360D01*
X13735110Y-24440360D02*
X13735110Y-24640360D01*
X13735110Y-24640360D02*
X18675110Y-24640360D01*
X18675110Y-17740360D02*
X13255110Y-17740360D01*
X18675110Y-24640360D02*
X18675110Y-17740360D01*
X12175110Y-18110360D02*
G75*
G02*
X12075110Y-18210360I-100000J0D01*
G01*
X13255110Y-17900360D02*
G75*
G02*
X13155110Y-18000360I-100000J0D01*
G01*
X13635110Y-24340360D02*
G75*
G02*
X13735110Y-24440360I0J-100000D01*
G01*
D10*
D12*
X17414070Y-18405250D02*
X17546150Y-18537330D01*
X17546150Y-18405250D02*
X17414070Y-18537330D01*
X17719070Y-23840850D02*
X17851150Y-23972930D01*
X17851150Y-23840850D02*
X17719070Y-23972930D01*
D13*
X11585110Y-21690360D02*
G75*
G02*
X11405110Y-21690360I-90000J0D01*
G01*
X11405110Y-21690360D02*
G75*
G02*
X11585110Y-21690360I90000J0D01*
G01*
X11585110Y-23090360D02*
G75*
G02*
X11405110Y-23090360I-90000J0D01*
G01*
X11405110Y-23090360D02*
G75*
G02*
X11585110Y-23090360I90000J0D01*
G01*
D14*
X11745110Y-21315360D02*
X11745110Y-21545360D01*
X11630110Y-21430360D02*
X11860110Y-21430360D01*
X11745110Y-23235360D02*
X11745110Y-23465360D01*
X11630110Y-23350360D02*
X11860110Y-23350360D01*
D10*
X11275887Y-27811844D02*
X11275887Y-27611844D01*
X11275887Y-27611844D02*
X11323506Y-27611844D01*
X11323506Y-27611844D02*
X11352077Y-27621368D01*
X11352077Y-27621368D02*
X11371125Y-27640415D01*
X11371125Y-27640415D02*
X11380649Y-27659463D01*
X11380649Y-27659463D02*
X11390172Y-27697558D01*
X11390172Y-27697558D02*
X11390172Y-27726129D01*
X11390172Y-27726129D02*
X11380649Y-27764225D01*
X11380649Y-27764225D02*
X11371125Y-27783272D01*
X11371125Y-27783272D02*
X11352077Y-27802320D01*
X11352077Y-27802320D02*
X11323506Y-27811844D01*
X11323506Y-27811844D02*
X11275887Y-27811844D01*
X11475887Y-27811844D02*
X11475887Y-27678510D01*
X11475887Y-27716606D02*
X11485411Y-27697558D01*
X11485411Y-27697558D02*
X11494934Y-27688034D01*
X11494934Y-27688034D02*
X11513982Y-27678510D01*
X11513982Y-27678510D02*
X11533030Y-27678510D01*
X11599696Y-27811844D02*
X11599696Y-27678510D01*
X11599696Y-27611844D02*
X11590172Y-27621368D01*
X11590172Y-27621368D02*
X11599696Y-27630891D01*
X11599696Y-27630891D02*
X11609220Y-27621368D01*
X11609220Y-27621368D02*
X11599696Y-27611844D01*
X11599696Y-27611844D02*
X11599696Y-27630891D01*
X11723506Y-27811844D02*
X11704458Y-27802320D01*
X11704458Y-27802320D02*
X11694934Y-27783272D01*
X11694934Y-27783272D02*
X11694934Y-27611844D01*
X11828268Y-27811844D02*
X11809220Y-27802320D01*
X11809220Y-27802320D02*
X11799696Y-27783272D01*
X11799696Y-27783272D02*
X11799696Y-27611844D01*
X12056839Y-27811844D02*
X12056839Y-27611844D01*
X12056839Y-27611844D02*
X12123506Y-27754701D01*
X12123506Y-27754701D02*
X12190172Y-27611844D01*
X12190172Y-27611844D02*
X12190172Y-27811844D01*
X12371125Y-27811844D02*
X12371125Y-27707082D01*
X12371125Y-27707082D02*
X12361601Y-27688034D01*
X12361601Y-27688034D02*
X12342553Y-27678510D01*
X12342553Y-27678510D02*
X12304458Y-27678510D01*
X12304458Y-27678510D02*
X12285411Y-27688034D01*
X12371125Y-27802320D02*
X12352077Y-27811844D01*
X12352077Y-27811844D02*
X12304458Y-27811844D01*
X12304458Y-27811844D02*
X12285411Y-27802320D01*
X12285411Y-27802320D02*
X12275887Y-27783272D01*
X12275887Y-27783272D02*
X12275887Y-27764225D01*
X12275887Y-27764225D02*
X12285411Y-27745177D01*
X12285411Y-27745177D02*
X12304458Y-27735653D01*
X12304458Y-27735653D02*
X12352077Y-27735653D01*
X12352077Y-27735653D02*
X12371125Y-27726129D01*
X12466363Y-27678510D02*
X12466363Y-27878510D01*
X12466363Y-27688034D02*
X12485411Y-27678510D01*
X12485411Y-27678510D02*
X12523506Y-27678510D01*
X12523506Y-27678510D02*
X12542553Y-27688034D01*
X12542553Y-27688034D02*
X12552077Y-27697558D01*
X12552077Y-27697558D02*
X12561601Y-27716606D01*
X12561601Y-27716606D02*
X12561601Y-27773748D01*
X12561601Y-27773748D02*
X12552077Y-27792796D01*
X12552077Y-27792796D02*
X12542553Y-27802320D01*
X12542553Y-27802320D02*
X12523506Y-27811844D01*
X12523506Y-27811844D02*
X12485411Y-27811844D01*
X12485411Y-27811844D02*
X12466363Y-27802320D01*
X12647315Y-27792796D02*
X12656839Y-27802320D01*
X12656839Y-27802320D02*
X12647315Y-27811844D01*
X12647315Y-27811844D02*
X12637792Y-27802320D01*
X12637792Y-27802320D02*
X12647315Y-27792796D01*
X12647315Y-27792796D02*
X12647315Y-27811844D01*
X12647315Y-27688034D02*
X12656839Y-27697558D01*
X12656839Y-27697558D02*
X12647315Y-27707082D01*
X12647315Y-27707082D02*
X12637792Y-27697558D01*
X12637792Y-27697558D02*
X12647315Y-27688034D01*
X12647315Y-27688034D02*
X12647315Y-27707082D01*
D12*
X10883030Y-28074320D02*
X11015110Y-28206400D01*
X11015110Y-28074320D02*
X10883030Y-28206400D01*
D10*
X11380649Y-28231844D02*
X11266363Y-28231844D01*
X11323506Y-28231844D02*
X11323506Y-28031844D01*
X11323506Y-28031844D02*
X11304458Y-28060415D01*
X11304458Y-28060415D02*
X11285411Y-28079463D01*
X11285411Y-28079463D02*
X11266363Y-28088987D01*
X11466363Y-28212796D02*
X11475887Y-28222320D01*
X11475887Y-28222320D02*
X11466363Y-28231844D01*
X11466363Y-28231844D02*
X11456839Y-28222320D01*
X11456839Y-28222320D02*
X11466363Y-28212796D01*
X11466363Y-28212796D02*
X11466363Y-28231844D01*
X11542553Y-28031844D02*
X11666363Y-28031844D01*
X11666363Y-28031844D02*
X11599696Y-28108034D01*
X11599696Y-28108034D02*
X11628268Y-28108034D01*
X11628268Y-28108034D02*
X11647315Y-28117558D01*
X11647315Y-28117558D02*
X11656839Y-28127082D01*
X11656839Y-28127082D02*
X11666363Y-28146129D01*
X11666363Y-28146129D02*
X11666363Y-28193748D01*
X11666363Y-28193748D02*
X11656839Y-28212796D01*
X11656839Y-28212796D02*
X11647315Y-28222320D01*
X11647315Y-28222320D02*
X11628268Y-28231844D01*
X11628268Y-28231844D02*
X11571125Y-28231844D01*
X11571125Y-28231844D02*
X11552077Y-28222320D01*
X11552077Y-28222320D02*
X11542553Y-28212796D01*
X11742553Y-28050891D02*
X11752077Y-28041368D01*
X11752077Y-28041368D02*
X11771125Y-28031844D01*
X11771125Y-28031844D02*
X11818744Y-28031844D01*
X11818744Y-28031844D02*
X11837792Y-28041368D01*
X11837792Y-28041368D02*
X11847315Y-28050891D01*
X11847315Y-28050891D02*
X11856839Y-28069939D01*
X11856839Y-28069939D02*
X11856839Y-28088987D01*
X11856839Y-28088987D02*
X11847315Y-28117558D01*
X11847315Y-28117558D02*
X11733030Y-28231844D01*
X11733030Y-28231844D02*
X11856839Y-28231844D01*
X12047315Y-28231844D02*
X11933030Y-28231844D01*
X11990172Y-28231844D02*
X11990172Y-28031844D01*
X11990172Y-28031844D02*
X11971125Y-28060415D01*
X11971125Y-28060415D02*
X11952077Y-28079463D01*
X11952077Y-28079463D02*
X11933030Y-28088987D01*
X12133030Y-28231844D02*
X12133030Y-28098510D01*
X12133030Y-28117558D02*
X12142553Y-28108034D01*
X12142553Y-28108034D02*
X12161601Y-28098510D01*
X12161601Y-28098510D02*
X12190173Y-28098510D01*
X12190173Y-28098510D02*
X12209220Y-28108034D01*
X12209220Y-28108034D02*
X12218744Y-28127082D01*
X12218744Y-28127082D02*
X12218744Y-28231844D01*
X12218744Y-28127082D02*
X12228268Y-28108034D01*
X12228268Y-28108034D02*
X12247315Y-28098510D01*
X12247315Y-28098510D02*
X12275887Y-28098510D01*
X12275887Y-28098510D02*
X12294934Y-28108034D01*
X12294934Y-28108034D02*
X12304458Y-28127082D01*
X12304458Y-28127082D02*
X12304458Y-28231844D01*
X12399696Y-28231844D02*
X12399696Y-28098510D01*
X12399696Y-28117558D02*
X12409220Y-28108034D01*
X12409220Y-28108034D02*
X12428268Y-28098510D01*
X12428268Y-28098510D02*
X12456839Y-28098510D01*
X12456839Y-28098510D02*
X12475887Y-28108034D01*
X12475887Y-28108034D02*
X12485411Y-28127082D01*
X12485411Y-28127082D02*
X12485411Y-28231844D01*
X12485411Y-28127082D02*
X12494934Y-28108034D01*
X12494934Y-28108034D02*
X12513982Y-28098510D01*
X12513982Y-28098510D02*
X12542553Y-28098510D01*
X12542553Y-28098510D02*
X12561601Y-28108034D01*
X12561601Y-28108034D02*
X12571125Y-28127082D01*
X12571125Y-28127082D02*
X12571125Y-28231844D01*
X12961601Y-28022320D02*
X12790173Y-28279463D01*
X13218744Y-28031844D02*
X13237792Y-28031844D01*
X13237792Y-28031844D02*
X13256839Y-28041368D01*
X13256839Y-28041368D02*
X13266363Y-28050891D01*
X13266363Y-28050891D02*
X13275887Y-28069939D01*
X13275887Y-28069939D02*
X13285411Y-28108034D01*
X13285411Y-28108034D02*
X13285411Y-28155653D01*
X13285411Y-28155653D02*
X13275887Y-28193748D01*
X13275887Y-28193748D02*
X13266363Y-28212796D01*
X13266363Y-28212796D02*
X13256839Y-28222320D01*
X13256839Y-28222320D02*
X13237792Y-28231844D01*
X13237792Y-28231844D02*
X13218744Y-28231844D01*
X13218744Y-28231844D02*
X13199696Y-28222320D01*
X13199696Y-28222320D02*
X13190173Y-28212796D01*
X13190173Y-28212796D02*
X13180649Y-28193748D01*
X13180649Y-28193748D02*
X13171125Y-28155653D01*
X13171125Y-28155653D02*
X13171125Y-28108034D01*
X13171125Y-28108034D02*
X13180649Y-28069939D01*
X13180649Y-28069939D02*
X13190173Y-28050891D01*
X13190173Y-28050891D02*
X13199696Y-28041368D01*
X13199696Y-28041368D02*
X13218744Y-28031844D01*
X13371125Y-28212796D02*
X13380649Y-28222320D01*
X13380649Y-28222320D02*
X13371125Y-28231844D01*
X13371125Y-28231844D02*
X13361601Y-28222320D01*
X13361601Y-28222320D02*
X13371125Y-28212796D01*
X13371125Y-28212796D02*
X13371125Y-28231844D01*
X13504458Y-28031844D02*
X13523506Y-28031844D01*
X13523506Y-28031844D02*
X13542554Y-28041368D01*
X13542554Y-28041368D02*
X13552077Y-28050891D01*
X13552077Y-28050891D02*
X13561601Y-28069939D01*
X13561601Y-28069939D02*
X13571125Y-28108034D01*
X13571125Y-28108034D02*
X13571125Y-28155653D01*
X13571125Y-28155653D02*
X13561601Y-28193748D01*
X13561601Y-28193748D02*
X13552077Y-28212796D01*
X13552077Y-28212796D02*
X13542554Y-28222320D01*
X13542554Y-28222320D02*
X13523506Y-28231844D01*
X13523506Y-28231844D02*
X13504458Y-28231844D01*
X13504458Y-28231844D02*
X13485411Y-28222320D01*
X13485411Y-28222320D02*
X13475887Y-28212796D01*
X13475887Y-28212796D02*
X13466363Y-28193748D01*
X13466363Y-28193748D02*
X13456839Y-28155653D01*
X13456839Y-28155653D02*
X13456839Y-28108034D01*
X13456839Y-28108034D02*
X13466363Y-28069939D01*
X13466363Y-28069939D02*
X13475887Y-28050891D01*
X13475887Y-28050891D02*
X13485411Y-28041368D01*
X13485411Y-28041368D02*
X13504458Y-28031844D01*
X13752077Y-28031844D02*
X13656839Y-28031844D01*
X13656839Y-28031844D02*
X13647316Y-28127082D01*
X13647316Y-28127082D02*
X13656839Y-28117558D01*
X13656839Y-28117558D02*
X13675887Y-28108034D01*
X13675887Y-28108034D02*
X13723506Y-28108034D01*
X13723506Y-28108034D02*
X13742554Y-28117558D01*
X13742554Y-28117558D02*
X13752077Y-28127082D01*
X13752077Y-28127082D02*
X13761601Y-28146129D01*
X13761601Y-28146129D02*
X13761601Y-28193748D01*
X13761601Y-28193748D02*
X13752077Y-28212796D01*
X13752077Y-28212796D02*
X13742554Y-28222320D01*
X13742554Y-28222320D02*
X13723506Y-28231844D01*
X13723506Y-28231844D02*
X13675887Y-28231844D01*
X13675887Y-28231844D02*
X13656839Y-28222320D01*
X13656839Y-28222320D02*
X13647316Y-28212796D01*
X13837792Y-28050891D02*
X13847316Y-28041368D01*
X13847316Y-28041368D02*
X13866363Y-28031844D01*
X13866363Y-28031844D02*
X13913982Y-28031844D01*
X13913982Y-28031844D02*
X13933030Y-28041368D01*
X13933030Y-28041368D02*
X13942554Y-28050891D01*
X13942554Y-28050891D02*
X13952077Y-28069939D01*
X13952077Y-28069939D02*
X13952077Y-28088987D01*
X13952077Y-28088987D02*
X13942554Y-28117558D01*
X13942554Y-28117558D02*
X13828268Y-28231844D01*
X13828268Y-28231844D02*
X13952077Y-28231844D01*
X14075887Y-28031844D02*
X14094935Y-28031844D01*
X14094935Y-28031844D02*
X14113982Y-28041368D01*
X14113982Y-28041368D02*
X14123506Y-28050891D01*
X14123506Y-28050891D02*
X14133030Y-28069939D01*
X14133030Y-28069939D02*
X14142554Y-28108034D01*
X14142554Y-28108034D02*
X14142554Y-28155653D01*
X14142554Y-28155653D02*
X14133030Y-28193748D01*
X14133030Y-28193748D02*
X14123506Y-28212796D01*
X14123506Y-28212796D02*
X14113982Y-28222320D01*
X14113982Y-28222320D02*
X14094935Y-28231844D01*
X14094935Y-28231844D02*
X14075887Y-28231844D01*
X14075887Y-28231844D02*
X14056839Y-28222320D01*
X14056839Y-28222320D02*
X14047316Y-28212796D01*
X14047316Y-28212796D02*
X14037792Y-28193748D01*
X14037792Y-28193748D02*
X14028268Y-28155653D01*
X14028268Y-28155653D02*
X14028268Y-28108034D01*
X14028268Y-28108034D02*
X14037792Y-28069939D01*
X14037792Y-28069939D02*
X14047316Y-28050891D01*
X14047316Y-28050891D02*
X14056839Y-28041368D01*
X14056839Y-28041368D02*
X14075887Y-28031844D01*
X14218744Y-28031844D02*
X14218744Y-28069939D01*
X14294935Y-28031844D02*
X14294935Y-28069939D01*
X14590173Y-28308034D02*
X14580649Y-28298510D01*
X14580649Y-28298510D02*
X14561601Y-28269939D01*
X14561601Y-28269939D02*
X14552078Y-28250891D01*
X14552078Y-28250891D02*
X14542554Y-28222320D01*
X14542554Y-28222320D02*
X14533030Y-28174701D01*
X14533030Y-28174701D02*
X14533030Y-28136606D01*
X14533030Y-28136606D02*
X14542554Y-28088987D01*
X14542554Y-28088987D02*
X14552078Y-28060415D01*
X14552078Y-28060415D02*
X14561601Y-28041368D01*
X14561601Y-28041368D02*
X14580649Y-28012796D01*
X14580649Y-28012796D02*
X14590173Y-28003272D01*
X14656839Y-28050891D02*
X14666363Y-28041368D01*
X14666363Y-28041368D02*
X14685411Y-28031844D01*
X14685411Y-28031844D02*
X14733030Y-28031844D01*
X14733030Y-28031844D02*
X14752078Y-28041368D01*
X14752078Y-28041368D02*
X14761601Y-28050891D01*
X14761601Y-28050891D02*
X14771125Y-28069939D01*
X14771125Y-28069939D02*
X14771125Y-28088987D01*
X14771125Y-28088987D02*
X14761601Y-28117558D01*
X14761601Y-28117558D02*
X14647316Y-28231844D01*
X14647316Y-28231844D02*
X14771125Y-28231844D01*
X15009220Y-28231844D02*
X15009220Y-28031844D01*
X15094935Y-28231844D02*
X15094935Y-28127082D01*
X15094935Y-28127082D02*
X15085411Y-28108034D01*
X15085411Y-28108034D02*
X15066363Y-28098510D01*
X15066363Y-28098510D02*
X15037792Y-28098510D01*
X15037792Y-28098510D02*
X15018744Y-28108034D01*
X15018744Y-28108034D02*
X15009220Y-28117558D01*
X15218744Y-28231844D02*
X15199697Y-28222320D01*
X15199697Y-28222320D02*
X15190173Y-28212796D01*
X15190173Y-28212796D02*
X15180649Y-28193748D01*
X15180649Y-28193748D02*
X15180649Y-28136606D01*
X15180649Y-28136606D02*
X15190173Y-28117558D01*
X15190173Y-28117558D02*
X15199697Y-28108034D01*
X15199697Y-28108034D02*
X15218744Y-28098510D01*
X15218744Y-28098510D02*
X15247316Y-28098510D01*
X15247316Y-28098510D02*
X15266363Y-28108034D01*
X15266363Y-28108034D02*
X15275887Y-28117558D01*
X15275887Y-28117558D02*
X15285411Y-28136606D01*
X15285411Y-28136606D02*
X15285411Y-28193748D01*
X15285411Y-28193748D02*
X15275887Y-28212796D01*
X15275887Y-28212796D02*
X15266363Y-28222320D01*
X15266363Y-28222320D02*
X15247316Y-28231844D01*
X15247316Y-28231844D02*
X15218744Y-28231844D01*
X15399697Y-28231844D02*
X15380649Y-28222320D01*
X15380649Y-28222320D02*
X15371125Y-28203272D01*
X15371125Y-28203272D02*
X15371125Y-28031844D01*
X15552078Y-28222320D02*
X15533030Y-28231844D01*
X15533030Y-28231844D02*
X15494935Y-28231844D01*
X15494935Y-28231844D02*
X15475887Y-28222320D01*
X15475887Y-28222320D02*
X15466363Y-28203272D01*
X15466363Y-28203272D02*
X15466363Y-28127082D01*
X15466363Y-28127082D02*
X15475887Y-28108034D01*
X15475887Y-28108034D02*
X15494935Y-28098510D01*
X15494935Y-28098510D02*
X15533030Y-28098510D01*
X15533030Y-28098510D02*
X15552078Y-28108034D01*
X15552078Y-28108034D02*
X15561601Y-28127082D01*
X15561601Y-28127082D02*
X15561601Y-28146129D01*
X15561601Y-28146129D02*
X15466363Y-28165177D01*
X15637792Y-28222320D02*
X15656840Y-28231844D01*
X15656840Y-28231844D02*
X15694935Y-28231844D01*
X15694935Y-28231844D02*
X15713982Y-28222320D01*
X15713982Y-28222320D02*
X15723506Y-28203272D01*
X15723506Y-28203272D02*
X15723506Y-28193748D01*
X15723506Y-28193748D02*
X15713982Y-28174701D01*
X15713982Y-28174701D02*
X15694935Y-28165177D01*
X15694935Y-28165177D02*
X15666363Y-28165177D01*
X15666363Y-28165177D02*
X15647316Y-28155653D01*
X15647316Y-28155653D02*
X15637792Y-28136606D01*
X15637792Y-28136606D02*
X15637792Y-28127082D01*
X15637792Y-28127082D02*
X15647316Y-28108034D01*
X15647316Y-28108034D02*
X15666363Y-28098510D01*
X15666363Y-28098510D02*
X15694935Y-28098510D01*
X15694935Y-28098510D02*
X15713982Y-28108034D01*
X15790173Y-28308034D02*
X15799697Y-28298510D01*
X15799697Y-28298510D02*
X15818744Y-28269939D01*
X15818744Y-28269939D02*
X15828268Y-28250891D01*
X15828268Y-28250891D02*
X15837792Y-28222320D01*
X15837792Y-28222320D02*
X15847316Y-28174701D01*
X15847316Y-28174701D02*
X15847316Y-28136606D01*
X15847316Y-28136606D02*
X15837792Y-28088987D01*
X15837792Y-28088987D02*
X15828268Y-28060415D01*
X15828268Y-28060415D02*
X15818744Y-28041368D01*
X15818744Y-28041368D02*
X15799697Y-28012796D01*
X15799697Y-28012796D02*
X15790173Y-28003272D01*
X16152078Y-28308034D02*
X16142554Y-28298510D01*
X16142554Y-28298510D02*
X16123506Y-28269939D01*
X16123506Y-28269939D02*
X16113982Y-28250891D01*
X16113982Y-28250891D02*
X16104459Y-28222320D01*
X16104459Y-28222320D02*
X16094935Y-28174701D01*
X16094935Y-28174701D02*
X16094935Y-28136606D01*
X16094935Y-28136606D02*
X16104459Y-28088987D01*
X16104459Y-28088987D02*
X16113982Y-28060415D01*
X16113982Y-28060415D02*
X16123506Y-28041368D01*
X16123506Y-28041368D02*
X16142554Y-28012796D01*
X16142554Y-28012796D02*
X16152078Y-28003272D01*
X16228268Y-28098510D02*
X16228268Y-28231844D01*
X16228268Y-28117558D02*
X16237792Y-28108034D01*
X16237792Y-28108034D02*
X16256840Y-28098510D01*
X16256840Y-28098510D02*
X16285411Y-28098510D01*
X16285411Y-28098510D02*
X16304459Y-28108034D01*
X16304459Y-28108034D02*
X16313982Y-28127082D01*
X16313982Y-28127082D02*
X16313982Y-28231844D01*
X16437792Y-28231844D02*
X16418744Y-28222320D01*
X16418744Y-28222320D02*
X16409221Y-28212796D01*
X16409221Y-28212796D02*
X16399697Y-28193748D01*
X16399697Y-28193748D02*
X16399697Y-28136606D01*
X16399697Y-28136606D02*
X16409221Y-28117558D01*
X16409221Y-28117558D02*
X16418744Y-28108034D01*
X16418744Y-28108034D02*
X16437792Y-28098510D01*
X16437792Y-28098510D02*
X16466363Y-28098510D01*
X16466363Y-28098510D02*
X16485411Y-28108034D01*
X16485411Y-28108034D02*
X16494935Y-28117558D01*
X16494935Y-28117558D02*
X16504459Y-28136606D01*
X16504459Y-28136606D02*
X16504459Y-28193748D01*
X16504459Y-28193748D02*
X16494935Y-28212796D01*
X16494935Y-28212796D02*
X16485411Y-28222320D01*
X16485411Y-28222320D02*
X16466363Y-28231844D01*
X16466363Y-28231844D02*
X16437792Y-28231844D01*
X16561602Y-28098510D02*
X16637792Y-28098510D01*
X16590173Y-28031844D02*
X16590173Y-28203272D01*
X16590173Y-28203272D02*
X16599697Y-28222320D01*
X16599697Y-28222320D02*
X16618744Y-28231844D01*
X16618744Y-28231844D02*
X16637792Y-28231844D01*
X16856840Y-28098510D02*
X16856840Y-28298510D01*
X16856840Y-28108034D02*
X16875887Y-28098510D01*
X16875887Y-28098510D02*
X16913983Y-28098510D01*
X16913983Y-28098510D02*
X16933030Y-28108034D01*
X16933030Y-28108034D02*
X16942554Y-28117558D01*
X16942554Y-28117558D02*
X16952078Y-28136606D01*
X16952078Y-28136606D02*
X16952078Y-28193748D01*
X16952078Y-28193748D02*
X16942554Y-28212796D01*
X16942554Y-28212796D02*
X16933030Y-28222320D01*
X16933030Y-28222320D02*
X16913983Y-28231844D01*
X16913983Y-28231844D02*
X16875887Y-28231844D01*
X16875887Y-28231844D02*
X16856840Y-28222320D01*
X17066364Y-28231844D02*
X17047316Y-28222320D01*
X17047316Y-28222320D02*
X17037792Y-28203272D01*
X17037792Y-28203272D02*
X17037792Y-28031844D01*
X17228268Y-28231844D02*
X17228268Y-28127082D01*
X17228268Y-28127082D02*
X17218745Y-28108034D01*
X17218745Y-28108034D02*
X17199697Y-28098510D01*
X17199697Y-28098510D02*
X17161602Y-28098510D01*
X17161602Y-28098510D02*
X17142554Y-28108034D01*
X17228268Y-28222320D02*
X17209221Y-28231844D01*
X17209221Y-28231844D02*
X17161602Y-28231844D01*
X17161602Y-28231844D02*
X17142554Y-28222320D01*
X17142554Y-28222320D02*
X17133030Y-28203272D01*
X17133030Y-28203272D02*
X17133030Y-28184225D01*
X17133030Y-28184225D02*
X17142554Y-28165177D01*
X17142554Y-28165177D02*
X17161602Y-28155653D01*
X17161602Y-28155653D02*
X17209221Y-28155653D01*
X17209221Y-28155653D02*
X17228268Y-28146129D01*
X17294935Y-28098510D02*
X17371125Y-28098510D01*
X17323506Y-28031844D02*
X17323506Y-28203272D01*
X17323506Y-28203272D02*
X17333030Y-28222320D01*
X17333030Y-28222320D02*
X17352078Y-28231844D01*
X17352078Y-28231844D02*
X17371125Y-28231844D01*
X17513983Y-28222320D02*
X17494935Y-28231844D01*
X17494935Y-28231844D02*
X17456840Y-28231844D01*
X17456840Y-28231844D02*
X17437792Y-28222320D01*
X17437792Y-28222320D02*
X17428268Y-28203272D01*
X17428268Y-28203272D02*
X17428268Y-28127082D01*
X17428268Y-28127082D02*
X17437792Y-28108034D01*
X17437792Y-28108034D02*
X17456840Y-28098510D01*
X17456840Y-28098510D02*
X17494935Y-28098510D01*
X17494935Y-28098510D02*
X17513983Y-28108034D01*
X17513983Y-28108034D02*
X17523506Y-28127082D01*
X17523506Y-28127082D02*
X17523506Y-28146129D01*
X17523506Y-28146129D02*
X17428268Y-28165177D01*
X17694935Y-28231844D02*
X17694935Y-28031844D01*
X17694935Y-28222320D02*
X17675887Y-28231844D01*
X17675887Y-28231844D02*
X17637792Y-28231844D01*
X17637792Y-28231844D02*
X17618745Y-28222320D01*
X17618745Y-28222320D02*
X17609221Y-28212796D01*
X17609221Y-28212796D02*
X17599697Y-28193748D01*
X17599697Y-28193748D02*
X17599697Y-28136606D01*
X17599697Y-28136606D02*
X17609221Y-28117558D01*
X17609221Y-28117558D02*
X17618745Y-28108034D01*
X17618745Y-28108034D02*
X17637792Y-28098510D01*
X17637792Y-28098510D02*
X17675887Y-28098510D01*
X17675887Y-28098510D02*
X17694935Y-28108034D01*
X17771126Y-28308034D02*
X17780649Y-28298510D01*
X17780649Y-28298510D02*
X17799697Y-28269939D01*
X17799697Y-28269939D02*
X17809221Y-28250891D01*
X17809221Y-28250891D02*
X17818745Y-28222320D01*
X17818745Y-28222320D02*
X17828268Y-28174701D01*
X17828268Y-28174701D02*
X17828268Y-28136606D01*
X17828268Y-28136606D02*
X17818745Y-28088987D01*
X17818745Y-28088987D02*
X17809221Y-28060415D01*
X17809221Y-28060415D02*
X17799697Y-28041368D01*
X17799697Y-28041368D02*
X17780649Y-28012796D01*
X17780649Y-28012796D02*
X17771126Y-28003272D01*
D13*
X11015110Y-28404360D02*
G75*
G02*
X10835110Y-28404360I-90000J0D01*
G01*
X10835110Y-28404360D02*
G75*
G02*
X11015110Y-28404360I90000J0D01*
G01*
D10*
X11380649Y-28495844D02*
X11266363Y-28495844D01*
X11323506Y-28495844D02*
X11323506Y-28295844D01*
X11323506Y-28295844D02*
X11304458Y-28324415D01*
X11304458Y-28324415D02*
X11285411Y-28343463D01*
X11285411Y-28343463D02*
X11266363Y-28352987D01*
X11466363Y-28476796D02*
X11475887Y-28486320D01*
X11475887Y-28486320D02*
X11466363Y-28495844D01*
X11466363Y-28495844D02*
X11456839Y-28486320D01*
X11456839Y-28486320D02*
X11466363Y-28476796D01*
X11466363Y-28476796D02*
X11466363Y-28495844D01*
X11590172Y-28381558D02*
X11571125Y-28372034D01*
X11571125Y-28372034D02*
X11561601Y-28362510D01*
X11561601Y-28362510D02*
X11552077Y-28343463D01*
X11552077Y-28343463D02*
X11552077Y-28333939D01*
X11552077Y-28333939D02*
X11561601Y-28314891D01*
X11561601Y-28314891D02*
X11571125Y-28305368D01*
X11571125Y-28305368D02*
X11590172Y-28295844D01*
X11590172Y-28295844D02*
X11628268Y-28295844D01*
X11628268Y-28295844D02*
X11647315Y-28305368D01*
X11647315Y-28305368D02*
X11656839Y-28314891D01*
X11656839Y-28314891D02*
X11666363Y-28333939D01*
X11666363Y-28333939D02*
X11666363Y-28343463D01*
X11666363Y-28343463D02*
X11656839Y-28362510D01*
X11656839Y-28362510D02*
X11647315Y-28372034D01*
X11647315Y-28372034D02*
X11628268Y-28381558D01*
X11628268Y-28381558D02*
X11590172Y-28381558D01*
X11590172Y-28381558D02*
X11571125Y-28391082D01*
X11571125Y-28391082D02*
X11561601Y-28400606D01*
X11561601Y-28400606D02*
X11552077Y-28419653D01*
X11552077Y-28419653D02*
X11552077Y-28457748D01*
X11552077Y-28457748D02*
X11561601Y-28476796D01*
X11561601Y-28476796D02*
X11571125Y-28486320D01*
X11571125Y-28486320D02*
X11590172Y-28495844D01*
X11590172Y-28495844D02*
X11628268Y-28495844D01*
X11628268Y-28495844D02*
X11647315Y-28486320D01*
X11647315Y-28486320D02*
X11656839Y-28476796D01*
X11656839Y-28476796D02*
X11666363Y-28457748D01*
X11666363Y-28457748D02*
X11666363Y-28419653D01*
X11666363Y-28419653D02*
X11656839Y-28400606D01*
X11656839Y-28400606D02*
X11647315Y-28391082D01*
X11647315Y-28391082D02*
X11628268Y-28381558D01*
X11790172Y-28295844D02*
X11809220Y-28295844D01*
X11809220Y-28295844D02*
X11828268Y-28305368D01*
X11828268Y-28305368D02*
X11837792Y-28314891D01*
X11837792Y-28314891D02*
X11847315Y-28333939D01*
X11847315Y-28333939D02*
X11856839Y-28372034D01*
X11856839Y-28372034D02*
X11856839Y-28419653D01*
X11856839Y-28419653D02*
X11847315Y-28457748D01*
X11847315Y-28457748D02*
X11837792Y-28476796D01*
X11837792Y-28476796D02*
X11828268Y-28486320D01*
X11828268Y-28486320D02*
X11809220Y-28495844D01*
X11809220Y-28495844D02*
X11790172Y-28495844D01*
X11790172Y-28495844D02*
X11771125Y-28486320D01*
X11771125Y-28486320D02*
X11761601Y-28476796D01*
X11761601Y-28476796D02*
X11752077Y-28457748D01*
X11752077Y-28457748D02*
X11742553Y-28419653D01*
X11742553Y-28419653D02*
X11742553Y-28372034D01*
X11742553Y-28372034D02*
X11752077Y-28333939D01*
X11752077Y-28333939D02*
X11761601Y-28314891D01*
X11761601Y-28314891D02*
X11771125Y-28305368D01*
X11771125Y-28305368D02*
X11790172Y-28295844D01*
X11980649Y-28295844D02*
X11999696Y-28295844D01*
X11999696Y-28295844D02*
X12018744Y-28305368D01*
X12018744Y-28305368D02*
X12028268Y-28314891D01*
X12028268Y-28314891D02*
X12037792Y-28333939D01*
X12037792Y-28333939D02*
X12047315Y-28372034D01*
X12047315Y-28372034D02*
X12047315Y-28419653D01*
X12047315Y-28419653D02*
X12037792Y-28457748D01*
X12037792Y-28457748D02*
X12028268Y-28476796D01*
X12028268Y-28476796D02*
X12018744Y-28486320D01*
X12018744Y-28486320D02*
X11999696Y-28495844D01*
X11999696Y-28495844D02*
X11980649Y-28495844D01*
X11980649Y-28495844D02*
X11961601Y-28486320D01*
X11961601Y-28486320D02*
X11952077Y-28476796D01*
X11952077Y-28476796D02*
X11942553Y-28457748D01*
X11942553Y-28457748D02*
X11933030Y-28419653D01*
X11933030Y-28419653D02*
X11933030Y-28372034D01*
X11933030Y-28372034D02*
X11942553Y-28333939D01*
X11942553Y-28333939D02*
X11952077Y-28314891D01*
X11952077Y-28314891D02*
X11961601Y-28305368D01*
X11961601Y-28305368D02*
X11980649Y-28295844D01*
X12133030Y-28495844D02*
X12133030Y-28362510D01*
X12133030Y-28381558D02*
X12142553Y-28372034D01*
X12142553Y-28372034D02*
X12161601Y-28362510D01*
X12161601Y-28362510D02*
X12190173Y-28362510D01*
X12190173Y-28362510D02*
X12209220Y-28372034D01*
X12209220Y-28372034D02*
X12218744Y-28391082D01*
X12218744Y-28391082D02*
X12218744Y-28495844D01*
X12218744Y-28391082D02*
X12228268Y-28372034D01*
X12228268Y-28372034D02*
X12247315Y-28362510D01*
X12247315Y-28362510D02*
X12275887Y-28362510D01*
X12275887Y-28362510D02*
X12294934Y-28372034D01*
X12294934Y-28372034D02*
X12304458Y-28391082D01*
X12304458Y-28391082D02*
X12304458Y-28495844D01*
X12399696Y-28495844D02*
X12399696Y-28362510D01*
X12399696Y-28381558D02*
X12409220Y-28372034D01*
X12409220Y-28372034D02*
X12428268Y-28362510D01*
X12428268Y-28362510D02*
X12456839Y-28362510D01*
X12456839Y-28362510D02*
X12475887Y-28372034D01*
X12475887Y-28372034D02*
X12485411Y-28391082D01*
X12485411Y-28391082D02*
X12485411Y-28495844D01*
X12485411Y-28391082D02*
X12494934Y-28372034D01*
X12494934Y-28372034D02*
X12513982Y-28362510D01*
X12513982Y-28362510D02*
X12542553Y-28362510D01*
X12542553Y-28362510D02*
X12561601Y-28372034D01*
X12561601Y-28372034D02*
X12571125Y-28391082D01*
X12571125Y-28391082D02*
X12571125Y-28495844D01*
X12961601Y-28286320D02*
X12790173Y-28543463D01*
X13218744Y-28295844D02*
X13237792Y-28295844D01*
X13237792Y-28295844D02*
X13256839Y-28305368D01*
X13256839Y-28305368D02*
X13266363Y-28314891D01*
X13266363Y-28314891D02*
X13275887Y-28333939D01*
X13275887Y-28333939D02*
X13285411Y-28372034D01*
X13285411Y-28372034D02*
X13285411Y-28419653D01*
X13285411Y-28419653D02*
X13275887Y-28457748D01*
X13275887Y-28457748D02*
X13266363Y-28476796D01*
X13266363Y-28476796D02*
X13256839Y-28486320D01*
X13256839Y-28486320D02*
X13237792Y-28495844D01*
X13237792Y-28495844D02*
X13218744Y-28495844D01*
X13218744Y-28495844D02*
X13199696Y-28486320D01*
X13199696Y-28486320D02*
X13190173Y-28476796D01*
X13190173Y-28476796D02*
X13180649Y-28457748D01*
X13180649Y-28457748D02*
X13171125Y-28419653D01*
X13171125Y-28419653D02*
X13171125Y-28372034D01*
X13171125Y-28372034D02*
X13180649Y-28333939D01*
X13180649Y-28333939D02*
X13190173Y-28314891D01*
X13190173Y-28314891D02*
X13199696Y-28305368D01*
X13199696Y-28305368D02*
X13218744Y-28295844D01*
X13371125Y-28476796D02*
X13380649Y-28486320D01*
X13380649Y-28486320D02*
X13371125Y-28495844D01*
X13371125Y-28495844D02*
X13361601Y-28486320D01*
X13361601Y-28486320D02*
X13371125Y-28476796D01*
X13371125Y-28476796D02*
X13371125Y-28495844D01*
X13504458Y-28295844D02*
X13523506Y-28295844D01*
X13523506Y-28295844D02*
X13542554Y-28305368D01*
X13542554Y-28305368D02*
X13552077Y-28314891D01*
X13552077Y-28314891D02*
X13561601Y-28333939D01*
X13561601Y-28333939D02*
X13571125Y-28372034D01*
X13571125Y-28372034D02*
X13571125Y-28419653D01*
X13571125Y-28419653D02*
X13561601Y-28457748D01*
X13561601Y-28457748D02*
X13552077Y-28476796D01*
X13552077Y-28476796D02*
X13542554Y-28486320D01*
X13542554Y-28486320D02*
X13523506Y-28495844D01*
X13523506Y-28495844D02*
X13504458Y-28495844D01*
X13504458Y-28495844D02*
X13485411Y-28486320D01*
X13485411Y-28486320D02*
X13475887Y-28476796D01*
X13475887Y-28476796D02*
X13466363Y-28457748D01*
X13466363Y-28457748D02*
X13456839Y-28419653D01*
X13456839Y-28419653D02*
X13456839Y-28372034D01*
X13456839Y-28372034D02*
X13466363Y-28333939D01*
X13466363Y-28333939D02*
X13475887Y-28314891D01*
X13475887Y-28314891D02*
X13485411Y-28305368D01*
X13485411Y-28305368D02*
X13504458Y-28295844D01*
X13637792Y-28295844D02*
X13771125Y-28295844D01*
X13771125Y-28295844D02*
X13685411Y-28495844D01*
X13885411Y-28295844D02*
X13904458Y-28295844D01*
X13904458Y-28295844D02*
X13923506Y-28305368D01*
X13923506Y-28305368D02*
X13933030Y-28314891D01*
X13933030Y-28314891D02*
X13942554Y-28333939D01*
X13942554Y-28333939D02*
X13952077Y-28372034D01*
X13952077Y-28372034D02*
X13952077Y-28419653D01*
X13952077Y-28419653D02*
X13942554Y-28457748D01*
X13942554Y-28457748D02*
X13933030Y-28476796D01*
X13933030Y-28476796D02*
X13923506Y-28486320D01*
X13923506Y-28486320D02*
X13904458Y-28495844D01*
X13904458Y-28495844D02*
X13885411Y-28495844D01*
X13885411Y-28495844D02*
X13866363Y-28486320D01*
X13866363Y-28486320D02*
X13856839Y-28476796D01*
X13856839Y-28476796D02*
X13847316Y-28457748D01*
X13847316Y-28457748D02*
X13837792Y-28419653D01*
X13837792Y-28419653D02*
X13837792Y-28372034D01*
X13837792Y-28372034D02*
X13847316Y-28333939D01*
X13847316Y-28333939D02*
X13856839Y-28314891D01*
X13856839Y-28314891D02*
X13866363Y-28305368D01*
X13866363Y-28305368D02*
X13885411Y-28295844D01*
X14047316Y-28495844D02*
X14085411Y-28495844D01*
X14085411Y-28495844D02*
X14104458Y-28486320D01*
X14104458Y-28486320D02*
X14113982Y-28476796D01*
X14113982Y-28476796D02*
X14133030Y-28448225D01*
X14133030Y-28448225D02*
X14142554Y-28410129D01*
X14142554Y-28410129D02*
X14142554Y-28333939D01*
X14142554Y-28333939D02*
X14133030Y-28314891D01*
X14133030Y-28314891D02*
X14123506Y-28305368D01*
X14123506Y-28305368D02*
X14104458Y-28295844D01*
X14104458Y-28295844D02*
X14066363Y-28295844D01*
X14066363Y-28295844D02*
X14047316Y-28305368D01*
X14047316Y-28305368D02*
X14037792Y-28314891D01*
X14037792Y-28314891D02*
X14028268Y-28333939D01*
X14028268Y-28333939D02*
X14028268Y-28381558D01*
X14028268Y-28381558D02*
X14037792Y-28400606D01*
X14037792Y-28400606D02*
X14047316Y-28410129D01*
X14047316Y-28410129D02*
X14066363Y-28419653D01*
X14066363Y-28419653D02*
X14104458Y-28419653D01*
X14104458Y-28419653D02*
X14123506Y-28410129D01*
X14123506Y-28410129D02*
X14133030Y-28400606D01*
X14133030Y-28400606D02*
X14142554Y-28381558D01*
X14218744Y-28295844D02*
X14218744Y-28333939D01*
X14294935Y-28295844D02*
X14294935Y-28333939D01*
X14590173Y-28572034D02*
X14580649Y-28562510D01*
X14580649Y-28562510D02*
X14561601Y-28533939D01*
X14561601Y-28533939D02*
X14552078Y-28514891D01*
X14552078Y-28514891D02*
X14542554Y-28486320D01*
X14542554Y-28486320D02*
X14533030Y-28438701D01*
X14533030Y-28438701D02*
X14533030Y-28400606D01*
X14533030Y-28400606D02*
X14542554Y-28352987D01*
X14542554Y-28352987D02*
X14552078Y-28324415D01*
X14552078Y-28324415D02*
X14561601Y-28305368D01*
X14561601Y-28305368D02*
X14580649Y-28276796D01*
X14580649Y-28276796D02*
X14590173Y-28267272D01*
X14656839Y-28314891D02*
X14666363Y-28305368D01*
X14666363Y-28305368D02*
X14685411Y-28295844D01*
X14685411Y-28295844D02*
X14733030Y-28295844D01*
X14733030Y-28295844D02*
X14752078Y-28305368D01*
X14752078Y-28305368D02*
X14761601Y-28314891D01*
X14761601Y-28314891D02*
X14771125Y-28333939D01*
X14771125Y-28333939D02*
X14771125Y-28352987D01*
X14771125Y-28352987D02*
X14761601Y-28381558D01*
X14761601Y-28381558D02*
X14647316Y-28495844D01*
X14647316Y-28495844D02*
X14771125Y-28495844D01*
X15009220Y-28495844D02*
X15009220Y-28295844D01*
X15094935Y-28495844D02*
X15094935Y-28391082D01*
X15094935Y-28391082D02*
X15085411Y-28372034D01*
X15085411Y-28372034D02*
X15066363Y-28362510D01*
X15066363Y-28362510D02*
X15037792Y-28362510D01*
X15037792Y-28362510D02*
X15018744Y-28372034D01*
X15018744Y-28372034D02*
X15009220Y-28381558D01*
X15218744Y-28495844D02*
X15199697Y-28486320D01*
X15199697Y-28486320D02*
X15190173Y-28476796D01*
X15190173Y-28476796D02*
X15180649Y-28457748D01*
X15180649Y-28457748D02*
X15180649Y-28400606D01*
X15180649Y-28400606D02*
X15190173Y-28381558D01*
X15190173Y-28381558D02*
X15199697Y-28372034D01*
X15199697Y-28372034D02*
X15218744Y-28362510D01*
X15218744Y-28362510D02*
X15247316Y-28362510D01*
X15247316Y-28362510D02*
X15266363Y-28372034D01*
X15266363Y-28372034D02*
X15275887Y-28381558D01*
X15275887Y-28381558D02*
X15285411Y-28400606D01*
X15285411Y-28400606D02*
X15285411Y-28457748D01*
X15285411Y-28457748D02*
X15275887Y-28476796D01*
X15275887Y-28476796D02*
X15266363Y-28486320D01*
X15266363Y-28486320D02*
X15247316Y-28495844D01*
X15247316Y-28495844D02*
X15218744Y-28495844D01*
X15399697Y-28495844D02*
X15380649Y-28486320D01*
X15380649Y-28486320D02*
X15371125Y-28467272D01*
X15371125Y-28467272D02*
X15371125Y-28295844D01*
X15552078Y-28486320D02*
X15533030Y-28495844D01*
X15533030Y-28495844D02*
X15494935Y-28495844D01*
X15494935Y-28495844D02*
X15475887Y-28486320D01*
X15475887Y-28486320D02*
X15466363Y-28467272D01*
X15466363Y-28467272D02*
X15466363Y-28391082D01*
X15466363Y-28391082D02*
X15475887Y-28372034D01*
X15475887Y-28372034D02*
X15494935Y-28362510D01*
X15494935Y-28362510D02*
X15533030Y-28362510D01*
X15533030Y-28362510D02*
X15552078Y-28372034D01*
X15552078Y-28372034D02*
X15561601Y-28391082D01*
X15561601Y-28391082D02*
X15561601Y-28410129D01*
X15561601Y-28410129D02*
X15466363Y-28429177D01*
X15637792Y-28486320D02*
X15656840Y-28495844D01*
X15656840Y-28495844D02*
X15694935Y-28495844D01*
X15694935Y-28495844D02*
X15713982Y-28486320D01*
X15713982Y-28486320D02*
X15723506Y-28467272D01*
X15723506Y-28467272D02*
X15723506Y-28457748D01*
X15723506Y-28457748D02*
X15713982Y-28438701D01*
X15713982Y-28438701D02*
X15694935Y-28429177D01*
X15694935Y-28429177D02*
X15666363Y-28429177D01*
X15666363Y-28429177D02*
X15647316Y-28419653D01*
X15647316Y-28419653D02*
X15637792Y-28400606D01*
X15637792Y-28400606D02*
X15637792Y-28391082D01*
X15637792Y-28391082D02*
X15647316Y-28372034D01*
X15647316Y-28372034D02*
X15666363Y-28362510D01*
X15666363Y-28362510D02*
X15694935Y-28362510D01*
X15694935Y-28362510D02*
X15713982Y-28372034D01*
X15790173Y-28572034D02*
X15799697Y-28562510D01*
X15799697Y-28562510D02*
X15818744Y-28533939D01*
X15818744Y-28533939D02*
X15828268Y-28514891D01*
X15828268Y-28514891D02*
X15837792Y-28486320D01*
X15837792Y-28486320D02*
X15847316Y-28438701D01*
X15847316Y-28438701D02*
X15847316Y-28400606D01*
X15847316Y-28400606D02*
X15837792Y-28352987D01*
X15837792Y-28352987D02*
X15828268Y-28324415D01*
X15828268Y-28324415D02*
X15818744Y-28305368D01*
X15818744Y-28305368D02*
X15799697Y-28276796D01*
X15799697Y-28276796D02*
X15790173Y-28267272D01*
X16152078Y-28572034D02*
X16142554Y-28562510D01*
X16142554Y-28562510D02*
X16123506Y-28533939D01*
X16123506Y-28533939D02*
X16113982Y-28514891D01*
X16113982Y-28514891D02*
X16104459Y-28486320D01*
X16104459Y-28486320D02*
X16094935Y-28438701D01*
X16094935Y-28438701D02*
X16094935Y-28400606D01*
X16094935Y-28400606D02*
X16104459Y-28352987D01*
X16104459Y-28352987D02*
X16113982Y-28324415D01*
X16113982Y-28324415D02*
X16123506Y-28305368D01*
X16123506Y-28305368D02*
X16142554Y-28276796D01*
X16142554Y-28276796D02*
X16152078Y-28267272D01*
X16228268Y-28362510D02*
X16228268Y-28495844D01*
X16228268Y-28381558D02*
X16237792Y-28372034D01*
X16237792Y-28372034D02*
X16256840Y-28362510D01*
X16256840Y-28362510D02*
X16285411Y-28362510D01*
X16285411Y-28362510D02*
X16304459Y-28372034D01*
X16304459Y-28372034D02*
X16313982Y-28391082D01*
X16313982Y-28391082D02*
X16313982Y-28495844D01*
X16437792Y-28495844D02*
X16418744Y-28486320D01*
X16418744Y-28486320D02*
X16409221Y-28476796D01*
X16409221Y-28476796D02*
X16399697Y-28457748D01*
X16399697Y-28457748D02*
X16399697Y-28400606D01*
X16399697Y-28400606D02*
X16409221Y-28381558D01*
X16409221Y-28381558D02*
X16418744Y-28372034D01*
X16418744Y-28372034D02*
X16437792Y-28362510D01*
X16437792Y-28362510D02*
X16466363Y-28362510D01*
X16466363Y-28362510D02*
X16485411Y-28372034D01*
X16485411Y-28372034D02*
X16494935Y-28381558D01*
X16494935Y-28381558D02*
X16504459Y-28400606D01*
X16504459Y-28400606D02*
X16504459Y-28457748D01*
X16504459Y-28457748D02*
X16494935Y-28476796D01*
X16494935Y-28476796D02*
X16485411Y-28486320D01*
X16485411Y-28486320D02*
X16466363Y-28495844D01*
X16466363Y-28495844D02*
X16437792Y-28495844D01*
X16561602Y-28362510D02*
X16637792Y-28362510D01*
X16590173Y-28295844D02*
X16590173Y-28467272D01*
X16590173Y-28467272D02*
X16599697Y-28486320D01*
X16599697Y-28486320D02*
X16618744Y-28495844D01*
X16618744Y-28495844D02*
X16637792Y-28495844D01*
X16856840Y-28362510D02*
X16856840Y-28562510D01*
X16856840Y-28372034D02*
X16875887Y-28362510D01*
X16875887Y-28362510D02*
X16913983Y-28362510D01*
X16913983Y-28362510D02*
X16933030Y-28372034D01*
X16933030Y-28372034D02*
X16942554Y-28381558D01*
X16942554Y-28381558D02*
X16952078Y-28400606D01*
X16952078Y-28400606D02*
X16952078Y-28457748D01*
X16952078Y-28457748D02*
X16942554Y-28476796D01*
X16942554Y-28476796D02*
X16933030Y-28486320D01*
X16933030Y-28486320D02*
X16913983Y-28495844D01*
X16913983Y-28495844D02*
X16875887Y-28495844D01*
X16875887Y-28495844D02*
X16856840Y-28486320D01*
X17066364Y-28495844D02*
X17047316Y-28486320D01*
X17047316Y-28486320D02*
X17037792Y-28467272D01*
X17037792Y-28467272D02*
X17037792Y-28295844D01*
X17228268Y-28495844D02*
X17228268Y-28391082D01*
X17228268Y-28391082D02*
X17218745Y-28372034D01*
X17218745Y-28372034D02*
X17199697Y-28362510D01*
X17199697Y-28362510D02*
X17161602Y-28362510D01*
X17161602Y-28362510D02*
X17142554Y-28372034D01*
X17228268Y-28486320D02*
X17209221Y-28495844D01*
X17209221Y-28495844D02*
X17161602Y-28495844D01*
X17161602Y-28495844D02*
X17142554Y-28486320D01*
X17142554Y-28486320D02*
X17133030Y-28467272D01*
X17133030Y-28467272D02*
X17133030Y-28448225D01*
X17133030Y-28448225D02*
X17142554Y-28429177D01*
X17142554Y-28429177D02*
X17161602Y-28419653D01*
X17161602Y-28419653D02*
X17209221Y-28419653D01*
X17209221Y-28419653D02*
X17228268Y-28410129D01*
X17294935Y-28362510D02*
X17371125Y-28362510D01*
X17323506Y-28295844D02*
X17323506Y-28467272D01*
X17323506Y-28467272D02*
X17333030Y-28486320D01*
X17333030Y-28486320D02*
X17352078Y-28495844D01*
X17352078Y-28495844D02*
X17371125Y-28495844D01*
X17513983Y-28486320D02*
X17494935Y-28495844D01*
X17494935Y-28495844D02*
X17456840Y-28495844D01*
X17456840Y-28495844D02*
X17437792Y-28486320D01*
X17437792Y-28486320D02*
X17428268Y-28467272D01*
X17428268Y-28467272D02*
X17428268Y-28391082D01*
X17428268Y-28391082D02*
X17437792Y-28372034D01*
X17437792Y-28372034D02*
X17456840Y-28362510D01*
X17456840Y-28362510D02*
X17494935Y-28362510D01*
X17494935Y-28362510D02*
X17513983Y-28372034D01*
X17513983Y-28372034D02*
X17523506Y-28391082D01*
X17523506Y-28391082D02*
X17523506Y-28410129D01*
X17523506Y-28410129D02*
X17428268Y-28429177D01*
X17694935Y-28495844D02*
X17694935Y-28295844D01*
X17694935Y-28486320D02*
X17675887Y-28495844D01*
X17675887Y-28495844D02*
X17637792Y-28495844D01*
X17637792Y-28495844D02*
X17618745Y-28486320D01*
X17618745Y-28486320D02*
X17609221Y-28476796D01*
X17609221Y-28476796D02*
X17599697Y-28457748D01*
X17599697Y-28457748D02*
X17599697Y-28400606D01*
X17599697Y-28400606D02*
X17609221Y-28381558D01*
X17609221Y-28381558D02*
X17618745Y-28372034D01*
X17618745Y-28372034D02*
X17637792Y-28362510D01*
X17637792Y-28362510D02*
X17675887Y-28362510D01*
X17675887Y-28362510D02*
X17694935Y-28372034D01*
X17771126Y-28572034D02*
X17780649Y-28562510D01*
X17780649Y-28562510D02*
X17799697Y-28533939D01*
X17799697Y-28533939D02*
X17809221Y-28514891D01*
X17809221Y-28514891D02*
X17818745Y-28486320D01*
X17818745Y-28486320D02*
X17828268Y-28438701D01*
X17828268Y-28438701D02*
X17828268Y-28400606D01*
X17828268Y-28400606D02*
X17818745Y-28352987D01*
X17818745Y-28352987D02*
X17809221Y-28324415D01*
X17809221Y-28324415D02*
X17799697Y-28305368D01*
X17799697Y-28305368D02*
X17780649Y-28276796D01*
X17780649Y-28276796D02*
X17771126Y-28267272D01*
X10915110Y-28604360D02*
X10915110Y-28804360D01*
X10815110Y-28704360D02*
X11015110Y-28704360D01*
X11266363Y-28614891D02*
X11275887Y-28605368D01*
X11275887Y-28605368D02*
X11294934Y-28595844D01*
X11294934Y-28595844D02*
X11342553Y-28595844D01*
X11342553Y-28595844D02*
X11361601Y-28605368D01*
X11361601Y-28605368D02*
X11371125Y-28614891D01*
X11371125Y-28614891D02*
X11380649Y-28633939D01*
X11380649Y-28633939D02*
X11380649Y-28652987D01*
X11380649Y-28652987D02*
X11371125Y-28681558D01*
X11371125Y-28681558D02*
X11256839Y-28795844D01*
X11256839Y-28795844D02*
X11380649Y-28795844D01*
X11466363Y-28776796D02*
X11475887Y-28786320D01*
X11475887Y-28786320D02*
X11466363Y-28795844D01*
X11466363Y-28795844D02*
X11456839Y-28786320D01*
X11456839Y-28786320D02*
X11466363Y-28776796D01*
X11466363Y-28776796D02*
X11466363Y-28795844D01*
X11542553Y-28595844D02*
X11666363Y-28595844D01*
X11666363Y-28595844D02*
X11599696Y-28672034D01*
X11599696Y-28672034D02*
X11628268Y-28672034D01*
X11628268Y-28672034D02*
X11647315Y-28681558D01*
X11647315Y-28681558D02*
X11656839Y-28691082D01*
X11656839Y-28691082D02*
X11666363Y-28710129D01*
X11666363Y-28710129D02*
X11666363Y-28757748D01*
X11666363Y-28757748D02*
X11656839Y-28776796D01*
X11656839Y-28776796D02*
X11647315Y-28786320D01*
X11647315Y-28786320D02*
X11628268Y-28795844D01*
X11628268Y-28795844D02*
X11571125Y-28795844D01*
X11571125Y-28795844D02*
X11552077Y-28786320D01*
X11552077Y-28786320D02*
X11542553Y-28776796D01*
X11790172Y-28595844D02*
X11809220Y-28595844D01*
X11809220Y-28595844D02*
X11828268Y-28605368D01*
X11828268Y-28605368D02*
X11837792Y-28614891D01*
X11837792Y-28614891D02*
X11847315Y-28633939D01*
X11847315Y-28633939D02*
X11856839Y-28672034D01*
X11856839Y-28672034D02*
X11856839Y-28719653D01*
X11856839Y-28719653D02*
X11847315Y-28757748D01*
X11847315Y-28757748D02*
X11837792Y-28776796D01*
X11837792Y-28776796D02*
X11828268Y-28786320D01*
X11828268Y-28786320D02*
X11809220Y-28795844D01*
X11809220Y-28795844D02*
X11790172Y-28795844D01*
X11790172Y-28795844D02*
X11771125Y-28786320D01*
X11771125Y-28786320D02*
X11761601Y-28776796D01*
X11761601Y-28776796D02*
X11752077Y-28757748D01*
X11752077Y-28757748D02*
X11742553Y-28719653D01*
X11742553Y-28719653D02*
X11742553Y-28672034D01*
X11742553Y-28672034D02*
X11752077Y-28633939D01*
X11752077Y-28633939D02*
X11761601Y-28614891D01*
X11761601Y-28614891D02*
X11771125Y-28605368D01*
X11771125Y-28605368D02*
X11790172Y-28595844D01*
X11980649Y-28595844D02*
X11999696Y-28595844D01*
X11999696Y-28595844D02*
X12018744Y-28605368D01*
X12018744Y-28605368D02*
X12028268Y-28614891D01*
X12028268Y-28614891D02*
X12037792Y-28633939D01*
X12037792Y-28633939D02*
X12047315Y-28672034D01*
X12047315Y-28672034D02*
X12047315Y-28719653D01*
X12047315Y-28719653D02*
X12037792Y-28757748D01*
X12037792Y-28757748D02*
X12028268Y-28776796D01*
X12028268Y-28776796D02*
X12018744Y-28786320D01*
X12018744Y-28786320D02*
X11999696Y-28795844D01*
X11999696Y-28795844D02*
X11980649Y-28795844D01*
X11980649Y-28795844D02*
X11961601Y-28786320D01*
X11961601Y-28786320D02*
X11952077Y-28776796D01*
X11952077Y-28776796D02*
X11942553Y-28757748D01*
X11942553Y-28757748D02*
X11933030Y-28719653D01*
X11933030Y-28719653D02*
X11933030Y-28672034D01*
X11933030Y-28672034D02*
X11942553Y-28633939D01*
X11942553Y-28633939D02*
X11952077Y-28614891D01*
X11952077Y-28614891D02*
X11961601Y-28605368D01*
X11961601Y-28605368D02*
X11980649Y-28595844D01*
X12133030Y-28795844D02*
X12133030Y-28662510D01*
X12133030Y-28681558D02*
X12142553Y-28672034D01*
X12142553Y-28672034D02*
X12161601Y-28662510D01*
X12161601Y-28662510D02*
X12190173Y-28662510D01*
X12190173Y-28662510D02*
X12209220Y-28672034D01*
X12209220Y-28672034D02*
X12218744Y-28691082D01*
X12218744Y-28691082D02*
X12218744Y-28795844D01*
X12218744Y-28691082D02*
X12228268Y-28672034D01*
X12228268Y-28672034D02*
X12247315Y-28662510D01*
X12247315Y-28662510D02*
X12275887Y-28662510D01*
X12275887Y-28662510D02*
X12294934Y-28672034D01*
X12294934Y-28672034D02*
X12304458Y-28691082D01*
X12304458Y-28691082D02*
X12304458Y-28795844D01*
X12399696Y-28795844D02*
X12399696Y-28662510D01*
X12399696Y-28681558D02*
X12409220Y-28672034D01*
X12409220Y-28672034D02*
X12428268Y-28662510D01*
X12428268Y-28662510D02*
X12456839Y-28662510D01*
X12456839Y-28662510D02*
X12475887Y-28672034D01*
X12475887Y-28672034D02*
X12485411Y-28691082D01*
X12485411Y-28691082D02*
X12485411Y-28795844D01*
X12485411Y-28691082D02*
X12494934Y-28672034D01*
X12494934Y-28672034D02*
X12513982Y-28662510D01*
X12513982Y-28662510D02*
X12542553Y-28662510D01*
X12542553Y-28662510D02*
X12561601Y-28672034D01*
X12561601Y-28672034D02*
X12571125Y-28691082D01*
X12571125Y-28691082D02*
X12571125Y-28795844D01*
X12961601Y-28586320D02*
X12790173Y-28843463D01*
X13218744Y-28595844D02*
X13237792Y-28595844D01*
X13237792Y-28595844D02*
X13256839Y-28605368D01*
X13256839Y-28605368D02*
X13266363Y-28614891D01*
X13266363Y-28614891D02*
X13275887Y-28633939D01*
X13275887Y-28633939D02*
X13285411Y-28672034D01*
X13285411Y-28672034D02*
X13285411Y-28719653D01*
X13285411Y-28719653D02*
X13275887Y-28757748D01*
X13275887Y-28757748D02*
X13266363Y-28776796D01*
X13266363Y-28776796D02*
X13256839Y-28786320D01*
X13256839Y-28786320D02*
X13237792Y-28795844D01*
X13237792Y-28795844D02*
X13218744Y-28795844D01*
X13218744Y-28795844D02*
X13199696Y-28786320D01*
X13199696Y-28786320D02*
X13190173Y-28776796D01*
X13190173Y-28776796D02*
X13180649Y-28757748D01*
X13180649Y-28757748D02*
X13171125Y-28719653D01*
X13171125Y-28719653D02*
X13171125Y-28672034D01*
X13171125Y-28672034D02*
X13180649Y-28633939D01*
X13180649Y-28633939D02*
X13190173Y-28614891D01*
X13190173Y-28614891D02*
X13199696Y-28605368D01*
X13199696Y-28605368D02*
X13218744Y-28595844D01*
X13371125Y-28776796D02*
X13380649Y-28786320D01*
X13380649Y-28786320D02*
X13371125Y-28795844D01*
X13371125Y-28795844D02*
X13361601Y-28786320D01*
X13361601Y-28786320D02*
X13371125Y-28776796D01*
X13371125Y-28776796D02*
X13371125Y-28795844D01*
X13504458Y-28595844D02*
X13523506Y-28595844D01*
X13523506Y-28595844D02*
X13542554Y-28605368D01*
X13542554Y-28605368D02*
X13552077Y-28614891D01*
X13552077Y-28614891D02*
X13561601Y-28633939D01*
X13561601Y-28633939D02*
X13571125Y-28672034D01*
X13571125Y-28672034D02*
X13571125Y-28719653D01*
X13571125Y-28719653D02*
X13561601Y-28757748D01*
X13561601Y-28757748D02*
X13552077Y-28776796D01*
X13552077Y-28776796D02*
X13542554Y-28786320D01*
X13542554Y-28786320D02*
X13523506Y-28795844D01*
X13523506Y-28795844D02*
X13504458Y-28795844D01*
X13504458Y-28795844D02*
X13485411Y-28786320D01*
X13485411Y-28786320D02*
X13475887Y-28776796D01*
X13475887Y-28776796D02*
X13466363Y-28757748D01*
X13466363Y-28757748D02*
X13456839Y-28719653D01*
X13456839Y-28719653D02*
X13456839Y-28672034D01*
X13456839Y-28672034D02*
X13466363Y-28633939D01*
X13466363Y-28633939D02*
X13475887Y-28614891D01*
X13475887Y-28614891D02*
X13485411Y-28605368D01*
X13485411Y-28605368D02*
X13504458Y-28595844D01*
X13666363Y-28795844D02*
X13704458Y-28795844D01*
X13704458Y-28795844D02*
X13723506Y-28786320D01*
X13723506Y-28786320D02*
X13733030Y-28776796D01*
X13733030Y-28776796D02*
X13752077Y-28748225D01*
X13752077Y-28748225D02*
X13761601Y-28710129D01*
X13761601Y-28710129D02*
X13761601Y-28633939D01*
X13761601Y-28633939D02*
X13752077Y-28614891D01*
X13752077Y-28614891D02*
X13742554Y-28605368D01*
X13742554Y-28605368D02*
X13723506Y-28595844D01*
X13723506Y-28595844D02*
X13685411Y-28595844D01*
X13685411Y-28595844D02*
X13666363Y-28605368D01*
X13666363Y-28605368D02*
X13656839Y-28614891D01*
X13656839Y-28614891D02*
X13647316Y-28633939D01*
X13647316Y-28633939D02*
X13647316Y-28681558D01*
X13647316Y-28681558D02*
X13656839Y-28700606D01*
X13656839Y-28700606D02*
X13666363Y-28710129D01*
X13666363Y-28710129D02*
X13685411Y-28719653D01*
X13685411Y-28719653D02*
X13723506Y-28719653D01*
X13723506Y-28719653D02*
X13742554Y-28710129D01*
X13742554Y-28710129D02*
X13752077Y-28700606D01*
X13752077Y-28700606D02*
X13761601Y-28681558D01*
X13885411Y-28595844D02*
X13904458Y-28595844D01*
X13904458Y-28595844D02*
X13923506Y-28605368D01*
X13923506Y-28605368D02*
X13933030Y-28614891D01*
X13933030Y-28614891D02*
X13942554Y-28633939D01*
X13942554Y-28633939D02*
X13952077Y-28672034D01*
X13952077Y-28672034D02*
X13952077Y-28719653D01*
X13952077Y-28719653D02*
X13942554Y-28757748D01*
X13942554Y-28757748D02*
X13933030Y-28776796D01*
X13933030Y-28776796D02*
X13923506Y-28786320D01*
X13923506Y-28786320D02*
X13904458Y-28795844D01*
X13904458Y-28795844D02*
X13885411Y-28795844D01*
X13885411Y-28795844D02*
X13866363Y-28786320D01*
X13866363Y-28786320D02*
X13856839Y-28776796D01*
X13856839Y-28776796D02*
X13847316Y-28757748D01*
X13847316Y-28757748D02*
X13837792Y-28719653D01*
X13837792Y-28719653D02*
X13837792Y-28672034D01*
X13837792Y-28672034D02*
X13847316Y-28633939D01*
X13847316Y-28633939D02*
X13856839Y-28614891D01*
X13856839Y-28614891D02*
X13866363Y-28605368D01*
X13866363Y-28605368D02*
X13885411Y-28595844D01*
X14123506Y-28595844D02*
X14085411Y-28595844D01*
X14085411Y-28595844D02*
X14066363Y-28605368D01*
X14066363Y-28605368D02*
X14056839Y-28614891D01*
X14056839Y-28614891D02*
X14037792Y-28643463D01*
X14037792Y-28643463D02*
X14028268Y-28681558D01*
X14028268Y-28681558D02*
X14028268Y-28757748D01*
X14028268Y-28757748D02*
X14037792Y-28776796D01*
X14037792Y-28776796D02*
X14047316Y-28786320D01*
X14047316Y-28786320D02*
X14066363Y-28795844D01*
X14066363Y-28795844D02*
X14104458Y-28795844D01*
X14104458Y-28795844D02*
X14123506Y-28786320D01*
X14123506Y-28786320D02*
X14133030Y-28776796D01*
X14133030Y-28776796D02*
X14142554Y-28757748D01*
X14142554Y-28757748D02*
X14142554Y-28710129D01*
X14142554Y-28710129D02*
X14133030Y-28691082D01*
X14133030Y-28691082D02*
X14123506Y-28681558D01*
X14123506Y-28681558D02*
X14104458Y-28672034D01*
X14104458Y-28672034D02*
X14066363Y-28672034D01*
X14066363Y-28672034D02*
X14047316Y-28681558D01*
X14047316Y-28681558D02*
X14037792Y-28691082D01*
X14037792Y-28691082D02*
X14028268Y-28710129D01*
X14218744Y-28595844D02*
X14218744Y-28633939D01*
X14294935Y-28595844D02*
X14294935Y-28633939D01*
X14590173Y-28872034D02*
X14580649Y-28862510D01*
X14580649Y-28862510D02*
X14561601Y-28833939D01*
X14561601Y-28833939D02*
X14552078Y-28814891D01*
X14552078Y-28814891D02*
X14542554Y-28786320D01*
X14542554Y-28786320D02*
X14533030Y-28738701D01*
X14533030Y-28738701D02*
X14533030Y-28700606D01*
X14533030Y-28700606D02*
X14542554Y-28652987D01*
X14542554Y-28652987D02*
X14552078Y-28624415D01*
X14552078Y-28624415D02*
X14561601Y-28605368D01*
X14561601Y-28605368D02*
X14580649Y-28576796D01*
X14580649Y-28576796D02*
X14590173Y-28567272D01*
X14656839Y-28614891D02*
X14666363Y-28605368D01*
X14666363Y-28605368D02*
X14685411Y-28595844D01*
X14685411Y-28595844D02*
X14733030Y-28595844D01*
X14733030Y-28595844D02*
X14752078Y-28605368D01*
X14752078Y-28605368D02*
X14761601Y-28614891D01*
X14761601Y-28614891D02*
X14771125Y-28633939D01*
X14771125Y-28633939D02*
X14771125Y-28652987D01*
X14771125Y-28652987D02*
X14761601Y-28681558D01*
X14761601Y-28681558D02*
X14647316Y-28795844D01*
X14647316Y-28795844D02*
X14771125Y-28795844D01*
X15009220Y-28795844D02*
X15009220Y-28595844D01*
X15094935Y-28795844D02*
X15094935Y-28691082D01*
X15094935Y-28691082D02*
X15085411Y-28672034D01*
X15085411Y-28672034D02*
X15066363Y-28662510D01*
X15066363Y-28662510D02*
X15037792Y-28662510D01*
X15037792Y-28662510D02*
X15018744Y-28672034D01*
X15018744Y-28672034D02*
X15009220Y-28681558D01*
X15218744Y-28795844D02*
X15199697Y-28786320D01*
X15199697Y-28786320D02*
X15190173Y-28776796D01*
X15190173Y-28776796D02*
X15180649Y-28757748D01*
X15180649Y-28757748D02*
X15180649Y-28700606D01*
X15180649Y-28700606D02*
X15190173Y-28681558D01*
X15190173Y-28681558D02*
X15199697Y-28672034D01*
X15199697Y-28672034D02*
X15218744Y-28662510D01*
X15218744Y-28662510D02*
X15247316Y-28662510D01*
X15247316Y-28662510D02*
X15266363Y-28672034D01*
X15266363Y-28672034D02*
X15275887Y-28681558D01*
X15275887Y-28681558D02*
X15285411Y-28700606D01*
X15285411Y-28700606D02*
X15285411Y-28757748D01*
X15285411Y-28757748D02*
X15275887Y-28776796D01*
X15275887Y-28776796D02*
X15266363Y-28786320D01*
X15266363Y-28786320D02*
X15247316Y-28795844D01*
X15247316Y-28795844D02*
X15218744Y-28795844D01*
X15399697Y-28795844D02*
X15380649Y-28786320D01*
X15380649Y-28786320D02*
X15371125Y-28767272D01*
X15371125Y-28767272D02*
X15371125Y-28595844D01*
X15552078Y-28786320D02*
X15533030Y-28795844D01*
X15533030Y-28795844D02*
X15494935Y-28795844D01*
X15494935Y-28795844D02*
X15475887Y-28786320D01*
X15475887Y-28786320D02*
X15466363Y-28767272D01*
X15466363Y-28767272D02*
X15466363Y-28691082D01*
X15466363Y-28691082D02*
X15475887Y-28672034D01*
X15475887Y-28672034D02*
X15494935Y-28662510D01*
X15494935Y-28662510D02*
X15533030Y-28662510D01*
X15533030Y-28662510D02*
X15552078Y-28672034D01*
X15552078Y-28672034D02*
X15561601Y-28691082D01*
X15561601Y-28691082D02*
X15561601Y-28710129D01*
X15561601Y-28710129D02*
X15466363Y-28729177D01*
X15637792Y-28786320D02*
X15656840Y-28795844D01*
X15656840Y-28795844D02*
X15694935Y-28795844D01*
X15694935Y-28795844D02*
X15713982Y-28786320D01*
X15713982Y-28786320D02*
X15723506Y-28767272D01*
X15723506Y-28767272D02*
X15723506Y-28757748D01*
X15723506Y-28757748D02*
X15713982Y-28738701D01*
X15713982Y-28738701D02*
X15694935Y-28729177D01*
X15694935Y-28729177D02*
X15666363Y-28729177D01*
X15666363Y-28729177D02*
X15647316Y-28719653D01*
X15647316Y-28719653D02*
X15637792Y-28700606D01*
X15637792Y-28700606D02*
X15637792Y-28691082D01*
X15637792Y-28691082D02*
X15647316Y-28672034D01*
X15647316Y-28672034D02*
X15666363Y-28662510D01*
X15666363Y-28662510D02*
X15694935Y-28662510D01*
X15694935Y-28662510D02*
X15713982Y-28672034D01*
X15790173Y-28872034D02*
X15799697Y-28862510D01*
X15799697Y-28862510D02*
X15818744Y-28833939D01*
X15818744Y-28833939D02*
X15828268Y-28814891D01*
X15828268Y-28814891D02*
X15837792Y-28786320D01*
X15837792Y-28786320D02*
X15847316Y-28738701D01*
X15847316Y-28738701D02*
X15847316Y-28700606D01*
X15847316Y-28700606D02*
X15837792Y-28652987D01*
X15837792Y-28652987D02*
X15828268Y-28624415D01*
X15828268Y-28624415D02*
X15818744Y-28605368D01*
X15818744Y-28605368D02*
X15799697Y-28576796D01*
X15799697Y-28576796D02*
X15790173Y-28567272D01*
X16152078Y-28872034D02*
X16142554Y-28862510D01*
X16142554Y-28862510D02*
X16123506Y-28833939D01*
X16123506Y-28833939D02*
X16113982Y-28814891D01*
X16113982Y-28814891D02*
X16104459Y-28786320D01*
X16104459Y-28786320D02*
X16094935Y-28738701D01*
X16094935Y-28738701D02*
X16094935Y-28700606D01*
X16094935Y-28700606D02*
X16104459Y-28652987D01*
X16104459Y-28652987D02*
X16113982Y-28624415D01*
X16113982Y-28624415D02*
X16123506Y-28605368D01*
X16123506Y-28605368D02*
X16142554Y-28576796D01*
X16142554Y-28576796D02*
X16152078Y-28567272D01*
X16228268Y-28662510D02*
X16228268Y-28795844D01*
X16228268Y-28681558D02*
X16237792Y-28672034D01*
X16237792Y-28672034D02*
X16256840Y-28662510D01*
X16256840Y-28662510D02*
X16285411Y-28662510D01*
X16285411Y-28662510D02*
X16304459Y-28672034D01*
X16304459Y-28672034D02*
X16313982Y-28691082D01*
X16313982Y-28691082D02*
X16313982Y-28795844D01*
X16437792Y-28795844D02*
X16418744Y-28786320D01*
X16418744Y-28786320D02*
X16409221Y-28776796D01*
X16409221Y-28776796D02*
X16399697Y-28757748D01*
X16399697Y-28757748D02*
X16399697Y-28700606D01*
X16399697Y-28700606D02*
X16409221Y-28681558D01*
X16409221Y-28681558D02*
X16418744Y-28672034D01*
X16418744Y-28672034D02*
X16437792Y-28662510D01*
X16437792Y-28662510D02*
X16466363Y-28662510D01*
X16466363Y-28662510D02*
X16485411Y-28672034D01*
X16485411Y-28672034D02*
X16494935Y-28681558D01*
X16494935Y-28681558D02*
X16504459Y-28700606D01*
X16504459Y-28700606D02*
X16504459Y-28757748D01*
X16504459Y-28757748D02*
X16494935Y-28776796D01*
X16494935Y-28776796D02*
X16485411Y-28786320D01*
X16485411Y-28786320D02*
X16466363Y-28795844D01*
X16466363Y-28795844D02*
X16437792Y-28795844D01*
X16561602Y-28662510D02*
X16637792Y-28662510D01*
X16590173Y-28595844D02*
X16590173Y-28767272D01*
X16590173Y-28767272D02*
X16599697Y-28786320D01*
X16599697Y-28786320D02*
X16618744Y-28795844D01*
X16618744Y-28795844D02*
X16637792Y-28795844D01*
X16856840Y-28662510D02*
X16856840Y-28862510D01*
X16856840Y-28672034D02*
X16875887Y-28662510D01*
X16875887Y-28662510D02*
X16913983Y-28662510D01*
X16913983Y-28662510D02*
X16933030Y-28672034D01*
X16933030Y-28672034D02*
X16942554Y-28681558D01*
X16942554Y-28681558D02*
X16952078Y-28700606D01*
X16952078Y-28700606D02*
X16952078Y-28757748D01*
X16952078Y-28757748D02*
X16942554Y-28776796D01*
X16942554Y-28776796D02*
X16933030Y-28786320D01*
X16933030Y-28786320D02*
X16913983Y-28795844D01*
X16913983Y-28795844D02*
X16875887Y-28795844D01*
X16875887Y-28795844D02*
X16856840Y-28786320D01*
X17066364Y-28795844D02*
X17047316Y-28786320D01*
X17047316Y-28786320D02*
X17037792Y-28767272D01*
X17037792Y-28767272D02*
X17037792Y-28595844D01*
X17228268Y-28795844D02*
X17228268Y-28691082D01*
X17228268Y-28691082D02*
X17218745Y-28672034D01*
X17218745Y-28672034D02*
X17199697Y-28662510D01*
X17199697Y-28662510D02*
X17161602Y-28662510D01*
X17161602Y-28662510D02*
X17142554Y-28672034D01*
X17228268Y-28786320D02*
X17209221Y-28795844D01*
X17209221Y-28795844D02*
X17161602Y-28795844D01*
X17161602Y-28795844D02*
X17142554Y-28786320D01*
X17142554Y-28786320D02*
X17133030Y-28767272D01*
X17133030Y-28767272D02*
X17133030Y-28748225D01*
X17133030Y-28748225D02*
X17142554Y-28729177D01*
X17142554Y-28729177D02*
X17161602Y-28719653D01*
X17161602Y-28719653D02*
X17209221Y-28719653D01*
X17209221Y-28719653D02*
X17228268Y-28710129D01*
X17294935Y-28662510D02*
X17371125Y-28662510D01*
X17323506Y-28595844D02*
X17323506Y-28767272D01*
X17323506Y-28767272D02*
X17333030Y-28786320D01*
X17333030Y-28786320D02*
X17352078Y-28795844D01*
X17352078Y-28795844D02*
X17371125Y-28795844D01*
X17513983Y-28786320D02*
X17494935Y-28795844D01*
X17494935Y-28795844D02*
X17456840Y-28795844D01*
X17456840Y-28795844D02*
X17437792Y-28786320D01*
X17437792Y-28786320D02*
X17428268Y-28767272D01*
X17428268Y-28767272D02*
X17428268Y-28691082D01*
X17428268Y-28691082D02*
X17437792Y-28672034D01*
X17437792Y-28672034D02*
X17456840Y-28662510D01*
X17456840Y-28662510D02*
X17494935Y-28662510D01*
X17494935Y-28662510D02*
X17513983Y-28672034D01*
X17513983Y-28672034D02*
X17523506Y-28691082D01*
X17523506Y-28691082D02*
X17523506Y-28710129D01*
X17523506Y-28710129D02*
X17428268Y-28729177D01*
X17694935Y-28795844D02*
X17694935Y-28595844D01*
X17694935Y-28786320D02*
X17675887Y-28795844D01*
X17675887Y-28795844D02*
X17637792Y-28795844D01*
X17637792Y-28795844D02*
X17618745Y-28786320D01*
X17618745Y-28786320D02*
X17609221Y-28776796D01*
X17609221Y-28776796D02*
X17599697Y-28757748D01*
X17599697Y-28757748D02*
X17599697Y-28700606D01*
X17599697Y-28700606D02*
X17609221Y-28681558D01*
X17609221Y-28681558D02*
X17618745Y-28672034D01*
X17618745Y-28672034D02*
X17637792Y-28662510D01*
X17637792Y-28662510D02*
X17675887Y-28662510D01*
X17675887Y-28662510D02*
X17694935Y-28672034D01*
X17771126Y-28872034D02*
X17780649Y-28862510D01*
X17780649Y-28862510D02*
X17799697Y-28833939D01*
X17799697Y-28833939D02*
X17809221Y-28814891D01*
X17809221Y-28814891D02*
X17818745Y-28786320D01*
X17818745Y-28786320D02*
X17828268Y-28738701D01*
X17828268Y-28738701D02*
X17828268Y-28700606D01*
X17828268Y-28700606D02*
X17818745Y-28652987D01*
X17818745Y-28652987D02*
X17809221Y-28624415D01*
X17809221Y-28624415D02*
X17799697Y-28605368D01*
X17799697Y-28605368D02*
X17780649Y-28576796D01*
X17780649Y-28576796D02*
X17771126Y-28567272D01*
M02*
