M48
; DRILL file KiCad 10.0.1 date 2026-08-19T21:34:59
; FORMAT={-:-/ absolute / metric / decimal}
; #@! TF.CreationDate,2026-08-19T21:34:59-04:00
; #@! TF.GenerationSoftware,Kicad,Pcbnew,10.0.1
; #@! TF.FileFunction,Plated,1,6,PTH
FMAT,2
METRIC
; #@! TA.AperFunction,Plated,PTH,ViaDrill
T1C0.200
; #@! TA.AperFunction,Plated,PTH,ViaDrill
T2C0.300
; #@! TA.AperFunction,Plated,PTH,ViaDrill
T3C0.350
; #@! TA.AperFunction,Plated,PTH,ViaDrill
T4C0.400
; #@! TA.AperFunction,Plated,PTH,ViaDrill
T5C0.700
; #@! TA.AperFunction,Plated,PTH,ComponentDrill
T6C0.710
; #@! TA.AperFunction,Plated,PTH,ComponentDrill
T7C0.800
; #@! TA.AperFunction,Plated,PTH,ComponentDrill
T8C2.692
; #@! TA.AperFunction,Plated,PTH,ComponentDrill
T9C2.700
%
G90
G05
T1
X111.151Y-212.404
X111.151Y-214.404
X111.151Y-216.404
X111.151Y-218.404
X111.151Y-220.404
X111.151Y-222.404
X111.151Y-224.404
X111.151Y-226.404
X111.151Y-228.404
X111.151Y-230.404
X111.151Y-232.404
X111.151Y-234.404
X111.151Y-236.404
X111.151Y-238.404
X112.451Y-217.804
X112.651Y-231.604
X112.751Y-238.404
X112.951Y-227.104
X113.001Y-235.654
X113.151Y-220.904
X113.751Y-211.004
X114.151Y-214.904
X114.651Y-186.804
X114.651Y-238.404
X114.751Y-223.604
X114.851Y-233.204
X114.951Y-221.604
X116.651Y-186.804
X116.751Y-238.404
X116.851Y-227.404
X116.851Y-230.304
X116.951Y-217.204
X116.951Y-220.504
X117.751Y-196.804
X118.051Y-201.404
X118.051Y-205.104
X118.151Y-199.504
X118.151Y-203.304
X118.151Y-207.104
X118.201Y-235.354
X118.351Y-191.004
X118.651Y-186.804
X118.751Y-238.404
X119.051Y-197.004
X119.051Y-227.604
X119.151Y-221.804
X119.151Y-225.604
X119.251Y-223.604
X119.251Y-229.204
X119.451Y-190.904
X119.751Y-226.604
X119.911Y-229.864
X119.951Y-213.104
X120.151Y-225.504
X120.151Y-227.604
X120.231Y-231.214
X120.251Y-197.104
X120.251Y-216.604
X120.251Y-218.804
X120.251Y-219.904
X120.251Y-222.704
X120.251Y-224.154
X120.351Y-217.904
X120.451Y-189.104
X120.451Y-190.904
X120.451Y-229.904
X120.651Y-186.804
X120.651Y-228.704
X120.751Y-238.404
X121.209Y-229.465
X121.351Y-191.904
X121.351Y-197.804
X121.451Y-189.104
X121.451Y-190.904
X121.551Y-195.604
X121.551Y-201.904
X121.651Y-238.404
X121.798Y-192.704
X121.951Y-227.396
X122.151Y-198.704
X122.151Y-228.104
X122.351Y-225.491
X122.451Y-181.704
X122.451Y-189.104
X122.451Y-190.904
X122.651Y-186.804
X122.851Y-197.004
X122.851Y-224.904
X123.251Y-180.804
X123.251Y-182.404
X123.251Y-199.304
X123.351Y-226.204
X123.451Y-189.104
X123.451Y-190.904
X123.691Y-226.904
X123.751Y-197.604
X123.847Y-223.604
X123.851Y-222.304
X123.851Y-222.904
X124.051Y-217.304
X124.051Y-218.004
X124.151Y-214.804
X124.151Y-215.604
X124.156Y-224.09
X124.189Y-230.704
X124.251Y-218.969
X124.267Y-229.71
X124.301Y-228.304
X124.351Y-180.504
X124.351Y-212.304
X124.351Y-233.354
X124.351Y-241.104
X124.373Y-224.897
X124.401Y-232.504
X124.426Y-222.31
X124.426Y-225.59
X124.431Y-226.254
X124.447Y-221.483
X124.451Y-190.904
X124.551Y-189.104
X124.551Y-199.604
X124.651Y-215.104
X124.651Y-216.204
X124.651Y-218.297
X124.651Y-219.504
X124.751Y-242.404
X124.851Y-214.004
X125.051Y-197.904
X125.251Y-192.704
X125.351Y-214.404
X125.451Y-180.604
X125.451Y-189.104
X125.451Y-190.804
X125.451Y-234.754
X125.481Y-228.694
X125.588Y-222.248
X125.651Y-220.004
X125.651Y-233.904
X125.751Y-199.604
X125.769Y-227.186
X125.851Y-216.904
X125.931Y-215.004
X125.951Y-213.004
X126.001Y-229.611
X126.151Y-215.95
X126.151Y-233.804
X126.251Y-221.904
X126.269Y-226.986
X126.334Y-219.986
X126.351Y-242.904
X126.389Y-231.204
X126.451Y-189.104
X126.451Y-190.904
X126.451Y-197.904
X126.551Y-224.404
X126.751Y-212.104
X126.751Y-228.804
X126.79Y-234.11
X126.848Y-226.985
X126.851Y-214.904
X126.851Y-221.904
X126.951Y-213.404
X127.051Y-220.004
X127.151Y-212.604
X127.251Y-185.204
X127.251Y-188.104
X127.251Y-199.604
X127.351Y-202.804
X127.351Y-213.804
X127.451Y-189.104
X127.451Y-190.904
X127.451Y-221.704
X127.551Y-180.604
X127.551Y-181.904
X127.651Y-234.104
X127.751Y-214.204
X127.751Y-237.054
X127.951Y-197.904
X128.001Y-219.904
X128.004Y-219.116
X128.051Y-181.004
X128.051Y-233.604
X128.091Y-216.102
X128.129Y-223.96
X128.151Y-214.604
X128.234Y-229.521
X128.235Y-222.997
X128.251Y-226.04
X128.3Y-230.89
X128.351Y-242.904
X128.435Y-218.797
X128.451Y-189.104
X128.451Y-190.904
X128.451Y-199.604
X128.451Y-232.704
X128.573Y-229.86
X128.651Y-214.804
X128.704Y-237.456
X128.81Y-233.76
X128.835Y-216.71
X128.835Y-225.797
X128.851Y-204.604
X128.872Y-217.317
X128.951Y-228.504
X129.002Y-221.59
X129.051Y-207.904
X129.138Y-220.282
X129.251Y-215.704
X129.351Y-212.004
X129.451Y-189.104
X129.451Y-190.904
X129.451Y-197.904
X129.651Y-216.104
X129.751Y-204.104
X129.792Y-231.062
X129.851Y-199.604
X129.96Y-225.12
X129.995Y-231.665
X130.051Y-215.004
X130.101Y-234.804
X130.101Y-236.254
X130.151Y-222.604
X130.151Y-227.704
X130.151Y-233.404
X130.151Y-237.954
X130.245Y-224.245
X130.351Y-242.904
X130.451Y-189.104
X130.451Y-190.904
X130.451Y-215.704
X130.951Y-197.904
X131.051Y-199.604
X131.151Y-204.404
X131.251Y-186.204
X131.351Y-187.504
X131.451Y-190.904
X131.551Y-188.804
X131.651Y-235.154
X131.651Y-235.654
X131.701Y-216.354
X131.751Y-211.504
X131.751Y-236.133
X132.151Y-199.604
X132.151Y-202.004
X132.251Y-190.504
X132.251Y-196.804
X132.251Y-212.004
X132.351Y-242.904
X132.451Y-197.904
X132.551Y-187.904
X132.651Y-181.304
X132.651Y-184.304
X132.751Y-180.004
X133.151Y-178.004
X133.201Y-186.454
X133.251Y-190.404
X133.251Y-191.104
X133.251Y-199.604
X133.431Y-216.764
X133.451Y-189.504
X133.651Y-209.804
X133.751Y-187.304
X133.951Y-190.404
X133.951Y-191.104
X133.951Y-197.904
X134.051Y-210.304
X134.351Y-189.004
X134.351Y-242.904
X134.601Y-185.804
X134.751Y-199.604
X134.801Y-187.104
X135.151Y-184.304
X135.151Y-203.204
X135.251Y-182.704
X135.451Y-197.904
X135.551Y-191.204
X135.551Y-207.804
X135.551Y-230.104
X135.651Y-187.004
X135.651Y-236.404
X136.151Y-185.454
X136.151Y-208.204
X136.251Y-178.304
X136.251Y-199.604
X136.251Y-210.507
X136.351Y-242.904
X136.526Y-236.329
X136.551Y-195.004
X136.901Y-186.754
X136.951Y-184.204
X136.951Y-197.904
X137.151Y-201.904
X137.151Y-236.504
X137.351Y-195.355
X137.451Y-209.404
X137.551Y-197.204
X137.751Y-199.604
X137.83Y-244.78
X138.005Y-241.312
X138.02Y-242.04
X138.02Y-242.61
X138.051Y-194.604
X138.07Y-240.73
X138.251Y-178.304
X138.301Y-214.304
X138.399Y-193.004
X138.451Y-197.904
X138.551Y-195.904
X138.851Y-245.504
X138.991Y-193.244
X139.201Y-213.404
X139.251Y-195.804
X139.251Y-199.604
X139.351Y-215.404
X139.451Y-184.154
X139.501Y-183.454
X139.501Y-184.604
X139.585Y-241.68
X139.651Y-207.504
X139.698Y-239.98
X139.73Y-238.42
X139.951Y-197.904
X139.961Y-239.524
X140.001Y-183.454
X140.251Y-178.304
X140.251Y-193.204
X140.251Y-212.304
X140.251Y-214.504
X140.251Y-244.504
X140.31Y-238.26
X140.36Y-241.59
X140.451Y-183.454
X140.451Y-244.004
X140.47Y-241.05
X140.751Y-186.804
X140.751Y-191.104
X140.751Y-199.604
X140.801Y-189.054
X140.931Y-183.524
X140.951Y-202.704
X141.001Y-185.204
X141.001Y-211.554
X141.049Y-194.803
X141.101Y-215.304
X141.351Y-193.704
X141.351Y-213.404
X141.451Y-182.054
X141.451Y-197.904
X141.551Y-189.104
X141.651Y-187.404
X141.651Y-190.704
X141.66Y-239.28
X141.869Y-216.785
X142.151Y-212.604
X142.201Y-214.204
X142.251Y-199.604
X142.401Y-184.904
X142.551Y-221.104
X142.651Y-243.004
X142.651Y-243.604
X142.751Y-242.304
X142.816Y-179.775
X142.851Y-204.304
X142.951Y-197.904
X143.163Y-211.116
X143.251Y-186.704
X143.251Y-187.404
X143.251Y-189.104
X143.251Y-190.704
X143.451Y-180.104
X143.451Y-221.504
X143.502Y-211.455
X143.751Y-199.604
X143.851Y-211.804
X143.863Y-234.216
X143.997Y-179.749
X144.035Y-180.743
X144.151Y-191.504
X144.151Y-212.204
X144.251Y-178.304
X144.251Y-232.304
X144.251Y-245.804
X144.351Y-201.704
X144.351Y-204.504
X144.351Y-221.304
X144.405Y-184.957
X144.451Y-197.904
X144.492Y-195.164
X144.551Y-211.304
X144.851Y-187.404
X144.851Y-189.104
X144.851Y-190.704
X144.901Y-181.854
X145.151Y-213.004
X145.151Y-244.304
X145.251Y-199.604
X145.401Y-181.854
X145.451Y-186.704
X145.641Y-216.6
X145.651Y-218.904
X145.651Y-234.204
X145.751Y-212.404
X145.81Y-178.27
X145.851Y-238.904
X145.901Y-181.854
X145.951Y-197.904
X146.051Y-244.904
X146.051Y-245.604
X146.251Y-221.204
X146.251Y-238.504
X146.451Y-212.304
X146.451Y-215.904
X146.551Y-233.404
X146.551Y-239.604
X146.6Y-231.0
X146.65Y-228.05
X146.651Y-232.104
X146.651Y-238.104
X146.701Y-238.704
X146.751Y-181.004
X146.751Y-194.604
X146.751Y-199.604
X146.851Y-213.404
X146.851Y-218.204
X146.933Y-215.304
X146.949Y-182.451
X146.951Y-214.704
X146.973Y-195.273
X147.051Y-232.604
X147.151Y-225.404
X147.316Y-179.041
X147.351Y-194.104
X147.451Y-197.904
X147.451Y-220.704
X147.551Y-235.304
X147.751Y-202.604
X147.901Y-190.804
X147.951Y-221.004
X148.051Y-213.804
X148.251Y-178.304
X148.251Y-190.004
X148.251Y-199.604
X148.251Y-244.504
X148.301Y-185.604
X148.301Y-188.554
X148.36Y-245.87
X148.401Y-190.804
X148.548Y-195.244
X148.551Y-235.004
X148.751Y-189.954
X148.951Y-190.804
X148.951Y-197.904
X149.251Y-202.604
X149.401Y-189.954
X149.451Y-190.804
X149.451Y-235.504
X149.451Y-237.952
X149.451Y-238.604
X149.551Y-180.604
X149.551Y-223.504
X149.551Y-224.104
X149.551Y-224.804
X149.551Y-231.404
X149.551Y-233.904
X149.751Y-199.604
X149.851Y-181.804
X149.927Y-244.38
X149.951Y-214.204
X150.151Y-190.004
X150.201Y-193.604
X150.251Y-178.304
X150.251Y-186.904
X150.251Y-187.904
X150.251Y-189.304
X150.251Y-192.604
X150.301Y-191.704
X150.401Y-241.704
X150.431Y-239.974
X150.451Y-197.904
X150.551Y-190.404
X150.65Y-245.73
X150.651Y-193.204
X150.651Y-203.404
X150.651Y-228.904
X150.751Y-217.504
X150.801Y-192.204
X150.851Y-187.404
X150.851Y-188.904
X150.851Y-191.204
X150.901Y-185.951
X151.051Y-227.504
X151.251Y-188.404
X151.251Y-215.204
X151.251Y-215.904
X151.351Y-185.651
X151.351Y-209.704
X151.451Y-198.204
X151.451Y-225.604
X151.551Y-185.204
X151.551Y-201.104
X151.599Y-207.78
X151.601Y-186.404
X151.751Y-195.704
X151.851Y-189.504
X151.951Y-215.204
X151.951Y-215.904
X152.001Y-238.954
X152.231Y-242.874
X152.251Y-178.304
X152.251Y-196.104
X152.251Y-245.704
X152.271Y-240.754
X152.351Y-184.804
X152.551Y-189.404
X152.551Y-196.754
X152.601Y-203.054
X152.601Y-203.854
X152.651Y-183.804
X152.651Y-188.304
X152.751Y-201.704
X152.951Y-199.504
X152.951Y-229.004
X152.951Y-230.404
X152.951Y-231.604
X153.151Y-203.054
X153.151Y-203.854
X153.151Y-216.804
X153.301Y-238.104
X153.32Y-189.38
X153.371Y-239.454
X153.551Y-216.304
X153.551Y-217.304
X153.751Y-202.304
X153.751Y-216.804
X153.801Y-241.554
X153.901Y-199.854
X153.951Y-207.504
X153.98Y-189.42
X154.101Y-198.504
X154.151Y-216.304
X154.151Y-217.304
X154.201Y-242.954
X154.251Y-178.304
X154.251Y-181.604
X154.251Y-209.304
X154.251Y-216.804
X154.251Y-229.104
X154.251Y-230.404
X154.251Y-231.604
X154.251Y-245.704
X154.451Y-226.904
X154.681Y-197.594
X154.751Y-189.304
X155.201Y-238.004
X155.214Y-240.571
X155.251Y-198.454
X155.251Y-200.004
X155.251Y-209.704
X155.451Y-196.654
X155.451Y-197.404
X155.451Y-232.904
X155.451Y-234.104
X155.551Y-231.604
X155.601Y-242.304
X155.651Y-214.204
X155.751Y-197.004
X155.751Y-216.704
X156.051Y-196.604
X156.051Y-197.404
X156.051Y-210.004
X156.251Y-178.304
X156.251Y-245.704
X156.301Y-198.954
X156.351Y-197.004
X156.401Y-198.154
X156.484Y-240.524
X156.501Y-199.804
X156.501Y-238.004
X156.601Y-196.604
X156.601Y-197.404
X156.63Y-179.83
X156.651Y-207.904
X156.751Y-231.604
X156.751Y-232.904
X156.801Y-242.704
X156.851Y-215.104
X156.851Y-215.904
X157.041Y-241.134
X157.251Y-235.354
X157.32Y-190.22
X157.451Y-206.555
X157.551Y-215.104
X157.551Y-215.904
X157.701Y-238.004
X157.754Y-240.452
X157.8Y-184.38
X158.051Y-231.604
X158.051Y-232.904
X158.118Y-235.777
X158.151Y-207.004
X158.191Y-196.924
X158.251Y-178.304
X158.251Y-245.704
X158.26Y-185.45
X158.45Y-180.34
X158.51Y-184.25
X158.531Y-197.274
X158.581Y-242.164
X158.66Y-189.29
X158.738Y-216.804
X158.774Y-196.43
X158.888Y-240.553
X159.001Y-197.504
X159.04Y-184.19
X159.051Y-197.054
X159.101Y-238.004
X159.11Y-185.31
X159.131Y-241.384
X159.151Y-216.404
X159.18Y-180.79
X159.324Y-196.43
X159.336Y-208.296
X159.351Y-216.904
X159.351Y-231.604
X159.351Y-232.904
X159.651Y-215.404
X159.651Y-234.237
X159.684Y-206.037
X159.751Y-216.104
X159.751Y-216.604
X159.801Y-196.404
X159.851Y-207.604
X159.93Y-180.82
X160.033Y-207.003
X160.04Y-184.99
X160.06Y-184.04
X160.151Y-234.237
X160.22Y-185.59
X160.249Y-203.895
X160.251Y-178.304
X160.251Y-245.704
X160.301Y-201.804
X160.389Y-199.425
X160.531Y-196.452
X160.551Y-227.904
X160.551Y-229.004
X160.551Y-230.304
X160.651Y-231.604
X160.651Y-232.904
X160.751Y-238.204
X160.79Y-184.07
X160.951Y-209.904
X161.001Y-200.154
X161.151Y-201.854
X161.151Y-203.454
X161.151Y-214.304
X161.169Y-206.036
X161.251Y-217.004
X161.351Y-187.904
X161.37Y-178.94
X161.451Y-188.404
X161.67Y-180.77
X161.684Y-235.777
X161.751Y-209.904
X161.851Y-188.085
X161.851Y-227.904
X161.851Y-229.004
X161.851Y-230.304
X161.851Y-231.604
X161.851Y-232.904
X161.881Y-238.834
X161.901Y-197.454
X162.251Y-178.304
X162.251Y-235.404
X162.251Y-245.704
X162.293Y-188.442
X162.351Y-215.404
X162.351Y-216.104
X162.577Y-186.605
X162.651Y-200.204
X162.651Y-201.854
X162.651Y-203.404
X162.681Y-238.034
X162.751Y-209.904
X162.901Y-241.054
X162.931Y-239.824
X162.951Y-229.004
X163.039Y-199.455
X163.051Y-215.404
X163.051Y-216.104
X163.051Y-230.304
X163.051Y-231.604
X163.051Y-232.904
X163.051Y-241.904
X163.481Y-238.734
X163.671Y-242.144
X163.691Y-243.054
X163.827Y-184.105
X163.869Y-204.355
X163.971Y-241.444
X164.055Y-239.229
X164.16Y-179.394
X164.171Y-240.944
X164.171Y-242.144
X164.211Y-243.054
X164.251Y-178.304
X164.251Y-217.004
X164.251Y-245.704
X164.301Y-200.204
X164.301Y-203.454
X164.351Y-201.854
X164.351Y-230.404
X164.351Y-231.604
X164.351Y-232.904
X164.351Y-234.204
X164.374Y-239.547
X164.651Y-216.704
X164.801Y-238.704
X164.851Y-217.204
X164.951Y-181.604
X164.969Y-202.455
X165.027Y-185.33
X165.069Y-199.655
X165.077Y-183.805
X165.251Y-178.004
X165.327Y-184.48
X165.351Y-215.504
X165.351Y-216.204
X165.351Y-216.704
X165.451Y-217.204
X165.551Y-182.404
X165.552Y-185.755
X165.651Y-230.504
X165.651Y-231.604
X165.651Y-245.704
X165.702Y-183.48
X165.702Y-184.98
X165.721Y-244.924
X165.851Y-206.204
X165.951Y-238.804
X166.027Y-184.28
X166.027Y-186.43
X166.177Y-185.755
X166.251Y-206.704
X166.251Y-244.854
X166.252Y-183.58
X166.427Y-185.13
X166.451Y-198.454
X166.451Y-214.007
X166.651Y-205.304
X166.677Y-184.33
X166.701Y-208.104
X166.751Y-186.304
X166.751Y-203.704
X166.751Y-204.204
X166.851Y-207.284
X166.851Y-238.804
X166.951Y-183.504
X166.951Y-214.304
X166.952Y-185.68
X166.979Y-217.254
X167.051Y-204.704
X167.051Y-215.104
X167.051Y-215.704
X167.051Y-231.604
X167.151Y-205.804
X167.151Y-216.504
X167.202Y-185.08
X167.251Y-184.304
X167.251Y-230.804
X167.649Y-202.655
X167.651Y-201.255
X167.751Y-180.004
X167.851Y-178.004
X167.881Y-178.754
X167.991Y-184.014
X168.149Y-202.705
X168.33Y-192.23
X168.351Y-232.804
X168.551Y-184.404
X168.551Y-238.904
X168.651Y-202.104
X168.699Y-202.755
X168.751Y-201.604
X168.78Y-192.66
X168.827Y-179.68
X168.951Y-209.504
X169.051Y-210.404
X169.351Y-187.404
X169.351Y-188.104
X169.351Y-239.004
X169.36Y-193.23
X169.451Y-183.304
X169.505Y-201.45
X169.551Y-209.904
X169.751Y-178.204
X169.851Y-214.204
X169.93Y-193.81
X169.951Y-181.704
X169.951Y-216.104
X170.051Y-215.204
X170.051Y-245.704
X170.151Y-217.304
X170.151Y-241.604
X170.151Y-242.604
X170.151Y-243.604
X170.251Y-179.704
X170.351Y-186.604
X170.43Y-194.28
X170.451Y-243.104
X170.651Y-244.404
X170.951Y-179.248
X170.98Y-194.81
X171.051Y-210.404
X171.051Y-232.104
X171.148Y-221.704
X171.251Y-200.204
X171.351Y-178.104
X171.351Y-196.804
X171.351Y-229.604
X171.451Y-208.704
X171.451Y-217.604
X171.541Y-180.955
X171.551Y-190.804
X171.551Y-198.404
X171.551Y-212.304
X171.551Y-213.804
X171.551Y-223.704
X171.551Y-236.104
X171.651Y-195.504
X171.651Y-199.604
X171.651Y-200.704
X171.651Y-204.104
X171.651Y-231.004
X171.651Y-233.304
X171.751Y-189.104
X171.751Y-215.904
X171.751Y-224.804
X171.851Y-193.004
X171.851Y-194.204
X171.851Y-234.704
X172.051Y-183.304
X172.051Y-245.704
X172.551Y-200.404
X172.651Y-215.804
X172.651Y-239.804
X172.706Y-236.139
X172.751Y-189.504
X172.751Y-204.304
X172.751Y-207.304
X172.751Y-217.104
X172.751Y-223.704
X172.751Y-228.404
X172.751Y-229.804
X172.751Y-232.304
X172.751Y-233.604
X172.751Y-234.804
X172.757Y-215.004
X172.801Y-197.394
X172.811Y-200.854
X172.851Y-198.404
X172.851Y-199.604
X172.851Y-202.404
X172.851Y-208.704
X172.851Y-211.204
X172.851Y-213.504
X172.851Y-219.304
X172.851Y-221.704
X172.851Y-222.404
X172.851Y-226.904
X172.851Y-231.004
X172.951Y-191.604
X172.951Y-218.104
X173.051Y-194.304
X173.051Y-224.804
X173.051Y-244.204
X173.351Y-190.904
X173.451Y-237.304
X173.751Y-178.004
X173.855Y-221.0
X173.951Y-204.304
X173.951Y-224.704
X173.971Y-197.344
X174.001Y-195.954
X174.051Y-189.404
X174.051Y-191.604
X174.051Y-192.804
X174.051Y-194.104
X174.051Y-207.304
X174.051Y-208.504
X174.051Y-209.904
X174.051Y-214.804
X174.051Y-215.804
X174.051Y-218.204
X174.051Y-220.104
X174.051Y-222.204
X174.051Y-227.204
X174.051Y-230.904
X174.051Y-245.704
X174.106Y-232.209
X174.151Y-205.804
X174.151Y-212.204
X174.151Y-213.504
X174.151Y-217.104
X174.151Y-228.304
X174.151Y-233.304
X174.151Y-234.404
X174.251Y-178.304
X174.251Y-190.404
X174.251Y-225.604
X174.251Y-229.604
X174.751Y-215.804
X175.251Y-195.954
X175.251Y-199.704
X175.251Y-208.404
X175.251Y-212.104
X175.251Y-224.704
X175.251Y-228.504
X175.351Y-190.304
X175.351Y-197.304
X175.351Y-200.804
X175.351Y-203.304
X175.351Y-215.704
X175.351Y-217.104
X175.351Y-218.204
X175.351Y-218.804
X175.351Y-219.604
X175.351Y-222.204
X175.351Y-227.104
X175.351Y-229.604
X175.451Y-205.804
X175.451Y-209.604
X175.451Y-213.404
X175.451Y-221.004
X175.451Y-230.804
X175.551Y-185.804
X175.551Y-207.104
X175.551Y-225.704
X175.951Y-237.604
X176.051Y-232.204
X176.051Y-245.704
X176.351Y-215.504
X176.451Y-191.704
X176.451Y-227.104
X176.486Y-189.01
X176.551Y-195.704
X176.551Y-199.404
X176.551Y-205.504
X176.551Y-207.004
X176.551Y-211.904
X176.551Y-213.404
X176.551Y-218.204
X176.551Y-222.204
X176.651Y-193.004
X176.651Y-194.704
X176.651Y-219.604
X176.651Y-224.304
X176.751Y-198.204
X176.751Y-200.704
X176.751Y-220.604
X176.751Y-225.704
X176.751Y-228.204
X176.751Y-229.504
X176.751Y-231.004
X176.751Y-232.104
X176.851Y-190.404
X176.851Y-196.804
X176.851Y-215.904
X177.001Y-236.184
X177.051Y-178.204
X177.051Y-234.804
X177.451Y-233.404
X177.751Y-200.504
X177.751Y-207.004
X177.751Y-210.604
X177.851Y-190.404
X177.851Y-196.704
X177.851Y-208.404
X177.851Y-217.104
X177.851Y-218.304
X177.851Y-221.004
X177.851Y-224.704
X177.951Y-191.904
X177.951Y-198.104
X177.951Y-199.304
X177.951Y-205.604
X177.951Y-215.404
X177.951Y-219.604
X177.951Y-222.904
X177.951Y-227.104
X177.951Y-240.704
X178.051Y-194.304
X178.051Y-195.604
X178.051Y-202.004
X178.051Y-203.204
X178.051Y-211.904
X178.051Y-214.304
X178.051Y-229.504
X178.051Y-245.704
X178.251Y-178.304
X178.451Y-237.304
X178.98Y-190.294
X179.051Y-181.304
X179.051Y-196.904
X179.051Y-205.604
X179.051Y-216.904
X179.051Y-232.104
X179.101Y-213.254
X179.101Y-218.304
X179.101Y-234.754
X179.151Y-186.604
X179.151Y-200.504
X179.151Y-203.004
X179.151Y-210.504
X179.151Y-211.704
X179.151Y-214.454
X179.151Y-220.854
X179.151Y-223.804
X179.151Y-225.854
X179.151Y-242.604
X179.201Y-228.404
X179.251Y-204.004
X179.251Y-204.604
X179.351Y-207.004
X179.351Y-208.304
X179.601Y-240.254
X179.851Y-197.919
X179.901Y-236.144
X179.951Y-213.104
X180.051Y-245.704
X180.251Y-178.304
X180.251Y-189.104
X180.351Y-190.304
X180.351Y-191.704
X180.351Y-200.404
X180.351Y-205.604
X180.351Y-215.754
X180.351Y-224.654
X180.351Y-228.304
X180.351Y-229.654
X180.351Y-230.954
X180.377Y-198.266
X180.401Y-218.254
X180.401Y-219.504
X180.401Y-222.104
X180.401Y-233.554
X180.451Y-187.804
X180.451Y-194.204
X180.451Y-206.804
X180.451Y-209.404
X180.451Y-210.704
X180.451Y-226.904
X180.451Y-237.304
X180.551Y-204.404
X180.551Y-212.004
X180.601Y-236.054
X180.951Y-186.304
X181.351Y-196.704
X181.451Y-198.004
X181.451Y-245.704
X181.551Y-199.204
X181.551Y-200.504
X181.551Y-222.104
X181.601Y-224.604
X181.651Y-187.804
X181.651Y-195.404
X181.651Y-203.504
X181.651Y-204.304
X181.651Y-205.604
X181.651Y-206.904
X181.651Y-208.404
X181.651Y-211.954
X181.651Y-217.004
X181.651Y-228.454
X181.701Y-213.104
X181.701Y-214.454
X181.701Y-223.354
X181.701Y-234.804
X181.751Y-183.104
X181.751Y-194.104
X181.751Y-232.104
X182.251Y-178.304
X182.751Y-189.104
X182.851Y-196.804
X182.851Y-199.204
X182.851Y-218.204
X182.851Y-219.804
X182.851Y-236.004
X182.851Y-237.304
X182.901Y-220.804
X182.951Y-195.404
X182.951Y-198.004
X182.951Y-204.404
X182.951Y-205.504
X182.951Y-208.104
X182.951Y-211.004
X182.951Y-212.004
X182.951Y-214.604
X182.951Y-217.004
X182.951Y-222.054
X182.951Y-224.604
X182.951Y-227.004
X182.951Y-228.404
X182.951Y-229.704
X182.951Y-230.904
X182.951Y-234.704
X183.051Y-200.404
X183.051Y-206.904
X183.051Y-233.404
X184.051Y-245.704
X184.251Y-178.304
X184.251Y-180.004
X184.751Y-200.504
X184.851Y-196.804
X184.861Y-239.494
X184.951Y-199.804
X185.451Y-245.704
X185.641Y-233.964
X185.651Y-203.904
X185.651Y-205.904
X185.651Y-207.904
X185.651Y-209.904
X185.651Y-211.904
X185.651Y-213.904
X185.651Y-216.404
X185.651Y-218.904
X185.651Y-221.904
X185.651Y-223.904
X185.651Y-226.904
X185.651Y-229.404
X185.651Y-231.904
X185.651Y-235.904
X185.651Y-237.904
X185.651Y-239.904
X185.651Y-241.904
X185.651Y-243.804
X185.851Y-178.304
X185.851Y-179.904
X185.851Y-181.904
X185.851Y-183.904
X185.851Y-185.904
X185.851Y-187.904
X185.851Y-189.904
X185.851Y-191.904
X185.851Y-193.904
X185.851Y-195.904
X185.851Y-197.904
X185.851Y-199.904
X185.851Y-201.904
T2
X126.851Y-208.404
X128.451Y-208.604
X138.355Y-187.449
X157.701Y-200.204
X161.327Y-183.53
X161.327Y-186.605
X163.952Y-182.855
X169.551Y-180.404
T3
X134.451Y-225.204
X141.885Y-237.337
X179.151Y-192.801
T4
X122.551Y-201.704
X125.551Y-208.404
X126.051Y-205.004
X126.051Y-207.004
X129.951Y-208.952
X131.351Y-207.304
X131.751Y-230.604
X131.784Y-224.604
X132.31Y-203.145
X133.151Y-201.404
X134.331Y-194.244
X134.451Y-230.204
X134.751Y-193.004
X134.851Y-211.904
X135.301Y-233.254
X135.451Y-231.104
X135.691Y-195.054
X135.751Y-211.004
X135.851Y-225.804
X136.051Y-213.404
X136.451Y-201.404
X136.751Y-210.004
X138.251Y-209.004
X138.451Y-217.804
X138.501Y-184.854
X139.751Y-218.604
X139.763Y-204.704
X139.951Y-221.504
X139.951Y-234.086
X139.951Y-236.704
X140.151Y-225.154
X140.151Y-229.504
X140.351Y-209.204
X140.851Y-221.704
X140.851Y-236.804
X141.001Y-228.104
X141.851Y-221.804
X141.851Y-233.304
X142.851Y-210.604
X142.851Y-230.104
X142.951Y-227.104
X143.051Y-216.804
X143.351Y-233.904
X143.551Y-241.304
X143.651Y-244.404
X143.951Y-218.204
X144.251Y-213.404
X146.051Y-214.104
X146.151Y-241.004
X146.251Y-226.704
X146.451Y-201.404
X146.451Y-204.004
X147.01Y-207.045
X147.051Y-228.704
X148.451Y-205.604
X148.751Y-241.304
X149.451Y-239.304
X149.851Y-228.104
X149.951Y-225.404
X150.051Y-205.704
X150.351Y-226.704
X150.651Y-204.604
X150.751Y-235.204
X150.851Y-202.504
X151.651Y-184.004
X151.851Y-235.204
X152.651Y-181.004
X152.651Y-233.404
X152.651Y-234.204
X152.751Y-235.304
X153.901Y-205.754
X154.843Y-184.39
X157.901Y-197.854
X165.351Y-238.104
X166.751Y-245.304
X167.151Y-233.604
X167.151Y-234.704
X167.151Y-235.904
X167.651Y-238.804
X168.351Y-235.904
X169.451Y-235.904
X169.651Y-245.204
X171.651Y-186.504
X172.851Y-187.804
X173.451Y-185.904
X174.651Y-185.904
X175.351Y-187.804
X176.464Y-186.104
X176.551Y-187.804
X177.851Y-187.804
X179.051Y-194.104
X179.06Y-189.03
X181.551Y-191.404
X181.551Y-192.904
X182.851Y-190.304
X182.851Y-194.004
X184.051Y-182.504
T5
X122.451Y-215.104
X137.901Y-190.854
X138.351Y-179.704
X141.451Y-218.631
X141.951Y-224.704
X144.133Y-194.272
X144.751Y-218.704
X148.701Y-183.654
X149.251Y-179.104
X154.051Y-196.804
X157.201Y-203.554
X163.456Y-207.209
X163.983Y-197.31
X166.251Y-216.304
X167.801Y-207.946
T6
X154.579Y-238.641
X154.579Y-239.911
X155.849Y-238.641
X155.849Y-239.911
X157.119Y-238.641
X157.119Y-239.911
X158.389Y-238.641
X158.389Y-239.911
X159.659Y-238.641
X159.659Y-239.911
T7
X111.081Y-187.634
X111.081Y-190.174
X111.081Y-192.634
X111.081Y-195.174
X111.081Y-197.634
X111.081Y-200.174
X111.081Y-202.134
X111.081Y-204.674
X111.081Y-206.634
X111.081Y-209.174
X112.351Y-188.904
X112.351Y-193.904
X112.351Y-198.904
X112.351Y-203.404
X112.351Y-207.904
X113.621Y-187.634
X113.621Y-190.174
X113.621Y-192.634
X113.621Y-195.174
X113.621Y-197.634
X113.621Y-200.174
X113.621Y-202.134
X113.621Y-204.674
X113.621Y-206.634
X113.621Y-209.174
T8
X175.819Y-180.408
X175.819Y-243.4
T9
X121.251Y-184.354
X121.251Y-240.904
M30
