%TF.GenerationSoftware,KiCad,Pcbnew,(7.0.0)*%
%TF.CreationDate,2023-04-04T09:59:10-04:00*%
%TF.ProjectId,bracket-led,62726163-6b65-4742-9d6c-65642e6b6963,A*%
%TF.SameCoordinates,Original*%
%TF.FileFunction,Soldermask,Bot*%
%TF.FilePolarity,Negative*%
%FSLAX46Y46*%
G04 Gerber Fmt 4.6, Leading zero omitted, Abs format (unit mm)*
G04 Created by KiCad (PCBNEW (7.0.0)) date 2023-04-04 09:59:10*
%MOMM*%
%LPD*%
G01*
G04 APERTURE LIST*
%ADD10C,1.168400*%
G04 APERTURE END LIST*
D10*
%TO.C,H2*%
X256519200Y-170677760D03*
X253979200Y-170677760D03*
%TD*%
%TO.C,H1*%
X261519200Y-170677760D03*
X258979200Y-170677760D03*
%TD*%
%TO.C,H2*%
X229519200Y-170677760D03*
X226979200Y-170677760D03*
%TD*%
%TO.C,H1*%
X234519200Y-170677760D03*
X231979200Y-170677760D03*
%TD*%
%TO.C,H2*%
X202719200Y-170677760D03*
X200179200Y-170677760D03*
%TD*%
%TO.C,H1*%
X207719200Y-170677760D03*
X205179200Y-170677760D03*
%TD*%
%TO.C,H2*%
X175519200Y-170677760D03*
X172979200Y-170677760D03*
%TD*%
%TO.C,H1*%
X180519200Y-170677760D03*
X177979200Y-170677760D03*
%TD*%
%TO.C,H2*%
X256519200Y-161677760D03*
X253979200Y-161677760D03*
%TD*%
%TO.C,H1*%
X261519200Y-161677760D03*
X258979200Y-161677760D03*
%TD*%
%TO.C,H2*%
X229519200Y-161677760D03*
X226979200Y-161677760D03*
%TD*%
%TO.C,H1*%
X234519200Y-161677760D03*
X231979200Y-161677760D03*
%TD*%
%TO.C,H2*%
X202719200Y-161677760D03*
X200179200Y-161677760D03*
%TD*%
%TO.C,H1*%
X207719200Y-161677760D03*
X205179200Y-161677760D03*
%TD*%
%TO.C,H2*%
X175519200Y-161677760D03*
X172979200Y-161677760D03*
%TD*%
%TO.C,H1*%
X180519200Y-161677760D03*
X177979200Y-161677760D03*
%TD*%
%TO.C,H2*%
X256519200Y-152677760D03*
X253979200Y-152677760D03*
%TD*%
%TO.C,H1*%
X261519200Y-152677760D03*
X258979200Y-152677760D03*
%TD*%
%TO.C,H2*%
X229519200Y-152677760D03*
X226979200Y-152677760D03*
%TD*%
%TO.C,H1*%
X234519200Y-152677760D03*
X231979200Y-152677760D03*
%TD*%
%TO.C,H2*%
X202719200Y-152677760D03*
X200179200Y-152677760D03*
%TD*%
%TO.C,H1*%
X207719200Y-152677760D03*
X205179200Y-152677760D03*
%TD*%
%TO.C,H2*%
X175519200Y-152677760D03*
X172979200Y-152677760D03*
%TD*%
%TO.C,H1*%
X180519200Y-152677760D03*
X177979200Y-152677760D03*
%TD*%
%TO.C,H2*%
X256519200Y-143677760D03*
X253979200Y-143677760D03*
%TD*%
%TO.C,H1*%
X261519200Y-143677760D03*
X258979200Y-143677760D03*
%TD*%
%TO.C,H2*%
X229519200Y-143677760D03*
X226979200Y-143677760D03*
%TD*%
%TO.C,H1*%
X234519200Y-143677760D03*
X231979200Y-143677760D03*
%TD*%
%TO.C,H2*%
X202519200Y-143677760D03*
X199979200Y-143677760D03*
%TD*%
%TO.C,H1*%
X207519200Y-143677760D03*
X204979200Y-143677760D03*
%TD*%
%TO.C,H2*%
X175519200Y-143677760D03*
X172979200Y-143677760D03*
%TD*%
%TO.C,H1*%
X180519200Y-143677760D03*
X177979200Y-143677760D03*
%TD*%
%TO.C,H2*%
X175519200Y-134677760D03*
X172979200Y-134677760D03*
%TD*%
%TO.C,H1*%
X180519200Y-134677760D03*
X177979200Y-134677760D03*
%TD*%
%TO.C,H2*%
X202519200Y-134877760D03*
X199979200Y-134877760D03*
%TD*%
%TO.C,H1*%
X207519200Y-134877760D03*
X204979200Y-134877760D03*
%TD*%
%TO.C,H2*%
X229519200Y-134877760D03*
X226979200Y-134877760D03*
%TD*%
%TO.C,H1*%
X234519200Y-134877760D03*
X231979200Y-134877760D03*
%TD*%
%TO.C,H2*%
X256519200Y-134877760D03*
X253979200Y-134877760D03*
%TD*%
%TO.C,H1*%
X261519200Y-134877760D03*
X258979200Y-134877760D03*
%TD*%
%TO.C,H2*%
X256519200Y-125677760D03*
X253979200Y-125677760D03*
%TD*%
%TO.C,H1*%
X261519200Y-125677760D03*
X258979200Y-125677760D03*
%TD*%
%TO.C,H2*%
X229519200Y-125677760D03*
X226979200Y-125677760D03*
%TD*%
%TO.C,H1*%
X234519200Y-125677760D03*
X231979200Y-125677760D03*
%TD*%
%TO.C,H2*%
X202519200Y-125677760D03*
X199979200Y-125677760D03*
%TD*%
%TO.C,H1*%
X207519200Y-125677760D03*
X204979200Y-125677760D03*
%TD*%
%TO.C,H1*%
X180519200Y-125677760D03*
X177979200Y-125677760D03*
%TD*%
%TO.C,H2*%
X175519200Y-125677760D03*
X172979200Y-125677760D03*
%TD*%
M02*
