%TF.GenerationSoftware,KiCad,Pcbnew,(7.0.0)*%
%TF.CreationDate,2023-04-04T09:59:10-04:00*%
%TF.ProjectId,bracket-led,62726163-6b65-4742-9d6c-65642e6b6963,A*%
%TF.SameCoordinates,Original*%
%TF.FileFunction,Profile,NP*%
%FSLAX46Y46*%
G04 Gerber Fmt 4.6, Leading zero omitted, Abs format (unit mm)*
G04 Created by KiCad (PCBNEW (7.0.0)) date 2023-04-04 09:59:10*
%MOMM*%
%LPD*%
G01*
G04 APERTURE LIST*
%TA.AperFunction,Profile*%
%ADD10C,0.100000*%
%TD*%
%TA.AperFunction,Profile*%
%ADD11C,0.050000*%
%TD*%
%ADD12C,0.150000*%
G04 APERTURE END LIST*
D10*
X185949200Y-165277760D02*
X185949200Y-174277760D01*
D11*
X138949200Y-100277760D02*
X286949200Y-100277760D01*
X286949200Y-100277760D02*
X286949200Y-194277760D01*
X286949200Y-194277760D02*
X138949200Y-194277760D01*
X138949200Y-194277760D02*
X138949200Y-100277760D01*
D10*
X185949200Y-165277760D02*
X212949200Y-165277760D01*
X158949200Y-165277760D02*
X185949200Y-165277760D01*
X185949200Y-174277760D02*
X158949200Y-174277760D01*
X158949200Y-165277760D02*
X158949200Y-174277760D01*
X212949200Y-174277760D02*
X185949200Y-174277760D01*
X185949200Y-165277760D02*
X185949200Y-174277760D01*
X212949200Y-165277760D02*
X239949200Y-165277760D01*
X212949200Y-165277760D02*
X212949200Y-174277760D01*
D12*
X127044438Y-147060140D02*
X127377771Y-148060140D01*
X127377771Y-148060140D02*
X127711104Y-147060140D01*
X128044438Y-147679188D02*
X128806343Y-147679188D01*
X129853961Y-147964902D02*
X129806342Y-148012521D01*
X129806342Y-148012521D02*
X129663485Y-148060140D01*
X129663485Y-148060140D02*
X129568247Y-148060140D01*
X129568247Y-148060140D02*
X129425390Y-148012521D01*
X129425390Y-148012521D02*
X129330152Y-147917283D01*
X129330152Y-147917283D02*
X129282533Y-147822045D01*
X129282533Y-147822045D02*
X129234914Y-147631569D01*
X129234914Y-147631569D02*
X129234914Y-147488712D01*
X129234914Y-147488712D02*
X129282533Y-147298236D01*
X129282533Y-147298236D02*
X129330152Y-147202998D01*
X129330152Y-147202998D02*
X129425390Y-147107760D01*
X129425390Y-147107760D02*
X129568247Y-147060140D01*
X129568247Y-147060140D02*
X129663485Y-147060140D01*
X129663485Y-147060140D02*
X129806342Y-147107760D01*
X129806342Y-147107760D02*
X129853961Y-147155379D01*
X130282533Y-147060140D02*
X130282533Y-147869664D01*
X130282533Y-147869664D02*
X130330152Y-147964902D01*
X130330152Y-147964902D02*
X130377771Y-148012521D01*
X130377771Y-148012521D02*
X130473009Y-148060140D01*
X130473009Y-148060140D02*
X130663485Y-148060140D01*
X130663485Y-148060140D02*
X130758723Y-148012521D01*
X130758723Y-148012521D02*
X130806342Y-147964902D01*
X130806342Y-147964902D02*
X130853961Y-147869664D01*
X130853961Y-147869664D02*
X130853961Y-147060140D01*
X131187295Y-147060140D02*
X131758723Y-147060140D01*
X131473009Y-148060140D02*
X131473009Y-147060140D01*
X127044438Y-165060140D02*
X127377771Y-166060140D01*
X127377771Y-166060140D02*
X127711104Y-165060140D01*
X128044438Y-165679188D02*
X128806343Y-165679188D01*
X129853961Y-165964902D02*
X129806342Y-166012521D01*
X129806342Y-166012521D02*
X129663485Y-166060140D01*
X129663485Y-166060140D02*
X129568247Y-166060140D01*
X129568247Y-166060140D02*
X129425390Y-166012521D01*
X129425390Y-166012521D02*
X129330152Y-165917283D01*
X129330152Y-165917283D02*
X129282533Y-165822045D01*
X129282533Y-165822045D02*
X129234914Y-165631569D01*
X129234914Y-165631569D02*
X129234914Y-165488712D01*
X129234914Y-165488712D02*
X129282533Y-165298236D01*
X129282533Y-165298236D02*
X129330152Y-165202998D01*
X129330152Y-165202998D02*
X129425390Y-165107760D01*
X129425390Y-165107760D02*
X129568247Y-165060140D01*
X129568247Y-165060140D02*
X129663485Y-165060140D01*
X129663485Y-165060140D02*
X129806342Y-165107760D01*
X129806342Y-165107760D02*
X129853961Y-165155379D01*
X130282533Y-165060140D02*
X130282533Y-165869664D01*
X130282533Y-165869664D02*
X130330152Y-165964902D01*
X130330152Y-165964902D02*
X130377771Y-166012521D01*
X130377771Y-166012521D02*
X130473009Y-166060140D01*
X130473009Y-166060140D02*
X130663485Y-166060140D01*
X130663485Y-166060140D02*
X130758723Y-166012521D01*
X130758723Y-166012521D02*
X130806342Y-165964902D01*
X130806342Y-165964902D02*
X130853961Y-165869664D01*
X130853961Y-165869664D02*
X130853961Y-165060140D01*
X131187295Y-165060140D02*
X131758723Y-165060140D01*
X131473009Y-166060140D02*
X131473009Y-165060140D01*
X127044438Y-138060140D02*
X127377771Y-139060140D01*
X127377771Y-139060140D02*
X127711104Y-138060140D01*
X128044438Y-138679188D02*
X128806343Y-138679188D01*
X129853961Y-138964902D02*
X129806342Y-139012521D01*
X129806342Y-139012521D02*
X129663485Y-139060140D01*
X129663485Y-139060140D02*
X129568247Y-139060140D01*
X129568247Y-139060140D02*
X129425390Y-139012521D01*
X129425390Y-139012521D02*
X129330152Y-138917283D01*
X129330152Y-138917283D02*
X129282533Y-138822045D01*
X129282533Y-138822045D02*
X129234914Y-138631569D01*
X129234914Y-138631569D02*
X129234914Y-138488712D01*
X129234914Y-138488712D02*
X129282533Y-138298236D01*
X129282533Y-138298236D02*
X129330152Y-138202998D01*
X129330152Y-138202998D02*
X129425390Y-138107760D01*
X129425390Y-138107760D02*
X129568247Y-138060140D01*
X129568247Y-138060140D02*
X129663485Y-138060140D01*
X129663485Y-138060140D02*
X129806342Y-138107760D01*
X129806342Y-138107760D02*
X129853961Y-138155379D01*
X130282533Y-138060140D02*
X130282533Y-138869664D01*
X130282533Y-138869664D02*
X130330152Y-138964902D01*
X130330152Y-138964902D02*
X130377771Y-139012521D01*
X130377771Y-139012521D02*
X130473009Y-139060140D01*
X130473009Y-139060140D02*
X130663485Y-139060140D01*
X130663485Y-139060140D02*
X130758723Y-139012521D01*
X130758723Y-139012521D02*
X130806342Y-138964902D01*
X130806342Y-138964902D02*
X130853961Y-138869664D01*
X130853961Y-138869664D02*
X130853961Y-138060140D01*
X131187295Y-138060140D02*
X131758723Y-138060140D01*
X131473009Y-139060140D02*
X131473009Y-138060140D01*
X127044438Y-129060140D02*
X127377771Y-130060140D01*
X127377771Y-130060140D02*
X127711104Y-129060140D01*
X128044438Y-129679188D02*
X128806343Y-129679188D01*
X129853961Y-129964902D02*
X129806342Y-130012521D01*
X129806342Y-130012521D02*
X129663485Y-130060140D01*
X129663485Y-130060140D02*
X129568247Y-130060140D01*
X129568247Y-130060140D02*
X129425390Y-130012521D01*
X129425390Y-130012521D02*
X129330152Y-129917283D01*
X129330152Y-129917283D02*
X129282533Y-129822045D01*
X129282533Y-129822045D02*
X129234914Y-129631569D01*
X129234914Y-129631569D02*
X129234914Y-129488712D01*
X129234914Y-129488712D02*
X129282533Y-129298236D01*
X129282533Y-129298236D02*
X129330152Y-129202998D01*
X129330152Y-129202998D02*
X129425390Y-129107760D01*
X129425390Y-129107760D02*
X129568247Y-129060140D01*
X129568247Y-129060140D02*
X129663485Y-129060140D01*
X129663485Y-129060140D02*
X129806342Y-129107760D01*
X129806342Y-129107760D02*
X129853961Y-129155379D01*
X130282533Y-129060140D02*
X130282533Y-129869664D01*
X130282533Y-129869664D02*
X130330152Y-129964902D01*
X130330152Y-129964902D02*
X130377771Y-130012521D01*
X130377771Y-130012521D02*
X130473009Y-130060140D01*
X130473009Y-130060140D02*
X130663485Y-130060140D01*
X130663485Y-130060140D02*
X130758723Y-130012521D01*
X130758723Y-130012521D02*
X130806342Y-129964902D01*
X130806342Y-129964902D02*
X130853961Y-129869664D01*
X130853961Y-129869664D02*
X130853961Y-129060140D01*
X131187295Y-129060140D02*
X131758723Y-129060140D01*
X131473009Y-130060140D02*
X131473009Y-129060140D01*
X127044438Y-156060140D02*
X127377771Y-157060140D01*
X127377771Y-157060140D02*
X127711104Y-156060140D01*
X128044438Y-156679188D02*
X128806343Y-156679188D01*
X129853961Y-156964902D02*
X129806342Y-157012521D01*
X129806342Y-157012521D02*
X129663485Y-157060140D01*
X129663485Y-157060140D02*
X129568247Y-157060140D01*
X129568247Y-157060140D02*
X129425390Y-157012521D01*
X129425390Y-157012521D02*
X129330152Y-156917283D01*
X129330152Y-156917283D02*
X129282533Y-156822045D01*
X129282533Y-156822045D02*
X129234914Y-156631569D01*
X129234914Y-156631569D02*
X129234914Y-156488712D01*
X129234914Y-156488712D02*
X129282533Y-156298236D01*
X129282533Y-156298236D02*
X129330152Y-156202998D01*
X129330152Y-156202998D02*
X129425390Y-156107760D01*
X129425390Y-156107760D02*
X129568247Y-156060140D01*
X129568247Y-156060140D02*
X129663485Y-156060140D01*
X129663485Y-156060140D02*
X129806342Y-156107760D01*
X129806342Y-156107760D02*
X129853961Y-156155379D01*
X130282533Y-156060140D02*
X130282533Y-156869664D01*
X130282533Y-156869664D02*
X130330152Y-156964902D01*
X130330152Y-156964902D02*
X130377771Y-157012521D01*
X130377771Y-157012521D02*
X130473009Y-157060140D01*
X130473009Y-157060140D02*
X130663485Y-157060140D01*
X130663485Y-157060140D02*
X130758723Y-157012521D01*
X130758723Y-157012521D02*
X130806342Y-156964902D01*
X130806342Y-156964902D02*
X130853961Y-156869664D01*
X130853961Y-156869664D02*
X130853961Y-156060140D01*
X131187295Y-156060140D02*
X131758723Y-156060140D01*
X131473009Y-157060140D02*
X131473009Y-156060140D01*
X127044438Y-174060140D02*
X127377771Y-175060140D01*
X127377771Y-175060140D02*
X127711104Y-174060140D01*
X128044438Y-174679188D02*
X128806343Y-174679188D01*
X129853961Y-174964902D02*
X129806342Y-175012521D01*
X129806342Y-175012521D02*
X129663485Y-175060140D01*
X129663485Y-175060140D02*
X129568247Y-175060140D01*
X129568247Y-175060140D02*
X129425390Y-175012521D01*
X129425390Y-175012521D02*
X129330152Y-174917283D01*
X129330152Y-174917283D02*
X129282533Y-174822045D01*
X129282533Y-174822045D02*
X129234914Y-174631569D01*
X129234914Y-174631569D02*
X129234914Y-174488712D01*
X129234914Y-174488712D02*
X129282533Y-174298236D01*
X129282533Y-174298236D02*
X129330152Y-174202998D01*
X129330152Y-174202998D02*
X129425390Y-174107760D01*
X129425390Y-174107760D02*
X129568247Y-174060140D01*
X129568247Y-174060140D02*
X129663485Y-174060140D01*
X129663485Y-174060140D02*
X129806342Y-174107760D01*
X129806342Y-174107760D02*
X129853961Y-174155379D01*
X130282533Y-174060140D02*
X130282533Y-174869664D01*
X130282533Y-174869664D02*
X130330152Y-174964902D01*
X130330152Y-174964902D02*
X130377771Y-175012521D01*
X130377771Y-175012521D02*
X130473009Y-175060140D01*
X130473009Y-175060140D02*
X130663485Y-175060140D01*
X130663485Y-175060140D02*
X130758723Y-175012521D01*
X130758723Y-175012521D02*
X130806342Y-174964902D01*
X130806342Y-174964902D02*
X130853961Y-174869664D01*
X130853961Y-174869664D02*
X130853961Y-174060140D01*
X131187295Y-174060140D02*
X131758723Y-174060140D01*
X131473009Y-175060140D02*
X131473009Y-174060140D01*
D10*
X133949200Y-147277760D02*
X293949200Y-147277760D01*
X133949200Y-138277760D02*
X293949200Y-138277760D01*
X133949200Y-156277760D02*
X293949200Y-156277760D01*
D12*
X184731580Y-93182521D02*
X185731580Y-92849188D01*
X185731580Y-92849188D02*
X184731580Y-92515855D01*
X185350628Y-92182521D02*
X185350628Y-91420617D01*
X185636342Y-90372998D02*
X185683961Y-90420617D01*
X185683961Y-90420617D02*
X185731580Y-90563474D01*
X185731580Y-90563474D02*
X185731580Y-90658712D01*
X185731580Y-90658712D02*
X185683961Y-90801569D01*
X185683961Y-90801569D02*
X185588723Y-90896807D01*
X185588723Y-90896807D02*
X185493485Y-90944426D01*
X185493485Y-90944426D02*
X185303009Y-90992045D01*
X185303009Y-90992045D02*
X185160152Y-90992045D01*
X185160152Y-90992045D02*
X184969676Y-90944426D01*
X184969676Y-90944426D02*
X184874438Y-90896807D01*
X184874438Y-90896807D02*
X184779200Y-90801569D01*
X184779200Y-90801569D02*
X184731580Y-90658712D01*
X184731580Y-90658712D02*
X184731580Y-90563474D01*
X184731580Y-90563474D02*
X184779200Y-90420617D01*
X184779200Y-90420617D02*
X184826819Y-90372998D01*
X184731580Y-89944426D02*
X185541104Y-89944426D01*
X185541104Y-89944426D02*
X185636342Y-89896807D01*
X185636342Y-89896807D02*
X185683961Y-89849188D01*
X185683961Y-89849188D02*
X185731580Y-89753950D01*
X185731580Y-89753950D02*
X185731580Y-89563474D01*
X185731580Y-89563474D02*
X185683961Y-89468236D01*
X185683961Y-89468236D02*
X185636342Y-89420617D01*
X185636342Y-89420617D02*
X185541104Y-89372998D01*
X185541104Y-89372998D02*
X184731580Y-89372998D01*
X184731580Y-89039664D02*
X184731580Y-88468236D01*
X185731580Y-88753950D02*
X184731580Y-88753950D01*
D10*
X266949200Y-94277760D02*
X266949200Y-204277760D01*
X133949200Y-165277760D02*
X293949200Y-165277760D01*
X133949200Y-129277760D02*
X293949200Y-129277760D01*
X212949200Y-94277760D02*
X212949200Y-204277760D01*
D12*
X241166819Y-205372998D02*
X240166819Y-205706331D01*
X240166819Y-205706331D02*
X241166819Y-206039664D01*
X240547771Y-206372998D02*
X240547771Y-207134903D01*
X240262057Y-208182521D02*
X240214438Y-208134902D01*
X240214438Y-208134902D02*
X240166819Y-207992045D01*
X240166819Y-207992045D02*
X240166819Y-207896807D01*
X240166819Y-207896807D02*
X240214438Y-207753950D01*
X240214438Y-207753950D02*
X240309676Y-207658712D01*
X240309676Y-207658712D02*
X240404914Y-207611093D01*
X240404914Y-207611093D02*
X240595390Y-207563474D01*
X240595390Y-207563474D02*
X240738247Y-207563474D01*
X240738247Y-207563474D02*
X240928723Y-207611093D01*
X240928723Y-207611093D02*
X241023961Y-207658712D01*
X241023961Y-207658712D02*
X241119200Y-207753950D01*
X241119200Y-207753950D02*
X241166819Y-207896807D01*
X241166819Y-207896807D02*
X241166819Y-207992045D01*
X241166819Y-207992045D02*
X241119200Y-208134902D01*
X241119200Y-208134902D02*
X241071580Y-208182521D01*
X241166819Y-208611093D02*
X240357295Y-208611093D01*
X240357295Y-208611093D02*
X240262057Y-208658712D01*
X240262057Y-208658712D02*
X240214438Y-208706331D01*
X240214438Y-208706331D02*
X240166819Y-208801569D01*
X240166819Y-208801569D02*
X240166819Y-208992045D01*
X240166819Y-208992045D02*
X240214438Y-209087283D01*
X240214438Y-209087283D02*
X240262057Y-209134902D01*
X240262057Y-209134902D02*
X240357295Y-209182521D01*
X240357295Y-209182521D02*
X241166819Y-209182521D01*
X241166819Y-209515855D02*
X241166819Y-210087283D01*
X240166819Y-209801569D02*
X241166819Y-209801569D01*
X214166819Y-205372998D02*
X213166819Y-205706331D01*
X213166819Y-205706331D02*
X214166819Y-206039664D01*
X213547771Y-206372998D02*
X213547771Y-207134903D01*
X213262057Y-208182521D02*
X213214438Y-208134902D01*
X213214438Y-208134902D02*
X213166819Y-207992045D01*
X213166819Y-207992045D02*
X213166819Y-207896807D01*
X213166819Y-207896807D02*
X213214438Y-207753950D01*
X213214438Y-207753950D02*
X213309676Y-207658712D01*
X213309676Y-207658712D02*
X213404914Y-207611093D01*
X213404914Y-207611093D02*
X213595390Y-207563474D01*
X213595390Y-207563474D02*
X213738247Y-207563474D01*
X213738247Y-207563474D02*
X213928723Y-207611093D01*
X213928723Y-207611093D02*
X214023961Y-207658712D01*
X214023961Y-207658712D02*
X214119200Y-207753950D01*
X214119200Y-207753950D02*
X214166819Y-207896807D01*
X214166819Y-207896807D02*
X214166819Y-207992045D01*
X214166819Y-207992045D02*
X214119200Y-208134902D01*
X214119200Y-208134902D02*
X214071580Y-208182521D01*
X214166819Y-208611093D02*
X213357295Y-208611093D01*
X213357295Y-208611093D02*
X213262057Y-208658712D01*
X213262057Y-208658712D02*
X213214438Y-208706331D01*
X213214438Y-208706331D02*
X213166819Y-208801569D01*
X213166819Y-208801569D02*
X213166819Y-208992045D01*
X213166819Y-208992045D02*
X213214438Y-209087283D01*
X213214438Y-209087283D02*
X213262057Y-209134902D01*
X213262057Y-209134902D02*
X213357295Y-209182521D01*
X213357295Y-209182521D02*
X214166819Y-209182521D01*
X214166819Y-209515855D02*
X214166819Y-210087283D01*
X213166819Y-209801569D02*
X214166819Y-209801569D01*
X268166819Y-205372998D02*
X267166819Y-205706331D01*
X267166819Y-205706331D02*
X268166819Y-206039664D01*
X267547771Y-206372998D02*
X267547771Y-207134903D01*
X267262057Y-208182521D02*
X267214438Y-208134902D01*
X267214438Y-208134902D02*
X267166819Y-207992045D01*
X267166819Y-207992045D02*
X267166819Y-207896807D01*
X267166819Y-207896807D02*
X267214438Y-207753950D01*
X267214438Y-207753950D02*
X267309676Y-207658712D01*
X267309676Y-207658712D02*
X267404914Y-207611093D01*
X267404914Y-207611093D02*
X267595390Y-207563474D01*
X267595390Y-207563474D02*
X267738247Y-207563474D01*
X267738247Y-207563474D02*
X267928723Y-207611093D01*
X267928723Y-207611093D02*
X268023961Y-207658712D01*
X268023961Y-207658712D02*
X268119200Y-207753950D01*
X268119200Y-207753950D02*
X268166819Y-207896807D01*
X268166819Y-207896807D02*
X268166819Y-207992045D01*
X268166819Y-207992045D02*
X268119200Y-208134902D01*
X268119200Y-208134902D02*
X268071580Y-208182521D01*
X268166819Y-208611093D02*
X267357295Y-208611093D01*
X267357295Y-208611093D02*
X267262057Y-208658712D01*
X267262057Y-208658712D02*
X267214438Y-208706331D01*
X267214438Y-208706331D02*
X267166819Y-208801569D01*
X267166819Y-208801569D02*
X267166819Y-208992045D01*
X267166819Y-208992045D02*
X267214438Y-209087283D01*
X267214438Y-209087283D02*
X267262057Y-209134902D01*
X267262057Y-209134902D02*
X267357295Y-209182521D01*
X267357295Y-209182521D02*
X268166819Y-209182521D01*
X268166819Y-209515855D02*
X268166819Y-210087283D01*
X267166819Y-209801569D02*
X268166819Y-209801569D01*
D10*
X133949200Y-174277760D02*
X293949200Y-174277760D01*
D12*
X238731580Y-93182521D02*
X239731580Y-92849188D01*
X239731580Y-92849188D02*
X238731580Y-92515855D01*
X239350628Y-92182521D02*
X239350628Y-91420617D01*
X239636342Y-90372998D02*
X239683961Y-90420617D01*
X239683961Y-90420617D02*
X239731580Y-90563474D01*
X239731580Y-90563474D02*
X239731580Y-90658712D01*
X239731580Y-90658712D02*
X239683961Y-90801569D01*
X239683961Y-90801569D02*
X239588723Y-90896807D01*
X239588723Y-90896807D02*
X239493485Y-90944426D01*
X239493485Y-90944426D02*
X239303009Y-90992045D01*
X239303009Y-90992045D02*
X239160152Y-90992045D01*
X239160152Y-90992045D02*
X238969676Y-90944426D01*
X238969676Y-90944426D02*
X238874438Y-90896807D01*
X238874438Y-90896807D02*
X238779200Y-90801569D01*
X238779200Y-90801569D02*
X238731580Y-90658712D01*
X238731580Y-90658712D02*
X238731580Y-90563474D01*
X238731580Y-90563474D02*
X238779200Y-90420617D01*
X238779200Y-90420617D02*
X238826819Y-90372998D01*
X238731580Y-89944426D02*
X239541104Y-89944426D01*
X239541104Y-89944426D02*
X239636342Y-89896807D01*
X239636342Y-89896807D02*
X239683961Y-89849188D01*
X239683961Y-89849188D02*
X239731580Y-89753950D01*
X239731580Y-89753950D02*
X239731580Y-89563474D01*
X239731580Y-89563474D02*
X239683961Y-89468236D01*
X239683961Y-89468236D02*
X239636342Y-89420617D01*
X239636342Y-89420617D02*
X239541104Y-89372998D01*
X239541104Y-89372998D02*
X238731580Y-89372998D01*
X238731580Y-89039664D02*
X238731580Y-88468236D01*
X239731580Y-88753950D02*
X238731580Y-88753950D01*
D10*
X158949200Y-94277760D02*
X158949200Y-204277760D01*
D12*
X296044438Y-164060140D02*
X296377771Y-165060140D01*
X296377771Y-165060140D02*
X296711104Y-164060140D01*
X297044438Y-164679188D02*
X297806343Y-164679188D01*
X298853961Y-164964902D02*
X298806342Y-165012521D01*
X298806342Y-165012521D02*
X298663485Y-165060140D01*
X298663485Y-165060140D02*
X298568247Y-165060140D01*
X298568247Y-165060140D02*
X298425390Y-165012521D01*
X298425390Y-165012521D02*
X298330152Y-164917283D01*
X298330152Y-164917283D02*
X298282533Y-164822045D01*
X298282533Y-164822045D02*
X298234914Y-164631569D01*
X298234914Y-164631569D02*
X298234914Y-164488712D01*
X298234914Y-164488712D02*
X298282533Y-164298236D01*
X298282533Y-164298236D02*
X298330152Y-164202998D01*
X298330152Y-164202998D02*
X298425390Y-164107760D01*
X298425390Y-164107760D02*
X298568247Y-164060140D01*
X298568247Y-164060140D02*
X298663485Y-164060140D01*
X298663485Y-164060140D02*
X298806342Y-164107760D01*
X298806342Y-164107760D02*
X298853961Y-164155379D01*
X299282533Y-164060140D02*
X299282533Y-164869664D01*
X299282533Y-164869664D02*
X299330152Y-164964902D01*
X299330152Y-164964902D02*
X299377771Y-165012521D01*
X299377771Y-165012521D02*
X299473009Y-165060140D01*
X299473009Y-165060140D02*
X299663485Y-165060140D01*
X299663485Y-165060140D02*
X299758723Y-165012521D01*
X299758723Y-165012521D02*
X299806342Y-164964902D01*
X299806342Y-164964902D02*
X299853961Y-164869664D01*
X299853961Y-164869664D02*
X299853961Y-164060140D01*
X300187295Y-164060140D02*
X300758723Y-164060140D01*
X300473009Y-165060140D02*
X300473009Y-164060140D01*
X187166819Y-205372998D02*
X186166819Y-205706331D01*
X186166819Y-205706331D02*
X187166819Y-206039664D01*
X186547771Y-206372998D02*
X186547771Y-207134903D01*
X186262057Y-208182521D02*
X186214438Y-208134902D01*
X186214438Y-208134902D02*
X186166819Y-207992045D01*
X186166819Y-207992045D02*
X186166819Y-207896807D01*
X186166819Y-207896807D02*
X186214438Y-207753950D01*
X186214438Y-207753950D02*
X186309676Y-207658712D01*
X186309676Y-207658712D02*
X186404914Y-207611093D01*
X186404914Y-207611093D02*
X186595390Y-207563474D01*
X186595390Y-207563474D02*
X186738247Y-207563474D01*
X186738247Y-207563474D02*
X186928723Y-207611093D01*
X186928723Y-207611093D02*
X187023961Y-207658712D01*
X187023961Y-207658712D02*
X187119200Y-207753950D01*
X187119200Y-207753950D02*
X187166819Y-207896807D01*
X187166819Y-207896807D02*
X187166819Y-207992045D01*
X187166819Y-207992045D02*
X187119200Y-208134902D01*
X187119200Y-208134902D02*
X187071580Y-208182521D01*
X187166819Y-208611093D02*
X186357295Y-208611093D01*
X186357295Y-208611093D02*
X186262057Y-208658712D01*
X186262057Y-208658712D02*
X186214438Y-208706331D01*
X186214438Y-208706331D02*
X186166819Y-208801569D01*
X186166819Y-208801569D02*
X186166819Y-208992045D01*
X186166819Y-208992045D02*
X186214438Y-209087283D01*
X186214438Y-209087283D02*
X186262057Y-209134902D01*
X186262057Y-209134902D02*
X186357295Y-209182521D01*
X186357295Y-209182521D02*
X187166819Y-209182521D01*
X187166819Y-209515855D02*
X187166819Y-210087283D01*
X186166819Y-209801569D02*
X187166819Y-209801569D01*
X296044438Y-146060140D02*
X296377771Y-147060140D01*
X296377771Y-147060140D02*
X296711104Y-146060140D01*
X297044438Y-146679188D02*
X297806343Y-146679188D01*
X298853961Y-146964902D02*
X298806342Y-147012521D01*
X298806342Y-147012521D02*
X298663485Y-147060140D01*
X298663485Y-147060140D02*
X298568247Y-147060140D01*
X298568247Y-147060140D02*
X298425390Y-147012521D01*
X298425390Y-147012521D02*
X298330152Y-146917283D01*
X298330152Y-146917283D02*
X298282533Y-146822045D01*
X298282533Y-146822045D02*
X298234914Y-146631569D01*
X298234914Y-146631569D02*
X298234914Y-146488712D01*
X298234914Y-146488712D02*
X298282533Y-146298236D01*
X298282533Y-146298236D02*
X298330152Y-146202998D01*
X298330152Y-146202998D02*
X298425390Y-146107760D01*
X298425390Y-146107760D02*
X298568247Y-146060140D01*
X298568247Y-146060140D02*
X298663485Y-146060140D01*
X298663485Y-146060140D02*
X298806342Y-146107760D01*
X298806342Y-146107760D02*
X298853961Y-146155379D01*
X299282533Y-146060140D02*
X299282533Y-146869664D01*
X299282533Y-146869664D02*
X299330152Y-146964902D01*
X299330152Y-146964902D02*
X299377771Y-147012521D01*
X299377771Y-147012521D02*
X299473009Y-147060140D01*
X299473009Y-147060140D02*
X299663485Y-147060140D01*
X299663485Y-147060140D02*
X299758723Y-147012521D01*
X299758723Y-147012521D02*
X299806342Y-146964902D01*
X299806342Y-146964902D02*
X299853961Y-146869664D01*
X299853961Y-146869664D02*
X299853961Y-146060140D01*
X300187295Y-146060140D02*
X300758723Y-146060140D01*
X300473009Y-147060140D02*
X300473009Y-146060140D01*
X160166819Y-205372998D02*
X159166819Y-205706331D01*
X159166819Y-205706331D02*
X160166819Y-206039664D01*
X159547771Y-206372998D02*
X159547771Y-207134903D01*
X159262057Y-208182521D02*
X159214438Y-208134902D01*
X159214438Y-208134902D02*
X159166819Y-207992045D01*
X159166819Y-207992045D02*
X159166819Y-207896807D01*
X159166819Y-207896807D02*
X159214438Y-207753950D01*
X159214438Y-207753950D02*
X159309676Y-207658712D01*
X159309676Y-207658712D02*
X159404914Y-207611093D01*
X159404914Y-207611093D02*
X159595390Y-207563474D01*
X159595390Y-207563474D02*
X159738247Y-207563474D01*
X159738247Y-207563474D02*
X159928723Y-207611093D01*
X159928723Y-207611093D02*
X160023961Y-207658712D01*
X160023961Y-207658712D02*
X160119200Y-207753950D01*
X160119200Y-207753950D02*
X160166819Y-207896807D01*
X160166819Y-207896807D02*
X160166819Y-207992045D01*
X160166819Y-207992045D02*
X160119200Y-208134902D01*
X160119200Y-208134902D02*
X160071580Y-208182521D01*
X160166819Y-208611093D02*
X159357295Y-208611093D01*
X159357295Y-208611093D02*
X159262057Y-208658712D01*
X159262057Y-208658712D02*
X159214438Y-208706331D01*
X159214438Y-208706331D02*
X159166819Y-208801569D01*
X159166819Y-208801569D02*
X159166819Y-208992045D01*
X159166819Y-208992045D02*
X159214438Y-209087283D01*
X159214438Y-209087283D02*
X159262057Y-209134902D01*
X159262057Y-209134902D02*
X159357295Y-209182521D01*
X159357295Y-209182521D02*
X160166819Y-209182521D01*
X160166819Y-209515855D02*
X160166819Y-210087283D01*
X159166819Y-209801569D02*
X160166819Y-209801569D01*
X296044438Y-119060140D02*
X296377771Y-120060140D01*
X296377771Y-120060140D02*
X296711104Y-119060140D01*
X297044438Y-119679188D02*
X297806343Y-119679188D01*
X298853961Y-119964902D02*
X298806342Y-120012521D01*
X298806342Y-120012521D02*
X298663485Y-120060140D01*
X298663485Y-120060140D02*
X298568247Y-120060140D01*
X298568247Y-120060140D02*
X298425390Y-120012521D01*
X298425390Y-120012521D02*
X298330152Y-119917283D01*
X298330152Y-119917283D02*
X298282533Y-119822045D01*
X298282533Y-119822045D02*
X298234914Y-119631569D01*
X298234914Y-119631569D02*
X298234914Y-119488712D01*
X298234914Y-119488712D02*
X298282533Y-119298236D01*
X298282533Y-119298236D02*
X298330152Y-119202998D01*
X298330152Y-119202998D02*
X298425390Y-119107760D01*
X298425390Y-119107760D02*
X298568247Y-119060140D01*
X298568247Y-119060140D02*
X298663485Y-119060140D01*
X298663485Y-119060140D02*
X298806342Y-119107760D01*
X298806342Y-119107760D02*
X298853961Y-119155379D01*
X299282533Y-119060140D02*
X299282533Y-119869664D01*
X299282533Y-119869664D02*
X299330152Y-119964902D01*
X299330152Y-119964902D02*
X299377771Y-120012521D01*
X299377771Y-120012521D02*
X299473009Y-120060140D01*
X299473009Y-120060140D02*
X299663485Y-120060140D01*
X299663485Y-120060140D02*
X299758723Y-120012521D01*
X299758723Y-120012521D02*
X299806342Y-119964902D01*
X299806342Y-119964902D02*
X299853961Y-119869664D01*
X299853961Y-119869664D02*
X299853961Y-119060140D01*
X300187295Y-119060140D02*
X300758723Y-119060140D01*
X300473009Y-120060140D02*
X300473009Y-119060140D01*
D10*
X239949200Y-94277760D02*
X239949200Y-204277760D01*
D12*
X157731580Y-93182521D02*
X158731580Y-92849188D01*
X158731580Y-92849188D02*
X157731580Y-92515855D01*
X158350628Y-92182521D02*
X158350628Y-91420617D01*
X158636342Y-90372998D02*
X158683961Y-90420617D01*
X158683961Y-90420617D02*
X158731580Y-90563474D01*
X158731580Y-90563474D02*
X158731580Y-90658712D01*
X158731580Y-90658712D02*
X158683961Y-90801569D01*
X158683961Y-90801569D02*
X158588723Y-90896807D01*
X158588723Y-90896807D02*
X158493485Y-90944426D01*
X158493485Y-90944426D02*
X158303009Y-90992045D01*
X158303009Y-90992045D02*
X158160152Y-90992045D01*
X158160152Y-90992045D02*
X157969676Y-90944426D01*
X157969676Y-90944426D02*
X157874438Y-90896807D01*
X157874438Y-90896807D02*
X157779200Y-90801569D01*
X157779200Y-90801569D02*
X157731580Y-90658712D01*
X157731580Y-90658712D02*
X157731580Y-90563474D01*
X157731580Y-90563474D02*
X157779200Y-90420617D01*
X157779200Y-90420617D02*
X157826819Y-90372998D01*
X157731580Y-89944426D02*
X158541104Y-89944426D01*
X158541104Y-89944426D02*
X158636342Y-89896807D01*
X158636342Y-89896807D02*
X158683961Y-89849188D01*
X158683961Y-89849188D02*
X158731580Y-89753950D01*
X158731580Y-89753950D02*
X158731580Y-89563474D01*
X158731580Y-89563474D02*
X158683961Y-89468236D01*
X158683961Y-89468236D02*
X158636342Y-89420617D01*
X158636342Y-89420617D02*
X158541104Y-89372998D01*
X158541104Y-89372998D02*
X157731580Y-89372998D01*
X157731580Y-89039664D02*
X157731580Y-88468236D01*
X158731580Y-88753950D02*
X157731580Y-88753950D01*
D10*
X212949200Y-120277760D02*
X239949200Y-120277760D01*
X185949200Y-94277760D02*
X185949200Y-204277760D01*
X185949200Y-120277760D02*
X212949200Y-120277760D01*
X239949200Y-129277760D02*
X239949200Y-138277760D01*
X239949200Y-120277760D02*
X239949200Y-129277760D01*
X185949200Y-129277760D02*
X158949200Y-129277760D01*
X133949200Y-120277760D02*
X293949200Y-120277760D01*
X212949200Y-129277760D02*
X185949200Y-129277760D01*
X239949200Y-120277760D02*
X266949200Y-120277760D01*
X266949200Y-129277760D02*
X266949200Y-138277760D01*
X212949200Y-120277760D02*
X212949200Y-129277760D01*
X212949200Y-138277760D02*
X185949200Y-138277760D01*
X212949200Y-129277760D02*
X239949200Y-129277760D01*
X266949200Y-120277760D02*
X266949200Y-129277760D01*
X266949200Y-129277760D02*
X239949200Y-129277760D01*
X239949200Y-129277760D02*
X212949200Y-129277760D01*
X158949200Y-120277760D02*
X158949200Y-129277760D01*
X212949200Y-129277760D02*
X212949200Y-138277760D01*
X239949200Y-138277760D02*
X212949200Y-138277760D01*
X239949200Y-129277760D02*
X239949200Y-138277760D01*
X266949200Y-138277760D02*
X239949200Y-138277760D01*
X185949200Y-120277760D02*
X185949200Y-129277760D01*
X239949200Y-120277760D02*
X239949200Y-129277760D01*
X239949200Y-129277760D02*
X266949200Y-129277760D01*
X212949200Y-120277760D02*
X212949200Y-129277760D01*
X185949200Y-129277760D02*
X185949200Y-138277760D01*
X212949200Y-129277760D02*
X212949200Y-138277760D01*
X158949200Y-147277760D02*
X158949200Y-156277760D01*
X185949200Y-138277760D02*
X185949200Y-147277760D01*
X266949200Y-138277760D02*
X266949200Y-147277760D01*
X185949200Y-147277760D02*
X185949200Y-156277760D01*
X212949200Y-147277760D02*
X239949200Y-147277760D01*
X212949200Y-138277760D02*
X212949200Y-147277760D01*
X185949200Y-138277760D02*
X185949200Y-147277760D01*
X212949200Y-147277760D02*
X185949200Y-147277760D01*
X158949200Y-138277760D02*
X185949200Y-138277760D01*
X239949200Y-138277760D02*
X239949200Y-147277760D01*
X212949200Y-156277760D02*
X185949200Y-156277760D01*
X185949200Y-138277760D02*
X212949200Y-138277760D01*
X185949200Y-147277760D02*
X158949200Y-147277760D01*
X185949200Y-156277760D02*
X158949200Y-156277760D01*
X158949200Y-147277760D02*
X185949200Y-147277760D01*
X212949200Y-147277760D02*
X212949200Y-156277760D01*
X239949200Y-138277760D02*
X239949200Y-147277760D01*
X158949200Y-138277760D02*
X158949200Y-147277760D01*
X185949200Y-147277760D02*
X185949200Y-156277760D01*
X212949200Y-138277760D02*
X239949200Y-138277760D01*
X185949200Y-147277760D02*
X212949200Y-147277760D01*
X158949200Y-129277760D02*
X185949200Y-129277760D01*
X185949200Y-129277760D02*
X212949200Y-129277760D01*
X158949200Y-129277760D02*
X158949200Y-138277760D01*
X185949200Y-129277760D02*
X185949200Y-138277760D01*
X185949200Y-138277760D02*
X158949200Y-138277760D01*
X212949200Y-156277760D02*
X239949200Y-156277760D01*
X212949200Y-156277760D02*
X212949200Y-165277760D01*
X239949200Y-138277760D02*
X266949200Y-138277760D01*
X266949200Y-147277760D02*
X239949200Y-147277760D01*
X185949200Y-156277760D02*
X185949200Y-165277760D01*
X185949200Y-156277760D02*
X212949200Y-156277760D01*
X185949200Y-165277760D02*
X158949200Y-165277760D01*
X158949200Y-156277760D02*
X158949200Y-165277760D01*
X212949200Y-165277760D02*
X185949200Y-165277760D01*
X158949200Y-156277760D02*
X185949200Y-156277760D01*
X266949200Y-156277760D02*
X266949200Y-165277760D01*
X239949200Y-156277760D02*
X239949200Y-165277760D01*
X185949200Y-156277760D02*
X185949200Y-165277760D01*
D12*
X211731580Y-93182521D02*
X212731580Y-92849188D01*
X212731580Y-92849188D02*
X211731580Y-92515855D01*
X212350628Y-92182521D02*
X212350628Y-91420617D01*
X212636342Y-90372998D02*
X212683961Y-90420617D01*
X212683961Y-90420617D02*
X212731580Y-90563474D01*
X212731580Y-90563474D02*
X212731580Y-90658712D01*
X212731580Y-90658712D02*
X212683961Y-90801569D01*
X212683961Y-90801569D02*
X212588723Y-90896807D01*
X212588723Y-90896807D02*
X212493485Y-90944426D01*
X212493485Y-90944426D02*
X212303009Y-90992045D01*
X212303009Y-90992045D02*
X212160152Y-90992045D01*
X212160152Y-90992045D02*
X211969676Y-90944426D01*
X211969676Y-90944426D02*
X211874438Y-90896807D01*
X211874438Y-90896807D02*
X211779200Y-90801569D01*
X211779200Y-90801569D02*
X211731580Y-90658712D01*
X211731580Y-90658712D02*
X211731580Y-90563474D01*
X211731580Y-90563474D02*
X211779200Y-90420617D01*
X211779200Y-90420617D02*
X211826819Y-90372998D01*
X211731580Y-89944426D02*
X212541104Y-89944426D01*
X212541104Y-89944426D02*
X212636342Y-89896807D01*
X212636342Y-89896807D02*
X212683961Y-89849188D01*
X212683961Y-89849188D02*
X212731580Y-89753950D01*
X212731580Y-89753950D02*
X212731580Y-89563474D01*
X212731580Y-89563474D02*
X212683961Y-89468236D01*
X212683961Y-89468236D02*
X212636342Y-89420617D01*
X212636342Y-89420617D02*
X212541104Y-89372998D01*
X212541104Y-89372998D02*
X211731580Y-89372998D01*
X211731580Y-89039664D02*
X211731580Y-88468236D01*
X212731580Y-88753950D02*
X211731580Y-88753950D01*
X296044438Y-173060140D02*
X296377771Y-174060140D01*
X296377771Y-174060140D02*
X296711104Y-173060140D01*
X297044438Y-173679188D02*
X297806343Y-173679188D01*
X298853961Y-173964902D02*
X298806342Y-174012521D01*
X298806342Y-174012521D02*
X298663485Y-174060140D01*
X298663485Y-174060140D02*
X298568247Y-174060140D01*
X298568247Y-174060140D02*
X298425390Y-174012521D01*
X298425390Y-174012521D02*
X298330152Y-173917283D01*
X298330152Y-173917283D02*
X298282533Y-173822045D01*
X298282533Y-173822045D02*
X298234914Y-173631569D01*
X298234914Y-173631569D02*
X298234914Y-173488712D01*
X298234914Y-173488712D02*
X298282533Y-173298236D01*
X298282533Y-173298236D02*
X298330152Y-173202998D01*
X298330152Y-173202998D02*
X298425390Y-173107760D01*
X298425390Y-173107760D02*
X298568247Y-173060140D01*
X298568247Y-173060140D02*
X298663485Y-173060140D01*
X298663485Y-173060140D02*
X298806342Y-173107760D01*
X298806342Y-173107760D02*
X298853961Y-173155379D01*
X299282533Y-173060140D02*
X299282533Y-173869664D01*
X299282533Y-173869664D02*
X299330152Y-173964902D01*
X299330152Y-173964902D02*
X299377771Y-174012521D01*
X299377771Y-174012521D02*
X299473009Y-174060140D01*
X299473009Y-174060140D02*
X299663485Y-174060140D01*
X299663485Y-174060140D02*
X299758723Y-174012521D01*
X299758723Y-174012521D02*
X299806342Y-173964902D01*
X299806342Y-173964902D02*
X299853961Y-173869664D01*
X299853961Y-173869664D02*
X299853961Y-173060140D01*
X300187295Y-173060140D02*
X300758723Y-173060140D01*
X300473009Y-174060140D02*
X300473009Y-173060140D01*
X296044438Y-137060140D02*
X296377771Y-138060140D01*
X296377771Y-138060140D02*
X296711104Y-137060140D01*
X297044438Y-137679188D02*
X297806343Y-137679188D01*
X298853961Y-137964902D02*
X298806342Y-138012521D01*
X298806342Y-138012521D02*
X298663485Y-138060140D01*
X298663485Y-138060140D02*
X298568247Y-138060140D01*
X298568247Y-138060140D02*
X298425390Y-138012521D01*
X298425390Y-138012521D02*
X298330152Y-137917283D01*
X298330152Y-137917283D02*
X298282533Y-137822045D01*
X298282533Y-137822045D02*
X298234914Y-137631569D01*
X298234914Y-137631569D02*
X298234914Y-137488712D01*
X298234914Y-137488712D02*
X298282533Y-137298236D01*
X298282533Y-137298236D02*
X298330152Y-137202998D01*
X298330152Y-137202998D02*
X298425390Y-137107760D01*
X298425390Y-137107760D02*
X298568247Y-137060140D01*
X298568247Y-137060140D02*
X298663485Y-137060140D01*
X298663485Y-137060140D02*
X298806342Y-137107760D01*
X298806342Y-137107760D02*
X298853961Y-137155379D01*
X299282533Y-137060140D02*
X299282533Y-137869664D01*
X299282533Y-137869664D02*
X299330152Y-137964902D01*
X299330152Y-137964902D02*
X299377771Y-138012521D01*
X299377771Y-138012521D02*
X299473009Y-138060140D01*
X299473009Y-138060140D02*
X299663485Y-138060140D01*
X299663485Y-138060140D02*
X299758723Y-138012521D01*
X299758723Y-138012521D02*
X299806342Y-137964902D01*
X299806342Y-137964902D02*
X299853961Y-137869664D01*
X299853961Y-137869664D02*
X299853961Y-137060140D01*
X300187295Y-137060140D02*
X300758723Y-137060140D01*
X300473009Y-138060140D02*
X300473009Y-137060140D01*
X296044438Y-155060140D02*
X296377771Y-156060140D01*
X296377771Y-156060140D02*
X296711104Y-155060140D01*
X297044438Y-155679188D02*
X297806343Y-155679188D01*
X298853961Y-155964902D02*
X298806342Y-156012521D01*
X298806342Y-156012521D02*
X298663485Y-156060140D01*
X298663485Y-156060140D02*
X298568247Y-156060140D01*
X298568247Y-156060140D02*
X298425390Y-156012521D01*
X298425390Y-156012521D02*
X298330152Y-155917283D01*
X298330152Y-155917283D02*
X298282533Y-155822045D01*
X298282533Y-155822045D02*
X298234914Y-155631569D01*
X298234914Y-155631569D02*
X298234914Y-155488712D01*
X298234914Y-155488712D02*
X298282533Y-155298236D01*
X298282533Y-155298236D02*
X298330152Y-155202998D01*
X298330152Y-155202998D02*
X298425390Y-155107760D01*
X298425390Y-155107760D02*
X298568247Y-155060140D01*
X298568247Y-155060140D02*
X298663485Y-155060140D01*
X298663485Y-155060140D02*
X298806342Y-155107760D01*
X298806342Y-155107760D02*
X298853961Y-155155379D01*
X299282533Y-155060140D02*
X299282533Y-155869664D01*
X299282533Y-155869664D02*
X299330152Y-155964902D01*
X299330152Y-155964902D02*
X299377771Y-156012521D01*
X299377771Y-156012521D02*
X299473009Y-156060140D01*
X299473009Y-156060140D02*
X299663485Y-156060140D01*
X299663485Y-156060140D02*
X299758723Y-156012521D01*
X299758723Y-156012521D02*
X299806342Y-155964902D01*
X299806342Y-155964902D02*
X299853961Y-155869664D01*
X299853961Y-155869664D02*
X299853961Y-155060140D01*
X300187295Y-155060140D02*
X300758723Y-155060140D01*
X300473009Y-156060140D02*
X300473009Y-155060140D01*
X265731580Y-93182521D02*
X266731580Y-92849188D01*
X266731580Y-92849188D02*
X265731580Y-92515855D01*
X266350628Y-92182521D02*
X266350628Y-91420617D01*
X266636342Y-90372998D02*
X266683961Y-90420617D01*
X266683961Y-90420617D02*
X266731580Y-90563474D01*
X266731580Y-90563474D02*
X266731580Y-90658712D01*
X266731580Y-90658712D02*
X266683961Y-90801569D01*
X266683961Y-90801569D02*
X266588723Y-90896807D01*
X266588723Y-90896807D02*
X266493485Y-90944426D01*
X266493485Y-90944426D02*
X266303009Y-90992045D01*
X266303009Y-90992045D02*
X266160152Y-90992045D01*
X266160152Y-90992045D02*
X265969676Y-90944426D01*
X265969676Y-90944426D02*
X265874438Y-90896807D01*
X265874438Y-90896807D02*
X265779200Y-90801569D01*
X265779200Y-90801569D02*
X265731580Y-90658712D01*
X265731580Y-90658712D02*
X265731580Y-90563474D01*
X265731580Y-90563474D02*
X265779200Y-90420617D01*
X265779200Y-90420617D02*
X265826819Y-90372998D01*
X265731580Y-89944426D02*
X266541104Y-89944426D01*
X266541104Y-89944426D02*
X266636342Y-89896807D01*
X266636342Y-89896807D02*
X266683961Y-89849188D01*
X266683961Y-89849188D02*
X266731580Y-89753950D01*
X266731580Y-89753950D02*
X266731580Y-89563474D01*
X266731580Y-89563474D02*
X266683961Y-89468236D01*
X266683961Y-89468236D02*
X266636342Y-89420617D01*
X266636342Y-89420617D02*
X266541104Y-89372998D01*
X266541104Y-89372998D02*
X265731580Y-89372998D01*
X265731580Y-89039664D02*
X265731580Y-88468236D01*
X266731580Y-88753950D02*
X265731580Y-88753950D01*
X296044438Y-128060140D02*
X296377771Y-129060140D01*
X296377771Y-129060140D02*
X296711104Y-128060140D01*
X297044438Y-128679188D02*
X297806343Y-128679188D01*
X298853961Y-128964902D02*
X298806342Y-129012521D01*
X298806342Y-129012521D02*
X298663485Y-129060140D01*
X298663485Y-129060140D02*
X298568247Y-129060140D01*
X298568247Y-129060140D02*
X298425390Y-129012521D01*
X298425390Y-129012521D02*
X298330152Y-128917283D01*
X298330152Y-128917283D02*
X298282533Y-128822045D01*
X298282533Y-128822045D02*
X298234914Y-128631569D01*
X298234914Y-128631569D02*
X298234914Y-128488712D01*
X298234914Y-128488712D02*
X298282533Y-128298236D01*
X298282533Y-128298236D02*
X298330152Y-128202998D01*
X298330152Y-128202998D02*
X298425390Y-128107760D01*
X298425390Y-128107760D02*
X298568247Y-128060140D01*
X298568247Y-128060140D02*
X298663485Y-128060140D01*
X298663485Y-128060140D02*
X298806342Y-128107760D01*
X298806342Y-128107760D02*
X298853961Y-128155379D01*
X299282533Y-128060140D02*
X299282533Y-128869664D01*
X299282533Y-128869664D02*
X299330152Y-128964902D01*
X299330152Y-128964902D02*
X299377771Y-129012521D01*
X299377771Y-129012521D02*
X299473009Y-129060140D01*
X299473009Y-129060140D02*
X299663485Y-129060140D01*
X299663485Y-129060140D02*
X299758723Y-129012521D01*
X299758723Y-129012521D02*
X299806342Y-128964902D01*
X299806342Y-128964902D02*
X299853961Y-128869664D01*
X299853961Y-128869664D02*
X299853961Y-128060140D01*
X300187295Y-128060140D02*
X300758723Y-128060140D01*
X300473009Y-129060140D02*
X300473009Y-128060140D01*
D10*
X239949200Y-156277760D02*
X239949200Y-165277760D01*
X239949200Y-156277760D02*
X266949200Y-156277760D01*
X266949200Y-147277760D02*
X266949200Y-156277760D01*
X266949200Y-165277760D02*
X239949200Y-165277760D01*
X239949200Y-147277760D02*
X239949200Y-156277760D01*
X266949200Y-165277760D02*
X266949200Y-174277760D01*
X239949200Y-165277760D02*
X239949200Y-174277760D01*
X239949200Y-165277760D02*
X266949200Y-165277760D01*
X266949200Y-174277760D02*
X239949200Y-174277760D01*
X239949200Y-165277760D02*
X239949200Y-174277760D01*
X239949200Y-147277760D02*
X239949200Y-156277760D01*
X212949200Y-138277760D02*
X212949200Y-147277760D01*
X239949200Y-147277760D02*
X266949200Y-147277760D01*
X239949200Y-156277760D02*
X212949200Y-156277760D01*
X239949200Y-147277760D02*
X212949200Y-147277760D01*
X239949200Y-174277760D02*
X212949200Y-174277760D01*
X212949200Y-165277760D02*
X212949200Y-174277760D01*
X212949200Y-147277760D02*
X212949200Y-156277760D01*
X266949200Y-156277760D02*
X239949200Y-156277760D01*
X239949200Y-165277760D02*
X212949200Y-165277760D01*
X212949200Y-156277760D02*
X212949200Y-165277760D01*
D12*
X127044438Y-120060140D02*
X127377771Y-121060140D01*
X127377771Y-121060140D02*
X127711104Y-120060140D01*
X128044438Y-120679188D02*
X128806343Y-120679188D01*
X129853961Y-120964902D02*
X129806342Y-121012521D01*
X129806342Y-121012521D02*
X129663485Y-121060140D01*
X129663485Y-121060140D02*
X129568247Y-121060140D01*
X129568247Y-121060140D02*
X129425390Y-121012521D01*
X129425390Y-121012521D02*
X129330152Y-120917283D01*
X129330152Y-120917283D02*
X129282533Y-120822045D01*
X129282533Y-120822045D02*
X129234914Y-120631569D01*
X129234914Y-120631569D02*
X129234914Y-120488712D01*
X129234914Y-120488712D02*
X129282533Y-120298236D01*
X129282533Y-120298236D02*
X129330152Y-120202998D01*
X129330152Y-120202998D02*
X129425390Y-120107760D01*
X129425390Y-120107760D02*
X129568247Y-120060140D01*
X129568247Y-120060140D02*
X129663485Y-120060140D01*
X129663485Y-120060140D02*
X129806342Y-120107760D01*
X129806342Y-120107760D02*
X129853961Y-120155379D01*
X130282533Y-120060140D02*
X130282533Y-120869664D01*
X130282533Y-120869664D02*
X130330152Y-120964902D01*
X130330152Y-120964902D02*
X130377771Y-121012521D01*
X130377771Y-121012521D02*
X130473009Y-121060140D01*
X130473009Y-121060140D02*
X130663485Y-121060140D01*
X130663485Y-121060140D02*
X130758723Y-121012521D01*
X130758723Y-121012521D02*
X130806342Y-120964902D01*
X130806342Y-120964902D02*
X130853961Y-120869664D01*
X130853961Y-120869664D02*
X130853961Y-120060140D01*
X131187295Y-120060140D02*
X131758723Y-120060140D01*
X131473009Y-121060140D02*
X131473009Y-120060140D01*
D10*
X158949200Y-120277760D02*
X158949200Y-129277760D01*
X185949200Y-129277760D02*
X158949200Y-129277760D01*
X158949200Y-120277760D02*
X185949200Y-120277760D01*
X185949200Y-120277760D02*
X185949200Y-129277760D01*
M02*
