%TF.GenerationSoftware,KiCad,Pcbnew,(7.0.0)*%
%TF.CreationDate,2023-04-04T09:59:10-04:00*%
%TF.ProjectId,bracket-led,62726163-6b65-4742-9d6c-65642e6b6963,A*%
%TF.SameCoordinates,Original*%
%TF.FileFunction,Legend,Top*%
%TF.FilePolarity,Positive*%
%FSLAX46Y46*%
G04 Gerber Fmt 4.6, Leading zero omitted, Abs format (unit mm)*
G04 Created by KiCad (PCBNEW (7.0.0)) date 2023-04-04 09:59:10*
%MOMM*%
%LPD*%
G01*
G04 APERTURE LIST*
%ADD10C,0.300000*%
%ADD11C,0.100000*%
%ADD12C,0.150000*%
%ADD13C,0.120000*%
G04 APERTURE END LIST*
D10*
X160506342Y-108061331D02*
X160506342Y-106561331D01*
X160506342Y-106561331D02*
X161077771Y-106561331D01*
X161077771Y-106561331D02*
X161220628Y-106632760D01*
X161220628Y-106632760D02*
X161292057Y-106704188D01*
X161292057Y-106704188D02*
X161363485Y-106847045D01*
X161363485Y-106847045D02*
X161363485Y-107061331D01*
X161363485Y-107061331D02*
X161292057Y-107204188D01*
X161292057Y-107204188D02*
X161220628Y-107275617D01*
X161220628Y-107275617D02*
X161077771Y-107347045D01*
X161077771Y-107347045D02*
X160506342Y-107347045D01*
X162863485Y-107918474D02*
X162792057Y-107989902D01*
X162792057Y-107989902D02*
X162577771Y-108061331D01*
X162577771Y-108061331D02*
X162434914Y-108061331D01*
X162434914Y-108061331D02*
X162220628Y-107989902D01*
X162220628Y-107989902D02*
X162077771Y-107847045D01*
X162077771Y-107847045D02*
X162006342Y-107704188D01*
X162006342Y-107704188D02*
X161934914Y-107418474D01*
X161934914Y-107418474D02*
X161934914Y-107204188D01*
X161934914Y-107204188D02*
X162006342Y-106918474D01*
X162006342Y-106918474D02*
X162077771Y-106775617D01*
X162077771Y-106775617D02*
X162220628Y-106632760D01*
X162220628Y-106632760D02*
X162434914Y-106561331D01*
X162434914Y-106561331D02*
X162577771Y-106561331D01*
X162577771Y-106561331D02*
X162792057Y-106632760D01*
X162792057Y-106632760D02*
X162863485Y-106704188D01*
X163506342Y-108061331D02*
X163506342Y-106561331D01*
X164792057Y-107989902D02*
X164649200Y-108061331D01*
X164649200Y-108061331D02*
X164363486Y-108061331D01*
X164363486Y-108061331D02*
X164220628Y-107989902D01*
X164220628Y-107989902D02*
X164149200Y-107847045D01*
X164149200Y-107847045D02*
X164149200Y-107275617D01*
X164149200Y-107275617D02*
X164220628Y-107132760D01*
X164220628Y-107132760D02*
X164363486Y-107061331D01*
X164363486Y-107061331D02*
X164649200Y-107061331D01*
X164649200Y-107061331D02*
X164792057Y-107132760D01*
X164792057Y-107132760D02*
X164863486Y-107275617D01*
X164863486Y-107275617D02*
X164863486Y-107418474D01*
X164863486Y-107418474D02*
X164149200Y-107561331D01*
X166906342Y-107275617D02*
X167120628Y-107347045D01*
X167120628Y-107347045D02*
X167192057Y-107418474D01*
X167192057Y-107418474D02*
X167263485Y-107561331D01*
X167263485Y-107561331D02*
X167263485Y-107775617D01*
X167263485Y-107775617D02*
X167192057Y-107918474D01*
X167192057Y-107918474D02*
X167120628Y-107989902D01*
X167120628Y-107989902D02*
X166977771Y-108061331D01*
X166977771Y-108061331D02*
X166406342Y-108061331D01*
X166406342Y-108061331D02*
X166406342Y-106561331D01*
X166406342Y-106561331D02*
X166906342Y-106561331D01*
X166906342Y-106561331D02*
X167049200Y-106632760D01*
X167049200Y-106632760D02*
X167120628Y-106704188D01*
X167120628Y-106704188D02*
X167192057Y-106847045D01*
X167192057Y-106847045D02*
X167192057Y-106989902D01*
X167192057Y-106989902D02*
X167120628Y-107132760D01*
X167120628Y-107132760D02*
X167049200Y-107204188D01*
X167049200Y-107204188D02*
X166906342Y-107275617D01*
X166906342Y-107275617D02*
X166406342Y-107275617D01*
X167906342Y-108061331D02*
X167906342Y-107061331D01*
X167906342Y-107347045D02*
X167977771Y-107204188D01*
X167977771Y-107204188D02*
X168049200Y-107132760D01*
X168049200Y-107132760D02*
X168192057Y-107061331D01*
X168192057Y-107061331D02*
X168334914Y-107061331D01*
X169477771Y-108061331D02*
X169477771Y-107275617D01*
X169477771Y-107275617D02*
X169406342Y-107132760D01*
X169406342Y-107132760D02*
X169263485Y-107061331D01*
X169263485Y-107061331D02*
X168977771Y-107061331D01*
X168977771Y-107061331D02*
X168834913Y-107132760D01*
X169477771Y-107989902D02*
X169334913Y-108061331D01*
X169334913Y-108061331D02*
X168977771Y-108061331D01*
X168977771Y-108061331D02*
X168834913Y-107989902D01*
X168834913Y-107989902D02*
X168763485Y-107847045D01*
X168763485Y-107847045D02*
X168763485Y-107704188D01*
X168763485Y-107704188D02*
X168834913Y-107561331D01*
X168834913Y-107561331D02*
X168977771Y-107489902D01*
X168977771Y-107489902D02*
X169334913Y-107489902D01*
X169334913Y-107489902D02*
X169477771Y-107418474D01*
X170834914Y-107989902D02*
X170692056Y-108061331D01*
X170692056Y-108061331D02*
X170406342Y-108061331D01*
X170406342Y-108061331D02*
X170263485Y-107989902D01*
X170263485Y-107989902D02*
X170192056Y-107918474D01*
X170192056Y-107918474D02*
X170120628Y-107775617D01*
X170120628Y-107775617D02*
X170120628Y-107347045D01*
X170120628Y-107347045D02*
X170192056Y-107204188D01*
X170192056Y-107204188D02*
X170263485Y-107132760D01*
X170263485Y-107132760D02*
X170406342Y-107061331D01*
X170406342Y-107061331D02*
X170692056Y-107061331D01*
X170692056Y-107061331D02*
X170834914Y-107132760D01*
X171477770Y-108061331D02*
X171477770Y-106561331D01*
X171620628Y-107489902D02*
X172049199Y-108061331D01*
X172049199Y-107061331D02*
X171477770Y-107632760D01*
X173263485Y-107989902D02*
X173120628Y-108061331D01*
X173120628Y-108061331D02*
X172834914Y-108061331D01*
X172834914Y-108061331D02*
X172692056Y-107989902D01*
X172692056Y-107989902D02*
X172620628Y-107847045D01*
X172620628Y-107847045D02*
X172620628Y-107275617D01*
X172620628Y-107275617D02*
X172692056Y-107132760D01*
X172692056Y-107132760D02*
X172834914Y-107061331D01*
X172834914Y-107061331D02*
X173120628Y-107061331D01*
X173120628Y-107061331D02*
X173263485Y-107132760D01*
X173263485Y-107132760D02*
X173334914Y-107275617D01*
X173334914Y-107275617D02*
X173334914Y-107418474D01*
X173334914Y-107418474D02*
X172620628Y-107561331D01*
X173763485Y-107061331D02*
X174334913Y-107061331D01*
X173977770Y-106561331D02*
X173977770Y-107847045D01*
X173977770Y-107847045D02*
X174049199Y-107989902D01*
X174049199Y-107989902D02*
X174192056Y-108061331D01*
X174192056Y-108061331D02*
X174334913Y-108061331D01*
X176449199Y-108061331D02*
X175734913Y-108061331D01*
X175734913Y-108061331D02*
X175734913Y-106561331D01*
X176949199Y-107275617D02*
X177449199Y-107275617D01*
X177663485Y-108061331D02*
X176949199Y-108061331D01*
X176949199Y-108061331D02*
X176949199Y-106561331D01*
X176949199Y-106561331D02*
X177663485Y-106561331D01*
X178306342Y-108061331D02*
X178306342Y-106561331D01*
X178306342Y-106561331D02*
X178663485Y-106561331D01*
X178663485Y-106561331D02*
X178877771Y-106632760D01*
X178877771Y-106632760D02*
X179020628Y-106775617D01*
X179020628Y-106775617D02*
X179092057Y-106918474D01*
X179092057Y-106918474D02*
X179163485Y-107204188D01*
X179163485Y-107204188D02*
X179163485Y-107418474D01*
X179163485Y-107418474D02*
X179092057Y-107704188D01*
X179092057Y-107704188D02*
X179020628Y-107847045D01*
X179020628Y-107847045D02*
X178877771Y-107989902D01*
X178877771Y-107989902D02*
X178663485Y-108061331D01*
X178663485Y-108061331D02*
X178306342Y-108061331D01*
X181206342Y-107275617D02*
X181420628Y-107347045D01*
X181420628Y-107347045D02*
X181492057Y-107418474D01*
X181492057Y-107418474D02*
X181563485Y-107561331D01*
X181563485Y-107561331D02*
X181563485Y-107775617D01*
X181563485Y-107775617D02*
X181492057Y-107918474D01*
X181492057Y-107918474D02*
X181420628Y-107989902D01*
X181420628Y-107989902D02*
X181277771Y-108061331D01*
X181277771Y-108061331D02*
X180706342Y-108061331D01*
X180706342Y-108061331D02*
X180706342Y-106561331D01*
X180706342Y-106561331D02*
X181206342Y-106561331D01*
X181206342Y-106561331D02*
X181349200Y-106632760D01*
X181349200Y-106632760D02*
X181420628Y-106704188D01*
X181420628Y-106704188D02*
X181492057Y-106847045D01*
X181492057Y-106847045D02*
X181492057Y-106989902D01*
X181492057Y-106989902D02*
X181420628Y-107132760D01*
X181420628Y-107132760D02*
X181349200Y-107204188D01*
X181349200Y-107204188D02*
X181206342Y-107275617D01*
X181206342Y-107275617D02*
X180706342Y-107275617D01*
X182420628Y-108061331D02*
X182277771Y-107989902D01*
X182277771Y-107989902D02*
X182206342Y-107918474D01*
X182206342Y-107918474D02*
X182134914Y-107775617D01*
X182134914Y-107775617D02*
X182134914Y-107347045D01*
X182134914Y-107347045D02*
X182206342Y-107204188D01*
X182206342Y-107204188D02*
X182277771Y-107132760D01*
X182277771Y-107132760D02*
X182420628Y-107061331D01*
X182420628Y-107061331D02*
X182634914Y-107061331D01*
X182634914Y-107061331D02*
X182777771Y-107132760D01*
X182777771Y-107132760D02*
X182849200Y-107204188D01*
X182849200Y-107204188D02*
X182920628Y-107347045D01*
X182920628Y-107347045D02*
X182920628Y-107775617D01*
X182920628Y-107775617D02*
X182849200Y-107918474D01*
X182849200Y-107918474D02*
X182777771Y-107989902D01*
X182777771Y-107989902D02*
X182634914Y-108061331D01*
X182634914Y-108061331D02*
X182420628Y-108061331D01*
X184206343Y-108061331D02*
X184206343Y-107275617D01*
X184206343Y-107275617D02*
X184134914Y-107132760D01*
X184134914Y-107132760D02*
X183992057Y-107061331D01*
X183992057Y-107061331D02*
X183706343Y-107061331D01*
X183706343Y-107061331D02*
X183563485Y-107132760D01*
X184206343Y-107989902D02*
X184063485Y-108061331D01*
X184063485Y-108061331D02*
X183706343Y-108061331D01*
X183706343Y-108061331D02*
X183563485Y-107989902D01*
X183563485Y-107989902D02*
X183492057Y-107847045D01*
X183492057Y-107847045D02*
X183492057Y-107704188D01*
X183492057Y-107704188D02*
X183563485Y-107561331D01*
X183563485Y-107561331D02*
X183706343Y-107489902D01*
X183706343Y-107489902D02*
X184063485Y-107489902D01*
X184063485Y-107489902D02*
X184206343Y-107418474D01*
X184920628Y-108061331D02*
X184920628Y-107061331D01*
X184920628Y-107347045D02*
X184992057Y-107204188D01*
X184992057Y-107204188D02*
X185063486Y-107132760D01*
X185063486Y-107132760D02*
X185206343Y-107061331D01*
X185206343Y-107061331D02*
X185349200Y-107061331D01*
X186492057Y-108061331D02*
X186492057Y-106561331D01*
X186492057Y-107989902D02*
X186349199Y-108061331D01*
X186349199Y-108061331D02*
X186063485Y-108061331D01*
X186063485Y-108061331D02*
X185920628Y-107989902D01*
X185920628Y-107989902D02*
X185849199Y-107918474D01*
X185849199Y-107918474D02*
X185777771Y-107775617D01*
X185777771Y-107775617D02*
X185777771Y-107347045D01*
X185777771Y-107347045D02*
X185849199Y-107204188D01*
X185849199Y-107204188D02*
X185920628Y-107132760D01*
X185920628Y-107132760D02*
X186063485Y-107061331D01*
X186063485Y-107061331D02*
X186349199Y-107061331D01*
X186349199Y-107061331D02*
X186492057Y-107132760D01*
X161363485Y-110491331D02*
X160863485Y-109777045D01*
X160506342Y-110491331D02*
X160506342Y-108991331D01*
X160506342Y-108991331D02*
X161077771Y-108991331D01*
X161077771Y-108991331D02*
X161220628Y-109062760D01*
X161220628Y-109062760D02*
X161292057Y-109134188D01*
X161292057Y-109134188D02*
X161363485Y-109277045D01*
X161363485Y-109277045D02*
X161363485Y-109491331D01*
X161363485Y-109491331D02*
X161292057Y-109634188D01*
X161292057Y-109634188D02*
X161220628Y-109705617D01*
X161220628Y-109705617D02*
X161077771Y-109777045D01*
X161077771Y-109777045D02*
X160506342Y-109777045D01*
X162577771Y-110419902D02*
X162434914Y-110491331D01*
X162434914Y-110491331D02*
X162149200Y-110491331D01*
X162149200Y-110491331D02*
X162006342Y-110419902D01*
X162006342Y-110419902D02*
X161934914Y-110277045D01*
X161934914Y-110277045D02*
X161934914Y-109705617D01*
X161934914Y-109705617D02*
X162006342Y-109562760D01*
X162006342Y-109562760D02*
X162149200Y-109491331D01*
X162149200Y-109491331D02*
X162434914Y-109491331D01*
X162434914Y-109491331D02*
X162577771Y-109562760D01*
X162577771Y-109562760D02*
X162649200Y-109705617D01*
X162649200Y-109705617D02*
X162649200Y-109848474D01*
X162649200Y-109848474D02*
X161934914Y-109991331D01*
X163149199Y-109491331D02*
X163506342Y-110491331D01*
X163506342Y-110491331D02*
X163863485Y-109491331D01*
X164434913Y-110348474D02*
X164506342Y-110419902D01*
X164506342Y-110419902D02*
X164434913Y-110491331D01*
X164434913Y-110491331D02*
X164363485Y-110419902D01*
X164363485Y-110419902D02*
X164434913Y-110348474D01*
X164434913Y-110348474D02*
X164434913Y-110491331D01*
X165977771Y-110062760D02*
X166692057Y-110062760D01*
X165834914Y-110491331D02*
X166334914Y-108991331D01*
X166334914Y-108991331D02*
X166834914Y-110491331D01*
X161363485Y-112778474D02*
X161292057Y-112849902D01*
X161292057Y-112849902D02*
X161077771Y-112921331D01*
X161077771Y-112921331D02*
X160934914Y-112921331D01*
X160934914Y-112921331D02*
X160720628Y-112849902D01*
X160720628Y-112849902D02*
X160577771Y-112707045D01*
X160577771Y-112707045D02*
X160506342Y-112564188D01*
X160506342Y-112564188D02*
X160434914Y-112278474D01*
X160434914Y-112278474D02*
X160434914Y-112064188D01*
X160434914Y-112064188D02*
X160506342Y-111778474D01*
X160506342Y-111778474D02*
X160577771Y-111635617D01*
X160577771Y-111635617D02*
X160720628Y-111492760D01*
X160720628Y-111492760D02*
X160934914Y-111421331D01*
X160934914Y-111421331D02*
X161077771Y-111421331D01*
X161077771Y-111421331D02*
X161292057Y-111492760D01*
X161292057Y-111492760D02*
X161363485Y-111564188D01*
X162006342Y-112921331D02*
X162006342Y-111921331D01*
X162006342Y-112207045D02*
X162077771Y-112064188D01*
X162077771Y-112064188D02*
X162149200Y-111992760D01*
X162149200Y-111992760D02*
X162292057Y-111921331D01*
X162292057Y-111921331D02*
X162434914Y-111921331D01*
X162934913Y-112921331D02*
X162934913Y-111921331D01*
X162934913Y-111421331D02*
X162863485Y-111492760D01*
X162863485Y-111492760D02*
X162934913Y-111564188D01*
X162934913Y-111564188D02*
X163006342Y-111492760D01*
X163006342Y-111492760D02*
X162934913Y-111421331D01*
X162934913Y-111421331D02*
X162934913Y-111564188D01*
X163577771Y-112849902D02*
X163720628Y-112921331D01*
X163720628Y-112921331D02*
X164006342Y-112921331D01*
X164006342Y-112921331D02*
X164149199Y-112849902D01*
X164149199Y-112849902D02*
X164220628Y-112707045D01*
X164220628Y-112707045D02*
X164220628Y-112635617D01*
X164220628Y-112635617D02*
X164149199Y-112492760D01*
X164149199Y-112492760D02*
X164006342Y-112421331D01*
X164006342Y-112421331D02*
X163792057Y-112421331D01*
X163792057Y-112421331D02*
X163649199Y-112349902D01*
X163649199Y-112349902D02*
X163577771Y-112207045D01*
X163577771Y-112207045D02*
X163577771Y-112135617D01*
X163577771Y-112135617D02*
X163649199Y-111992760D01*
X163649199Y-111992760D02*
X163792057Y-111921331D01*
X163792057Y-111921331D02*
X164006342Y-111921331D01*
X164006342Y-111921331D02*
X164149199Y-111992760D01*
X165692057Y-112849902D02*
X165906343Y-112921331D01*
X165906343Y-112921331D02*
X166263485Y-112921331D01*
X166263485Y-112921331D02*
X166406343Y-112849902D01*
X166406343Y-112849902D02*
X166477771Y-112778474D01*
X166477771Y-112778474D02*
X166549200Y-112635617D01*
X166549200Y-112635617D02*
X166549200Y-112492760D01*
X166549200Y-112492760D02*
X166477771Y-112349902D01*
X166477771Y-112349902D02*
X166406343Y-112278474D01*
X166406343Y-112278474D02*
X166263485Y-112207045D01*
X166263485Y-112207045D02*
X165977771Y-112135617D01*
X165977771Y-112135617D02*
X165834914Y-112064188D01*
X165834914Y-112064188D02*
X165763485Y-111992760D01*
X165763485Y-111992760D02*
X165692057Y-111849902D01*
X165692057Y-111849902D02*
X165692057Y-111707045D01*
X165692057Y-111707045D02*
X165763485Y-111564188D01*
X165763485Y-111564188D02*
X165834914Y-111492760D01*
X165834914Y-111492760D02*
X165977771Y-111421331D01*
X165977771Y-111421331D02*
X166334914Y-111421331D01*
X166334914Y-111421331D02*
X166549200Y-111492760D01*
X167192056Y-112921331D02*
X167192056Y-111421331D01*
X167834914Y-112921331D02*
X167834914Y-112135617D01*
X167834914Y-112135617D02*
X167763485Y-111992760D01*
X167763485Y-111992760D02*
X167620628Y-111921331D01*
X167620628Y-111921331D02*
X167406342Y-111921331D01*
X167406342Y-111921331D02*
X167263485Y-111992760D01*
X167263485Y-111992760D02*
X167192056Y-112064188D01*
X169192057Y-112921331D02*
X169192057Y-112135617D01*
X169192057Y-112135617D02*
X169120628Y-111992760D01*
X169120628Y-111992760D02*
X168977771Y-111921331D01*
X168977771Y-111921331D02*
X168692057Y-111921331D01*
X168692057Y-111921331D02*
X168549199Y-111992760D01*
X169192057Y-112849902D02*
X169049199Y-112921331D01*
X169049199Y-112921331D02*
X168692057Y-112921331D01*
X168692057Y-112921331D02*
X168549199Y-112849902D01*
X168549199Y-112849902D02*
X168477771Y-112707045D01*
X168477771Y-112707045D02*
X168477771Y-112564188D01*
X168477771Y-112564188D02*
X168549199Y-112421331D01*
X168549199Y-112421331D02*
X168692057Y-112349902D01*
X168692057Y-112349902D02*
X169049199Y-112349902D01*
X169049199Y-112349902D02*
X169192057Y-112278474D01*
X169906342Y-112921331D02*
X169906342Y-111921331D01*
X169906342Y-112207045D02*
X169977771Y-112064188D01*
X169977771Y-112064188D02*
X170049200Y-111992760D01*
X170049200Y-111992760D02*
X170192057Y-111921331D01*
X170192057Y-111921331D02*
X170334914Y-111921331D01*
X170834913Y-111921331D02*
X170834913Y-113421331D01*
X170834913Y-111992760D02*
X170977771Y-111921331D01*
X170977771Y-111921331D02*
X171263485Y-111921331D01*
X171263485Y-111921331D02*
X171406342Y-111992760D01*
X171406342Y-111992760D02*
X171477771Y-112064188D01*
X171477771Y-112064188D02*
X171549199Y-112207045D01*
X171549199Y-112207045D02*
X171549199Y-112635617D01*
X171549199Y-112635617D02*
X171477771Y-112778474D01*
X171477771Y-112778474D02*
X171406342Y-112849902D01*
X171406342Y-112849902D02*
X171263485Y-112921331D01*
X171263485Y-112921331D02*
X170977771Y-112921331D01*
X170977771Y-112921331D02*
X170834913Y-112849902D01*
X160792057Y-113851331D02*
X161077771Y-113851331D01*
X161077771Y-113851331D02*
X161220628Y-113922760D01*
X161220628Y-113922760D02*
X161363485Y-114065617D01*
X161363485Y-114065617D02*
X161434914Y-114351331D01*
X161434914Y-114351331D02*
X161434914Y-114851331D01*
X161434914Y-114851331D02*
X161363485Y-115137045D01*
X161363485Y-115137045D02*
X161220628Y-115279902D01*
X161220628Y-115279902D02*
X161077771Y-115351331D01*
X161077771Y-115351331D02*
X160792057Y-115351331D01*
X160792057Y-115351331D02*
X160649200Y-115279902D01*
X160649200Y-115279902D02*
X160506342Y-115137045D01*
X160506342Y-115137045D02*
X160434914Y-114851331D01*
X160434914Y-114851331D02*
X160434914Y-114351331D01*
X160434914Y-114351331D02*
X160506342Y-114065617D01*
X160506342Y-114065617D02*
X160649200Y-113922760D01*
X160649200Y-113922760D02*
X160792057Y-113851331D01*
X162077771Y-114351331D02*
X162077771Y-115851331D01*
X162077771Y-114422760D02*
X162220629Y-114351331D01*
X162220629Y-114351331D02*
X162506343Y-114351331D01*
X162506343Y-114351331D02*
X162649200Y-114422760D01*
X162649200Y-114422760D02*
X162720629Y-114494188D01*
X162720629Y-114494188D02*
X162792057Y-114637045D01*
X162792057Y-114637045D02*
X162792057Y-115065617D01*
X162792057Y-115065617D02*
X162720629Y-115208474D01*
X162720629Y-115208474D02*
X162649200Y-115279902D01*
X162649200Y-115279902D02*
X162506343Y-115351331D01*
X162506343Y-115351331D02*
X162220629Y-115351331D01*
X162220629Y-115351331D02*
X162077771Y-115279902D01*
X164006343Y-115279902D02*
X163863486Y-115351331D01*
X163863486Y-115351331D02*
X163577772Y-115351331D01*
X163577772Y-115351331D02*
X163434914Y-115279902D01*
X163434914Y-115279902D02*
X163363486Y-115137045D01*
X163363486Y-115137045D02*
X163363486Y-114565617D01*
X163363486Y-114565617D02*
X163434914Y-114422760D01*
X163434914Y-114422760D02*
X163577772Y-114351331D01*
X163577772Y-114351331D02*
X163863486Y-114351331D01*
X163863486Y-114351331D02*
X164006343Y-114422760D01*
X164006343Y-114422760D02*
X164077772Y-114565617D01*
X164077772Y-114565617D02*
X164077772Y-114708474D01*
X164077772Y-114708474D02*
X163363486Y-114851331D01*
X164720628Y-114351331D02*
X164720628Y-115351331D01*
X164720628Y-114494188D02*
X164792057Y-114422760D01*
X164792057Y-114422760D02*
X164934914Y-114351331D01*
X164934914Y-114351331D02*
X165149200Y-114351331D01*
X165149200Y-114351331D02*
X165292057Y-114422760D01*
X165292057Y-114422760D02*
X165363486Y-114565617D01*
X165363486Y-114565617D02*
X165363486Y-115351331D01*
X166977771Y-114565617D02*
X167477771Y-114565617D01*
X167692057Y-115351331D02*
X166977771Y-115351331D01*
X166977771Y-115351331D02*
X166977771Y-113851331D01*
X166977771Y-113851331D02*
X167692057Y-113851331D01*
X168334914Y-114351331D02*
X168334914Y-115851331D01*
X168334914Y-114422760D02*
X168477772Y-114351331D01*
X168477772Y-114351331D02*
X168763486Y-114351331D01*
X168763486Y-114351331D02*
X168906343Y-114422760D01*
X168906343Y-114422760D02*
X168977772Y-114494188D01*
X168977772Y-114494188D02*
X169049200Y-114637045D01*
X169049200Y-114637045D02*
X169049200Y-115065617D01*
X169049200Y-115065617D02*
X168977772Y-115208474D01*
X168977772Y-115208474D02*
X168906343Y-115279902D01*
X168906343Y-115279902D02*
X168763486Y-115351331D01*
X168763486Y-115351331D02*
X168477772Y-115351331D01*
X168477772Y-115351331D02*
X168334914Y-115279902D01*
X169692057Y-115351331D02*
X169692057Y-113851331D01*
X170334915Y-115351331D02*
X170334915Y-114565617D01*
X170334915Y-114565617D02*
X170263486Y-114422760D01*
X170263486Y-114422760D02*
X170120629Y-114351331D01*
X170120629Y-114351331D02*
X169906343Y-114351331D01*
X169906343Y-114351331D02*
X169763486Y-114422760D01*
X169763486Y-114422760D02*
X169692057Y-114494188D01*
X170906343Y-114351331D02*
X171263486Y-115351331D01*
X171620629Y-114351331D02*
X171263486Y-115351331D01*
X171263486Y-115351331D02*
X171120629Y-115708474D01*
X171120629Y-115708474D02*
X171049200Y-115779902D01*
X171049200Y-115779902D02*
X170906343Y-115851331D01*
X172120629Y-115279902D02*
X172263486Y-115351331D01*
X172263486Y-115351331D02*
X172549200Y-115351331D01*
X172549200Y-115351331D02*
X172692057Y-115279902D01*
X172692057Y-115279902D02*
X172763486Y-115137045D01*
X172763486Y-115137045D02*
X172763486Y-115065617D01*
X172763486Y-115065617D02*
X172692057Y-114922760D01*
X172692057Y-114922760D02*
X172549200Y-114851331D01*
X172549200Y-114851331D02*
X172334915Y-114851331D01*
X172334915Y-114851331D02*
X172192057Y-114779902D01*
X172192057Y-114779902D02*
X172120629Y-114637045D01*
X172120629Y-114637045D02*
X172120629Y-114565617D01*
X172120629Y-114565617D02*
X172192057Y-114422760D01*
X172192057Y-114422760D02*
X172334915Y-114351331D01*
X172334915Y-114351331D02*
X172549200Y-114351331D01*
X172549200Y-114351331D02*
X172692057Y-114422760D01*
X173477772Y-115279902D02*
X173477772Y-115351331D01*
X173477772Y-115351331D02*
X173406343Y-115494188D01*
X173406343Y-115494188D02*
X173334915Y-115565617D01*
X175020629Y-115351331D02*
X175020629Y-113851331D01*
X175734915Y-114351331D02*
X175734915Y-115351331D01*
X175734915Y-114494188D02*
X175806344Y-114422760D01*
X175806344Y-114422760D02*
X175949201Y-114351331D01*
X175949201Y-114351331D02*
X176163487Y-114351331D01*
X176163487Y-114351331D02*
X176306344Y-114422760D01*
X176306344Y-114422760D02*
X176377773Y-114565617D01*
X176377773Y-114565617D02*
X176377773Y-115351331D01*
X177734916Y-115279902D02*
X177592058Y-115351331D01*
X177592058Y-115351331D02*
X177306344Y-115351331D01*
X177306344Y-115351331D02*
X177163487Y-115279902D01*
X177163487Y-115279902D02*
X177092058Y-115208474D01*
X177092058Y-115208474D02*
X177020630Y-115065617D01*
X177020630Y-115065617D02*
X177020630Y-114637045D01*
X177020630Y-114637045D02*
X177092058Y-114494188D01*
X177092058Y-114494188D02*
X177163487Y-114422760D01*
X177163487Y-114422760D02*
X177306344Y-114351331D01*
X177306344Y-114351331D02*
X177592058Y-114351331D01*
X177592058Y-114351331D02*
X177734916Y-114422760D01*
D11*
%TO.C,H2*%
X254487295Y-173545140D02*
X254487295Y-172545140D01*
X254487295Y-173021331D02*
X255058723Y-173021331D01*
X255058723Y-173545140D02*
X255058723Y-172545140D01*
X255487295Y-172640379D02*
X255534914Y-172592760D01*
X255534914Y-172592760D02*
X255630152Y-172545140D01*
X255630152Y-172545140D02*
X255868247Y-172545140D01*
X255868247Y-172545140D02*
X255963485Y-172592760D01*
X255963485Y-172592760D02*
X256011104Y-172640379D01*
X256011104Y-172640379D02*
X256058723Y-172735617D01*
X256058723Y-172735617D02*
X256058723Y-172830855D01*
X256058723Y-172830855D02*
X256011104Y-172973712D01*
X256011104Y-172973712D02*
X255439676Y-173545140D01*
X255439676Y-173545140D02*
X256058723Y-173545140D01*
%TO.C,H1*%
X259487295Y-173545140D02*
X259487295Y-172545140D01*
X259487295Y-173021331D02*
X260058723Y-173021331D01*
X260058723Y-173545140D02*
X260058723Y-172545140D01*
X261058723Y-173545140D02*
X260487295Y-173545140D01*
X260773009Y-173545140D02*
X260773009Y-172545140D01*
X260773009Y-172545140D02*
X260677771Y-172687998D01*
X260677771Y-172687998D02*
X260582533Y-172783236D01*
X260582533Y-172783236D02*
X260487295Y-172830855D01*
%TO.C,D2*%
X262816580Y-168538094D02*
X261816580Y-168538094D01*
X261816580Y-168538094D02*
X261816580Y-168299999D01*
X261816580Y-168299999D02*
X261864200Y-168157142D01*
X261864200Y-168157142D02*
X261959438Y-168061904D01*
X261959438Y-168061904D02*
X262054676Y-168014285D01*
X262054676Y-168014285D02*
X262245152Y-167966666D01*
X262245152Y-167966666D02*
X262388009Y-167966666D01*
X262388009Y-167966666D02*
X262578485Y-168014285D01*
X262578485Y-168014285D02*
X262673723Y-168061904D01*
X262673723Y-168061904D02*
X262768961Y-168157142D01*
X262768961Y-168157142D02*
X262816580Y-168299999D01*
X262816580Y-168299999D02*
X262816580Y-168538094D01*
X261911819Y-167585713D02*
X261864200Y-167538094D01*
X261864200Y-167538094D02*
X261816580Y-167442856D01*
X261816580Y-167442856D02*
X261816580Y-167204761D01*
X261816580Y-167204761D02*
X261864200Y-167109523D01*
X261864200Y-167109523D02*
X261911819Y-167061904D01*
X261911819Y-167061904D02*
X262007057Y-167014285D01*
X262007057Y-167014285D02*
X262102295Y-167014285D01*
X262102295Y-167014285D02*
X262245152Y-167061904D01*
X262245152Y-167061904D02*
X262816580Y-167633332D01*
X262816580Y-167633332D02*
X262816580Y-167014285D01*
%TO.C,D1*%
X257716580Y-168615854D02*
X256716580Y-168615854D01*
X256716580Y-168615854D02*
X256716580Y-168377759D01*
X256716580Y-168377759D02*
X256764200Y-168234902D01*
X256764200Y-168234902D02*
X256859438Y-168139664D01*
X256859438Y-168139664D02*
X256954676Y-168092045D01*
X256954676Y-168092045D02*
X257145152Y-168044426D01*
X257145152Y-168044426D02*
X257288009Y-168044426D01*
X257288009Y-168044426D02*
X257478485Y-168092045D01*
X257478485Y-168092045D02*
X257573723Y-168139664D01*
X257573723Y-168139664D02*
X257668961Y-168234902D01*
X257668961Y-168234902D02*
X257716580Y-168377759D01*
X257716580Y-168377759D02*
X257716580Y-168615854D01*
X257716580Y-167092045D02*
X257716580Y-167663473D01*
X257716580Y-167377759D02*
X256716580Y-167377759D01*
X256716580Y-167377759D02*
X256859438Y-167472997D01*
X256859438Y-167472997D02*
X256954676Y-167568235D01*
X256954676Y-167568235D02*
X257002295Y-167663473D01*
%TO.C,J1*%
X245666666Y-165867380D02*
X245666666Y-166581666D01*
X245666666Y-166581666D02*
X245619047Y-166724523D01*
X245619047Y-166724523D02*
X245523809Y-166819761D01*
X245523809Y-166819761D02*
X245380952Y-166867380D01*
X245380952Y-166867380D02*
X245285714Y-166867380D01*
X246666666Y-166867380D02*
X246095238Y-166867380D01*
X246380952Y-166867380D02*
X246380952Y-165867380D01*
X246380952Y-165867380D02*
X246285714Y-166010238D01*
X246285714Y-166010238D02*
X246190476Y-166105476D01*
X246190476Y-166105476D02*
X246095238Y-166153095D01*
%TO.C,H2*%
X227487295Y-173545140D02*
X227487295Y-172545140D01*
X227487295Y-173021331D02*
X228058723Y-173021331D01*
X228058723Y-173545140D02*
X228058723Y-172545140D01*
X228487295Y-172640379D02*
X228534914Y-172592760D01*
X228534914Y-172592760D02*
X228630152Y-172545140D01*
X228630152Y-172545140D02*
X228868247Y-172545140D01*
X228868247Y-172545140D02*
X228963485Y-172592760D01*
X228963485Y-172592760D02*
X229011104Y-172640379D01*
X229011104Y-172640379D02*
X229058723Y-172735617D01*
X229058723Y-172735617D02*
X229058723Y-172830855D01*
X229058723Y-172830855D02*
X229011104Y-172973712D01*
X229011104Y-172973712D02*
X228439676Y-173545140D01*
X228439676Y-173545140D02*
X229058723Y-173545140D01*
%TO.C,H1*%
X232487295Y-173545140D02*
X232487295Y-172545140D01*
X232487295Y-173021331D02*
X233058723Y-173021331D01*
X233058723Y-173545140D02*
X233058723Y-172545140D01*
X234058723Y-173545140D02*
X233487295Y-173545140D01*
X233773009Y-173545140D02*
X233773009Y-172545140D01*
X233773009Y-172545140D02*
X233677771Y-172687998D01*
X233677771Y-172687998D02*
X233582533Y-172783236D01*
X233582533Y-172783236D02*
X233487295Y-172830855D01*
%TO.C,D2*%
X235816580Y-168538094D02*
X234816580Y-168538094D01*
X234816580Y-168538094D02*
X234816580Y-168299999D01*
X234816580Y-168299999D02*
X234864200Y-168157142D01*
X234864200Y-168157142D02*
X234959438Y-168061904D01*
X234959438Y-168061904D02*
X235054676Y-168014285D01*
X235054676Y-168014285D02*
X235245152Y-167966666D01*
X235245152Y-167966666D02*
X235388009Y-167966666D01*
X235388009Y-167966666D02*
X235578485Y-168014285D01*
X235578485Y-168014285D02*
X235673723Y-168061904D01*
X235673723Y-168061904D02*
X235768961Y-168157142D01*
X235768961Y-168157142D02*
X235816580Y-168299999D01*
X235816580Y-168299999D02*
X235816580Y-168538094D01*
X234911819Y-167585713D02*
X234864200Y-167538094D01*
X234864200Y-167538094D02*
X234816580Y-167442856D01*
X234816580Y-167442856D02*
X234816580Y-167204761D01*
X234816580Y-167204761D02*
X234864200Y-167109523D01*
X234864200Y-167109523D02*
X234911819Y-167061904D01*
X234911819Y-167061904D02*
X235007057Y-167014285D01*
X235007057Y-167014285D02*
X235102295Y-167014285D01*
X235102295Y-167014285D02*
X235245152Y-167061904D01*
X235245152Y-167061904D02*
X235816580Y-167633332D01*
X235816580Y-167633332D02*
X235816580Y-167014285D01*
%TO.C,D1*%
X230716580Y-168615854D02*
X229716580Y-168615854D01*
X229716580Y-168615854D02*
X229716580Y-168377759D01*
X229716580Y-168377759D02*
X229764200Y-168234902D01*
X229764200Y-168234902D02*
X229859438Y-168139664D01*
X229859438Y-168139664D02*
X229954676Y-168092045D01*
X229954676Y-168092045D02*
X230145152Y-168044426D01*
X230145152Y-168044426D02*
X230288009Y-168044426D01*
X230288009Y-168044426D02*
X230478485Y-168092045D01*
X230478485Y-168092045D02*
X230573723Y-168139664D01*
X230573723Y-168139664D02*
X230668961Y-168234902D01*
X230668961Y-168234902D02*
X230716580Y-168377759D01*
X230716580Y-168377759D02*
X230716580Y-168615854D01*
X230716580Y-167092045D02*
X230716580Y-167663473D01*
X230716580Y-167377759D02*
X229716580Y-167377759D01*
X229716580Y-167377759D02*
X229859438Y-167472997D01*
X229859438Y-167472997D02*
X229954676Y-167568235D01*
X229954676Y-167568235D02*
X230002295Y-167663473D01*
%TO.C,J1*%
X218666666Y-165867380D02*
X218666666Y-166581666D01*
X218666666Y-166581666D02*
X218619047Y-166724523D01*
X218619047Y-166724523D02*
X218523809Y-166819761D01*
X218523809Y-166819761D02*
X218380952Y-166867380D01*
X218380952Y-166867380D02*
X218285714Y-166867380D01*
X219666666Y-166867380D02*
X219095238Y-166867380D01*
X219380952Y-166867380D02*
X219380952Y-165867380D01*
X219380952Y-165867380D02*
X219285714Y-166010238D01*
X219285714Y-166010238D02*
X219190476Y-166105476D01*
X219190476Y-166105476D02*
X219095238Y-166153095D01*
%TO.C,H2*%
X200687295Y-173545140D02*
X200687295Y-172545140D01*
X200687295Y-173021331D02*
X201258723Y-173021331D01*
X201258723Y-173545140D02*
X201258723Y-172545140D01*
X201687295Y-172640379D02*
X201734914Y-172592760D01*
X201734914Y-172592760D02*
X201830152Y-172545140D01*
X201830152Y-172545140D02*
X202068247Y-172545140D01*
X202068247Y-172545140D02*
X202163485Y-172592760D01*
X202163485Y-172592760D02*
X202211104Y-172640379D01*
X202211104Y-172640379D02*
X202258723Y-172735617D01*
X202258723Y-172735617D02*
X202258723Y-172830855D01*
X202258723Y-172830855D02*
X202211104Y-172973712D01*
X202211104Y-172973712D02*
X201639676Y-173545140D01*
X201639676Y-173545140D02*
X202258723Y-173545140D01*
%TO.C,H1*%
X205687295Y-173545140D02*
X205687295Y-172545140D01*
X205687295Y-173021331D02*
X206258723Y-173021331D01*
X206258723Y-173545140D02*
X206258723Y-172545140D01*
X207258723Y-173545140D02*
X206687295Y-173545140D01*
X206973009Y-173545140D02*
X206973009Y-172545140D01*
X206973009Y-172545140D02*
X206877771Y-172687998D01*
X206877771Y-172687998D02*
X206782533Y-172783236D01*
X206782533Y-172783236D02*
X206687295Y-172830855D01*
%TO.C,D2*%
X209016580Y-168538094D02*
X208016580Y-168538094D01*
X208016580Y-168538094D02*
X208016580Y-168299999D01*
X208016580Y-168299999D02*
X208064200Y-168157142D01*
X208064200Y-168157142D02*
X208159438Y-168061904D01*
X208159438Y-168061904D02*
X208254676Y-168014285D01*
X208254676Y-168014285D02*
X208445152Y-167966666D01*
X208445152Y-167966666D02*
X208588009Y-167966666D01*
X208588009Y-167966666D02*
X208778485Y-168014285D01*
X208778485Y-168014285D02*
X208873723Y-168061904D01*
X208873723Y-168061904D02*
X208968961Y-168157142D01*
X208968961Y-168157142D02*
X209016580Y-168299999D01*
X209016580Y-168299999D02*
X209016580Y-168538094D01*
X208111819Y-167585713D02*
X208064200Y-167538094D01*
X208064200Y-167538094D02*
X208016580Y-167442856D01*
X208016580Y-167442856D02*
X208016580Y-167204761D01*
X208016580Y-167204761D02*
X208064200Y-167109523D01*
X208064200Y-167109523D02*
X208111819Y-167061904D01*
X208111819Y-167061904D02*
X208207057Y-167014285D01*
X208207057Y-167014285D02*
X208302295Y-167014285D01*
X208302295Y-167014285D02*
X208445152Y-167061904D01*
X208445152Y-167061904D02*
X209016580Y-167633332D01*
X209016580Y-167633332D02*
X209016580Y-167014285D01*
%TO.C,D1*%
X203916580Y-168615854D02*
X202916580Y-168615854D01*
X202916580Y-168615854D02*
X202916580Y-168377759D01*
X202916580Y-168377759D02*
X202964200Y-168234902D01*
X202964200Y-168234902D02*
X203059438Y-168139664D01*
X203059438Y-168139664D02*
X203154676Y-168092045D01*
X203154676Y-168092045D02*
X203345152Y-168044426D01*
X203345152Y-168044426D02*
X203488009Y-168044426D01*
X203488009Y-168044426D02*
X203678485Y-168092045D01*
X203678485Y-168092045D02*
X203773723Y-168139664D01*
X203773723Y-168139664D02*
X203868961Y-168234902D01*
X203868961Y-168234902D02*
X203916580Y-168377759D01*
X203916580Y-168377759D02*
X203916580Y-168615854D01*
X203916580Y-167092045D02*
X203916580Y-167663473D01*
X203916580Y-167377759D02*
X202916580Y-167377759D01*
X202916580Y-167377759D02*
X203059438Y-167472997D01*
X203059438Y-167472997D02*
X203154676Y-167568235D01*
X203154676Y-167568235D02*
X203202295Y-167663473D01*
%TO.C,J1*%
X191866666Y-165867380D02*
X191866666Y-166581666D01*
X191866666Y-166581666D02*
X191819047Y-166724523D01*
X191819047Y-166724523D02*
X191723809Y-166819761D01*
X191723809Y-166819761D02*
X191580952Y-166867380D01*
X191580952Y-166867380D02*
X191485714Y-166867380D01*
X192866666Y-166867380D02*
X192295238Y-166867380D01*
X192580952Y-166867380D02*
X192580952Y-165867380D01*
X192580952Y-165867380D02*
X192485714Y-166010238D01*
X192485714Y-166010238D02*
X192390476Y-166105476D01*
X192390476Y-166105476D02*
X192295238Y-166153095D01*
%TO.C,H2*%
X173487295Y-173545140D02*
X173487295Y-172545140D01*
X173487295Y-173021331D02*
X174058723Y-173021331D01*
X174058723Y-173545140D02*
X174058723Y-172545140D01*
X174487295Y-172640379D02*
X174534914Y-172592760D01*
X174534914Y-172592760D02*
X174630152Y-172545140D01*
X174630152Y-172545140D02*
X174868247Y-172545140D01*
X174868247Y-172545140D02*
X174963485Y-172592760D01*
X174963485Y-172592760D02*
X175011104Y-172640379D01*
X175011104Y-172640379D02*
X175058723Y-172735617D01*
X175058723Y-172735617D02*
X175058723Y-172830855D01*
X175058723Y-172830855D02*
X175011104Y-172973712D01*
X175011104Y-172973712D02*
X174439676Y-173545140D01*
X174439676Y-173545140D02*
X175058723Y-173545140D01*
%TO.C,H1*%
X178487295Y-173545140D02*
X178487295Y-172545140D01*
X178487295Y-173021331D02*
X179058723Y-173021331D01*
X179058723Y-173545140D02*
X179058723Y-172545140D01*
X180058723Y-173545140D02*
X179487295Y-173545140D01*
X179773009Y-173545140D02*
X179773009Y-172545140D01*
X179773009Y-172545140D02*
X179677771Y-172687998D01*
X179677771Y-172687998D02*
X179582533Y-172783236D01*
X179582533Y-172783236D02*
X179487295Y-172830855D01*
%TO.C,D2*%
X181816580Y-168538094D02*
X180816580Y-168538094D01*
X180816580Y-168538094D02*
X180816580Y-168299999D01*
X180816580Y-168299999D02*
X180864200Y-168157142D01*
X180864200Y-168157142D02*
X180959438Y-168061904D01*
X180959438Y-168061904D02*
X181054676Y-168014285D01*
X181054676Y-168014285D02*
X181245152Y-167966666D01*
X181245152Y-167966666D02*
X181388009Y-167966666D01*
X181388009Y-167966666D02*
X181578485Y-168014285D01*
X181578485Y-168014285D02*
X181673723Y-168061904D01*
X181673723Y-168061904D02*
X181768961Y-168157142D01*
X181768961Y-168157142D02*
X181816580Y-168299999D01*
X181816580Y-168299999D02*
X181816580Y-168538094D01*
X180911819Y-167585713D02*
X180864200Y-167538094D01*
X180864200Y-167538094D02*
X180816580Y-167442856D01*
X180816580Y-167442856D02*
X180816580Y-167204761D01*
X180816580Y-167204761D02*
X180864200Y-167109523D01*
X180864200Y-167109523D02*
X180911819Y-167061904D01*
X180911819Y-167061904D02*
X181007057Y-167014285D01*
X181007057Y-167014285D02*
X181102295Y-167014285D01*
X181102295Y-167014285D02*
X181245152Y-167061904D01*
X181245152Y-167061904D02*
X181816580Y-167633332D01*
X181816580Y-167633332D02*
X181816580Y-167014285D01*
%TO.C,D1*%
X176716580Y-168615854D02*
X175716580Y-168615854D01*
X175716580Y-168615854D02*
X175716580Y-168377759D01*
X175716580Y-168377759D02*
X175764200Y-168234902D01*
X175764200Y-168234902D02*
X175859438Y-168139664D01*
X175859438Y-168139664D02*
X175954676Y-168092045D01*
X175954676Y-168092045D02*
X176145152Y-168044426D01*
X176145152Y-168044426D02*
X176288009Y-168044426D01*
X176288009Y-168044426D02*
X176478485Y-168092045D01*
X176478485Y-168092045D02*
X176573723Y-168139664D01*
X176573723Y-168139664D02*
X176668961Y-168234902D01*
X176668961Y-168234902D02*
X176716580Y-168377759D01*
X176716580Y-168377759D02*
X176716580Y-168615854D01*
X176716580Y-167092045D02*
X176716580Y-167663473D01*
X176716580Y-167377759D02*
X175716580Y-167377759D01*
X175716580Y-167377759D02*
X175859438Y-167472997D01*
X175859438Y-167472997D02*
X175954676Y-167568235D01*
X175954676Y-167568235D02*
X176002295Y-167663473D01*
%TO.C,J1*%
X164666666Y-165867380D02*
X164666666Y-166581666D01*
X164666666Y-166581666D02*
X164619047Y-166724523D01*
X164619047Y-166724523D02*
X164523809Y-166819761D01*
X164523809Y-166819761D02*
X164380952Y-166867380D01*
X164380952Y-166867380D02*
X164285714Y-166867380D01*
X165666666Y-166867380D02*
X165095238Y-166867380D01*
X165380952Y-166867380D02*
X165380952Y-165867380D01*
X165380952Y-165867380D02*
X165285714Y-166010238D01*
X165285714Y-166010238D02*
X165190476Y-166105476D01*
X165190476Y-166105476D02*
X165095238Y-166153095D01*
%TO.C,H2*%
X254487295Y-164545140D02*
X254487295Y-163545140D01*
X254487295Y-164021331D02*
X255058723Y-164021331D01*
X255058723Y-164545140D02*
X255058723Y-163545140D01*
X255487295Y-163640379D02*
X255534914Y-163592760D01*
X255534914Y-163592760D02*
X255630152Y-163545140D01*
X255630152Y-163545140D02*
X255868247Y-163545140D01*
X255868247Y-163545140D02*
X255963485Y-163592760D01*
X255963485Y-163592760D02*
X256011104Y-163640379D01*
X256011104Y-163640379D02*
X256058723Y-163735617D01*
X256058723Y-163735617D02*
X256058723Y-163830855D01*
X256058723Y-163830855D02*
X256011104Y-163973712D01*
X256011104Y-163973712D02*
X255439676Y-164545140D01*
X255439676Y-164545140D02*
X256058723Y-164545140D01*
%TO.C,H1*%
X259487295Y-164545140D02*
X259487295Y-163545140D01*
X259487295Y-164021331D02*
X260058723Y-164021331D01*
X260058723Y-164545140D02*
X260058723Y-163545140D01*
X261058723Y-164545140D02*
X260487295Y-164545140D01*
X260773009Y-164545140D02*
X260773009Y-163545140D01*
X260773009Y-163545140D02*
X260677771Y-163687998D01*
X260677771Y-163687998D02*
X260582533Y-163783236D01*
X260582533Y-163783236D02*
X260487295Y-163830855D01*
%TO.C,D2*%
X262816580Y-159538094D02*
X261816580Y-159538094D01*
X261816580Y-159538094D02*
X261816580Y-159299999D01*
X261816580Y-159299999D02*
X261864200Y-159157142D01*
X261864200Y-159157142D02*
X261959438Y-159061904D01*
X261959438Y-159061904D02*
X262054676Y-159014285D01*
X262054676Y-159014285D02*
X262245152Y-158966666D01*
X262245152Y-158966666D02*
X262388009Y-158966666D01*
X262388009Y-158966666D02*
X262578485Y-159014285D01*
X262578485Y-159014285D02*
X262673723Y-159061904D01*
X262673723Y-159061904D02*
X262768961Y-159157142D01*
X262768961Y-159157142D02*
X262816580Y-159299999D01*
X262816580Y-159299999D02*
X262816580Y-159538094D01*
X261911819Y-158585713D02*
X261864200Y-158538094D01*
X261864200Y-158538094D02*
X261816580Y-158442856D01*
X261816580Y-158442856D02*
X261816580Y-158204761D01*
X261816580Y-158204761D02*
X261864200Y-158109523D01*
X261864200Y-158109523D02*
X261911819Y-158061904D01*
X261911819Y-158061904D02*
X262007057Y-158014285D01*
X262007057Y-158014285D02*
X262102295Y-158014285D01*
X262102295Y-158014285D02*
X262245152Y-158061904D01*
X262245152Y-158061904D02*
X262816580Y-158633332D01*
X262816580Y-158633332D02*
X262816580Y-158014285D01*
%TO.C,D1*%
X257716580Y-159615854D02*
X256716580Y-159615854D01*
X256716580Y-159615854D02*
X256716580Y-159377759D01*
X256716580Y-159377759D02*
X256764200Y-159234902D01*
X256764200Y-159234902D02*
X256859438Y-159139664D01*
X256859438Y-159139664D02*
X256954676Y-159092045D01*
X256954676Y-159092045D02*
X257145152Y-159044426D01*
X257145152Y-159044426D02*
X257288009Y-159044426D01*
X257288009Y-159044426D02*
X257478485Y-159092045D01*
X257478485Y-159092045D02*
X257573723Y-159139664D01*
X257573723Y-159139664D02*
X257668961Y-159234902D01*
X257668961Y-159234902D02*
X257716580Y-159377759D01*
X257716580Y-159377759D02*
X257716580Y-159615854D01*
X257716580Y-158092045D02*
X257716580Y-158663473D01*
X257716580Y-158377759D02*
X256716580Y-158377759D01*
X256716580Y-158377759D02*
X256859438Y-158472997D01*
X256859438Y-158472997D02*
X256954676Y-158568235D01*
X256954676Y-158568235D02*
X257002295Y-158663473D01*
%TO.C,J1*%
X245666666Y-156867380D02*
X245666666Y-157581666D01*
X245666666Y-157581666D02*
X245619047Y-157724523D01*
X245619047Y-157724523D02*
X245523809Y-157819761D01*
X245523809Y-157819761D02*
X245380952Y-157867380D01*
X245380952Y-157867380D02*
X245285714Y-157867380D01*
X246666666Y-157867380D02*
X246095238Y-157867380D01*
X246380952Y-157867380D02*
X246380952Y-156867380D01*
X246380952Y-156867380D02*
X246285714Y-157010238D01*
X246285714Y-157010238D02*
X246190476Y-157105476D01*
X246190476Y-157105476D02*
X246095238Y-157153095D01*
%TO.C,H2*%
X227487295Y-164545140D02*
X227487295Y-163545140D01*
X227487295Y-164021331D02*
X228058723Y-164021331D01*
X228058723Y-164545140D02*
X228058723Y-163545140D01*
X228487295Y-163640379D02*
X228534914Y-163592760D01*
X228534914Y-163592760D02*
X228630152Y-163545140D01*
X228630152Y-163545140D02*
X228868247Y-163545140D01*
X228868247Y-163545140D02*
X228963485Y-163592760D01*
X228963485Y-163592760D02*
X229011104Y-163640379D01*
X229011104Y-163640379D02*
X229058723Y-163735617D01*
X229058723Y-163735617D02*
X229058723Y-163830855D01*
X229058723Y-163830855D02*
X229011104Y-163973712D01*
X229011104Y-163973712D02*
X228439676Y-164545140D01*
X228439676Y-164545140D02*
X229058723Y-164545140D01*
%TO.C,H1*%
X232487295Y-164545140D02*
X232487295Y-163545140D01*
X232487295Y-164021331D02*
X233058723Y-164021331D01*
X233058723Y-164545140D02*
X233058723Y-163545140D01*
X234058723Y-164545140D02*
X233487295Y-164545140D01*
X233773009Y-164545140D02*
X233773009Y-163545140D01*
X233773009Y-163545140D02*
X233677771Y-163687998D01*
X233677771Y-163687998D02*
X233582533Y-163783236D01*
X233582533Y-163783236D02*
X233487295Y-163830855D01*
%TO.C,D2*%
X235816580Y-159538094D02*
X234816580Y-159538094D01*
X234816580Y-159538094D02*
X234816580Y-159299999D01*
X234816580Y-159299999D02*
X234864200Y-159157142D01*
X234864200Y-159157142D02*
X234959438Y-159061904D01*
X234959438Y-159061904D02*
X235054676Y-159014285D01*
X235054676Y-159014285D02*
X235245152Y-158966666D01*
X235245152Y-158966666D02*
X235388009Y-158966666D01*
X235388009Y-158966666D02*
X235578485Y-159014285D01*
X235578485Y-159014285D02*
X235673723Y-159061904D01*
X235673723Y-159061904D02*
X235768961Y-159157142D01*
X235768961Y-159157142D02*
X235816580Y-159299999D01*
X235816580Y-159299999D02*
X235816580Y-159538094D01*
X234911819Y-158585713D02*
X234864200Y-158538094D01*
X234864200Y-158538094D02*
X234816580Y-158442856D01*
X234816580Y-158442856D02*
X234816580Y-158204761D01*
X234816580Y-158204761D02*
X234864200Y-158109523D01*
X234864200Y-158109523D02*
X234911819Y-158061904D01*
X234911819Y-158061904D02*
X235007057Y-158014285D01*
X235007057Y-158014285D02*
X235102295Y-158014285D01*
X235102295Y-158014285D02*
X235245152Y-158061904D01*
X235245152Y-158061904D02*
X235816580Y-158633332D01*
X235816580Y-158633332D02*
X235816580Y-158014285D01*
%TO.C,D1*%
X230716580Y-159615854D02*
X229716580Y-159615854D01*
X229716580Y-159615854D02*
X229716580Y-159377759D01*
X229716580Y-159377759D02*
X229764200Y-159234902D01*
X229764200Y-159234902D02*
X229859438Y-159139664D01*
X229859438Y-159139664D02*
X229954676Y-159092045D01*
X229954676Y-159092045D02*
X230145152Y-159044426D01*
X230145152Y-159044426D02*
X230288009Y-159044426D01*
X230288009Y-159044426D02*
X230478485Y-159092045D01*
X230478485Y-159092045D02*
X230573723Y-159139664D01*
X230573723Y-159139664D02*
X230668961Y-159234902D01*
X230668961Y-159234902D02*
X230716580Y-159377759D01*
X230716580Y-159377759D02*
X230716580Y-159615854D01*
X230716580Y-158092045D02*
X230716580Y-158663473D01*
X230716580Y-158377759D02*
X229716580Y-158377759D01*
X229716580Y-158377759D02*
X229859438Y-158472997D01*
X229859438Y-158472997D02*
X229954676Y-158568235D01*
X229954676Y-158568235D02*
X230002295Y-158663473D01*
%TO.C,J1*%
X218666666Y-156867380D02*
X218666666Y-157581666D01*
X218666666Y-157581666D02*
X218619047Y-157724523D01*
X218619047Y-157724523D02*
X218523809Y-157819761D01*
X218523809Y-157819761D02*
X218380952Y-157867380D01*
X218380952Y-157867380D02*
X218285714Y-157867380D01*
X219666666Y-157867380D02*
X219095238Y-157867380D01*
X219380952Y-157867380D02*
X219380952Y-156867380D01*
X219380952Y-156867380D02*
X219285714Y-157010238D01*
X219285714Y-157010238D02*
X219190476Y-157105476D01*
X219190476Y-157105476D02*
X219095238Y-157153095D01*
%TO.C,H2*%
X200687295Y-164545140D02*
X200687295Y-163545140D01*
X200687295Y-164021331D02*
X201258723Y-164021331D01*
X201258723Y-164545140D02*
X201258723Y-163545140D01*
X201687295Y-163640379D02*
X201734914Y-163592760D01*
X201734914Y-163592760D02*
X201830152Y-163545140D01*
X201830152Y-163545140D02*
X202068247Y-163545140D01*
X202068247Y-163545140D02*
X202163485Y-163592760D01*
X202163485Y-163592760D02*
X202211104Y-163640379D01*
X202211104Y-163640379D02*
X202258723Y-163735617D01*
X202258723Y-163735617D02*
X202258723Y-163830855D01*
X202258723Y-163830855D02*
X202211104Y-163973712D01*
X202211104Y-163973712D02*
X201639676Y-164545140D01*
X201639676Y-164545140D02*
X202258723Y-164545140D01*
%TO.C,H1*%
X205687295Y-164545140D02*
X205687295Y-163545140D01*
X205687295Y-164021331D02*
X206258723Y-164021331D01*
X206258723Y-164545140D02*
X206258723Y-163545140D01*
X207258723Y-164545140D02*
X206687295Y-164545140D01*
X206973009Y-164545140D02*
X206973009Y-163545140D01*
X206973009Y-163545140D02*
X206877771Y-163687998D01*
X206877771Y-163687998D02*
X206782533Y-163783236D01*
X206782533Y-163783236D02*
X206687295Y-163830855D01*
%TO.C,D2*%
X209016580Y-159538094D02*
X208016580Y-159538094D01*
X208016580Y-159538094D02*
X208016580Y-159299999D01*
X208016580Y-159299999D02*
X208064200Y-159157142D01*
X208064200Y-159157142D02*
X208159438Y-159061904D01*
X208159438Y-159061904D02*
X208254676Y-159014285D01*
X208254676Y-159014285D02*
X208445152Y-158966666D01*
X208445152Y-158966666D02*
X208588009Y-158966666D01*
X208588009Y-158966666D02*
X208778485Y-159014285D01*
X208778485Y-159014285D02*
X208873723Y-159061904D01*
X208873723Y-159061904D02*
X208968961Y-159157142D01*
X208968961Y-159157142D02*
X209016580Y-159299999D01*
X209016580Y-159299999D02*
X209016580Y-159538094D01*
X208111819Y-158585713D02*
X208064200Y-158538094D01*
X208064200Y-158538094D02*
X208016580Y-158442856D01*
X208016580Y-158442856D02*
X208016580Y-158204761D01*
X208016580Y-158204761D02*
X208064200Y-158109523D01*
X208064200Y-158109523D02*
X208111819Y-158061904D01*
X208111819Y-158061904D02*
X208207057Y-158014285D01*
X208207057Y-158014285D02*
X208302295Y-158014285D01*
X208302295Y-158014285D02*
X208445152Y-158061904D01*
X208445152Y-158061904D02*
X209016580Y-158633332D01*
X209016580Y-158633332D02*
X209016580Y-158014285D01*
%TO.C,D1*%
X203916580Y-159615854D02*
X202916580Y-159615854D01*
X202916580Y-159615854D02*
X202916580Y-159377759D01*
X202916580Y-159377759D02*
X202964200Y-159234902D01*
X202964200Y-159234902D02*
X203059438Y-159139664D01*
X203059438Y-159139664D02*
X203154676Y-159092045D01*
X203154676Y-159092045D02*
X203345152Y-159044426D01*
X203345152Y-159044426D02*
X203488009Y-159044426D01*
X203488009Y-159044426D02*
X203678485Y-159092045D01*
X203678485Y-159092045D02*
X203773723Y-159139664D01*
X203773723Y-159139664D02*
X203868961Y-159234902D01*
X203868961Y-159234902D02*
X203916580Y-159377759D01*
X203916580Y-159377759D02*
X203916580Y-159615854D01*
X203916580Y-158092045D02*
X203916580Y-158663473D01*
X203916580Y-158377759D02*
X202916580Y-158377759D01*
X202916580Y-158377759D02*
X203059438Y-158472997D01*
X203059438Y-158472997D02*
X203154676Y-158568235D01*
X203154676Y-158568235D02*
X203202295Y-158663473D01*
%TO.C,J1*%
X191866666Y-156867380D02*
X191866666Y-157581666D01*
X191866666Y-157581666D02*
X191819047Y-157724523D01*
X191819047Y-157724523D02*
X191723809Y-157819761D01*
X191723809Y-157819761D02*
X191580952Y-157867380D01*
X191580952Y-157867380D02*
X191485714Y-157867380D01*
X192866666Y-157867380D02*
X192295238Y-157867380D01*
X192580952Y-157867380D02*
X192580952Y-156867380D01*
X192580952Y-156867380D02*
X192485714Y-157010238D01*
X192485714Y-157010238D02*
X192390476Y-157105476D01*
X192390476Y-157105476D02*
X192295238Y-157153095D01*
%TO.C,H2*%
X173487295Y-164545140D02*
X173487295Y-163545140D01*
X173487295Y-164021331D02*
X174058723Y-164021331D01*
X174058723Y-164545140D02*
X174058723Y-163545140D01*
X174487295Y-163640379D02*
X174534914Y-163592760D01*
X174534914Y-163592760D02*
X174630152Y-163545140D01*
X174630152Y-163545140D02*
X174868247Y-163545140D01*
X174868247Y-163545140D02*
X174963485Y-163592760D01*
X174963485Y-163592760D02*
X175011104Y-163640379D01*
X175011104Y-163640379D02*
X175058723Y-163735617D01*
X175058723Y-163735617D02*
X175058723Y-163830855D01*
X175058723Y-163830855D02*
X175011104Y-163973712D01*
X175011104Y-163973712D02*
X174439676Y-164545140D01*
X174439676Y-164545140D02*
X175058723Y-164545140D01*
%TO.C,H1*%
X178487295Y-164545140D02*
X178487295Y-163545140D01*
X178487295Y-164021331D02*
X179058723Y-164021331D01*
X179058723Y-164545140D02*
X179058723Y-163545140D01*
X180058723Y-164545140D02*
X179487295Y-164545140D01*
X179773009Y-164545140D02*
X179773009Y-163545140D01*
X179773009Y-163545140D02*
X179677771Y-163687998D01*
X179677771Y-163687998D02*
X179582533Y-163783236D01*
X179582533Y-163783236D02*
X179487295Y-163830855D01*
%TO.C,D2*%
X181816580Y-159538094D02*
X180816580Y-159538094D01*
X180816580Y-159538094D02*
X180816580Y-159299999D01*
X180816580Y-159299999D02*
X180864200Y-159157142D01*
X180864200Y-159157142D02*
X180959438Y-159061904D01*
X180959438Y-159061904D02*
X181054676Y-159014285D01*
X181054676Y-159014285D02*
X181245152Y-158966666D01*
X181245152Y-158966666D02*
X181388009Y-158966666D01*
X181388009Y-158966666D02*
X181578485Y-159014285D01*
X181578485Y-159014285D02*
X181673723Y-159061904D01*
X181673723Y-159061904D02*
X181768961Y-159157142D01*
X181768961Y-159157142D02*
X181816580Y-159299999D01*
X181816580Y-159299999D02*
X181816580Y-159538094D01*
X180911819Y-158585713D02*
X180864200Y-158538094D01*
X180864200Y-158538094D02*
X180816580Y-158442856D01*
X180816580Y-158442856D02*
X180816580Y-158204761D01*
X180816580Y-158204761D02*
X180864200Y-158109523D01*
X180864200Y-158109523D02*
X180911819Y-158061904D01*
X180911819Y-158061904D02*
X181007057Y-158014285D01*
X181007057Y-158014285D02*
X181102295Y-158014285D01*
X181102295Y-158014285D02*
X181245152Y-158061904D01*
X181245152Y-158061904D02*
X181816580Y-158633332D01*
X181816580Y-158633332D02*
X181816580Y-158014285D01*
%TO.C,D1*%
X176716580Y-159615854D02*
X175716580Y-159615854D01*
X175716580Y-159615854D02*
X175716580Y-159377759D01*
X175716580Y-159377759D02*
X175764200Y-159234902D01*
X175764200Y-159234902D02*
X175859438Y-159139664D01*
X175859438Y-159139664D02*
X175954676Y-159092045D01*
X175954676Y-159092045D02*
X176145152Y-159044426D01*
X176145152Y-159044426D02*
X176288009Y-159044426D01*
X176288009Y-159044426D02*
X176478485Y-159092045D01*
X176478485Y-159092045D02*
X176573723Y-159139664D01*
X176573723Y-159139664D02*
X176668961Y-159234902D01*
X176668961Y-159234902D02*
X176716580Y-159377759D01*
X176716580Y-159377759D02*
X176716580Y-159615854D01*
X176716580Y-158092045D02*
X176716580Y-158663473D01*
X176716580Y-158377759D02*
X175716580Y-158377759D01*
X175716580Y-158377759D02*
X175859438Y-158472997D01*
X175859438Y-158472997D02*
X175954676Y-158568235D01*
X175954676Y-158568235D02*
X176002295Y-158663473D01*
%TO.C,J1*%
X164666666Y-156867380D02*
X164666666Y-157581666D01*
X164666666Y-157581666D02*
X164619047Y-157724523D01*
X164619047Y-157724523D02*
X164523809Y-157819761D01*
X164523809Y-157819761D02*
X164380952Y-157867380D01*
X164380952Y-157867380D02*
X164285714Y-157867380D01*
X165666666Y-157867380D02*
X165095238Y-157867380D01*
X165380952Y-157867380D02*
X165380952Y-156867380D01*
X165380952Y-156867380D02*
X165285714Y-157010238D01*
X165285714Y-157010238D02*
X165190476Y-157105476D01*
X165190476Y-157105476D02*
X165095238Y-157153095D01*
%TO.C,H2*%
X254487295Y-155545140D02*
X254487295Y-154545140D01*
X254487295Y-155021331D02*
X255058723Y-155021331D01*
X255058723Y-155545140D02*
X255058723Y-154545140D01*
X255487295Y-154640379D02*
X255534914Y-154592760D01*
X255534914Y-154592760D02*
X255630152Y-154545140D01*
X255630152Y-154545140D02*
X255868247Y-154545140D01*
X255868247Y-154545140D02*
X255963485Y-154592760D01*
X255963485Y-154592760D02*
X256011104Y-154640379D01*
X256011104Y-154640379D02*
X256058723Y-154735617D01*
X256058723Y-154735617D02*
X256058723Y-154830855D01*
X256058723Y-154830855D02*
X256011104Y-154973712D01*
X256011104Y-154973712D02*
X255439676Y-155545140D01*
X255439676Y-155545140D02*
X256058723Y-155545140D01*
%TO.C,H1*%
X259487295Y-155545140D02*
X259487295Y-154545140D01*
X259487295Y-155021331D02*
X260058723Y-155021331D01*
X260058723Y-155545140D02*
X260058723Y-154545140D01*
X261058723Y-155545140D02*
X260487295Y-155545140D01*
X260773009Y-155545140D02*
X260773009Y-154545140D01*
X260773009Y-154545140D02*
X260677771Y-154687998D01*
X260677771Y-154687998D02*
X260582533Y-154783236D01*
X260582533Y-154783236D02*
X260487295Y-154830855D01*
%TO.C,D2*%
X262816580Y-150538094D02*
X261816580Y-150538094D01*
X261816580Y-150538094D02*
X261816580Y-150299999D01*
X261816580Y-150299999D02*
X261864200Y-150157142D01*
X261864200Y-150157142D02*
X261959438Y-150061904D01*
X261959438Y-150061904D02*
X262054676Y-150014285D01*
X262054676Y-150014285D02*
X262245152Y-149966666D01*
X262245152Y-149966666D02*
X262388009Y-149966666D01*
X262388009Y-149966666D02*
X262578485Y-150014285D01*
X262578485Y-150014285D02*
X262673723Y-150061904D01*
X262673723Y-150061904D02*
X262768961Y-150157142D01*
X262768961Y-150157142D02*
X262816580Y-150299999D01*
X262816580Y-150299999D02*
X262816580Y-150538094D01*
X261911819Y-149585713D02*
X261864200Y-149538094D01*
X261864200Y-149538094D02*
X261816580Y-149442856D01*
X261816580Y-149442856D02*
X261816580Y-149204761D01*
X261816580Y-149204761D02*
X261864200Y-149109523D01*
X261864200Y-149109523D02*
X261911819Y-149061904D01*
X261911819Y-149061904D02*
X262007057Y-149014285D01*
X262007057Y-149014285D02*
X262102295Y-149014285D01*
X262102295Y-149014285D02*
X262245152Y-149061904D01*
X262245152Y-149061904D02*
X262816580Y-149633332D01*
X262816580Y-149633332D02*
X262816580Y-149014285D01*
%TO.C,D1*%
X257716580Y-150615854D02*
X256716580Y-150615854D01*
X256716580Y-150615854D02*
X256716580Y-150377759D01*
X256716580Y-150377759D02*
X256764200Y-150234902D01*
X256764200Y-150234902D02*
X256859438Y-150139664D01*
X256859438Y-150139664D02*
X256954676Y-150092045D01*
X256954676Y-150092045D02*
X257145152Y-150044426D01*
X257145152Y-150044426D02*
X257288009Y-150044426D01*
X257288009Y-150044426D02*
X257478485Y-150092045D01*
X257478485Y-150092045D02*
X257573723Y-150139664D01*
X257573723Y-150139664D02*
X257668961Y-150234902D01*
X257668961Y-150234902D02*
X257716580Y-150377759D01*
X257716580Y-150377759D02*
X257716580Y-150615854D01*
X257716580Y-149092045D02*
X257716580Y-149663473D01*
X257716580Y-149377759D02*
X256716580Y-149377759D01*
X256716580Y-149377759D02*
X256859438Y-149472997D01*
X256859438Y-149472997D02*
X256954676Y-149568235D01*
X256954676Y-149568235D02*
X257002295Y-149663473D01*
%TO.C,J1*%
X245666666Y-147867380D02*
X245666666Y-148581666D01*
X245666666Y-148581666D02*
X245619047Y-148724523D01*
X245619047Y-148724523D02*
X245523809Y-148819761D01*
X245523809Y-148819761D02*
X245380952Y-148867380D01*
X245380952Y-148867380D02*
X245285714Y-148867380D01*
X246666666Y-148867380D02*
X246095238Y-148867380D01*
X246380952Y-148867380D02*
X246380952Y-147867380D01*
X246380952Y-147867380D02*
X246285714Y-148010238D01*
X246285714Y-148010238D02*
X246190476Y-148105476D01*
X246190476Y-148105476D02*
X246095238Y-148153095D01*
%TO.C,H2*%
X227487295Y-155545140D02*
X227487295Y-154545140D01*
X227487295Y-155021331D02*
X228058723Y-155021331D01*
X228058723Y-155545140D02*
X228058723Y-154545140D01*
X228487295Y-154640379D02*
X228534914Y-154592760D01*
X228534914Y-154592760D02*
X228630152Y-154545140D01*
X228630152Y-154545140D02*
X228868247Y-154545140D01*
X228868247Y-154545140D02*
X228963485Y-154592760D01*
X228963485Y-154592760D02*
X229011104Y-154640379D01*
X229011104Y-154640379D02*
X229058723Y-154735617D01*
X229058723Y-154735617D02*
X229058723Y-154830855D01*
X229058723Y-154830855D02*
X229011104Y-154973712D01*
X229011104Y-154973712D02*
X228439676Y-155545140D01*
X228439676Y-155545140D02*
X229058723Y-155545140D01*
%TO.C,H1*%
X232487295Y-155545140D02*
X232487295Y-154545140D01*
X232487295Y-155021331D02*
X233058723Y-155021331D01*
X233058723Y-155545140D02*
X233058723Y-154545140D01*
X234058723Y-155545140D02*
X233487295Y-155545140D01*
X233773009Y-155545140D02*
X233773009Y-154545140D01*
X233773009Y-154545140D02*
X233677771Y-154687998D01*
X233677771Y-154687998D02*
X233582533Y-154783236D01*
X233582533Y-154783236D02*
X233487295Y-154830855D01*
%TO.C,D2*%
X235816580Y-150538094D02*
X234816580Y-150538094D01*
X234816580Y-150538094D02*
X234816580Y-150299999D01*
X234816580Y-150299999D02*
X234864200Y-150157142D01*
X234864200Y-150157142D02*
X234959438Y-150061904D01*
X234959438Y-150061904D02*
X235054676Y-150014285D01*
X235054676Y-150014285D02*
X235245152Y-149966666D01*
X235245152Y-149966666D02*
X235388009Y-149966666D01*
X235388009Y-149966666D02*
X235578485Y-150014285D01*
X235578485Y-150014285D02*
X235673723Y-150061904D01*
X235673723Y-150061904D02*
X235768961Y-150157142D01*
X235768961Y-150157142D02*
X235816580Y-150299999D01*
X235816580Y-150299999D02*
X235816580Y-150538094D01*
X234911819Y-149585713D02*
X234864200Y-149538094D01*
X234864200Y-149538094D02*
X234816580Y-149442856D01*
X234816580Y-149442856D02*
X234816580Y-149204761D01*
X234816580Y-149204761D02*
X234864200Y-149109523D01*
X234864200Y-149109523D02*
X234911819Y-149061904D01*
X234911819Y-149061904D02*
X235007057Y-149014285D01*
X235007057Y-149014285D02*
X235102295Y-149014285D01*
X235102295Y-149014285D02*
X235245152Y-149061904D01*
X235245152Y-149061904D02*
X235816580Y-149633332D01*
X235816580Y-149633332D02*
X235816580Y-149014285D01*
%TO.C,D1*%
X230716580Y-150615854D02*
X229716580Y-150615854D01*
X229716580Y-150615854D02*
X229716580Y-150377759D01*
X229716580Y-150377759D02*
X229764200Y-150234902D01*
X229764200Y-150234902D02*
X229859438Y-150139664D01*
X229859438Y-150139664D02*
X229954676Y-150092045D01*
X229954676Y-150092045D02*
X230145152Y-150044426D01*
X230145152Y-150044426D02*
X230288009Y-150044426D01*
X230288009Y-150044426D02*
X230478485Y-150092045D01*
X230478485Y-150092045D02*
X230573723Y-150139664D01*
X230573723Y-150139664D02*
X230668961Y-150234902D01*
X230668961Y-150234902D02*
X230716580Y-150377759D01*
X230716580Y-150377759D02*
X230716580Y-150615854D01*
X230716580Y-149092045D02*
X230716580Y-149663473D01*
X230716580Y-149377759D02*
X229716580Y-149377759D01*
X229716580Y-149377759D02*
X229859438Y-149472997D01*
X229859438Y-149472997D02*
X229954676Y-149568235D01*
X229954676Y-149568235D02*
X230002295Y-149663473D01*
%TO.C,J1*%
X218666666Y-147867380D02*
X218666666Y-148581666D01*
X218666666Y-148581666D02*
X218619047Y-148724523D01*
X218619047Y-148724523D02*
X218523809Y-148819761D01*
X218523809Y-148819761D02*
X218380952Y-148867380D01*
X218380952Y-148867380D02*
X218285714Y-148867380D01*
X219666666Y-148867380D02*
X219095238Y-148867380D01*
X219380952Y-148867380D02*
X219380952Y-147867380D01*
X219380952Y-147867380D02*
X219285714Y-148010238D01*
X219285714Y-148010238D02*
X219190476Y-148105476D01*
X219190476Y-148105476D02*
X219095238Y-148153095D01*
%TO.C,H2*%
X200687295Y-155545140D02*
X200687295Y-154545140D01*
X200687295Y-155021331D02*
X201258723Y-155021331D01*
X201258723Y-155545140D02*
X201258723Y-154545140D01*
X201687295Y-154640379D02*
X201734914Y-154592760D01*
X201734914Y-154592760D02*
X201830152Y-154545140D01*
X201830152Y-154545140D02*
X202068247Y-154545140D01*
X202068247Y-154545140D02*
X202163485Y-154592760D01*
X202163485Y-154592760D02*
X202211104Y-154640379D01*
X202211104Y-154640379D02*
X202258723Y-154735617D01*
X202258723Y-154735617D02*
X202258723Y-154830855D01*
X202258723Y-154830855D02*
X202211104Y-154973712D01*
X202211104Y-154973712D02*
X201639676Y-155545140D01*
X201639676Y-155545140D02*
X202258723Y-155545140D01*
%TO.C,H1*%
X205687295Y-155545140D02*
X205687295Y-154545140D01*
X205687295Y-155021331D02*
X206258723Y-155021331D01*
X206258723Y-155545140D02*
X206258723Y-154545140D01*
X207258723Y-155545140D02*
X206687295Y-155545140D01*
X206973009Y-155545140D02*
X206973009Y-154545140D01*
X206973009Y-154545140D02*
X206877771Y-154687998D01*
X206877771Y-154687998D02*
X206782533Y-154783236D01*
X206782533Y-154783236D02*
X206687295Y-154830855D01*
%TO.C,D2*%
X209016580Y-150538094D02*
X208016580Y-150538094D01*
X208016580Y-150538094D02*
X208016580Y-150299999D01*
X208016580Y-150299999D02*
X208064200Y-150157142D01*
X208064200Y-150157142D02*
X208159438Y-150061904D01*
X208159438Y-150061904D02*
X208254676Y-150014285D01*
X208254676Y-150014285D02*
X208445152Y-149966666D01*
X208445152Y-149966666D02*
X208588009Y-149966666D01*
X208588009Y-149966666D02*
X208778485Y-150014285D01*
X208778485Y-150014285D02*
X208873723Y-150061904D01*
X208873723Y-150061904D02*
X208968961Y-150157142D01*
X208968961Y-150157142D02*
X209016580Y-150299999D01*
X209016580Y-150299999D02*
X209016580Y-150538094D01*
X208111819Y-149585713D02*
X208064200Y-149538094D01*
X208064200Y-149538094D02*
X208016580Y-149442856D01*
X208016580Y-149442856D02*
X208016580Y-149204761D01*
X208016580Y-149204761D02*
X208064200Y-149109523D01*
X208064200Y-149109523D02*
X208111819Y-149061904D01*
X208111819Y-149061904D02*
X208207057Y-149014285D01*
X208207057Y-149014285D02*
X208302295Y-149014285D01*
X208302295Y-149014285D02*
X208445152Y-149061904D01*
X208445152Y-149061904D02*
X209016580Y-149633332D01*
X209016580Y-149633332D02*
X209016580Y-149014285D01*
%TO.C,D1*%
X203916580Y-150615854D02*
X202916580Y-150615854D01*
X202916580Y-150615854D02*
X202916580Y-150377759D01*
X202916580Y-150377759D02*
X202964200Y-150234902D01*
X202964200Y-150234902D02*
X203059438Y-150139664D01*
X203059438Y-150139664D02*
X203154676Y-150092045D01*
X203154676Y-150092045D02*
X203345152Y-150044426D01*
X203345152Y-150044426D02*
X203488009Y-150044426D01*
X203488009Y-150044426D02*
X203678485Y-150092045D01*
X203678485Y-150092045D02*
X203773723Y-150139664D01*
X203773723Y-150139664D02*
X203868961Y-150234902D01*
X203868961Y-150234902D02*
X203916580Y-150377759D01*
X203916580Y-150377759D02*
X203916580Y-150615854D01*
X203916580Y-149092045D02*
X203916580Y-149663473D01*
X203916580Y-149377759D02*
X202916580Y-149377759D01*
X202916580Y-149377759D02*
X203059438Y-149472997D01*
X203059438Y-149472997D02*
X203154676Y-149568235D01*
X203154676Y-149568235D02*
X203202295Y-149663473D01*
%TO.C,J1*%
X191866666Y-147867380D02*
X191866666Y-148581666D01*
X191866666Y-148581666D02*
X191819047Y-148724523D01*
X191819047Y-148724523D02*
X191723809Y-148819761D01*
X191723809Y-148819761D02*
X191580952Y-148867380D01*
X191580952Y-148867380D02*
X191485714Y-148867380D01*
X192866666Y-148867380D02*
X192295238Y-148867380D01*
X192580952Y-148867380D02*
X192580952Y-147867380D01*
X192580952Y-147867380D02*
X192485714Y-148010238D01*
X192485714Y-148010238D02*
X192390476Y-148105476D01*
X192390476Y-148105476D02*
X192295238Y-148153095D01*
%TO.C,H2*%
X173487295Y-155545140D02*
X173487295Y-154545140D01*
X173487295Y-155021331D02*
X174058723Y-155021331D01*
X174058723Y-155545140D02*
X174058723Y-154545140D01*
X174487295Y-154640379D02*
X174534914Y-154592760D01*
X174534914Y-154592760D02*
X174630152Y-154545140D01*
X174630152Y-154545140D02*
X174868247Y-154545140D01*
X174868247Y-154545140D02*
X174963485Y-154592760D01*
X174963485Y-154592760D02*
X175011104Y-154640379D01*
X175011104Y-154640379D02*
X175058723Y-154735617D01*
X175058723Y-154735617D02*
X175058723Y-154830855D01*
X175058723Y-154830855D02*
X175011104Y-154973712D01*
X175011104Y-154973712D02*
X174439676Y-155545140D01*
X174439676Y-155545140D02*
X175058723Y-155545140D01*
%TO.C,H1*%
X178487295Y-155545140D02*
X178487295Y-154545140D01*
X178487295Y-155021331D02*
X179058723Y-155021331D01*
X179058723Y-155545140D02*
X179058723Y-154545140D01*
X180058723Y-155545140D02*
X179487295Y-155545140D01*
X179773009Y-155545140D02*
X179773009Y-154545140D01*
X179773009Y-154545140D02*
X179677771Y-154687998D01*
X179677771Y-154687998D02*
X179582533Y-154783236D01*
X179582533Y-154783236D02*
X179487295Y-154830855D01*
%TO.C,D2*%
X181816580Y-150538094D02*
X180816580Y-150538094D01*
X180816580Y-150538094D02*
X180816580Y-150299999D01*
X180816580Y-150299999D02*
X180864200Y-150157142D01*
X180864200Y-150157142D02*
X180959438Y-150061904D01*
X180959438Y-150061904D02*
X181054676Y-150014285D01*
X181054676Y-150014285D02*
X181245152Y-149966666D01*
X181245152Y-149966666D02*
X181388009Y-149966666D01*
X181388009Y-149966666D02*
X181578485Y-150014285D01*
X181578485Y-150014285D02*
X181673723Y-150061904D01*
X181673723Y-150061904D02*
X181768961Y-150157142D01*
X181768961Y-150157142D02*
X181816580Y-150299999D01*
X181816580Y-150299999D02*
X181816580Y-150538094D01*
X180911819Y-149585713D02*
X180864200Y-149538094D01*
X180864200Y-149538094D02*
X180816580Y-149442856D01*
X180816580Y-149442856D02*
X180816580Y-149204761D01*
X180816580Y-149204761D02*
X180864200Y-149109523D01*
X180864200Y-149109523D02*
X180911819Y-149061904D01*
X180911819Y-149061904D02*
X181007057Y-149014285D01*
X181007057Y-149014285D02*
X181102295Y-149014285D01*
X181102295Y-149014285D02*
X181245152Y-149061904D01*
X181245152Y-149061904D02*
X181816580Y-149633332D01*
X181816580Y-149633332D02*
X181816580Y-149014285D01*
%TO.C,D1*%
X176716580Y-150615854D02*
X175716580Y-150615854D01*
X175716580Y-150615854D02*
X175716580Y-150377759D01*
X175716580Y-150377759D02*
X175764200Y-150234902D01*
X175764200Y-150234902D02*
X175859438Y-150139664D01*
X175859438Y-150139664D02*
X175954676Y-150092045D01*
X175954676Y-150092045D02*
X176145152Y-150044426D01*
X176145152Y-150044426D02*
X176288009Y-150044426D01*
X176288009Y-150044426D02*
X176478485Y-150092045D01*
X176478485Y-150092045D02*
X176573723Y-150139664D01*
X176573723Y-150139664D02*
X176668961Y-150234902D01*
X176668961Y-150234902D02*
X176716580Y-150377759D01*
X176716580Y-150377759D02*
X176716580Y-150615854D01*
X176716580Y-149092045D02*
X176716580Y-149663473D01*
X176716580Y-149377759D02*
X175716580Y-149377759D01*
X175716580Y-149377759D02*
X175859438Y-149472997D01*
X175859438Y-149472997D02*
X175954676Y-149568235D01*
X175954676Y-149568235D02*
X176002295Y-149663473D01*
%TO.C,J1*%
X164666666Y-147867380D02*
X164666666Y-148581666D01*
X164666666Y-148581666D02*
X164619047Y-148724523D01*
X164619047Y-148724523D02*
X164523809Y-148819761D01*
X164523809Y-148819761D02*
X164380952Y-148867380D01*
X164380952Y-148867380D02*
X164285714Y-148867380D01*
X165666666Y-148867380D02*
X165095238Y-148867380D01*
X165380952Y-148867380D02*
X165380952Y-147867380D01*
X165380952Y-147867380D02*
X165285714Y-148010238D01*
X165285714Y-148010238D02*
X165190476Y-148105476D01*
X165190476Y-148105476D02*
X165095238Y-148153095D01*
%TO.C,H2*%
X254487295Y-146545140D02*
X254487295Y-145545140D01*
X254487295Y-146021331D02*
X255058723Y-146021331D01*
X255058723Y-146545140D02*
X255058723Y-145545140D01*
X255487295Y-145640379D02*
X255534914Y-145592760D01*
X255534914Y-145592760D02*
X255630152Y-145545140D01*
X255630152Y-145545140D02*
X255868247Y-145545140D01*
X255868247Y-145545140D02*
X255963485Y-145592760D01*
X255963485Y-145592760D02*
X256011104Y-145640379D01*
X256011104Y-145640379D02*
X256058723Y-145735617D01*
X256058723Y-145735617D02*
X256058723Y-145830855D01*
X256058723Y-145830855D02*
X256011104Y-145973712D01*
X256011104Y-145973712D02*
X255439676Y-146545140D01*
X255439676Y-146545140D02*
X256058723Y-146545140D01*
%TO.C,H1*%
X259487295Y-146545140D02*
X259487295Y-145545140D01*
X259487295Y-146021331D02*
X260058723Y-146021331D01*
X260058723Y-146545140D02*
X260058723Y-145545140D01*
X261058723Y-146545140D02*
X260487295Y-146545140D01*
X260773009Y-146545140D02*
X260773009Y-145545140D01*
X260773009Y-145545140D02*
X260677771Y-145687998D01*
X260677771Y-145687998D02*
X260582533Y-145783236D01*
X260582533Y-145783236D02*
X260487295Y-145830855D01*
%TO.C,D2*%
X262816580Y-141538094D02*
X261816580Y-141538094D01*
X261816580Y-141538094D02*
X261816580Y-141299999D01*
X261816580Y-141299999D02*
X261864200Y-141157142D01*
X261864200Y-141157142D02*
X261959438Y-141061904D01*
X261959438Y-141061904D02*
X262054676Y-141014285D01*
X262054676Y-141014285D02*
X262245152Y-140966666D01*
X262245152Y-140966666D02*
X262388009Y-140966666D01*
X262388009Y-140966666D02*
X262578485Y-141014285D01*
X262578485Y-141014285D02*
X262673723Y-141061904D01*
X262673723Y-141061904D02*
X262768961Y-141157142D01*
X262768961Y-141157142D02*
X262816580Y-141299999D01*
X262816580Y-141299999D02*
X262816580Y-141538094D01*
X261911819Y-140585713D02*
X261864200Y-140538094D01*
X261864200Y-140538094D02*
X261816580Y-140442856D01*
X261816580Y-140442856D02*
X261816580Y-140204761D01*
X261816580Y-140204761D02*
X261864200Y-140109523D01*
X261864200Y-140109523D02*
X261911819Y-140061904D01*
X261911819Y-140061904D02*
X262007057Y-140014285D01*
X262007057Y-140014285D02*
X262102295Y-140014285D01*
X262102295Y-140014285D02*
X262245152Y-140061904D01*
X262245152Y-140061904D02*
X262816580Y-140633332D01*
X262816580Y-140633332D02*
X262816580Y-140014285D01*
%TO.C,D1*%
X257716580Y-141615854D02*
X256716580Y-141615854D01*
X256716580Y-141615854D02*
X256716580Y-141377759D01*
X256716580Y-141377759D02*
X256764200Y-141234902D01*
X256764200Y-141234902D02*
X256859438Y-141139664D01*
X256859438Y-141139664D02*
X256954676Y-141092045D01*
X256954676Y-141092045D02*
X257145152Y-141044426D01*
X257145152Y-141044426D02*
X257288009Y-141044426D01*
X257288009Y-141044426D02*
X257478485Y-141092045D01*
X257478485Y-141092045D02*
X257573723Y-141139664D01*
X257573723Y-141139664D02*
X257668961Y-141234902D01*
X257668961Y-141234902D02*
X257716580Y-141377759D01*
X257716580Y-141377759D02*
X257716580Y-141615854D01*
X257716580Y-140092045D02*
X257716580Y-140663473D01*
X257716580Y-140377759D02*
X256716580Y-140377759D01*
X256716580Y-140377759D02*
X256859438Y-140472997D01*
X256859438Y-140472997D02*
X256954676Y-140568235D01*
X256954676Y-140568235D02*
X257002295Y-140663473D01*
%TO.C,J1*%
X245666666Y-138867380D02*
X245666666Y-139581666D01*
X245666666Y-139581666D02*
X245619047Y-139724523D01*
X245619047Y-139724523D02*
X245523809Y-139819761D01*
X245523809Y-139819761D02*
X245380952Y-139867380D01*
X245380952Y-139867380D02*
X245285714Y-139867380D01*
X246666666Y-139867380D02*
X246095238Y-139867380D01*
X246380952Y-139867380D02*
X246380952Y-138867380D01*
X246380952Y-138867380D02*
X246285714Y-139010238D01*
X246285714Y-139010238D02*
X246190476Y-139105476D01*
X246190476Y-139105476D02*
X246095238Y-139153095D01*
%TO.C,H2*%
X227487295Y-146545140D02*
X227487295Y-145545140D01*
X227487295Y-146021331D02*
X228058723Y-146021331D01*
X228058723Y-146545140D02*
X228058723Y-145545140D01*
X228487295Y-145640379D02*
X228534914Y-145592760D01*
X228534914Y-145592760D02*
X228630152Y-145545140D01*
X228630152Y-145545140D02*
X228868247Y-145545140D01*
X228868247Y-145545140D02*
X228963485Y-145592760D01*
X228963485Y-145592760D02*
X229011104Y-145640379D01*
X229011104Y-145640379D02*
X229058723Y-145735617D01*
X229058723Y-145735617D02*
X229058723Y-145830855D01*
X229058723Y-145830855D02*
X229011104Y-145973712D01*
X229011104Y-145973712D02*
X228439676Y-146545140D01*
X228439676Y-146545140D02*
X229058723Y-146545140D01*
%TO.C,H1*%
X232487295Y-146545140D02*
X232487295Y-145545140D01*
X232487295Y-146021331D02*
X233058723Y-146021331D01*
X233058723Y-146545140D02*
X233058723Y-145545140D01*
X234058723Y-146545140D02*
X233487295Y-146545140D01*
X233773009Y-146545140D02*
X233773009Y-145545140D01*
X233773009Y-145545140D02*
X233677771Y-145687998D01*
X233677771Y-145687998D02*
X233582533Y-145783236D01*
X233582533Y-145783236D02*
X233487295Y-145830855D01*
%TO.C,D2*%
X235816580Y-141538094D02*
X234816580Y-141538094D01*
X234816580Y-141538094D02*
X234816580Y-141299999D01*
X234816580Y-141299999D02*
X234864200Y-141157142D01*
X234864200Y-141157142D02*
X234959438Y-141061904D01*
X234959438Y-141061904D02*
X235054676Y-141014285D01*
X235054676Y-141014285D02*
X235245152Y-140966666D01*
X235245152Y-140966666D02*
X235388009Y-140966666D01*
X235388009Y-140966666D02*
X235578485Y-141014285D01*
X235578485Y-141014285D02*
X235673723Y-141061904D01*
X235673723Y-141061904D02*
X235768961Y-141157142D01*
X235768961Y-141157142D02*
X235816580Y-141299999D01*
X235816580Y-141299999D02*
X235816580Y-141538094D01*
X234911819Y-140585713D02*
X234864200Y-140538094D01*
X234864200Y-140538094D02*
X234816580Y-140442856D01*
X234816580Y-140442856D02*
X234816580Y-140204761D01*
X234816580Y-140204761D02*
X234864200Y-140109523D01*
X234864200Y-140109523D02*
X234911819Y-140061904D01*
X234911819Y-140061904D02*
X235007057Y-140014285D01*
X235007057Y-140014285D02*
X235102295Y-140014285D01*
X235102295Y-140014285D02*
X235245152Y-140061904D01*
X235245152Y-140061904D02*
X235816580Y-140633332D01*
X235816580Y-140633332D02*
X235816580Y-140014285D01*
%TO.C,D1*%
X230716580Y-141615854D02*
X229716580Y-141615854D01*
X229716580Y-141615854D02*
X229716580Y-141377759D01*
X229716580Y-141377759D02*
X229764200Y-141234902D01*
X229764200Y-141234902D02*
X229859438Y-141139664D01*
X229859438Y-141139664D02*
X229954676Y-141092045D01*
X229954676Y-141092045D02*
X230145152Y-141044426D01*
X230145152Y-141044426D02*
X230288009Y-141044426D01*
X230288009Y-141044426D02*
X230478485Y-141092045D01*
X230478485Y-141092045D02*
X230573723Y-141139664D01*
X230573723Y-141139664D02*
X230668961Y-141234902D01*
X230668961Y-141234902D02*
X230716580Y-141377759D01*
X230716580Y-141377759D02*
X230716580Y-141615854D01*
X230716580Y-140092045D02*
X230716580Y-140663473D01*
X230716580Y-140377759D02*
X229716580Y-140377759D01*
X229716580Y-140377759D02*
X229859438Y-140472997D01*
X229859438Y-140472997D02*
X229954676Y-140568235D01*
X229954676Y-140568235D02*
X230002295Y-140663473D01*
%TO.C,J1*%
X218666666Y-138867380D02*
X218666666Y-139581666D01*
X218666666Y-139581666D02*
X218619047Y-139724523D01*
X218619047Y-139724523D02*
X218523809Y-139819761D01*
X218523809Y-139819761D02*
X218380952Y-139867380D01*
X218380952Y-139867380D02*
X218285714Y-139867380D01*
X219666666Y-139867380D02*
X219095238Y-139867380D01*
X219380952Y-139867380D02*
X219380952Y-138867380D01*
X219380952Y-138867380D02*
X219285714Y-139010238D01*
X219285714Y-139010238D02*
X219190476Y-139105476D01*
X219190476Y-139105476D02*
X219095238Y-139153095D01*
%TO.C,H2*%
X200487295Y-146545140D02*
X200487295Y-145545140D01*
X200487295Y-146021331D02*
X201058723Y-146021331D01*
X201058723Y-146545140D02*
X201058723Y-145545140D01*
X201487295Y-145640379D02*
X201534914Y-145592760D01*
X201534914Y-145592760D02*
X201630152Y-145545140D01*
X201630152Y-145545140D02*
X201868247Y-145545140D01*
X201868247Y-145545140D02*
X201963485Y-145592760D01*
X201963485Y-145592760D02*
X202011104Y-145640379D01*
X202011104Y-145640379D02*
X202058723Y-145735617D01*
X202058723Y-145735617D02*
X202058723Y-145830855D01*
X202058723Y-145830855D02*
X202011104Y-145973712D01*
X202011104Y-145973712D02*
X201439676Y-146545140D01*
X201439676Y-146545140D02*
X202058723Y-146545140D01*
%TO.C,H1*%
X205487295Y-146545140D02*
X205487295Y-145545140D01*
X205487295Y-146021331D02*
X206058723Y-146021331D01*
X206058723Y-146545140D02*
X206058723Y-145545140D01*
X207058723Y-146545140D02*
X206487295Y-146545140D01*
X206773009Y-146545140D02*
X206773009Y-145545140D01*
X206773009Y-145545140D02*
X206677771Y-145687998D01*
X206677771Y-145687998D02*
X206582533Y-145783236D01*
X206582533Y-145783236D02*
X206487295Y-145830855D01*
%TO.C,D2*%
X208816580Y-141538094D02*
X207816580Y-141538094D01*
X207816580Y-141538094D02*
X207816580Y-141299999D01*
X207816580Y-141299999D02*
X207864200Y-141157142D01*
X207864200Y-141157142D02*
X207959438Y-141061904D01*
X207959438Y-141061904D02*
X208054676Y-141014285D01*
X208054676Y-141014285D02*
X208245152Y-140966666D01*
X208245152Y-140966666D02*
X208388009Y-140966666D01*
X208388009Y-140966666D02*
X208578485Y-141014285D01*
X208578485Y-141014285D02*
X208673723Y-141061904D01*
X208673723Y-141061904D02*
X208768961Y-141157142D01*
X208768961Y-141157142D02*
X208816580Y-141299999D01*
X208816580Y-141299999D02*
X208816580Y-141538094D01*
X207911819Y-140585713D02*
X207864200Y-140538094D01*
X207864200Y-140538094D02*
X207816580Y-140442856D01*
X207816580Y-140442856D02*
X207816580Y-140204761D01*
X207816580Y-140204761D02*
X207864200Y-140109523D01*
X207864200Y-140109523D02*
X207911819Y-140061904D01*
X207911819Y-140061904D02*
X208007057Y-140014285D01*
X208007057Y-140014285D02*
X208102295Y-140014285D01*
X208102295Y-140014285D02*
X208245152Y-140061904D01*
X208245152Y-140061904D02*
X208816580Y-140633332D01*
X208816580Y-140633332D02*
X208816580Y-140014285D01*
%TO.C,D1*%
X203716580Y-141615854D02*
X202716580Y-141615854D01*
X202716580Y-141615854D02*
X202716580Y-141377759D01*
X202716580Y-141377759D02*
X202764200Y-141234902D01*
X202764200Y-141234902D02*
X202859438Y-141139664D01*
X202859438Y-141139664D02*
X202954676Y-141092045D01*
X202954676Y-141092045D02*
X203145152Y-141044426D01*
X203145152Y-141044426D02*
X203288009Y-141044426D01*
X203288009Y-141044426D02*
X203478485Y-141092045D01*
X203478485Y-141092045D02*
X203573723Y-141139664D01*
X203573723Y-141139664D02*
X203668961Y-141234902D01*
X203668961Y-141234902D02*
X203716580Y-141377759D01*
X203716580Y-141377759D02*
X203716580Y-141615854D01*
X203716580Y-140092045D02*
X203716580Y-140663473D01*
X203716580Y-140377759D02*
X202716580Y-140377759D01*
X202716580Y-140377759D02*
X202859438Y-140472997D01*
X202859438Y-140472997D02*
X202954676Y-140568235D01*
X202954676Y-140568235D02*
X203002295Y-140663473D01*
%TO.C,J1*%
X191666666Y-138867380D02*
X191666666Y-139581666D01*
X191666666Y-139581666D02*
X191619047Y-139724523D01*
X191619047Y-139724523D02*
X191523809Y-139819761D01*
X191523809Y-139819761D02*
X191380952Y-139867380D01*
X191380952Y-139867380D02*
X191285714Y-139867380D01*
X192666666Y-139867380D02*
X192095238Y-139867380D01*
X192380952Y-139867380D02*
X192380952Y-138867380D01*
X192380952Y-138867380D02*
X192285714Y-139010238D01*
X192285714Y-139010238D02*
X192190476Y-139105476D01*
X192190476Y-139105476D02*
X192095238Y-139153095D01*
%TO.C,H2*%
X173487295Y-146545140D02*
X173487295Y-145545140D01*
X173487295Y-146021331D02*
X174058723Y-146021331D01*
X174058723Y-146545140D02*
X174058723Y-145545140D01*
X174487295Y-145640379D02*
X174534914Y-145592760D01*
X174534914Y-145592760D02*
X174630152Y-145545140D01*
X174630152Y-145545140D02*
X174868247Y-145545140D01*
X174868247Y-145545140D02*
X174963485Y-145592760D01*
X174963485Y-145592760D02*
X175011104Y-145640379D01*
X175011104Y-145640379D02*
X175058723Y-145735617D01*
X175058723Y-145735617D02*
X175058723Y-145830855D01*
X175058723Y-145830855D02*
X175011104Y-145973712D01*
X175011104Y-145973712D02*
X174439676Y-146545140D01*
X174439676Y-146545140D02*
X175058723Y-146545140D01*
%TO.C,H1*%
X178487295Y-146545140D02*
X178487295Y-145545140D01*
X178487295Y-146021331D02*
X179058723Y-146021331D01*
X179058723Y-146545140D02*
X179058723Y-145545140D01*
X180058723Y-146545140D02*
X179487295Y-146545140D01*
X179773009Y-146545140D02*
X179773009Y-145545140D01*
X179773009Y-145545140D02*
X179677771Y-145687998D01*
X179677771Y-145687998D02*
X179582533Y-145783236D01*
X179582533Y-145783236D02*
X179487295Y-145830855D01*
%TO.C,D2*%
X181816580Y-141538094D02*
X180816580Y-141538094D01*
X180816580Y-141538094D02*
X180816580Y-141299999D01*
X180816580Y-141299999D02*
X180864200Y-141157142D01*
X180864200Y-141157142D02*
X180959438Y-141061904D01*
X180959438Y-141061904D02*
X181054676Y-141014285D01*
X181054676Y-141014285D02*
X181245152Y-140966666D01*
X181245152Y-140966666D02*
X181388009Y-140966666D01*
X181388009Y-140966666D02*
X181578485Y-141014285D01*
X181578485Y-141014285D02*
X181673723Y-141061904D01*
X181673723Y-141061904D02*
X181768961Y-141157142D01*
X181768961Y-141157142D02*
X181816580Y-141299999D01*
X181816580Y-141299999D02*
X181816580Y-141538094D01*
X180911819Y-140585713D02*
X180864200Y-140538094D01*
X180864200Y-140538094D02*
X180816580Y-140442856D01*
X180816580Y-140442856D02*
X180816580Y-140204761D01*
X180816580Y-140204761D02*
X180864200Y-140109523D01*
X180864200Y-140109523D02*
X180911819Y-140061904D01*
X180911819Y-140061904D02*
X181007057Y-140014285D01*
X181007057Y-140014285D02*
X181102295Y-140014285D01*
X181102295Y-140014285D02*
X181245152Y-140061904D01*
X181245152Y-140061904D02*
X181816580Y-140633332D01*
X181816580Y-140633332D02*
X181816580Y-140014285D01*
%TO.C,D1*%
X176716580Y-141615854D02*
X175716580Y-141615854D01*
X175716580Y-141615854D02*
X175716580Y-141377759D01*
X175716580Y-141377759D02*
X175764200Y-141234902D01*
X175764200Y-141234902D02*
X175859438Y-141139664D01*
X175859438Y-141139664D02*
X175954676Y-141092045D01*
X175954676Y-141092045D02*
X176145152Y-141044426D01*
X176145152Y-141044426D02*
X176288009Y-141044426D01*
X176288009Y-141044426D02*
X176478485Y-141092045D01*
X176478485Y-141092045D02*
X176573723Y-141139664D01*
X176573723Y-141139664D02*
X176668961Y-141234902D01*
X176668961Y-141234902D02*
X176716580Y-141377759D01*
X176716580Y-141377759D02*
X176716580Y-141615854D01*
X176716580Y-140092045D02*
X176716580Y-140663473D01*
X176716580Y-140377759D02*
X175716580Y-140377759D01*
X175716580Y-140377759D02*
X175859438Y-140472997D01*
X175859438Y-140472997D02*
X175954676Y-140568235D01*
X175954676Y-140568235D02*
X176002295Y-140663473D01*
%TO.C,J1*%
X164666666Y-138867380D02*
X164666666Y-139581666D01*
X164666666Y-139581666D02*
X164619047Y-139724523D01*
X164619047Y-139724523D02*
X164523809Y-139819761D01*
X164523809Y-139819761D02*
X164380952Y-139867380D01*
X164380952Y-139867380D02*
X164285714Y-139867380D01*
X165666666Y-139867380D02*
X165095238Y-139867380D01*
X165380952Y-139867380D02*
X165380952Y-138867380D01*
X165380952Y-138867380D02*
X165285714Y-139010238D01*
X165285714Y-139010238D02*
X165190476Y-139105476D01*
X165190476Y-139105476D02*
X165095238Y-139153095D01*
%TO.C,H2*%
X173487295Y-137545140D02*
X173487295Y-136545140D01*
X173487295Y-137021331D02*
X174058723Y-137021331D01*
X174058723Y-137545140D02*
X174058723Y-136545140D01*
X174487295Y-136640379D02*
X174534914Y-136592760D01*
X174534914Y-136592760D02*
X174630152Y-136545140D01*
X174630152Y-136545140D02*
X174868247Y-136545140D01*
X174868247Y-136545140D02*
X174963485Y-136592760D01*
X174963485Y-136592760D02*
X175011104Y-136640379D01*
X175011104Y-136640379D02*
X175058723Y-136735617D01*
X175058723Y-136735617D02*
X175058723Y-136830855D01*
X175058723Y-136830855D02*
X175011104Y-136973712D01*
X175011104Y-136973712D02*
X174439676Y-137545140D01*
X174439676Y-137545140D02*
X175058723Y-137545140D01*
%TO.C,H1*%
X178487295Y-137545140D02*
X178487295Y-136545140D01*
X178487295Y-137021331D02*
X179058723Y-137021331D01*
X179058723Y-137545140D02*
X179058723Y-136545140D01*
X180058723Y-137545140D02*
X179487295Y-137545140D01*
X179773009Y-137545140D02*
X179773009Y-136545140D01*
X179773009Y-136545140D02*
X179677771Y-136687998D01*
X179677771Y-136687998D02*
X179582533Y-136783236D01*
X179582533Y-136783236D02*
X179487295Y-136830855D01*
%TO.C,D2*%
X181816580Y-132538094D02*
X180816580Y-132538094D01*
X180816580Y-132538094D02*
X180816580Y-132299999D01*
X180816580Y-132299999D02*
X180864200Y-132157142D01*
X180864200Y-132157142D02*
X180959438Y-132061904D01*
X180959438Y-132061904D02*
X181054676Y-132014285D01*
X181054676Y-132014285D02*
X181245152Y-131966666D01*
X181245152Y-131966666D02*
X181388009Y-131966666D01*
X181388009Y-131966666D02*
X181578485Y-132014285D01*
X181578485Y-132014285D02*
X181673723Y-132061904D01*
X181673723Y-132061904D02*
X181768961Y-132157142D01*
X181768961Y-132157142D02*
X181816580Y-132299999D01*
X181816580Y-132299999D02*
X181816580Y-132538094D01*
X180911819Y-131585713D02*
X180864200Y-131538094D01*
X180864200Y-131538094D02*
X180816580Y-131442856D01*
X180816580Y-131442856D02*
X180816580Y-131204761D01*
X180816580Y-131204761D02*
X180864200Y-131109523D01*
X180864200Y-131109523D02*
X180911819Y-131061904D01*
X180911819Y-131061904D02*
X181007057Y-131014285D01*
X181007057Y-131014285D02*
X181102295Y-131014285D01*
X181102295Y-131014285D02*
X181245152Y-131061904D01*
X181245152Y-131061904D02*
X181816580Y-131633332D01*
X181816580Y-131633332D02*
X181816580Y-131014285D01*
%TO.C,D1*%
X176716580Y-132615854D02*
X175716580Y-132615854D01*
X175716580Y-132615854D02*
X175716580Y-132377759D01*
X175716580Y-132377759D02*
X175764200Y-132234902D01*
X175764200Y-132234902D02*
X175859438Y-132139664D01*
X175859438Y-132139664D02*
X175954676Y-132092045D01*
X175954676Y-132092045D02*
X176145152Y-132044426D01*
X176145152Y-132044426D02*
X176288009Y-132044426D01*
X176288009Y-132044426D02*
X176478485Y-132092045D01*
X176478485Y-132092045D02*
X176573723Y-132139664D01*
X176573723Y-132139664D02*
X176668961Y-132234902D01*
X176668961Y-132234902D02*
X176716580Y-132377759D01*
X176716580Y-132377759D02*
X176716580Y-132615854D01*
X176716580Y-131092045D02*
X176716580Y-131663473D01*
X176716580Y-131377759D02*
X175716580Y-131377759D01*
X175716580Y-131377759D02*
X175859438Y-131472997D01*
X175859438Y-131472997D02*
X175954676Y-131568235D01*
X175954676Y-131568235D02*
X176002295Y-131663473D01*
%TO.C,J1*%
X164666666Y-129867380D02*
X164666666Y-130581666D01*
X164666666Y-130581666D02*
X164619047Y-130724523D01*
X164619047Y-130724523D02*
X164523809Y-130819761D01*
X164523809Y-130819761D02*
X164380952Y-130867380D01*
X164380952Y-130867380D02*
X164285714Y-130867380D01*
X165666666Y-130867380D02*
X165095238Y-130867380D01*
X165380952Y-130867380D02*
X165380952Y-129867380D01*
X165380952Y-129867380D02*
X165285714Y-130010238D01*
X165285714Y-130010238D02*
X165190476Y-130105476D01*
X165190476Y-130105476D02*
X165095238Y-130153095D01*
%TO.C,H2*%
X200487295Y-137745140D02*
X200487295Y-136745140D01*
X200487295Y-137221331D02*
X201058723Y-137221331D01*
X201058723Y-137745140D02*
X201058723Y-136745140D01*
X201487295Y-136840379D02*
X201534914Y-136792760D01*
X201534914Y-136792760D02*
X201630152Y-136745140D01*
X201630152Y-136745140D02*
X201868247Y-136745140D01*
X201868247Y-136745140D02*
X201963485Y-136792760D01*
X201963485Y-136792760D02*
X202011104Y-136840379D01*
X202011104Y-136840379D02*
X202058723Y-136935617D01*
X202058723Y-136935617D02*
X202058723Y-137030855D01*
X202058723Y-137030855D02*
X202011104Y-137173712D01*
X202011104Y-137173712D02*
X201439676Y-137745140D01*
X201439676Y-137745140D02*
X202058723Y-137745140D01*
%TO.C,H1*%
X205487295Y-137745140D02*
X205487295Y-136745140D01*
X205487295Y-137221331D02*
X206058723Y-137221331D01*
X206058723Y-137745140D02*
X206058723Y-136745140D01*
X207058723Y-137745140D02*
X206487295Y-137745140D01*
X206773009Y-137745140D02*
X206773009Y-136745140D01*
X206773009Y-136745140D02*
X206677771Y-136887998D01*
X206677771Y-136887998D02*
X206582533Y-136983236D01*
X206582533Y-136983236D02*
X206487295Y-137030855D01*
%TO.C,D2*%
X208816580Y-132738094D02*
X207816580Y-132738094D01*
X207816580Y-132738094D02*
X207816580Y-132499999D01*
X207816580Y-132499999D02*
X207864200Y-132357142D01*
X207864200Y-132357142D02*
X207959438Y-132261904D01*
X207959438Y-132261904D02*
X208054676Y-132214285D01*
X208054676Y-132214285D02*
X208245152Y-132166666D01*
X208245152Y-132166666D02*
X208388009Y-132166666D01*
X208388009Y-132166666D02*
X208578485Y-132214285D01*
X208578485Y-132214285D02*
X208673723Y-132261904D01*
X208673723Y-132261904D02*
X208768961Y-132357142D01*
X208768961Y-132357142D02*
X208816580Y-132499999D01*
X208816580Y-132499999D02*
X208816580Y-132738094D01*
X207911819Y-131785713D02*
X207864200Y-131738094D01*
X207864200Y-131738094D02*
X207816580Y-131642856D01*
X207816580Y-131642856D02*
X207816580Y-131404761D01*
X207816580Y-131404761D02*
X207864200Y-131309523D01*
X207864200Y-131309523D02*
X207911819Y-131261904D01*
X207911819Y-131261904D02*
X208007057Y-131214285D01*
X208007057Y-131214285D02*
X208102295Y-131214285D01*
X208102295Y-131214285D02*
X208245152Y-131261904D01*
X208245152Y-131261904D02*
X208816580Y-131833332D01*
X208816580Y-131833332D02*
X208816580Y-131214285D01*
%TO.C,D1*%
X203716580Y-132815854D02*
X202716580Y-132815854D01*
X202716580Y-132815854D02*
X202716580Y-132577759D01*
X202716580Y-132577759D02*
X202764200Y-132434902D01*
X202764200Y-132434902D02*
X202859438Y-132339664D01*
X202859438Y-132339664D02*
X202954676Y-132292045D01*
X202954676Y-132292045D02*
X203145152Y-132244426D01*
X203145152Y-132244426D02*
X203288009Y-132244426D01*
X203288009Y-132244426D02*
X203478485Y-132292045D01*
X203478485Y-132292045D02*
X203573723Y-132339664D01*
X203573723Y-132339664D02*
X203668961Y-132434902D01*
X203668961Y-132434902D02*
X203716580Y-132577759D01*
X203716580Y-132577759D02*
X203716580Y-132815854D01*
X203716580Y-131292045D02*
X203716580Y-131863473D01*
X203716580Y-131577759D02*
X202716580Y-131577759D01*
X202716580Y-131577759D02*
X202859438Y-131672997D01*
X202859438Y-131672997D02*
X202954676Y-131768235D01*
X202954676Y-131768235D02*
X203002295Y-131863473D01*
%TO.C,J1*%
X191666666Y-130067380D02*
X191666666Y-130781666D01*
X191666666Y-130781666D02*
X191619047Y-130924523D01*
X191619047Y-130924523D02*
X191523809Y-131019761D01*
X191523809Y-131019761D02*
X191380952Y-131067380D01*
X191380952Y-131067380D02*
X191285714Y-131067380D01*
X192666666Y-131067380D02*
X192095238Y-131067380D01*
X192380952Y-131067380D02*
X192380952Y-130067380D01*
X192380952Y-130067380D02*
X192285714Y-130210238D01*
X192285714Y-130210238D02*
X192190476Y-130305476D01*
X192190476Y-130305476D02*
X192095238Y-130353095D01*
%TO.C,H2*%
X227487295Y-137745140D02*
X227487295Y-136745140D01*
X227487295Y-137221331D02*
X228058723Y-137221331D01*
X228058723Y-137745140D02*
X228058723Y-136745140D01*
X228487295Y-136840379D02*
X228534914Y-136792760D01*
X228534914Y-136792760D02*
X228630152Y-136745140D01*
X228630152Y-136745140D02*
X228868247Y-136745140D01*
X228868247Y-136745140D02*
X228963485Y-136792760D01*
X228963485Y-136792760D02*
X229011104Y-136840379D01*
X229011104Y-136840379D02*
X229058723Y-136935617D01*
X229058723Y-136935617D02*
X229058723Y-137030855D01*
X229058723Y-137030855D02*
X229011104Y-137173712D01*
X229011104Y-137173712D02*
X228439676Y-137745140D01*
X228439676Y-137745140D02*
X229058723Y-137745140D01*
%TO.C,H1*%
X232487295Y-137745140D02*
X232487295Y-136745140D01*
X232487295Y-137221331D02*
X233058723Y-137221331D01*
X233058723Y-137745140D02*
X233058723Y-136745140D01*
X234058723Y-137745140D02*
X233487295Y-137745140D01*
X233773009Y-137745140D02*
X233773009Y-136745140D01*
X233773009Y-136745140D02*
X233677771Y-136887998D01*
X233677771Y-136887998D02*
X233582533Y-136983236D01*
X233582533Y-136983236D02*
X233487295Y-137030855D01*
%TO.C,D2*%
X235816580Y-132738094D02*
X234816580Y-132738094D01*
X234816580Y-132738094D02*
X234816580Y-132499999D01*
X234816580Y-132499999D02*
X234864200Y-132357142D01*
X234864200Y-132357142D02*
X234959438Y-132261904D01*
X234959438Y-132261904D02*
X235054676Y-132214285D01*
X235054676Y-132214285D02*
X235245152Y-132166666D01*
X235245152Y-132166666D02*
X235388009Y-132166666D01*
X235388009Y-132166666D02*
X235578485Y-132214285D01*
X235578485Y-132214285D02*
X235673723Y-132261904D01*
X235673723Y-132261904D02*
X235768961Y-132357142D01*
X235768961Y-132357142D02*
X235816580Y-132499999D01*
X235816580Y-132499999D02*
X235816580Y-132738094D01*
X234911819Y-131785713D02*
X234864200Y-131738094D01*
X234864200Y-131738094D02*
X234816580Y-131642856D01*
X234816580Y-131642856D02*
X234816580Y-131404761D01*
X234816580Y-131404761D02*
X234864200Y-131309523D01*
X234864200Y-131309523D02*
X234911819Y-131261904D01*
X234911819Y-131261904D02*
X235007057Y-131214285D01*
X235007057Y-131214285D02*
X235102295Y-131214285D01*
X235102295Y-131214285D02*
X235245152Y-131261904D01*
X235245152Y-131261904D02*
X235816580Y-131833332D01*
X235816580Y-131833332D02*
X235816580Y-131214285D01*
%TO.C,D1*%
X230716580Y-132815854D02*
X229716580Y-132815854D01*
X229716580Y-132815854D02*
X229716580Y-132577759D01*
X229716580Y-132577759D02*
X229764200Y-132434902D01*
X229764200Y-132434902D02*
X229859438Y-132339664D01*
X229859438Y-132339664D02*
X229954676Y-132292045D01*
X229954676Y-132292045D02*
X230145152Y-132244426D01*
X230145152Y-132244426D02*
X230288009Y-132244426D01*
X230288009Y-132244426D02*
X230478485Y-132292045D01*
X230478485Y-132292045D02*
X230573723Y-132339664D01*
X230573723Y-132339664D02*
X230668961Y-132434902D01*
X230668961Y-132434902D02*
X230716580Y-132577759D01*
X230716580Y-132577759D02*
X230716580Y-132815854D01*
X230716580Y-131292045D02*
X230716580Y-131863473D01*
X230716580Y-131577759D02*
X229716580Y-131577759D01*
X229716580Y-131577759D02*
X229859438Y-131672997D01*
X229859438Y-131672997D02*
X229954676Y-131768235D01*
X229954676Y-131768235D02*
X230002295Y-131863473D01*
%TO.C,J1*%
X218666666Y-130067380D02*
X218666666Y-130781666D01*
X218666666Y-130781666D02*
X218619047Y-130924523D01*
X218619047Y-130924523D02*
X218523809Y-131019761D01*
X218523809Y-131019761D02*
X218380952Y-131067380D01*
X218380952Y-131067380D02*
X218285714Y-131067380D01*
X219666666Y-131067380D02*
X219095238Y-131067380D01*
X219380952Y-131067380D02*
X219380952Y-130067380D01*
X219380952Y-130067380D02*
X219285714Y-130210238D01*
X219285714Y-130210238D02*
X219190476Y-130305476D01*
X219190476Y-130305476D02*
X219095238Y-130353095D01*
%TO.C,H2*%
X254487295Y-137745140D02*
X254487295Y-136745140D01*
X254487295Y-137221331D02*
X255058723Y-137221331D01*
X255058723Y-137745140D02*
X255058723Y-136745140D01*
X255487295Y-136840379D02*
X255534914Y-136792760D01*
X255534914Y-136792760D02*
X255630152Y-136745140D01*
X255630152Y-136745140D02*
X255868247Y-136745140D01*
X255868247Y-136745140D02*
X255963485Y-136792760D01*
X255963485Y-136792760D02*
X256011104Y-136840379D01*
X256011104Y-136840379D02*
X256058723Y-136935617D01*
X256058723Y-136935617D02*
X256058723Y-137030855D01*
X256058723Y-137030855D02*
X256011104Y-137173712D01*
X256011104Y-137173712D02*
X255439676Y-137745140D01*
X255439676Y-137745140D02*
X256058723Y-137745140D01*
%TO.C,H1*%
X259487295Y-137745140D02*
X259487295Y-136745140D01*
X259487295Y-137221331D02*
X260058723Y-137221331D01*
X260058723Y-137745140D02*
X260058723Y-136745140D01*
X261058723Y-137745140D02*
X260487295Y-137745140D01*
X260773009Y-137745140D02*
X260773009Y-136745140D01*
X260773009Y-136745140D02*
X260677771Y-136887998D01*
X260677771Y-136887998D02*
X260582533Y-136983236D01*
X260582533Y-136983236D02*
X260487295Y-137030855D01*
%TO.C,D2*%
X262816580Y-132738094D02*
X261816580Y-132738094D01*
X261816580Y-132738094D02*
X261816580Y-132499999D01*
X261816580Y-132499999D02*
X261864200Y-132357142D01*
X261864200Y-132357142D02*
X261959438Y-132261904D01*
X261959438Y-132261904D02*
X262054676Y-132214285D01*
X262054676Y-132214285D02*
X262245152Y-132166666D01*
X262245152Y-132166666D02*
X262388009Y-132166666D01*
X262388009Y-132166666D02*
X262578485Y-132214285D01*
X262578485Y-132214285D02*
X262673723Y-132261904D01*
X262673723Y-132261904D02*
X262768961Y-132357142D01*
X262768961Y-132357142D02*
X262816580Y-132499999D01*
X262816580Y-132499999D02*
X262816580Y-132738094D01*
X261911819Y-131785713D02*
X261864200Y-131738094D01*
X261864200Y-131738094D02*
X261816580Y-131642856D01*
X261816580Y-131642856D02*
X261816580Y-131404761D01*
X261816580Y-131404761D02*
X261864200Y-131309523D01*
X261864200Y-131309523D02*
X261911819Y-131261904D01*
X261911819Y-131261904D02*
X262007057Y-131214285D01*
X262007057Y-131214285D02*
X262102295Y-131214285D01*
X262102295Y-131214285D02*
X262245152Y-131261904D01*
X262245152Y-131261904D02*
X262816580Y-131833332D01*
X262816580Y-131833332D02*
X262816580Y-131214285D01*
%TO.C,D1*%
X257716580Y-132815854D02*
X256716580Y-132815854D01*
X256716580Y-132815854D02*
X256716580Y-132577759D01*
X256716580Y-132577759D02*
X256764200Y-132434902D01*
X256764200Y-132434902D02*
X256859438Y-132339664D01*
X256859438Y-132339664D02*
X256954676Y-132292045D01*
X256954676Y-132292045D02*
X257145152Y-132244426D01*
X257145152Y-132244426D02*
X257288009Y-132244426D01*
X257288009Y-132244426D02*
X257478485Y-132292045D01*
X257478485Y-132292045D02*
X257573723Y-132339664D01*
X257573723Y-132339664D02*
X257668961Y-132434902D01*
X257668961Y-132434902D02*
X257716580Y-132577759D01*
X257716580Y-132577759D02*
X257716580Y-132815854D01*
X257716580Y-131292045D02*
X257716580Y-131863473D01*
X257716580Y-131577759D02*
X256716580Y-131577759D01*
X256716580Y-131577759D02*
X256859438Y-131672997D01*
X256859438Y-131672997D02*
X256954676Y-131768235D01*
X256954676Y-131768235D02*
X257002295Y-131863473D01*
%TO.C,J1*%
X245666666Y-130067380D02*
X245666666Y-130781666D01*
X245666666Y-130781666D02*
X245619047Y-130924523D01*
X245619047Y-130924523D02*
X245523809Y-131019761D01*
X245523809Y-131019761D02*
X245380952Y-131067380D01*
X245380952Y-131067380D02*
X245285714Y-131067380D01*
X246666666Y-131067380D02*
X246095238Y-131067380D01*
X246380952Y-131067380D02*
X246380952Y-130067380D01*
X246380952Y-130067380D02*
X246285714Y-130210238D01*
X246285714Y-130210238D02*
X246190476Y-130305476D01*
X246190476Y-130305476D02*
X246095238Y-130353095D01*
%TO.C,H2*%
X254487295Y-128545140D02*
X254487295Y-127545140D01*
X254487295Y-128021331D02*
X255058723Y-128021331D01*
X255058723Y-128545140D02*
X255058723Y-127545140D01*
X255487295Y-127640379D02*
X255534914Y-127592760D01*
X255534914Y-127592760D02*
X255630152Y-127545140D01*
X255630152Y-127545140D02*
X255868247Y-127545140D01*
X255868247Y-127545140D02*
X255963485Y-127592760D01*
X255963485Y-127592760D02*
X256011104Y-127640379D01*
X256011104Y-127640379D02*
X256058723Y-127735617D01*
X256058723Y-127735617D02*
X256058723Y-127830855D01*
X256058723Y-127830855D02*
X256011104Y-127973712D01*
X256011104Y-127973712D02*
X255439676Y-128545140D01*
X255439676Y-128545140D02*
X256058723Y-128545140D01*
%TO.C,H1*%
X259487295Y-128545140D02*
X259487295Y-127545140D01*
X259487295Y-128021331D02*
X260058723Y-128021331D01*
X260058723Y-128545140D02*
X260058723Y-127545140D01*
X261058723Y-128545140D02*
X260487295Y-128545140D01*
X260773009Y-128545140D02*
X260773009Y-127545140D01*
X260773009Y-127545140D02*
X260677771Y-127687998D01*
X260677771Y-127687998D02*
X260582533Y-127783236D01*
X260582533Y-127783236D02*
X260487295Y-127830855D01*
%TO.C,D2*%
X262816580Y-123538094D02*
X261816580Y-123538094D01*
X261816580Y-123538094D02*
X261816580Y-123299999D01*
X261816580Y-123299999D02*
X261864200Y-123157142D01*
X261864200Y-123157142D02*
X261959438Y-123061904D01*
X261959438Y-123061904D02*
X262054676Y-123014285D01*
X262054676Y-123014285D02*
X262245152Y-122966666D01*
X262245152Y-122966666D02*
X262388009Y-122966666D01*
X262388009Y-122966666D02*
X262578485Y-123014285D01*
X262578485Y-123014285D02*
X262673723Y-123061904D01*
X262673723Y-123061904D02*
X262768961Y-123157142D01*
X262768961Y-123157142D02*
X262816580Y-123299999D01*
X262816580Y-123299999D02*
X262816580Y-123538094D01*
X261911819Y-122585713D02*
X261864200Y-122538094D01*
X261864200Y-122538094D02*
X261816580Y-122442856D01*
X261816580Y-122442856D02*
X261816580Y-122204761D01*
X261816580Y-122204761D02*
X261864200Y-122109523D01*
X261864200Y-122109523D02*
X261911819Y-122061904D01*
X261911819Y-122061904D02*
X262007057Y-122014285D01*
X262007057Y-122014285D02*
X262102295Y-122014285D01*
X262102295Y-122014285D02*
X262245152Y-122061904D01*
X262245152Y-122061904D02*
X262816580Y-122633332D01*
X262816580Y-122633332D02*
X262816580Y-122014285D01*
%TO.C,D1*%
X257716580Y-123615854D02*
X256716580Y-123615854D01*
X256716580Y-123615854D02*
X256716580Y-123377759D01*
X256716580Y-123377759D02*
X256764200Y-123234902D01*
X256764200Y-123234902D02*
X256859438Y-123139664D01*
X256859438Y-123139664D02*
X256954676Y-123092045D01*
X256954676Y-123092045D02*
X257145152Y-123044426D01*
X257145152Y-123044426D02*
X257288009Y-123044426D01*
X257288009Y-123044426D02*
X257478485Y-123092045D01*
X257478485Y-123092045D02*
X257573723Y-123139664D01*
X257573723Y-123139664D02*
X257668961Y-123234902D01*
X257668961Y-123234902D02*
X257716580Y-123377759D01*
X257716580Y-123377759D02*
X257716580Y-123615854D01*
X257716580Y-122092045D02*
X257716580Y-122663473D01*
X257716580Y-122377759D02*
X256716580Y-122377759D01*
X256716580Y-122377759D02*
X256859438Y-122472997D01*
X256859438Y-122472997D02*
X256954676Y-122568235D01*
X256954676Y-122568235D02*
X257002295Y-122663473D01*
%TO.C,J1*%
X245666666Y-120867380D02*
X245666666Y-121581666D01*
X245666666Y-121581666D02*
X245619047Y-121724523D01*
X245619047Y-121724523D02*
X245523809Y-121819761D01*
X245523809Y-121819761D02*
X245380952Y-121867380D01*
X245380952Y-121867380D02*
X245285714Y-121867380D01*
X246666666Y-121867380D02*
X246095238Y-121867380D01*
X246380952Y-121867380D02*
X246380952Y-120867380D01*
X246380952Y-120867380D02*
X246285714Y-121010238D01*
X246285714Y-121010238D02*
X246190476Y-121105476D01*
X246190476Y-121105476D02*
X246095238Y-121153095D01*
%TO.C,H2*%
X227487295Y-128545140D02*
X227487295Y-127545140D01*
X227487295Y-128021331D02*
X228058723Y-128021331D01*
X228058723Y-128545140D02*
X228058723Y-127545140D01*
X228487295Y-127640379D02*
X228534914Y-127592760D01*
X228534914Y-127592760D02*
X228630152Y-127545140D01*
X228630152Y-127545140D02*
X228868247Y-127545140D01*
X228868247Y-127545140D02*
X228963485Y-127592760D01*
X228963485Y-127592760D02*
X229011104Y-127640379D01*
X229011104Y-127640379D02*
X229058723Y-127735617D01*
X229058723Y-127735617D02*
X229058723Y-127830855D01*
X229058723Y-127830855D02*
X229011104Y-127973712D01*
X229011104Y-127973712D02*
X228439676Y-128545140D01*
X228439676Y-128545140D02*
X229058723Y-128545140D01*
%TO.C,H1*%
X232487295Y-128545140D02*
X232487295Y-127545140D01*
X232487295Y-128021331D02*
X233058723Y-128021331D01*
X233058723Y-128545140D02*
X233058723Y-127545140D01*
X234058723Y-128545140D02*
X233487295Y-128545140D01*
X233773009Y-128545140D02*
X233773009Y-127545140D01*
X233773009Y-127545140D02*
X233677771Y-127687998D01*
X233677771Y-127687998D02*
X233582533Y-127783236D01*
X233582533Y-127783236D02*
X233487295Y-127830855D01*
%TO.C,D2*%
X235816580Y-123538094D02*
X234816580Y-123538094D01*
X234816580Y-123538094D02*
X234816580Y-123299999D01*
X234816580Y-123299999D02*
X234864200Y-123157142D01*
X234864200Y-123157142D02*
X234959438Y-123061904D01*
X234959438Y-123061904D02*
X235054676Y-123014285D01*
X235054676Y-123014285D02*
X235245152Y-122966666D01*
X235245152Y-122966666D02*
X235388009Y-122966666D01*
X235388009Y-122966666D02*
X235578485Y-123014285D01*
X235578485Y-123014285D02*
X235673723Y-123061904D01*
X235673723Y-123061904D02*
X235768961Y-123157142D01*
X235768961Y-123157142D02*
X235816580Y-123299999D01*
X235816580Y-123299999D02*
X235816580Y-123538094D01*
X234911819Y-122585713D02*
X234864200Y-122538094D01*
X234864200Y-122538094D02*
X234816580Y-122442856D01*
X234816580Y-122442856D02*
X234816580Y-122204761D01*
X234816580Y-122204761D02*
X234864200Y-122109523D01*
X234864200Y-122109523D02*
X234911819Y-122061904D01*
X234911819Y-122061904D02*
X235007057Y-122014285D01*
X235007057Y-122014285D02*
X235102295Y-122014285D01*
X235102295Y-122014285D02*
X235245152Y-122061904D01*
X235245152Y-122061904D02*
X235816580Y-122633332D01*
X235816580Y-122633332D02*
X235816580Y-122014285D01*
%TO.C,D1*%
X230716580Y-123615854D02*
X229716580Y-123615854D01*
X229716580Y-123615854D02*
X229716580Y-123377759D01*
X229716580Y-123377759D02*
X229764200Y-123234902D01*
X229764200Y-123234902D02*
X229859438Y-123139664D01*
X229859438Y-123139664D02*
X229954676Y-123092045D01*
X229954676Y-123092045D02*
X230145152Y-123044426D01*
X230145152Y-123044426D02*
X230288009Y-123044426D01*
X230288009Y-123044426D02*
X230478485Y-123092045D01*
X230478485Y-123092045D02*
X230573723Y-123139664D01*
X230573723Y-123139664D02*
X230668961Y-123234902D01*
X230668961Y-123234902D02*
X230716580Y-123377759D01*
X230716580Y-123377759D02*
X230716580Y-123615854D01*
X230716580Y-122092045D02*
X230716580Y-122663473D01*
X230716580Y-122377759D02*
X229716580Y-122377759D01*
X229716580Y-122377759D02*
X229859438Y-122472997D01*
X229859438Y-122472997D02*
X229954676Y-122568235D01*
X229954676Y-122568235D02*
X230002295Y-122663473D01*
%TO.C,J1*%
X218666666Y-120867380D02*
X218666666Y-121581666D01*
X218666666Y-121581666D02*
X218619047Y-121724523D01*
X218619047Y-121724523D02*
X218523809Y-121819761D01*
X218523809Y-121819761D02*
X218380952Y-121867380D01*
X218380952Y-121867380D02*
X218285714Y-121867380D01*
X219666666Y-121867380D02*
X219095238Y-121867380D01*
X219380952Y-121867380D02*
X219380952Y-120867380D01*
X219380952Y-120867380D02*
X219285714Y-121010238D01*
X219285714Y-121010238D02*
X219190476Y-121105476D01*
X219190476Y-121105476D02*
X219095238Y-121153095D01*
%TO.C,H2*%
X200487295Y-128545140D02*
X200487295Y-127545140D01*
X200487295Y-128021331D02*
X201058723Y-128021331D01*
X201058723Y-128545140D02*
X201058723Y-127545140D01*
X201487295Y-127640379D02*
X201534914Y-127592760D01*
X201534914Y-127592760D02*
X201630152Y-127545140D01*
X201630152Y-127545140D02*
X201868247Y-127545140D01*
X201868247Y-127545140D02*
X201963485Y-127592760D01*
X201963485Y-127592760D02*
X202011104Y-127640379D01*
X202011104Y-127640379D02*
X202058723Y-127735617D01*
X202058723Y-127735617D02*
X202058723Y-127830855D01*
X202058723Y-127830855D02*
X202011104Y-127973712D01*
X202011104Y-127973712D02*
X201439676Y-128545140D01*
X201439676Y-128545140D02*
X202058723Y-128545140D01*
%TO.C,H1*%
X205487295Y-128545140D02*
X205487295Y-127545140D01*
X205487295Y-128021331D02*
X206058723Y-128021331D01*
X206058723Y-128545140D02*
X206058723Y-127545140D01*
X207058723Y-128545140D02*
X206487295Y-128545140D01*
X206773009Y-128545140D02*
X206773009Y-127545140D01*
X206773009Y-127545140D02*
X206677771Y-127687998D01*
X206677771Y-127687998D02*
X206582533Y-127783236D01*
X206582533Y-127783236D02*
X206487295Y-127830855D01*
%TO.C,D2*%
X208816580Y-123538094D02*
X207816580Y-123538094D01*
X207816580Y-123538094D02*
X207816580Y-123299999D01*
X207816580Y-123299999D02*
X207864200Y-123157142D01*
X207864200Y-123157142D02*
X207959438Y-123061904D01*
X207959438Y-123061904D02*
X208054676Y-123014285D01*
X208054676Y-123014285D02*
X208245152Y-122966666D01*
X208245152Y-122966666D02*
X208388009Y-122966666D01*
X208388009Y-122966666D02*
X208578485Y-123014285D01*
X208578485Y-123014285D02*
X208673723Y-123061904D01*
X208673723Y-123061904D02*
X208768961Y-123157142D01*
X208768961Y-123157142D02*
X208816580Y-123299999D01*
X208816580Y-123299999D02*
X208816580Y-123538094D01*
X207911819Y-122585713D02*
X207864200Y-122538094D01*
X207864200Y-122538094D02*
X207816580Y-122442856D01*
X207816580Y-122442856D02*
X207816580Y-122204761D01*
X207816580Y-122204761D02*
X207864200Y-122109523D01*
X207864200Y-122109523D02*
X207911819Y-122061904D01*
X207911819Y-122061904D02*
X208007057Y-122014285D01*
X208007057Y-122014285D02*
X208102295Y-122014285D01*
X208102295Y-122014285D02*
X208245152Y-122061904D01*
X208245152Y-122061904D02*
X208816580Y-122633332D01*
X208816580Y-122633332D02*
X208816580Y-122014285D01*
%TO.C,D1*%
X203716580Y-123615854D02*
X202716580Y-123615854D01*
X202716580Y-123615854D02*
X202716580Y-123377759D01*
X202716580Y-123377759D02*
X202764200Y-123234902D01*
X202764200Y-123234902D02*
X202859438Y-123139664D01*
X202859438Y-123139664D02*
X202954676Y-123092045D01*
X202954676Y-123092045D02*
X203145152Y-123044426D01*
X203145152Y-123044426D02*
X203288009Y-123044426D01*
X203288009Y-123044426D02*
X203478485Y-123092045D01*
X203478485Y-123092045D02*
X203573723Y-123139664D01*
X203573723Y-123139664D02*
X203668961Y-123234902D01*
X203668961Y-123234902D02*
X203716580Y-123377759D01*
X203716580Y-123377759D02*
X203716580Y-123615854D01*
X203716580Y-122092045D02*
X203716580Y-122663473D01*
X203716580Y-122377759D02*
X202716580Y-122377759D01*
X202716580Y-122377759D02*
X202859438Y-122472997D01*
X202859438Y-122472997D02*
X202954676Y-122568235D01*
X202954676Y-122568235D02*
X203002295Y-122663473D01*
%TO.C,J1*%
X191666666Y-120867380D02*
X191666666Y-121581666D01*
X191666666Y-121581666D02*
X191619047Y-121724523D01*
X191619047Y-121724523D02*
X191523809Y-121819761D01*
X191523809Y-121819761D02*
X191380952Y-121867380D01*
X191380952Y-121867380D02*
X191285714Y-121867380D01*
X192666666Y-121867380D02*
X192095238Y-121867380D01*
X192380952Y-121867380D02*
X192380952Y-120867380D01*
X192380952Y-120867380D02*
X192285714Y-121010238D01*
X192285714Y-121010238D02*
X192190476Y-121105476D01*
X192190476Y-121105476D02*
X192095238Y-121153095D01*
D12*
%TO.C,(11\u002C 12)*%
X147363485Y-181026093D02*
X147315866Y-180978474D01*
X147315866Y-180978474D02*
X147220628Y-180835617D01*
X147220628Y-180835617D02*
X147173009Y-180740379D01*
X147173009Y-180740379D02*
X147125390Y-180597521D01*
X147125390Y-180597521D02*
X147077771Y-180359426D01*
X147077771Y-180359426D02*
X147077771Y-180168950D01*
X147077771Y-180168950D02*
X147125390Y-179930855D01*
X147125390Y-179930855D02*
X147173009Y-179787998D01*
X147173009Y-179787998D02*
X147220628Y-179692760D01*
X147220628Y-179692760D02*
X147315866Y-179549902D01*
X147315866Y-179549902D02*
X147363485Y-179502283D01*
X148268247Y-180645140D02*
X147696819Y-180645140D01*
X147982533Y-180645140D02*
X147982533Y-179645140D01*
X147982533Y-179645140D02*
X147887295Y-179787998D01*
X147887295Y-179787998D02*
X147792057Y-179883236D01*
X147792057Y-179883236D02*
X147696819Y-179930855D01*
X149220628Y-180645140D02*
X148649200Y-180645140D01*
X148934914Y-180645140D02*
X148934914Y-179645140D01*
X148934914Y-179645140D02*
X148839676Y-179787998D01*
X148839676Y-179787998D02*
X148744438Y-179883236D01*
X148744438Y-179883236D02*
X148649200Y-179930855D01*
X149696819Y-180597521D02*
X149696819Y-180645140D01*
X149696819Y-180645140D02*
X149649200Y-180740379D01*
X149649200Y-180740379D02*
X149601581Y-180787998D01*
X151249199Y-180645140D02*
X150677771Y-180645140D01*
X150963485Y-180645140D02*
X150963485Y-179645140D01*
X150963485Y-179645140D02*
X150868247Y-179787998D01*
X150868247Y-179787998D02*
X150773009Y-179883236D01*
X150773009Y-179883236D02*
X150677771Y-179930855D01*
X151630152Y-179740379D02*
X151677771Y-179692760D01*
X151677771Y-179692760D02*
X151773009Y-179645140D01*
X151773009Y-179645140D02*
X152011104Y-179645140D01*
X152011104Y-179645140D02*
X152106342Y-179692760D01*
X152106342Y-179692760D02*
X152153961Y-179740379D01*
X152153961Y-179740379D02*
X152201580Y-179835617D01*
X152201580Y-179835617D02*
X152201580Y-179930855D01*
X152201580Y-179930855D02*
X152153961Y-180073712D01*
X152153961Y-180073712D02*
X151582533Y-180645140D01*
X151582533Y-180645140D02*
X152201580Y-180645140D01*
X152534914Y-181026093D02*
X152582533Y-180978474D01*
X152582533Y-180978474D02*
X152677771Y-180835617D01*
X152677771Y-180835617D02*
X152725390Y-180740379D01*
X152725390Y-180740379D02*
X152773009Y-180597521D01*
X152773009Y-180597521D02*
X152820628Y-180359426D01*
X152820628Y-180359426D02*
X152820628Y-180168950D01*
X152820628Y-180168950D02*
X152773009Y-179930855D01*
X152773009Y-179930855D02*
X152725390Y-179787998D01*
X152725390Y-179787998D02*
X152677771Y-179692760D01*
X152677771Y-179692760D02*
X152582533Y-179549902D01*
X152582533Y-179549902D02*
X152534914Y-179502283D01*
%TO.C,(135\u002C 15)*%
X270887295Y-178026093D02*
X270839676Y-177978474D01*
X270839676Y-177978474D02*
X270744438Y-177835617D01*
X270744438Y-177835617D02*
X270696819Y-177740379D01*
X270696819Y-177740379D02*
X270649200Y-177597521D01*
X270649200Y-177597521D02*
X270601581Y-177359426D01*
X270601581Y-177359426D02*
X270601581Y-177168950D01*
X270601581Y-177168950D02*
X270649200Y-176930855D01*
X270649200Y-176930855D02*
X270696819Y-176787998D01*
X270696819Y-176787998D02*
X270744438Y-176692760D01*
X270744438Y-176692760D02*
X270839676Y-176549902D01*
X270839676Y-176549902D02*
X270887295Y-176502283D01*
X271792057Y-177645140D02*
X271220629Y-177645140D01*
X271506343Y-177645140D02*
X271506343Y-176645140D01*
X271506343Y-176645140D02*
X271411105Y-176787998D01*
X271411105Y-176787998D02*
X271315867Y-176883236D01*
X271315867Y-176883236D02*
X271220629Y-176930855D01*
X272125391Y-176645140D02*
X272744438Y-176645140D01*
X272744438Y-176645140D02*
X272411105Y-177026093D01*
X272411105Y-177026093D02*
X272553962Y-177026093D01*
X272553962Y-177026093D02*
X272649200Y-177073712D01*
X272649200Y-177073712D02*
X272696819Y-177121331D01*
X272696819Y-177121331D02*
X272744438Y-177216569D01*
X272744438Y-177216569D02*
X272744438Y-177454664D01*
X272744438Y-177454664D02*
X272696819Y-177549902D01*
X272696819Y-177549902D02*
X272649200Y-177597521D01*
X272649200Y-177597521D02*
X272553962Y-177645140D01*
X272553962Y-177645140D02*
X272268248Y-177645140D01*
X272268248Y-177645140D02*
X272173010Y-177597521D01*
X272173010Y-177597521D02*
X272125391Y-177549902D01*
X273649200Y-176645140D02*
X273173010Y-176645140D01*
X273173010Y-176645140D02*
X273125391Y-177121331D01*
X273125391Y-177121331D02*
X273173010Y-177073712D01*
X273173010Y-177073712D02*
X273268248Y-177026093D01*
X273268248Y-177026093D02*
X273506343Y-177026093D01*
X273506343Y-177026093D02*
X273601581Y-177073712D01*
X273601581Y-177073712D02*
X273649200Y-177121331D01*
X273649200Y-177121331D02*
X273696819Y-177216569D01*
X273696819Y-177216569D02*
X273696819Y-177454664D01*
X273696819Y-177454664D02*
X273649200Y-177549902D01*
X273649200Y-177549902D02*
X273601581Y-177597521D01*
X273601581Y-177597521D02*
X273506343Y-177645140D01*
X273506343Y-177645140D02*
X273268248Y-177645140D01*
X273268248Y-177645140D02*
X273173010Y-177597521D01*
X273173010Y-177597521D02*
X273125391Y-177549902D01*
X274173010Y-177597521D02*
X274173010Y-177645140D01*
X274173010Y-177645140D02*
X274125391Y-177740379D01*
X274125391Y-177740379D02*
X274077772Y-177787998D01*
X275725390Y-177645140D02*
X275153962Y-177645140D01*
X275439676Y-177645140D02*
X275439676Y-176645140D01*
X275439676Y-176645140D02*
X275344438Y-176787998D01*
X275344438Y-176787998D02*
X275249200Y-176883236D01*
X275249200Y-176883236D02*
X275153962Y-176930855D01*
X276630152Y-176645140D02*
X276153962Y-176645140D01*
X276153962Y-176645140D02*
X276106343Y-177121331D01*
X276106343Y-177121331D02*
X276153962Y-177073712D01*
X276153962Y-177073712D02*
X276249200Y-177026093D01*
X276249200Y-177026093D02*
X276487295Y-177026093D01*
X276487295Y-177026093D02*
X276582533Y-177073712D01*
X276582533Y-177073712D02*
X276630152Y-177121331D01*
X276630152Y-177121331D02*
X276677771Y-177216569D01*
X276677771Y-177216569D02*
X276677771Y-177454664D01*
X276677771Y-177454664D02*
X276630152Y-177549902D01*
X276630152Y-177549902D02*
X276582533Y-177597521D01*
X276582533Y-177597521D02*
X276487295Y-177645140D01*
X276487295Y-177645140D02*
X276249200Y-177645140D01*
X276249200Y-177645140D02*
X276153962Y-177597521D01*
X276153962Y-177597521D02*
X276106343Y-177549902D01*
X277011105Y-178026093D02*
X277058724Y-177978474D01*
X277058724Y-177978474D02*
X277153962Y-177835617D01*
X277153962Y-177835617D02*
X277201581Y-177740379D01*
X277201581Y-177740379D02*
X277249200Y-177597521D01*
X277249200Y-177597521D02*
X277296819Y-177359426D01*
X277296819Y-177359426D02*
X277296819Y-177168950D01*
X277296819Y-177168950D02*
X277249200Y-176930855D01*
X277249200Y-176930855D02*
X277201581Y-176787998D01*
X277201581Y-176787998D02*
X277153962Y-176692760D01*
X277153962Y-176692760D02*
X277058724Y-176549902D01*
X277058724Y-176549902D02*
X277011105Y-176502283D01*
%TO.C,(15\u002C 83)*%
X151363485Y-110026093D02*
X151315866Y-109978474D01*
X151315866Y-109978474D02*
X151220628Y-109835617D01*
X151220628Y-109835617D02*
X151173009Y-109740379D01*
X151173009Y-109740379D02*
X151125390Y-109597521D01*
X151125390Y-109597521D02*
X151077771Y-109359426D01*
X151077771Y-109359426D02*
X151077771Y-109168950D01*
X151077771Y-109168950D02*
X151125390Y-108930855D01*
X151125390Y-108930855D02*
X151173009Y-108787998D01*
X151173009Y-108787998D02*
X151220628Y-108692760D01*
X151220628Y-108692760D02*
X151315866Y-108549902D01*
X151315866Y-108549902D02*
X151363485Y-108502283D01*
X152268247Y-109645140D02*
X151696819Y-109645140D01*
X151982533Y-109645140D02*
X151982533Y-108645140D01*
X151982533Y-108645140D02*
X151887295Y-108787998D01*
X151887295Y-108787998D02*
X151792057Y-108883236D01*
X151792057Y-108883236D02*
X151696819Y-108930855D01*
X153173009Y-108645140D02*
X152696819Y-108645140D01*
X152696819Y-108645140D02*
X152649200Y-109121331D01*
X152649200Y-109121331D02*
X152696819Y-109073712D01*
X152696819Y-109073712D02*
X152792057Y-109026093D01*
X152792057Y-109026093D02*
X153030152Y-109026093D01*
X153030152Y-109026093D02*
X153125390Y-109073712D01*
X153125390Y-109073712D02*
X153173009Y-109121331D01*
X153173009Y-109121331D02*
X153220628Y-109216569D01*
X153220628Y-109216569D02*
X153220628Y-109454664D01*
X153220628Y-109454664D02*
X153173009Y-109549902D01*
X153173009Y-109549902D02*
X153125390Y-109597521D01*
X153125390Y-109597521D02*
X153030152Y-109645140D01*
X153030152Y-109645140D02*
X152792057Y-109645140D01*
X152792057Y-109645140D02*
X152696819Y-109597521D01*
X152696819Y-109597521D02*
X152649200Y-109549902D01*
X153696819Y-109597521D02*
X153696819Y-109645140D01*
X153696819Y-109645140D02*
X153649200Y-109740379D01*
X153649200Y-109740379D02*
X153601581Y-109787998D01*
X154868247Y-109073712D02*
X154773009Y-109026093D01*
X154773009Y-109026093D02*
X154725390Y-108978474D01*
X154725390Y-108978474D02*
X154677771Y-108883236D01*
X154677771Y-108883236D02*
X154677771Y-108835617D01*
X154677771Y-108835617D02*
X154725390Y-108740379D01*
X154725390Y-108740379D02*
X154773009Y-108692760D01*
X154773009Y-108692760D02*
X154868247Y-108645140D01*
X154868247Y-108645140D02*
X155058723Y-108645140D01*
X155058723Y-108645140D02*
X155153961Y-108692760D01*
X155153961Y-108692760D02*
X155201580Y-108740379D01*
X155201580Y-108740379D02*
X155249199Y-108835617D01*
X155249199Y-108835617D02*
X155249199Y-108883236D01*
X155249199Y-108883236D02*
X155201580Y-108978474D01*
X155201580Y-108978474D02*
X155153961Y-109026093D01*
X155153961Y-109026093D02*
X155058723Y-109073712D01*
X155058723Y-109073712D02*
X154868247Y-109073712D01*
X154868247Y-109073712D02*
X154773009Y-109121331D01*
X154773009Y-109121331D02*
X154725390Y-109168950D01*
X154725390Y-109168950D02*
X154677771Y-109264188D01*
X154677771Y-109264188D02*
X154677771Y-109454664D01*
X154677771Y-109454664D02*
X154725390Y-109549902D01*
X154725390Y-109549902D02*
X154773009Y-109597521D01*
X154773009Y-109597521D02*
X154868247Y-109645140D01*
X154868247Y-109645140D02*
X155058723Y-109645140D01*
X155058723Y-109645140D02*
X155153961Y-109597521D01*
X155153961Y-109597521D02*
X155201580Y-109549902D01*
X155201580Y-109549902D02*
X155249199Y-109454664D01*
X155249199Y-109454664D02*
X155249199Y-109264188D01*
X155249199Y-109264188D02*
X155201580Y-109168950D01*
X155201580Y-109168950D02*
X155153961Y-109121331D01*
X155153961Y-109121331D02*
X155058723Y-109073712D01*
X155582533Y-108645140D02*
X156201580Y-108645140D01*
X156201580Y-108645140D02*
X155868247Y-109026093D01*
X155868247Y-109026093D02*
X156011104Y-109026093D01*
X156011104Y-109026093D02*
X156106342Y-109073712D01*
X156106342Y-109073712D02*
X156153961Y-109121331D01*
X156153961Y-109121331D02*
X156201580Y-109216569D01*
X156201580Y-109216569D02*
X156201580Y-109454664D01*
X156201580Y-109454664D02*
X156153961Y-109549902D01*
X156153961Y-109549902D02*
X156106342Y-109597521D01*
X156106342Y-109597521D02*
X156011104Y-109645140D01*
X156011104Y-109645140D02*
X155725390Y-109645140D01*
X155725390Y-109645140D02*
X155630152Y-109597521D01*
X155630152Y-109597521D02*
X155582533Y-109549902D01*
X156534914Y-110026093D02*
X156582533Y-109978474D01*
X156582533Y-109978474D02*
X156677771Y-109835617D01*
X156677771Y-109835617D02*
X156725390Y-109740379D01*
X156725390Y-109740379D02*
X156773009Y-109597521D01*
X156773009Y-109597521D02*
X156820628Y-109359426D01*
X156820628Y-109359426D02*
X156820628Y-109168950D01*
X156820628Y-109168950D02*
X156773009Y-108930855D01*
X156773009Y-108930855D02*
X156725390Y-108787998D01*
X156725390Y-108787998D02*
X156677771Y-108692760D01*
X156677771Y-108692760D02*
X156582533Y-108549902D01*
X156582533Y-108549902D02*
X156534914Y-108502283D01*
D11*
%TO.C,D2*%
X181816580Y-123538094D02*
X180816580Y-123538094D01*
X180816580Y-123538094D02*
X180816580Y-123299999D01*
X180816580Y-123299999D02*
X180864200Y-123157142D01*
X180864200Y-123157142D02*
X180959438Y-123061904D01*
X180959438Y-123061904D02*
X181054676Y-123014285D01*
X181054676Y-123014285D02*
X181245152Y-122966666D01*
X181245152Y-122966666D02*
X181388009Y-122966666D01*
X181388009Y-122966666D02*
X181578485Y-123014285D01*
X181578485Y-123014285D02*
X181673723Y-123061904D01*
X181673723Y-123061904D02*
X181768961Y-123157142D01*
X181768961Y-123157142D02*
X181816580Y-123299999D01*
X181816580Y-123299999D02*
X181816580Y-123538094D01*
X180911819Y-122585713D02*
X180864200Y-122538094D01*
X180864200Y-122538094D02*
X180816580Y-122442856D01*
X180816580Y-122442856D02*
X180816580Y-122204761D01*
X180816580Y-122204761D02*
X180864200Y-122109523D01*
X180864200Y-122109523D02*
X180911819Y-122061904D01*
X180911819Y-122061904D02*
X181007057Y-122014285D01*
X181007057Y-122014285D02*
X181102295Y-122014285D01*
X181102295Y-122014285D02*
X181245152Y-122061904D01*
X181245152Y-122061904D02*
X181816580Y-122633332D01*
X181816580Y-122633332D02*
X181816580Y-122014285D01*
%TO.C,D1*%
X176716580Y-123615854D02*
X175716580Y-123615854D01*
X175716580Y-123615854D02*
X175716580Y-123377759D01*
X175716580Y-123377759D02*
X175764200Y-123234902D01*
X175764200Y-123234902D02*
X175859438Y-123139664D01*
X175859438Y-123139664D02*
X175954676Y-123092045D01*
X175954676Y-123092045D02*
X176145152Y-123044426D01*
X176145152Y-123044426D02*
X176288009Y-123044426D01*
X176288009Y-123044426D02*
X176478485Y-123092045D01*
X176478485Y-123092045D02*
X176573723Y-123139664D01*
X176573723Y-123139664D02*
X176668961Y-123234902D01*
X176668961Y-123234902D02*
X176716580Y-123377759D01*
X176716580Y-123377759D02*
X176716580Y-123615854D01*
X176716580Y-122092045D02*
X176716580Y-122663473D01*
X176716580Y-122377759D02*
X175716580Y-122377759D01*
X175716580Y-122377759D02*
X175859438Y-122472997D01*
X175859438Y-122472997D02*
X175954676Y-122568235D01*
X175954676Y-122568235D02*
X176002295Y-122663473D01*
%TO.C,H1*%
X178487295Y-128545140D02*
X178487295Y-127545140D01*
X178487295Y-128021331D02*
X179058723Y-128021331D01*
X179058723Y-128545140D02*
X179058723Y-127545140D01*
X180058723Y-128545140D02*
X179487295Y-128545140D01*
X179773009Y-128545140D02*
X179773009Y-127545140D01*
X179773009Y-127545140D02*
X179677771Y-127687998D01*
X179677771Y-127687998D02*
X179582533Y-127783236D01*
X179582533Y-127783236D02*
X179487295Y-127830855D01*
%TO.C,J1*%
X164666666Y-120867380D02*
X164666666Y-121581666D01*
X164666666Y-121581666D02*
X164619047Y-121724523D01*
X164619047Y-121724523D02*
X164523809Y-121819761D01*
X164523809Y-121819761D02*
X164380952Y-121867380D01*
X164380952Y-121867380D02*
X164285714Y-121867380D01*
X165666666Y-121867380D02*
X165095238Y-121867380D01*
X165380952Y-121867380D02*
X165380952Y-120867380D01*
X165380952Y-120867380D02*
X165285714Y-121010238D01*
X165285714Y-121010238D02*
X165190476Y-121105476D01*
X165190476Y-121105476D02*
X165095238Y-121153095D01*
%TO.C,H2*%
X173487295Y-128545140D02*
X173487295Y-127545140D01*
X173487295Y-128021331D02*
X174058723Y-128021331D01*
X174058723Y-128545140D02*
X174058723Y-127545140D01*
X174487295Y-127640379D02*
X174534914Y-127592760D01*
X174534914Y-127592760D02*
X174630152Y-127545140D01*
X174630152Y-127545140D02*
X174868247Y-127545140D01*
X174868247Y-127545140D02*
X174963485Y-127592760D01*
X174963485Y-127592760D02*
X175011104Y-127640379D01*
X175011104Y-127640379D02*
X175058723Y-127735617D01*
X175058723Y-127735617D02*
X175058723Y-127830855D01*
X175058723Y-127830855D02*
X175011104Y-127973712D01*
X175011104Y-127973712D02*
X174439676Y-128545140D01*
X174439676Y-128545140D02*
X175058723Y-128545140D01*
X257662200Y-171947760D02*
X252836200Y-171947760D01*
X257662200Y-165597760D02*
X257662200Y-171947760D01*
X252836200Y-171947760D02*
X252836200Y-165597760D01*
%TO.C,H1*%
X262662200Y-171947760D02*
X257836200Y-171947760D01*
X262662200Y-165597760D02*
X262662200Y-171947760D01*
X257836200Y-171947760D02*
X257836200Y-165597760D01*
%TO.C,D2*%
X261249200Y-168977760D02*
X260249200Y-168977760D01*
X261249200Y-166977760D02*
X259249200Y-166977760D01*
%TO.C,D1*%
X256249200Y-168977760D02*
X255249200Y-168977760D01*
X256249200Y-166977760D02*
X254249200Y-166977760D01*
D13*
%TO.C,J1*%
X241590000Y-168290000D02*
X242440000Y-168290000D01*
X241590000Y-169190000D02*
X241590000Y-168290000D01*
X242440000Y-167990000D02*
X242690000Y-167990000D01*
X242440000Y-168290000D02*
X242440000Y-167990000D01*
X242690000Y-167990000D02*
X242690000Y-167850000D01*
X242760000Y-170910000D02*
X249240000Y-170910000D01*
X243085000Y-167495447D02*
X243206000Y-167595000D01*
X243206000Y-167595000D02*
X243339000Y-167495447D01*
X243339000Y-167495447D02*
X243085000Y-167495447D01*
X249560000Y-167990000D02*
X249310000Y-167990000D01*
X249560000Y-168290000D02*
X249560000Y-167990000D01*
X250410000Y-168290000D02*
X249560000Y-168290000D01*
X250410000Y-169190000D02*
X250410000Y-168290000D01*
D11*
%TO.C,H2*%
X230662200Y-171947760D02*
X225836200Y-171947760D01*
X230662200Y-165597760D02*
X230662200Y-171947760D01*
X225836200Y-171947760D02*
X225836200Y-165597760D01*
%TO.C,H1*%
X235662200Y-171947760D02*
X230836200Y-171947760D01*
X235662200Y-165597760D02*
X235662200Y-171947760D01*
X230836200Y-171947760D02*
X230836200Y-165597760D01*
%TO.C,D2*%
X234249200Y-168977760D02*
X233249200Y-168977760D01*
X234249200Y-166977760D02*
X232249200Y-166977760D01*
%TO.C,D1*%
X229249200Y-168977760D02*
X228249200Y-168977760D01*
X229249200Y-166977760D02*
X227249200Y-166977760D01*
D13*
%TO.C,J1*%
X214590000Y-168290000D02*
X215440000Y-168290000D01*
X214590000Y-169190000D02*
X214590000Y-168290000D01*
X215440000Y-167990000D02*
X215690000Y-167990000D01*
X215440000Y-168290000D02*
X215440000Y-167990000D01*
X215690000Y-167990000D02*
X215690000Y-167850000D01*
X215760000Y-170910000D02*
X222240000Y-170910000D01*
X216085000Y-167495447D02*
X216206000Y-167595000D01*
X216206000Y-167595000D02*
X216339000Y-167495447D01*
X216339000Y-167495447D02*
X216085000Y-167495447D01*
X222560000Y-167990000D02*
X222310000Y-167990000D01*
X222560000Y-168290000D02*
X222560000Y-167990000D01*
X223410000Y-168290000D02*
X222560000Y-168290000D01*
X223410000Y-169190000D02*
X223410000Y-168290000D01*
D11*
%TO.C,H2*%
X203862200Y-171947760D02*
X199036200Y-171947760D01*
X203862200Y-165597760D02*
X203862200Y-171947760D01*
X199036200Y-171947760D02*
X199036200Y-165597760D01*
%TO.C,H1*%
X208862200Y-171947760D02*
X204036200Y-171947760D01*
X208862200Y-165597760D02*
X208862200Y-171947760D01*
X204036200Y-171947760D02*
X204036200Y-165597760D01*
%TO.C,D2*%
X207449200Y-168977760D02*
X206449200Y-168977760D01*
X207449200Y-166977760D02*
X205449200Y-166977760D01*
%TO.C,D1*%
X202449200Y-168977760D02*
X201449200Y-168977760D01*
X202449200Y-166977760D02*
X200449200Y-166977760D01*
D13*
%TO.C,J1*%
X187790000Y-168290000D02*
X188640000Y-168290000D01*
X187790000Y-169190000D02*
X187790000Y-168290000D01*
X188640000Y-167990000D02*
X188890000Y-167990000D01*
X188640000Y-168290000D02*
X188640000Y-167990000D01*
X188890000Y-167990000D02*
X188890000Y-167850000D01*
X188960000Y-170910000D02*
X195440000Y-170910000D01*
X189285000Y-167495447D02*
X189406000Y-167595000D01*
X189406000Y-167595000D02*
X189539000Y-167495447D01*
X189539000Y-167495447D02*
X189285000Y-167495447D01*
X195760000Y-167990000D02*
X195510000Y-167990000D01*
X195760000Y-168290000D02*
X195760000Y-167990000D01*
X196610000Y-168290000D02*
X195760000Y-168290000D01*
X196610000Y-169190000D02*
X196610000Y-168290000D01*
D11*
%TO.C,H2*%
X176662200Y-171947760D02*
X171836200Y-171947760D01*
X176662200Y-165597760D02*
X176662200Y-171947760D01*
X171836200Y-171947760D02*
X171836200Y-165597760D01*
%TO.C,H1*%
X181662200Y-171947760D02*
X176836200Y-171947760D01*
X181662200Y-165597760D02*
X181662200Y-171947760D01*
X176836200Y-171947760D02*
X176836200Y-165597760D01*
%TO.C,D2*%
X180249200Y-168977760D02*
X179249200Y-168977760D01*
X180249200Y-166977760D02*
X178249200Y-166977760D01*
%TO.C,D1*%
X175249200Y-168977760D02*
X174249200Y-168977760D01*
X175249200Y-166977760D02*
X173249200Y-166977760D01*
D13*
%TO.C,J1*%
X160590000Y-168290000D02*
X161440000Y-168290000D01*
X160590000Y-169190000D02*
X160590000Y-168290000D01*
X161440000Y-167990000D02*
X161690000Y-167990000D01*
X161440000Y-168290000D02*
X161440000Y-167990000D01*
X161690000Y-167990000D02*
X161690000Y-167850000D01*
X161760000Y-170910000D02*
X168240000Y-170910000D01*
X162085000Y-167495447D02*
X162206000Y-167595000D01*
X162206000Y-167595000D02*
X162339000Y-167495447D01*
X162339000Y-167495447D02*
X162085000Y-167495447D01*
X168560000Y-167990000D02*
X168310000Y-167990000D01*
X168560000Y-168290000D02*
X168560000Y-167990000D01*
X169410000Y-168290000D02*
X168560000Y-168290000D01*
X169410000Y-169190000D02*
X169410000Y-168290000D01*
D11*
%TO.C,H2*%
X257662200Y-162947760D02*
X252836200Y-162947760D01*
X257662200Y-156597760D02*
X257662200Y-162947760D01*
X252836200Y-162947760D02*
X252836200Y-156597760D01*
%TO.C,H1*%
X262662200Y-162947760D02*
X257836200Y-162947760D01*
X262662200Y-156597760D02*
X262662200Y-162947760D01*
X257836200Y-162947760D02*
X257836200Y-156597760D01*
%TO.C,D2*%
X261249200Y-159977760D02*
X260249200Y-159977760D01*
X261249200Y-157977760D02*
X259249200Y-157977760D01*
%TO.C,D1*%
X256249200Y-159977760D02*
X255249200Y-159977760D01*
X256249200Y-157977760D02*
X254249200Y-157977760D01*
D13*
%TO.C,J1*%
X241590000Y-159290000D02*
X242440000Y-159290000D01*
X241590000Y-160190000D02*
X241590000Y-159290000D01*
X242440000Y-158990000D02*
X242690000Y-158990000D01*
X242440000Y-159290000D02*
X242440000Y-158990000D01*
X242690000Y-158990000D02*
X242690000Y-158850000D01*
X242760000Y-161910000D02*
X249240000Y-161910000D01*
X243085000Y-158495447D02*
X243206000Y-158595000D01*
X243206000Y-158595000D02*
X243339000Y-158495447D01*
X243339000Y-158495447D02*
X243085000Y-158495447D01*
X249560000Y-158990000D02*
X249310000Y-158990000D01*
X249560000Y-159290000D02*
X249560000Y-158990000D01*
X250410000Y-159290000D02*
X249560000Y-159290000D01*
X250410000Y-160190000D02*
X250410000Y-159290000D01*
D11*
%TO.C,H2*%
X230662200Y-162947760D02*
X225836200Y-162947760D01*
X230662200Y-156597760D02*
X230662200Y-162947760D01*
X225836200Y-162947760D02*
X225836200Y-156597760D01*
%TO.C,H1*%
X235662200Y-162947760D02*
X230836200Y-162947760D01*
X235662200Y-156597760D02*
X235662200Y-162947760D01*
X230836200Y-162947760D02*
X230836200Y-156597760D01*
%TO.C,D2*%
X234249200Y-159977760D02*
X233249200Y-159977760D01*
X234249200Y-157977760D02*
X232249200Y-157977760D01*
%TO.C,D1*%
X229249200Y-159977760D02*
X228249200Y-159977760D01*
X229249200Y-157977760D02*
X227249200Y-157977760D01*
D13*
%TO.C,J1*%
X214590000Y-159290000D02*
X215440000Y-159290000D01*
X214590000Y-160190000D02*
X214590000Y-159290000D01*
X215440000Y-158990000D02*
X215690000Y-158990000D01*
X215440000Y-159290000D02*
X215440000Y-158990000D01*
X215690000Y-158990000D02*
X215690000Y-158850000D01*
X215760000Y-161910000D02*
X222240000Y-161910000D01*
X216085000Y-158495447D02*
X216206000Y-158595000D01*
X216206000Y-158595000D02*
X216339000Y-158495447D01*
X216339000Y-158495447D02*
X216085000Y-158495447D01*
X222560000Y-158990000D02*
X222310000Y-158990000D01*
X222560000Y-159290000D02*
X222560000Y-158990000D01*
X223410000Y-159290000D02*
X222560000Y-159290000D01*
X223410000Y-160190000D02*
X223410000Y-159290000D01*
D11*
%TO.C,H2*%
X203862200Y-162947760D02*
X199036200Y-162947760D01*
X203862200Y-156597760D02*
X203862200Y-162947760D01*
X199036200Y-162947760D02*
X199036200Y-156597760D01*
%TO.C,H1*%
X208862200Y-162947760D02*
X204036200Y-162947760D01*
X208862200Y-156597760D02*
X208862200Y-162947760D01*
X204036200Y-162947760D02*
X204036200Y-156597760D01*
%TO.C,D2*%
X207449200Y-159977760D02*
X206449200Y-159977760D01*
X207449200Y-157977760D02*
X205449200Y-157977760D01*
%TO.C,D1*%
X202449200Y-159977760D02*
X201449200Y-159977760D01*
X202449200Y-157977760D02*
X200449200Y-157977760D01*
D13*
%TO.C,J1*%
X187790000Y-159290000D02*
X188640000Y-159290000D01*
X187790000Y-160190000D02*
X187790000Y-159290000D01*
X188640000Y-158990000D02*
X188890000Y-158990000D01*
X188640000Y-159290000D02*
X188640000Y-158990000D01*
X188890000Y-158990000D02*
X188890000Y-158850000D01*
X188960000Y-161910000D02*
X195440000Y-161910000D01*
X189285000Y-158495447D02*
X189406000Y-158595000D01*
X189406000Y-158595000D02*
X189539000Y-158495447D01*
X189539000Y-158495447D02*
X189285000Y-158495447D01*
X195760000Y-158990000D02*
X195510000Y-158990000D01*
X195760000Y-159290000D02*
X195760000Y-158990000D01*
X196610000Y-159290000D02*
X195760000Y-159290000D01*
X196610000Y-160190000D02*
X196610000Y-159290000D01*
D11*
%TO.C,H2*%
X176662200Y-162947760D02*
X171836200Y-162947760D01*
X176662200Y-156597760D02*
X176662200Y-162947760D01*
X171836200Y-162947760D02*
X171836200Y-156597760D01*
%TO.C,H1*%
X181662200Y-162947760D02*
X176836200Y-162947760D01*
X181662200Y-156597760D02*
X181662200Y-162947760D01*
X176836200Y-162947760D02*
X176836200Y-156597760D01*
%TO.C,D2*%
X180249200Y-159977760D02*
X179249200Y-159977760D01*
X180249200Y-157977760D02*
X178249200Y-157977760D01*
%TO.C,D1*%
X175249200Y-159977760D02*
X174249200Y-159977760D01*
X175249200Y-157977760D02*
X173249200Y-157977760D01*
D13*
%TO.C,J1*%
X160590000Y-159290000D02*
X161440000Y-159290000D01*
X160590000Y-160190000D02*
X160590000Y-159290000D01*
X161440000Y-158990000D02*
X161690000Y-158990000D01*
X161440000Y-159290000D02*
X161440000Y-158990000D01*
X161690000Y-158990000D02*
X161690000Y-158850000D01*
X161760000Y-161910000D02*
X168240000Y-161910000D01*
X162085000Y-158495447D02*
X162206000Y-158595000D01*
X162206000Y-158595000D02*
X162339000Y-158495447D01*
X162339000Y-158495447D02*
X162085000Y-158495447D01*
X168560000Y-158990000D02*
X168310000Y-158990000D01*
X168560000Y-159290000D02*
X168560000Y-158990000D01*
X169410000Y-159290000D02*
X168560000Y-159290000D01*
X169410000Y-160190000D02*
X169410000Y-159290000D01*
D11*
%TO.C,H2*%
X257662200Y-153947760D02*
X252836200Y-153947760D01*
X257662200Y-147597760D02*
X257662200Y-153947760D01*
X252836200Y-153947760D02*
X252836200Y-147597760D01*
%TO.C,H1*%
X262662200Y-153947760D02*
X257836200Y-153947760D01*
X262662200Y-147597760D02*
X262662200Y-153947760D01*
X257836200Y-153947760D02*
X257836200Y-147597760D01*
%TO.C,D2*%
X261249200Y-150977760D02*
X260249200Y-150977760D01*
X261249200Y-148977760D02*
X259249200Y-148977760D01*
%TO.C,D1*%
X256249200Y-150977760D02*
X255249200Y-150977760D01*
X256249200Y-148977760D02*
X254249200Y-148977760D01*
D13*
%TO.C,J1*%
X241590000Y-150290000D02*
X242440000Y-150290000D01*
X241590000Y-151190000D02*
X241590000Y-150290000D01*
X242440000Y-149990000D02*
X242690000Y-149990000D01*
X242440000Y-150290000D02*
X242440000Y-149990000D01*
X242690000Y-149990000D02*
X242690000Y-149850000D01*
X242760000Y-152910000D02*
X249240000Y-152910000D01*
X243085000Y-149495447D02*
X243206000Y-149595000D01*
X243206000Y-149595000D02*
X243339000Y-149495447D01*
X243339000Y-149495447D02*
X243085000Y-149495447D01*
X249560000Y-149990000D02*
X249310000Y-149990000D01*
X249560000Y-150290000D02*
X249560000Y-149990000D01*
X250410000Y-150290000D02*
X249560000Y-150290000D01*
X250410000Y-151190000D02*
X250410000Y-150290000D01*
D11*
%TO.C,H2*%
X230662200Y-153947760D02*
X225836200Y-153947760D01*
X230662200Y-147597760D02*
X230662200Y-153947760D01*
X225836200Y-153947760D02*
X225836200Y-147597760D01*
%TO.C,H1*%
X235662200Y-153947760D02*
X230836200Y-153947760D01*
X235662200Y-147597760D02*
X235662200Y-153947760D01*
X230836200Y-153947760D02*
X230836200Y-147597760D01*
%TO.C,D2*%
X234249200Y-150977760D02*
X233249200Y-150977760D01*
X234249200Y-148977760D02*
X232249200Y-148977760D01*
%TO.C,D1*%
X229249200Y-150977760D02*
X228249200Y-150977760D01*
X229249200Y-148977760D02*
X227249200Y-148977760D01*
D13*
%TO.C,J1*%
X214590000Y-150290000D02*
X215440000Y-150290000D01*
X214590000Y-151190000D02*
X214590000Y-150290000D01*
X215440000Y-149990000D02*
X215690000Y-149990000D01*
X215440000Y-150290000D02*
X215440000Y-149990000D01*
X215690000Y-149990000D02*
X215690000Y-149850000D01*
X215760000Y-152910000D02*
X222240000Y-152910000D01*
X216085000Y-149495447D02*
X216206000Y-149595000D01*
X216206000Y-149595000D02*
X216339000Y-149495447D01*
X216339000Y-149495447D02*
X216085000Y-149495447D01*
X222560000Y-149990000D02*
X222310000Y-149990000D01*
X222560000Y-150290000D02*
X222560000Y-149990000D01*
X223410000Y-150290000D02*
X222560000Y-150290000D01*
X223410000Y-151190000D02*
X223410000Y-150290000D01*
D11*
%TO.C,H2*%
X203862200Y-153947760D02*
X199036200Y-153947760D01*
X203862200Y-147597760D02*
X203862200Y-153947760D01*
X199036200Y-153947760D02*
X199036200Y-147597760D01*
%TO.C,H1*%
X208862200Y-153947760D02*
X204036200Y-153947760D01*
X208862200Y-147597760D02*
X208862200Y-153947760D01*
X204036200Y-153947760D02*
X204036200Y-147597760D01*
%TO.C,D2*%
X207449200Y-150977760D02*
X206449200Y-150977760D01*
X207449200Y-148977760D02*
X205449200Y-148977760D01*
%TO.C,D1*%
X202449200Y-150977760D02*
X201449200Y-150977760D01*
X202449200Y-148977760D02*
X200449200Y-148977760D01*
D13*
%TO.C,J1*%
X187790000Y-150290000D02*
X188640000Y-150290000D01*
X187790000Y-151190000D02*
X187790000Y-150290000D01*
X188640000Y-149990000D02*
X188890000Y-149990000D01*
X188640000Y-150290000D02*
X188640000Y-149990000D01*
X188890000Y-149990000D02*
X188890000Y-149850000D01*
X188960000Y-152910000D02*
X195440000Y-152910000D01*
X189285000Y-149495447D02*
X189406000Y-149595000D01*
X189406000Y-149595000D02*
X189539000Y-149495447D01*
X189539000Y-149495447D02*
X189285000Y-149495447D01*
X195760000Y-149990000D02*
X195510000Y-149990000D01*
X195760000Y-150290000D02*
X195760000Y-149990000D01*
X196610000Y-150290000D02*
X195760000Y-150290000D01*
X196610000Y-151190000D02*
X196610000Y-150290000D01*
D11*
%TO.C,H2*%
X176662200Y-153947760D02*
X171836200Y-153947760D01*
X176662200Y-147597760D02*
X176662200Y-153947760D01*
X171836200Y-153947760D02*
X171836200Y-147597760D01*
%TO.C,H1*%
X181662200Y-153947760D02*
X176836200Y-153947760D01*
X181662200Y-147597760D02*
X181662200Y-153947760D01*
X176836200Y-153947760D02*
X176836200Y-147597760D01*
%TO.C,D2*%
X180249200Y-150977760D02*
X179249200Y-150977760D01*
X180249200Y-148977760D02*
X178249200Y-148977760D01*
%TO.C,D1*%
X175249200Y-150977760D02*
X174249200Y-150977760D01*
X175249200Y-148977760D02*
X173249200Y-148977760D01*
D13*
%TO.C,J1*%
X160590000Y-150290000D02*
X161440000Y-150290000D01*
X160590000Y-151190000D02*
X160590000Y-150290000D01*
X161440000Y-149990000D02*
X161690000Y-149990000D01*
X161440000Y-150290000D02*
X161440000Y-149990000D01*
X161690000Y-149990000D02*
X161690000Y-149850000D01*
X161760000Y-152910000D02*
X168240000Y-152910000D01*
X162085000Y-149495447D02*
X162206000Y-149595000D01*
X162206000Y-149595000D02*
X162339000Y-149495447D01*
X162339000Y-149495447D02*
X162085000Y-149495447D01*
X168560000Y-149990000D02*
X168310000Y-149990000D01*
X168560000Y-150290000D02*
X168560000Y-149990000D01*
X169410000Y-150290000D02*
X168560000Y-150290000D01*
X169410000Y-151190000D02*
X169410000Y-150290000D01*
D11*
%TO.C,H2*%
X257662200Y-144947760D02*
X252836200Y-144947760D01*
X257662200Y-138597760D02*
X257662200Y-144947760D01*
X252836200Y-144947760D02*
X252836200Y-138597760D01*
%TO.C,H1*%
X262662200Y-144947760D02*
X257836200Y-144947760D01*
X262662200Y-138597760D02*
X262662200Y-144947760D01*
X257836200Y-144947760D02*
X257836200Y-138597760D01*
%TO.C,D2*%
X261249200Y-141977760D02*
X260249200Y-141977760D01*
X261249200Y-139977760D02*
X259249200Y-139977760D01*
%TO.C,D1*%
X256249200Y-141977760D02*
X255249200Y-141977760D01*
X256249200Y-139977760D02*
X254249200Y-139977760D01*
D13*
%TO.C,J1*%
X241590000Y-141290000D02*
X242440000Y-141290000D01*
X241590000Y-142190000D02*
X241590000Y-141290000D01*
X242440000Y-140990000D02*
X242690000Y-140990000D01*
X242440000Y-141290000D02*
X242440000Y-140990000D01*
X242690000Y-140990000D02*
X242690000Y-140850000D01*
X242760000Y-143910000D02*
X249240000Y-143910000D01*
X243085000Y-140495447D02*
X243206000Y-140595000D01*
X243206000Y-140595000D02*
X243339000Y-140495447D01*
X243339000Y-140495447D02*
X243085000Y-140495447D01*
X249560000Y-140990000D02*
X249310000Y-140990000D01*
X249560000Y-141290000D02*
X249560000Y-140990000D01*
X250410000Y-141290000D02*
X249560000Y-141290000D01*
X250410000Y-142190000D02*
X250410000Y-141290000D01*
D11*
%TO.C,H2*%
X230662200Y-144947760D02*
X225836200Y-144947760D01*
X230662200Y-138597760D02*
X230662200Y-144947760D01*
X225836200Y-144947760D02*
X225836200Y-138597760D01*
%TO.C,H1*%
X235662200Y-144947760D02*
X230836200Y-144947760D01*
X235662200Y-138597760D02*
X235662200Y-144947760D01*
X230836200Y-144947760D02*
X230836200Y-138597760D01*
%TO.C,D2*%
X234249200Y-141977760D02*
X233249200Y-141977760D01*
X234249200Y-139977760D02*
X232249200Y-139977760D01*
%TO.C,D1*%
X229249200Y-141977760D02*
X228249200Y-141977760D01*
X229249200Y-139977760D02*
X227249200Y-139977760D01*
D13*
%TO.C,J1*%
X214590000Y-141290000D02*
X215440000Y-141290000D01*
X214590000Y-142190000D02*
X214590000Y-141290000D01*
X215440000Y-140990000D02*
X215690000Y-140990000D01*
X215440000Y-141290000D02*
X215440000Y-140990000D01*
X215690000Y-140990000D02*
X215690000Y-140850000D01*
X215760000Y-143910000D02*
X222240000Y-143910000D01*
X216085000Y-140495447D02*
X216206000Y-140595000D01*
X216206000Y-140595000D02*
X216339000Y-140495447D01*
X216339000Y-140495447D02*
X216085000Y-140495447D01*
X222560000Y-140990000D02*
X222310000Y-140990000D01*
X222560000Y-141290000D02*
X222560000Y-140990000D01*
X223410000Y-141290000D02*
X222560000Y-141290000D01*
X223410000Y-142190000D02*
X223410000Y-141290000D01*
D11*
%TO.C,H2*%
X203662200Y-144947760D02*
X198836200Y-144947760D01*
X203662200Y-138597760D02*
X203662200Y-144947760D01*
X198836200Y-144947760D02*
X198836200Y-138597760D01*
%TO.C,H1*%
X208662200Y-144947760D02*
X203836200Y-144947760D01*
X208662200Y-138597760D02*
X208662200Y-144947760D01*
X203836200Y-144947760D02*
X203836200Y-138597760D01*
%TO.C,D2*%
X207249200Y-141977760D02*
X206249200Y-141977760D01*
X207249200Y-139977760D02*
X205249200Y-139977760D01*
%TO.C,D1*%
X202249200Y-141977760D02*
X201249200Y-141977760D01*
X202249200Y-139977760D02*
X200249200Y-139977760D01*
D13*
%TO.C,J1*%
X187590000Y-141290000D02*
X188440000Y-141290000D01*
X187590000Y-142190000D02*
X187590000Y-141290000D01*
X188440000Y-140990000D02*
X188690000Y-140990000D01*
X188440000Y-141290000D02*
X188440000Y-140990000D01*
X188690000Y-140990000D02*
X188690000Y-140850000D01*
X188760000Y-143910000D02*
X195240000Y-143910000D01*
X189085000Y-140495447D02*
X189206000Y-140595000D01*
X189206000Y-140595000D02*
X189339000Y-140495447D01*
X189339000Y-140495447D02*
X189085000Y-140495447D01*
X195560000Y-140990000D02*
X195310000Y-140990000D01*
X195560000Y-141290000D02*
X195560000Y-140990000D01*
X196410000Y-141290000D02*
X195560000Y-141290000D01*
X196410000Y-142190000D02*
X196410000Y-141290000D01*
D11*
%TO.C,H2*%
X176662200Y-144947760D02*
X171836200Y-144947760D01*
X176662200Y-138597760D02*
X176662200Y-144947760D01*
X171836200Y-144947760D02*
X171836200Y-138597760D01*
%TO.C,H1*%
X181662200Y-144947760D02*
X176836200Y-144947760D01*
X181662200Y-138597760D02*
X181662200Y-144947760D01*
X176836200Y-144947760D02*
X176836200Y-138597760D01*
%TO.C,D2*%
X180249200Y-141977760D02*
X179249200Y-141977760D01*
X180249200Y-139977760D02*
X178249200Y-139977760D01*
%TO.C,D1*%
X175249200Y-141977760D02*
X174249200Y-141977760D01*
X175249200Y-139977760D02*
X173249200Y-139977760D01*
D13*
%TO.C,J1*%
X160590000Y-141290000D02*
X161440000Y-141290000D01*
X160590000Y-142190000D02*
X160590000Y-141290000D01*
X161440000Y-140990000D02*
X161690000Y-140990000D01*
X161440000Y-141290000D02*
X161440000Y-140990000D01*
X161690000Y-140990000D02*
X161690000Y-140850000D01*
X161760000Y-143910000D02*
X168240000Y-143910000D01*
X162085000Y-140495447D02*
X162206000Y-140595000D01*
X162206000Y-140595000D02*
X162339000Y-140495447D01*
X162339000Y-140495447D02*
X162085000Y-140495447D01*
X168560000Y-140990000D02*
X168310000Y-140990000D01*
X168560000Y-141290000D02*
X168560000Y-140990000D01*
X169410000Y-141290000D02*
X168560000Y-141290000D01*
X169410000Y-142190000D02*
X169410000Y-141290000D01*
D11*
%TO.C,H2*%
X176662200Y-135947760D02*
X171836200Y-135947760D01*
X176662200Y-129597760D02*
X176662200Y-135947760D01*
X171836200Y-135947760D02*
X171836200Y-129597760D01*
%TO.C,H1*%
X181662200Y-135947760D02*
X176836200Y-135947760D01*
X181662200Y-129597760D02*
X181662200Y-135947760D01*
X176836200Y-135947760D02*
X176836200Y-129597760D01*
%TO.C,D2*%
X180249200Y-132977760D02*
X179249200Y-132977760D01*
X180249200Y-130977760D02*
X178249200Y-130977760D01*
%TO.C,D1*%
X175249200Y-132977760D02*
X174249200Y-132977760D01*
X175249200Y-130977760D02*
X173249200Y-130977760D01*
D13*
%TO.C,J1*%
X160590000Y-132290000D02*
X161440000Y-132290000D01*
X160590000Y-133190000D02*
X160590000Y-132290000D01*
X161440000Y-131990000D02*
X161690000Y-131990000D01*
X161440000Y-132290000D02*
X161440000Y-131990000D01*
X161690000Y-131990000D02*
X161690000Y-131850000D01*
X161760000Y-134910000D02*
X168240000Y-134910000D01*
X162085000Y-131495447D02*
X162206000Y-131595000D01*
X162206000Y-131595000D02*
X162339000Y-131495447D01*
X162339000Y-131495447D02*
X162085000Y-131495447D01*
X168560000Y-131990000D02*
X168310000Y-131990000D01*
X168560000Y-132290000D02*
X168560000Y-131990000D01*
X169410000Y-132290000D02*
X168560000Y-132290000D01*
X169410000Y-133190000D02*
X169410000Y-132290000D01*
D11*
%TO.C,H2*%
X203662200Y-136147760D02*
X198836200Y-136147760D01*
X203662200Y-129797760D02*
X203662200Y-136147760D01*
X198836200Y-136147760D02*
X198836200Y-129797760D01*
%TO.C,H1*%
X208662200Y-136147760D02*
X203836200Y-136147760D01*
X208662200Y-129797760D02*
X208662200Y-136147760D01*
X203836200Y-136147760D02*
X203836200Y-129797760D01*
%TO.C,D2*%
X207249200Y-133177760D02*
X206249200Y-133177760D01*
X207249200Y-131177760D02*
X205249200Y-131177760D01*
%TO.C,D1*%
X202249200Y-133177760D02*
X201249200Y-133177760D01*
X202249200Y-131177760D02*
X200249200Y-131177760D01*
D13*
%TO.C,J1*%
X187590000Y-132490000D02*
X188440000Y-132490000D01*
X187590000Y-133390000D02*
X187590000Y-132490000D01*
X188440000Y-132190000D02*
X188690000Y-132190000D01*
X188440000Y-132490000D02*
X188440000Y-132190000D01*
X188690000Y-132190000D02*
X188690000Y-132050000D01*
X188760000Y-135110000D02*
X195240000Y-135110000D01*
X189085000Y-131695447D02*
X189206000Y-131795000D01*
X189206000Y-131795000D02*
X189339000Y-131695447D01*
X189339000Y-131695447D02*
X189085000Y-131695447D01*
X195560000Y-132190000D02*
X195310000Y-132190000D01*
X195560000Y-132490000D02*
X195560000Y-132190000D01*
X196410000Y-132490000D02*
X195560000Y-132490000D01*
X196410000Y-133390000D02*
X196410000Y-132490000D01*
D11*
%TO.C,H2*%
X230662200Y-136147760D02*
X225836200Y-136147760D01*
X230662200Y-129797760D02*
X230662200Y-136147760D01*
X225836200Y-136147760D02*
X225836200Y-129797760D01*
%TO.C,H1*%
X235662200Y-136147760D02*
X230836200Y-136147760D01*
X235662200Y-129797760D02*
X235662200Y-136147760D01*
X230836200Y-136147760D02*
X230836200Y-129797760D01*
%TO.C,D2*%
X234249200Y-133177760D02*
X233249200Y-133177760D01*
X234249200Y-131177760D02*
X232249200Y-131177760D01*
%TO.C,D1*%
X229249200Y-133177760D02*
X228249200Y-133177760D01*
X229249200Y-131177760D02*
X227249200Y-131177760D01*
D13*
%TO.C,J1*%
X214590000Y-132490000D02*
X215440000Y-132490000D01*
X214590000Y-133390000D02*
X214590000Y-132490000D01*
X215440000Y-132190000D02*
X215690000Y-132190000D01*
X215440000Y-132490000D02*
X215440000Y-132190000D01*
X215690000Y-132190000D02*
X215690000Y-132050000D01*
X215760000Y-135110000D02*
X222240000Y-135110000D01*
X216085000Y-131695447D02*
X216206000Y-131795000D01*
X216206000Y-131795000D02*
X216339000Y-131695447D01*
X216339000Y-131695447D02*
X216085000Y-131695447D01*
X222560000Y-132190000D02*
X222310000Y-132190000D01*
X222560000Y-132490000D02*
X222560000Y-132190000D01*
X223410000Y-132490000D02*
X222560000Y-132490000D01*
X223410000Y-133390000D02*
X223410000Y-132490000D01*
D11*
%TO.C,H2*%
X257662200Y-136147760D02*
X252836200Y-136147760D01*
X257662200Y-129797760D02*
X257662200Y-136147760D01*
X252836200Y-136147760D02*
X252836200Y-129797760D01*
%TO.C,H1*%
X262662200Y-136147760D02*
X257836200Y-136147760D01*
X262662200Y-129797760D02*
X262662200Y-136147760D01*
X257836200Y-136147760D02*
X257836200Y-129797760D01*
%TO.C,D2*%
X261249200Y-133177760D02*
X260249200Y-133177760D01*
X261249200Y-131177760D02*
X259249200Y-131177760D01*
%TO.C,D1*%
X256249200Y-133177760D02*
X255249200Y-133177760D01*
X256249200Y-131177760D02*
X254249200Y-131177760D01*
D13*
%TO.C,J1*%
X241590000Y-132490000D02*
X242440000Y-132490000D01*
X241590000Y-133390000D02*
X241590000Y-132490000D01*
X242440000Y-132190000D02*
X242690000Y-132190000D01*
X242440000Y-132490000D02*
X242440000Y-132190000D01*
X242690000Y-132190000D02*
X242690000Y-132050000D01*
X242760000Y-135110000D02*
X249240000Y-135110000D01*
X243085000Y-131695447D02*
X243206000Y-131795000D01*
X243206000Y-131795000D02*
X243339000Y-131695447D01*
X243339000Y-131695447D02*
X243085000Y-131695447D01*
X249560000Y-132190000D02*
X249310000Y-132190000D01*
X249560000Y-132490000D02*
X249560000Y-132190000D01*
X250410000Y-132490000D02*
X249560000Y-132490000D01*
X250410000Y-133390000D02*
X250410000Y-132490000D01*
D11*
%TO.C,H2*%
X257662200Y-126947760D02*
X252836200Y-126947760D01*
X257662200Y-120597760D02*
X257662200Y-126947760D01*
X252836200Y-126947760D02*
X252836200Y-120597760D01*
%TO.C,H1*%
X262662200Y-126947760D02*
X257836200Y-126947760D01*
X262662200Y-120597760D02*
X262662200Y-126947760D01*
X257836200Y-126947760D02*
X257836200Y-120597760D01*
%TO.C,D2*%
X261249200Y-123977760D02*
X260249200Y-123977760D01*
X261249200Y-121977760D02*
X259249200Y-121977760D01*
%TO.C,D1*%
X256249200Y-123977760D02*
X255249200Y-123977760D01*
X256249200Y-121977760D02*
X254249200Y-121977760D01*
D13*
%TO.C,J1*%
X241590000Y-123290000D02*
X242440000Y-123290000D01*
X241590000Y-124190000D02*
X241590000Y-123290000D01*
X242440000Y-122990000D02*
X242690000Y-122990000D01*
X242440000Y-123290000D02*
X242440000Y-122990000D01*
X242690000Y-122990000D02*
X242690000Y-122850000D01*
X242760000Y-125910000D02*
X249240000Y-125910000D01*
X243085000Y-122495447D02*
X243206000Y-122595000D01*
X243206000Y-122595000D02*
X243339000Y-122495447D01*
X243339000Y-122495447D02*
X243085000Y-122495447D01*
X249560000Y-122990000D02*
X249310000Y-122990000D01*
X249560000Y-123290000D02*
X249560000Y-122990000D01*
X250410000Y-123290000D02*
X249560000Y-123290000D01*
X250410000Y-124190000D02*
X250410000Y-123290000D01*
D11*
%TO.C,H2*%
X230662200Y-126947760D02*
X225836200Y-126947760D01*
X230662200Y-120597760D02*
X230662200Y-126947760D01*
X225836200Y-126947760D02*
X225836200Y-120597760D01*
%TO.C,H1*%
X235662200Y-126947760D02*
X230836200Y-126947760D01*
X235662200Y-120597760D02*
X235662200Y-126947760D01*
X230836200Y-126947760D02*
X230836200Y-120597760D01*
%TO.C,D2*%
X234249200Y-123977760D02*
X233249200Y-123977760D01*
X234249200Y-121977760D02*
X232249200Y-121977760D01*
%TO.C,D1*%
X229249200Y-123977760D02*
X228249200Y-123977760D01*
X229249200Y-121977760D02*
X227249200Y-121977760D01*
D13*
%TO.C,J1*%
X214590000Y-123290000D02*
X215440000Y-123290000D01*
X214590000Y-124190000D02*
X214590000Y-123290000D01*
X215440000Y-122990000D02*
X215690000Y-122990000D01*
X215440000Y-123290000D02*
X215440000Y-122990000D01*
X215690000Y-122990000D02*
X215690000Y-122850000D01*
X215760000Y-125910000D02*
X222240000Y-125910000D01*
X216085000Y-122495447D02*
X216206000Y-122595000D01*
X216206000Y-122595000D02*
X216339000Y-122495447D01*
X216339000Y-122495447D02*
X216085000Y-122495447D01*
X222560000Y-122990000D02*
X222310000Y-122990000D01*
X222560000Y-123290000D02*
X222560000Y-122990000D01*
X223410000Y-123290000D02*
X222560000Y-123290000D01*
X223410000Y-124190000D02*
X223410000Y-123290000D01*
D11*
%TO.C,H2*%
X203662200Y-126947760D02*
X198836200Y-126947760D01*
X203662200Y-120597760D02*
X203662200Y-126947760D01*
X198836200Y-126947760D02*
X198836200Y-120597760D01*
%TO.C,H1*%
X208662200Y-126947760D02*
X203836200Y-126947760D01*
X208662200Y-120597760D02*
X208662200Y-126947760D01*
X203836200Y-126947760D02*
X203836200Y-120597760D01*
%TO.C,D2*%
X207249200Y-123977760D02*
X206249200Y-123977760D01*
X207249200Y-121977760D02*
X205249200Y-121977760D01*
%TO.C,D1*%
X202249200Y-123977760D02*
X201249200Y-123977760D01*
X202249200Y-121977760D02*
X200249200Y-121977760D01*
D13*
%TO.C,J1*%
X187590000Y-123290000D02*
X188440000Y-123290000D01*
X187590000Y-124190000D02*
X187590000Y-123290000D01*
X188440000Y-122990000D02*
X188690000Y-122990000D01*
X188440000Y-123290000D02*
X188440000Y-122990000D01*
X188690000Y-122990000D02*
X188690000Y-122850000D01*
X188760000Y-125910000D02*
X195240000Y-125910000D01*
X189085000Y-122495447D02*
X189206000Y-122595000D01*
X189206000Y-122595000D02*
X189339000Y-122495447D01*
X189339000Y-122495447D02*
X189085000Y-122495447D01*
X195560000Y-122990000D02*
X195310000Y-122990000D01*
X195560000Y-123290000D02*
X195560000Y-122990000D01*
X196410000Y-123290000D02*
X195560000Y-123290000D01*
X196410000Y-124190000D02*
X196410000Y-123290000D01*
D11*
%TO.C,D2*%
X180249200Y-123977760D02*
X179249200Y-123977760D01*
X180249200Y-121977760D02*
X178249200Y-121977760D01*
%TO.C,D1*%
X175249200Y-121977760D02*
X173249200Y-121977760D01*
X175249200Y-123977760D02*
X174249200Y-123977760D01*
%TO.C,H1*%
X181662200Y-126947760D02*
X176836200Y-126947760D01*
X181662200Y-120597760D02*
X181662200Y-126947760D01*
X176836200Y-126947760D02*
X176836200Y-120597760D01*
D13*
%TO.C,J1*%
X160590000Y-123290000D02*
X161440000Y-123290000D01*
X160590000Y-124190000D02*
X160590000Y-123290000D01*
X161440000Y-122990000D02*
X161690000Y-122990000D01*
X161440000Y-123290000D02*
X161440000Y-122990000D01*
X161690000Y-122990000D02*
X161690000Y-122850000D01*
X161760000Y-125910000D02*
X168240000Y-125910000D01*
X162085000Y-122495447D02*
X162206000Y-122595000D01*
X162206000Y-122595000D02*
X162339000Y-122495447D01*
X162339000Y-122495447D02*
X162085000Y-122495447D01*
X168560000Y-122990000D02*
X168310000Y-122990000D01*
X168560000Y-123290000D02*
X168560000Y-122990000D01*
X169410000Y-123290000D02*
X168560000Y-123290000D01*
X169410000Y-124190000D02*
X169410000Y-123290000D01*
D11*
%TO.C,H2*%
X176662200Y-126947760D02*
X171836200Y-126947760D01*
X176662200Y-120597760D02*
X176662200Y-126947760D01*
X171836200Y-126947760D02*
X171836200Y-120597760D01*
%TD*%
M02*
