%TF.GenerationSoftware,KiCad,Pcbnew,(7.0.0)*%
%TF.CreationDate,2023-04-04T09:59:10-04:00*%
%TF.ProjectId,bracket-led,62726163-6b65-4742-9d6c-65642e6b6963,A*%
%TF.SameCoordinates,Original*%
%TF.FileFunction,Soldermask,Top*%
%TF.FilePolarity,Negative*%
%FSLAX46Y46*%
G04 Gerber Fmt 4.6, Leading zero omitted, Abs format (unit mm)*
G04 Created by KiCad (PCBNEW (7.0.0)) date 2023-04-04 09:59:10*
%MOMM*%
%LPD*%
G01*
G04 APERTURE LIST*
G04 Aperture macros list*
%AMRoundRect*
0 Rectangle with rounded corners*
0 $1 Rounding radius*
0 $2 $3 $4 $5 $6 $7 $8 $9 X,Y pos of 4 corners*
0 Add a 4 corners polygon primitive as box body*
4,1,4,$2,$3,$4,$5,$6,$7,$8,$9,$2,$3,0*
0 Add four circle primitives for the rounded corners*
1,1,$1+$1,$2,$3*
1,1,$1+$1,$4,$5*
1,1,$1+$1,$6,$7*
1,1,$1+$1,$8,$9*
0 Add four rect primitives between the rounded corners*
20,1,$1+$1,$2,$3,$4,$5,0*
20,1,$1+$1,$4,$5,$6,$7,0*
20,1,$1+$1,$6,$7,$8,$9,0*
20,1,$1+$1,$8,$9,$2,$3,0*%
G04 Aperture macros list end*
%ADD10C,0.125000*%
%ADD11C,1.168400*%
%ADD12R,0.550000X0.400000*%
%ADD13R,0.700000X0.500000*%
%ADD14RoundRect,0.125000X-0.125000X-0.375000X0.125000X-0.375000X0.125000X0.375000X-0.125000X0.375000X0*%
%ADD15RoundRect,0.250000X-0.350000X-0.600000X0.350000X-0.600000X0.350000X0.600000X-0.350000X0.600000X0*%
%ADD16C,2.000000*%
G04 APERTURE END LIST*
D10*
X183991190Y-170095238D02*
X183753095Y-170261904D01*
X183991190Y-170380952D02*
X183491190Y-170380952D01*
X183491190Y-170380952D02*
X183491190Y-170190476D01*
X183491190Y-170190476D02*
X183515000Y-170142857D01*
X183515000Y-170142857D02*
X183538809Y-170119047D01*
X183538809Y-170119047D02*
X183586428Y-170095238D01*
X183586428Y-170095238D02*
X183657857Y-170095238D01*
X183657857Y-170095238D02*
X183705476Y-170119047D01*
X183705476Y-170119047D02*
X183729285Y-170142857D01*
X183729285Y-170142857D02*
X183753095Y-170190476D01*
X183753095Y-170190476D02*
X183753095Y-170380952D01*
X183967380Y-169690476D02*
X183991190Y-169738095D01*
X183991190Y-169738095D02*
X183991190Y-169833333D01*
X183991190Y-169833333D02*
X183967380Y-169880952D01*
X183967380Y-169880952D02*
X183919761Y-169904761D01*
X183919761Y-169904761D02*
X183729285Y-169904761D01*
X183729285Y-169904761D02*
X183681666Y-169880952D01*
X183681666Y-169880952D02*
X183657857Y-169833333D01*
X183657857Y-169833333D02*
X183657857Y-169738095D01*
X183657857Y-169738095D02*
X183681666Y-169690476D01*
X183681666Y-169690476D02*
X183729285Y-169666666D01*
X183729285Y-169666666D02*
X183776904Y-169666666D01*
X183776904Y-169666666D02*
X183824523Y-169904761D01*
X183657857Y-169500000D02*
X183991190Y-169380952D01*
X183991190Y-169380952D02*
X183657857Y-169261905D01*
X183943571Y-169071429D02*
X183967380Y-169047619D01*
X183967380Y-169047619D02*
X183991190Y-169071429D01*
X183991190Y-169071429D02*
X183967380Y-169095238D01*
X183967380Y-169095238D02*
X183943571Y-169071429D01*
X183943571Y-169071429D02*
X183991190Y-169071429D01*
X183848333Y-168557143D02*
X183848333Y-168319048D01*
X183991190Y-168604762D02*
X183491190Y-168438096D01*
X183491190Y-168438096D02*
X183991190Y-168271429D01*
X210991190Y-170095238D02*
X210753095Y-170261904D01*
X210991190Y-170380952D02*
X210491190Y-170380952D01*
X210491190Y-170380952D02*
X210491190Y-170190476D01*
X210491190Y-170190476D02*
X210515000Y-170142857D01*
X210515000Y-170142857D02*
X210538809Y-170119047D01*
X210538809Y-170119047D02*
X210586428Y-170095238D01*
X210586428Y-170095238D02*
X210657857Y-170095238D01*
X210657857Y-170095238D02*
X210705476Y-170119047D01*
X210705476Y-170119047D02*
X210729285Y-170142857D01*
X210729285Y-170142857D02*
X210753095Y-170190476D01*
X210753095Y-170190476D02*
X210753095Y-170380952D01*
X210967380Y-169690476D02*
X210991190Y-169738095D01*
X210991190Y-169738095D02*
X210991190Y-169833333D01*
X210991190Y-169833333D02*
X210967380Y-169880952D01*
X210967380Y-169880952D02*
X210919761Y-169904761D01*
X210919761Y-169904761D02*
X210729285Y-169904761D01*
X210729285Y-169904761D02*
X210681666Y-169880952D01*
X210681666Y-169880952D02*
X210657857Y-169833333D01*
X210657857Y-169833333D02*
X210657857Y-169738095D01*
X210657857Y-169738095D02*
X210681666Y-169690476D01*
X210681666Y-169690476D02*
X210729285Y-169666666D01*
X210729285Y-169666666D02*
X210776904Y-169666666D01*
X210776904Y-169666666D02*
X210824523Y-169904761D01*
X210657857Y-169500000D02*
X210991190Y-169380952D01*
X210991190Y-169380952D02*
X210657857Y-169261905D01*
X210943571Y-169071429D02*
X210967380Y-169047619D01*
X210967380Y-169047619D02*
X210991190Y-169071429D01*
X210991190Y-169071429D02*
X210967380Y-169095238D01*
X210967380Y-169095238D02*
X210943571Y-169071429D01*
X210943571Y-169071429D02*
X210991190Y-169071429D01*
X210848333Y-168557143D02*
X210848333Y-168319048D01*
X210991190Y-168604762D02*
X210491190Y-168438096D01*
X210491190Y-168438096D02*
X210991190Y-168271429D01*
X237991190Y-125095238D02*
X237753095Y-125261904D01*
X237991190Y-125380952D02*
X237491190Y-125380952D01*
X237491190Y-125380952D02*
X237491190Y-125190476D01*
X237491190Y-125190476D02*
X237515000Y-125142857D01*
X237515000Y-125142857D02*
X237538809Y-125119047D01*
X237538809Y-125119047D02*
X237586428Y-125095238D01*
X237586428Y-125095238D02*
X237657857Y-125095238D01*
X237657857Y-125095238D02*
X237705476Y-125119047D01*
X237705476Y-125119047D02*
X237729285Y-125142857D01*
X237729285Y-125142857D02*
X237753095Y-125190476D01*
X237753095Y-125190476D02*
X237753095Y-125380952D01*
X237967380Y-124690476D02*
X237991190Y-124738095D01*
X237991190Y-124738095D02*
X237991190Y-124833333D01*
X237991190Y-124833333D02*
X237967380Y-124880952D01*
X237967380Y-124880952D02*
X237919761Y-124904761D01*
X237919761Y-124904761D02*
X237729285Y-124904761D01*
X237729285Y-124904761D02*
X237681666Y-124880952D01*
X237681666Y-124880952D02*
X237657857Y-124833333D01*
X237657857Y-124833333D02*
X237657857Y-124738095D01*
X237657857Y-124738095D02*
X237681666Y-124690476D01*
X237681666Y-124690476D02*
X237729285Y-124666666D01*
X237729285Y-124666666D02*
X237776904Y-124666666D01*
X237776904Y-124666666D02*
X237824523Y-124904761D01*
X237657857Y-124500000D02*
X237991190Y-124380952D01*
X237991190Y-124380952D02*
X237657857Y-124261905D01*
X237943571Y-124071429D02*
X237967380Y-124047619D01*
X237967380Y-124047619D02*
X237991190Y-124071429D01*
X237991190Y-124071429D02*
X237967380Y-124095238D01*
X237967380Y-124095238D02*
X237943571Y-124071429D01*
X237943571Y-124071429D02*
X237991190Y-124071429D01*
X237848333Y-123557143D02*
X237848333Y-123319048D01*
X237991190Y-123604762D02*
X237491190Y-123438096D01*
X237491190Y-123438096D02*
X237991190Y-123271429D01*
X210991190Y-125095238D02*
X210753095Y-125261904D01*
X210991190Y-125380952D02*
X210491190Y-125380952D01*
X210491190Y-125380952D02*
X210491190Y-125190476D01*
X210491190Y-125190476D02*
X210515000Y-125142857D01*
X210515000Y-125142857D02*
X210538809Y-125119047D01*
X210538809Y-125119047D02*
X210586428Y-125095238D01*
X210586428Y-125095238D02*
X210657857Y-125095238D01*
X210657857Y-125095238D02*
X210705476Y-125119047D01*
X210705476Y-125119047D02*
X210729285Y-125142857D01*
X210729285Y-125142857D02*
X210753095Y-125190476D01*
X210753095Y-125190476D02*
X210753095Y-125380952D01*
X210967380Y-124690476D02*
X210991190Y-124738095D01*
X210991190Y-124738095D02*
X210991190Y-124833333D01*
X210991190Y-124833333D02*
X210967380Y-124880952D01*
X210967380Y-124880952D02*
X210919761Y-124904761D01*
X210919761Y-124904761D02*
X210729285Y-124904761D01*
X210729285Y-124904761D02*
X210681666Y-124880952D01*
X210681666Y-124880952D02*
X210657857Y-124833333D01*
X210657857Y-124833333D02*
X210657857Y-124738095D01*
X210657857Y-124738095D02*
X210681666Y-124690476D01*
X210681666Y-124690476D02*
X210729285Y-124666666D01*
X210729285Y-124666666D02*
X210776904Y-124666666D01*
X210776904Y-124666666D02*
X210824523Y-124904761D01*
X210657857Y-124500000D02*
X210991190Y-124380952D01*
X210991190Y-124380952D02*
X210657857Y-124261905D01*
X210943571Y-124071429D02*
X210967380Y-124047619D01*
X210967380Y-124047619D02*
X210991190Y-124071429D01*
X210991190Y-124071429D02*
X210967380Y-124095238D01*
X210967380Y-124095238D02*
X210943571Y-124071429D01*
X210943571Y-124071429D02*
X210991190Y-124071429D01*
X210848333Y-123557143D02*
X210848333Y-123319048D01*
X210991190Y-123604762D02*
X210491190Y-123438096D01*
X210491190Y-123438096D02*
X210991190Y-123271429D01*
X237991190Y-134095238D02*
X237753095Y-134261904D01*
X237991190Y-134380952D02*
X237491190Y-134380952D01*
X237491190Y-134380952D02*
X237491190Y-134190476D01*
X237491190Y-134190476D02*
X237515000Y-134142857D01*
X237515000Y-134142857D02*
X237538809Y-134119047D01*
X237538809Y-134119047D02*
X237586428Y-134095238D01*
X237586428Y-134095238D02*
X237657857Y-134095238D01*
X237657857Y-134095238D02*
X237705476Y-134119047D01*
X237705476Y-134119047D02*
X237729285Y-134142857D01*
X237729285Y-134142857D02*
X237753095Y-134190476D01*
X237753095Y-134190476D02*
X237753095Y-134380952D01*
X237967380Y-133690476D02*
X237991190Y-133738095D01*
X237991190Y-133738095D02*
X237991190Y-133833333D01*
X237991190Y-133833333D02*
X237967380Y-133880952D01*
X237967380Y-133880952D02*
X237919761Y-133904761D01*
X237919761Y-133904761D02*
X237729285Y-133904761D01*
X237729285Y-133904761D02*
X237681666Y-133880952D01*
X237681666Y-133880952D02*
X237657857Y-133833333D01*
X237657857Y-133833333D02*
X237657857Y-133738095D01*
X237657857Y-133738095D02*
X237681666Y-133690476D01*
X237681666Y-133690476D02*
X237729285Y-133666666D01*
X237729285Y-133666666D02*
X237776904Y-133666666D01*
X237776904Y-133666666D02*
X237824523Y-133904761D01*
X237657857Y-133500000D02*
X237991190Y-133380952D01*
X237991190Y-133380952D02*
X237657857Y-133261905D01*
X237943571Y-133071429D02*
X237967380Y-133047619D01*
X237967380Y-133047619D02*
X237991190Y-133071429D01*
X237991190Y-133071429D02*
X237967380Y-133095238D01*
X237967380Y-133095238D02*
X237943571Y-133071429D01*
X237943571Y-133071429D02*
X237991190Y-133071429D01*
X237848333Y-132557143D02*
X237848333Y-132319048D01*
X237991190Y-132604762D02*
X237491190Y-132438096D01*
X237491190Y-132438096D02*
X237991190Y-132271429D01*
X264991190Y-125095238D02*
X264753095Y-125261904D01*
X264991190Y-125380952D02*
X264491190Y-125380952D01*
X264491190Y-125380952D02*
X264491190Y-125190476D01*
X264491190Y-125190476D02*
X264515000Y-125142857D01*
X264515000Y-125142857D02*
X264538809Y-125119047D01*
X264538809Y-125119047D02*
X264586428Y-125095238D01*
X264586428Y-125095238D02*
X264657857Y-125095238D01*
X264657857Y-125095238D02*
X264705476Y-125119047D01*
X264705476Y-125119047D02*
X264729285Y-125142857D01*
X264729285Y-125142857D02*
X264753095Y-125190476D01*
X264753095Y-125190476D02*
X264753095Y-125380952D01*
X264967380Y-124690476D02*
X264991190Y-124738095D01*
X264991190Y-124738095D02*
X264991190Y-124833333D01*
X264991190Y-124833333D02*
X264967380Y-124880952D01*
X264967380Y-124880952D02*
X264919761Y-124904761D01*
X264919761Y-124904761D02*
X264729285Y-124904761D01*
X264729285Y-124904761D02*
X264681666Y-124880952D01*
X264681666Y-124880952D02*
X264657857Y-124833333D01*
X264657857Y-124833333D02*
X264657857Y-124738095D01*
X264657857Y-124738095D02*
X264681666Y-124690476D01*
X264681666Y-124690476D02*
X264729285Y-124666666D01*
X264729285Y-124666666D02*
X264776904Y-124666666D01*
X264776904Y-124666666D02*
X264824523Y-124904761D01*
X264657857Y-124500000D02*
X264991190Y-124380952D01*
X264991190Y-124380952D02*
X264657857Y-124261905D01*
X264943571Y-124071429D02*
X264967380Y-124047619D01*
X264967380Y-124047619D02*
X264991190Y-124071429D01*
X264991190Y-124071429D02*
X264967380Y-124095238D01*
X264967380Y-124095238D02*
X264943571Y-124071429D01*
X264943571Y-124071429D02*
X264991190Y-124071429D01*
X264848333Y-123557143D02*
X264848333Y-123319048D01*
X264991190Y-123604762D02*
X264491190Y-123438096D01*
X264491190Y-123438096D02*
X264991190Y-123271429D01*
X264991190Y-134095238D02*
X264753095Y-134261904D01*
X264991190Y-134380952D02*
X264491190Y-134380952D01*
X264491190Y-134380952D02*
X264491190Y-134190476D01*
X264491190Y-134190476D02*
X264515000Y-134142857D01*
X264515000Y-134142857D02*
X264538809Y-134119047D01*
X264538809Y-134119047D02*
X264586428Y-134095238D01*
X264586428Y-134095238D02*
X264657857Y-134095238D01*
X264657857Y-134095238D02*
X264705476Y-134119047D01*
X264705476Y-134119047D02*
X264729285Y-134142857D01*
X264729285Y-134142857D02*
X264753095Y-134190476D01*
X264753095Y-134190476D02*
X264753095Y-134380952D01*
X264967380Y-133690476D02*
X264991190Y-133738095D01*
X264991190Y-133738095D02*
X264991190Y-133833333D01*
X264991190Y-133833333D02*
X264967380Y-133880952D01*
X264967380Y-133880952D02*
X264919761Y-133904761D01*
X264919761Y-133904761D02*
X264729285Y-133904761D01*
X264729285Y-133904761D02*
X264681666Y-133880952D01*
X264681666Y-133880952D02*
X264657857Y-133833333D01*
X264657857Y-133833333D02*
X264657857Y-133738095D01*
X264657857Y-133738095D02*
X264681666Y-133690476D01*
X264681666Y-133690476D02*
X264729285Y-133666666D01*
X264729285Y-133666666D02*
X264776904Y-133666666D01*
X264776904Y-133666666D02*
X264824523Y-133904761D01*
X264657857Y-133500000D02*
X264991190Y-133380952D01*
X264991190Y-133380952D02*
X264657857Y-133261905D01*
X264943571Y-133071429D02*
X264967380Y-133047619D01*
X264967380Y-133047619D02*
X264991190Y-133071429D01*
X264991190Y-133071429D02*
X264967380Y-133095238D01*
X264967380Y-133095238D02*
X264943571Y-133071429D01*
X264943571Y-133071429D02*
X264991190Y-133071429D01*
X264848333Y-132557143D02*
X264848333Y-132319048D01*
X264991190Y-132604762D02*
X264491190Y-132438096D01*
X264491190Y-132438096D02*
X264991190Y-132271429D01*
X183991190Y-125095238D02*
X183753095Y-125261904D01*
X183991190Y-125380952D02*
X183491190Y-125380952D01*
X183491190Y-125380952D02*
X183491190Y-125190476D01*
X183491190Y-125190476D02*
X183515000Y-125142857D01*
X183515000Y-125142857D02*
X183538809Y-125119047D01*
X183538809Y-125119047D02*
X183586428Y-125095238D01*
X183586428Y-125095238D02*
X183657857Y-125095238D01*
X183657857Y-125095238D02*
X183705476Y-125119047D01*
X183705476Y-125119047D02*
X183729285Y-125142857D01*
X183729285Y-125142857D02*
X183753095Y-125190476D01*
X183753095Y-125190476D02*
X183753095Y-125380952D01*
X183967380Y-124690476D02*
X183991190Y-124738095D01*
X183991190Y-124738095D02*
X183991190Y-124833333D01*
X183991190Y-124833333D02*
X183967380Y-124880952D01*
X183967380Y-124880952D02*
X183919761Y-124904761D01*
X183919761Y-124904761D02*
X183729285Y-124904761D01*
X183729285Y-124904761D02*
X183681666Y-124880952D01*
X183681666Y-124880952D02*
X183657857Y-124833333D01*
X183657857Y-124833333D02*
X183657857Y-124738095D01*
X183657857Y-124738095D02*
X183681666Y-124690476D01*
X183681666Y-124690476D02*
X183729285Y-124666666D01*
X183729285Y-124666666D02*
X183776904Y-124666666D01*
X183776904Y-124666666D02*
X183824523Y-124904761D01*
X183657857Y-124500000D02*
X183991190Y-124380952D01*
X183991190Y-124380952D02*
X183657857Y-124261905D01*
X183943571Y-124071429D02*
X183967380Y-124047619D01*
X183967380Y-124047619D02*
X183991190Y-124071429D01*
X183991190Y-124071429D02*
X183967380Y-124095238D01*
X183967380Y-124095238D02*
X183943571Y-124071429D01*
X183943571Y-124071429D02*
X183991190Y-124071429D01*
X183848333Y-123557143D02*
X183848333Y-123319048D01*
X183991190Y-123604762D02*
X183491190Y-123438096D01*
X183491190Y-123438096D02*
X183991190Y-123271429D01*
X183991190Y-143095238D02*
X183753095Y-143261904D01*
X183991190Y-143380952D02*
X183491190Y-143380952D01*
X183491190Y-143380952D02*
X183491190Y-143190476D01*
X183491190Y-143190476D02*
X183515000Y-143142857D01*
X183515000Y-143142857D02*
X183538809Y-143119047D01*
X183538809Y-143119047D02*
X183586428Y-143095238D01*
X183586428Y-143095238D02*
X183657857Y-143095238D01*
X183657857Y-143095238D02*
X183705476Y-143119047D01*
X183705476Y-143119047D02*
X183729285Y-143142857D01*
X183729285Y-143142857D02*
X183753095Y-143190476D01*
X183753095Y-143190476D02*
X183753095Y-143380952D01*
X183967380Y-142690476D02*
X183991190Y-142738095D01*
X183991190Y-142738095D02*
X183991190Y-142833333D01*
X183991190Y-142833333D02*
X183967380Y-142880952D01*
X183967380Y-142880952D02*
X183919761Y-142904761D01*
X183919761Y-142904761D02*
X183729285Y-142904761D01*
X183729285Y-142904761D02*
X183681666Y-142880952D01*
X183681666Y-142880952D02*
X183657857Y-142833333D01*
X183657857Y-142833333D02*
X183657857Y-142738095D01*
X183657857Y-142738095D02*
X183681666Y-142690476D01*
X183681666Y-142690476D02*
X183729285Y-142666666D01*
X183729285Y-142666666D02*
X183776904Y-142666666D01*
X183776904Y-142666666D02*
X183824523Y-142904761D01*
X183657857Y-142500000D02*
X183991190Y-142380952D01*
X183991190Y-142380952D02*
X183657857Y-142261905D01*
X183943571Y-142071429D02*
X183967380Y-142047619D01*
X183967380Y-142047619D02*
X183991190Y-142071429D01*
X183991190Y-142071429D02*
X183967380Y-142095238D01*
X183967380Y-142095238D02*
X183943571Y-142071429D01*
X183943571Y-142071429D02*
X183991190Y-142071429D01*
X183848333Y-141557143D02*
X183848333Y-141319048D01*
X183991190Y-141604762D02*
X183491190Y-141438096D01*
X183491190Y-141438096D02*
X183991190Y-141271429D01*
X264991190Y-143095238D02*
X264753095Y-143261904D01*
X264991190Y-143380952D02*
X264491190Y-143380952D01*
X264491190Y-143380952D02*
X264491190Y-143190476D01*
X264491190Y-143190476D02*
X264515000Y-143142857D01*
X264515000Y-143142857D02*
X264538809Y-143119047D01*
X264538809Y-143119047D02*
X264586428Y-143095238D01*
X264586428Y-143095238D02*
X264657857Y-143095238D01*
X264657857Y-143095238D02*
X264705476Y-143119047D01*
X264705476Y-143119047D02*
X264729285Y-143142857D01*
X264729285Y-143142857D02*
X264753095Y-143190476D01*
X264753095Y-143190476D02*
X264753095Y-143380952D01*
X264967380Y-142690476D02*
X264991190Y-142738095D01*
X264991190Y-142738095D02*
X264991190Y-142833333D01*
X264991190Y-142833333D02*
X264967380Y-142880952D01*
X264967380Y-142880952D02*
X264919761Y-142904761D01*
X264919761Y-142904761D02*
X264729285Y-142904761D01*
X264729285Y-142904761D02*
X264681666Y-142880952D01*
X264681666Y-142880952D02*
X264657857Y-142833333D01*
X264657857Y-142833333D02*
X264657857Y-142738095D01*
X264657857Y-142738095D02*
X264681666Y-142690476D01*
X264681666Y-142690476D02*
X264729285Y-142666666D01*
X264729285Y-142666666D02*
X264776904Y-142666666D01*
X264776904Y-142666666D02*
X264824523Y-142904761D01*
X264657857Y-142500000D02*
X264991190Y-142380952D01*
X264991190Y-142380952D02*
X264657857Y-142261905D01*
X264943571Y-142071429D02*
X264967380Y-142047619D01*
X264967380Y-142047619D02*
X264991190Y-142071429D01*
X264991190Y-142071429D02*
X264967380Y-142095238D01*
X264967380Y-142095238D02*
X264943571Y-142071429D01*
X264943571Y-142071429D02*
X264991190Y-142071429D01*
X264848333Y-141557143D02*
X264848333Y-141319048D01*
X264991190Y-141604762D02*
X264491190Y-141438096D01*
X264491190Y-141438096D02*
X264991190Y-141271429D01*
X210991190Y-152095238D02*
X210753095Y-152261904D01*
X210991190Y-152380952D02*
X210491190Y-152380952D01*
X210491190Y-152380952D02*
X210491190Y-152190476D01*
X210491190Y-152190476D02*
X210515000Y-152142857D01*
X210515000Y-152142857D02*
X210538809Y-152119047D01*
X210538809Y-152119047D02*
X210586428Y-152095238D01*
X210586428Y-152095238D02*
X210657857Y-152095238D01*
X210657857Y-152095238D02*
X210705476Y-152119047D01*
X210705476Y-152119047D02*
X210729285Y-152142857D01*
X210729285Y-152142857D02*
X210753095Y-152190476D01*
X210753095Y-152190476D02*
X210753095Y-152380952D01*
X210967380Y-151690476D02*
X210991190Y-151738095D01*
X210991190Y-151738095D02*
X210991190Y-151833333D01*
X210991190Y-151833333D02*
X210967380Y-151880952D01*
X210967380Y-151880952D02*
X210919761Y-151904761D01*
X210919761Y-151904761D02*
X210729285Y-151904761D01*
X210729285Y-151904761D02*
X210681666Y-151880952D01*
X210681666Y-151880952D02*
X210657857Y-151833333D01*
X210657857Y-151833333D02*
X210657857Y-151738095D01*
X210657857Y-151738095D02*
X210681666Y-151690476D01*
X210681666Y-151690476D02*
X210729285Y-151666666D01*
X210729285Y-151666666D02*
X210776904Y-151666666D01*
X210776904Y-151666666D02*
X210824523Y-151904761D01*
X210657857Y-151500000D02*
X210991190Y-151380952D01*
X210991190Y-151380952D02*
X210657857Y-151261905D01*
X210943571Y-151071429D02*
X210967380Y-151047619D01*
X210967380Y-151047619D02*
X210991190Y-151071429D01*
X210991190Y-151071429D02*
X210967380Y-151095238D01*
X210967380Y-151095238D02*
X210943571Y-151071429D01*
X210943571Y-151071429D02*
X210991190Y-151071429D01*
X210848333Y-150557143D02*
X210848333Y-150319048D01*
X210991190Y-150604762D02*
X210491190Y-150438096D01*
X210491190Y-150438096D02*
X210991190Y-150271429D01*
X210991190Y-143095238D02*
X210753095Y-143261904D01*
X210991190Y-143380952D02*
X210491190Y-143380952D01*
X210491190Y-143380952D02*
X210491190Y-143190476D01*
X210491190Y-143190476D02*
X210515000Y-143142857D01*
X210515000Y-143142857D02*
X210538809Y-143119047D01*
X210538809Y-143119047D02*
X210586428Y-143095238D01*
X210586428Y-143095238D02*
X210657857Y-143095238D01*
X210657857Y-143095238D02*
X210705476Y-143119047D01*
X210705476Y-143119047D02*
X210729285Y-143142857D01*
X210729285Y-143142857D02*
X210753095Y-143190476D01*
X210753095Y-143190476D02*
X210753095Y-143380952D01*
X210967380Y-142690476D02*
X210991190Y-142738095D01*
X210991190Y-142738095D02*
X210991190Y-142833333D01*
X210991190Y-142833333D02*
X210967380Y-142880952D01*
X210967380Y-142880952D02*
X210919761Y-142904761D01*
X210919761Y-142904761D02*
X210729285Y-142904761D01*
X210729285Y-142904761D02*
X210681666Y-142880952D01*
X210681666Y-142880952D02*
X210657857Y-142833333D01*
X210657857Y-142833333D02*
X210657857Y-142738095D01*
X210657857Y-142738095D02*
X210681666Y-142690476D01*
X210681666Y-142690476D02*
X210729285Y-142666666D01*
X210729285Y-142666666D02*
X210776904Y-142666666D01*
X210776904Y-142666666D02*
X210824523Y-142904761D01*
X210657857Y-142500000D02*
X210991190Y-142380952D01*
X210991190Y-142380952D02*
X210657857Y-142261905D01*
X210943571Y-142071429D02*
X210967380Y-142047619D01*
X210967380Y-142047619D02*
X210991190Y-142071429D01*
X210991190Y-142071429D02*
X210967380Y-142095238D01*
X210967380Y-142095238D02*
X210943571Y-142071429D01*
X210943571Y-142071429D02*
X210991190Y-142071429D01*
X210848333Y-141557143D02*
X210848333Y-141319048D01*
X210991190Y-141604762D02*
X210491190Y-141438096D01*
X210491190Y-141438096D02*
X210991190Y-141271429D01*
X183991190Y-152095238D02*
X183753095Y-152261904D01*
X183991190Y-152380952D02*
X183491190Y-152380952D01*
X183491190Y-152380952D02*
X183491190Y-152190476D01*
X183491190Y-152190476D02*
X183515000Y-152142857D01*
X183515000Y-152142857D02*
X183538809Y-152119047D01*
X183538809Y-152119047D02*
X183586428Y-152095238D01*
X183586428Y-152095238D02*
X183657857Y-152095238D01*
X183657857Y-152095238D02*
X183705476Y-152119047D01*
X183705476Y-152119047D02*
X183729285Y-152142857D01*
X183729285Y-152142857D02*
X183753095Y-152190476D01*
X183753095Y-152190476D02*
X183753095Y-152380952D01*
X183967380Y-151690476D02*
X183991190Y-151738095D01*
X183991190Y-151738095D02*
X183991190Y-151833333D01*
X183991190Y-151833333D02*
X183967380Y-151880952D01*
X183967380Y-151880952D02*
X183919761Y-151904761D01*
X183919761Y-151904761D02*
X183729285Y-151904761D01*
X183729285Y-151904761D02*
X183681666Y-151880952D01*
X183681666Y-151880952D02*
X183657857Y-151833333D01*
X183657857Y-151833333D02*
X183657857Y-151738095D01*
X183657857Y-151738095D02*
X183681666Y-151690476D01*
X183681666Y-151690476D02*
X183729285Y-151666666D01*
X183729285Y-151666666D02*
X183776904Y-151666666D01*
X183776904Y-151666666D02*
X183824523Y-151904761D01*
X183657857Y-151500000D02*
X183991190Y-151380952D01*
X183991190Y-151380952D02*
X183657857Y-151261905D01*
X183943571Y-151071429D02*
X183967380Y-151047619D01*
X183967380Y-151047619D02*
X183991190Y-151071429D01*
X183991190Y-151071429D02*
X183967380Y-151095238D01*
X183967380Y-151095238D02*
X183943571Y-151071429D01*
X183943571Y-151071429D02*
X183991190Y-151071429D01*
X183848333Y-150557143D02*
X183848333Y-150319048D01*
X183991190Y-150604762D02*
X183491190Y-150438096D01*
X183491190Y-150438096D02*
X183991190Y-150271429D01*
X183991190Y-134095238D02*
X183753095Y-134261904D01*
X183991190Y-134380952D02*
X183491190Y-134380952D01*
X183491190Y-134380952D02*
X183491190Y-134190476D01*
X183491190Y-134190476D02*
X183515000Y-134142857D01*
X183515000Y-134142857D02*
X183538809Y-134119047D01*
X183538809Y-134119047D02*
X183586428Y-134095238D01*
X183586428Y-134095238D02*
X183657857Y-134095238D01*
X183657857Y-134095238D02*
X183705476Y-134119047D01*
X183705476Y-134119047D02*
X183729285Y-134142857D01*
X183729285Y-134142857D02*
X183753095Y-134190476D01*
X183753095Y-134190476D02*
X183753095Y-134380952D01*
X183967380Y-133690476D02*
X183991190Y-133738095D01*
X183991190Y-133738095D02*
X183991190Y-133833333D01*
X183991190Y-133833333D02*
X183967380Y-133880952D01*
X183967380Y-133880952D02*
X183919761Y-133904761D01*
X183919761Y-133904761D02*
X183729285Y-133904761D01*
X183729285Y-133904761D02*
X183681666Y-133880952D01*
X183681666Y-133880952D02*
X183657857Y-133833333D01*
X183657857Y-133833333D02*
X183657857Y-133738095D01*
X183657857Y-133738095D02*
X183681666Y-133690476D01*
X183681666Y-133690476D02*
X183729285Y-133666666D01*
X183729285Y-133666666D02*
X183776904Y-133666666D01*
X183776904Y-133666666D02*
X183824523Y-133904761D01*
X183657857Y-133500000D02*
X183991190Y-133380952D01*
X183991190Y-133380952D02*
X183657857Y-133261905D01*
X183943571Y-133071429D02*
X183967380Y-133047619D01*
X183967380Y-133047619D02*
X183991190Y-133071429D01*
X183991190Y-133071429D02*
X183967380Y-133095238D01*
X183967380Y-133095238D02*
X183943571Y-133071429D01*
X183943571Y-133071429D02*
X183991190Y-133071429D01*
X183848333Y-132557143D02*
X183848333Y-132319048D01*
X183991190Y-132604762D02*
X183491190Y-132438096D01*
X183491190Y-132438096D02*
X183991190Y-132271429D01*
X210991190Y-134095238D02*
X210753095Y-134261904D01*
X210991190Y-134380952D02*
X210491190Y-134380952D01*
X210491190Y-134380952D02*
X210491190Y-134190476D01*
X210491190Y-134190476D02*
X210515000Y-134142857D01*
X210515000Y-134142857D02*
X210538809Y-134119047D01*
X210538809Y-134119047D02*
X210586428Y-134095238D01*
X210586428Y-134095238D02*
X210657857Y-134095238D01*
X210657857Y-134095238D02*
X210705476Y-134119047D01*
X210705476Y-134119047D02*
X210729285Y-134142857D01*
X210729285Y-134142857D02*
X210753095Y-134190476D01*
X210753095Y-134190476D02*
X210753095Y-134380952D01*
X210967380Y-133690476D02*
X210991190Y-133738095D01*
X210991190Y-133738095D02*
X210991190Y-133833333D01*
X210991190Y-133833333D02*
X210967380Y-133880952D01*
X210967380Y-133880952D02*
X210919761Y-133904761D01*
X210919761Y-133904761D02*
X210729285Y-133904761D01*
X210729285Y-133904761D02*
X210681666Y-133880952D01*
X210681666Y-133880952D02*
X210657857Y-133833333D01*
X210657857Y-133833333D02*
X210657857Y-133738095D01*
X210657857Y-133738095D02*
X210681666Y-133690476D01*
X210681666Y-133690476D02*
X210729285Y-133666666D01*
X210729285Y-133666666D02*
X210776904Y-133666666D01*
X210776904Y-133666666D02*
X210824523Y-133904761D01*
X210657857Y-133500000D02*
X210991190Y-133380952D01*
X210991190Y-133380952D02*
X210657857Y-133261905D01*
X210943571Y-133071429D02*
X210967380Y-133047619D01*
X210967380Y-133047619D02*
X210991190Y-133071429D01*
X210991190Y-133071429D02*
X210967380Y-133095238D01*
X210967380Y-133095238D02*
X210943571Y-133071429D01*
X210943571Y-133071429D02*
X210991190Y-133071429D01*
X210848333Y-132557143D02*
X210848333Y-132319048D01*
X210991190Y-132604762D02*
X210491190Y-132438096D01*
X210491190Y-132438096D02*
X210991190Y-132271429D01*
X183991190Y-161095238D02*
X183753095Y-161261904D01*
X183991190Y-161380952D02*
X183491190Y-161380952D01*
X183491190Y-161380952D02*
X183491190Y-161190476D01*
X183491190Y-161190476D02*
X183515000Y-161142857D01*
X183515000Y-161142857D02*
X183538809Y-161119047D01*
X183538809Y-161119047D02*
X183586428Y-161095238D01*
X183586428Y-161095238D02*
X183657857Y-161095238D01*
X183657857Y-161095238D02*
X183705476Y-161119047D01*
X183705476Y-161119047D02*
X183729285Y-161142857D01*
X183729285Y-161142857D02*
X183753095Y-161190476D01*
X183753095Y-161190476D02*
X183753095Y-161380952D01*
X183967380Y-160690476D02*
X183991190Y-160738095D01*
X183991190Y-160738095D02*
X183991190Y-160833333D01*
X183991190Y-160833333D02*
X183967380Y-160880952D01*
X183967380Y-160880952D02*
X183919761Y-160904761D01*
X183919761Y-160904761D02*
X183729285Y-160904761D01*
X183729285Y-160904761D02*
X183681666Y-160880952D01*
X183681666Y-160880952D02*
X183657857Y-160833333D01*
X183657857Y-160833333D02*
X183657857Y-160738095D01*
X183657857Y-160738095D02*
X183681666Y-160690476D01*
X183681666Y-160690476D02*
X183729285Y-160666666D01*
X183729285Y-160666666D02*
X183776904Y-160666666D01*
X183776904Y-160666666D02*
X183824523Y-160904761D01*
X183657857Y-160500000D02*
X183991190Y-160380952D01*
X183991190Y-160380952D02*
X183657857Y-160261905D01*
X183943571Y-160071429D02*
X183967380Y-160047619D01*
X183967380Y-160047619D02*
X183991190Y-160071429D01*
X183991190Y-160071429D02*
X183967380Y-160095238D01*
X183967380Y-160095238D02*
X183943571Y-160071429D01*
X183943571Y-160071429D02*
X183991190Y-160071429D01*
X183848333Y-159557143D02*
X183848333Y-159319048D01*
X183991190Y-159604762D02*
X183491190Y-159438096D01*
X183491190Y-159438096D02*
X183991190Y-159271429D01*
X264991190Y-161095238D02*
X264753095Y-161261904D01*
X264991190Y-161380952D02*
X264491190Y-161380952D01*
X264491190Y-161380952D02*
X264491190Y-161190476D01*
X264491190Y-161190476D02*
X264515000Y-161142857D01*
X264515000Y-161142857D02*
X264538809Y-161119047D01*
X264538809Y-161119047D02*
X264586428Y-161095238D01*
X264586428Y-161095238D02*
X264657857Y-161095238D01*
X264657857Y-161095238D02*
X264705476Y-161119047D01*
X264705476Y-161119047D02*
X264729285Y-161142857D01*
X264729285Y-161142857D02*
X264753095Y-161190476D01*
X264753095Y-161190476D02*
X264753095Y-161380952D01*
X264967380Y-160690476D02*
X264991190Y-160738095D01*
X264991190Y-160738095D02*
X264991190Y-160833333D01*
X264991190Y-160833333D02*
X264967380Y-160880952D01*
X264967380Y-160880952D02*
X264919761Y-160904761D01*
X264919761Y-160904761D02*
X264729285Y-160904761D01*
X264729285Y-160904761D02*
X264681666Y-160880952D01*
X264681666Y-160880952D02*
X264657857Y-160833333D01*
X264657857Y-160833333D02*
X264657857Y-160738095D01*
X264657857Y-160738095D02*
X264681666Y-160690476D01*
X264681666Y-160690476D02*
X264729285Y-160666666D01*
X264729285Y-160666666D02*
X264776904Y-160666666D01*
X264776904Y-160666666D02*
X264824523Y-160904761D01*
X264657857Y-160500000D02*
X264991190Y-160380952D01*
X264991190Y-160380952D02*
X264657857Y-160261905D01*
X264943571Y-160071429D02*
X264967380Y-160047619D01*
X264967380Y-160047619D02*
X264991190Y-160071429D01*
X264991190Y-160071429D02*
X264967380Y-160095238D01*
X264967380Y-160095238D02*
X264943571Y-160071429D01*
X264943571Y-160071429D02*
X264991190Y-160071429D01*
X264848333Y-159557143D02*
X264848333Y-159319048D01*
X264991190Y-159604762D02*
X264491190Y-159438096D01*
X264491190Y-159438096D02*
X264991190Y-159271429D01*
X210991190Y-161095238D02*
X210753095Y-161261904D01*
X210991190Y-161380952D02*
X210491190Y-161380952D01*
X210491190Y-161380952D02*
X210491190Y-161190476D01*
X210491190Y-161190476D02*
X210515000Y-161142857D01*
X210515000Y-161142857D02*
X210538809Y-161119047D01*
X210538809Y-161119047D02*
X210586428Y-161095238D01*
X210586428Y-161095238D02*
X210657857Y-161095238D01*
X210657857Y-161095238D02*
X210705476Y-161119047D01*
X210705476Y-161119047D02*
X210729285Y-161142857D01*
X210729285Y-161142857D02*
X210753095Y-161190476D01*
X210753095Y-161190476D02*
X210753095Y-161380952D01*
X210967380Y-160690476D02*
X210991190Y-160738095D01*
X210991190Y-160738095D02*
X210991190Y-160833333D01*
X210991190Y-160833333D02*
X210967380Y-160880952D01*
X210967380Y-160880952D02*
X210919761Y-160904761D01*
X210919761Y-160904761D02*
X210729285Y-160904761D01*
X210729285Y-160904761D02*
X210681666Y-160880952D01*
X210681666Y-160880952D02*
X210657857Y-160833333D01*
X210657857Y-160833333D02*
X210657857Y-160738095D01*
X210657857Y-160738095D02*
X210681666Y-160690476D01*
X210681666Y-160690476D02*
X210729285Y-160666666D01*
X210729285Y-160666666D02*
X210776904Y-160666666D01*
X210776904Y-160666666D02*
X210824523Y-160904761D01*
X210657857Y-160500000D02*
X210991190Y-160380952D01*
X210991190Y-160380952D02*
X210657857Y-160261905D01*
X210943571Y-160071429D02*
X210967380Y-160047619D01*
X210967380Y-160047619D02*
X210991190Y-160071429D01*
X210991190Y-160071429D02*
X210967380Y-160095238D01*
X210967380Y-160095238D02*
X210943571Y-160071429D01*
X210943571Y-160071429D02*
X210991190Y-160071429D01*
X210848333Y-159557143D02*
X210848333Y-159319048D01*
X210991190Y-159604762D02*
X210491190Y-159438096D01*
X210491190Y-159438096D02*
X210991190Y-159271429D01*
X264991190Y-152095238D02*
X264753095Y-152261904D01*
X264991190Y-152380952D02*
X264491190Y-152380952D01*
X264491190Y-152380952D02*
X264491190Y-152190476D01*
X264491190Y-152190476D02*
X264515000Y-152142857D01*
X264515000Y-152142857D02*
X264538809Y-152119047D01*
X264538809Y-152119047D02*
X264586428Y-152095238D01*
X264586428Y-152095238D02*
X264657857Y-152095238D01*
X264657857Y-152095238D02*
X264705476Y-152119047D01*
X264705476Y-152119047D02*
X264729285Y-152142857D01*
X264729285Y-152142857D02*
X264753095Y-152190476D01*
X264753095Y-152190476D02*
X264753095Y-152380952D01*
X264967380Y-151690476D02*
X264991190Y-151738095D01*
X264991190Y-151738095D02*
X264991190Y-151833333D01*
X264991190Y-151833333D02*
X264967380Y-151880952D01*
X264967380Y-151880952D02*
X264919761Y-151904761D01*
X264919761Y-151904761D02*
X264729285Y-151904761D01*
X264729285Y-151904761D02*
X264681666Y-151880952D01*
X264681666Y-151880952D02*
X264657857Y-151833333D01*
X264657857Y-151833333D02*
X264657857Y-151738095D01*
X264657857Y-151738095D02*
X264681666Y-151690476D01*
X264681666Y-151690476D02*
X264729285Y-151666666D01*
X264729285Y-151666666D02*
X264776904Y-151666666D01*
X264776904Y-151666666D02*
X264824523Y-151904761D01*
X264657857Y-151500000D02*
X264991190Y-151380952D01*
X264991190Y-151380952D02*
X264657857Y-151261905D01*
X264943571Y-151071429D02*
X264967380Y-151047619D01*
X264967380Y-151047619D02*
X264991190Y-151071429D01*
X264991190Y-151071429D02*
X264967380Y-151095238D01*
X264967380Y-151095238D02*
X264943571Y-151071429D01*
X264943571Y-151071429D02*
X264991190Y-151071429D01*
X264848333Y-150557143D02*
X264848333Y-150319048D01*
X264991190Y-150604762D02*
X264491190Y-150438096D01*
X264491190Y-150438096D02*
X264991190Y-150271429D01*
X264991190Y-170095238D02*
X264753095Y-170261904D01*
X264991190Y-170380952D02*
X264491190Y-170380952D01*
X264491190Y-170380952D02*
X264491190Y-170190476D01*
X264491190Y-170190476D02*
X264515000Y-170142857D01*
X264515000Y-170142857D02*
X264538809Y-170119047D01*
X264538809Y-170119047D02*
X264586428Y-170095238D01*
X264586428Y-170095238D02*
X264657857Y-170095238D01*
X264657857Y-170095238D02*
X264705476Y-170119047D01*
X264705476Y-170119047D02*
X264729285Y-170142857D01*
X264729285Y-170142857D02*
X264753095Y-170190476D01*
X264753095Y-170190476D02*
X264753095Y-170380952D01*
X264967380Y-169690476D02*
X264991190Y-169738095D01*
X264991190Y-169738095D02*
X264991190Y-169833333D01*
X264991190Y-169833333D02*
X264967380Y-169880952D01*
X264967380Y-169880952D02*
X264919761Y-169904761D01*
X264919761Y-169904761D02*
X264729285Y-169904761D01*
X264729285Y-169904761D02*
X264681666Y-169880952D01*
X264681666Y-169880952D02*
X264657857Y-169833333D01*
X264657857Y-169833333D02*
X264657857Y-169738095D01*
X264657857Y-169738095D02*
X264681666Y-169690476D01*
X264681666Y-169690476D02*
X264729285Y-169666666D01*
X264729285Y-169666666D02*
X264776904Y-169666666D01*
X264776904Y-169666666D02*
X264824523Y-169904761D01*
X264657857Y-169500000D02*
X264991190Y-169380952D01*
X264991190Y-169380952D02*
X264657857Y-169261905D01*
X264943571Y-169071429D02*
X264967380Y-169047619D01*
X264967380Y-169047619D02*
X264991190Y-169071429D01*
X264991190Y-169071429D02*
X264967380Y-169095238D01*
X264967380Y-169095238D02*
X264943571Y-169071429D01*
X264943571Y-169071429D02*
X264991190Y-169071429D01*
X264848333Y-168557143D02*
X264848333Y-168319048D01*
X264991190Y-168604762D02*
X264491190Y-168438096D01*
X264491190Y-168438096D02*
X264991190Y-168271429D01*
X237991190Y-143095238D02*
X237753095Y-143261904D01*
X237991190Y-143380952D02*
X237491190Y-143380952D01*
X237491190Y-143380952D02*
X237491190Y-143190476D01*
X237491190Y-143190476D02*
X237515000Y-143142857D01*
X237515000Y-143142857D02*
X237538809Y-143119047D01*
X237538809Y-143119047D02*
X237586428Y-143095238D01*
X237586428Y-143095238D02*
X237657857Y-143095238D01*
X237657857Y-143095238D02*
X237705476Y-143119047D01*
X237705476Y-143119047D02*
X237729285Y-143142857D01*
X237729285Y-143142857D02*
X237753095Y-143190476D01*
X237753095Y-143190476D02*
X237753095Y-143380952D01*
X237967380Y-142690476D02*
X237991190Y-142738095D01*
X237991190Y-142738095D02*
X237991190Y-142833333D01*
X237991190Y-142833333D02*
X237967380Y-142880952D01*
X237967380Y-142880952D02*
X237919761Y-142904761D01*
X237919761Y-142904761D02*
X237729285Y-142904761D01*
X237729285Y-142904761D02*
X237681666Y-142880952D01*
X237681666Y-142880952D02*
X237657857Y-142833333D01*
X237657857Y-142833333D02*
X237657857Y-142738095D01*
X237657857Y-142738095D02*
X237681666Y-142690476D01*
X237681666Y-142690476D02*
X237729285Y-142666666D01*
X237729285Y-142666666D02*
X237776904Y-142666666D01*
X237776904Y-142666666D02*
X237824523Y-142904761D01*
X237657857Y-142500000D02*
X237991190Y-142380952D01*
X237991190Y-142380952D02*
X237657857Y-142261905D01*
X237943571Y-142071429D02*
X237967380Y-142047619D01*
X237967380Y-142047619D02*
X237991190Y-142071429D01*
X237991190Y-142071429D02*
X237967380Y-142095238D01*
X237967380Y-142095238D02*
X237943571Y-142071429D01*
X237943571Y-142071429D02*
X237991190Y-142071429D01*
X237848333Y-141557143D02*
X237848333Y-141319048D01*
X237991190Y-141604762D02*
X237491190Y-141438096D01*
X237491190Y-141438096D02*
X237991190Y-141271429D01*
X237991190Y-152095238D02*
X237753095Y-152261904D01*
X237991190Y-152380952D02*
X237491190Y-152380952D01*
X237491190Y-152380952D02*
X237491190Y-152190476D01*
X237491190Y-152190476D02*
X237515000Y-152142857D01*
X237515000Y-152142857D02*
X237538809Y-152119047D01*
X237538809Y-152119047D02*
X237586428Y-152095238D01*
X237586428Y-152095238D02*
X237657857Y-152095238D01*
X237657857Y-152095238D02*
X237705476Y-152119047D01*
X237705476Y-152119047D02*
X237729285Y-152142857D01*
X237729285Y-152142857D02*
X237753095Y-152190476D01*
X237753095Y-152190476D02*
X237753095Y-152380952D01*
X237967380Y-151690476D02*
X237991190Y-151738095D01*
X237991190Y-151738095D02*
X237991190Y-151833333D01*
X237991190Y-151833333D02*
X237967380Y-151880952D01*
X237967380Y-151880952D02*
X237919761Y-151904761D01*
X237919761Y-151904761D02*
X237729285Y-151904761D01*
X237729285Y-151904761D02*
X237681666Y-151880952D01*
X237681666Y-151880952D02*
X237657857Y-151833333D01*
X237657857Y-151833333D02*
X237657857Y-151738095D01*
X237657857Y-151738095D02*
X237681666Y-151690476D01*
X237681666Y-151690476D02*
X237729285Y-151666666D01*
X237729285Y-151666666D02*
X237776904Y-151666666D01*
X237776904Y-151666666D02*
X237824523Y-151904761D01*
X237657857Y-151500000D02*
X237991190Y-151380952D01*
X237991190Y-151380952D02*
X237657857Y-151261905D01*
X237943571Y-151071429D02*
X237967380Y-151047619D01*
X237967380Y-151047619D02*
X237991190Y-151071429D01*
X237991190Y-151071429D02*
X237967380Y-151095238D01*
X237967380Y-151095238D02*
X237943571Y-151071429D01*
X237943571Y-151071429D02*
X237991190Y-151071429D01*
X237848333Y-150557143D02*
X237848333Y-150319048D01*
X237991190Y-150604762D02*
X237491190Y-150438096D01*
X237491190Y-150438096D02*
X237991190Y-150271429D01*
X237991190Y-161095238D02*
X237753095Y-161261904D01*
X237991190Y-161380952D02*
X237491190Y-161380952D01*
X237491190Y-161380952D02*
X237491190Y-161190476D01*
X237491190Y-161190476D02*
X237515000Y-161142857D01*
X237515000Y-161142857D02*
X237538809Y-161119047D01*
X237538809Y-161119047D02*
X237586428Y-161095238D01*
X237586428Y-161095238D02*
X237657857Y-161095238D01*
X237657857Y-161095238D02*
X237705476Y-161119047D01*
X237705476Y-161119047D02*
X237729285Y-161142857D01*
X237729285Y-161142857D02*
X237753095Y-161190476D01*
X237753095Y-161190476D02*
X237753095Y-161380952D01*
X237967380Y-160690476D02*
X237991190Y-160738095D01*
X237991190Y-160738095D02*
X237991190Y-160833333D01*
X237991190Y-160833333D02*
X237967380Y-160880952D01*
X237967380Y-160880952D02*
X237919761Y-160904761D01*
X237919761Y-160904761D02*
X237729285Y-160904761D01*
X237729285Y-160904761D02*
X237681666Y-160880952D01*
X237681666Y-160880952D02*
X237657857Y-160833333D01*
X237657857Y-160833333D02*
X237657857Y-160738095D01*
X237657857Y-160738095D02*
X237681666Y-160690476D01*
X237681666Y-160690476D02*
X237729285Y-160666666D01*
X237729285Y-160666666D02*
X237776904Y-160666666D01*
X237776904Y-160666666D02*
X237824523Y-160904761D01*
X237657857Y-160500000D02*
X237991190Y-160380952D01*
X237991190Y-160380952D02*
X237657857Y-160261905D01*
X237943571Y-160071429D02*
X237967380Y-160047619D01*
X237967380Y-160047619D02*
X237991190Y-160071429D01*
X237991190Y-160071429D02*
X237967380Y-160095238D01*
X237967380Y-160095238D02*
X237943571Y-160071429D01*
X237943571Y-160071429D02*
X237991190Y-160071429D01*
X237848333Y-159557143D02*
X237848333Y-159319048D01*
X237991190Y-159604762D02*
X237491190Y-159438096D01*
X237491190Y-159438096D02*
X237991190Y-159271429D01*
X237991190Y-170095238D02*
X237753095Y-170261904D01*
X237991190Y-170380952D02*
X237491190Y-170380952D01*
X237491190Y-170380952D02*
X237491190Y-170190476D01*
X237491190Y-170190476D02*
X237515000Y-170142857D01*
X237515000Y-170142857D02*
X237538809Y-170119047D01*
X237538809Y-170119047D02*
X237586428Y-170095238D01*
X237586428Y-170095238D02*
X237657857Y-170095238D01*
X237657857Y-170095238D02*
X237705476Y-170119047D01*
X237705476Y-170119047D02*
X237729285Y-170142857D01*
X237729285Y-170142857D02*
X237753095Y-170190476D01*
X237753095Y-170190476D02*
X237753095Y-170380952D01*
X237967380Y-169690476D02*
X237991190Y-169738095D01*
X237991190Y-169738095D02*
X237991190Y-169833333D01*
X237991190Y-169833333D02*
X237967380Y-169880952D01*
X237967380Y-169880952D02*
X237919761Y-169904761D01*
X237919761Y-169904761D02*
X237729285Y-169904761D01*
X237729285Y-169904761D02*
X237681666Y-169880952D01*
X237681666Y-169880952D02*
X237657857Y-169833333D01*
X237657857Y-169833333D02*
X237657857Y-169738095D01*
X237657857Y-169738095D02*
X237681666Y-169690476D01*
X237681666Y-169690476D02*
X237729285Y-169666666D01*
X237729285Y-169666666D02*
X237776904Y-169666666D01*
X237776904Y-169666666D02*
X237824523Y-169904761D01*
X237657857Y-169500000D02*
X237991190Y-169380952D01*
X237991190Y-169380952D02*
X237657857Y-169261905D01*
X237943571Y-169071429D02*
X237967380Y-169047619D01*
X237967380Y-169047619D02*
X237991190Y-169071429D01*
X237991190Y-169071429D02*
X237967380Y-169095238D01*
X237967380Y-169095238D02*
X237943571Y-169071429D01*
X237943571Y-169071429D02*
X237991190Y-169071429D01*
X237848333Y-168557143D02*
X237848333Y-168319048D01*
X237991190Y-168604762D02*
X237491190Y-168438096D01*
X237491190Y-168438096D02*
X237991190Y-168271429D01*
X183991190Y-125095238D02*
X183753095Y-125261904D01*
X183991190Y-125380952D02*
X183491190Y-125380952D01*
X183491190Y-125380952D02*
X183491190Y-125190476D01*
X183491190Y-125190476D02*
X183515000Y-125142857D01*
X183515000Y-125142857D02*
X183538809Y-125119047D01*
X183538809Y-125119047D02*
X183586428Y-125095238D01*
X183586428Y-125095238D02*
X183657857Y-125095238D01*
X183657857Y-125095238D02*
X183705476Y-125119047D01*
X183705476Y-125119047D02*
X183729285Y-125142857D01*
X183729285Y-125142857D02*
X183753095Y-125190476D01*
X183753095Y-125190476D02*
X183753095Y-125380952D01*
X183967380Y-124690476D02*
X183991190Y-124738095D01*
X183991190Y-124738095D02*
X183991190Y-124833333D01*
X183991190Y-124833333D02*
X183967380Y-124880952D01*
X183967380Y-124880952D02*
X183919761Y-124904761D01*
X183919761Y-124904761D02*
X183729285Y-124904761D01*
X183729285Y-124904761D02*
X183681666Y-124880952D01*
X183681666Y-124880952D02*
X183657857Y-124833333D01*
X183657857Y-124833333D02*
X183657857Y-124738095D01*
X183657857Y-124738095D02*
X183681666Y-124690476D01*
X183681666Y-124690476D02*
X183729285Y-124666666D01*
X183729285Y-124666666D02*
X183776904Y-124666666D01*
X183776904Y-124666666D02*
X183824523Y-124904761D01*
X183657857Y-124500000D02*
X183991190Y-124380952D01*
X183991190Y-124380952D02*
X183657857Y-124261905D01*
X183943571Y-124071429D02*
X183967380Y-124047619D01*
X183967380Y-124047619D02*
X183991190Y-124071429D01*
X183991190Y-124071429D02*
X183967380Y-124095238D01*
X183967380Y-124095238D02*
X183943571Y-124071429D01*
X183943571Y-124071429D02*
X183991190Y-124071429D01*
X183848333Y-123557143D02*
X183848333Y-123319048D01*
X183991190Y-123604762D02*
X183491190Y-123438096D01*
X183491190Y-123438096D02*
X183991190Y-123271429D01*
D11*
%TO.C,H2*%
X256519200Y-170677760D03*
X253979200Y-170677760D03*
%TD*%
%TO.C,H1*%
X261519200Y-170677760D03*
X258979200Y-170677760D03*
%TD*%
D12*
%TO.C,D2*%
X259574199Y-168702759D03*
X260924199Y-168702759D03*
D13*
X259499199Y-167977759D03*
X260999199Y-167977759D03*
D12*
X259574199Y-167252759D03*
X260924199Y-167252759D03*
%TD*%
%TO.C,D1*%
X254574199Y-168702759D03*
X255924199Y-168702759D03*
D13*
X254499199Y-167977759D03*
X255999199Y-167977759D03*
D12*
X254574199Y-167252759D03*
X255924199Y-167252759D03*
%TD*%
D14*
%TO.C,J1*%
X243200000Y-168350000D03*
X244000000Y-168350000D03*
X244800000Y-168350000D03*
X245600000Y-168350000D03*
X246400000Y-168350000D03*
X247200000Y-168350000D03*
X248000000Y-168350000D03*
X248800000Y-168350000D03*
D15*
X241900000Y-170300000D03*
X250100000Y-170300000D03*
%TD*%
D11*
%TO.C,H2*%
X229519200Y-170677760D03*
X226979200Y-170677760D03*
%TD*%
%TO.C,H1*%
X234519200Y-170677760D03*
X231979200Y-170677760D03*
%TD*%
D12*
%TO.C,D2*%
X232574199Y-168702759D03*
X233924199Y-168702759D03*
D13*
X232499199Y-167977759D03*
X233999199Y-167977759D03*
D12*
X232574199Y-167252759D03*
X233924199Y-167252759D03*
%TD*%
%TO.C,D1*%
X227574199Y-168702759D03*
X228924199Y-168702759D03*
D13*
X227499199Y-167977759D03*
X228999199Y-167977759D03*
D12*
X227574199Y-167252759D03*
X228924199Y-167252759D03*
%TD*%
D14*
%TO.C,J1*%
X216200000Y-168350000D03*
X217000000Y-168350000D03*
X217800000Y-168350000D03*
X218600000Y-168350000D03*
X219400000Y-168350000D03*
X220200000Y-168350000D03*
X221000000Y-168350000D03*
X221800000Y-168350000D03*
D15*
X214900000Y-170300000D03*
X223100000Y-170300000D03*
%TD*%
D11*
%TO.C,H2*%
X202719200Y-170677760D03*
X200179200Y-170677760D03*
%TD*%
%TO.C,H1*%
X207719200Y-170677760D03*
X205179200Y-170677760D03*
%TD*%
D12*
%TO.C,D2*%
X205774199Y-168702759D03*
X207124199Y-168702759D03*
D13*
X205699199Y-167977759D03*
X207199199Y-167977759D03*
D12*
X205774199Y-167252759D03*
X207124199Y-167252759D03*
%TD*%
%TO.C,D1*%
X200774199Y-168702759D03*
X202124199Y-168702759D03*
D13*
X200699199Y-167977759D03*
X202199199Y-167977759D03*
D12*
X200774199Y-167252759D03*
X202124199Y-167252759D03*
%TD*%
D14*
%TO.C,J1*%
X189400000Y-168350000D03*
X190200000Y-168350000D03*
X191000000Y-168350000D03*
X191800000Y-168350000D03*
X192600000Y-168350000D03*
X193400000Y-168350000D03*
X194200000Y-168350000D03*
X195000000Y-168350000D03*
D15*
X188100000Y-170300000D03*
X196300000Y-170300000D03*
%TD*%
D11*
%TO.C,H2*%
X175519200Y-170677760D03*
X172979200Y-170677760D03*
%TD*%
%TO.C,H1*%
X180519200Y-170677760D03*
X177979200Y-170677760D03*
%TD*%
D12*
%TO.C,D2*%
X178574199Y-168702759D03*
X179924199Y-168702759D03*
D13*
X178499199Y-167977759D03*
X179999199Y-167977759D03*
D12*
X178574199Y-167252759D03*
X179924199Y-167252759D03*
%TD*%
%TO.C,D1*%
X173574199Y-168702759D03*
X174924199Y-168702759D03*
D13*
X173499199Y-167977759D03*
X174999199Y-167977759D03*
D12*
X173574199Y-167252759D03*
X174924199Y-167252759D03*
%TD*%
D14*
%TO.C,J1*%
X162200000Y-168350000D03*
X163000000Y-168350000D03*
X163800000Y-168350000D03*
X164600000Y-168350000D03*
X165400000Y-168350000D03*
X166200000Y-168350000D03*
X167000000Y-168350000D03*
X167800000Y-168350000D03*
D15*
X160900000Y-170300000D03*
X169100000Y-170300000D03*
%TD*%
D11*
%TO.C,H2*%
X256519200Y-161677760D03*
X253979200Y-161677760D03*
%TD*%
%TO.C,H1*%
X261519200Y-161677760D03*
X258979200Y-161677760D03*
%TD*%
D12*
%TO.C,D2*%
X259574199Y-159702759D03*
X260924199Y-159702759D03*
D13*
X259499199Y-158977759D03*
X260999199Y-158977759D03*
D12*
X259574199Y-158252759D03*
X260924199Y-158252759D03*
%TD*%
%TO.C,D1*%
X254574199Y-159702759D03*
X255924199Y-159702759D03*
D13*
X254499199Y-158977759D03*
X255999199Y-158977759D03*
D12*
X254574199Y-158252759D03*
X255924199Y-158252759D03*
%TD*%
D14*
%TO.C,J1*%
X243200000Y-159350000D03*
X244000000Y-159350000D03*
X244800000Y-159350000D03*
X245600000Y-159350000D03*
X246400000Y-159350000D03*
X247200000Y-159350000D03*
X248000000Y-159350000D03*
X248800000Y-159350000D03*
D15*
X241900000Y-161300000D03*
X250100000Y-161300000D03*
%TD*%
D11*
%TO.C,H2*%
X229519200Y-161677760D03*
X226979200Y-161677760D03*
%TD*%
%TO.C,H1*%
X234519200Y-161677760D03*
X231979200Y-161677760D03*
%TD*%
D12*
%TO.C,D2*%
X232574199Y-159702759D03*
X233924199Y-159702759D03*
D13*
X232499199Y-158977759D03*
X233999199Y-158977759D03*
D12*
X232574199Y-158252759D03*
X233924199Y-158252759D03*
%TD*%
%TO.C,D1*%
X227574199Y-159702759D03*
X228924199Y-159702759D03*
D13*
X227499199Y-158977759D03*
X228999199Y-158977759D03*
D12*
X227574199Y-158252759D03*
X228924199Y-158252759D03*
%TD*%
D14*
%TO.C,J1*%
X216200000Y-159350000D03*
X217000000Y-159350000D03*
X217800000Y-159350000D03*
X218600000Y-159350000D03*
X219400000Y-159350000D03*
X220200000Y-159350000D03*
X221000000Y-159350000D03*
X221800000Y-159350000D03*
D15*
X214900000Y-161300000D03*
X223100000Y-161300000D03*
%TD*%
D11*
%TO.C,H2*%
X202719200Y-161677760D03*
X200179200Y-161677760D03*
%TD*%
%TO.C,H1*%
X207719200Y-161677760D03*
X205179200Y-161677760D03*
%TD*%
D12*
%TO.C,D2*%
X205774199Y-159702759D03*
X207124199Y-159702759D03*
D13*
X205699199Y-158977759D03*
X207199199Y-158977759D03*
D12*
X205774199Y-158252759D03*
X207124199Y-158252759D03*
%TD*%
%TO.C,D1*%
X200774199Y-159702759D03*
X202124199Y-159702759D03*
D13*
X200699199Y-158977759D03*
X202199199Y-158977759D03*
D12*
X200774199Y-158252759D03*
X202124199Y-158252759D03*
%TD*%
D14*
%TO.C,J1*%
X189400000Y-159350000D03*
X190200000Y-159350000D03*
X191000000Y-159350000D03*
X191800000Y-159350000D03*
X192600000Y-159350000D03*
X193400000Y-159350000D03*
X194200000Y-159350000D03*
X195000000Y-159350000D03*
D15*
X188100000Y-161300000D03*
X196300000Y-161300000D03*
%TD*%
D11*
%TO.C,H2*%
X175519200Y-161677760D03*
X172979200Y-161677760D03*
%TD*%
%TO.C,H1*%
X180519200Y-161677760D03*
X177979200Y-161677760D03*
%TD*%
D12*
%TO.C,D2*%
X178574199Y-159702759D03*
X179924199Y-159702759D03*
D13*
X178499199Y-158977759D03*
X179999199Y-158977759D03*
D12*
X178574199Y-158252759D03*
X179924199Y-158252759D03*
%TD*%
%TO.C,D1*%
X173574199Y-159702759D03*
X174924199Y-159702759D03*
D13*
X173499199Y-158977759D03*
X174999199Y-158977759D03*
D12*
X173574199Y-158252759D03*
X174924199Y-158252759D03*
%TD*%
D14*
%TO.C,J1*%
X162200000Y-159350000D03*
X163000000Y-159350000D03*
X163800000Y-159350000D03*
X164600000Y-159350000D03*
X165400000Y-159350000D03*
X166200000Y-159350000D03*
X167000000Y-159350000D03*
X167800000Y-159350000D03*
D15*
X160900000Y-161300000D03*
X169100000Y-161300000D03*
%TD*%
D11*
%TO.C,H2*%
X256519200Y-152677760D03*
X253979200Y-152677760D03*
%TD*%
%TO.C,H1*%
X261519200Y-152677760D03*
X258979200Y-152677760D03*
%TD*%
D12*
%TO.C,D2*%
X259574199Y-150702759D03*
X260924199Y-150702759D03*
D13*
X259499199Y-149977759D03*
X260999199Y-149977759D03*
D12*
X259574199Y-149252759D03*
X260924199Y-149252759D03*
%TD*%
%TO.C,D1*%
X254574199Y-150702759D03*
X255924199Y-150702759D03*
D13*
X254499199Y-149977759D03*
X255999199Y-149977759D03*
D12*
X254574199Y-149252759D03*
X255924199Y-149252759D03*
%TD*%
D14*
%TO.C,J1*%
X243200000Y-150350000D03*
X244000000Y-150350000D03*
X244800000Y-150350000D03*
X245600000Y-150350000D03*
X246400000Y-150350000D03*
X247200000Y-150350000D03*
X248000000Y-150350000D03*
X248800000Y-150350000D03*
D15*
X241900000Y-152300000D03*
X250100000Y-152300000D03*
%TD*%
D11*
%TO.C,H2*%
X229519200Y-152677760D03*
X226979200Y-152677760D03*
%TD*%
%TO.C,H1*%
X234519200Y-152677760D03*
X231979200Y-152677760D03*
%TD*%
D12*
%TO.C,D2*%
X232574199Y-150702759D03*
X233924199Y-150702759D03*
D13*
X232499199Y-149977759D03*
X233999199Y-149977759D03*
D12*
X232574199Y-149252759D03*
X233924199Y-149252759D03*
%TD*%
%TO.C,D1*%
X227574199Y-150702759D03*
X228924199Y-150702759D03*
D13*
X227499199Y-149977759D03*
X228999199Y-149977759D03*
D12*
X227574199Y-149252759D03*
X228924199Y-149252759D03*
%TD*%
D14*
%TO.C,J1*%
X216200000Y-150350000D03*
X217000000Y-150350000D03*
X217800000Y-150350000D03*
X218600000Y-150350000D03*
X219400000Y-150350000D03*
X220200000Y-150350000D03*
X221000000Y-150350000D03*
X221800000Y-150350000D03*
D15*
X214900000Y-152300000D03*
X223100000Y-152300000D03*
%TD*%
D11*
%TO.C,H2*%
X202719200Y-152677760D03*
X200179200Y-152677760D03*
%TD*%
%TO.C,H1*%
X207719200Y-152677760D03*
X205179200Y-152677760D03*
%TD*%
D12*
%TO.C,D2*%
X205774199Y-150702759D03*
X207124199Y-150702759D03*
D13*
X205699199Y-149977759D03*
X207199199Y-149977759D03*
D12*
X205774199Y-149252759D03*
X207124199Y-149252759D03*
%TD*%
%TO.C,D1*%
X200774199Y-150702759D03*
X202124199Y-150702759D03*
D13*
X200699199Y-149977759D03*
X202199199Y-149977759D03*
D12*
X200774199Y-149252759D03*
X202124199Y-149252759D03*
%TD*%
D14*
%TO.C,J1*%
X189400000Y-150350000D03*
X190200000Y-150350000D03*
X191000000Y-150350000D03*
X191800000Y-150350000D03*
X192600000Y-150350000D03*
X193400000Y-150350000D03*
X194200000Y-150350000D03*
X195000000Y-150350000D03*
D15*
X188100000Y-152300000D03*
X196300000Y-152300000D03*
%TD*%
D11*
%TO.C,H2*%
X175519200Y-152677760D03*
X172979200Y-152677760D03*
%TD*%
%TO.C,H1*%
X180519200Y-152677760D03*
X177979200Y-152677760D03*
%TD*%
D12*
%TO.C,D2*%
X178574199Y-150702759D03*
X179924199Y-150702759D03*
D13*
X178499199Y-149977759D03*
X179999199Y-149977759D03*
D12*
X178574199Y-149252759D03*
X179924199Y-149252759D03*
%TD*%
%TO.C,D1*%
X173574199Y-150702759D03*
X174924199Y-150702759D03*
D13*
X173499199Y-149977759D03*
X174999199Y-149977759D03*
D12*
X173574199Y-149252759D03*
X174924199Y-149252759D03*
%TD*%
D14*
%TO.C,J1*%
X162200000Y-150350000D03*
X163000000Y-150350000D03*
X163800000Y-150350000D03*
X164600000Y-150350000D03*
X165400000Y-150350000D03*
X166200000Y-150350000D03*
X167000000Y-150350000D03*
X167800000Y-150350000D03*
D15*
X160900000Y-152300000D03*
X169100000Y-152300000D03*
%TD*%
D11*
%TO.C,H2*%
X256519200Y-143677760D03*
X253979200Y-143677760D03*
%TD*%
%TO.C,H1*%
X261519200Y-143677760D03*
X258979200Y-143677760D03*
%TD*%
D12*
%TO.C,D2*%
X259574199Y-141702759D03*
X260924199Y-141702759D03*
D13*
X259499199Y-140977759D03*
X260999199Y-140977759D03*
D12*
X259574199Y-140252759D03*
X260924199Y-140252759D03*
%TD*%
%TO.C,D1*%
X254574199Y-141702759D03*
X255924199Y-141702759D03*
D13*
X254499199Y-140977759D03*
X255999199Y-140977759D03*
D12*
X254574199Y-140252759D03*
X255924199Y-140252759D03*
%TD*%
D14*
%TO.C,J1*%
X243200000Y-141350000D03*
X244000000Y-141350000D03*
X244800000Y-141350000D03*
X245600000Y-141350000D03*
X246400000Y-141350000D03*
X247200000Y-141350000D03*
X248000000Y-141350000D03*
X248800000Y-141350000D03*
D15*
X241900000Y-143300000D03*
X250100000Y-143300000D03*
%TD*%
D11*
%TO.C,H2*%
X229519200Y-143677760D03*
X226979200Y-143677760D03*
%TD*%
%TO.C,H1*%
X234519200Y-143677760D03*
X231979200Y-143677760D03*
%TD*%
D12*
%TO.C,D2*%
X232574199Y-141702759D03*
X233924199Y-141702759D03*
D13*
X232499199Y-140977759D03*
X233999199Y-140977759D03*
D12*
X232574199Y-140252759D03*
X233924199Y-140252759D03*
%TD*%
%TO.C,D1*%
X227574199Y-141702759D03*
X228924199Y-141702759D03*
D13*
X227499199Y-140977759D03*
X228999199Y-140977759D03*
D12*
X227574199Y-140252759D03*
X228924199Y-140252759D03*
%TD*%
D14*
%TO.C,J1*%
X216200000Y-141350000D03*
X217000000Y-141350000D03*
X217800000Y-141350000D03*
X218600000Y-141350000D03*
X219400000Y-141350000D03*
X220200000Y-141350000D03*
X221000000Y-141350000D03*
X221800000Y-141350000D03*
D15*
X214900000Y-143300000D03*
X223100000Y-143300000D03*
%TD*%
D11*
%TO.C,H2*%
X202519200Y-143677760D03*
X199979200Y-143677760D03*
%TD*%
%TO.C,H1*%
X207519200Y-143677760D03*
X204979200Y-143677760D03*
%TD*%
D12*
%TO.C,D2*%
X205574199Y-141702759D03*
X206924199Y-141702759D03*
D13*
X205499199Y-140977759D03*
X206999199Y-140977759D03*
D12*
X205574199Y-140252759D03*
X206924199Y-140252759D03*
%TD*%
%TO.C,D1*%
X200574199Y-141702759D03*
X201924199Y-141702759D03*
D13*
X200499199Y-140977759D03*
X201999199Y-140977759D03*
D12*
X200574199Y-140252759D03*
X201924199Y-140252759D03*
%TD*%
D14*
%TO.C,J1*%
X189200000Y-141350000D03*
X190000000Y-141350000D03*
X190800000Y-141350000D03*
X191600000Y-141350000D03*
X192400000Y-141350000D03*
X193200000Y-141350000D03*
X194000000Y-141350000D03*
X194800000Y-141350000D03*
D15*
X187900000Y-143300000D03*
X196100000Y-143300000D03*
%TD*%
D11*
%TO.C,H2*%
X175519200Y-143677760D03*
X172979200Y-143677760D03*
%TD*%
%TO.C,H1*%
X180519200Y-143677760D03*
X177979200Y-143677760D03*
%TD*%
D12*
%TO.C,D2*%
X178574199Y-141702759D03*
X179924199Y-141702759D03*
D13*
X178499199Y-140977759D03*
X179999199Y-140977759D03*
D12*
X178574199Y-140252759D03*
X179924199Y-140252759D03*
%TD*%
%TO.C,D1*%
X173574199Y-141702759D03*
X174924199Y-141702759D03*
D13*
X173499199Y-140977759D03*
X174999199Y-140977759D03*
D12*
X173574199Y-140252759D03*
X174924199Y-140252759D03*
%TD*%
D14*
%TO.C,J1*%
X162200000Y-141350000D03*
X163000000Y-141350000D03*
X163800000Y-141350000D03*
X164600000Y-141350000D03*
X165400000Y-141350000D03*
X166200000Y-141350000D03*
X167000000Y-141350000D03*
X167800000Y-141350000D03*
D15*
X160900000Y-143300000D03*
X169100000Y-143300000D03*
%TD*%
D11*
%TO.C,H2*%
X175519200Y-134677760D03*
X172979200Y-134677760D03*
%TD*%
%TO.C,H1*%
X180519200Y-134677760D03*
X177979200Y-134677760D03*
%TD*%
D12*
%TO.C,D2*%
X178574199Y-132702759D03*
X179924199Y-132702759D03*
D13*
X178499199Y-131977759D03*
X179999199Y-131977759D03*
D12*
X178574199Y-131252759D03*
X179924199Y-131252759D03*
%TD*%
%TO.C,D1*%
X173574199Y-132702759D03*
X174924199Y-132702759D03*
D13*
X173499199Y-131977759D03*
X174999199Y-131977759D03*
D12*
X173574199Y-131252759D03*
X174924199Y-131252759D03*
%TD*%
D14*
%TO.C,J1*%
X162200000Y-132350000D03*
X163000000Y-132350000D03*
X163800000Y-132350000D03*
X164600000Y-132350000D03*
X165400000Y-132350000D03*
X166200000Y-132350000D03*
X167000000Y-132350000D03*
X167800000Y-132350000D03*
D15*
X160900000Y-134300000D03*
X169100000Y-134300000D03*
%TD*%
D11*
%TO.C,H2*%
X202519200Y-134877760D03*
X199979200Y-134877760D03*
%TD*%
%TO.C,H1*%
X207519200Y-134877760D03*
X204979200Y-134877760D03*
%TD*%
D12*
%TO.C,D2*%
X205574199Y-132902759D03*
X206924199Y-132902759D03*
D13*
X205499199Y-132177759D03*
X206999199Y-132177759D03*
D12*
X205574199Y-131452759D03*
X206924199Y-131452759D03*
%TD*%
%TO.C,D1*%
X200574199Y-132902759D03*
X201924199Y-132902759D03*
D13*
X200499199Y-132177759D03*
X201999199Y-132177759D03*
D12*
X200574199Y-131452759D03*
X201924199Y-131452759D03*
%TD*%
D14*
%TO.C,J1*%
X189200000Y-132550000D03*
X190000000Y-132550000D03*
X190800000Y-132550000D03*
X191600000Y-132550000D03*
X192400000Y-132550000D03*
X193200000Y-132550000D03*
X194000000Y-132550000D03*
X194800000Y-132550000D03*
D15*
X187900000Y-134500000D03*
X196100000Y-134500000D03*
%TD*%
D11*
%TO.C,H2*%
X229519200Y-134877760D03*
X226979200Y-134877760D03*
%TD*%
%TO.C,H1*%
X234519200Y-134877760D03*
X231979200Y-134877760D03*
%TD*%
D12*
%TO.C,D2*%
X232574199Y-132902759D03*
X233924199Y-132902759D03*
D13*
X232499199Y-132177759D03*
X233999199Y-132177759D03*
D12*
X232574199Y-131452759D03*
X233924199Y-131452759D03*
%TD*%
%TO.C,D1*%
X227574199Y-132902759D03*
X228924199Y-132902759D03*
D13*
X227499199Y-132177759D03*
X228999199Y-132177759D03*
D12*
X227574199Y-131452759D03*
X228924199Y-131452759D03*
%TD*%
D14*
%TO.C,J1*%
X216200000Y-132550000D03*
X217000000Y-132550000D03*
X217800000Y-132550000D03*
X218600000Y-132550000D03*
X219400000Y-132550000D03*
X220200000Y-132550000D03*
X221000000Y-132550000D03*
X221800000Y-132550000D03*
D15*
X214900000Y-134500000D03*
X223100000Y-134500000D03*
%TD*%
D11*
%TO.C,H2*%
X256519200Y-134877760D03*
X253979200Y-134877760D03*
%TD*%
%TO.C,H1*%
X261519200Y-134877760D03*
X258979200Y-134877760D03*
%TD*%
D12*
%TO.C,D2*%
X259574199Y-132902759D03*
X260924199Y-132902759D03*
D13*
X259499199Y-132177759D03*
X260999199Y-132177759D03*
D12*
X259574199Y-131452759D03*
X260924199Y-131452759D03*
%TD*%
%TO.C,D1*%
X254574199Y-132902759D03*
X255924199Y-132902759D03*
D13*
X254499199Y-132177759D03*
X255999199Y-132177759D03*
D12*
X254574199Y-131452759D03*
X255924199Y-131452759D03*
%TD*%
D14*
%TO.C,J1*%
X243200000Y-132550000D03*
X244000000Y-132550000D03*
X244800000Y-132550000D03*
X245600000Y-132550000D03*
X246400000Y-132550000D03*
X247200000Y-132550000D03*
X248000000Y-132550000D03*
X248800000Y-132550000D03*
D15*
X241900000Y-134500000D03*
X250100000Y-134500000D03*
%TD*%
D11*
%TO.C,H2*%
X256519200Y-125677760D03*
X253979200Y-125677760D03*
%TD*%
%TO.C,H1*%
X261519200Y-125677760D03*
X258979200Y-125677760D03*
%TD*%
D12*
%TO.C,D2*%
X259574199Y-123702759D03*
X260924199Y-123702759D03*
D13*
X259499199Y-122977759D03*
X260999199Y-122977759D03*
D12*
X259574199Y-122252759D03*
X260924199Y-122252759D03*
%TD*%
%TO.C,D1*%
X254574199Y-123702759D03*
X255924199Y-123702759D03*
D13*
X254499199Y-122977759D03*
X255999199Y-122977759D03*
D12*
X254574199Y-122252759D03*
X255924199Y-122252759D03*
%TD*%
D14*
%TO.C,J1*%
X243200000Y-123350000D03*
X244000000Y-123350000D03*
X244800000Y-123350000D03*
X245600000Y-123350000D03*
X246400000Y-123350000D03*
X247200000Y-123350000D03*
X248000000Y-123350000D03*
X248800000Y-123350000D03*
D15*
X241900000Y-125300000D03*
X250100000Y-125300000D03*
%TD*%
D11*
%TO.C,H2*%
X229519200Y-125677760D03*
X226979200Y-125677760D03*
%TD*%
%TO.C,H1*%
X234519200Y-125677760D03*
X231979200Y-125677760D03*
%TD*%
D12*
%TO.C,D2*%
X232574199Y-123702759D03*
X233924199Y-123702759D03*
D13*
X232499199Y-122977759D03*
X233999199Y-122977759D03*
D12*
X232574199Y-122252759D03*
X233924199Y-122252759D03*
%TD*%
%TO.C,D1*%
X227574199Y-123702759D03*
X228924199Y-123702759D03*
D13*
X227499199Y-122977759D03*
X228999199Y-122977759D03*
D12*
X227574199Y-122252759D03*
X228924199Y-122252759D03*
%TD*%
D14*
%TO.C,J1*%
X216200000Y-123350000D03*
X217000000Y-123350000D03*
X217800000Y-123350000D03*
X218600000Y-123350000D03*
X219400000Y-123350000D03*
X220200000Y-123350000D03*
X221000000Y-123350000D03*
X221800000Y-123350000D03*
D15*
X214900000Y-125300000D03*
X223100000Y-125300000D03*
%TD*%
D11*
%TO.C,H2*%
X202519200Y-125677760D03*
X199979200Y-125677760D03*
%TD*%
%TO.C,H1*%
X207519200Y-125677760D03*
X204979200Y-125677760D03*
%TD*%
D12*
%TO.C,D2*%
X205574199Y-123702759D03*
X206924199Y-123702759D03*
D13*
X205499199Y-122977759D03*
X206999199Y-122977759D03*
D12*
X205574199Y-122252759D03*
X206924199Y-122252759D03*
%TD*%
%TO.C,D1*%
X200574199Y-123702759D03*
X201924199Y-123702759D03*
D13*
X200499199Y-122977759D03*
X201999199Y-122977759D03*
D12*
X200574199Y-122252759D03*
X201924199Y-122252759D03*
%TD*%
D14*
%TO.C,J1*%
X189200000Y-123350000D03*
X190000000Y-123350000D03*
X190800000Y-123350000D03*
X191600000Y-123350000D03*
X192400000Y-123350000D03*
X193200000Y-123350000D03*
X194000000Y-123350000D03*
X194800000Y-123350000D03*
D15*
X187900000Y-125300000D03*
X196100000Y-125300000D03*
%TD*%
D16*
%TO.C,(11\u002C 12)*%
X149949200Y-182277760D03*
%TD*%
%TO.C,(135\u002C 15)*%
X273949200Y-179277760D03*
%TD*%
%TO.C,(15\u002C 83)*%
X153949200Y-111277760D03*
%TD*%
D12*
%TO.C,D2*%
X178574199Y-123702759D03*
X179924199Y-123702759D03*
D13*
X178499199Y-122977759D03*
X179999199Y-122977759D03*
D12*
X178574199Y-122252759D03*
X179924199Y-122252759D03*
%TD*%
%TO.C,D1*%
X174924199Y-122252759D03*
X173574199Y-122252759D03*
D13*
X174999199Y-122977759D03*
X173499199Y-122977759D03*
D12*
X174924199Y-123702759D03*
X173574199Y-123702759D03*
%TD*%
D11*
%TO.C,H1*%
X180519200Y-125677760D03*
X177979200Y-125677760D03*
%TD*%
D14*
%TO.C,J1*%
X162200000Y-123350000D03*
X163000000Y-123350000D03*
X163800000Y-123350000D03*
X164600000Y-123350000D03*
X165400000Y-123350000D03*
X166200000Y-123350000D03*
X167000000Y-123350000D03*
X167800000Y-123350000D03*
D15*
X160900000Y-125300000D03*
X169100000Y-125300000D03*
%TD*%
D11*
%TO.C,H2*%
X175519200Y-125677760D03*
X172979200Y-125677760D03*
%TD*%
M02*
