M48
; DRILL file {KiCad (7.0.0)} date Tue Apr  4 09:59:12 2023
; FORMAT={-:-/ absolute / inch / decimal}
; #@! TF.CreationDate,2023-04-04T09:59:12-04:00
; #@! TF.GenerationSoftware,Kicad,Pcbnew,(7.0.0)
; #@! TF.FileFunction,Plated,1,2,PTH
FMAT,2
INCH
; #@! TA.AperFunction,Plated,PTH,ViaDrill
T1C0.0157
%
G90
G05
T1
X6.3238Y-5.0295
X6.3238Y-5.3839
X6.3238Y-5.7382
X6.3238Y-6.0925
X6.3238Y-6.4469
X6.3238Y-6.8012
X6.3268Y-4.7864
X6.3268Y-5.1407
X6.3268Y-5.4951
X6.3268Y-5.8494
X6.3268Y-6.2037
X6.3268Y-6.5581
X6.4291Y-4.9449
X6.4291Y-5.2992
X6.4291Y-5.6535
X6.4291Y-6.0079
X6.4291Y-6.3622
X6.4291Y-6.7165
X6.5Y-5.0354
X6.5Y-5.3898
X6.5Y-5.7441
X6.5Y-6.0984
X6.5Y-6.4528
X6.5Y-6.8071
X6.5433Y-4.9291
X6.5433Y-5.2835
X6.5433Y-5.6378
X6.5433Y-5.9921
X6.5433Y-6.3465
X6.5433Y-6.7008
X6.7323Y-4.9173
X6.7323Y-5.2717
X6.7323Y-5.626
X6.7323Y-5.9803
X6.7323Y-6.3346
X6.7323Y-6.689
X6.7598Y-4.7717
X6.7598Y-5.126
X6.7598Y-5.4803
X6.7598Y-5.8346
X6.7598Y-6.189
X6.7598Y-6.5433
X6.7913Y-4.8661
X6.7913Y-5.2205
X6.7913Y-5.5748
X6.7913Y-5.9291
X6.7913Y-6.2835
X6.7913Y-6.6378
X6.9764Y-4.7717
X6.9764Y-5.126
X6.9764Y-5.4803
X6.9764Y-5.8346
X6.9764Y-6.189
X6.9764Y-6.5433
X6.9882Y-5.0433
X6.9882Y-5.3976
X6.9882Y-5.752
X6.9882Y-6.1063
X6.9882Y-6.4606
X6.9882Y-6.815
X7.0551Y-4.9833
X7.0551Y-5.3376
X7.0551Y-5.6919
X7.0551Y-6.0463
X7.0551Y-6.4006
X7.0551Y-6.7549
X7.1417Y-4.8898
X7.1417Y-5.2441
X7.1417Y-5.5984
X7.1417Y-5.9528
X7.1417Y-6.3071
X7.1417Y-6.6614
X7.2579Y-4.7904
X7.2579Y-5.1447
X7.2579Y-5.499
X7.2579Y-5.8533
X7.2579Y-6.2077
X7.2579Y-6.562
X7.2638Y-5.0315
X7.2638Y-5.3858
X7.2638Y-5.7402
X7.2638Y-6.0945
X7.2638Y-6.4488
X7.2638Y-6.8031
X7.3868Y-5.0295
X7.3868Y-5.3917
X7.3868Y-5.7382
X7.3898Y-4.7864
X7.3898Y-5.1486
X7.3898Y-5.4951
X7.3947Y-6.0925
X7.3947Y-6.4469
X7.3947Y-6.8012
X7.3976Y-5.8494
X7.3976Y-6.2037
X7.3976Y-6.5581
X7.4921Y-4.9449
X7.4921Y-5.3071
X7.4921Y-5.6535
X7.5Y-6.0079
X7.5Y-6.3622
X7.5Y-6.7165
X7.563Y-5.0354
X7.563Y-5.3976
X7.563Y-5.7441
X7.5709Y-6.0984
X7.5709Y-6.4528
X7.5709Y-6.8071
X7.6063Y-4.9291
X7.6063Y-5.2913
X7.6063Y-5.6378
X7.6142Y-5.9921
X7.6142Y-6.3465
X7.6142Y-6.7008
X7.7953Y-4.9173
X7.7953Y-5.2795
X7.7953Y-5.626
X7.8031Y-5.9803
X7.8031Y-6.3346
X7.8031Y-6.689
X7.8228Y-4.7717
X7.8228Y-5.1339
X7.8228Y-5.4803
X7.8307Y-5.8346
X7.8307Y-6.189
X7.8307Y-6.5433
X7.8543Y-4.8661
X7.8543Y-5.2283
X7.8543Y-5.5748
X7.8622Y-5.9291
X7.8622Y-6.2835
X7.8622Y-6.6378
X8.0394Y-4.7717
X8.0394Y-5.1339
X8.0394Y-5.4803
X8.0472Y-5.8346
X8.0472Y-6.189
X8.0472Y-6.5433
X8.0512Y-5.0433
X8.0512Y-5.4055
X8.0512Y-5.752
X8.0591Y-6.1063
X8.0591Y-6.4606
X8.0591Y-6.815
X8.1181Y-4.9833
X8.1181Y-5.3455
X8.1181Y-5.6919
X8.126Y-6.0463
X8.126Y-6.4006
X8.126Y-6.7549
X8.2047Y-4.8898
X8.2047Y-5.252
X8.2047Y-5.5984
X8.2126Y-5.9528
X8.2126Y-6.3071
X8.2126Y-6.6614
X8.3209Y-4.7904
X8.3209Y-5.1526
X8.3209Y-5.499
X8.3268Y-5.0315
X8.3268Y-5.3937
X8.3268Y-5.7402
X8.3287Y-5.8533
X8.3287Y-6.2077
X8.3287Y-6.562
X8.3346Y-6.0945
X8.3346Y-6.4488
X8.3346Y-6.8031
X8.4498Y-5.0295
X8.4498Y-5.3917
X8.4498Y-5.7382
X8.4498Y-6.0925
X8.4498Y-6.4469
X8.4498Y-6.8012
X8.4528Y-4.7864
X8.4528Y-5.1486
X8.4528Y-5.4951
X8.4528Y-5.8494
X8.4528Y-6.2037
X8.4528Y-6.5581
X8.5551Y-4.9449
X8.5551Y-5.3071
X8.5551Y-5.6535
X8.5551Y-6.0079
X8.5551Y-6.3622
X8.5551Y-6.7165
X8.626Y-5.0354
X8.626Y-5.3976
X8.626Y-5.7441
X8.626Y-6.0984
X8.626Y-6.4528
X8.626Y-6.8071
X8.6693Y-4.9291
X8.6693Y-5.2913
X8.6693Y-5.6378
X8.6693Y-5.9921
X8.6693Y-6.3465
X8.6693Y-6.7008
X8.8583Y-4.9173
X8.8583Y-5.2795
X8.8583Y-5.626
X8.8583Y-5.9803
X8.8583Y-6.3346
X8.8583Y-6.689
X8.8858Y-4.7717
X8.8858Y-5.1339
X8.8858Y-5.4803
X8.8858Y-5.8346
X8.8858Y-6.189
X8.8858Y-6.5433
X8.9173Y-4.8661
X8.9173Y-5.2283
X8.9173Y-5.5748
X8.9173Y-5.9291
X8.9173Y-6.2835
X8.9173Y-6.6378
X9.1024Y-4.7717
X9.1024Y-5.1339
X9.1024Y-5.4803
X9.1024Y-5.8346
X9.1024Y-6.189
X9.1024Y-6.5433
X9.1142Y-5.0433
X9.1142Y-5.4055
X9.1142Y-5.752
X9.1142Y-6.1063
X9.1142Y-6.4606
X9.1142Y-6.815
X9.1811Y-4.9833
X9.1811Y-5.3455
X9.1811Y-5.6919
X9.1811Y-6.0463
X9.1811Y-6.4006
X9.1811Y-6.7549
X9.2677Y-4.8898
X9.2677Y-5.252
X9.2677Y-5.5984
X9.2677Y-5.9528
X9.2677Y-6.3071
X9.2677Y-6.6614
X9.3839Y-4.7904
X9.3839Y-5.1526
X9.3839Y-5.499
X9.3839Y-5.8533
X9.3839Y-6.2077
X9.3839Y-6.562
X9.3898Y-5.0315
X9.3898Y-5.3937
X9.3898Y-5.7402
X9.3898Y-6.0945
X9.3898Y-6.4488
X9.3898Y-6.8031
X9.5128Y-5.0295
X9.5128Y-5.3917
X9.5128Y-5.7382
X9.5128Y-6.0925
X9.5128Y-6.4469
X9.5128Y-6.8012
X9.5157Y-4.7864
X9.5157Y-5.1486
X9.5157Y-5.4951
X9.5157Y-5.8494
X9.5157Y-6.2037
X9.5157Y-6.5581
X9.6181Y-4.9449
X9.6181Y-5.3071
X9.6181Y-5.6535
X9.6181Y-6.0079
X9.6181Y-6.3622
X9.6181Y-6.7165
X9.689Y-5.0354
X9.689Y-5.3976
X9.689Y-5.7441
X9.689Y-6.0984
X9.689Y-6.4528
X9.689Y-6.8071
X9.7323Y-4.9291
X9.7323Y-5.2913
X9.7323Y-5.6378
X9.7323Y-5.9921
X9.7323Y-6.3465
X9.7323Y-6.7008
X9.9213Y-4.9173
X9.9213Y-5.2795
X9.9213Y-5.626
X9.9213Y-5.9803
X9.9213Y-6.3346
X9.9213Y-6.689
X9.9488Y-4.7717
X9.9488Y-5.1339
X9.9488Y-5.4803
X9.9488Y-5.8346
X9.9488Y-6.189
X9.9488Y-6.5433
X9.9803Y-4.8661
X9.9803Y-5.2283
X9.9803Y-5.5748
X9.9803Y-5.9291
X9.9803Y-6.2835
X9.9803Y-6.6378
X10.1654Y-4.7717
X10.1654Y-5.1339
X10.1654Y-5.4803
X10.1654Y-5.8346
X10.1654Y-6.189
X10.1654Y-6.5433
X10.1772Y-5.0433
X10.1772Y-5.4055
X10.1772Y-5.752
X10.1772Y-6.1063
X10.1772Y-6.4606
X10.1772Y-6.815
X10.2441Y-4.9833
X10.2441Y-5.3455
X10.2441Y-5.6919
X10.2441Y-6.0463
X10.2441Y-6.4006
X10.2441Y-6.7549
X10.3307Y-4.8898
X10.3307Y-5.252
X10.3307Y-5.5984
X10.3307Y-5.9528
X10.3307Y-6.3071
X10.3307Y-6.6614
X10.4469Y-4.7904
X10.4469Y-5.1526
X10.4469Y-5.499
X10.4469Y-5.8533
X10.4469Y-6.2077
X10.4469Y-6.562
X10.4528Y-5.0315
X10.4528Y-5.3937
X10.4528Y-5.7402
X10.4528Y-6.0945
X10.4528Y-6.4488
X10.4528Y-6.8031
T0
M30
