M48
; DRILL file {KiCad (7.0.0)} date Tue Apr  4 09:59:12 2023
; FORMAT={-:-/ absolute / inch / decimal}
; #@! TF.CreationDate,2023-04-04T09:59:12-04:00
; #@! TF.GenerationSoftware,Kicad,Pcbnew,(7.0.0)
; #@! TF.FileFunction,NonPlated,1,2,NPTH
FMAT,2
INCH
; #@! TA.AperFunction,NonPlated,NPTH,ComponentDrill
T1C0.0460
%
G90
G05
T1
X6.8102Y-4.9479
X6.8102Y-5.3023
X6.8102Y-5.6566
X6.8102Y-6.0109
X6.8102Y-6.3653
X6.8102Y-6.7196
X6.9102Y-4.9479
X6.9102Y-5.3023
X6.9102Y-5.6566
X6.9102Y-6.0109
X6.9102Y-6.3653
X6.9102Y-6.7196
X7.0071Y-4.9479
X7.0071Y-5.3023
X7.0071Y-5.6566
X7.0071Y-6.0109
X7.0071Y-6.3653
X7.0071Y-6.7196
X7.1071Y-4.9479
X7.1071Y-5.3023
X7.1071Y-5.6566
X7.1071Y-6.0109
X7.1071Y-6.3653
X7.1071Y-6.7196
X7.8732Y-4.9479
X7.8732Y-5.3101
X7.8732Y-5.6566
X7.8811Y-6.0109
X7.8811Y-6.3653
X7.8811Y-6.7196
X7.9732Y-4.9479
X7.9732Y-5.3101
X7.9732Y-5.6566
X7.9811Y-6.0109
X7.9811Y-6.3653
X7.9811Y-6.7196
X8.07Y-4.9479
X8.07Y-5.3101
X8.07Y-5.6566
X8.0779Y-6.0109
X8.0779Y-6.3653
X8.0779Y-6.7196
X8.17Y-4.9479
X8.17Y-5.3101
X8.17Y-5.6566
X8.1779Y-6.0109
X8.1779Y-6.3653
X8.1779Y-6.7196
X8.9362Y-4.9479
X8.9362Y-5.3101
X8.9362Y-5.6566
X8.9362Y-6.0109
X8.9362Y-6.3653
X8.9362Y-6.7196
X9.0362Y-4.9479
X9.0362Y-5.3101
X9.0362Y-5.6566
X9.0362Y-6.0109
X9.0362Y-6.3653
X9.0362Y-6.7196
X9.133Y-4.9479
X9.133Y-5.3101
X9.133Y-5.6566
X9.133Y-6.0109
X9.133Y-6.3653
X9.133Y-6.7196
X9.233Y-4.9479
X9.233Y-5.3101
X9.233Y-5.6566
X9.233Y-6.0109
X9.233Y-6.3653
X9.233Y-6.7196
X9.9992Y-4.9479
X9.9992Y-5.3101
X9.9992Y-5.6566
X9.9992Y-6.0109
X9.9992Y-6.3653
X9.9992Y-6.7196
X10.0992Y-4.9479
X10.0992Y-5.3101
X10.0992Y-5.6566
X10.0992Y-6.0109
X10.0992Y-6.3653
X10.0992Y-6.7196
X10.196Y-4.9479
X10.196Y-5.3101
X10.196Y-5.6566
X10.196Y-6.0109
X10.196Y-6.3653
X10.196Y-6.7196
X10.296Y-4.9479
X10.296Y-5.3101
X10.296Y-5.6566
X10.296Y-6.0109
X10.296Y-6.3653
X10.296Y-6.7196
T0
M30
