G75*
%MOIN*%
%OFA0B0*%
%FSLAX25Y25*%
%IPPOS*%
%LPD*%
%AMOC8*
5,1,8,0,0,1.08239X$1,22.5*
%
%ADD10C,0.04724*%
%ADD11R,0.06220X0.12913*%
%ADD12R,0.04515X0.03815*%
%ADD13R,0.03315X0.03015*%
%ADD14R,0.02295X0.01717*%
%ADD15R,0.04252X0.02480*%
%ADD16R,0.05115X0.03915*%
%ADD17R,0.03015X0.03315*%
%ADD18R,0.01685X0.06024*%
%ADD19R,0.05115X0.07715*%
%ADD20R,0.10315X0.04315*%
%ADD21R,0.09567X0.20394*%
%ADD22R,0.04115X0.06315*%
%ADD23R,0.05827X0.04252*%
%ADD24R,0.04252X0.05827*%
%ADD25R,0.07715X0.05115*%
%ADD26C,0.02815*%
%ADD27R,0.06815X0.11315*%
%ADD28R,0.01693X0.02677*%
%ADD29C,0.16063*%
%ADD30R,0.42520X0.16732*%
%ADD31R,0.42520X0.15748*%
%ADD32C,0.07402*%
%ADD33C,0.09370*%
%ADD34R,0.23937X0.11339*%
%ADD35R,0.12126X0.01634*%
%ADD36R,0.06855X0.02015*%
%ADD37R,0.02015X0.06855*%
%ADD38R,0.01693X0.03661*%
%ADD39C,0.02795*%
%ADD40R,0.02283X0.01299*%
%ADD41R,0.02283X0.01988*%
%ADD42R,0.07205X0.06220*%
%ADD43R,0.05059X0.01417*%
%ADD44R,0.01496X0.03680*%
%ADD45R,0.18425X0.18425*%
%ADD46C,0.14915*%
%ADD47C,0.05515*%
%ADD48R,0.06122X0.02087*%
%ADD49R,0.12520X0.12520*%
%ADD50R,0.02677X0.01299*%
%ADD51R,0.01299X0.02677*%
%ADD52R,0.06614X0.01496*%
%ADD53R,0.06614X0.01890*%
%ADD54R,0.06496X0.07756*%
%ADD55R,0.10157X0.10157*%
%ADD56R,0.03015X0.01614*%
%ADD57R,0.01614X0.03015*%
%ADD58R,0.11315X0.06815*%
%ADD59R,0.01260X0.02677*%
%ADD60R,0.16457X0.16457*%
%ADD61R,0.02677X0.01260*%
%ADD62R,0.06315X0.04115*%
%ADD63R,0.04488X0.04488*%
%ADD64C,0.04488*%
%ADD65R,0.04646X0.02283*%
%ADD66R,0.07008X0.05039*%
D10*
X0053283Y0260173D03*
X0058283Y0265173D03*
X0053283Y0270173D03*
X0053283Y0277890D03*
X0058283Y0282890D03*
X0053283Y0287890D03*
X0053283Y0295606D03*
X0058283Y0300606D03*
X0053283Y0305606D03*
X0053283Y0315291D03*
X0058283Y0320291D03*
X0053283Y0325291D03*
X0053283Y0334976D03*
X0058283Y0339976D03*
X0053283Y0344976D03*
X0063283Y0344976D03*
X0063283Y0334976D03*
X0063283Y0325291D03*
X0063283Y0315291D03*
X0063283Y0305606D03*
X0063283Y0295606D03*
X0063283Y0287890D03*
X0063283Y0277890D03*
X0063283Y0270173D03*
X0063283Y0260173D03*
D11*
X0072850Y0268323D03*
X0072850Y0283283D03*
X0072850Y0298244D03*
X0089386Y0298244D03*
X0089386Y0283283D03*
X0089386Y0268323D03*
D12*
X0105921Y0282246D03*
X0105921Y0289046D03*
X0113402Y0289046D03*
X0113402Y0282246D03*
X0120882Y0282246D03*
X0120882Y0289046D03*
X0159858Y0289046D03*
X0159858Y0282246D03*
X0167339Y0282246D03*
X0167339Y0289046D03*
X0174819Y0289046D03*
X0174819Y0282246D03*
D13*
X0181512Y0283546D03*
X0181512Y0287746D03*
X0181512Y0275935D03*
X0181512Y0271735D03*
X0186630Y0271735D03*
X0186630Y0275935D03*
X0191748Y0275935D03*
X0191748Y0271735D03*
X0196866Y0271735D03*
X0196866Y0275935D03*
X0168126Y0316223D03*
X0168126Y0320423D03*
X0163008Y0320423D03*
X0163008Y0316223D03*
X0153165Y0287746D03*
X0153165Y0283546D03*
X0142535Y0276722D03*
X0142535Y0272522D03*
X0137417Y0272522D03*
X0137417Y0276722D03*
X0132299Y0276722D03*
X0132299Y0272522D03*
X0133874Y0266092D03*
X0133874Y0261892D03*
X0138992Y0261892D03*
X0138992Y0266092D03*
X0127575Y0283546D03*
X0127575Y0287746D03*
X0127181Y0276722D03*
X0127181Y0272522D03*
X0136236Y0322522D03*
X0136236Y0326722D03*
X0133980Y0355795D03*
X0133980Y0359995D03*
X0142727Y0359997D03*
X0142727Y0355797D03*
X0148047Y0338139D03*
X0148047Y0333939D03*
X0165721Y0364096D03*
X0165721Y0368296D03*
X0165721Y0373096D03*
X0165721Y0377296D03*
X0171040Y0377296D03*
X0171040Y0373096D03*
X0171040Y0368296D03*
X0171040Y0364096D03*
X0106709Y0365435D03*
X0106709Y0369635D03*
X0085449Y0340895D03*
X0085449Y0336695D03*
X0085843Y0316880D03*
X0085843Y0312680D03*
X0098441Y0286171D03*
X0098441Y0281971D03*
X0242535Y0270423D03*
X0242535Y0266223D03*
X0248047Y0266223D03*
X0248047Y0270423D03*
X0248441Y0313467D03*
X0248441Y0317667D03*
X0248441Y0322128D03*
X0248441Y0326328D03*
X0243323Y0326328D03*
X0243323Y0322128D03*
X0243323Y0317667D03*
X0243323Y0313467D03*
X0249332Y0374976D03*
X0249332Y0379176D03*
X0254745Y0379176D03*
X0254745Y0374976D03*
X0260159Y0374976D03*
X0260159Y0379176D03*
X0265572Y0379176D03*
X0265572Y0374976D03*
X0279937Y0352706D03*
X0279937Y0348506D03*
X0279937Y0339320D03*
X0279937Y0335120D03*
X0277969Y0203887D03*
X0277969Y0199687D03*
X0272850Y0199687D03*
X0272850Y0203887D03*
X0241354Y0204281D03*
X0241354Y0200081D03*
D14*
X0175018Y0273016D03*
X0175018Y0277016D03*
X0169896Y0275016D03*
X0121081Y0277016D03*
X0121081Y0273016D03*
X0115959Y0275016D03*
D15*
X0133283Y0281906D03*
X0133283Y0285646D03*
X0133283Y0289386D03*
X0143913Y0289386D03*
X0143913Y0281906D03*
X0187220Y0281906D03*
X0187220Y0285646D03*
X0187220Y0289386D03*
X0197850Y0289386D03*
X0197850Y0281906D03*
D16*
X0127575Y0267929D03*
X0127575Y0253756D03*
D17*
X0134530Y0256512D03*
X0138730Y0256512D03*
G36*
X0151949Y0248228D02*
X0149818Y0246097D01*
X0147475Y0248440D01*
X0149606Y0250571D01*
X0151949Y0248228D01*
G37*
G36*
X0154919Y0251198D02*
X0152788Y0249067D01*
X0150445Y0251410D01*
X0152576Y0253541D01*
X0154919Y0251198D01*
G37*
G36*
X0153774Y0254739D02*
X0155905Y0256870D01*
X0158248Y0254527D01*
X0156117Y0252396D01*
X0153774Y0254739D01*
G37*
G36*
X0156744Y0257709D02*
X0158875Y0259840D01*
X0161218Y0257497D01*
X0159087Y0255366D01*
X0156744Y0257709D01*
G37*
G36*
X0175177Y0261220D02*
X0173046Y0259089D01*
X0170703Y0261432D01*
X0172834Y0263563D01*
X0175177Y0261220D01*
G37*
G36*
X0178147Y0264190D02*
X0176016Y0262059D01*
X0173673Y0264402D01*
X0175804Y0266533D01*
X0178147Y0264190D01*
G37*
G36*
X0181690Y0260647D02*
X0179559Y0258516D01*
X0177216Y0260859D01*
X0179347Y0262990D01*
X0181690Y0260647D01*
G37*
G36*
X0178721Y0257677D02*
X0176590Y0255546D01*
X0174247Y0257889D01*
X0176378Y0260020D01*
X0178721Y0257677D01*
G37*
X0157517Y0338010D03*
X0153317Y0338010D03*
X0154104Y0343128D03*
X0158304Y0343128D03*
X0167994Y0357693D03*
X0172194Y0357693D03*
X0206183Y0313205D03*
X0210383Y0313205D03*
X0210383Y0308087D03*
X0206183Y0308087D03*
X0224294Y0287220D03*
X0228494Y0287220D03*
X0233349Y0287220D03*
X0237549Y0287220D03*
X0235777Y0292339D03*
X0231577Y0292339D03*
X0232824Y0276197D03*
X0228624Y0276197D03*
X0228624Y0270685D03*
X0232824Y0270685D03*
X0234793Y0246669D03*
X0230593Y0246669D03*
X0221801Y0246669D03*
X0217601Y0246669D03*
X0212746Y0246669D03*
X0208546Y0246669D03*
X0207365Y0224622D03*
X0211565Y0224622D03*
X0229412Y0224622D03*
X0233612Y0224622D03*
X0239648Y0246669D03*
X0243848Y0246669D03*
X0252246Y0245488D03*
X0256446Y0245488D03*
X0261302Y0245488D03*
X0265502Y0245488D03*
X0255265Y0223441D03*
X0251065Y0223441D03*
X0261695Y0189976D03*
X0265895Y0189976D03*
X0271774Y0146748D03*
X0275974Y0146748D03*
X0275672Y0118244D03*
X0279872Y0118244D03*
X0235187Y0189976D03*
X0230987Y0189976D03*
X0244569Y0306669D03*
X0248769Y0306669D03*
X0264259Y0340560D03*
X0268459Y0340560D03*
X0092273Y0325016D03*
X0088073Y0325016D03*
D18*
X0202091Y0292142D03*
X0204650Y0292142D03*
X0207209Y0292142D03*
X0209768Y0292142D03*
X0209768Y0268913D03*
X0207209Y0268913D03*
X0204650Y0268913D03*
X0202091Y0268913D03*
D19*
X0155728Y0323835D03*
X0142728Y0323835D03*
X0126988Y0368323D03*
X0113988Y0368323D03*
D20*
X0074819Y0344870D03*
X0074819Y0335870D03*
X0075213Y0323610D03*
X0075213Y0314610D03*
D21*
X0101295Y0319898D03*
X0108776Y0351000D03*
X0117634Y0319898D03*
X0125114Y0351000D03*
D22*
X0134210Y0368033D03*
X0142410Y0368033D03*
X0144273Y0313205D03*
X0136073Y0313205D03*
X0214813Y0217535D03*
X0223013Y0217535D03*
X0232924Y0217535D03*
X0241124Y0217535D03*
X0254577Y0216354D03*
X0262777Y0216354D03*
X0264746Y0252575D03*
X0256546Y0252575D03*
X0243092Y0253756D03*
X0234892Y0253756D03*
X0225376Y0253756D03*
X0217176Y0253756D03*
X0262259Y0334064D03*
X0270459Y0334064D03*
D23*
X0161827Y0276394D03*
X0161827Y0268913D03*
X0153165Y0272654D03*
X0107496Y0276394D03*
X0107496Y0268913D03*
X0098835Y0272654D03*
D24*
X0099425Y0261925D03*
X0106905Y0261925D03*
X0103165Y0253264D03*
D25*
X0127969Y0312610D03*
X0127969Y0325610D03*
X0154637Y0362814D03*
X0154637Y0375814D03*
X0189189Y0376791D03*
X0189189Y0363791D03*
X0210252Y0175610D03*
X0210252Y0162610D03*
X0265173Y0312610D03*
X0265173Y0325610D03*
X0281512Y0174035D03*
X0281512Y0161035D03*
D26*
X0293657Y0161925D03*
X0293657Y0156925D03*
X0293657Y0151925D03*
X0298657Y0151925D03*
X0298657Y0156925D03*
X0298657Y0161925D03*
X0298657Y0166925D03*
X0293657Y0166925D03*
X0293657Y0171925D03*
X0293657Y0176925D03*
X0293657Y0181925D03*
X0293657Y0186925D03*
X0293657Y0191925D03*
X0293657Y0196925D03*
X0293657Y0201925D03*
X0293657Y0206925D03*
X0293657Y0211925D03*
X0293657Y0216925D03*
X0293657Y0221925D03*
X0293657Y0226925D03*
X0293657Y0231925D03*
X0293657Y0236925D03*
X0293657Y0241925D03*
X0293657Y0246925D03*
X0293657Y0251925D03*
X0293657Y0256925D03*
X0293657Y0261925D03*
X0293657Y0266925D03*
X0293657Y0271925D03*
X0293657Y0276925D03*
X0293657Y0281925D03*
X0293657Y0286925D03*
X0293657Y0291925D03*
X0293657Y0296925D03*
X0293657Y0301925D03*
X0293657Y0306925D03*
X0293657Y0311925D03*
X0293657Y0316925D03*
X0293657Y0321925D03*
X0293657Y0326925D03*
X0293657Y0331925D03*
X0293657Y0336925D03*
X0293657Y0341925D03*
X0293657Y0346925D03*
X0298657Y0346925D03*
X0298657Y0341925D03*
X0298657Y0336925D03*
X0298657Y0331925D03*
X0298657Y0326925D03*
X0298657Y0321925D03*
X0298657Y0316925D03*
X0298657Y0311925D03*
X0298657Y0306925D03*
X0298657Y0301925D03*
X0298657Y0296925D03*
X0298657Y0291925D03*
X0298657Y0286925D03*
X0298657Y0281925D03*
X0298657Y0276925D03*
X0298657Y0271925D03*
X0298657Y0266925D03*
X0298657Y0261925D03*
X0298657Y0256925D03*
X0298657Y0251925D03*
X0298657Y0246925D03*
X0298657Y0241925D03*
X0298657Y0236925D03*
X0298657Y0231925D03*
X0298657Y0226925D03*
X0298657Y0221925D03*
X0298657Y0216925D03*
X0298657Y0211925D03*
X0298657Y0206925D03*
X0298657Y0201925D03*
X0298657Y0196925D03*
X0298657Y0191925D03*
X0298657Y0186925D03*
X0298657Y0181925D03*
X0298657Y0176925D03*
X0298657Y0171925D03*
X0303657Y0171925D03*
X0303657Y0166925D03*
X0303657Y0161925D03*
X0303657Y0156925D03*
X0303657Y0151925D03*
X0308657Y0151925D03*
X0308657Y0156925D03*
X0308657Y0161925D03*
X0308657Y0166925D03*
X0308657Y0171925D03*
X0308657Y0176925D03*
X0303657Y0176925D03*
X0303657Y0181925D03*
X0303657Y0186925D03*
X0303657Y0191925D03*
X0303657Y0196925D03*
X0303657Y0201925D03*
X0303657Y0206925D03*
X0303657Y0211925D03*
X0303657Y0216925D03*
X0303657Y0221925D03*
X0303657Y0226925D03*
X0303657Y0231925D03*
X0303657Y0236925D03*
X0303657Y0241925D03*
X0303657Y0246925D03*
X0303657Y0251925D03*
X0303657Y0256925D03*
X0303657Y0261925D03*
X0303657Y0266925D03*
X0303657Y0271925D03*
X0303657Y0276925D03*
X0303657Y0281925D03*
X0303657Y0286925D03*
X0303657Y0291925D03*
X0303657Y0296925D03*
X0303657Y0301925D03*
X0303657Y0306925D03*
X0303657Y0311925D03*
X0303657Y0316925D03*
X0303657Y0321925D03*
X0303657Y0326925D03*
X0303657Y0331925D03*
X0303657Y0336925D03*
X0303657Y0341925D03*
X0303657Y0346925D03*
X0308657Y0346925D03*
X0308657Y0341925D03*
X0308657Y0336925D03*
X0308657Y0331925D03*
X0308657Y0326925D03*
X0308657Y0321925D03*
X0308657Y0316925D03*
X0308657Y0311925D03*
X0308657Y0306925D03*
X0308657Y0301925D03*
X0308657Y0296925D03*
X0308657Y0291925D03*
X0308657Y0286925D03*
X0308657Y0281925D03*
X0308657Y0276925D03*
X0308657Y0271925D03*
X0308657Y0266925D03*
X0308657Y0261925D03*
X0308657Y0256925D03*
X0308657Y0251925D03*
X0308657Y0246925D03*
X0308657Y0241925D03*
X0308657Y0236925D03*
X0308657Y0231925D03*
X0308657Y0226925D03*
X0308657Y0221925D03*
X0308657Y0216925D03*
X0308657Y0211925D03*
X0308657Y0206925D03*
X0308657Y0201925D03*
X0308657Y0196925D03*
X0308657Y0191925D03*
X0308657Y0186925D03*
X0308657Y0181925D03*
X0313657Y0181925D03*
X0313657Y0176925D03*
X0313657Y0171925D03*
X0313657Y0166925D03*
X0313657Y0161925D03*
X0313657Y0156925D03*
X0313657Y0151925D03*
X0318657Y0151925D03*
X0318657Y0156925D03*
X0318657Y0161925D03*
X0318657Y0166925D03*
X0318657Y0171925D03*
X0318657Y0176925D03*
X0318657Y0181925D03*
X0318657Y0186925D03*
X0313657Y0186925D03*
X0313657Y0191925D03*
X0313657Y0196925D03*
X0313657Y0201925D03*
X0313657Y0206925D03*
X0313657Y0211925D03*
X0313657Y0216925D03*
X0313657Y0221925D03*
X0313657Y0226925D03*
X0313657Y0231925D03*
X0313657Y0236925D03*
X0313657Y0241925D03*
X0313657Y0246925D03*
X0313657Y0251925D03*
X0313657Y0256925D03*
X0313657Y0261925D03*
X0313657Y0266925D03*
X0313657Y0271925D03*
X0313657Y0276925D03*
X0313657Y0281925D03*
X0313657Y0286925D03*
X0313657Y0291925D03*
X0313657Y0296925D03*
X0313657Y0301925D03*
X0313657Y0306925D03*
X0313657Y0311925D03*
X0313657Y0316925D03*
X0313657Y0321925D03*
X0313657Y0326925D03*
X0313657Y0331925D03*
X0313657Y0336925D03*
X0313657Y0341925D03*
X0313657Y0346925D03*
X0318657Y0346925D03*
X0318657Y0341925D03*
X0318657Y0336925D03*
X0318657Y0331925D03*
X0318657Y0326925D03*
X0318657Y0321925D03*
X0318657Y0316925D03*
X0318657Y0311925D03*
X0318657Y0306925D03*
X0318657Y0301925D03*
X0318657Y0296925D03*
X0318657Y0291925D03*
X0318657Y0286925D03*
X0318657Y0281925D03*
X0318657Y0276925D03*
X0318657Y0271925D03*
X0318657Y0266925D03*
X0318657Y0261925D03*
X0318657Y0256925D03*
X0318657Y0251925D03*
X0318657Y0246925D03*
X0318657Y0241925D03*
X0318657Y0236925D03*
X0318657Y0231925D03*
X0318657Y0226925D03*
X0318657Y0221925D03*
X0318657Y0216925D03*
X0318657Y0211925D03*
X0318657Y0206925D03*
X0318657Y0201925D03*
X0318657Y0196925D03*
X0318657Y0191925D03*
X0323657Y0191925D03*
X0323657Y0186925D03*
X0323657Y0181925D03*
X0323657Y0176925D03*
X0323657Y0171925D03*
X0323657Y0166925D03*
X0323657Y0161925D03*
X0323657Y0156925D03*
X0323657Y0151925D03*
X0328657Y0151925D03*
X0328657Y0156925D03*
X0328657Y0161925D03*
X0328657Y0166925D03*
X0328657Y0171925D03*
X0328657Y0176925D03*
X0328657Y0181925D03*
X0328657Y0186925D03*
X0328657Y0191925D03*
X0328657Y0196925D03*
X0323657Y0196925D03*
X0323657Y0201925D03*
X0323657Y0206925D03*
X0323657Y0211925D03*
X0323657Y0216925D03*
X0323657Y0221925D03*
X0323657Y0226925D03*
X0323657Y0231925D03*
X0323657Y0236925D03*
X0323657Y0241925D03*
X0323657Y0246925D03*
X0323657Y0251925D03*
X0323657Y0256925D03*
X0323657Y0261925D03*
X0323657Y0266925D03*
X0323657Y0271925D03*
X0323657Y0276925D03*
X0323657Y0281925D03*
X0323657Y0286925D03*
X0323657Y0291925D03*
X0323657Y0296925D03*
X0323657Y0301925D03*
X0323657Y0306925D03*
X0323657Y0311925D03*
X0323657Y0316925D03*
X0323657Y0321925D03*
X0323657Y0326925D03*
X0323657Y0331925D03*
X0323657Y0336925D03*
X0323657Y0341925D03*
X0323657Y0346925D03*
X0328657Y0346925D03*
X0328657Y0341925D03*
X0328657Y0336925D03*
X0328657Y0331925D03*
X0328657Y0326925D03*
X0328657Y0321925D03*
X0328657Y0316925D03*
X0328657Y0311925D03*
X0328657Y0306925D03*
X0328657Y0301925D03*
X0328657Y0296925D03*
X0328657Y0291925D03*
X0328657Y0286925D03*
X0328657Y0281925D03*
X0328657Y0276925D03*
X0328657Y0271925D03*
X0328657Y0266925D03*
X0328657Y0261925D03*
X0328657Y0256925D03*
X0328657Y0251925D03*
X0328657Y0246925D03*
X0328657Y0241925D03*
X0328657Y0236925D03*
X0328657Y0231925D03*
X0328657Y0226925D03*
X0328657Y0221925D03*
X0328657Y0216925D03*
X0328657Y0211925D03*
X0328657Y0206925D03*
X0328657Y0201925D03*
X0333657Y0201925D03*
X0333657Y0196925D03*
X0333657Y0191925D03*
X0333657Y0186925D03*
X0333657Y0181925D03*
X0333657Y0176925D03*
X0333657Y0171925D03*
X0333657Y0166925D03*
X0333657Y0161925D03*
X0333657Y0156925D03*
X0333657Y0151925D03*
X0338657Y0151925D03*
X0338657Y0156925D03*
X0338657Y0161925D03*
X0338657Y0166925D03*
X0338657Y0171925D03*
X0338657Y0176925D03*
X0338657Y0181925D03*
X0338657Y0186925D03*
X0338657Y0191925D03*
X0338657Y0196925D03*
X0338657Y0201925D03*
X0338657Y0206925D03*
X0333657Y0206925D03*
X0333657Y0211925D03*
X0333657Y0216925D03*
X0333657Y0221925D03*
X0333657Y0226925D03*
X0333657Y0231925D03*
X0333657Y0236925D03*
X0333657Y0241925D03*
X0333657Y0246925D03*
X0333657Y0251925D03*
X0333657Y0256925D03*
X0333657Y0261925D03*
X0333657Y0266925D03*
X0333657Y0271925D03*
X0333657Y0276925D03*
X0333657Y0281925D03*
X0333657Y0286925D03*
X0333657Y0291925D03*
X0333657Y0296925D03*
X0333657Y0301925D03*
X0333657Y0306925D03*
X0333657Y0311925D03*
X0333657Y0316925D03*
X0333657Y0321925D03*
X0333657Y0326925D03*
X0333657Y0331925D03*
X0333657Y0336925D03*
X0333657Y0341925D03*
X0333657Y0346925D03*
X0338657Y0346925D03*
X0338657Y0341925D03*
X0338657Y0336925D03*
X0338657Y0331925D03*
X0338657Y0326925D03*
X0338657Y0321925D03*
X0338657Y0316925D03*
X0338657Y0311925D03*
X0338657Y0306925D03*
X0338657Y0301925D03*
X0338657Y0296925D03*
X0338657Y0291925D03*
X0338657Y0286925D03*
X0338657Y0281925D03*
X0338657Y0276925D03*
X0338657Y0271925D03*
X0338657Y0266925D03*
X0338657Y0261925D03*
X0338657Y0256925D03*
X0338657Y0251925D03*
X0338657Y0246925D03*
X0338657Y0241925D03*
X0338657Y0236925D03*
X0338657Y0231925D03*
X0338657Y0226925D03*
X0338657Y0221925D03*
X0338657Y0216925D03*
X0338657Y0211925D03*
X0263564Y0346406D03*
X0258564Y0346406D03*
X0253564Y0346406D03*
X0248564Y0346406D03*
X0243564Y0346406D03*
X0243564Y0351406D03*
X0248564Y0351406D03*
X0253564Y0351406D03*
X0258564Y0351406D03*
X0263564Y0351406D03*
X0263564Y0356406D03*
X0258564Y0356406D03*
X0253564Y0356406D03*
X0248564Y0356406D03*
X0243564Y0356406D03*
X0243564Y0361406D03*
X0248564Y0361406D03*
X0253564Y0361406D03*
X0258564Y0361406D03*
X0263564Y0361406D03*
X0263564Y0366406D03*
X0258564Y0366406D03*
X0253564Y0366406D03*
X0248564Y0366406D03*
X0243564Y0366406D03*
D27*
X0235437Y0367142D03*
X0224437Y0367142D03*
X0224245Y0345973D03*
X0218925Y0330724D03*
X0229925Y0330724D03*
X0235245Y0345973D03*
X0234256Y0199819D03*
X0223256Y0199819D03*
X0254752Y0199425D03*
X0265752Y0199425D03*
X0326406Y0125409D03*
X0337406Y0125409D03*
X0337406Y0373441D03*
X0326406Y0373441D03*
D28*
X0074524Y0330528D03*
X0071965Y0330528D03*
X0072752Y0309268D03*
X0075311Y0309268D03*
D29*
X0093323Y0357890D03*
X0093323Y0135252D03*
D30*
X0072260Y0134760D03*
D31*
X0072260Y0357890D03*
D32*
X0068520Y0174622D03*
X0068520Y0229740D03*
D33*
X0078362Y0239976D03*
X0078362Y0164386D03*
D34*
X0078362Y0149819D03*
X0078362Y0254543D03*
D35*
X0096866Y0233431D03*
X0096866Y0230931D03*
X0096866Y0228431D03*
X0096866Y0225931D03*
X0096866Y0223431D03*
X0096866Y0220931D03*
X0096866Y0218431D03*
X0096866Y0215931D03*
X0096866Y0213431D03*
X0096866Y0210931D03*
X0096866Y0208431D03*
X0096866Y0205931D03*
X0096866Y0203431D03*
X0096866Y0200931D03*
X0096866Y0198431D03*
X0096866Y0195931D03*
X0096866Y0193431D03*
X0096866Y0190931D03*
X0096866Y0188431D03*
X0096866Y0185931D03*
X0096866Y0183431D03*
X0096866Y0180931D03*
X0096866Y0178431D03*
X0096866Y0175931D03*
X0096866Y0173431D03*
X0096866Y0170931D03*
D36*
X0140075Y0170587D03*
X0140075Y0173146D03*
X0140075Y0175705D03*
X0140075Y0178264D03*
X0140075Y0180823D03*
X0140075Y0183382D03*
X0140075Y0185941D03*
X0140075Y0188500D03*
X0140075Y0191059D03*
X0140075Y0193618D03*
X0140075Y0196177D03*
X0140075Y0198736D03*
X0140075Y0201295D03*
X0140075Y0203854D03*
X0140075Y0206413D03*
X0140075Y0208972D03*
X0140075Y0211531D03*
X0140075Y0168028D03*
X0140075Y0165469D03*
X0140075Y0162909D03*
X0200114Y0162909D03*
X0200114Y0165469D03*
X0200114Y0168028D03*
X0200114Y0170587D03*
X0200114Y0173146D03*
X0200114Y0175705D03*
X0200114Y0178264D03*
X0200114Y0180823D03*
X0200114Y0183382D03*
X0200114Y0185941D03*
X0200114Y0188500D03*
X0200114Y0191059D03*
X0200114Y0193618D03*
X0200114Y0196177D03*
X0200114Y0198736D03*
X0200114Y0201295D03*
X0200114Y0203854D03*
X0200114Y0206413D03*
X0200114Y0208972D03*
X0200114Y0211531D03*
D37*
X0194406Y0217240D03*
X0191846Y0217240D03*
X0189287Y0217240D03*
X0186728Y0217240D03*
X0184169Y0217240D03*
X0181610Y0217240D03*
X0179051Y0217240D03*
X0176492Y0217240D03*
X0173933Y0217240D03*
X0171374Y0217240D03*
X0168815Y0217240D03*
X0166256Y0217240D03*
X0163697Y0217240D03*
X0161138Y0217240D03*
X0158579Y0217240D03*
X0156020Y0217240D03*
X0153461Y0217240D03*
X0150902Y0217240D03*
X0148343Y0217240D03*
X0145783Y0217240D03*
X0145783Y0157201D03*
X0148343Y0157201D03*
X0150902Y0157201D03*
X0153461Y0157201D03*
X0156020Y0157201D03*
X0158579Y0157201D03*
X0161138Y0157201D03*
X0163697Y0157201D03*
X0166256Y0157201D03*
X0168815Y0157201D03*
X0171374Y0157201D03*
X0173933Y0157201D03*
X0176492Y0157201D03*
X0179051Y0157201D03*
X0181610Y0157201D03*
X0184169Y0157201D03*
X0186728Y0157201D03*
X0189287Y0157201D03*
X0191846Y0157201D03*
X0194406Y0157201D03*
D38*
X0209169Y0229445D03*
X0211728Y0229445D03*
X0214287Y0229445D03*
X0216846Y0229445D03*
X0216846Y0241059D03*
X0214287Y0241059D03*
X0211728Y0241059D03*
X0209169Y0241059D03*
X0231217Y0241059D03*
X0233776Y0241059D03*
X0236335Y0241059D03*
X0238894Y0241059D03*
X0238894Y0229445D03*
X0236335Y0229445D03*
X0233776Y0229445D03*
X0231217Y0229445D03*
X0252870Y0228264D03*
X0255429Y0228264D03*
X0257988Y0228264D03*
X0260547Y0228264D03*
X0260547Y0239878D03*
X0257988Y0239878D03*
X0255429Y0239878D03*
X0252870Y0239878D03*
X0120685Y0259268D03*
X0118126Y0259268D03*
X0115567Y0259268D03*
X0115567Y0266354D03*
X0118126Y0266354D03*
X0120685Y0266354D03*
D39*
X0220685Y0184504D03*
X0225685Y0184504D03*
X0230685Y0184504D03*
X0235685Y0184504D03*
X0240685Y0184504D03*
X0240685Y0179504D03*
X0235685Y0179504D03*
X0230685Y0179504D03*
X0225685Y0179504D03*
X0220685Y0179504D03*
X0220685Y0174504D03*
X0225685Y0174504D03*
X0230685Y0174504D03*
X0235685Y0174504D03*
X0240685Y0174504D03*
X0240685Y0169504D03*
X0235685Y0169504D03*
X0230685Y0169504D03*
X0225685Y0169504D03*
X0220685Y0169504D03*
X0220685Y0164504D03*
X0225685Y0164504D03*
X0230685Y0164504D03*
X0235685Y0164504D03*
X0240685Y0164504D03*
X0240685Y0159504D03*
X0235685Y0159504D03*
X0230685Y0159504D03*
X0225685Y0159504D03*
X0220685Y0159504D03*
X0220685Y0154504D03*
X0225685Y0154504D03*
X0230685Y0154504D03*
X0235685Y0154504D03*
X0240685Y0154504D03*
X0245685Y0154504D03*
X0245685Y0159504D03*
X0245685Y0164504D03*
X0245685Y0169504D03*
X0245685Y0174504D03*
X0245685Y0179504D03*
X0245685Y0184504D03*
X0250685Y0184504D03*
X0255685Y0184504D03*
X0260685Y0184504D03*
X0265685Y0184504D03*
X0270685Y0184504D03*
X0270685Y0179504D03*
X0265685Y0179504D03*
X0260685Y0179504D03*
X0255685Y0179504D03*
X0250685Y0179504D03*
X0250685Y0174504D03*
X0255685Y0174504D03*
X0260685Y0174504D03*
X0265685Y0174504D03*
X0270685Y0174504D03*
X0270685Y0169504D03*
X0265685Y0169504D03*
X0260685Y0169504D03*
X0255685Y0169504D03*
X0250685Y0169504D03*
X0250685Y0164504D03*
X0255685Y0164504D03*
X0260685Y0164504D03*
X0265685Y0164504D03*
X0270685Y0164504D03*
X0270685Y0159504D03*
X0265685Y0159504D03*
X0260685Y0159504D03*
X0255685Y0159504D03*
X0250685Y0159504D03*
X0250685Y0154504D03*
X0255685Y0154504D03*
X0260685Y0154504D03*
X0265685Y0154504D03*
X0270685Y0154504D03*
D40*
X0131315Y0153953D03*
X0131315Y0155921D03*
X0131315Y0157890D03*
X0131315Y0159858D03*
X0125409Y0159858D03*
X0125409Y0157890D03*
X0125409Y0155921D03*
X0125409Y0153953D03*
X0125409Y0151984D03*
X0125409Y0150016D03*
X0131315Y0150016D03*
X0131315Y0151984D03*
X0131315Y0170094D03*
X0131315Y0172063D03*
X0131315Y0174031D03*
X0131315Y0176000D03*
X0131315Y0177969D03*
X0131315Y0179937D03*
X0125409Y0179937D03*
X0125409Y0177969D03*
X0125409Y0176000D03*
X0125409Y0174031D03*
X0125409Y0172063D03*
X0125409Y0170094D03*
X0125409Y0194898D03*
X0125409Y0196866D03*
X0125409Y0198835D03*
X0125409Y0200803D03*
X0125409Y0202772D03*
X0125409Y0204740D03*
X0131315Y0204740D03*
X0131315Y0202772D03*
X0131315Y0200803D03*
X0131315Y0198835D03*
X0131315Y0196866D03*
X0131315Y0194898D03*
X0131315Y0214583D03*
X0131315Y0216551D03*
X0131315Y0218520D03*
X0131315Y0220488D03*
X0131315Y0222457D03*
X0131315Y0224425D03*
X0125409Y0224425D03*
X0125409Y0222457D03*
X0125409Y0220488D03*
X0125409Y0218520D03*
X0125409Y0216551D03*
X0125409Y0214583D03*
D41*
X0125409Y0212270D03*
X0125409Y0207053D03*
X0131315Y0207053D03*
X0131315Y0212270D03*
X0131315Y0226738D03*
X0125409Y0226738D03*
X0125409Y0192585D03*
X0131315Y0192585D03*
X0131315Y0182250D03*
X0125409Y0182250D03*
X0125409Y0167781D03*
X0125409Y0162171D03*
X0131315Y0162171D03*
X0131315Y0167781D03*
X0131315Y0147703D03*
X0125409Y0147703D03*
D42*
X0213008Y0235252D03*
X0235055Y0235252D03*
X0256709Y0234071D03*
D43*
X0262417Y0235350D03*
X0262417Y0232791D03*
X0251000Y0232791D03*
X0251000Y0235350D03*
X0240764Y0236531D03*
X0240764Y0233972D03*
X0229346Y0233972D03*
X0229346Y0236531D03*
X0218717Y0236531D03*
X0218717Y0233972D03*
X0207299Y0233972D03*
X0207299Y0236531D03*
D44*
G36*
X0184368Y0240862D02*
X0183311Y0239805D01*
X0180710Y0242406D01*
X0181767Y0243463D01*
X0184368Y0240862D01*
G37*
G36*
X0182976Y0239470D02*
X0181919Y0238413D01*
X0179318Y0241014D01*
X0180375Y0242071D01*
X0182976Y0239470D01*
G37*
G36*
X0181584Y0238078D02*
X0180527Y0237021D01*
X0177926Y0239622D01*
X0178983Y0240679D01*
X0181584Y0238078D01*
G37*
G36*
X0180192Y0236686D02*
X0179135Y0235629D01*
X0176534Y0238230D01*
X0177591Y0239287D01*
X0180192Y0236686D01*
G37*
G36*
X0178800Y0235294D02*
X0177743Y0234237D01*
X0175142Y0236838D01*
X0176199Y0237895D01*
X0178800Y0235294D01*
G37*
G36*
X0177409Y0233902D02*
X0176352Y0232845D01*
X0173751Y0235446D01*
X0174808Y0236503D01*
X0177409Y0233902D01*
G37*
G36*
X0176017Y0232510D02*
X0174960Y0231453D01*
X0172359Y0234054D01*
X0173416Y0235111D01*
X0176017Y0232510D01*
G37*
G36*
X0174625Y0231118D02*
X0173568Y0230061D01*
X0170967Y0232662D01*
X0172024Y0233719D01*
X0174625Y0231118D01*
G37*
G36*
X0173233Y0229726D02*
X0172176Y0228669D01*
X0169575Y0231270D01*
X0170632Y0232327D01*
X0173233Y0229726D01*
G37*
G36*
X0171841Y0228334D02*
X0170784Y0227277D01*
X0168183Y0229878D01*
X0169240Y0230935D01*
X0171841Y0228334D01*
G37*
G36*
X0165468Y0227277D02*
X0164411Y0228334D01*
X0167012Y0230935D01*
X0168069Y0229878D01*
X0165468Y0227277D01*
G37*
G36*
X0164076Y0228669D02*
X0163019Y0229726D01*
X0165620Y0232327D01*
X0166677Y0231270D01*
X0164076Y0228669D01*
G37*
G36*
X0162684Y0230061D02*
X0161627Y0231118D01*
X0164228Y0233719D01*
X0165285Y0232662D01*
X0162684Y0230061D01*
G37*
G36*
X0161292Y0231453D02*
X0160235Y0232510D01*
X0162836Y0235111D01*
X0163893Y0234054D01*
X0161292Y0231453D01*
G37*
G36*
X0159900Y0232845D02*
X0158843Y0233902D01*
X0161444Y0236503D01*
X0162501Y0235446D01*
X0159900Y0232845D01*
G37*
G36*
X0158508Y0234237D02*
X0157451Y0235294D01*
X0160052Y0237895D01*
X0161109Y0236838D01*
X0158508Y0234237D01*
G37*
G36*
X0157117Y0235629D02*
X0156060Y0236686D01*
X0158661Y0239287D01*
X0159718Y0238230D01*
X0157117Y0235629D01*
G37*
G36*
X0155725Y0237021D02*
X0154668Y0238078D01*
X0157269Y0240679D01*
X0158326Y0239622D01*
X0155725Y0237021D01*
G37*
G36*
X0154333Y0238413D02*
X0153276Y0239470D01*
X0155877Y0242071D01*
X0156934Y0241014D01*
X0154333Y0238413D01*
G37*
G36*
X0152941Y0239805D02*
X0151884Y0240862D01*
X0154485Y0243463D01*
X0155542Y0242406D01*
X0152941Y0239805D01*
G37*
G36*
X0155542Y0244633D02*
X0154485Y0243576D01*
X0151884Y0246177D01*
X0152941Y0247234D01*
X0155542Y0244633D01*
G37*
G36*
X0156934Y0246025D02*
X0155877Y0244968D01*
X0153276Y0247569D01*
X0154333Y0248626D01*
X0156934Y0246025D01*
G37*
G36*
X0158326Y0247417D02*
X0157269Y0246360D01*
X0154668Y0248961D01*
X0155725Y0250018D01*
X0158326Y0247417D01*
G37*
G36*
X0159718Y0248809D02*
X0158661Y0247752D01*
X0156060Y0250353D01*
X0157117Y0251410D01*
X0159718Y0248809D01*
G37*
G36*
X0161109Y0250201D02*
X0160052Y0249144D01*
X0157451Y0251745D01*
X0158508Y0252802D01*
X0161109Y0250201D01*
G37*
G36*
X0162501Y0251593D02*
X0161444Y0250536D01*
X0158843Y0253137D01*
X0159900Y0254194D01*
X0162501Y0251593D01*
G37*
G36*
X0163893Y0252985D02*
X0162836Y0251928D01*
X0160235Y0254529D01*
X0161292Y0255586D01*
X0163893Y0252985D01*
G37*
G36*
X0165285Y0254377D02*
X0164228Y0253320D01*
X0161627Y0255921D01*
X0162684Y0256978D01*
X0165285Y0254377D01*
G37*
G36*
X0166677Y0255769D02*
X0165620Y0254712D01*
X0163019Y0257313D01*
X0164076Y0258370D01*
X0166677Y0255769D01*
G37*
G36*
X0168069Y0257161D02*
X0167012Y0256104D01*
X0164411Y0258705D01*
X0165468Y0259762D01*
X0168069Y0257161D01*
G37*
G36*
X0169240Y0256104D02*
X0168183Y0257161D01*
X0170784Y0259762D01*
X0171841Y0258705D01*
X0169240Y0256104D01*
G37*
G36*
X0170632Y0254712D02*
X0169575Y0255769D01*
X0172176Y0258370D01*
X0173233Y0257313D01*
X0170632Y0254712D01*
G37*
G36*
X0172024Y0253320D02*
X0170967Y0254377D01*
X0173568Y0256978D01*
X0174625Y0255921D01*
X0172024Y0253320D01*
G37*
G36*
X0173416Y0251928D02*
X0172359Y0252985D01*
X0174960Y0255586D01*
X0176017Y0254529D01*
X0173416Y0251928D01*
G37*
G36*
X0174808Y0250536D02*
X0173751Y0251593D01*
X0176352Y0254194D01*
X0177409Y0253137D01*
X0174808Y0250536D01*
G37*
G36*
X0176199Y0249144D02*
X0175142Y0250201D01*
X0177743Y0252802D01*
X0178800Y0251745D01*
X0176199Y0249144D01*
G37*
G36*
X0177591Y0247752D02*
X0176534Y0248809D01*
X0179135Y0251410D01*
X0180192Y0250353D01*
X0177591Y0247752D01*
G37*
G36*
X0178983Y0246360D02*
X0177926Y0247417D01*
X0180527Y0250018D01*
X0181584Y0248961D01*
X0178983Y0246360D01*
G37*
G36*
X0180375Y0244968D02*
X0179318Y0246025D01*
X0181919Y0248626D01*
X0182976Y0247569D01*
X0180375Y0244968D01*
G37*
G36*
X0181767Y0243576D02*
X0180710Y0244633D01*
X0183311Y0247234D01*
X0184368Y0246177D01*
X0181767Y0243576D01*
G37*
D45*
G36*
X0168126Y0256547D02*
X0181153Y0243520D01*
X0168126Y0230493D01*
X0155099Y0243520D01*
X0168126Y0256547D01*
G37*
D46*
X0308157Y0373425D03*
X0308157Y0125425D03*
D47*
X0316157Y0142475D03*
X0304150Y0356475D03*
D48*
X0295685Y0364878D03*
X0295685Y0367437D03*
X0295685Y0369996D03*
X0295685Y0372555D03*
X0295685Y0375114D03*
X0295685Y0377673D03*
X0295685Y0380232D03*
X0295685Y0382791D03*
X0272063Y0382791D03*
X0272063Y0380232D03*
X0272063Y0377673D03*
X0272063Y0375114D03*
X0272063Y0372555D03*
X0272063Y0369996D03*
X0272063Y0367437D03*
X0272063Y0364878D03*
D49*
X0274110Y0131551D03*
D50*
X0264661Y0130567D03*
X0264661Y0132535D03*
X0264661Y0134504D03*
X0264661Y0136472D03*
X0264661Y0138441D03*
X0264661Y0128598D03*
X0264661Y0126630D03*
X0264661Y0124661D03*
X0283559Y0124661D03*
X0283559Y0126630D03*
X0283559Y0128598D03*
X0283559Y0130567D03*
X0283559Y0132535D03*
X0283559Y0134504D03*
X0283559Y0136472D03*
X0283559Y0138441D03*
D51*
X0281000Y0141000D03*
X0279031Y0141000D03*
X0277063Y0141000D03*
X0275094Y0141000D03*
X0273126Y0141000D03*
X0271157Y0141000D03*
X0269189Y0141000D03*
X0267220Y0141000D03*
X0267220Y0122102D03*
X0269189Y0122102D03*
X0271157Y0122102D03*
X0273126Y0122102D03*
X0275094Y0122102D03*
X0277063Y0122102D03*
X0279031Y0122102D03*
X0281000Y0122102D03*
D52*
X0195291Y0121965D03*
X0195291Y0124524D03*
X0195291Y0127083D03*
X0195291Y0129642D03*
X0195291Y0132201D03*
X0195291Y0134760D03*
X0195291Y0119406D03*
X0195291Y0116846D03*
X0173244Y0116846D03*
X0173244Y0119406D03*
X0173244Y0121965D03*
X0173244Y0124524D03*
X0173244Y0127083D03*
X0173244Y0129642D03*
X0173244Y0132201D03*
X0173244Y0134760D03*
D53*
X0183480Y0142043D03*
X0183480Y0144602D03*
X0183480Y0147161D03*
X0183480Y0149720D03*
X0200016Y0149720D03*
X0200016Y0147161D03*
X0200016Y0144602D03*
X0200016Y0142043D03*
D54*
X0191748Y0145882D03*
D55*
X0113795Y0173441D03*
X0114189Y0200213D03*
X0114189Y0227378D03*
D56*
X0121769Y0228657D03*
X0121769Y0226098D03*
X0121769Y0223539D03*
X0121769Y0231217D03*
X0121769Y0204051D03*
X0121769Y0201492D03*
X0121769Y0198933D03*
X0121769Y0196374D03*
X0121376Y0177280D03*
X0121376Y0174720D03*
X0121376Y0172161D03*
X0121376Y0169602D03*
X0106215Y0169602D03*
X0106215Y0172161D03*
X0106215Y0174720D03*
X0106215Y0177280D03*
X0106609Y0196374D03*
X0106609Y0198933D03*
X0106609Y0201492D03*
X0106609Y0204051D03*
X0106609Y0223539D03*
X0106609Y0226098D03*
X0106609Y0228657D03*
X0106609Y0231217D03*
D57*
X0110350Y0234958D03*
X0112909Y0234958D03*
X0115469Y0234958D03*
X0118028Y0234958D03*
X0118028Y0219798D03*
X0115469Y0219798D03*
X0112909Y0219798D03*
X0110350Y0219798D03*
X0110350Y0207793D03*
X0112909Y0207793D03*
X0115469Y0207793D03*
X0118028Y0207793D03*
X0118028Y0192632D03*
X0115469Y0192632D03*
X0112909Y0192632D03*
X0110350Y0192632D03*
X0109957Y0181021D03*
X0112516Y0181021D03*
X0115075Y0181021D03*
X0117634Y0181021D03*
X0117634Y0165861D03*
X0115075Y0165861D03*
X0112516Y0165861D03*
X0109957Y0165861D03*
D58*
X0212614Y0365579D03*
X0212614Y0376579D03*
D59*
X0190764Y0352575D03*
X0188795Y0352575D03*
X0186827Y0352575D03*
X0184858Y0352575D03*
X0182890Y0352575D03*
X0180921Y0352575D03*
X0178953Y0352575D03*
X0176984Y0352575D03*
X0175016Y0352575D03*
X0173047Y0352575D03*
X0171079Y0352575D03*
X0169110Y0352575D03*
X0169110Y0325803D03*
X0171079Y0325803D03*
X0173047Y0325803D03*
X0175016Y0325803D03*
X0176984Y0325803D03*
X0178953Y0325803D03*
X0180921Y0325803D03*
X0182890Y0325803D03*
X0184858Y0325803D03*
X0186827Y0325803D03*
X0188795Y0325803D03*
X0190764Y0325803D03*
X0245488Y0302378D03*
X0247457Y0302378D03*
X0249425Y0302378D03*
X0251394Y0302378D03*
X0253362Y0302378D03*
X0255331Y0302378D03*
X0257299Y0302378D03*
X0259268Y0302378D03*
X0261236Y0302378D03*
X0263205Y0302378D03*
X0265173Y0302378D03*
X0267142Y0302378D03*
X0267142Y0275606D03*
X0265173Y0275606D03*
X0263205Y0275606D03*
X0261236Y0275606D03*
X0259268Y0275606D03*
X0257299Y0275606D03*
X0255331Y0275606D03*
X0253362Y0275606D03*
X0251394Y0275606D03*
X0249425Y0275606D03*
X0247457Y0275606D03*
X0245488Y0275606D03*
D60*
X0256315Y0288992D03*
X0179937Y0339189D03*
D61*
X0193323Y0338205D03*
X0193323Y0340173D03*
X0193323Y0342142D03*
X0193323Y0344110D03*
X0193323Y0346079D03*
X0193323Y0348047D03*
X0193323Y0350016D03*
X0193323Y0336236D03*
X0193323Y0334268D03*
X0193323Y0332299D03*
X0193323Y0330331D03*
X0193323Y0328362D03*
X0166551Y0328362D03*
X0166551Y0330331D03*
X0166551Y0332299D03*
X0166551Y0334268D03*
X0166551Y0336236D03*
X0166551Y0338205D03*
X0166551Y0340173D03*
X0166551Y0342142D03*
X0166551Y0344110D03*
X0166551Y0346079D03*
X0166551Y0348047D03*
X0166551Y0350016D03*
X0242929Y0299819D03*
X0242929Y0297850D03*
X0242929Y0295882D03*
X0242929Y0293913D03*
X0242929Y0291945D03*
X0242929Y0289976D03*
X0242929Y0288008D03*
X0242929Y0286039D03*
X0242929Y0284071D03*
X0242929Y0282102D03*
X0242929Y0280134D03*
X0242929Y0278165D03*
X0269701Y0278165D03*
X0269701Y0280134D03*
X0269701Y0282102D03*
X0269701Y0284071D03*
X0269701Y0286039D03*
X0269701Y0288008D03*
X0269701Y0289976D03*
X0269701Y0291945D03*
X0269701Y0293913D03*
X0269701Y0295882D03*
X0269701Y0297850D03*
X0269701Y0299819D03*
D62*
X0254937Y0310089D03*
X0254937Y0318289D03*
X0179150Y0360089D03*
X0179150Y0368289D03*
D63*
X0244533Y0139159D03*
D64*
X0239533Y0139159D03*
X0234533Y0139159D03*
X0229533Y0139159D03*
X0224533Y0139159D03*
X0224533Y0144159D03*
X0229533Y0144159D03*
X0234533Y0144159D03*
X0239533Y0144159D03*
X0244533Y0144159D03*
D65*
X0280724Y0222260D03*
X0280724Y0225409D03*
X0280724Y0228559D03*
X0280724Y0231709D03*
X0280724Y0234858D03*
X0280724Y0238008D03*
X0280724Y0241157D03*
X0280724Y0244307D03*
D66*
X0275213Y0249425D03*
X0275213Y0217142D03*
M02*
