%
M48
M72
T01C0.00787
T02C0.01181
T03C0.01378
T04C0.01575
T05C0.02756
T06C0.03150
T07C0.04685
T08C0.05200
T09C0.07087
T10C0.09055
T11C0.10600
T12C0.10630
%
T01
X51984Y76000
X59858Y76000
X67339Y76000
X75606Y76000
X83480Y76000
X91354Y76000
X94898Y76000
X81315Y88008
X68126Y96472
X59465Y102772
X51984Y99622
X51984Y91748
X60843Y86827
X51984Y83874
X51984Y107496
X51984Y115370
X60646Y120488
X51984Y123244
X51984Y131118
X51984Y138992
X51984Y146866
X51984Y154740
X58677Y157102
X51984Y162614
X51984Y170488
X51984Y178362
X63795Y183874
X81118Y199228
X80724Y207102
X81118Y214189
X80724Y221669
X81118Y229150
X93717Y235843
X96866Y232299
X101197Y229937
X106315Y228756
X111039Y228756
X116945Y228756
X121669Y228756
X127181Y228756
X125606Y235449
X119701Y235449
X113795Y235449
X108283Y235449
X103165Y236630
X99622Y238992
X94504Y244504
X89386Y238598
X84661Y238992
X79543Y239780
X95476Y255921
X93717Y259071
X94110Y263008
X90173Y263008
X86236Y263008
X90173Y270094
X94110Y270094
X98047Y270094
X101984Y270094
X101984Y263008
X98047Y263008
X105921Y263008
X109071Y255921
X113795Y263008
X117732Y263008
X121669Y263008
X125606Y263008
X129543Y263008
X133480Y263008
X136630Y264583
X140567Y264976
X140567Y262220
X143323Y262220
X143323Y264976
X143323Y268520
X140567Y268520
X133874Y271276
X129543Y270094
X125606Y270094
X121669Y270094
X117732Y270094
X113795Y270094
X109858Y270094
X116945Y274031
X116945Y285449
X101197Y296472
X98047Y299228
X101197Y302772
X105528Y303953
X109858Y303559
X118126Y303559
X120094Y301984
X118126Y298441
X138205Y300803
X138598Y305921
X144504Y314189
X152378Y314189
X160252Y314189
X168126Y314189
X172260Y312811
X176000Y314189
X183874Y314189
X182299Y307102
X180724Y305528
X179150Y307102
X182299Y303953
X186433Y298638
X188402Y298638
X190370Y298638
X193717Y301984
X194495Y296284
X205921Y298835
X204740Y303559
X207496Y314189
X199622Y314189
X191748Y314189
X215370Y314189
X223244Y314189
X231118Y314189
X238992Y314189
X246866Y314189
X249228Y313008
X254740Y314189
X262614Y314189
X262257Y308320
X270488Y314189
X278362Y314189
X277969Y311433
X276787Y305528
X282993Y306406
X284962Y304438
X286930Y306406
X286930Y302469
X282993Y302469
X277732Y298008
X272068Y294989
X269804Y294694
X268328Y292233
X270493Y291839
X273244Y292142
X274425Y288992
X272167Y288887
X269608Y289083
X267245Y288296
X265867Y289772
X268328Y286328
X271182Y285737
X273244Y283480
X274234Y285934
X278362Y289386
X281512Y290961
X289780Y291354
X293323Y292535
X295685Y301197
X294071Y304930
X296197Y307299
X294110Y314189
X301984Y314189
X309858Y314189
X317732Y314189
X325606Y314189
X333480Y314189
X341354Y314189
X349228Y314189
X349228Y306315
X341354Y305921
X349228Y298441
X349228Y290567
X349228Y282693
X349228Y274819
X349228Y266945
X349228Y259071
X349228Y251197
X349228Y243323
X343717Y239780
X349228Y235449
X344110Y227969
X343323Y225213
X349228Y227575
X349228Y219701
X349228Y211827
X349228Y203953
X336236Y205528
X336236Y209858
X331118Y210252
X331118Y213402
X326787Y209858
X326000Y205134
X326394Y200409
X322063Y199622
X322063Y194504
X326394Y190173
X331118Y194110
X336236Y195291
X336630Y200016
X331118Y200016
X331118Y205134
X321669Y209071
X321669Y211433
X321276Y215370
X317339Y214583
X316945Y219307
X311827Y219307
X311827Y224425
X315764Y225213
X316551Y229937
X311827Y234268
X316551Y234661
X316157Y240173
X312220Y239780
X311039Y244110
X311433Y248047
X305921Y243126
X301000Y243126
X300882Y237654
X296276Y237457
X296472Y233480
X296472Y228756
X295291Y225606
X296315Y223835
X291748Y224425
X290173Y226394
X291748Y228756
X291354Y233480
X290567Y239780
X291748Y244898
X288992Y247654
X287850Y248913
X286433Y250331
X285055Y251630
X283795Y252890
X282417Y254071
X281000Y255606
X279465Y256906
X278165Y258087
X291354Y263402
X296866Y260252
X298441Y263008
X301197Y260252
X301197Y255528
X301197Y250409
X297260Y249622
X292535Y250016
X292535Y254740
X301984Y264976
X301197Y268913
X296079Y268520
X292142Y270094
X282693Y274031
X282693Y276787
X286630Y279937
X270001Y282587
X267737Y283276
X265671Y284950
X260946Y289772
X265370Y299622
X270395Y298139
X250611Y300599
X246866Y294110
X241354Y298441
X241261Y289772
X238800Y289379
X238899Y287213
X237718Y285245
X236045Y286721
X235848Y289280
X233289Y288690
X233480Y285843
X240867Y285639
X246182Y285639
X246182Y289379
X246472Y280724
X248441Y279543
X250803Y277575
X251197Y274819
X249228Y274819
X249228Y272850
X251591Y272850
X253165Y274031
X254346Y272850
X245685Y276984
X253559Y279858
X256025Y279930
X235449Y265567
X234465Y266748
X225213Y269307
X223638Y268520
X222063Y269504
X220488Y268717
X218520Y268913
X216551Y268913
X213795Y268520
X209858Y270882
X211433Y272850
X209858Y276787
X207496Y274819
X207496Y278756
X210055Y282505
X211827Y283686
X212614Y285449
X215764Y287024
X216945Y290961
X223244Y299622
X212811Y280724
X216945Y273244
X207496Y269307
X207102Y266551
X208677Y264976
X209858Y261827
X207693Y259858
X209661Y257890
X207496Y256315
X209071Y253953
X207299Y252378
X198047Y247260
X196079Y250409
X193717Y248441
X182693Y260252
X182693Y263008
X182693Y267339
X187024Y267339
X187024Y272850
X182693Y272850
X182693Y277181
X179937Y279543
X177181Y277181
X177181Y272850
X172850Y272850
X170291Y270291
X172850Y267339
X177181Y267339
X177181Y263008
X170094Y262220
X168126Y253953
X172457Y251984
X171268Y247656
X163008Y242535
X156709Y245481
X153559Y246866
X159465Y248441
X161039Y254543
X163167Y253794
X149622Y261827
X137811Y274819
X133087Y276394
X132693Y281512
X140370Y280528
X144307Y277969
X150016Y278362
X154937Y279346
X151984Y284465
X155134Y289386
X148047Y288992
X145882Y283087
X138205Y288992
X148441Y295291
X165173Y292339
X167142Y292339
X168913Y292339
X170801Y292061
X176591Y286630
X171079Y285449
X165173Y287811
X164976Y289583
X172850Y297850
X184479Y286418
X188598Y279543
X199819Y283874
X199819Y272260
X199622Y266551
X201591Y266748
X204150Y266748
X204346Y263402
X202378Y263402
X200213Y263402
X198244Y263402
X170094Y279150
X209071Y242142
X210252Y240567
X212220Y238992
X216551Y239976
X219307Y241354
X224937Y236669
X227969Y237417
X229150Y238992
X227969Y240370
X230331Y240567
X231512Y238992
X232496Y237417
X230331Y237417
X231709Y234465
X231315Y231315
X232102Y227969
X227181Y227181
X221866Y227772
X218126Y229150
X222654Y233087
X227181Y233283
X232496Y240567
X238756Y239307
X240094Y237929
X241945Y237024
X242142Y238795
X243217Y241251
X245094Y241354
X247966Y241165
X253362Y237220
X257843Y229341
X258874Y226787
X259071Y222654
X263402Y222654
X263205Y217142
X259071Y217142
X259071Y213008
X253559Y213795
X253559Y217142
X249228Y217142
X247063Y220094
X249425Y222654
X253559Y222654
X253559Y226787
X247410Y229459
X241052Y241251
X265835Y228554
X271276Y233283
X276000Y222253
X280331Y220882
X279937Y218913
X280127Y216349
X277961Y216546
X275993Y216743
X272457Y212614
X272457Y210646
X273638Y208677
X272063Y206315
X274031Y204346
X270488Y200803
X268913Y202772
X272850Y198517
X272260Y195291
X281118Y189780
X283480Y188205
X290961Y192929
X296472Y192929
X301197Y193717
X301197Y198441
X296079Y198441
X301591Y204346
X306709Y204346
X311039Y205528
X316551Y205134
X320882Y205134
X315764Y199622
X311039Y199622
X307102Y199228
X305921Y194110
X306709Y189386
X306315Y185843
X301197Y188205
X296472Y183087
X301591Y179150
X305921Y179543
X311039Y180331
X315764Y185449
X316945Y180331
X321276Y181118
X321276Y185843
X326394Y185055
X326787Y179937
X331118Y180134
X336236Y179937
X336236Y183874
X349228Y180331
X349228Y188205
X349228Y196079
X349228Y172457
X336236Y169701
X331315Y170291
X331315Y175606
X324425Y175606
X321079Y175016
X321276Y170291
X316945Y170882
X316551Y166551
X312220Y164583
X316157Y159858
X320882Y160646
X321079Y155134
X326197Y155331
X331118Y160252
X336236Y160252
X335843Y155528
X335843Y149228
X336039Y145291
X336236Y140370
X330724Y140173
X326197Y140173
X331315Y135252
X330921Y130331
X326000Y130134
X321276Y133480
X316551Y137024
X311039Y139780
X306315Y139780
X301197Y139780
X296472Y138992
X296472Y141748
X300425Y144519
X301197Y148047
X306315Y150016
X311433Y150016
X311827Y146079
X316157Y144504
X321276Y145094
X316551Y150016
X316157Y155134
X311039Y155528
X306315Y155528
X306315Y159858
X306315Y165370
X301197Y164976
X301197Y168913
X296472Y168913
X295685Y164976
X292142Y164583
X288205Y164976
X296079Y159858
X296866Y155921
X301197Y155528
X296472Y151197
X290961Y157890
X285449Y158283
X282693Y163008
X282693Y166945
X274425Y166157
X274425Y163402
X274425Y161433
X274819Y159465
X272457Y159465
X271669Y161433
X270094Y160252
X265370Y163795
X262614Y163795
X262614Y166551
X265370Y166551
X257890Y170882
X251984Y166551
X252378Y163795
X252378Y161827
X250803Y160646
X250016Y162614
X248389Y161039
X243717Y164583
X240961Y164583
X240961Y167732
X243717Y167732
X236236Y171276
X230331Y163008
X230724Y161039
X228756Y161039
X227969Y159071
X230331Y159071
X226394Y161039
X227969Y163008
X221669Y164583
X221669Y167339
X218913Y167339
X218913Y164583
X216945Y158283
X213402Y170488
X213402Y178362
X214583Y185843
X217339Y187417
X212804Y196566
X235843Y199418
X238598Y199622
X243264Y194533
X245291Y197260
X246006Y199625
X244635Y203428
X250480Y203433
X246859Y211861
X221276Y218126
X218913Y215173
X216748Y215173
X216748Y212024
X218913Y212024
X214583Y218520
X217339Y220488
X212614Y222850
X205528Y228756
X199622Y228756
X193717Y228756
X187811Y228756
X181906Y228756
X176000Y228756
X170094Y228756
X164189Y228756
X158283Y228756
X152378Y228756
X146472Y228756
X140567Y228756
X136236Y228756
X137417Y235449
X136630Y239780
X131512Y235449
X143323Y235449
X149228Y235449
X155134Y235449
X157496Y238205
X161039Y235449
X166945Y235449
X168126Y237784
X172850Y235449
X178756Y235449
X184661Y235449
X190567Y235449
X196472Y235449
X202378Y235449
X208283Y235449
X212220Y234268
X203559Y216945
X209071Y213795
X197654Y216945
X184268Y220488
X184268Y209465
X178362Y210252
X170882Y216551
X155921Y219701
X148047Y214583
X136236Y219307
X126787Y211039
X123244Y209071
X132299Y209858
X124031Y196079
X125213Y179937
X116551Y177575
X114976Y179543
X111827Y176000
X115764Y174425
X117339Y172850
X118913Y171276
X120488Y169701
X122457Y168913
X124819Y165370
X126394Y163795
X129543Y165370
X127969Y168126
X134465Y162811
X141276Y161197
X123327Y159017
X123182Y161406
X121669Y164275
X115370Y168520
X112614Y164398
X111433Y160646
X106709Y163402
X104740Y165764
X106709Y167732
X104740Y168913
X107496Y172063
X109465Y170488
X105528Y178756
X88205Y175606
X89386Y161827
X89780Y156709
X89386Y153165
X89386Y148835
X76394Y146472
X68520Y142142
X61433Y144898
X67732Y134268
X76000Y119307
X84661Y118520
X88992Y118520
X87417Y122457
X85055Y126394
X88992Y126787
X89386Y132102
X85449Y134268
X89386Y137811
X85055Y141354
X103559Y139386
X105821Y139359
X103559Y137024
X103545Y134268
X104760Y132353
X105613Y129177
X105821Y126448
X105843Y123835
X102929Y121276
X101591Y124031
X97654Y126837
X99622Y129150
X113076Y120951
X111108Y120163
X115357Y120956
X120882Y124677
X123182Y125633
X127119Y131960
X120402Y132863
X120820Y136657
X115370Y140961
X113008Y140961
X117732Y141748
X116157Y148441
X113333Y148510
X110646Y148441
X106709Y150409
X105134Y152513
X106709Y155161
X104346Y156315
X104346Y159071
X119910Y151937
X121607Y153193
X119898Y148835
X124374Y147346
X128362Y138205
X114189Y131118
X105907Y142617
X76394Y159465
X65370Y168520
X96079Y119337
X96866Y116551
X90961Y114189
X93158Y111190
X90173Y109465
X88047Y109622
X85449Y112220
X89307Y104307
X76000Y107890
X104891Y106315
X105196Y110225
X112024Y110616
X114976Y113795
X120813Y110971
X122149Y109635
X121376Y104910
X113552Y104346
X105724Y99228
X105528Y95882
X110646Y93717
X112614Y94110
X115130Y93957
X118520Y92929
X120094Y94898
X121669Y98441
X128362Y95685
X128165Y90173
X134268Y88795
X134268Y86827
X134661Y84939
X128165Y84465
X128362Y77772
X118913Y81315
X109858Y90370
X105331Y115764
X123638Y114976
X128362Y118126
X149622Y108677
X150016Y83874
X153461Y84169
X155921Y83480
X176959Y77403
X179372Y80502
X176959Y72679
X178584Y71447
X167994Y65060
X167994Y62924
X165370Y60252
X168913Y53953
X168126Y51984
X168126Y46472
X160252Y46472
X159071Y52378
X152772Y58283
X144898Y58283
X137024Y58283
X129150Y58283
X121276Y58283
X113402Y58283
X105528Y58283
X105528Y65370
X177575Y57890
X177575Y55528
X177969Y60646
X187417Y52772
X190961Y50409
X190961Y47654
X183874Y46472
X199622Y46472
X207496Y46472
X215370Y46472
X218913Y47416
X221276Y48441
X221276Y51591
X219701Y53559
X209071Y61039
X199622Y53165
X192929Y71276
X193323Y74031
X191748Y75606
X190173Y74031
X193323Y77181
X204346Y77778
X204346Y75213
X204346Y87417
X200803Y89386
X196866Y88205
X189386Y92535
X192929Y95685
X194898Y98835
X193323Y100803
X194504Y103165
X193183Y109071
X190567Y113402
X204740Y103559
X209071Y113402
X210646Y118913
X212220Y126394
X204740Y129543
X204740Y132299
X204740Y134661
X198441Y144504
X196472Y145685
X191748Y143717
X184268Y143323
X180724Y142535
X177181Y144110
X189386Y152772
X194110Y155528
X189347Y161841
X192535Y164583
X194432Y166945
X194504Y169307
X197260Y172850
X193323Y177575
X189780Y178362
X187417Y176000
X183480Y179150
X182299Y180724
X180927Y182097
X179592Y183432
X185055Y182693
X175606Y177575
X172457Y174425
X175803Y171276
X171472Y166945
X168126Y170094
X164583Y166551
X160449Y170882
X163992Y174425
X168126Y178756
X171079Y181709
X157102Y190173
X151984Y194898
X149622Y196472
X142142Y188598
X143717Y186630
X152378Y185830
X136630Y179937
X134661Y181906
X165764Y197654
X174498Y161112
X195291Y127181
X218126Y113008
X223244Y112614
X223244Y107496
X218126Y107496
X218126Y102772
X223244Y102772
X228362Y102772
X233087Y102772
X238205Y102772
X243323Y102772
X248441Y102772
X253165Y102772
X257890Y102772
X263008Y102772
X268126Y102772
X273638Y102772
X274425Y105921
X268126Y107102
X263008Y107496
X257890Y107890
X253165Y107890
X248047Y107890
X248047Y113008
X253165Y113008
X257496Y113008
X253165Y117339
X248047Y117339
X224031Y121276
X227969Y97654
X233087Y97654
X238205Y97654
X243323Y97654
X248441Y97654
X253165Y97654
X257890Y97654
X263008Y97654
X263008Y92535
X254740Y87811
X252509Y86341
X246472Y92404
X244504Y92404
X238467Y86341
X235055Y88008
X227969Y92929
X228362Y74425
X226000Y74425
X230724Y74425
X232965Y74238
X235055Y74425
X237024Y74425
X239819Y74546
X241748Y74344
X248835Y74031
X260646Y56709
X259858Y50016
X255973Y50016
X251591Y50016
X248047Y50003
X262614Y46472
X270488Y46472
X278362Y46472
X286236Y46472
X294110Y46472
X301984Y46472
X309858Y46472
X317732Y46472
X325606Y46472
X331118Y46472
X341354Y46472
X349228Y46472
X349228Y54740
X345409Y57496
X349228Y62220
X349228Y70094
X343756Y71709
X349228Y77969
X349228Y85843
X335843Y85449
X335843Y80331
X326394Y80331
X326984Y85252
X324228Y84898
X318520Y80331
X312811Y84740
X313008Y90173
X314583Y95685
X311827Y100803
X309071Y100409
X311827Y105134
X320882Y100803
X326000Y105331
X331512Y100803
X336236Y105528
X336236Y110252
X336236Y115370
X331118Y115173
X326000Y115764
X321472Y115370
X316945Y111039
X311827Y111039
X311827Y116157
X310646Y120488
X306315Y120488
X301197Y120094
X301591Y115764
X305921Y114976
X306315Y110646
X301984Y110646
X296079Y109858
X296472Y105134
X291748Y105134
X296079Y100016
X296079Y94898
X291748Y96079
X292535Y90567
X296079Y90173
X301591Y91748
X301591Y96079
X301413Y100390
X301197Y105528
X306709Y105921
X296079Y115370
X296472Y121276
X301984Y126394
X300803Y129937
X297260Y129543
X296079Y133874
X291354Y133874
X292142Y129543
X305921Y129937
X307102Y126000
X311827Y126000
X316157Y129937
X311433Y131512
X321276Y125409
X326394Y121276
X336236Y120882
X336236Y130331
X349228Y133087
X349228Y140961
X349228Y152772
X349228Y162614
X326000Y165173
X326197Y150409
X311039Y174425
X306709Y174425
X301591Y174031
X291354Y172850
X291354Y178756
X316157Y194110
X300803Y210252
X296079Y210252
X291748Y211039
X296472Y217732
X306315Y214189
X306315Y224031
X305921Y228362
X311039Y229543
X306315Y237811
X316945Y244504
X320882Y239386
X324031Y235387
X326101Y234022
X330331Y235055
X329937Y240173
X335843Y239780
X336236Y235055
X335843Y230331
X336630Y225606
X330724Y225213
X326000Y225606
X321276Y225213
X330724Y230331
X336236Y245291
X331512Y250409
X326394Y250016
X316945Y249622
X311433Y254740
X310646Y259858
X312220Y264976
X316157Y264976
X316551Y259071
X311433Y268913
X306315Y265370
X321276Y270488
X321276Y279937
X328362Y281118
X335449Y270094
X331512Y293717
X320882Y300803
X306709Y279937
X286236Y314189
X283298Y221487
X264189Y188205
X260252Y188205
X257102Y188205
X237811Y187811
X235449Y187811
X236630Y161433
X258283Y160252
X289767Y141748
X316551Y120488
X326000Y110449
X349228Y111433
X349228Y101591
X349189Y93480
X336630Y95685
X336236Y90567
X331315Y90173
X326197Y95094
X321079Y90370
X308677Y79150
X298835Y80331
X295902Y84917
X291354Y85055
X278756Y98047
X316551Y66945
X323047Y68717
X321276Y59465
X297260Y53165
X285449Y59071
X277181Y57890
X269701Y61039
X204740Y93717
X183874Y100016
X182348Y92487
X349228Y121276
X117339Y216157
X94504Y219701
X68520Y259465
X67339Y279150
X75213Y279150
X83087Y279150
X90961Y279150
X98835Y279150
T02
X160662Y276607
X236827Y226394
X251104Y279930
X251104Y294694
X261438Y294694
X121669Y193323
X115370Y194110
X222310Y60499
X215370Y57890
X248047Y56131
X253165Y59058
T03
X174557Y80199
X145291Y127969
X320882Y252783
T04
X320882Y250409
X330724Y255134
X335843Y250803
X330724Y261039
X335843Y265370
X315764Y270094
X306709Y275213
X311039Y279937
X316157Y280724
X320882Y283480
X320882Y286630
X303559Y282693
X298835Y282693
X291748Y280331
X296472Y275213
X283480Y292929
X280528Y295880
X222063Y290173
X213008Y290173
X216945Y301984
X161236Y286827
X146472Y254740
X144819Y249858
X150173Y246669
X153165Y221669
X140173Y221669
X136860Y214813
X133087Y198441
X127575Y191953
X112220Y199622
X110252Y194110
X112220Y207496
X98441Y220488
X146866Y180331
X150409Y183874
X154346Y187811
X160252Y191748
X168520Y190961
X178362Y185449
X183874Y174425
X190961Y171669
X179150Y161039
X182693Y155528
X166157Y153953
X161039Y157102
X166945Y142535
X170488Y141748
X174425Y141354
X167732Y128165
X178756Y120488
X171079Y116551
X167732Y111039
X178362Y108677
X174425Y96079
X166945Y92997
X166945Y82693
X170488Y82299
X171276Y78362
X181118Y64583
X191354Y65764
X204346Y72457
X214189Y74031
X217339Y88205
X213795Y88598
X209465Y88598
X216945Y92535
X216945Y95685
X205921Y116551
X207890Y122063
X206315Y127181
X191748Y122063
X194898Y114189
X180331Y93717
X148638Y96276
X149228Y104740
X145291Y108283
X134661Y106709
X150803Y125606
X134791Y130331
X151591Y174425
X194734Y199459
X200409Y205134
X206709Y204740
X209071Y209071
X221866Y204543
X209858Y217339
X192535Y221669
X192535Y211433
X166203Y208677
X237614Y235646
X341748Y295291
X274031Y94898
X274031Y90567
X274031Y85843
X278756Y85843
X283087Y85843
X181512Y52378
T05
X174819Y129937
X172850Y153845
X185843Y153559
X259485Y198814
X276591Y195911
X278362Y163008
X234858Y213205
X261558Y237785
X222457Y239780
X183409Y249748
X158480Y262811
X201394Y291551
X203559Y309465
X160646Y307102
X98047Y167732
T06
X63283Y191079
X58283Y196079
X53283Y191079
X53283Y201079
X53283Y208795
X58283Y213795
X63283Y208795
X63283Y201079
X63283Y218795
X63283Y226512
X58283Y231512
X53283Y236512
X63283Y236512
X63283Y246197
X58283Y251197
X53283Y246197
X53283Y256197
X63283Y256197
X63283Y265882
X58283Y270882
X53283Y275882
X53283Y265882
X63283Y275882
X53283Y226512
X53283Y218795
T07
X204465Y59465
X265646Y59465
T08
X316157Y73381
X304150Y287381
T09
X68520Y160646
X68520Y105528
T10
X78362Y95291
X78362Y170882
T11
X308157Y56331
X308157Y304331
T12
X93323Y66157
X93323Y288795
M30
