G75*
%MOIN*%
%OFA0B0*%
%FSLAX25Y25*%
%IPPOS*%
%LPD*%
%AMOC8*
5,1,8,0,0,1.08239X$1,22.5*
%
%ADD10C,0.04409*%
%ADD11R,0.03000X0.02700*%
%ADD12R,0.03800X0.06000*%
%ADD13R,0.02700X0.03000*%
%ADD14R,0.04800X0.07400*%
%ADD15R,0.07400X0.04800*%
%ADD16R,0.04200X0.03500*%
%ADD17R,0.03500X0.04200*%
%ADD18C,0.15748*%
%ADD19R,0.06299X0.02992*%
%ADD20R,0.11000X0.06500*%
%ADD21R,0.06000X0.03800*%
%ADD22C,0.05000*%
%ADD23C,0.10000*%
%ADD24R,0.03937X0.02165*%
%ADD25C,0.14600*%
%ADD26R,0.04724X0.01378*%
%ADD27R,0.02992X0.05000*%
%ADD28R,0.03150X0.01181*%
%ADD29R,0.03543X0.02362*%
%ADD30C,0.01083*%
%ADD31C,0.00709*%
%ADD32R,0.06500X0.11000*%
%ADD33R,0.06299X0.03543*%
%ADD34R,0.00984X0.01969*%
%ADD35R,0.04173X0.04173*%
%ADD36C,0.04173*%
%ADD37C,0.01387*%
%ADD38C,0.01781*%
%ADD39C,0.00394*%
%ADD40C,0.02205*%
%ADD41C,0.01575*%
%ADD42C,0.00787*%
%ADD43C,0.01181*%
%ADD44C,0.00354*%
%ADD45C,0.03858*%
%ADD46C,0.02756*%
%ADD47C,0.01978*%
%ADD48C,0.00433*%
%ADD49C,0.00350*%
%ADD50C,0.05906*%
%ADD51C,0.01969*%
%ADD52C,0.01600*%
%ADD53C,0.03937*%
%ADD54C,0.00591*%
%ADD55C,0.00800*%
%ADD56C,0.00748*%
D10*
X0053283Y0191079D03*
X0058283Y0196079D03*
X0063283Y0191079D03*
X0063283Y0201079D03*
X0063283Y0208795D03*
X0058283Y0213795D03*
X0053283Y0208795D03*
X0053283Y0201079D03*
X0053283Y0218795D03*
X0053283Y0226512D03*
X0058283Y0231512D03*
X0053283Y0236512D03*
X0063283Y0236512D03*
X0063283Y0246197D03*
X0058283Y0251197D03*
X0053283Y0246197D03*
X0053283Y0256197D03*
X0063283Y0256197D03*
X0063283Y0265882D03*
X0058283Y0270882D03*
X0053283Y0275882D03*
X0053283Y0265882D03*
X0063283Y0275882D03*
X0063283Y0226512D03*
X0063283Y0218795D03*
D11*
X0118520Y0195817D03*
X0118520Y0191617D03*
X0139780Y0213664D03*
X0139780Y0217864D03*
X0171381Y0254319D03*
X0171381Y0258519D03*
X0184359Y0257918D03*
X0184359Y0253718D03*
X0179150Y0282168D03*
X0174125Y0282175D03*
X0174125Y0286375D03*
X0179150Y0286368D03*
X0188591Y0285411D03*
X0188591Y0289611D03*
X0250803Y0236958D03*
X0250803Y0232758D03*
X0255724Y0232758D03*
X0255724Y0236958D03*
X0266748Y0235711D03*
X0266748Y0239911D03*
X0281118Y0233218D03*
X0281118Y0229018D03*
X0260843Y0207431D03*
X0260843Y0203231D03*
X0248047Y0204018D03*
X0248047Y0208218D03*
X0206315Y0214845D03*
X0206315Y0219045D03*
X0200803Y0219045D03*
X0200803Y0214845D03*
X0192535Y0214451D03*
X0192535Y0218651D03*
X0126000Y0158415D03*
X0126000Y0154215D03*
X0101197Y0155002D03*
X0101197Y0159202D03*
X0109071Y0131250D03*
X0109071Y0127050D03*
X0118520Y0127050D03*
X0118520Y0131250D03*
X0116945Y0103691D03*
X0108677Y0103691D03*
X0108677Y0099491D03*
X0116945Y0099491D03*
X0168520Y0089911D03*
X0168520Y0085711D03*
X0178362Y0101065D03*
X0178362Y0105265D03*
X0203953Y0100541D03*
X0203953Y0096341D03*
X0200016Y0072194D03*
X0200016Y0067994D03*
X0195685Y0067994D03*
X0195685Y0072194D03*
X0194898Y0052509D03*
X0194898Y0048309D03*
X0172063Y0049884D03*
X0172063Y0054084D03*
X0172063Y0059727D03*
X0172063Y0063927D03*
X0166945Y0145947D03*
X0166945Y0150147D03*
X0320882Y0242798D03*
X0320882Y0246998D03*
X0333737Y0259071D03*
X0333737Y0263271D03*
X0338735Y0255528D03*
X0338735Y0251328D03*
X0303559Y0275475D03*
X0298835Y0275475D03*
X0298835Y0279675D03*
X0303559Y0279675D03*
X0291354Y0300672D03*
X0291354Y0304872D03*
X0321276Y0222982D03*
X0321276Y0218782D03*
X0343323Y0218782D03*
X0343323Y0222982D03*
D12*
X0208053Y0199622D03*
X0199853Y0199622D03*
G36*
X0169440Y0188376D02*
X0172127Y0185689D01*
X0167886Y0181448D01*
X0165199Y0184135D01*
X0169440Y0188376D01*
G37*
G36*
X0163642Y0194174D02*
X0166329Y0191487D01*
X0162088Y0187246D01*
X0159401Y0189933D01*
X0163642Y0194174D01*
G37*
G36*
X0157736Y0188269D02*
X0160423Y0185582D01*
X0156182Y0181341D01*
X0153495Y0184028D01*
X0157736Y0188269D01*
G37*
G36*
X0163534Y0182470D02*
X0166221Y0179783D01*
X0161980Y0175542D01*
X0159293Y0178229D01*
X0163534Y0182470D01*
G37*
G36*
X0157629Y0176565D02*
X0160316Y0173878D01*
X0156075Y0169637D01*
X0153388Y0172324D01*
X0157629Y0176565D01*
G37*
G36*
X0151831Y0182363D02*
X0154518Y0179676D01*
X0150277Y0175435D01*
X0147590Y0178122D01*
X0151831Y0182363D01*
G37*
G36*
X0170946Y0166311D02*
X0168259Y0163624D01*
X0164018Y0167865D01*
X0166705Y0170552D01*
X0170946Y0166311D01*
G37*
G36*
X0165148Y0160513D02*
X0162461Y0157826D01*
X0158220Y0162067D01*
X0160907Y0164754D01*
X0165148Y0160513D01*
G37*
G36*
X0179086Y0163642D02*
X0181773Y0166329D01*
X0186014Y0162088D01*
X0183327Y0159401D01*
X0179086Y0163642D01*
G37*
G36*
X0184884Y0169440D02*
X0187571Y0172127D01*
X0191812Y0167886D01*
X0189125Y0165199D01*
X0184884Y0169440D01*
G37*
X0174194Y0136236D03*
X0165994Y0136236D03*
X0144273Y0134268D03*
X0136073Y0134268D03*
X0135680Y0101984D03*
X0143880Y0101984D03*
X0196309Y0108677D03*
X0204509Y0108677D03*
X0204116Y0122063D03*
X0195916Y0122063D03*
X0198827Y0290195D03*
X0207027Y0290195D03*
D13*
X0208021Y0282693D03*
X0203821Y0282693D03*
X0196801Y0270488D03*
X0192601Y0270488D03*
X0192601Y0265567D03*
X0196801Y0265567D03*
X0167259Y0266256D03*
X0163059Y0266256D03*
X0163066Y0270581D03*
X0167266Y0270581D03*
X0167273Y0275016D03*
X0163073Y0275016D03*
X0163073Y0279346D03*
X0167273Y0279346D03*
X0167273Y0283677D03*
X0163073Y0283677D03*
X0162876Y0261827D03*
X0167076Y0261827D03*
X0167076Y0257299D03*
X0162876Y0257299D03*
X0147549Y0246787D03*
X0143349Y0246787D03*
X0089911Y0247654D03*
X0085711Y0247654D03*
X0085711Y0242535D03*
X0089911Y0242535D03*
X0080462Y0242535D03*
X0076262Y0242535D03*
X0076262Y0247654D03*
X0080462Y0247654D03*
X0080462Y0252772D03*
X0076262Y0252772D03*
X0085711Y0257496D03*
X0089911Y0257496D03*
X0080462Y0262614D03*
X0076262Y0262614D03*
X0076262Y0267732D03*
X0080462Y0267732D03*
X0085711Y0267732D03*
X0089911Y0267732D03*
X0080462Y0272850D03*
X0076262Y0272850D03*
X0201459Y0209071D03*
X0205659Y0209071D03*
X0239451Y0206906D03*
X0243651Y0206906D03*
X0243651Y0211433D03*
X0239451Y0211433D03*
X0239845Y0216157D03*
X0244045Y0216157D03*
X0244045Y0220685D03*
X0239845Y0220685D03*
X0239845Y0225016D03*
X0244045Y0225016D03*
X0244045Y0229543D03*
X0239845Y0229543D03*
X0239845Y0233874D03*
X0244045Y0233874D03*
X0268585Y0220882D03*
X0272785Y0220882D03*
X0272785Y0215961D03*
X0268585Y0215961D03*
G36*
X0178620Y0177591D02*
X0180529Y0179500D01*
X0182650Y0177379D01*
X0180741Y0175470D01*
X0178620Y0177591D01*
G37*
G36*
X0175650Y0174621D02*
X0177559Y0176530D01*
X0179680Y0174409D01*
X0177771Y0172500D01*
X0175650Y0174621D01*
G37*
G36*
X0176590Y0160996D02*
X0178499Y0159087D01*
X0176378Y0156966D01*
X0174469Y0158875D01*
X0176590Y0160996D01*
G37*
G36*
X0179559Y0158026D02*
X0181468Y0156117D01*
X0179347Y0153996D01*
X0177438Y0155905D01*
X0179559Y0158026D01*
G37*
X0178887Y0150409D03*
X0174687Y0150409D03*
X0183743Y0129937D03*
X0187943Y0129937D03*
X0198309Y0115370D03*
X0202509Y0115370D03*
X0190698Y0111039D03*
X0186498Y0111039D03*
X0186498Y0105921D03*
X0190698Y0105921D03*
X0190698Y0100803D03*
X0186498Y0100803D03*
X0186498Y0095685D03*
X0190698Y0095685D03*
X0172982Y0100803D03*
X0168782Y0100803D03*
X0141880Y0108677D03*
X0137680Y0108677D03*
X0138073Y0126394D03*
X0142273Y0126394D03*
X0184530Y0065370D03*
X0188730Y0065370D03*
X0188730Y0060646D03*
X0184530Y0060646D03*
X0238467Y0090173D03*
X0242667Y0090173D03*
X0247522Y0090173D03*
X0251722Y0090173D03*
D14*
X0253752Y0194701D03*
X0266752Y0194701D03*
X0267138Y0208283D03*
X0280138Y0208283D03*
X0274429Y0228165D03*
X0261429Y0228165D03*
X0281311Y0240764D03*
X0294311Y0240764D03*
X0241161Y0280724D03*
X0228161Y0280724D03*
X0211634Y0300409D03*
X0198634Y0300409D03*
X0198051Y0277969D03*
X0185051Y0277969D03*
X0190760Y0256906D03*
X0203760Y0256906D03*
X0189193Y0243323D03*
X0176193Y0243323D03*
X0154146Y0254833D03*
X0141146Y0254833D03*
X0217728Y0204346D03*
X0230728Y0204346D03*
D15*
X0254543Y0246469D03*
X0254543Y0259469D03*
X0215764Y0263398D03*
X0215764Y0276398D03*
X0178165Y0297453D03*
X0178165Y0310453D03*
X0170882Y0120295D03*
X0170882Y0107295D03*
D16*
X0244898Y0246025D03*
X0244898Y0252825D03*
X0264780Y0252628D03*
X0264780Y0245828D03*
X0188598Y0295041D03*
X0188598Y0301841D03*
X0166846Y0303602D03*
X0166846Y0296802D03*
D17*
X0153310Y0262904D03*
X0146510Y0262904D03*
X0222600Y0212614D03*
X0229400Y0212614D03*
D18*
X0093323Y0066157D03*
X0093323Y0288795D03*
D19*
X0141354Y0238205D03*
X0161354Y0238205D03*
X0216551Y0191551D03*
X0236551Y0191551D03*
D20*
X0313795Y0274437D03*
X0313795Y0285437D03*
X0341354Y0290161D03*
X0341354Y0279161D03*
D21*
X0285055Y0295916D03*
X0285055Y0304116D03*
X0273638Y0251557D03*
X0273638Y0243357D03*
X0254346Y0211202D03*
X0254346Y0203002D03*
X0177575Y0251624D03*
X0177575Y0259824D03*
X0160646Y0152147D03*
X0160646Y0143947D03*
X0161827Y0092305D03*
X0161827Y0084105D03*
X0175213Y0084105D03*
X0175213Y0092305D03*
D22*
X0148047Y0169307D03*
X0138835Y0169524D03*
X0131787Y0169780D03*
X0124819Y0170488D03*
X0107890Y0204346D03*
X0133087Y0220094D03*
X0184268Y0220488D03*
X0206118Y0245488D03*
X0247457Y0268126D03*
X0242142Y0301984D03*
X0322850Y0304740D03*
X0326000Y0290961D03*
D23*
X0334661Y0305921D03*
X0144504Y0309071D03*
X0063795Y0177575D03*
X0150803Y0119307D03*
X0204346Y0154346D03*
X0070094Y0071276D03*
D24*
X0152575Y0101000D03*
X0152575Y0104740D03*
X0152575Y0108480D03*
X0163205Y0108480D03*
X0163205Y0101000D03*
D25*
X0308157Y0056331D03*
X0308157Y0304331D03*
D26*
X0320390Y0237713D03*
X0320390Y0235154D03*
X0320390Y0232594D03*
X0320390Y0230035D03*
X0343421Y0230035D03*
X0343421Y0232594D03*
X0343421Y0235154D03*
X0343421Y0237713D03*
D27*
X0334799Y0217378D03*
X0329799Y0217378D03*
X0329799Y0187378D03*
X0334799Y0187378D03*
D28*
X0071276Y0248244D03*
X0071276Y0250213D03*
X0071276Y0252181D03*
X0071276Y0254150D03*
X0071276Y0267929D03*
X0071276Y0269898D03*
X0071276Y0271866D03*
X0071276Y0273835D03*
D29*
X0070291Y0276394D03*
X0070291Y0265370D03*
X0070291Y0256709D03*
X0070291Y0245685D03*
D30*
X0325213Y0071669D02*
X0335055Y0064583D01*
X0322457Y0066945D01*
X0331118Y0063402D01*
X0325213Y0071669D01*
X0329937Y0076787D01*
X0331118Y0063402D01*
X0335055Y0064583D01*
X0329937Y0076787D01*
D31*
X0337654Y0076748D02*
X0337654Y0077929D01*
X0341118Y0077929D01*
X0341118Y0076748D01*
X0341116Y0076697D01*
X0341111Y0076647D01*
X0341102Y0076597D01*
X0341089Y0076548D01*
X0341073Y0076500D01*
X0341054Y0076453D01*
X0341031Y0076408D01*
X0341005Y0076365D01*
X0340977Y0076323D01*
X0340945Y0076284D01*
X0340910Y0076247D01*
X0340873Y0076212D01*
X0340834Y0076180D01*
X0340792Y0076152D01*
X0340749Y0076126D01*
X0340704Y0076103D01*
X0340657Y0076084D01*
X0340609Y0076068D01*
X0340560Y0076055D01*
X0340510Y0076046D01*
X0340460Y0076041D01*
X0340409Y0076039D01*
X0338362Y0076039D01*
X0338311Y0076041D01*
X0338261Y0076046D01*
X0338211Y0076055D01*
X0338162Y0076068D01*
X0338114Y0076084D01*
X0338067Y0076103D01*
X0338022Y0076126D01*
X0337979Y0076152D01*
X0337937Y0076180D01*
X0337898Y0076212D01*
X0337861Y0076247D01*
X0337826Y0076284D01*
X0337794Y0076323D01*
X0337766Y0076365D01*
X0337740Y0076408D01*
X0337717Y0076453D01*
X0337698Y0076500D01*
X0337682Y0076548D01*
X0337669Y0076597D01*
X0337660Y0076647D01*
X0337655Y0076697D01*
X0337653Y0076748D01*
X0338362Y0074740D02*
X0340409Y0074740D01*
X0340460Y0074738D01*
X0340510Y0074733D01*
X0340560Y0074724D01*
X0340609Y0074711D01*
X0340657Y0074695D01*
X0340704Y0074676D01*
X0340749Y0074653D01*
X0340792Y0074627D01*
X0340834Y0074599D01*
X0340873Y0074567D01*
X0340910Y0074532D01*
X0340945Y0074495D01*
X0340977Y0074456D01*
X0341005Y0074414D01*
X0341031Y0074371D01*
X0341054Y0074326D01*
X0341073Y0074279D01*
X0341089Y0074231D01*
X0341102Y0074182D01*
X0341111Y0074132D01*
X0341116Y0074082D01*
X0341118Y0074031D01*
X0341118Y0073323D01*
X0341119Y0073323D02*
X0341117Y0073292D01*
X0341112Y0073262D01*
X0341104Y0073232D01*
X0341092Y0073203D01*
X0341077Y0073176D01*
X0341059Y0073151D01*
X0341038Y0073128D01*
X0341015Y0073107D01*
X0340990Y0073089D01*
X0340963Y0073074D01*
X0340934Y0073062D01*
X0340904Y0073054D01*
X0340874Y0073049D01*
X0340843Y0073047D01*
X0339386Y0072850D02*
X0338441Y0072850D01*
X0338362Y0072850D02*
X0338311Y0072852D01*
X0338261Y0072857D01*
X0338211Y0072866D01*
X0338162Y0072879D01*
X0338114Y0072895D01*
X0338067Y0072914D01*
X0338022Y0072937D01*
X0337979Y0072963D01*
X0337937Y0072991D01*
X0337898Y0073023D01*
X0337861Y0073058D01*
X0337826Y0073095D01*
X0337794Y0073134D01*
X0337766Y0073176D01*
X0337740Y0073219D01*
X0337717Y0073264D01*
X0337698Y0073311D01*
X0337682Y0073359D01*
X0337669Y0073408D01*
X0337660Y0073458D01*
X0337655Y0073508D01*
X0337653Y0073559D01*
X0337654Y0073559D02*
X0337654Y0074031D01*
X0337653Y0074031D02*
X0337655Y0074082D01*
X0337660Y0074132D01*
X0337669Y0074182D01*
X0337682Y0074231D01*
X0337698Y0074279D01*
X0337717Y0074326D01*
X0337740Y0074371D01*
X0337766Y0074414D01*
X0337794Y0074456D01*
X0337826Y0074495D01*
X0337861Y0074532D01*
X0337898Y0074567D01*
X0337937Y0074599D01*
X0337979Y0074627D01*
X0338022Y0074653D01*
X0338067Y0074676D01*
X0338114Y0074695D01*
X0338162Y0074711D01*
X0338211Y0074724D01*
X0338261Y0074733D01*
X0338311Y0074738D01*
X0338362Y0074740D01*
X0339386Y0074504D02*
X0339386Y0072850D01*
X0337654Y0071512D02*
X0341118Y0071512D01*
X0341118Y0069622D02*
X0338362Y0069622D01*
X0338311Y0069624D01*
X0338261Y0069629D01*
X0338211Y0069638D01*
X0338162Y0069651D01*
X0338114Y0069667D01*
X0338067Y0069686D01*
X0338022Y0069709D01*
X0337979Y0069735D01*
X0337937Y0069763D01*
X0337898Y0069795D01*
X0337861Y0069830D01*
X0337826Y0069867D01*
X0337794Y0069906D01*
X0337766Y0069948D01*
X0337740Y0069991D01*
X0337717Y0070036D01*
X0337698Y0070083D01*
X0337682Y0070131D01*
X0337669Y0070180D01*
X0337660Y0070230D01*
X0337655Y0070280D01*
X0337653Y0070331D01*
X0337654Y0070331D02*
X0337654Y0071512D01*
X0338362Y0066787D02*
X0340409Y0066787D01*
X0340409Y0066788D02*
X0340460Y0066786D01*
X0340510Y0066781D01*
X0340560Y0066772D01*
X0340609Y0066759D01*
X0340657Y0066743D01*
X0340704Y0066724D01*
X0340749Y0066701D01*
X0340792Y0066675D01*
X0340834Y0066647D01*
X0340873Y0066615D01*
X0340910Y0066580D01*
X0340945Y0066543D01*
X0340977Y0066504D01*
X0341005Y0066462D01*
X0341031Y0066419D01*
X0341054Y0066374D01*
X0341073Y0066327D01*
X0341089Y0066279D01*
X0341102Y0066230D01*
X0341111Y0066180D01*
X0341116Y0066130D01*
X0341118Y0066079D01*
X0341118Y0065370D01*
X0341119Y0065370D02*
X0341117Y0065339D01*
X0341112Y0065309D01*
X0341104Y0065279D01*
X0341092Y0065250D01*
X0341077Y0065223D01*
X0341059Y0065198D01*
X0341038Y0065175D01*
X0341015Y0065154D01*
X0340990Y0065136D01*
X0340963Y0065121D01*
X0340934Y0065109D01*
X0340904Y0065101D01*
X0340874Y0065096D01*
X0340843Y0065094D01*
X0339386Y0064898D02*
X0339386Y0066551D01*
X0338362Y0066788D02*
X0338311Y0066786D01*
X0338261Y0066781D01*
X0338211Y0066772D01*
X0338162Y0066759D01*
X0338114Y0066743D01*
X0338067Y0066724D01*
X0338022Y0066701D01*
X0337979Y0066675D01*
X0337937Y0066647D01*
X0337898Y0066615D01*
X0337861Y0066580D01*
X0337826Y0066543D01*
X0337794Y0066504D01*
X0337766Y0066462D01*
X0337740Y0066419D01*
X0337717Y0066374D01*
X0337698Y0066327D01*
X0337682Y0066279D01*
X0337669Y0066230D01*
X0337660Y0066180D01*
X0337655Y0066130D01*
X0337653Y0066079D01*
X0337654Y0066079D02*
X0337654Y0065606D01*
X0337653Y0065606D02*
X0337655Y0065555D01*
X0337660Y0065505D01*
X0337669Y0065455D01*
X0337682Y0065406D01*
X0337698Y0065358D01*
X0337717Y0065311D01*
X0337740Y0065266D01*
X0337766Y0065223D01*
X0337794Y0065181D01*
X0337826Y0065142D01*
X0337861Y0065105D01*
X0337898Y0065070D01*
X0337937Y0065038D01*
X0337979Y0065010D01*
X0338022Y0064984D01*
X0338067Y0064961D01*
X0338114Y0064942D01*
X0338162Y0064926D01*
X0338211Y0064913D01*
X0338261Y0064904D01*
X0338311Y0064899D01*
X0338362Y0064897D01*
X0338441Y0064898D02*
X0339386Y0064898D01*
X0337654Y0063638D02*
X0341118Y0063638D01*
X0341118Y0062457D01*
X0341116Y0062406D01*
X0341111Y0062356D01*
X0341102Y0062306D01*
X0341089Y0062257D01*
X0341073Y0062209D01*
X0341054Y0062162D01*
X0341031Y0062117D01*
X0341005Y0062074D01*
X0340977Y0062032D01*
X0340945Y0061993D01*
X0340910Y0061956D01*
X0340873Y0061921D01*
X0340834Y0061889D01*
X0340792Y0061861D01*
X0340749Y0061835D01*
X0340704Y0061812D01*
X0340657Y0061793D01*
X0340609Y0061777D01*
X0340560Y0061764D01*
X0340510Y0061755D01*
X0340460Y0061750D01*
X0340409Y0061748D01*
X0338362Y0061748D01*
X0338311Y0061750D01*
X0338261Y0061755D01*
X0338211Y0061764D01*
X0338162Y0061777D01*
X0338114Y0061793D01*
X0338067Y0061812D01*
X0338022Y0061835D01*
X0337979Y0061861D01*
X0337937Y0061889D01*
X0337898Y0061921D01*
X0337861Y0061956D01*
X0337826Y0061993D01*
X0337794Y0062032D01*
X0337766Y0062074D01*
X0337740Y0062117D01*
X0337717Y0062162D01*
X0337698Y0062209D01*
X0337682Y0062257D01*
X0337669Y0062306D01*
X0337660Y0062356D01*
X0337655Y0062406D01*
X0337653Y0062457D01*
X0337654Y0062457D02*
X0337654Y0063638D01*
X0341157Y0063638D02*
X0343205Y0063638D01*
X0341079Y0060331D02*
X0335488Y0060331D01*
X0337654Y0060055D02*
X0337654Y0059150D01*
X0337653Y0059150D02*
X0337655Y0059099D01*
X0337660Y0059049D01*
X0337669Y0058999D01*
X0337682Y0058950D01*
X0337698Y0058902D01*
X0337717Y0058855D01*
X0337740Y0058810D01*
X0337766Y0058767D01*
X0337794Y0058725D01*
X0337826Y0058686D01*
X0337861Y0058649D01*
X0337898Y0058614D01*
X0337937Y0058582D01*
X0337979Y0058554D01*
X0338022Y0058528D01*
X0338067Y0058505D01*
X0338114Y0058486D01*
X0338162Y0058470D01*
X0338211Y0058457D01*
X0338261Y0058448D01*
X0338311Y0058443D01*
X0338362Y0058441D01*
X0341118Y0058402D01*
X0341079Y0056236D02*
X0337299Y0057535D01*
X0337299Y0055016D02*
X0342614Y0056669D01*
X0342693Y0056709D02*
X0343087Y0056984D01*
X0343165Y0057339D01*
X0343165Y0057535D01*
X0340921Y0054110D02*
X0340843Y0054110D01*
X0340921Y0054110D02*
X0341039Y0054031D01*
X0341157Y0053835D01*
X0341236Y0053677D01*
X0341236Y0053638D02*
X0341236Y0053165D01*
X0341237Y0053165D02*
X0341235Y0053114D01*
X0341230Y0053064D01*
X0341221Y0053014D01*
X0341208Y0052965D01*
X0341192Y0052917D01*
X0341173Y0052870D01*
X0341150Y0052825D01*
X0341124Y0052782D01*
X0341096Y0052740D01*
X0341064Y0052701D01*
X0341029Y0052664D01*
X0340992Y0052629D01*
X0340953Y0052597D01*
X0340911Y0052569D01*
X0340868Y0052543D01*
X0340823Y0052520D01*
X0340776Y0052501D01*
X0340728Y0052485D01*
X0340679Y0052472D01*
X0340629Y0052463D01*
X0340579Y0052458D01*
X0340528Y0052456D01*
X0340488Y0052457D02*
X0340291Y0052457D01*
X0340094Y0052496D01*
X0339740Y0052850D01*
X0339268Y0053480D01*
X0339346Y0053362D02*
X0338874Y0053992D01*
X0338638Y0054150D01*
X0338441Y0054189D01*
X0338244Y0054189D01*
X0338205Y0054189D02*
X0338154Y0054187D01*
X0338104Y0054182D01*
X0338054Y0054173D01*
X0338005Y0054160D01*
X0337957Y0054144D01*
X0337910Y0054125D01*
X0337865Y0054102D01*
X0337822Y0054076D01*
X0337780Y0054048D01*
X0337741Y0054016D01*
X0337704Y0053981D01*
X0337669Y0053944D01*
X0337637Y0053905D01*
X0337609Y0053863D01*
X0337583Y0053820D01*
X0337560Y0053775D01*
X0337541Y0053728D01*
X0337525Y0053680D01*
X0337512Y0053631D01*
X0337503Y0053581D01*
X0337498Y0053531D01*
X0337496Y0053480D01*
X0337496Y0053008D01*
X0337496Y0052969D02*
X0337575Y0052811D01*
X0337693Y0052614D01*
X0337811Y0052535D01*
X0337890Y0052535D01*
X0341157Y0077929D02*
X0343205Y0077929D01*
X0341118Y0079937D02*
X0341118Y0080409D01*
X0341116Y0080460D01*
X0341111Y0080510D01*
X0341102Y0080560D01*
X0341089Y0080609D01*
X0341073Y0080657D01*
X0341054Y0080704D01*
X0341031Y0080749D01*
X0341005Y0080792D01*
X0340977Y0080834D01*
X0340945Y0080873D01*
X0340910Y0080910D01*
X0340873Y0080945D01*
X0340834Y0080977D01*
X0340792Y0081005D01*
X0340749Y0081031D01*
X0340704Y0081054D01*
X0340657Y0081073D01*
X0340609Y0081089D01*
X0340560Y0081102D01*
X0340510Y0081111D01*
X0340460Y0081116D01*
X0340409Y0081118D01*
X0338362Y0081118D01*
X0338311Y0081116D01*
X0338261Y0081111D01*
X0338211Y0081102D01*
X0338162Y0081089D01*
X0338114Y0081073D01*
X0338067Y0081054D01*
X0338022Y0081031D01*
X0337979Y0081005D01*
X0337937Y0080977D01*
X0337898Y0080945D01*
X0337861Y0080910D01*
X0337826Y0080873D01*
X0337794Y0080834D01*
X0337766Y0080792D01*
X0337740Y0080749D01*
X0337717Y0080704D01*
X0337698Y0080657D01*
X0337682Y0080609D01*
X0337669Y0080560D01*
X0337660Y0080510D01*
X0337655Y0080460D01*
X0337653Y0080409D01*
X0337654Y0080409D02*
X0337654Y0079937D01*
X0337653Y0079937D02*
X0337655Y0079886D01*
X0337660Y0079836D01*
X0337669Y0079786D01*
X0337682Y0079737D01*
X0337698Y0079689D01*
X0337717Y0079642D01*
X0337740Y0079597D01*
X0337766Y0079554D01*
X0337794Y0079512D01*
X0337826Y0079473D01*
X0337861Y0079436D01*
X0337898Y0079401D01*
X0337937Y0079369D01*
X0337979Y0079341D01*
X0338022Y0079315D01*
X0338067Y0079292D01*
X0338114Y0079273D01*
X0338162Y0079257D01*
X0338211Y0079244D01*
X0338261Y0079235D01*
X0338311Y0079230D01*
X0338362Y0079228D01*
X0340409Y0079228D01*
X0340460Y0079230D01*
X0340510Y0079235D01*
X0340560Y0079244D01*
X0340609Y0079257D01*
X0340657Y0079273D01*
X0340704Y0079292D01*
X0340749Y0079315D01*
X0340792Y0079341D01*
X0340834Y0079369D01*
X0340873Y0079401D01*
X0340910Y0079436D01*
X0340945Y0079473D01*
X0340977Y0079512D01*
X0341005Y0079554D01*
X0341031Y0079597D01*
X0341054Y0079642D01*
X0341073Y0079689D01*
X0341089Y0079737D01*
X0341102Y0079786D01*
X0341111Y0079836D01*
X0341116Y0079886D01*
X0341118Y0079937D01*
D32*
X0236028Y0256709D03*
X0225028Y0256709D03*
D33*
X0228953Y0269504D03*
D34*
X0229937Y0273244D03*
X0227969Y0273244D03*
X0226000Y0273244D03*
X0231906Y0273244D03*
X0231906Y0265764D03*
X0229937Y0265764D03*
X0227969Y0265764D03*
X0226000Y0265764D03*
D35*
X0244533Y0070065D03*
D36*
X0239533Y0070065D03*
X0234533Y0070065D03*
X0229533Y0070065D03*
X0224533Y0070065D03*
X0224533Y0075065D03*
X0229533Y0075065D03*
X0234533Y0075065D03*
X0239533Y0075065D03*
X0244533Y0075065D03*
D37*
X0242339Y0077575D03*
X0236827Y0077575D03*
X0232102Y0077575D03*
X0226984Y0077575D03*
X0219504Y0077181D03*
X0214386Y0073835D03*
X0219780Y0071866D03*
X0215449Y0066748D03*
X0221472Y0063598D03*
X0223047Y0058087D03*
X0228559Y0060646D03*
X0233283Y0059071D03*
X0234228Y0065252D03*
X0232033Y0067654D03*
X0227033Y0067469D03*
X0237033Y0067937D03*
X0242033Y0066803D03*
X0242457Y0064268D03*
X0240291Y0061197D03*
X0247260Y0066236D03*
X0257299Y0065567D03*
X0257890Y0062220D03*
X0260331Y0061276D03*
X0262299Y0061276D03*
X0261512Y0064031D03*
X0262299Y0066000D03*
X0261512Y0068362D03*
X0262890Y0070724D03*
X0264780Y0074819D03*
X0269307Y0074425D03*
X0272850Y0074425D03*
X0279543Y0074031D03*
X0282693Y0073638D03*
X0285843Y0063402D03*
X0285843Y0059465D03*
X0287024Y0057496D03*
X0285843Y0055528D03*
X0287811Y0052378D03*
X0286236Y0046472D03*
X0278362Y0046472D03*
X0270488Y0046472D03*
X0270488Y0050606D03*
X0268402Y0050331D03*
X0262614Y0046472D03*
X0254740Y0046472D03*
X0246866Y0046472D03*
X0238992Y0046472D03*
X0231118Y0046472D03*
X0223244Y0046472D03*
X0215370Y0046472D03*
X0207496Y0046472D03*
X0199622Y0046472D03*
X0199622Y0051984D03*
X0190961Y0050409D03*
X0190961Y0047654D03*
X0187417Y0052772D03*
X0183874Y0046472D03*
X0177575Y0055528D03*
X0177575Y0057890D03*
X0177969Y0060646D03*
X0167994Y0062924D03*
X0167994Y0065060D03*
X0165370Y0060252D03*
X0168913Y0053953D03*
X0168126Y0051984D03*
X0168126Y0046472D03*
X0160252Y0046472D03*
X0159071Y0052378D03*
X0152772Y0058283D03*
X0144898Y0058283D03*
X0137024Y0058283D03*
X0129150Y0058283D03*
X0121276Y0058283D03*
X0113402Y0058283D03*
X0105528Y0058283D03*
X0105528Y0065370D03*
X0094898Y0076000D03*
X0091354Y0076000D03*
X0083480Y0076000D03*
X0075606Y0076000D03*
X0067339Y0076000D03*
X0059858Y0076000D03*
X0051984Y0076000D03*
X0051984Y0083874D03*
X0060843Y0086827D03*
X0051984Y0091748D03*
X0051984Y0099622D03*
X0059465Y0102772D03*
X0051984Y0107496D03*
X0051984Y0115370D03*
X0060646Y0120488D03*
X0051984Y0123244D03*
X0051984Y0131118D03*
X0051984Y0138992D03*
X0051984Y0146866D03*
X0051984Y0154740D03*
X0058677Y0157102D03*
X0051984Y0162614D03*
X0051984Y0170488D03*
X0051984Y0178362D03*
X0063795Y0183874D03*
X0081118Y0199228D03*
X0080724Y0207102D03*
X0081118Y0214189D03*
X0080724Y0221669D03*
X0081118Y0229150D03*
X0093717Y0235843D03*
X0096866Y0232299D03*
X0101197Y0229937D03*
X0106315Y0228756D03*
X0111039Y0228756D03*
X0116945Y0228756D03*
X0121669Y0228756D03*
X0127181Y0228756D03*
X0125606Y0235449D03*
X0119701Y0235449D03*
X0113795Y0235449D03*
X0108283Y0235449D03*
X0103165Y0236630D03*
X0099622Y0238992D03*
X0094504Y0244504D03*
X0089386Y0238598D03*
X0084661Y0238992D03*
X0079543Y0239780D03*
X0095476Y0255921D03*
X0093717Y0259071D03*
X0094110Y0263008D03*
X0090173Y0263008D03*
X0086236Y0263008D03*
X0090173Y0270094D03*
X0094110Y0270094D03*
X0098047Y0270094D03*
X0101984Y0270094D03*
X0101984Y0263008D03*
X0098047Y0263008D03*
X0105921Y0263008D03*
X0109071Y0255921D03*
X0113795Y0263008D03*
X0117732Y0263008D03*
X0121669Y0263008D03*
X0125606Y0263008D03*
X0129543Y0263008D03*
X0133480Y0263008D03*
X0136630Y0264583D03*
X0140567Y0264976D03*
X0140567Y0262220D03*
X0143323Y0262220D03*
X0143323Y0264976D03*
X0143323Y0268520D03*
X0140567Y0268520D03*
X0133874Y0271276D03*
X0129543Y0270094D03*
X0125606Y0270094D03*
X0121669Y0270094D03*
X0117732Y0270094D03*
X0113795Y0270094D03*
X0109858Y0270094D03*
X0116945Y0274031D03*
X0116945Y0285449D03*
X0101197Y0296472D03*
X0098047Y0299228D03*
X0101197Y0302772D03*
X0105528Y0303953D03*
X0109858Y0303559D03*
X0118126Y0303559D03*
X0120094Y0301984D03*
X0118126Y0298441D03*
X0138205Y0300803D03*
X0138598Y0305921D03*
X0144504Y0314189D03*
X0152378Y0314189D03*
X0160252Y0314189D03*
X0168126Y0314189D03*
X0172260Y0312811D03*
X0176000Y0314189D03*
X0183874Y0314189D03*
X0182299Y0307102D03*
X0180724Y0305528D03*
X0179150Y0307102D03*
X0182299Y0303953D03*
X0186433Y0298638D03*
X0188402Y0298638D03*
X0190370Y0298638D03*
X0193717Y0301984D03*
X0194495Y0296284D03*
X0205921Y0298835D03*
X0204740Y0303559D03*
X0207496Y0314189D03*
X0199622Y0314189D03*
X0191748Y0314189D03*
X0215370Y0314189D03*
X0223244Y0314189D03*
X0231118Y0314189D03*
X0238992Y0314189D03*
X0246866Y0314189D03*
X0249228Y0313008D03*
X0254740Y0314189D03*
X0262614Y0314189D03*
X0262257Y0308320D03*
X0270488Y0314189D03*
X0278362Y0314189D03*
X0277969Y0311433D03*
X0276787Y0305528D03*
X0282993Y0306406D03*
X0284962Y0304438D03*
X0286930Y0306406D03*
X0286930Y0302469D03*
X0282993Y0302469D03*
X0277732Y0298008D03*
X0272068Y0294989D03*
X0269804Y0294694D03*
X0268328Y0292233D03*
X0270493Y0291839D03*
X0273244Y0292142D03*
X0274425Y0288992D03*
X0272167Y0288887D03*
X0269608Y0289083D03*
X0267245Y0288296D03*
X0265867Y0289772D03*
X0268328Y0286328D03*
X0271182Y0285737D03*
X0273244Y0283480D03*
X0274234Y0285934D03*
X0278362Y0289386D03*
X0281512Y0290961D03*
X0289780Y0291354D03*
X0293323Y0292535D03*
X0295685Y0301197D03*
X0294071Y0304930D03*
X0296197Y0307299D03*
X0294110Y0314189D03*
X0301984Y0314189D03*
X0309858Y0314189D03*
X0317732Y0314189D03*
X0325606Y0314189D03*
X0333480Y0314189D03*
X0341354Y0314189D03*
X0349228Y0314189D03*
X0349228Y0306315D03*
X0341354Y0305921D03*
X0349228Y0298441D03*
X0349228Y0290567D03*
X0349228Y0282693D03*
X0349228Y0274819D03*
X0349228Y0266945D03*
X0349228Y0259071D03*
X0349228Y0251197D03*
X0349228Y0243323D03*
X0343717Y0239780D03*
X0349228Y0235449D03*
X0344110Y0227969D03*
X0343323Y0225213D03*
X0349228Y0227575D03*
X0349228Y0219701D03*
X0349228Y0211827D03*
X0349228Y0203953D03*
X0336236Y0205528D03*
X0336236Y0209858D03*
X0331118Y0210252D03*
X0331118Y0213402D03*
X0326787Y0209858D03*
X0326000Y0205134D03*
X0326394Y0200409D03*
X0322063Y0199622D03*
X0322063Y0194504D03*
X0326394Y0190173D03*
X0331118Y0194110D03*
X0336236Y0195291D03*
X0336630Y0200016D03*
X0331118Y0200016D03*
X0331118Y0205134D03*
X0321669Y0209071D03*
X0321669Y0211433D03*
X0321276Y0215370D03*
X0317339Y0214583D03*
X0316945Y0219307D03*
X0311827Y0219307D03*
X0311827Y0224425D03*
X0315764Y0225213D03*
X0316551Y0229937D03*
X0311827Y0234268D03*
X0316551Y0234661D03*
X0316157Y0240173D03*
X0312220Y0239780D03*
X0311039Y0244110D03*
X0311433Y0248047D03*
X0305921Y0243126D03*
X0301000Y0243126D03*
X0300882Y0237654D03*
X0296276Y0237457D03*
X0296472Y0233480D03*
X0296472Y0228756D03*
X0295291Y0225606D03*
X0296315Y0223835D03*
X0291748Y0224425D03*
X0290173Y0226394D03*
X0291748Y0228756D03*
X0291354Y0233480D03*
X0290567Y0239780D03*
X0291748Y0244898D03*
X0288992Y0247654D03*
X0287850Y0248913D03*
X0286433Y0250331D03*
X0285055Y0251630D03*
X0283795Y0252890D03*
X0282417Y0254071D03*
X0281000Y0255606D03*
X0279465Y0256906D03*
X0278165Y0258087D03*
X0291354Y0263402D03*
X0296866Y0260252D03*
X0298441Y0263008D03*
X0301197Y0260252D03*
X0301197Y0255528D03*
X0301197Y0250409D03*
X0297260Y0249622D03*
X0292535Y0250016D03*
X0292535Y0254740D03*
X0301984Y0264976D03*
X0301197Y0268913D03*
X0296079Y0268520D03*
X0292142Y0270094D03*
X0282693Y0274031D03*
X0282693Y0276787D03*
X0286630Y0279937D03*
X0270001Y0282587D03*
X0267737Y0283276D03*
X0265671Y0284950D03*
X0260946Y0289772D03*
X0265370Y0299622D03*
X0270395Y0298139D03*
X0250611Y0300599D03*
X0246866Y0294110D03*
X0241354Y0298441D03*
X0241261Y0289772D03*
X0238800Y0289379D03*
X0238899Y0287213D03*
X0237718Y0285245D03*
X0236045Y0286721D03*
X0235848Y0289280D03*
X0233289Y0288690D03*
X0233480Y0285843D03*
X0240867Y0285639D03*
X0246182Y0285639D03*
X0246182Y0289379D03*
X0246472Y0280724D03*
X0248441Y0279543D03*
X0250803Y0277575D03*
X0251197Y0274819D03*
X0249228Y0274819D03*
X0249228Y0272850D03*
X0251591Y0272850D03*
X0253165Y0274031D03*
X0254346Y0272850D03*
X0245685Y0276984D03*
X0253559Y0279858D03*
X0256025Y0279930D03*
X0235449Y0265567D03*
X0234465Y0266748D03*
X0225213Y0269307D03*
X0223638Y0268520D03*
X0222063Y0269504D03*
X0220488Y0268717D03*
X0218520Y0268913D03*
X0216551Y0268913D03*
X0213795Y0268520D03*
X0209858Y0270882D03*
X0211433Y0272850D03*
X0209858Y0276787D03*
X0207496Y0274819D03*
X0207496Y0278756D03*
X0210055Y0282505D03*
X0211827Y0283686D03*
X0212614Y0285449D03*
X0215764Y0287024D03*
X0216945Y0290961D03*
X0223244Y0299622D03*
X0212811Y0280724D03*
X0216945Y0273244D03*
X0207496Y0269307D03*
X0207102Y0266551D03*
X0208677Y0264976D03*
X0209858Y0261827D03*
X0207693Y0259858D03*
X0209661Y0257890D03*
X0207496Y0256315D03*
X0209071Y0253953D03*
X0207299Y0252378D03*
X0198047Y0247260D03*
X0196079Y0250409D03*
X0193717Y0248441D03*
X0182693Y0260252D03*
X0182693Y0263008D03*
X0182693Y0267339D03*
X0187024Y0267339D03*
X0187024Y0272850D03*
X0182693Y0272850D03*
X0182693Y0277181D03*
X0179937Y0279543D03*
X0177181Y0277181D03*
X0177181Y0272850D03*
X0172850Y0272850D03*
X0170291Y0270291D03*
X0172850Y0267339D03*
X0177181Y0267339D03*
X0177181Y0263008D03*
X0170094Y0262220D03*
X0168126Y0253953D03*
X0172457Y0251984D03*
X0171268Y0247656D03*
X0163008Y0242535D03*
X0156709Y0245481D03*
X0153559Y0246866D03*
X0159465Y0248441D03*
X0161039Y0254543D03*
X0163167Y0253794D03*
X0149622Y0261827D03*
X0137811Y0274819D03*
X0133087Y0276394D03*
X0132693Y0281512D03*
X0140370Y0280528D03*
X0144307Y0277969D03*
X0150016Y0278362D03*
X0154937Y0279346D03*
X0151984Y0284465D03*
X0155134Y0289386D03*
X0148047Y0288992D03*
X0145882Y0283087D03*
X0138205Y0288992D03*
X0148441Y0295291D03*
X0165173Y0292339D03*
X0167142Y0292339D03*
X0168913Y0292339D03*
X0170801Y0292061D03*
X0176591Y0286630D03*
X0171079Y0285449D03*
X0165173Y0287811D03*
X0164976Y0289583D03*
X0172850Y0297850D03*
X0184479Y0286418D03*
X0188598Y0279543D03*
X0199819Y0283874D03*
X0199819Y0272260D03*
X0199622Y0266551D03*
X0201591Y0266748D03*
X0204150Y0266748D03*
X0204346Y0263402D03*
X0202378Y0263402D03*
X0200213Y0263402D03*
X0198244Y0263402D03*
X0170094Y0279150D03*
X0209071Y0242142D03*
X0210252Y0240567D03*
X0212220Y0238992D03*
X0216551Y0239976D03*
X0219307Y0241354D03*
X0224937Y0236669D03*
X0227969Y0237417D03*
X0229150Y0238992D03*
X0227969Y0240370D03*
X0230331Y0240567D03*
X0231512Y0238992D03*
X0232496Y0237417D03*
X0230331Y0237417D03*
X0231709Y0234465D03*
X0231315Y0231315D03*
X0232102Y0227969D03*
X0227181Y0227181D03*
X0221866Y0227772D03*
X0218126Y0229150D03*
X0222654Y0233087D03*
X0227181Y0233283D03*
X0232496Y0240567D03*
X0238756Y0239307D03*
X0240094Y0237929D03*
X0241945Y0237024D03*
X0242142Y0238795D03*
X0243217Y0241251D03*
X0245094Y0241354D03*
X0247966Y0241165D03*
X0253362Y0237220D03*
X0257843Y0229341D03*
X0258874Y0226787D03*
X0259071Y0222654D03*
X0263402Y0222654D03*
X0263205Y0217142D03*
X0259071Y0217142D03*
X0259071Y0213008D03*
X0253559Y0213795D03*
X0253559Y0217142D03*
X0249228Y0217142D03*
X0247063Y0220094D03*
X0249425Y0222654D03*
X0253559Y0222654D03*
X0253559Y0226787D03*
X0247410Y0229459D03*
X0241052Y0241251D03*
X0265835Y0228554D03*
X0271276Y0233283D03*
X0276000Y0222253D03*
X0280331Y0220882D03*
X0279937Y0218913D03*
X0280127Y0216349D03*
X0277961Y0216546D03*
X0275993Y0216743D03*
X0272457Y0212614D03*
X0272457Y0210646D03*
X0273638Y0208677D03*
X0272063Y0206315D03*
X0274031Y0204346D03*
X0270488Y0200803D03*
X0268913Y0202772D03*
X0272850Y0198517D03*
X0272260Y0195291D03*
X0281118Y0189780D03*
X0283480Y0188205D03*
X0290961Y0192929D03*
X0296472Y0192929D03*
X0301197Y0193717D03*
X0301197Y0198441D03*
X0296079Y0198441D03*
X0301591Y0204346D03*
X0306709Y0204346D03*
X0311039Y0205528D03*
X0316551Y0205134D03*
X0320882Y0205134D03*
X0315764Y0199622D03*
X0311039Y0199622D03*
X0307102Y0199228D03*
X0305921Y0194110D03*
X0306709Y0189386D03*
X0306315Y0185843D03*
X0301197Y0188205D03*
X0296472Y0183087D03*
X0301591Y0179150D03*
X0305921Y0179543D03*
X0311039Y0180331D03*
X0315764Y0185449D03*
X0316945Y0180331D03*
X0321276Y0181118D03*
X0321276Y0185843D03*
X0326394Y0185055D03*
X0326787Y0179937D03*
X0331118Y0180134D03*
X0336236Y0179937D03*
X0336236Y0183874D03*
X0349228Y0180331D03*
X0349228Y0188205D03*
X0349228Y0196079D03*
X0349228Y0172457D03*
X0336236Y0169701D03*
X0331315Y0170291D03*
X0331315Y0175606D03*
X0324425Y0175606D03*
X0321079Y0175016D03*
X0321276Y0170291D03*
X0316945Y0170882D03*
X0316551Y0166551D03*
X0312220Y0164583D03*
X0316157Y0159858D03*
X0320882Y0160646D03*
X0321079Y0155134D03*
X0326197Y0155331D03*
X0331118Y0160252D03*
X0336236Y0160252D03*
X0335843Y0155528D03*
X0335843Y0149228D03*
X0336039Y0145291D03*
X0336236Y0140370D03*
X0330724Y0140173D03*
X0326197Y0140173D03*
X0331315Y0135252D03*
X0330921Y0130331D03*
X0326000Y0130134D03*
X0321276Y0133480D03*
X0316551Y0137024D03*
X0311039Y0139780D03*
X0306315Y0139780D03*
X0301197Y0139780D03*
X0296472Y0138992D03*
X0296472Y0141748D03*
X0300425Y0144519D03*
X0301197Y0148047D03*
X0306315Y0150016D03*
X0311433Y0150016D03*
X0311827Y0146079D03*
X0316157Y0144504D03*
X0321276Y0145094D03*
X0316551Y0150016D03*
X0316157Y0155134D03*
X0311039Y0155528D03*
X0306315Y0155528D03*
X0306315Y0159858D03*
X0306315Y0165370D03*
X0301197Y0164976D03*
X0301197Y0168913D03*
X0296472Y0168913D03*
X0295685Y0164976D03*
X0292142Y0164583D03*
X0288205Y0164976D03*
X0296079Y0159858D03*
X0296866Y0155921D03*
X0301197Y0155528D03*
X0296472Y0151197D03*
X0290961Y0157890D03*
X0285449Y0158283D03*
X0282693Y0163008D03*
X0282693Y0166945D03*
X0274425Y0166157D03*
X0274425Y0163402D03*
X0274425Y0161433D03*
X0274819Y0159465D03*
X0272457Y0159465D03*
X0271669Y0161433D03*
X0270094Y0160252D03*
X0265370Y0163795D03*
X0262614Y0163795D03*
X0262614Y0166551D03*
X0265370Y0166551D03*
X0257890Y0170882D03*
X0251984Y0166551D03*
X0252378Y0163795D03*
X0252378Y0161827D03*
X0250803Y0160646D03*
X0250016Y0162614D03*
X0248389Y0161039D03*
X0243717Y0164583D03*
X0240961Y0164583D03*
X0240961Y0167732D03*
X0243717Y0167732D03*
X0236236Y0171276D03*
X0230331Y0163008D03*
X0230724Y0161039D03*
X0228756Y0161039D03*
X0227969Y0159071D03*
X0230331Y0159071D03*
X0226394Y0161039D03*
X0227969Y0163008D03*
X0221669Y0164583D03*
X0221669Y0167339D03*
X0218913Y0167339D03*
X0218913Y0164583D03*
X0216945Y0158283D03*
X0213402Y0170488D03*
X0213402Y0178362D03*
X0214583Y0185843D03*
X0217339Y0187417D03*
X0212804Y0196566D03*
X0235843Y0199418D03*
X0238598Y0199622D03*
X0243264Y0194533D03*
X0245291Y0197260D03*
X0246006Y0199625D03*
X0244635Y0203428D03*
X0250480Y0203433D03*
X0246859Y0211861D03*
X0221276Y0218126D03*
X0218913Y0215173D03*
X0216748Y0215173D03*
X0216748Y0212024D03*
X0218913Y0212024D03*
X0214583Y0218520D03*
X0217339Y0220488D03*
X0212614Y0222850D03*
X0205528Y0228756D03*
X0199622Y0228756D03*
X0193717Y0228756D03*
X0187811Y0228756D03*
X0181906Y0228756D03*
X0176000Y0228756D03*
X0170094Y0228756D03*
X0164189Y0228756D03*
X0158283Y0228756D03*
X0152378Y0228756D03*
X0146472Y0228756D03*
X0140567Y0228756D03*
X0136236Y0228756D03*
X0137417Y0235449D03*
X0136630Y0239780D03*
X0131512Y0235449D03*
X0143323Y0235449D03*
X0149228Y0235449D03*
X0155134Y0235449D03*
X0157496Y0238205D03*
X0161039Y0235449D03*
X0166945Y0235449D03*
X0168126Y0237784D03*
X0172850Y0235449D03*
X0178756Y0235449D03*
X0184661Y0235449D03*
X0190567Y0235449D03*
X0196472Y0235449D03*
X0202378Y0235449D03*
X0208283Y0235449D03*
X0212220Y0234268D03*
X0203559Y0216945D03*
X0209071Y0213795D03*
X0197654Y0216945D03*
X0184268Y0220488D03*
X0184268Y0209465D03*
X0178362Y0210252D03*
X0170882Y0216551D03*
X0155921Y0219701D03*
X0148047Y0214583D03*
X0136236Y0219307D03*
X0126787Y0211039D03*
X0123244Y0209071D03*
X0132299Y0209858D03*
X0124031Y0196079D03*
X0125213Y0179937D03*
X0116551Y0177575D03*
X0114976Y0179543D03*
X0111827Y0176000D03*
X0115764Y0174425D03*
X0117339Y0172850D03*
X0118913Y0171276D03*
X0120488Y0169701D03*
X0122457Y0168913D03*
X0124819Y0165370D03*
X0126394Y0163795D03*
X0129543Y0165370D03*
X0127969Y0168126D03*
X0134465Y0162811D03*
X0141276Y0161197D03*
X0123327Y0159017D03*
X0123182Y0161406D03*
X0121669Y0164275D03*
X0115370Y0168520D03*
X0112614Y0164398D03*
X0111433Y0160646D03*
X0106709Y0163402D03*
X0104740Y0165764D03*
X0106709Y0167732D03*
X0104740Y0168913D03*
X0107496Y0172063D03*
X0109465Y0170488D03*
X0105528Y0178756D03*
X0088205Y0175606D03*
X0089386Y0161827D03*
X0089780Y0156709D03*
X0089386Y0153165D03*
X0089386Y0148835D03*
X0076394Y0146472D03*
X0068520Y0142142D03*
X0061433Y0144898D03*
X0067732Y0134268D03*
X0076000Y0119307D03*
X0084661Y0118520D03*
X0088992Y0118520D03*
X0087417Y0122457D03*
X0085055Y0126394D03*
X0088992Y0126787D03*
X0089386Y0132102D03*
X0085449Y0134268D03*
X0089386Y0137811D03*
X0085055Y0141354D03*
X0103559Y0139386D03*
X0105821Y0139359D03*
X0103559Y0137024D03*
X0103545Y0134268D03*
X0104760Y0132353D03*
X0105613Y0129177D03*
X0105821Y0126448D03*
X0105843Y0123835D03*
X0102929Y0121276D03*
X0101591Y0124031D03*
X0097654Y0126837D03*
X0099622Y0129150D03*
X0113076Y0120951D03*
X0111108Y0120163D03*
X0115357Y0120956D03*
X0120882Y0124677D03*
X0123182Y0125633D03*
X0127119Y0131960D03*
X0120402Y0132863D03*
X0120820Y0136657D03*
X0115370Y0140961D03*
X0113008Y0140961D03*
X0117732Y0141748D03*
X0116157Y0148441D03*
X0113333Y0148510D03*
X0110646Y0148441D03*
X0106709Y0150409D03*
X0105134Y0152513D03*
X0106709Y0155161D03*
X0104346Y0156315D03*
X0104346Y0159071D03*
X0119910Y0151937D03*
X0121607Y0153193D03*
X0119898Y0148835D03*
X0124374Y0147346D03*
X0128362Y0138205D03*
X0114189Y0131118D03*
X0105907Y0142617D03*
X0076394Y0159465D03*
X0065370Y0168520D03*
X0096079Y0119337D03*
X0096866Y0116551D03*
X0090961Y0114189D03*
X0093158Y0111190D03*
X0090173Y0109465D03*
X0088047Y0109622D03*
X0085449Y0112220D03*
X0089307Y0104307D03*
X0076000Y0107890D03*
X0068126Y0096472D03*
X0081315Y0088008D03*
X0105528Y0095882D03*
X0105724Y0099228D03*
X0110646Y0093717D03*
X0112614Y0094110D03*
X0115130Y0093957D03*
X0118520Y0092929D03*
X0120094Y0094898D03*
X0121669Y0098441D03*
X0121376Y0104910D03*
X0122149Y0109635D03*
X0120813Y0110971D03*
X0123638Y0114976D03*
X0128362Y0118126D03*
X0114976Y0113795D03*
X0112024Y0110616D03*
X0105196Y0110225D03*
X0104891Y0106315D03*
X0113552Y0104346D03*
X0105331Y0115764D03*
X0128362Y0095685D03*
X0128165Y0090173D03*
X0134268Y0088795D03*
X0134268Y0086827D03*
X0134661Y0084939D03*
X0128165Y0084465D03*
X0128362Y0077772D03*
X0118913Y0081315D03*
X0109858Y0090370D03*
X0150016Y0083874D03*
X0153461Y0084169D03*
X0155921Y0083480D03*
X0176959Y0077403D03*
X0179372Y0080502D03*
X0176959Y0072679D03*
X0178584Y0071447D03*
X0190173Y0074031D03*
X0191748Y0075606D03*
X0193520Y0074819D03*
X0193323Y0077181D03*
X0192929Y0071276D03*
X0204346Y0075213D03*
X0204346Y0077778D03*
X0208205Y0069819D03*
X0208087Y0063008D03*
X0215291Y0058402D03*
X0248835Y0076787D03*
X0253283Y0074307D03*
X0256433Y0077457D03*
X0259583Y0074701D03*
X0257417Y0070409D03*
X0260409Y0057693D03*
X0262457Y0057693D03*
X0294110Y0046472D03*
X0301984Y0046472D03*
X0309858Y0046472D03*
X0317732Y0046472D03*
X0325606Y0046472D03*
X0331118Y0046472D03*
X0341354Y0046472D03*
X0349228Y0046472D03*
X0349228Y0054740D03*
X0345409Y0057496D03*
X0349228Y0062220D03*
X0349228Y0070094D03*
X0343756Y0071709D03*
X0349228Y0077969D03*
X0349228Y0085843D03*
X0335843Y0085449D03*
X0335843Y0080331D03*
X0326394Y0080331D03*
X0326984Y0085252D03*
X0324228Y0084898D03*
X0318520Y0080331D03*
X0312811Y0084740D03*
X0313008Y0090173D03*
X0314583Y0095685D03*
X0311827Y0100803D03*
X0309071Y0100409D03*
X0311827Y0105134D03*
X0320882Y0100803D03*
X0326000Y0105331D03*
X0331512Y0100803D03*
X0336236Y0105528D03*
X0336236Y0110252D03*
X0336236Y0115370D03*
X0331118Y0115173D03*
X0326000Y0115764D03*
X0321472Y0115370D03*
X0316945Y0111039D03*
X0311827Y0111039D03*
X0311827Y0116157D03*
X0310646Y0120488D03*
X0306315Y0120488D03*
X0301197Y0120094D03*
X0301591Y0115764D03*
X0305921Y0114976D03*
X0306315Y0110646D03*
X0301984Y0110646D03*
X0296079Y0109858D03*
X0296472Y0105134D03*
X0291748Y0105134D03*
X0296079Y0100016D03*
X0296079Y0094898D03*
X0291748Y0096079D03*
X0292535Y0090567D03*
X0296079Y0090173D03*
X0301591Y0091748D03*
X0301591Y0096079D03*
X0301413Y0100390D03*
X0301197Y0105528D03*
X0306709Y0105921D03*
X0296079Y0115370D03*
X0296472Y0121276D03*
X0301984Y0126394D03*
X0300803Y0129937D03*
X0297260Y0129543D03*
X0296079Y0133874D03*
X0291354Y0133874D03*
X0292142Y0129543D03*
X0305921Y0129937D03*
X0307102Y0126000D03*
X0311827Y0126000D03*
X0316157Y0129937D03*
X0311433Y0131512D03*
X0321276Y0125409D03*
X0326394Y0121276D03*
X0336236Y0120882D03*
X0336236Y0130331D03*
X0349228Y0133087D03*
X0349228Y0140961D03*
X0349228Y0152772D03*
X0349228Y0162614D03*
X0326000Y0165173D03*
X0326197Y0150409D03*
X0311039Y0174425D03*
X0306709Y0174425D03*
X0301591Y0174031D03*
X0291354Y0172850D03*
X0291354Y0178756D03*
X0316157Y0194110D03*
X0300803Y0210252D03*
X0296079Y0210252D03*
X0291748Y0211039D03*
X0296472Y0217732D03*
X0306315Y0214189D03*
X0306315Y0224031D03*
X0305921Y0228362D03*
X0311039Y0229543D03*
X0306315Y0237811D03*
X0316945Y0244504D03*
X0320882Y0239386D03*
X0324031Y0235387D03*
X0326101Y0234022D03*
X0330331Y0235055D03*
X0329937Y0240173D03*
X0335843Y0239780D03*
X0336236Y0235055D03*
X0335843Y0230331D03*
X0336630Y0225606D03*
X0330724Y0225213D03*
X0326000Y0225606D03*
X0321276Y0225213D03*
X0330724Y0230331D03*
X0336236Y0245291D03*
X0331512Y0250409D03*
X0326394Y0250016D03*
X0316945Y0249622D03*
X0311433Y0254740D03*
X0310646Y0259858D03*
X0312220Y0264976D03*
X0316157Y0264976D03*
X0316551Y0259071D03*
X0311433Y0268913D03*
X0306315Y0265370D03*
X0321276Y0270488D03*
X0321276Y0279937D03*
X0328362Y0281118D03*
X0335449Y0270094D03*
X0331512Y0293717D03*
X0320882Y0300803D03*
X0306709Y0279937D03*
X0286236Y0314189D03*
X0283298Y0221487D03*
X0264189Y0188205D03*
X0260252Y0188205D03*
X0257102Y0188205D03*
X0237811Y0187811D03*
X0235449Y0187811D03*
X0236630Y0161433D03*
X0258283Y0160252D03*
X0289767Y0141748D03*
X0316551Y0120488D03*
X0326000Y0110449D03*
X0349228Y0111433D03*
X0349228Y0101591D03*
X0349189Y0093480D03*
X0336630Y0095685D03*
X0336236Y0090567D03*
X0331315Y0090173D03*
X0326197Y0095094D03*
X0321079Y0090370D03*
X0308677Y0079150D03*
X0298835Y0080331D03*
X0295902Y0084917D03*
X0291354Y0085055D03*
X0295685Y0070488D03*
X0297260Y0053165D03*
X0316551Y0066945D03*
X0323047Y0068717D03*
X0321276Y0059465D03*
X0278756Y0098047D03*
X0273638Y0102772D03*
X0274425Y0105921D03*
X0268126Y0107102D03*
X0263008Y0107496D03*
X0257890Y0107890D03*
X0253165Y0107890D03*
X0248047Y0107890D03*
X0248047Y0113008D03*
X0253165Y0113008D03*
X0257496Y0113008D03*
X0253165Y0117339D03*
X0248047Y0117339D03*
X0248441Y0102772D03*
X0253165Y0102772D03*
X0257890Y0102772D03*
X0263008Y0102772D03*
X0268126Y0102772D03*
X0263008Y0097654D03*
X0257890Y0097654D03*
X0253165Y0097654D03*
X0248441Y0097654D03*
X0243323Y0097654D03*
X0243323Y0102772D03*
X0238205Y0102772D03*
X0233087Y0102772D03*
X0228362Y0102772D03*
X0223244Y0102772D03*
X0218126Y0102772D03*
X0218126Y0107496D03*
X0223244Y0107496D03*
X0223244Y0112614D03*
X0218126Y0113008D03*
X0209071Y0113402D03*
X0210646Y0118913D03*
X0212220Y0126394D03*
X0204740Y0129543D03*
X0204740Y0132299D03*
X0204740Y0134661D03*
X0198441Y0144504D03*
X0196472Y0145685D03*
X0191748Y0143717D03*
X0184268Y0143323D03*
X0180724Y0142535D03*
X0177181Y0144110D03*
X0189386Y0152772D03*
X0194110Y0155528D03*
X0189347Y0161841D03*
X0192535Y0164583D03*
X0194432Y0166945D03*
X0194504Y0169307D03*
X0197260Y0172850D03*
X0193323Y0177575D03*
X0189780Y0178362D03*
X0187417Y0176000D03*
X0183480Y0179150D03*
X0182299Y0180724D03*
X0180927Y0182097D03*
X0179592Y0183432D03*
X0185055Y0182693D03*
X0175606Y0177575D03*
X0172457Y0174425D03*
X0175803Y0171276D03*
X0171472Y0166945D03*
X0168126Y0170094D03*
X0164583Y0166551D03*
X0160449Y0170882D03*
X0163992Y0174425D03*
X0168126Y0178756D03*
X0171079Y0181709D03*
X0157102Y0190173D03*
X0151984Y0194898D03*
X0149622Y0196472D03*
X0142142Y0188598D03*
X0143717Y0186630D03*
X0152378Y0185830D03*
X0136630Y0179937D03*
X0134661Y0181906D03*
X0165764Y0197654D03*
X0174498Y0161112D03*
X0195291Y0127181D03*
X0190567Y0113402D03*
X0193183Y0109071D03*
X0194504Y0103165D03*
X0193323Y0100803D03*
X0194898Y0098835D03*
X0192929Y0095685D03*
X0189386Y0092535D03*
X0196866Y0088205D03*
X0200803Y0089386D03*
X0204346Y0087417D03*
X0204740Y0093717D03*
X0204740Y0103559D03*
X0183874Y0100016D03*
X0182348Y0092487D03*
X0149622Y0108677D03*
X0224031Y0121276D03*
X0227969Y0097654D03*
X0233087Y0097654D03*
X0238205Y0097654D03*
X0244504Y0092404D03*
X0246472Y0092404D03*
X0252509Y0086341D03*
X0254740Y0087811D03*
X0263008Y0092535D03*
X0238467Y0086341D03*
X0235055Y0088008D03*
X0227969Y0092929D03*
X0349228Y0121276D03*
X0117339Y0216157D03*
X0094504Y0219701D03*
X0068520Y0259465D03*
X0067339Y0279150D03*
X0075213Y0279150D03*
X0083087Y0279150D03*
X0090961Y0279150D03*
X0098835Y0279150D03*
D38*
X0160662Y0276607D03*
X0236827Y0226394D03*
X0251104Y0279930D03*
X0251104Y0294694D03*
X0261438Y0294694D03*
X0121669Y0193323D03*
X0115370Y0194110D03*
D39*
X0172850Y0246079D02*
X0172850Y0249622D01*
X0169701Y0252772D01*
X0169701Y0255528D01*
X0179543Y0255528D01*
X0179543Y0246079D01*
X0172850Y0246079D01*
X0172850Y0246146D02*
X0179543Y0246146D01*
X0179543Y0246538D02*
X0172850Y0246538D01*
X0172850Y0246930D02*
X0179543Y0246930D01*
X0179543Y0247322D02*
X0172850Y0247322D01*
X0172850Y0247714D02*
X0179543Y0247714D01*
X0179543Y0248107D02*
X0172850Y0248107D01*
X0172850Y0248499D02*
X0179543Y0248499D01*
X0179543Y0248891D02*
X0172850Y0248891D01*
X0172850Y0249283D02*
X0179543Y0249283D01*
X0179543Y0249676D02*
X0172797Y0249676D01*
X0172405Y0250068D02*
X0179543Y0250068D01*
X0179543Y0250460D02*
X0172012Y0250460D01*
X0171620Y0250852D02*
X0179543Y0250852D01*
X0179543Y0251244D02*
X0171228Y0251244D01*
X0170836Y0251637D02*
X0179543Y0251637D01*
X0179543Y0252029D02*
X0170444Y0252029D01*
X0170051Y0252421D02*
X0179543Y0252421D01*
X0179543Y0252813D02*
X0169701Y0252813D01*
X0169701Y0253205D02*
X0179543Y0253205D01*
X0179543Y0253598D02*
X0169701Y0253598D01*
X0169701Y0253990D02*
X0179543Y0253990D01*
X0179543Y0254382D02*
X0169701Y0254382D01*
X0169701Y0254774D02*
X0179543Y0254774D01*
X0179543Y0255166D02*
X0169701Y0255166D01*
X0169234Y0256113D02*
X0166150Y0256113D01*
X0166150Y0283672D01*
X0184858Y0283677D01*
X0187614Y0286433D01*
X0189583Y0286433D01*
X0192344Y0283672D01*
X0193709Y0283672D01*
X0193709Y0256113D01*
X0180010Y0256113D01*
X0179851Y0256271D01*
X0169393Y0256271D01*
X0169234Y0256113D01*
X0166150Y0256343D02*
X0193709Y0256343D01*
X0193709Y0256735D02*
X0166150Y0256735D01*
X0166150Y0257128D02*
X0193709Y0257128D01*
X0193709Y0257520D02*
X0166150Y0257520D01*
X0166150Y0257912D02*
X0193709Y0257912D01*
X0193709Y0258304D02*
X0166150Y0258304D01*
X0166150Y0258696D02*
X0193709Y0258696D01*
X0193709Y0259089D02*
X0166150Y0259089D01*
X0166150Y0259481D02*
X0193709Y0259481D01*
X0193709Y0259873D02*
X0166150Y0259873D01*
X0166150Y0260265D02*
X0193709Y0260265D01*
X0193709Y0260657D02*
X0166150Y0260657D01*
X0166150Y0261050D02*
X0193709Y0261050D01*
X0193709Y0261442D02*
X0166150Y0261442D01*
X0166150Y0261834D02*
X0193709Y0261834D01*
X0193709Y0262226D02*
X0166150Y0262226D01*
X0166150Y0262619D02*
X0193709Y0262619D01*
X0193709Y0263011D02*
X0166150Y0263011D01*
X0166150Y0263403D02*
X0193709Y0263403D01*
X0193709Y0263795D02*
X0166150Y0263795D01*
X0166150Y0264187D02*
X0193709Y0264187D01*
X0193709Y0264580D02*
X0166150Y0264580D01*
X0166150Y0264972D02*
X0193709Y0264972D01*
X0193709Y0265364D02*
X0166150Y0265364D01*
X0166150Y0265756D02*
X0193709Y0265756D01*
X0193709Y0266148D02*
X0166150Y0266148D01*
X0166150Y0266541D02*
X0193709Y0266541D01*
X0193709Y0266933D02*
X0166150Y0266933D01*
X0166150Y0267325D02*
X0193709Y0267325D01*
X0193709Y0267717D02*
X0166150Y0267717D01*
X0166150Y0268109D02*
X0193709Y0268109D01*
X0193709Y0268502D02*
X0166150Y0268502D01*
X0166150Y0268894D02*
X0193709Y0268894D01*
X0193709Y0269286D02*
X0166150Y0269286D01*
X0166150Y0269678D02*
X0193709Y0269678D01*
X0193709Y0270071D02*
X0166150Y0270071D01*
X0166150Y0270463D02*
X0193709Y0270463D01*
X0193709Y0270855D02*
X0166150Y0270855D01*
X0166150Y0271247D02*
X0193709Y0271247D01*
X0193709Y0271639D02*
X0166150Y0271639D01*
X0166150Y0272032D02*
X0193709Y0272032D01*
X0193709Y0272424D02*
X0166150Y0272424D01*
X0166150Y0272816D02*
X0193709Y0272816D01*
X0193709Y0273208D02*
X0166150Y0273208D01*
X0166150Y0273600D02*
X0193709Y0273600D01*
X0193709Y0273993D02*
X0166150Y0273993D01*
X0166150Y0274385D02*
X0193709Y0274385D01*
X0193709Y0274777D02*
X0166150Y0274777D01*
X0166150Y0275169D02*
X0193709Y0275169D01*
X0193709Y0275562D02*
X0166150Y0275562D01*
X0166150Y0275954D02*
X0193709Y0275954D01*
X0193709Y0276346D02*
X0166150Y0276346D01*
X0166150Y0276738D02*
X0193709Y0276738D01*
X0193709Y0277130D02*
X0166150Y0277130D01*
X0166150Y0277523D02*
X0193709Y0277523D01*
X0193709Y0277915D02*
X0166150Y0277915D01*
X0166150Y0278307D02*
X0193709Y0278307D01*
X0193709Y0278699D02*
X0166150Y0278699D01*
X0166150Y0279091D02*
X0193709Y0279091D01*
X0193709Y0279484D02*
X0166150Y0279484D01*
X0166150Y0279876D02*
X0193709Y0279876D01*
X0193709Y0280268D02*
X0166150Y0280268D01*
X0166150Y0280660D02*
X0193709Y0280660D01*
X0193709Y0281052D02*
X0166150Y0281052D01*
X0166150Y0281445D02*
X0193709Y0281445D01*
X0193709Y0281837D02*
X0166150Y0281837D01*
X0166150Y0282229D02*
X0193709Y0282229D01*
X0193709Y0282621D02*
X0166150Y0282621D01*
X0166150Y0283014D02*
X0193709Y0283014D01*
X0193709Y0283406D02*
X0166150Y0283406D01*
X0160843Y0283406D02*
X0157559Y0283406D01*
X0157561Y0283798D02*
X0160843Y0283798D01*
X0160843Y0284190D02*
X0157564Y0284190D01*
X0157566Y0284582D02*
X0160843Y0284582D01*
X0160843Y0284975D02*
X0157568Y0284975D01*
X0157571Y0285367D02*
X0160152Y0285367D01*
X0160491Y0285028D02*
X0160843Y0285028D01*
X0160843Y0276984D01*
X0161236Y0276591D01*
X0164780Y0276591D01*
X0164780Y0269307D01*
X0161039Y0269307D01*
X0157496Y0272850D01*
X0157680Y0303749D01*
X0158987Y0305048D01*
X0159158Y0304876D01*
X0160123Y0304476D01*
X0161168Y0304476D01*
X0162133Y0304876D01*
X0162872Y0305615D01*
X0162999Y0305921D01*
X0164189Y0305921D01*
X0164189Y0302181D01*
X0160843Y0298835D01*
X0160843Y0288626D01*
X0160491Y0288626D01*
X0159437Y0287572D01*
X0159437Y0286082D01*
X0160491Y0285028D01*
X0159759Y0285759D02*
X0157573Y0285759D01*
X0157575Y0286151D02*
X0159437Y0286151D01*
X0159437Y0286543D02*
X0157578Y0286543D01*
X0157580Y0286936D02*
X0159437Y0286936D01*
X0159437Y0287328D02*
X0157582Y0287328D01*
X0157585Y0287720D02*
X0159585Y0287720D01*
X0159977Y0288112D02*
X0157587Y0288112D01*
X0157589Y0288505D02*
X0160370Y0288505D01*
X0160843Y0288897D02*
X0157592Y0288897D01*
X0157594Y0289289D02*
X0160843Y0289289D01*
X0160843Y0289681D02*
X0157596Y0289681D01*
X0157599Y0290073D02*
X0160843Y0290073D01*
X0160843Y0290466D02*
X0157601Y0290466D01*
X0157603Y0290858D02*
X0160843Y0290858D01*
X0160843Y0291250D02*
X0157606Y0291250D01*
X0157608Y0291642D02*
X0160843Y0291642D01*
X0160843Y0292034D02*
X0157610Y0292034D01*
X0157613Y0292427D02*
X0160843Y0292427D01*
X0160843Y0292819D02*
X0157615Y0292819D01*
X0157617Y0293211D02*
X0160843Y0293211D01*
X0160843Y0293603D02*
X0157620Y0293603D01*
X0157622Y0293995D02*
X0160843Y0293995D01*
X0160843Y0294388D02*
X0157624Y0294388D01*
X0157627Y0294780D02*
X0160843Y0294780D01*
X0160843Y0295172D02*
X0157629Y0295172D01*
X0157631Y0295564D02*
X0160843Y0295564D01*
X0160843Y0295957D02*
X0157634Y0295957D01*
X0157636Y0296349D02*
X0160843Y0296349D01*
X0160843Y0296741D02*
X0157638Y0296741D01*
X0157641Y0297133D02*
X0160843Y0297133D01*
X0160843Y0297525D02*
X0157643Y0297525D01*
X0157645Y0297918D02*
X0160843Y0297918D01*
X0160843Y0298310D02*
X0157648Y0298310D01*
X0157650Y0298702D02*
X0160843Y0298702D01*
X0161102Y0299094D02*
X0157652Y0299094D01*
X0157655Y0299486D02*
X0161494Y0299486D01*
X0161887Y0299879D02*
X0157657Y0299879D01*
X0157659Y0300271D02*
X0162279Y0300271D01*
X0162671Y0300663D02*
X0157662Y0300663D01*
X0157664Y0301055D02*
X0163063Y0301055D01*
X0162705Y0301389D02*
X0162705Y0305448D01*
X0162872Y0305615D01*
X0162997Y0305916D01*
X0176793Y0305916D01*
X0181898Y0300810D01*
X0181898Y0285641D01*
X0174024Y0285641D01*
X0174024Y0297058D01*
X0174241Y0297274D01*
X0174241Y0298426D01*
X0173426Y0299241D01*
X0173021Y0299241D01*
X0170873Y0301389D01*
X0162705Y0301389D01*
X0162705Y0301448D02*
X0181261Y0301448D01*
X0180869Y0301840D02*
X0162705Y0301840D01*
X0162705Y0302232D02*
X0180477Y0302232D01*
X0180084Y0302624D02*
X0162705Y0302624D01*
X0162705Y0303016D02*
X0179692Y0303016D01*
X0179300Y0303409D02*
X0162705Y0303409D01*
X0162705Y0303801D02*
X0178908Y0303801D01*
X0178516Y0304193D02*
X0162705Y0304193D01*
X0162705Y0304585D02*
X0178123Y0304585D01*
X0177731Y0304977D02*
X0162705Y0304977D01*
X0162705Y0305370D02*
X0177339Y0305370D01*
X0176947Y0305762D02*
X0162933Y0305762D01*
X0164189Y0305762D01*
X0164189Y0305370D02*
X0162627Y0305370D01*
X0162234Y0304977D02*
X0164189Y0304977D01*
X0164189Y0304585D02*
X0161431Y0304585D01*
X0159861Y0304585D02*
X0158521Y0304585D01*
X0158127Y0304193D02*
X0164189Y0304193D01*
X0164189Y0303801D02*
X0157732Y0303801D01*
X0157678Y0303409D02*
X0164189Y0303409D01*
X0164189Y0303016D02*
X0157676Y0303016D01*
X0157673Y0302624D02*
X0164189Y0302624D01*
X0164189Y0302232D02*
X0157671Y0302232D01*
X0157669Y0301840D02*
X0163848Y0301840D01*
X0163455Y0301448D02*
X0157666Y0301448D01*
X0158916Y0304977D02*
X0159057Y0304977D01*
X0163690Y0298928D02*
X0169968Y0298928D01*
X0171460Y0297436D01*
X0171460Y0297274D01*
X0172056Y0296678D01*
X0172063Y0290961D01*
X0165565Y0290961D01*
X0165552Y0290973D01*
X0164400Y0290973D01*
X0164388Y0290961D01*
X0163795Y0290961D01*
X0163690Y0298928D01*
X0163693Y0298702D02*
X0170194Y0298702D01*
X0170586Y0298310D02*
X0163698Y0298310D01*
X0163703Y0297918D02*
X0170978Y0297918D01*
X0171370Y0297525D02*
X0163708Y0297525D01*
X0163714Y0297133D02*
X0171601Y0297133D01*
X0171993Y0296741D02*
X0163719Y0296741D01*
X0163724Y0296349D02*
X0172056Y0296349D01*
X0172057Y0295957D02*
X0163729Y0295957D01*
X0163734Y0295564D02*
X0172057Y0295564D01*
X0172058Y0295172D02*
X0163739Y0295172D01*
X0163745Y0294780D02*
X0172058Y0294780D01*
X0172059Y0294388D02*
X0163750Y0294388D01*
X0163755Y0293995D02*
X0172059Y0293995D01*
X0172060Y0293603D02*
X0163760Y0293603D01*
X0163765Y0293211D02*
X0172060Y0293211D01*
X0172061Y0292819D02*
X0163771Y0292819D01*
X0163776Y0292427D02*
X0172061Y0292427D01*
X0172062Y0292034D02*
X0163781Y0292034D01*
X0163786Y0291642D02*
X0172062Y0291642D01*
X0172063Y0291250D02*
X0163791Y0291250D01*
X0160843Y0283014D02*
X0157557Y0283014D01*
X0157554Y0282621D02*
X0160843Y0282621D01*
X0160843Y0282229D02*
X0157552Y0282229D01*
X0157550Y0281837D02*
X0160843Y0281837D01*
X0160843Y0281445D02*
X0157547Y0281445D01*
X0157545Y0281052D02*
X0160843Y0281052D01*
X0160843Y0280660D02*
X0157543Y0280660D01*
X0157540Y0280268D02*
X0160843Y0280268D01*
X0160843Y0279876D02*
X0157538Y0279876D01*
X0157536Y0279484D02*
X0160843Y0279484D01*
X0160843Y0279091D02*
X0157533Y0279091D01*
X0157531Y0278699D02*
X0160843Y0278699D01*
X0160843Y0278307D02*
X0157529Y0278307D01*
X0157526Y0277915D02*
X0160843Y0277915D01*
X0160843Y0277523D02*
X0157524Y0277523D01*
X0157522Y0277130D02*
X0160843Y0277130D01*
X0161089Y0276738D02*
X0157519Y0276738D01*
X0157517Y0276346D02*
X0164780Y0276346D01*
X0164780Y0275954D02*
X0157515Y0275954D01*
X0157512Y0275562D02*
X0164780Y0275562D01*
X0164780Y0275169D02*
X0157510Y0275169D01*
X0157508Y0274777D02*
X0164780Y0274777D01*
X0164780Y0274385D02*
X0157505Y0274385D01*
X0157503Y0273993D02*
X0164780Y0273993D01*
X0164780Y0273600D02*
X0157501Y0273600D01*
X0157498Y0273208D02*
X0164780Y0273208D01*
X0164780Y0272816D02*
X0157530Y0272816D01*
X0157923Y0272424D02*
X0164780Y0272424D01*
X0164780Y0272032D02*
X0158315Y0272032D01*
X0158707Y0271639D02*
X0164780Y0271639D01*
X0164780Y0271247D02*
X0159099Y0271247D01*
X0159491Y0270855D02*
X0164780Y0270855D01*
X0164780Y0270463D02*
X0159884Y0270463D01*
X0160276Y0270071D02*
X0164780Y0270071D01*
X0164780Y0269678D02*
X0160668Y0269678D01*
X0164189Y0267339D02*
X0164189Y0256512D01*
X0162862Y0255184D01*
X0162591Y0255184D01*
X0162430Y0255024D01*
X0162430Y0255119D01*
X0161615Y0255934D01*
X0160463Y0255934D01*
X0159649Y0255119D01*
X0159649Y0253967D01*
X0160463Y0253153D01*
X0160830Y0253153D01*
X0159661Y0251984D01*
X0157102Y0251984D01*
X0157102Y0249622D01*
X0151197Y0249622D01*
X0151197Y0263795D01*
X0164189Y0263795D01*
X0164189Y0263403D02*
X0151197Y0263403D01*
X0151197Y0263011D02*
X0164189Y0263011D01*
X0164189Y0262619D02*
X0151197Y0262619D01*
X0151197Y0262226D02*
X0164189Y0262226D01*
X0164189Y0261834D02*
X0151197Y0261834D01*
X0151197Y0261442D02*
X0164189Y0261442D01*
X0164189Y0261050D02*
X0151197Y0261050D01*
X0151197Y0260657D02*
X0164189Y0260657D01*
X0164189Y0260265D02*
X0151197Y0260265D01*
X0151197Y0259873D02*
X0164189Y0259873D01*
X0164189Y0259481D02*
X0151197Y0259481D01*
X0151197Y0259089D02*
X0164189Y0259089D01*
X0164189Y0258696D02*
X0151197Y0258696D01*
X0151197Y0258304D02*
X0164189Y0258304D01*
X0164189Y0257912D02*
X0151197Y0257912D01*
X0151197Y0257520D02*
X0164189Y0257520D01*
X0164189Y0257128D02*
X0151197Y0257128D01*
X0151197Y0256735D02*
X0164189Y0256735D01*
X0164020Y0256343D02*
X0151197Y0256343D01*
X0151197Y0255951D02*
X0163628Y0255951D01*
X0163236Y0255559D02*
X0161990Y0255559D01*
X0162383Y0255166D02*
X0162573Y0255166D01*
X0160088Y0255559D02*
X0151197Y0255559D01*
X0151197Y0255166D02*
X0159696Y0255166D01*
X0159649Y0254774D02*
X0151197Y0254774D01*
X0151197Y0254382D02*
X0159649Y0254382D01*
X0159649Y0253990D02*
X0151197Y0253990D01*
X0151197Y0253598D02*
X0160018Y0253598D01*
X0160411Y0253205D02*
X0151197Y0253205D01*
X0151197Y0252813D02*
X0160490Y0252813D01*
X0160098Y0252421D02*
X0151197Y0252421D01*
X0151197Y0252029D02*
X0159706Y0252029D01*
X0157102Y0251637D02*
X0151197Y0251637D01*
X0151197Y0251244D02*
X0157102Y0251244D01*
X0157102Y0250852D02*
X0151197Y0250852D01*
X0151197Y0250460D02*
X0157102Y0250460D01*
X0157102Y0250068D02*
X0151197Y0250068D01*
X0151197Y0249676D02*
X0157102Y0249676D01*
X0148047Y0259858D02*
X0139386Y0259858D01*
X0139386Y0266551D01*
X0148047Y0266551D01*
X0148047Y0259858D01*
X0148047Y0259873D02*
X0139386Y0259873D01*
X0139386Y0260265D02*
X0148047Y0260265D01*
X0148047Y0260657D02*
X0139386Y0260657D01*
X0139386Y0261050D02*
X0148047Y0261050D01*
X0148047Y0261442D02*
X0139386Y0261442D01*
X0139386Y0261834D02*
X0148047Y0261834D01*
X0148047Y0262226D02*
X0139386Y0262226D01*
X0139386Y0262619D02*
X0148047Y0262619D01*
X0148047Y0263011D02*
X0139386Y0263011D01*
X0139386Y0263403D02*
X0148047Y0263403D01*
X0148047Y0263795D02*
X0139386Y0263795D01*
X0139386Y0264187D02*
X0148047Y0264187D01*
X0148047Y0264580D02*
X0139386Y0264580D01*
X0139386Y0264972D02*
X0148047Y0264972D01*
X0148047Y0265364D02*
X0139386Y0265364D01*
X0139386Y0265756D02*
X0148047Y0265756D01*
X0148047Y0266148D02*
X0139386Y0266148D01*
X0139386Y0266541D02*
X0148047Y0266541D01*
X0151197Y0263795D02*
X0154740Y0267339D01*
X0164189Y0267339D01*
X0164189Y0267325D02*
X0154727Y0267325D01*
X0154334Y0266933D02*
X0164189Y0266933D01*
X0164189Y0266541D02*
X0153942Y0266541D01*
X0153550Y0266148D02*
X0164189Y0266148D01*
X0164189Y0265756D02*
X0153158Y0265756D01*
X0152766Y0265364D02*
X0164189Y0265364D01*
X0164189Y0264972D02*
X0152373Y0264972D01*
X0151981Y0264580D02*
X0164189Y0264580D01*
X0164189Y0264187D02*
X0151589Y0264187D01*
X0174024Y0285759D02*
X0181898Y0285759D01*
X0181898Y0286151D02*
X0174024Y0286151D01*
X0174024Y0286543D02*
X0181898Y0286543D01*
X0181898Y0286936D02*
X0174024Y0286936D01*
X0174024Y0287328D02*
X0181898Y0287328D01*
X0181898Y0287720D02*
X0174024Y0287720D01*
X0174024Y0288112D02*
X0181898Y0288112D01*
X0181898Y0288505D02*
X0174024Y0288505D01*
X0174024Y0288897D02*
X0181898Y0288897D01*
X0181898Y0289289D02*
X0174024Y0289289D01*
X0174024Y0289681D02*
X0181898Y0289681D01*
X0181898Y0290073D02*
X0174024Y0290073D01*
X0174024Y0290466D02*
X0181898Y0290466D01*
X0181898Y0290858D02*
X0174024Y0290858D01*
X0174024Y0291250D02*
X0181898Y0291250D01*
X0181898Y0291642D02*
X0174024Y0291642D01*
X0174024Y0292034D02*
X0181898Y0292034D01*
X0181898Y0292427D02*
X0174024Y0292427D01*
X0174024Y0292819D02*
X0181898Y0292819D01*
X0181898Y0293211D02*
X0174024Y0293211D01*
X0174024Y0293603D02*
X0181898Y0293603D01*
X0181898Y0293995D02*
X0174024Y0293995D01*
X0174024Y0294388D02*
X0181898Y0294388D01*
X0181898Y0294780D02*
X0174024Y0294780D01*
X0174024Y0295172D02*
X0181898Y0295172D01*
X0181898Y0295564D02*
X0174024Y0295564D01*
X0174024Y0295957D02*
X0181898Y0295957D01*
X0181898Y0296349D02*
X0174024Y0296349D01*
X0174024Y0296741D02*
X0181898Y0296741D01*
X0181898Y0297133D02*
X0174100Y0297133D01*
X0174241Y0297525D02*
X0181898Y0297525D01*
X0181898Y0297918D02*
X0174241Y0297918D01*
X0174241Y0298310D02*
X0181898Y0298310D01*
X0181898Y0298702D02*
X0173965Y0298702D01*
X0173573Y0299094D02*
X0181898Y0299094D01*
X0181898Y0299486D02*
X0172775Y0299486D01*
X0172383Y0299879D02*
X0181898Y0299879D01*
X0181898Y0300271D02*
X0171991Y0300271D01*
X0171599Y0300663D02*
X0181898Y0300663D01*
X0181653Y0301055D02*
X0171206Y0301055D01*
X0177739Y0306938D02*
X0183480Y0306938D01*
X0183480Y0306546D02*
X0178131Y0306546D01*
X0178523Y0306154D02*
X0183480Y0306154D01*
X0183480Y0305762D02*
X0178915Y0305762D01*
X0179308Y0305370D02*
X0183480Y0305370D01*
X0183480Y0304977D02*
X0179700Y0304977D01*
X0180092Y0304585D02*
X0183480Y0304585D01*
X0183480Y0304193D02*
X0180484Y0304193D01*
X0180876Y0303801D02*
X0183480Y0303801D01*
X0183480Y0303409D02*
X0181269Y0303409D01*
X0181661Y0303016D02*
X0183480Y0303016D01*
X0183480Y0302772D02*
X0181906Y0302772D01*
X0177575Y0307102D01*
X0170488Y0307102D01*
X0170488Y0314583D01*
X0183480Y0314583D01*
X0183480Y0302772D01*
X0185405Y0302624D02*
X0191704Y0302624D01*
X0191693Y0302232D02*
X0185394Y0302232D01*
X0185383Y0301840D02*
X0191682Y0301840D01*
X0191671Y0301448D02*
X0185372Y0301448D01*
X0185360Y0301055D02*
X0191660Y0301055D01*
X0191648Y0300663D02*
X0185349Y0300663D01*
X0185338Y0300271D02*
X0191637Y0300271D01*
X0191626Y0299879D02*
X0185327Y0299879D01*
X0185316Y0299486D02*
X0191615Y0299486D01*
X0191604Y0299094D02*
X0185304Y0299094D01*
X0185293Y0298702D02*
X0191592Y0298702D01*
X0191581Y0298310D02*
X0185282Y0298310D01*
X0185271Y0297918D02*
X0191570Y0297918D01*
X0191559Y0297525D02*
X0185260Y0297525D01*
X0185252Y0297260D02*
X0185449Y0304150D01*
X0191748Y0304150D01*
X0191551Y0297260D01*
X0191003Y0297260D01*
X0190925Y0297338D01*
X0186272Y0297338D01*
X0186194Y0297260D01*
X0185252Y0297260D01*
X0183874Y0295291D02*
X0193522Y0295291D01*
X0193919Y0294894D01*
X0195071Y0294894D01*
X0195469Y0295291D01*
X0196079Y0295291D01*
X0196079Y0304740D01*
X0201984Y0304740D01*
X0201984Y0295291D01*
X0205528Y0295291D01*
X0205528Y0293742D01*
X0204901Y0293742D01*
X0204580Y0293421D01*
X0204580Y0286968D01*
X0204901Y0286648D01*
X0205528Y0286648D01*
X0205528Y0285449D01*
X0191945Y0285449D01*
X0190638Y0286756D01*
X0190638Y0286987D01*
X0190318Y0287307D01*
X0186865Y0287307D01*
X0186544Y0286987D01*
X0186544Y0286741D01*
X0185252Y0285449D01*
X0183874Y0285449D01*
X0183874Y0295291D01*
X0183874Y0295172D02*
X0193641Y0295172D01*
X0195350Y0295172D02*
X0205528Y0295172D01*
X0205528Y0294780D02*
X0183874Y0294780D01*
X0183874Y0294388D02*
X0205528Y0294388D01*
X0205528Y0293995D02*
X0183874Y0293995D01*
X0183874Y0293603D02*
X0204762Y0293603D01*
X0204580Y0293211D02*
X0183874Y0293211D01*
X0183874Y0292819D02*
X0204580Y0292819D01*
X0204580Y0292427D02*
X0183874Y0292427D01*
X0183874Y0292034D02*
X0204580Y0292034D01*
X0204580Y0291642D02*
X0183874Y0291642D01*
X0183874Y0291250D02*
X0204580Y0291250D01*
X0204580Y0290858D02*
X0183874Y0290858D01*
X0183874Y0290466D02*
X0204580Y0290466D01*
X0204580Y0290073D02*
X0183874Y0290073D01*
X0183874Y0289681D02*
X0204580Y0289681D01*
X0204580Y0289289D02*
X0183874Y0289289D01*
X0183874Y0288897D02*
X0204580Y0288897D01*
X0204580Y0288505D02*
X0183874Y0288505D01*
X0183874Y0288112D02*
X0204580Y0288112D01*
X0204580Y0287720D02*
X0183874Y0287720D01*
X0183874Y0287328D02*
X0204580Y0287328D01*
X0204613Y0286936D02*
X0190638Y0286936D01*
X0190850Y0286543D02*
X0205528Y0286543D01*
X0205528Y0286151D02*
X0191242Y0286151D01*
X0191635Y0285759D02*
X0205528Y0285759D01*
X0211039Y0279150D02*
X0211039Y0277573D01*
X0211249Y0277363D01*
X0211249Y0276211D01*
X0211039Y0276002D01*
X0211039Y0271667D01*
X0211249Y0271458D01*
X0211249Y0270306D01*
X0211039Y0270096D01*
X0211039Y0266748D01*
X0219898Y0266748D01*
X0224622Y0267732D01*
X0231512Y0267732D01*
X0231512Y0264976D01*
X0238402Y0264976D01*
X0238402Y0272260D01*
X0243323Y0277181D01*
X0243323Y0284268D01*
X0233283Y0284268D01*
X0233283Y0271669D01*
X0224031Y0271669D01*
X0220488Y0275213D01*
X0220488Y0279150D01*
X0211039Y0279150D01*
X0211039Y0279091D02*
X0220488Y0279091D01*
X0220488Y0278699D02*
X0211039Y0278699D01*
X0211039Y0278307D02*
X0220488Y0278307D01*
X0220488Y0277915D02*
X0211039Y0277915D01*
X0211090Y0277523D02*
X0220488Y0277523D01*
X0220488Y0277130D02*
X0211249Y0277130D01*
X0211249Y0276738D02*
X0220488Y0276738D01*
X0220488Y0276346D02*
X0211249Y0276346D01*
X0211039Y0275954D02*
X0220488Y0275954D01*
X0220488Y0275562D02*
X0211039Y0275562D01*
X0211039Y0275169D02*
X0220531Y0275169D01*
X0220924Y0274777D02*
X0211039Y0274777D01*
X0211039Y0274385D02*
X0221316Y0274385D01*
X0221708Y0273993D02*
X0211039Y0273993D01*
X0211039Y0273600D02*
X0222100Y0273600D01*
X0222493Y0273208D02*
X0211039Y0273208D01*
X0211039Y0272816D02*
X0222885Y0272816D01*
X0223277Y0272424D02*
X0211039Y0272424D01*
X0211039Y0272032D02*
X0223669Y0272032D01*
X0224550Y0267717D02*
X0211039Y0267717D01*
X0211039Y0267325D02*
X0222667Y0267325D01*
X0220785Y0266933D02*
X0211039Y0266933D01*
X0211039Y0268109D02*
X0238402Y0268109D01*
X0238402Y0267717D02*
X0231512Y0267717D01*
X0231512Y0267325D02*
X0238402Y0267325D01*
X0238402Y0266933D02*
X0231512Y0266933D01*
X0231512Y0266541D02*
X0238402Y0266541D01*
X0238402Y0266148D02*
X0231512Y0266148D01*
X0231512Y0265756D02*
X0238402Y0265756D01*
X0238402Y0265364D02*
X0231512Y0265364D01*
X0230528Y0265364D02*
X0229543Y0265364D01*
X0229543Y0264972D02*
X0230528Y0264972D01*
X0230528Y0264580D02*
X0229543Y0264580D01*
X0229543Y0264187D02*
X0230825Y0264187D01*
X0230528Y0264386D02*
X0234071Y0262024D01*
X0239189Y0262024D01*
X0239189Y0257102D01*
X0232890Y0251394D01*
X0229543Y0263795D01*
X0231414Y0263795D01*
X0232002Y0263403D02*
X0229649Y0263403D01*
X0229543Y0263795D02*
X0229543Y0266551D01*
X0230528Y0266551D01*
X0230528Y0264386D01*
X0230528Y0265756D02*
X0229543Y0265756D01*
X0229543Y0266148D02*
X0230528Y0266148D01*
X0230528Y0266541D02*
X0229543Y0266541D01*
X0229755Y0263011D02*
X0232590Y0263011D01*
X0233179Y0262619D02*
X0229861Y0262619D01*
X0229967Y0262226D02*
X0233767Y0262226D01*
X0230178Y0261442D02*
X0239189Y0261442D01*
X0239189Y0261834D02*
X0230073Y0261834D01*
X0230284Y0261050D02*
X0239189Y0261050D01*
X0239189Y0260657D02*
X0230390Y0260657D01*
X0230496Y0260265D02*
X0239189Y0260265D01*
X0239189Y0259873D02*
X0230602Y0259873D01*
X0230708Y0259481D02*
X0239189Y0259481D01*
X0239189Y0259089D02*
X0230813Y0259089D01*
X0230919Y0258696D02*
X0239189Y0258696D01*
X0239189Y0258304D02*
X0231025Y0258304D01*
X0231131Y0257912D02*
X0239189Y0257912D01*
X0239189Y0257520D02*
X0231237Y0257520D01*
X0231343Y0257128D02*
X0239189Y0257128D01*
X0238784Y0256735D02*
X0231448Y0256735D01*
X0231554Y0256343D02*
X0238351Y0256343D01*
X0237918Y0255951D02*
X0231660Y0255951D01*
X0231766Y0255559D02*
X0237486Y0255559D01*
X0237053Y0255166D02*
X0231872Y0255166D01*
X0231978Y0254774D02*
X0236620Y0254774D01*
X0236187Y0254382D02*
X0232083Y0254382D01*
X0232189Y0253990D02*
X0235755Y0253990D01*
X0235322Y0253598D02*
X0232295Y0253598D01*
X0232401Y0253205D02*
X0234889Y0253205D01*
X0234456Y0252813D02*
X0232507Y0252813D01*
X0232613Y0252421D02*
X0234023Y0252421D01*
X0233591Y0252029D02*
X0232718Y0252029D01*
X0232824Y0251637D02*
X0233158Y0251637D01*
X0228165Y0251637D02*
X0211039Y0251637D01*
X0211039Y0251591D02*
X0210961Y0257223D01*
X0211052Y0257314D01*
X0211052Y0258466D01*
X0210942Y0258575D01*
X0210910Y0260912D01*
X0211249Y0261251D01*
X0211249Y0262403D01*
X0210884Y0262767D01*
X0210843Y0265764D01*
X0220685Y0265764D01*
X0220685Y0262220D01*
X0228165Y0262220D01*
X0228165Y0251591D01*
X0211039Y0251591D01*
X0211033Y0252029D02*
X0228165Y0252029D01*
X0228165Y0252421D02*
X0211028Y0252421D01*
X0211022Y0252813D02*
X0228165Y0252813D01*
X0228165Y0253205D02*
X0211017Y0253205D01*
X0211011Y0253598D02*
X0228165Y0253598D01*
X0228165Y0253990D02*
X0211006Y0253990D01*
X0211001Y0254382D02*
X0228165Y0254382D01*
X0228165Y0254774D02*
X0210995Y0254774D01*
X0210990Y0255166D02*
X0228165Y0255166D01*
X0228165Y0255559D02*
X0210984Y0255559D01*
X0210979Y0255951D02*
X0228165Y0255951D01*
X0228165Y0256343D02*
X0210973Y0256343D01*
X0210968Y0256735D02*
X0228165Y0256735D01*
X0228165Y0257128D02*
X0210962Y0257128D01*
X0211052Y0257520D02*
X0228165Y0257520D01*
X0228165Y0257912D02*
X0211052Y0257912D01*
X0211052Y0258304D02*
X0228165Y0258304D01*
X0228165Y0258696D02*
X0210941Y0258696D01*
X0210935Y0259089D02*
X0228165Y0259089D01*
X0228165Y0259481D02*
X0210930Y0259481D01*
X0210924Y0259873D02*
X0228165Y0259873D01*
X0228165Y0260265D02*
X0210919Y0260265D01*
X0210913Y0260657D02*
X0228165Y0260657D01*
X0228165Y0261050D02*
X0211048Y0261050D01*
X0211249Y0261442D02*
X0228165Y0261442D01*
X0228165Y0261834D02*
X0211249Y0261834D01*
X0211249Y0262226D02*
X0220685Y0262226D01*
X0220685Y0262619D02*
X0211033Y0262619D01*
X0210881Y0263011D02*
X0220685Y0263011D01*
X0220685Y0263403D02*
X0210875Y0263403D01*
X0210870Y0263795D02*
X0220685Y0263795D01*
X0220685Y0264187D02*
X0210864Y0264187D01*
X0210859Y0264580D02*
X0220685Y0264580D01*
X0220685Y0264972D02*
X0210854Y0264972D01*
X0210848Y0265364D02*
X0220685Y0265364D01*
X0220685Y0265756D02*
X0210843Y0265756D01*
X0211039Y0268502D02*
X0238402Y0268502D01*
X0238402Y0268894D02*
X0211039Y0268894D01*
X0211039Y0269286D02*
X0238402Y0269286D01*
X0238402Y0269678D02*
X0211039Y0269678D01*
X0211039Y0270071D02*
X0238402Y0270071D01*
X0238402Y0270463D02*
X0211249Y0270463D01*
X0211249Y0270855D02*
X0238402Y0270855D01*
X0238402Y0271247D02*
X0211249Y0271247D01*
X0211067Y0271639D02*
X0238402Y0271639D01*
X0238402Y0272032D02*
X0233283Y0272032D01*
X0233283Y0272424D02*
X0238566Y0272424D01*
X0238958Y0272816D02*
X0233283Y0272816D01*
X0233283Y0273208D02*
X0239350Y0273208D01*
X0239742Y0273600D02*
X0233283Y0273600D01*
X0233283Y0273993D02*
X0240134Y0273993D01*
X0240527Y0274385D02*
X0233283Y0274385D01*
X0233283Y0274777D02*
X0240919Y0274777D01*
X0241311Y0275169D02*
X0233283Y0275169D01*
X0233283Y0275562D02*
X0241703Y0275562D01*
X0242095Y0275954D02*
X0233283Y0275954D01*
X0233283Y0276346D02*
X0242488Y0276346D01*
X0242880Y0276738D02*
X0233283Y0276738D01*
X0233283Y0277130D02*
X0243272Y0277130D01*
X0243323Y0277523D02*
X0233283Y0277523D01*
X0233283Y0277915D02*
X0243323Y0277915D01*
X0243323Y0278307D02*
X0233283Y0278307D01*
X0233283Y0278699D02*
X0243323Y0278699D01*
X0243323Y0279091D02*
X0233283Y0279091D01*
X0233283Y0279484D02*
X0243323Y0279484D01*
X0243323Y0279876D02*
X0233283Y0279876D01*
X0233283Y0280268D02*
X0243323Y0280268D01*
X0243323Y0280660D02*
X0233283Y0280660D01*
X0233283Y0281052D02*
X0243323Y0281052D01*
X0243323Y0281445D02*
X0233283Y0281445D01*
X0233283Y0281837D02*
X0243323Y0281837D01*
X0243323Y0282229D02*
X0233283Y0282229D01*
X0233283Y0282621D02*
X0243323Y0282621D01*
X0243323Y0283014D02*
X0233283Y0283014D01*
X0233283Y0283406D02*
X0243323Y0283406D01*
X0243323Y0283798D02*
X0233283Y0283798D01*
X0233283Y0284190D02*
X0243323Y0284190D01*
X0232299Y0284190D02*
X0225606Y0284190D01*
X0225606Y0284268D02*
X0232299Y0284268D01*
X0232299Y0272850D01*
X0229346Y0272850D01*
X0229346Y0274819D01*
X0227181Y0276197D01*
X0225606Y0277181D01*
X0225606Y0284268D01*
X0225606Y0283798D02*
X0232299Y0283798D01*
X0232299Y0283406D02*
X0225606Y0283406D01*
X0225606Y0283014D02*
X0232299Y0283014D01*
X0232299Y0282621D02*
X0225606Y0282621D01*
X0225606Y0282229D02*
X0232299Y0282229D01*
X0232299Y0281837D02*
X0225606Y0281837D01*
X0225606Y0281445D02*
X0232299Y0281445D01*
X0232299Y0281052D02*
X0225606Y0281052D01*
X0225606Y0280660D02*
X0232299Y0280660D01*
X0232299Y0280268D02*
X0225606Y0280268D01*
X0225606Y0279876D02*
X0232299Y0279876D01*
X0232299Y0279484D02*
X0225606Y0279484D01*
X0225606Y0279091D02*
X0232299Y0279091D01*
X0232299Y0278699D02*
X0225606Y0278699D01*
X0225606Y0278307D02*
X0232299Y0278307D01*
X0232299Y0277915D02*
X0225606Y0277915D01*
X0225606Y0277523D02*
X0232299Y0277523D01*
X0232299Y0277130D02*
X0225687Y0277130D01*
X0226315Y0276738D02*
X0232299Y0276738D01*
X0232299Y0276346D02*
X0226943Y0276346D01*
X0227563Y0275954D02*
X0232299Y0275954D01*
X0232299Y0275562D02*
X0228179Y0275562D01*
X0228796Y0275169D02*
X0232299Y0275169D01*
X0232299Y0274777D02*
X0229346Y0274777D01*
X0229346Y0274385D02*
X0232299Y0274385D01*
X0232299Y0273993D02*
X0229346Y0273993D01*
X0229346Y0273600D02*
X0232299Y0273600D01*
X0232299Y0273208D02*
X0229346Y0273208D01*
X0239824Y0255719D02*
X0253171Y0255719D01*
X0258276Y0250613D01*
X0258276Y0235444D01*
X0250402Y0235444D01*
X0250402Y0248041D01*
X0247251Y0251192D01*
X0239824Y0251192D01*
X0239824Y0255719D01*
X0239824Y0255559D02*
X0253331Y0255559D01*
X0253723Y0255166D02*
X0239824Y0255166D01*
X0239824Y0254774D02*
X0254115Y0254774D01*
X0254508Y0254382D02*
X0239824Y0254382D01*
X0239824Y0253990D02*
X0254900Y0253990D01*
X0255292Y0253598D02*
X0239824Y0253598D01*
X0239824Y0253362D02*
X0240961Y0253362D01*
X0240961Y0247850D01*
X0237220Y0244110D01*
X0237220Y0237445D01*
X0236869Y0237445D01*
X0235815Y0236391D01*
X0235815Y0234900D01*
X0236869Y0233846D01*
X0237220Y0233846D01*
X0237220Y0226787D01*
X0237614Y0226394D01*
X0241157Y0226394D01*
X0241157Y0219110D01*
X0237417Y0219110D01*
X0233874Y0222654D01*
X0234041Y0244505D01*
X0239386Y0249622D01*
X0239386Y0250662D01*
X0239504Y0250662D01*
X0239824Y0250982D01*
X0239824Y0253362D01*
X0239824Y0253205D02*
X0255684Y0253205D01*
X0256077Y0252813D02*
X0239824Y0252813D01*
X0240961Y0252813D01*
X0240961Y0252421D02*
X0239824Y0252421D01*
X0256469Y0252421D01*
X0256861Y0252029D02*
X0239824Y0252029D01*
X0240961Y0252029D01*
X0240961Y0251637D02*
X0239824Y0251637D01*
X0257253Y0251637D01*
X0257645Y0251244D02*
X0239824Y0251244D01*
X0240961Y0251244D01*
X0240961Y0250852D02*
X0239694Y0250852D01*
X0239386Y0250460D02*
X0240961Y0250460D01*
X0240961Y0250068D02*
X0239386Y0250068D01*
X0239386Y0249676D02*
X0240961Y0249676D01*
X0240961Y0249283D02*
X0239032Y0249283D01*
X0238622Y0248891D02*
X0240961Y0248891D01*
X0240961Y0248499D02*
X0238213Y0248499D01*
X0237803Y0248107D02*
X0240961Y0248107D01*
X0240825Y0247714D02*
X0237393Y0247714D01*
X0236983Y0247322D02*
X0240432Y0247322D01*
X0240040Y0246930D02*
X0236574Y0246930D01*
X0236164Y0246538D02*
X0239648Y0246538D01*
X0239256Y0246146D02*
X0235754Y0246146D01*
X0235345Y0245753D02*
X0238864Y0245753D01*
X0238471Y0245361D02*
X0234935Y0245361D01*
X0234525Y0244969D02*
X0238079Y0244969D01*
X0237687Y0244577D02*
X0234116Y0244577D01*
X0234039Y0244185D02*
X0237295Y0244185D01*
X0237220Y0243792D02*
X0234036Y0243792D01*
X0234033Y0243400D02*
X0237220Y0243400D01*
X0237220Y0243008D02*
X0234030Y0243008D01*
X0234027Y0242616D02*
X0237220Y0242616D01*
X0237220Y0242223D02*
X0234024Y0242223D01*
X0234021Y0241831D02*
X0237220Y0241831D01*
X0237220Y0241439D02*
X0234018Y0241439D01*
X0234015Y0241047D02*
X0237220Y0241047D01*
X0237220Y0240655D02*
X0234012Y0240655D01*
X0234009Y0240262D02*
X0237220Y0240262D01*
X0237220Y0239870D02*
X0234006Y0239870D01*
X0234003Y0239478D02*
X0237220Y0239478D01*
X0237220Y0239086D02*
X0234000Y0239086D01*
X0233997Y0238694D02*
X0237220Y0238694D01*
X0237220Y0238301D02*
X0233994Y0238301D01*
X0233991Y0237909D02*
X0237220Y0237909D01*
X0237220Y0237517D02*
X0233988Y0237517D01*
X0233985Y0237125D02*
X0236549Y0237125D01*
X0236157Y0236733D02*
X0233982Y0236733D01*
X0233979Y0236340D02*
X0235815Y0236340D01*
X0235815Y0235948D02*
X0233976Y0235948D01*
X0233973Y0235556D02*
X0235815Y0235556D01*
X0235815Y0235164D02*
X0233970Y0235164D01*
X0233967Y0234771D02*
X0235944Y0234771D01*
X0236336Y0234379D02*
X0233964Y0234379D01*
X0233961Y0233987D02*
X0236728Y0233987D01*
X0237220Y0233595D02*
X0233958Y0233595D01*
X0233955Y0233203D02*
X0237220Y0233203D01*
X0237220Y0232810D02*
X0233952Y0232810D01*
X0233949Y0232418D02*
X0237220Y0232418D01*
X0237220Y0232026D02*
X0233946Y0232026D01*
X0233943Y0231634D02*
X0237220Y0231634D01*
X0237220Y0231242D02*
X0233940Y0231242D01*
X0233937Y0230849D02*
X0237220Y0230849D01*
X0237220Y0230457D02*
X0233934Y0230457D01*
X0233931Y0230065D02*
X0237220Y0230065D01*
X0237220Y0229673D02*
X0233928Y0229673D01*
X0233925Y0229280D02*
X0237220Y0229280D01*
X0237220Y0228888D02*
X0233922Y0228888D01*
X0233919Y0228496D02*
X0237220Y0228496D01*
X0237220Y0228104D02*
X0233916Y0228104D01*
X0233913Y0227712D02*
X0237220Y0227712D01*
X0237220Y0227319D02*
X0233910Y0227319D01*
X0233907Y0226927D02*
X0237220Y0226927D01*
X0237473Y0226535D02*
X0233904Y0226535D01*
X0233901Y0226143D02*
X0241157Y0226143D01*
X0241157Y0225751D02*
X0233898Y0225751D01*
X0233895Y0225358D02*
X0241157Y0225358D01*
X0241157Y0224966D02*
X0233892Y0224966D01*
X0233889Y0224574D02*
X0241157Y0224574D01*
X0241157Y0224182D02*
X0233886Y0224182D01*
X0233883Y0223790D02*
X0241157Y0223790D01*
X0241157Y0223397D02*
X0233880Y0223397D01*
X0233877Y0223005D02*
X0241157Y0223005D01*
X0241157Y0222613D02*
X0233915Y0222613D01*
X0234307Y0222221D02*
X0241157Y0222221D01*
X0241157Y0221828D02*
X0234699Y0221828D01*
X0235091Y0221436D02*
X0241157Y0221436D01*
X0241157Y0221044D02*
X0235484Y0221044D01*
X0235876Y0220652D02*
X0241157Y0220652D01*
X0241157Y0220260D02*
X0236268Y0220260D01*
X0236660Y0219867D02*
X0241157Y0219867D01*
X0241157Y0219475D02*
X0237052Y0219475D01*
X0241157Y0217142D02*
X0241157Y0206709D01*
X0236236Y0201787D01*
X0233480Y0201787D01*
X0233480Y0199559D01*
X0227575Y0199559D01*
X0227575Y0213598D01*
X0231118Y0217142D01*
X0241157Y0217142D01*
X0241157Y0217122D02*
X0231098Y0217122D01*
X0230706Y0216730D02*
X0241157Y0216730D01*
X0241157Y0216337D02*
X0230314Y0216337D01*
X0229922Y0215945D02*
X0241157Y0215945D01*
X0241157Y0215553D02*
X0229529Y0215553D01*
X0229137Y0215161D02*
X0241157Y0215161D01*
X0241157Y0214769D02*
X0228745Y0214769D01*
X0228353Y0214376D02*
X0241157Y0214376D01*
X0241157Y0213984D02*
X0227961Y0213984D01*
X0227575Y0213592D02*
X0241157Y0213592D01*
X0241157Y0213200D02*
X0227575Y0213200D01*
X0227575Y0212808D02*
X0241157Y0212808D01*
X0241157Y0212415D02*
X0227575Y0212415D01*
X0227575Y0212023D02*
X0241157Y0212023D01*
X0241157Y0211631D02*
X0227575Y0211631D01*
X0227575Y0211239D02*
X0241157Y0211239D01*
X0241157Y0210847D02*
X0227575Y0210847D01*
X0227575Y0210454D02*
X0241157Y0210454D01*
X0241157Y0210062D02*
X0227575Y0210062D01*
X0227575Y0209670D02*
X0241157Y0209670D01*
X0241157Y0209278D02*
X0227575Y0209278D01*
X0227575Y0208885D02*
X0241157Y0208885D01*
X0241157Y0208493D02*
X0227575Y0208493D01*
X0227575Y0208101D02*
X0241157Y0208101D01*
X0241157Y0207709D02*
X0227575Y0207709D01*
X0227575Y0207317D02*
X0241157Y0207317D01*
X0241157Y0206924D02*
X0227575Y0206924D01*
X0227575Y0206532D02*
X0240981Y0206532D01*
X0240589Y0206140D02*
X0227575Y0206140D01*
X0227575Y0205748D02*
X0240197Y0205748D01*
X0239804Y0205356D02*
X0227575Y0205356D01*
X0227575Y0204963D02*
X0239412Y0204963D01*
X0239020Y0204571D02*
X0227575Y0204571D01*
X0227575Y0204179D02*
X0238628Y0204179D01*
X0238236Y0203787D02*
X0227575Y0203787D01*
X0227575Y0203395D02*
X0237843Y0203395D01*
X0237451Y0203002D02*
X0227575Y0203002D01*
X0227575Y0202610D02*
X0237059Y0202610D01*
X0236667Y0202218D02*
X0227575Y0202218D01*
X0227575Y0201826D02*
X0236274Y0201826D01*
X0233480Y0201433D02*
X0227575Y0201433D01*
X0227575Y0201041D02*
X0233480Y0201041D01*
X0233480Y0200649D02*
X0227575Y0200649D01*
X0227575Y0200257D02*
X0233480Y0200257D01*
X0233480Y0199865D02*
X0227575Y0199865D01*
X0224425Y0210055D02*
X0215764Y0210055D01*
X0215764Y0216748D01*
X0220687Y0216748D01*
X0220700Y0216735D01*
X0221852Y0216735D01*
X0221864Y0216748D01*
X0224425Y0216748D01*
X0224425Y0210055D01*
X0224425Y0210062D02*
X0215764Y0210062D01*
X0215764Y0210454D02*
X0224425Y0210454D01*
X0224425Y0210847D02*
X0215764Y0210847D01*
X0215764Y0211239D02*
X0224425Y0211239D01*
X0224425Y0211631D02*
X0215764Y0211631D01*
X0215764Y0212023D02*
X0224425Y0212023D01*
X0224425Y0212415D02*
X0215764Y0212415D01*
X0215764Y0212808D02*
X0224425Y0212808D01*
X0224425Y0213200D02*
X0215764Y0213200D01*
X0215764Y0213592D02*
X0224425Y0213592D01*
X0224425Y0213984D02*
X0215764Y0213984D01*
X0215764Y0214376D02*
X0224425Y0214376D01*
X0224425Y0214769D02*
X0215764Y0214769D01*
X0215764Y0215161D02*
X0224425Y0215161D01*
X0224425Y0215553D02*
X0215764Y0215553D01*
X0215764Y0215945D02*
X0224425Y0215945D01*
X0224425Y0216337D02*
X0215764Y0216337D01*
X0215764Y0216730D02*
X0224425Y0216730D01*
X0242528Y0216730D02*
X0270090Y0216730D01*
X0270090Y0217122D02*
X0242528Y0217122D01*
X0242528Y0217514D02*
X0270090Y0217514D01*
X0270090Y0217906D02*
X0242528Y0217906D01*
X0242528Y0218299D02*
X0270091Y0218299D01*
X0270091Y0218691D02*
X0242528Y0218691D01*
X0242528Y0219083D02*
X0270091Y0219083D01*
X0270091Y0219475D02*
X0242528Y0219475D01*
X0242528Y0219867D02*
X0270091Y0219867D01*
X0270091Y0220260D02*
X0242528Y0220260D01*
X0242528Y0220652D02*
X0270091Y0220652D01*
X0270091Y0221044D02*
X0242528Y0221044D01*
X0242528Y0221436D02*
X0270091Y0221436D01*
X0270091Y0221828D02*
X0242528Y0221828D01*
X0242528Y0222221D02*
X0270092Y0222221D01*
X0270092Y0222613D02*
X0242528Y0222613D01*
X0242528Y0223005D02*
X0270092Y0223005D01*
X0270092Y0223397D02*
X0242528Y0223397D01*
X0242528Y0223790D02*
X0270092Y0223790D01*
X0270092Y0224182D02*
X0242528Y0224182D01*
X0242528Y0224574D02*
X0270092Y0224574D01*
X0270092Y0224966D02*
X0242528Y0224966D01*
X0242528Y0225358D02*
X0270092Y0225358D01*
X0270092Y0225751D02*
X0242528Y0225751D01*
X0242528Y0226143D02*
X0270093Y0226143D01*
X0270093Y0226535D02*
X0242528Y0226535D01*
X0242528Y0226927D02*
X0270093Y0226927D01*
X0270093Y0227319D02*
X0242528Y0227319D01*
X0242528Y0227712D02*
X0270093Y0227712D01*
X0270093Y0228104D02*
X0242528Y0228104D01*
X0242528Y0228496D02*
X0270093Y0228496D01*
X0270093Y0228888D02*
X0242528Y0228888D01*
X0242528Y0229280D02*
X0270093Y0229280D01*
X0270094Y0229673D02*
X0242528Y0229673D01*
X0242528Y0230065D02*
X0270094Y0230065D01*
X0270094Y0230457D02*
X0242528Y0230457D01*
X0242528Y0230849D02*
X0270094Y0230849D01*
X0270094Y0231242D02*
X0242528Y0231242D01*
X0242528Y0231634D02*
X0270094Y0231634D01*
X0270094Y0232026D02*
X0242528Y0232026D01*
X0242528Y0232418D02*
X0270094Y0232418D01*
X0270094Y0232498D02*
X0270087Y0205916D01*
X0256388Y0205916D01*
X0256229Y0206074D01*
X0245771Y0206074D01*
X0245612Y0205916D01*
X0242528Y0205916D01*
X0242528Y0233475D01*
X0264583Y0233480D01*
X0264976Y0233480D01*
X0264976Y0234791D01*
X0265130Y0234944D01*
X0265130Y0237024D01*
X0268760Y0237024D01*
X0268760Y0234944D01*
X0268906Y0234798D01*
X0268906Y0233480D01*
X0269885Y0233480D01*
X0269885Y0232707D01*
X0270094Y0232498D01*
X0269885Y0232810D02*
X0242528Y0232810D01*
X0242528Y0233203D02*
X0269885Y0233203D01*
X0268906Y0233595D02*
X0264976Y0233595D01*
X0264976Y0233987D02*
X0268906Y0233987D01*
X0268906Y0234379D02*
X0264976Y0234379D01*
X0264976Y0234771D02*
X0268906Y0234771D01*
X0268760Y0235164D02*
X0265130Y0235164D01*
X0265130Y0235556D02*
X0268760Y0235556D01*
X0268760Y0235948D02*
X0265130Y0235948D01*
X0265130Y0236340D02*
X0268760Y0236340D01*
X0268760Y0236733D02*
X0265130Y0236733D01*
X0264386Y0236733D02*
X0260252Y0236733D01*
X0260252Y0237125D02*
X0264386Y0237125D01*
X0264386Y0237517D02*
X0260252Y0237517D01*
X0260252Y0237909D02*
X0281906Y0237909D01*
X0281906Y0237517D02*
X0269504Y0237517D01*
X0269504Y0237811D02*
X0264386Y0237811D01*
X0264386Y0235252D01*
X0260252Y0235252D01*
X0260252Y0245094D01*
X0281906Y0245094D01*
X0281906Y0235252D01*
X0269504Y0235252D01*
X0269504Y0237811D01*
X0269504Y0237125D02*
X0281906Y0237125D01*
X0281906Y0236733D02*
X0269504Y0236733D01*
X0269504Y0236340D02*
X0281906Y0236340D01*
X0281906Y0235948D02*
X0269504Y0235948D01*
X0269504Y0235556D02*
X0281906Y0235556D01*
X0281906Y0238301D02*
X0260252Y0238301D01*
X0260252Y0238694D02*
X0281906Y0238694D01*
X0281906Y0239086D02*
X0260252Y0239086D01*
X0260252Y0239478D02*
X0281906Y0239478D01*
X0281906Y0239870D02*
X0260252Y0239870D01*
X0260252Y0240262D02*
X0281906Y0240262D01*
X0281906Y0240655D02*
X0260252Y0240655D01*
X0260252Y0241047D02*
X0281906Y0241047D01*
X0281906Y0241439D02*
X0260252Y0241439D01*
X0260252Y0241831D02*
X0281906Y0241831D01*
X0281906Y0242223D02*
X0260252Y0242223D01*
X0260252Y0242616D02*
X0281906Y0242616D01*
X0281906Y0243008D02*
X0260252Y0243008D01*
X0260252Y0243400D02*
X0281906Y0243400D01*
X0281906Y0243792D02*
X0260252Y0243792D01*
X0260252Y0244185D02*
X0281906Y0244185D01*
X0281906Y0244577D02*
X0260252Y0244577D01*
X0260252Y0244969D02*
X0281906Y0244969D01*
X0285984Y0249283D02*
X0289921Y0249283D01*
X0289529Y0249676D02*
X0270685Y0249676D01*
X0270685Y0249622D02*
X0270685Y0256906D01*
X0250803Y0257102D01*
X0250803Y0261827D01*
X0277575Y0261630D01*
X0290961Y0248244D01*
X0288992Y0246276D01*
X0285646Y0249622D01*
X0270685Y0249622D01*
X0270685Y0250068D02*
X0289137Y0250068D01*
X0288745Y0250460D02*
X0270685Y0250460D01*
X0270685Y0250852D02*
X0288353Y0250852D01*
X0287960Y0251244D02*
X0270685Y0251244D01*
X0270685Y0251637D02*
X0287568Y0251637D01*
X0287176Y0252029D02*
X0270685Y0252029D01*
X0270685Y0252421D02*
X0286784Y0252421D01*
X0286391Y0252813D02*
X0270685Y0252813D01*
X0270685Y0253205D02*
X0285999Y0253205D01*
X0285607Y0253598D02*
X0270685Y0253598D01*
X0270685Y0253990D02*
X0285215Y0253990D01*
X0284823Y0254382D02*
X0270685Y0254382D01*
X0270685Y0254774D02*
X0284430Y0254774D01*
X0284038Y0255166D02*
X0270685Y0255166D01*
X0270685Y0255559D02*
X0283646Y0255559D01*
X0283254Y0255951D02*
X0270685Y0255951D01*
X0270685Y0256343D02*
X0282862Y0256343D01*
X0282469Y0256735D02*
X0270685Y0256735D01*
X0267929Y0254740D02*
X0267929Y0248441D01*
X0261630Y0248441D01*
X0261630Y0254740D01*
X0267929Y0254740D01*
X0267929Y0254382D02*
X0261630Y0254382D01*
X0261630Y0253990D02*
X0267929Y0253990D01*
X0267929Y0253598D02*
X0261630Y0253598D01*
X0261630Y0253205D02*
X0267929Y0253205D01*
X0267929Y0252813D02*
X0261630Y0252813D01*
X0261630Y0252421D02*
X0267929Y0252421D01*
X0267929Y0252029D02*
X0261630Y0252029D01*
X0261630Y0251637D02*
X0267929Y0251637D01*
X0267929Y0251244D02*
X0261630Y0251244D01*
X0261630Y0250852D02*
X0267929Y0250852D01*
X0267929Y0250460D02*
X0261630Y0250460D01*
X0261630Y0250068D02*
X0267929Y0250068D01*
X0267929Y0249676D02*
X0261630Y0249676D01*
X0261630Y0249283D02*
X0267929Y0249283D01*
X0267929Y0248891D02*
X0261630Y0248891D01*
X0261630Y0248499D02*
X0267929Y0248499D01*
X0258276Y0248499D02*
X0249944Y0248499D01*
X0249552Y0248891D02*
X0258276Y0248891D01*
X0258276Y0249283D02*
X0249160Y0249283D01*
X0248767Y0249676D02*
X0258276Y0249676D01*
X0258276Y0250068D02*
X0248375Y0250068D01*
X0247983Y0250460D02*
X0258276Y0250460D01*
X0258038Y0250852D02*
X0247591Y0250852D01*
X0246149Y0248731D02*
X0248237Y0246643D01*
X0248244Y0240370D01*
X0239976Y0240370D01*
X0239913Y0245401D01*
X0243201Y0248731D01*
X0246149Y0248731D01*
X0246381Y0248499D02*
X0242972Y0248499D01*
X0242584Y0248107D02*
X0246773Y0248107D01*
X0247166Y0247714D02*
X0242197Y0247714D01*
X0241810Y0247322D02*
X0247558Y0247322D01*
X0247950Y0246930D02*
X0241422Y0246930D01*
X0241035Y0246538D02*
X0248237Y0246538D01*
X0248238Y0246146D02*
X0240648Y0246146D01*
X0240260Y0245753D02*
X0248238Y0245753D01*
X0248238Y0245361D02*
X0239913Y0245361D01*
X0239918Y0244969D02*
X0248239Y0244969D01*
X0248239Y0244577D02*
X0239923Y0244577D01*
X0239928Y0244185D02*
X0248240Y0244185D01*
X0248240Y0243792D02*
X0239933Y0243792D01*
X0239938Y0243400D02*
X0248241Y0243400D01*
X0248241Y0243008D02*
X0239943Y0243008D01*
X0239948Y0242616D02*
X0248242Y0242616D01*
X0248242Y0242223D02*
X0239953Y0242223D01*
X0239958Y0241831D02*
X0248242Y0241831D01*
X0248243Y0241439D02*
X0239963Y0241439D01*
X0239968Y0241047D02*
X0248243Y0241047D01*
X0248244Y0240655D02*
X0239973Y0240655D01*
X0233268Y0240655D02*
X0227378Y0240655D01*
X0227378Y0241047D02*
X0233271Y0241047D01*
X0233274Y0241439D02*
X0227378Y0241439D01*
X0227378Y0241831D02*
X0233277Y0241831D01*
X0233280Y0242223D02*
X0227378Y0242223D01*
X0227378Y0242339D02*
X0233281Y0242339D01*
X0233236Y0236433D01*
X0227378Y0236433D01*
X0227378Y0242339D01*
X0227378Y0240262D02*
X0233265Y0240262D01*
X0233262Y0239870D02*
X0227378Y0239870D01*
X0227378Y0239478D02*
X0233259Y0239478D01*
X0233256Y0239086D02*
X0227378Y0239086D01*
X0227378Y0238694D02*
X0233253Y0238694D01*
X0233250Y0238301D02*
X0227378Y0238301D01*
X0227378Y0237909D02*
X0233247Y0237909D01*
X0233244Y0237517D02*
X0227378Y0237517D01*
X0227378Y0237125D02*
X0233241Y0237125D01*
X0233238Y0236733D02*
X0227378Y0236733D01*
X0239824Y0253205D02*
X0240961Y0253205D01*
X0250803Y0257128D02*
X0282077Y0257128D01*
X0281685Y0257520D02*
X0250803Y0257520D01*
X0250803Y0257912D02*
X0281293Y0257912D01*
X0280901Y0258304D02*
X0250803Y0258304D01*
X0250803Y0258696D02*
X0280508Y0258696D01*
X0280116Y0259089D02*
X0250803Y0259089D01*
X0250803Y0259481D02*
X0279724Y0259481D01*
X0279332Y0259873D02*
X0250803Y0259873D01*
X0250803Y0260265D02*
X0278939Y0260265D01*
X0278547Y0260657D02*
X0250803Y0260657D01*
X0250803Y0261050D02*
X0278155Y0261050D01*
X0277763Y0261442D02*
X0250803Y0261442D01*
X0250336Y0248107D02*
X0258276Y0248107D01*
X0258276Y0247714D02*
X0250402Y0247714D01*
X0250402Y0247322D02*
X0258276Y0247322D01*
X0258276Y0246930D02*
X0250402Y0246930D01*
X0250402Y0246538D02*
X0258276Y0246538D01*
X0258276Y0246146D02*
X0250402Y0246146D01*
X0250402Y0245753D02*
X0258276Y0245753D01*
X0258276Y0245361D02*
X0250402Y0245361D01*
X0250402Y0244969D02*
X0258276Y0244969D01*
X0258276Y0244577D02*
X0250402Y0244577D01*
X0250402Y0244185D02*
X0258276Y0244185D01*
X0258276Y0243792D02*
X0250402Y0243792D01*
X0250402Y0243400D02*
X0258276Y0243400D01*
X0258276Y0243008D02*
X0250402Y0243008D01*
X0250402Y0242616D02*
X0258276Y0242616D01*
X0258276Y0242223D02*
X0250402Y0242223D01*
X0250402Y0241831D02*
X0258276Y0241831D01*
X0258276Y0241439D02*
X0250402Y0241439D01*
X0250402Y0241047D02*
X0258276Y0241047D01*
X0258276Y0240655D02*
X0250402Y0240655D01*
X0250402Y0240262D02*
X0258276Y0240262D01*
X0258276Y0239870D02*
X0250402Y0239870D01*
X0250402Y0239478D02*
X0258276Y0239478D01*
X0258276Y0239086D02*
X0250402Y0239086D01*
X0250402Y0238694D02*
X0258276Y0238694D01*
X0258276Y0238301D02*
X0250402Y0238301D01*
X0250402Y0237909D02*
X0258276Y0237909D01*
X0258276Y0237517D02*
X0250402Y0237517D01*
X0250402Y0237125D02*
X0258276Y0237125D01*
X0258276Y0236733D02*
X0250402Y0236733D01*
X0250402Y0236340D02*
X0258276Y0236340D01*
X0258276Y0235948D02*
X0250402Y0235948D01*
X0250402Y0235556D02*
X0258276Y0235556D01*
X0260252Y0235556D02*
X0264386Y0235556D01*
X0264386Y0235948D02*
X0260252Y0235948D01*
X0260252Y0236340D02*
X0264386Y0236340D01*
X0286377Y0248891D02*
X0290314Y0248891D01*
X0290706Y0248499D02*
X0286769Y0248499D01*
X0287161Y0248107D02*
X0290823Y0248107D01*
X0290431Y0247714D02*
X0287553Y0247714D01*
X0287945Y0247322D02*
X0290039Y0247322D01*
X0289647Y0246930D02*
X0288338Y0246930D01*
X0288730Y0246538D02*
X0289254Y0246538D01*
X0281512Y0217535D02*
X0281512Y0210449D01*
X0273847Y0210449D01*
X0273847Y0211222D01*
X0273439Y0211630D01*
X0273847Y0212038D01*
X0273847Y0213190D01*
X0273033Y0214005D01*
X0272457Y0214005D01*
X0272457Y0217535D01*
X0279348Y0217535D01*
X0279361Y0217523D01*
X0280513Y0217523D01*
X0280526Y0217535D01*
X0281512Y0217535D01*
X0281512Y0217514D02*
X0272457Y0217514D01*
X0272457Y0217122D02*
X0281512Y0217122D01*
X0281512Y0216730D02*
X0272457Y0216730D01*
X0272457Y0216337D02*
X0281512Y0216337D01*
X0281512Y0215945D02*
X0272457Y0215945D01*
X0272457Y0215553D02*
X0281512Y0215553D01*
X0281512Y0215161D02*
X0272457Y0215161D01*
X0272457Y0214769D02*
X0281512Y0214769D01*
X0281512Y0214376D02*
X0272457Y0214376D01*
X0273053Y0213984D02*
X0281512Y0213984D01*
X0281512Y0213592D02*
X0273445Y0213592D01*
X0273838Y0213200D02*
X0281512Y0213200D01*
X0281512Y0212808D02*
X0273847Y0212808D01*
X0273847Y0212415D02*
X0281512Y0212415D01*
X0281512Y0212023D02*
X0273832Y0212023D01*
X0273440Y0211631D02*
X0281512Y0211631D01*
X0281512Y0211239D02*
X0273830Y0211239D01*
X0273847Y0210847D02*
X0281512Y0210847D01*
X0281512Y0210454D02*
X0273847Y0210454D01*
X0270089Y0210454D02*
X0242528Y0210454D01*
X0242528Y0210062D02*
X0270088Y0210062D01*
X0270088Y0209670D02*
X0242528Y0209670D01*
X0242528Y0209278D02*
X0270088Y0209278D01*
X0270088Y0208885D02*
X0242528Y0208885D01*
X0242528Y0208493D02*
X0270088Y0208493D01*
X0270088Y0208101D02*
X0242528Y0208101D01*
X0242528Y0207709D02*
X0270088Y0207709D01*
X0270088Y0207317D02*
X0242528Y0207317D01*
X0242528Y0206924D02*
X0270088Y0206924D01*
X0270088Y0206532D02*
X0242528Y0206532D01*
X0242528Y0206140D02*
X0270087Y0206140D01*
X0270089Y0210847D02*
X0242528Y0210847D01*
X0242528Y0211239D02*
X0270089Y0211239D01*
X0270089Y0211631D02*
X0242528Y0211631D01*
X0242528Y0212023D02*
X0270089Y0212023D01*
X0270089Y0212415D02*
X0242528Y0212415D01*
X0242528Y0212808D02*
X0270089Y0212808D01*
X0270089Y0213200D02*
X0242528Y0213200D01*
X0242528Y0213592D02*
X0270089Y0213592D01*
X0270089Y0213984D02*
X0242528Y0213984D01*
X0242528Y0214376D02*
X0270090Y0214376D01*
X0270090Y0214769D02*
X0242528Y0214769D01*
X0242528Y0215161D02*
X0270090Y0215161D01*
X0270090Y0215553D02*
X0242528Y0215553D01*
X0242528Y0215945D02*
X0270090Y0215945D01*
X0270090Y0216337D02*
X0242528Y0216337D01*
X0246079Y0205331D02*
X0255921Y0205331D01*
X0255921Y0195882D01*
X0249228Y0195882D01*
X0249228Y0199425D01*
X0246079Y0202575D01*
X0246079Y0205331D01*
X0246079Y0204963D02*
X0255921Y0204963D01*
X0255921Y0204571D02*
X0246079Y0204571D01*
X0246079Y0204179D02*
X0255921Y0204179D01*
X0255921Y0203787D02*
X0246079Y0203787D01*
X0246079Y0203395D02*
X0255921Y0203395D01*
X0255921Y0203002D02*
X0246079Y0203002D01*
X0246079Y0202610D02*
X0255921Y0202610D01*
X0255921Y0202218D02*
X0246436Y0202218D01*
X0246828Y0201826D02*
X0255921Y0201826D01*
X0255921Y0201433D02*
X0247220Y0201433D01*
X0247612Y0201041D02*
X0255921Y0201041D01*
X0255921Y0200649D02*
X0248005Y0200649D01*
X0248397Y0200257D02*
X0255921Y0200257D01*
X0255921Y0199865D02*
X0248789Y0199865D01*
X0249181Y0199472D02*
X0255921Y0199472D01*
X0255921Y0199080D02*
X0249228Y0199080D01*
X0249228Y0198688D02*
X0255921Y0198688D01*
X0255921Y0198296D02*
X0249228Y0198296D01*
X0249228Y0197904D02*
X0255921Y0197904D01*
X0255921Y0197511D02*
X0249228Y0197511D01*
X0249228Y0197119D02*
X0255921Y0197119D01*
X0255921Y0196727D02*
X0249228Y0196727D01*
X0249228Y0196335D02*
X0255921Y0196335D01*
X0255921Y0195942D02*
X0249228Y0195942D01*
X0205528Y0253165D02*
X0201197Y0253165D01*
X0201197Y0260646D01*
X0196079Y0260646D01*
X0196079Y0267732D01*
X0205528Y0267732D01*
X0205528Y0253165D01*
X0205528Y0253205D02*
X0201197Y0253205D01*
X0201197Y0253598D02*
X0205528Y0253598D01*
X0205528Y0253990D02*
X0201197Y0253990D01*
X0201197Y0254382D02*
X0205528Y0254382D01*
X0205528Y0254774D02*
X0201197Y0254774D01*
X0201197Y0255166D02*
X0205528Y0255166D01*
X0205528Y0255559D02*
X0201197Y0255559D01*
X0201197Y0255951D02*
X0205528Y0255951D01*
X0205528Y0256343D02*
X0201197Y0256343D01*
X0201197Y0256735D02*
X0205528Y0256735D01*
X0205528Y0257128D02*
X0201197Y0257128D01*
X0201197Y0257520D02*
X0205528Y0257520D01*
X0205528Y0257912D02*
X0201197Y0257912D01*
X0201197Y0258304D02*
X0205528Y0258304D01*
X0205528Y0258696D02*
X0201197Y0258696D01*
X0201197Y0259089D02*
X0205528Y0259089D01*
X0205528Y0259481D02*
X0201197Y0259481D01*
X0201197Y0259873D02*
X0205528Y0259873D01*
X0205528Y0260265D02*
X0201197Y0260265D01*
X0205528Y0260657D02*
X0196079Y0260657D01*
X0196079Y0261050D02*
X0205528Y0261050D01*
X0205528Y0261442D02*
X0196079Y0261442D01*
X0196079Y0261834D02*
X0205528Y0261834D01*
X0205528Y0262226D02*
X0196079Y0262226D01*
X0196079Y0262619D02*
X0205528Y0262619D01*
X0205528Y0263011D02*
X0196079Y0263011D01*
X0196079Y0263403D02*
X0205528Y0263403D01*
X0205528Y0263795D02*
X0196079Y0263795D01*
X0196079Y0264187D02*
X0205528Y0264187D01*
X0205528Y0264580D02*
X0196079Y0264580D01*
X0196079Y0264972D02*
X0205528Y0264972D01*
X0205528Y0265364D02*
X0196079Y0265364D01*
X0196079Y0265756D02*
X0205528Y0265756D01*
X0205528Y0266148D02*
X0196079Y0266148D01*
X0196079Y0266541D02*
X0205528Y0266541D01*
X0205528Y0266933D02*
X0196079Y0266933D01*
X0196079Y0267325D02*
X0205528Y0267325D01*
X0205528Y0267717D02*
X0196079Y0267717D01*
X0192218Y0283798D02*
X0184979Y0283798D01*
X0185371Y0284190D02*
X0191826Y0284190D01*
X0191433Y0284582D02*
X0185764Y0284582D01*
X0186156Y0284975D02*
X0191041Y0284975D01*
X0190649Y0285367D02*
X0186548Y0285367D01*
X0186940Y0285759D02*
X0190257Y0285759D01*
X0189864Y0286151D02*
X0187332Y0286151D01*
X0186347Y0286543D02*
X0183874Y0286543D01*
X0183874Y0286151D02*
X0185954Y0286151D01*
X0185562Y0285759D02*
X0183874Y0285759D01*
X0183874Y0286936D02*
X0186544Y0286936D01*
X0196079Y0295564D02*
X0201984Y0295564D01*
X0201984Y0295957D02*
X0196079Y0295957D01*
X0196079Y0296349D02*
X0201984Y0296349D01*
X0201984Y0296741D02*
X0196079Y0296741D01*
X0196079Y0297133D02*
X0201984Y0297133D01*
X0201984Y0297525D02*
X0196079Y0297525D01*
X0196079Y0297918D02*
X0201984Y0297918D01*
X0201984Y0298310D02*
X0196079Y0298310D01*
X0196079Y0298702D02*
X0201984Y0298702D01*
X0201984Y0299094D02*
X0196079Y0299094D01*
X0196079Y0299486D02*
X0201984Y0299486D01*
X0201984Y0299879D02*
X0196079Y0299879D01*
X0196079Y0300271D02*
X0201984Y0300271D01*
X0201984Y0300663D02*
X0196079Y0300663D01*
X0196079Y0301055D02*
X0201984Y0301055D01*
X0201984Y0301448D02*
X0196079Y0301448D01*
X0196079Y0301840D02*
X0201984Y0301840D01*
X0201984Y0302232D02*
X0196079Y0302232D01*
X0196079Y0302624D02*
X0201984Y0302624D01*
X0201984Y0303016D02*
X0196079Y0303016D01*
X0196079Y0303409D02*
X0201984Y0303409D01*
X0201984Y0303801D02*
X0196079Y0303801D01*
X0196079Y0304193D02*
X0201984Y0304193D01*
X0201984Y0304585D02*
X0196079Y0304585D01*
X0191738Y0303801D02*
X0185439Y0303801D01*
X0185428Y0303409D02*
X0191727Y0303409D01*
X0191716Y0303016D02*
X0185416Y0303016D01*
X0183480Y0307331D02*
X0170488Y0307331D01*
X0170488Y0307723D02*
X0183480Y0307723D01*
X0183480Y0308115D02*
X0170488Y0308115D01*
X0170488Y0308507D02*
X0183480Y0308507D01*
X0183480Y0308900D02*
X0170488Y0308900D01*
X0170488Y0309292D02*
X0183480Y0309292D01*
X0183480Y0309684D02*
X0170488Y0309684D01*
X0170488Y0310076D02*
X0183480Y0310076D01*
X0183480Y0310468D02*
X0170488Y0310468D01*
X0170488Y0310861D02*
X0183480Y0310861D01*
X0183480Y0311253D02*
X0170488Y0311253D01*
X0170488Y0311645D02*
X0183480Y0311645D01*
X0183480Y0312037D02*
X0170488Y0312037D01*
X0170488Y0312429D02*
X0183480Y0312429D01*
X0183480Y0312822D02*
X0170488Y0312822D01*
X0170488Y0313214D02*
X0183480Y0313214D01*
X0183480Y0313606D02*
X0170488Y0313606D01*
X0170488Y0313998D02*
X0183480Y0313998D01*
X0183480Y0314391D02*
X0170488Y0314391D01*
D40*
X0161236Y0286827D03*
X0146472Y0254740D03*
X0144819Y0249858D03*
X0150173Y0246669D03*
X0153165Y0221669D03*
X0140173Y0221669D03*
X0136860Y0214813D03*
X0133087Y0198441D03*
X0127575Y0191953D03*
X0112220Y0199622D03*
X0110252Y0194110D03*
X0112220Y0207496D03*
X0098441Y0220488D03*
X0146866Y0180331D03*
X0150409Y0183874D03*
X0154346Y0187811D03*
X0160252Y0191748D03*
X0168520Y0190961D03*
X0178362Y0185449D03*
X0183874Y0174425D03*
X0190961Y0171669D03*
X0179150Y0161039D03*
X0182693Y0155528D03*
X0166157Y0153953D03*
X0161039Y0157102D03*
X0166945Y0142535D03*
X0170488Y0141748D03*
X0174425Y0141354D03*
X0167732Y0128165D03*
X0178756Y0120488D03*
X0171079Y0116551D03*
X0167732Y0111039D03*
X0178362Y0108677D03*
X0174425Y0096079D03*
X0166945Y0092997D03*
X0166945Y0082693D03*
X0170488Y0082299D03*
X0171276Y0078362D03*
X0181118Y0064583D03*
X0191354Y0065764D03*
X0201591Y0064583D03*
X0204346Y0072457D03*
X0209465Y0088598D03*
X0213795Y0088598D03*
X0217339Y0088205D03*
X0216945Y0092535D03*
X0216945Y0095685D03*
X0205921Y0116551D03*
X0207890Y0122063D03*
X0206315Y0127181D03*
X0191748Y0122063D03*
X0194898Y0114189D03*
X0180331Y0093717D03*
X0148638Y0096276D03*
X0149228Y0104740D03*
X0145291Y0108283D03*
X0134661Y0106709D03*
X0150803Y0125606D03*
X0134791Y0130331D03*
X0151591Y0174425D03*
X0194734Y0199459D03*
X0200409Y0205134D03*
X0206709Y0204740D03*
X0209071Y0209071D03*
X0221866Y0204543D03*
X0209858Y0217339D03*
X0192535Y0221669D03*
X0192535Y0211433D03*
X0166203Y0208677D03*
X0237614Y0235646D03*
X0296472Y0275213D03*
X0291748Y0280331D03*
X0298835Y0282693D03*
X0303559Y0282693D03*
X0311039Y0279937D03*
X0316157Y0280724D03*
X0320882Y0283480D03*
X0320882Y0286630D03*
X0306709Y0275213D03*
X0315764Y0270094D03*
X0330724Y0261039D03*
X0335843Y0265370D03*
X0330724Y0255134D03*
X0335843Y0250803D03*
X0320882Y0250409D03*
X0283480Y0292929D03*
X0280528Y0295880D03*
X0222063Y0290173D03*
X0213008Y0290173D03*
X0216945Y0301984D03*
X0341748Y0295291D03*
X0274031Y0094898D03*
X0274031Y0090567D03*
X0274031Y0085843D03*
X0278756Y0085843D03*
X0283087Y0085843D03*
X0276000Y0074425D03*
X0266945Y0077181D03*
X0272457Y0048835D03*
X0283874Y0049228D03*
X0181512Y0052378D03*
D41*
X0188730Y0065370D02*
X0189124Y0065370D01*
X0189517Y0065764D01*
X0172687Y0084105D02*
X0170488Y0082299D01*
X0168520Y0083874D02*
X0168289Y0084105D01*
X0167732Y0084105D01*
X0167339Y0083711D01*
X0166945Y0082693D01*
X0167732Y0084105D02*
X0161827Y0084105D01*
X0168520Y0083874D02*
X0168520Y0085711D01*
X0172687Y0084105D02*
X0175213Y0084105D01*
X0174262Y0084105D01*
X0174262Y0083711D01*
X0168520Y0089911D02*
X0168520Y0091422D01*
X0166945Y0092997D01*
X0162519Y0092997D01*
X0161827Y0092305D01*
X0174425Y0093092D02*
X0175213Y0092305D01*
X0174425Y0093092D02*
X0174425Y0096079D01*
X0172982Y0100803D02*
X0173244Y0101065D01*
X0178362Y0101065D01*
X0180331Y0099097D01*
X0180331Y0093717D01*
X0178362Y0105265D02*
X0178362Y0108677D01*
X0170882Y0107295D02*
X0167732Y0110445D01*
X0167732Y0111039D01*
X0169697Y0108480D02*
X0163205Y0108480D01*
X0158283Y0105921D02*
X0158283Y0129150D01*
X0143717Y0143717D01*
X0143717Y0181512D01*
X0154740Y0192535D01*
X0159465Y0192535D01*
X0160252Y0191748D01*
X0161827Y0191748D01*
X0162865Y0190710D01*
X0156959Y0185592D02*
X0155921Y0186630D01*
X0154346Y0187811D01*
X0150409Y0183874D02*
X0150409Y0178552D01*
X0150016Y0178158D01*
X0127575Y0191953D02*
X0127575Y0196472D01*
X0139780Y0208677D01*
X0166203Y0208677D01*
X0192535Y0211433D02*
X0192535Y0214451D01*
X0192535Y0218651D02*
X0192535Y0221669D01*
X0201459Y0209071D02*
X0200409Y0208021D01*
X0200409Y0205134D01*
X0206709Y0204740D02*
X0208053Y0203396D01*
X0208053Y0199622D01*
X0199853Y0199622D02*
X0199689Y0199459D01*
X0194734Y0199459D01*
X0205659Y0209071D02*
X0209071Y0209071D01*
X0217728Y0204346D02*
X0217925Y0204543D01*
X0221866Y0204543D01*
X0239386Y0233874D02*
X0239845Y0233874D01*
X0239386Y0233874D02*
X0237614Y0235646D01*
X0222457Y0264976D02*
X0217343Y0264976D01*
X0215764Y0263398D01*
X0222457Y0264976D02*
X0223244Y0265764D01*
X0224228Y0265764D01*
X0213008Y0290173D02*
X0212986Y0290195D01*
X0207027Y0290195D01*
X0211634Y0300409D02*
X0213209Y0301984D01*
X0216945Y0301984D01*
X0184359Y0253718D02*
X0184359Y0250698D01*
X0183409Y0249748D01*
X0150173Y0246669D02*
X0147181Y0246669D01*
X0147549Y0246787D01*
X0144819Y0248257D02*
X0144819Y0249858D01*
X0144819Y0248257D02*
X0143349Y0246787D01*
X0141146Y0254833D02*
X0146379Y0254833D01*
X0146472Y0254740D01*
X0141146Y0254833D02*
X0139468Y0254740D01*
X0140173Y0221669D02*
X0140173Y0218257D01*
X0139780Y0217864D01*
X0136860Y0214813D02*
X0138009Y0213664D01*
X0139780Y0213664D01*
X0172063Y0179150D02*
X0178362Y0185449D01*
X0190961Y0171669D02*
X0188348Y0169057D01*
X0188348Y0168663D01*
X0182550Y0162865D02*
X0180975Y0162865D01*
X0179150Y0161039D01*
X0178542Y0161039D01*
X0176484Y0158981D01*
X0179453Y0156011D02*
X0182209Y0156011D01*
X0182693Y0155528D01*
X0166157Y0153953D02*
X0166157Y0151984D01*
X0160809Y0151984D01*
X0160646Y0152147D01*
X0161039Y0157102D02*
X0161684Y0161290D01*
X0166157Y0151984D02*
X0166157Y0150935D01*
X0166945Y0150147D01*
X0166945Y0145947D02*
X0166945Y0144110D01*
X0166782Y0143947D01*
X0160646Y0143947D01*
X0166945Y0144110D02*
X0166945Y0142535D01*
X0170488Y0141748D02*
X0165994Y0137254D01*
X0165994Y0136236D01*
X0174194Y0136236D02*
X0174194Y0141124D01*
X0174425Y0141354D01*
X0191748Y0122063D02*
X0195916Y0122063D01*
X0196079Y0115370D02*
X0196079Y0108908D01*
X0196309Y0108677D01*
X0194898Y0114189D02*
X0196079Y0115370D01*
X0198309Y0115370D01*
X0202509Y0115370D02*
X0204740Y0115370D01*
X0204740Y0108908D01*
X0204509Y0108677D01*
X0204740Y0115370D02*
X0205921Y0116551D01*
X0204116Y0122063D02*
X0207890Y0122063D01*
X0170882Y0120295D02*
X0170882Y0116748D01*
X0171079Y0116551D01*
X0169697Y0108480D02*
X0170882Y0107295D01*
X0168585Y0101000D02*
X0163205Y0101000D01*
X0158283Y0105921D01*
X0152575Y0104740D02*
X0149228Y0104740D01*
X0144898Y0103002D02*
X0144898Y0108677D01*
X0145291Y0108283D01*
X0144898Y0108677D02*
X0141880Y0108677D01*
X0137680Y0108677D02*
X0136630Y0108677D01*
X0134661Y0106709D01*
X0134661Y0103002D01*
X0135680Y0101984D01*
X0143880Y0101984D02*
X0144898Y0103002D01*
X0168585Y0101000D02*
X0168782Y0100803D01*
X0143717Y0126394D02*
X0145291Y0127969D01*
X0145291Y0132462D01*
X0144273Y0134268D01*
X0143717Y0126394D02*
X0142273Y0126394D01*
X0138073Y0126394D02*
X0137940Y0126394D01*
X0134791Y0130331D01*
X0134791Y0132985D01*
X0136073Y0134268D01*
X0259485Y0198814D02*
X0260843Y0201943D01*
X0260843Y0203231D01*
X0320882Y0250409D02*
X0320882Y0252783D01*
X0333737Y0259071D02*
X0338735Y0255528D01*
X0338735Y0251328D02*
X0338211Y0250803D01*
X0335843Y0250803D01*
X0333737Y0263271D02*
X0335836Y0265370D01*
X0335843Y0265370D01*
X0315764Y0270094D02*
X0315764Y0274425D01*
X0313795Y0274437D01*
X0315764Y0274425D02*
X0315764Y0275213D01*
X0311039Y0274819D02*
X0306709Y0275213D01*
X0303559Y0275475D02*
X0298835Y0275475D01*
X0298572Y0275213D01*
X0296472Y0275213D01*
X0298835Y0279675D02*
X0298835Y0282693D01*
X0298835Y0279675D02*
X0303559Y0279675D01*
X0303559Y0282693D01*
X0311039Y0279937D02*
X0311039Y0274819D01*
X0311039Y0274241D01*
X0316157Y0280724D02*
X0316157Y0285055D01*
X0317732Y0283480D01*
X0320882Y0283480D01*
X0320882Y0286630D02*
X0314988Y0286630D01*
X0313795Y0285437D01*
X0314177Y0285055D01*
X0316157Y0285055D01*
X0341354Y0290161D02*
X0341748Y0290555D01*
X0341748Y0295291D01*
X0285055Y0295916D02*
X0284723Y0295584D01*
X0283480Y0294341D01*
X0283480Y0292929D01*
D42*
X0281118Y0299228D02*
X0293323Y0299228D01*
X0293323Y0301984D01*
X0288598Y0301984D01*
X0288598Y0307102D01*
X0281118Y0307102D01*
X0281118Y0299228D01*
X0281118Y0299948D02*
X0293323Y0299948D01*
X0293323Y0300734D02*
X0281118Y0300734D01*
X0281118Y0301520D02*
X0293323Y0301520D01*
X0288598Y0302306D02*
X0281118Y0302306D01*
X0281118Y0303092D02*
X0288598Y0303092D01*
X0288598Y0303878D02*
X0281118Y0303878D01*
X0281118Y0304663D02*
X0288598Y0304663D01*
X0288598Y0305449D02*
X0281118Y0305449D01*
X0281118Y0306235D02*
X0288598Y0306235D01*
X0288598Y0307021D02*
X0281118Y0307021D01*
X0265370Y0299622D02*
X0265370Y0294196D01*
X0260946Y0289772D01*
X0256025Y0295186D02*
X0250611Y0300599D01*
X0256025Y0295186D02*
X0256025Y0279930D01*
X0229937Y0273244D02*
X0227969Y0273244D01*
X0226000Y0273244D01*
X0227969Y0269504D02*
X0228953Y0269504D01*
X0227969Y0269504D02*
X0227969Y0265764D01*
X0226000Y0265764D02*
X0224228Y0265764D01*
X0320882Y0250409D02*
X0320882Y0246998D01*
X0320882Y0242798D02*
X0320882Y0239386D01*
X0320882Y0238205D01*
X0320390Y0237713D01*
X0320390Y0235154D02*
X0323798Y0235154D01*
X0324031Y0235387D01*
X0343421Y0235154D02*
X0343421Y0232594D01*
X0343421Y0230035D01*
X0343421Y0228657D01*
X0344110Y0227969D01*
X0343421Y0235154D02*
X0343421Y0237713D01*
X0343421Y0239484D01*
X0343717Y0239780D01*
X0341748Y0253953D02*
X0329937Y0253953D01*
X0329937Y0261827D01*
X0331493Y0261827D01*
X0331493Y0261613D01*
X0331929Y0261177D01*
X0335545Y0261177D01*
X0335981Y0261613D01*
X0335981Y0261827D01*
X0337024Y0261827D01*
X0337024Y0263728D01*
X0337839Y0264543D01*
X0337839Y0266197D01*
X0337024Y0267012D01*
X0337024Y0269424D01*
X0337036Y0269437D01*
X0337036Y0270752D01*
X0337024Y0270765D01*
X0337024Y0281906D01*
X0341748Y0281906D01*
X0341748Y0253953D01*
X0341748Y0254365D02*
X0329937Y0254365D01*
X0329937Y0255151D02*
X0341748Y0255151D01*
X0341748Y0255937D02*
X0329937Y0255937D01*
X0329937Y0256723D02*
X0341748Y0256723D01*
X0341748Y0257509D02*
X0329937Y0257509D01*
X0329937Y0258295D02*
X0341748Y0258295D01*
X0341748Y0259080D02*
X0329937Y0259080D01*
X0329937Y0259866D02*
X0341748Y0259866D01*
X0341748Y0260652D02*
X0329937Y0260652D01*
X0329937Y0261438D02*
X0331668Y0261438D01*
X0335806Y0261438D02*
X0341748Y0261438D01*
X0341748Y0262224D02*
X0337024Y0262224D01*
X0337024Y0263010D02*
X0341748Y0263010D01*
X0341748Y0263796D02*
X0337091Y0263796D01*
X0337839Y0264582D02*
X0341748Y0264582D01*
X0341748Y0265368D02*
X0337839Y0265368D01*
X0337839Y0266154D02*
X0341748Y0266154D01*
X0341748Y0266940D02*
X0337096Y0266940D01*
X0337024Y0267726D02*
X0341748Y0267726D01*
X0341748Y0268511D02*
X0337024Y0268511D01*
X0337024Y0269297D02*
X0341748Y0269297D01*
X0341748Y0270083D02*
X0337036Y0270083D01*
X0337024Y0270869D02*
X0341748Y0270869D01*
X0341748Y0271655D02*
X0337024Y0271655D01*
X0337024Y0272441D02*
X0341748Y0272441D01*
X0341748Y0273227D02*
X0337024Y0273227D01*
X0337024Y0274013D02*
X0341748Y0274013D01*
X0341748Y0274799D02*
X0337024Y0274799D01*
X0337024Y0275585D02*
X0341748Y0275585D01*
X0341748Y0276371D02*
X0337024Y0276371D01*
X0337024Y0277156D02*
X0341748Y0277156D01*
X0341748Y0277942D02*
X0337024Y0277942D01*
X0337024Y0278728D02*
X0341748Y0278728D01*
X0341748Y0279514D02*
X0337024Y0279514D01*
X0337024Y0280300D02*
X0341748Y0280300D01*
X0341748Y0281086D02*
X0337024Y0281086D01*
X0337024Y0281872D02*
X0341748Y0281872D01*
X0334799Y0187378D02*
X0334799Y0185311D01*
X0336236Y0183874D01*
X0329799Y0185055D02*
X0326394Y0185055D01*
X0329799Y0185055D02*
X0329799Y0187378D01*
X0270094Y0160252D02*
X0258283Y0160252D01*
X0248389Y0161039D02*
X0247995Y0161433D01*
X0236630Y0161433D01*
X0226394Y0161039D02*
X0219701Y0161039D01*
X0216945Y0158283D01*
X0204346Y0154346D02*
X0203165Y0155528D01*
X0194110Y0155528D01*
X0177750Y0171844D02*
X0159639Y0171844D01*
X0159071Y0171276D02*
X0171276Y0183480D01*
X0180331Y0174425D01*
X0168126Y0162220D01*
X0159071Y0171276D01*
X0159288Y0171058D02*
X0176964Y0171058D01*
X0176178Y0170272D02*
X0160074Y0170272D01*
X0160252Y0170882D02*
X0157890Y0168520D01*
X0149615Y0168520D01*
X0148883Y0169251D01*
X0148047Y0169307D01*
X0147654Y0168913D01*
X0138835Y0169524D02*
X0138835Y0163638D01*
X0141276Y0161197D01*
X0134465Y0162811D02*
X0131787Y0165488D01*
X0131787Y0169780D01*
X0123327Y0159017D02*
X0123929Y0158415D01*
X0126000Y0158415D01*
X0126000Y0154215D02*
X0125161Y0153376D01*
X0125078Y0152738D01*
X0125078Y0148050D01*
X0124374Y0147346D01*
X0120402Y0132863D02*
X0118789Y0131250D01*
X0118520Y0131250D01*
X0118520Y0127050D02*
X0120105Y0125464D01*
X0120882Y0124677D01*
X0121376Y0104910D02*
X0121376Y0104346D01*
X0117601Y0104346D01*
X0116945Y0103691D01*
X0108677Y0103691D02*
X0108021Y0104346D01*
X0104891Y0106315D01*
X0108677Y0099491D02*
X0108677Y0099031D01*
X0105528Y0095882D01*
X0116945Y0098047D02*
X0120094Y0094898D01*
X0116945Y0098047D02*
X0116945Y0099491D01*
X0103034Y0155002D02*
X0101197Y0155002D01*
X0103034Y0155002D02*
X0104346Y0156315D01*
X0104346Y0159071D02*
X0101328Y0159071D01*
X0101197Y0159202D01*
X0104346Y0159071D02*
X0109858Y0159071D01*
X0111433Y0160646D01*
X0148978Y0178899D02*
X0151054Y0178899D01*
X0150313Y0178158D01*
X0150016Y0178158D01*
X0156959Y0184805D02*
X0155921Y0185843D01*
X0155921Y0186630D01*
X0167499Y0179703D02*
X0175053Y0179703D01*
X0175839Y0178917D02*
X0166713Y0178917D01*
X0165927Y0178131D02*
X0176624Y0178131D01*
X0177410Y0177346D02*
X0165141Y0177346D01*
X0164355Y0176560D02*
X0178196Y0176560D01*
X0178982Y0175774D02*
X0163569Y0175774D01*
X0162783Y0174988D02*
X0179768Y0174988D01*
X0180107Y0174202D02*
X0161997Y0174202D01*
X0161211Y0173416D02*
X0179321Y0173416D01*
X0178536Y0172630D02*
X0160425Y0172630D01*
X0160449Y0170882D02*
X0160252Y0170882D01*
X0160860Y0169486D02*
X0175392Y0169486D01*
X0174606Y0168701D02*
X0161646Y0168701D01*
X0162432Y0167915D02*
X0173820Y0167915D01*
X0173034Y0167129D02*
X0163218Y0167129D01*
X0164004Y0166343D02*
X0172248Y0166343D01*
X0171462Y0165557D02*
X0164790Y0165557D01*
X0165576Y0164771D02*
X0170676Y0164771D01*
X0169891Y0163985D02*
X0166361Y0163985D01*
X0167147Y0163199D02*
X0169105Y0163199D01*
X0168319Y0162413D02*
X0167933Y0162413D01*
X0168284Y0180489D02*
X0174267Y0180489D01*
X0173481Y0181275D02*
X0169070Y0181275D01*
X0169856Y0182061D02*
X0172695Y0182061D01*
X0171909Y0182847D02*
X0170642Y0182847D01*
X0071276Y0250213D02*
X0069504Y0250213D01*
X0068913Y0250803D01*
X0068913Y0253559D01*
X0069504Y0254150D01*
X0071276Y0254150D01*
X0071276Y0255724D01*
X0070291Y0256709D01*
X0068520Y0258480D01*
X0068520Y0259465D01*
X0069504Y0269898D02*
X0071276Y0269898D01*
X0069504Y0269898D02*
X0068913Y0270488D01*
X0068913Y0273244D01*
X0069307Y0273638D01*
X0071079Y0273638D01*
X0071276Y0273835D01*
X0071276Y0275409D01*
X0070587Y0276098D01*
X0070390Y0276098D01*
X0067339Y0279150D01*
X0070291Y0276394D02*
X0070587Y0276098D01*
X0203953Y0096341D02*
X0203953Y0094504D01*
X0204740Y0093717D01*
X0238467Y0090173D02*
X0238467Y0086341D01*
X0242667Y0090173D02*
X0242667Y0090567D01*
X0244504Y0092404D01*
X0246472Y0092404D02*
X0247522Y0091354D01*
X0247522Y0090173D01*
X0251722Y0090173D02*
X0252509Y0089386D01*
X0252509Y0086341D01*
X0312811Y0084740D02*
X0324071Y0084740D01*
X0324228Y0084898D01*
D43*
X0204346Y0072457D02*
X0200016Y0072457D01*
X0200016Y0072194D01*
X0195685Y0072194D01*
X0195685Y0067994D02*
X0200016Y0067994D01*
X0200016Y0066157D01*
X0201591Y0064583D01*
X0191354Y0065764D02*
X0189517Y0065764D01*
X0188730Y0065370D02*
X0188730Y0060646D01*
X0184530Y0060646D02*
X0184530Y0065370D01*
X0183743Y0064583D01*
X0181118Y0064583D01*
X0183694Y0174425D02*
X0183874Y0174425D01*
X0183694Y0174425D02*
X0180635Y0177485D01*
X0168663Y0187811D02*
X0168663Y0190817D01*
X0168520Y0190961D01*
X0154740Y0173101D02*
X0152915Y0173101D01*
X0151591Y0174425D01*
X0121669Y0193323D02*
X0120226Y0193323D01*
X0118520Y0191617D01*
X0116813Y0194110D02*
X0118520Y0195817D01*
X0116813Y0194110D02*
X0115370Y0194110D01*
X0280528Y0295880D02*
X0284428Y0295880D01*
X0284723Y0295584D01*
X0291354Y0304872D02*
X0294013Y0304872D01*
X0294071Y0304930D01*
X0291457Y0304974D02*
X0291354Y0304872D01*
D44*
X0322850Y0293717D02*
X0322850Y0290961D01*
X0326000Y0290961D01*
X0334661Y0305921D02*
X0341354Y0305921D01*
X0306709Y0275213D02*
X0306446Y0275475D01*
X0303559Y0275475D01*
X0320882Y0242798D02*
X0322194Y0242798D01*
X0330331Y0235055D02*
X0325213Y0229937D01*
X0320882Y0229937D01*
X0320587Y0230232D01*
X0320390Y0230035D01*
X0320587Y0230232D02*
X0320685Y0230331D01*
X0320390Y0232594D02*
X0324674Y0232594D01*
X0326101Y0234022D01*
X0321276Y0225213D02*
X0321276Y0222982D01*
X0321276Y0218782D02*
X0322680Y0217378D01*
X0326787Y0217378D01*
X0329799Y0217378D01*
X0326787Y0217378D02*
X0326787Y0209858D01*
X0331118Y0213402D02*
X0334799Y0217083D01*
X0334799Y0217378D01*
X0336203Y0218782D01*
X0343323Y0218782D01*
X0343323Y0222982D02*
X0343323Y0225213D01*
X0310062Y0184457D02*
X0314976Y0179543D01*
X0314976Y0168126D01*
X0316551Y0166551D01*
X0313008Y0165370D02*
X0313008Y0175213D01*
X0306709Y0181512D01*
X0204740Y0181512D01*
X0180921Y0205331D01*
X0146669Y0205331D01*
X0129937Y0188598D01*
X0108283Y0188598D01*
X0084268Y0164583D01*
X0084268Y0148047D01*
X0087811Y0144504D01*
X0112220Y0144504D01*
X0115370Y0141354D01*
X0115370Y0140961D01*
X0113008Y0140961D02*
X0089780Y0140961D01*
X0083087Y0147654D01*
X0083087Y0164976D01*
X0107890Y0189780D01*
X0116761Y0189780D01*
X0116801Y0189739D01*
X0120238Y0189739D01*
X0120278Y0189780D01*
X0129543Y0189780D01*
X0146154Y0206391D01*
X0181906Y0206391D01*
X0203839Y0184457D01*
X0310062Y0184457D01*
X0304346Y0176787D02*
X0205528Y0176787D01*
X0179346Y0202969D01*
X0147457Y0202969D01*
X0130724Y0186236D01*
X0109071Y0186236D01*
X0086630Y0163795D01*
X0086630Y0148835D01*
X0088530Y0146935D01*
X0111758Y0146935D01*
X0113333Y0148510D01*
X0116157Y0148441D02*
X0113402Y0145685D01*
X0088205Y0145685D01*
X0085449Y0148441D01*
X0085449Y0164189D01*
X0108677Y0187417D01*
X0130331Y0187417D01*
X0147063Y0204150D01*
X0180134Y0204150D01*
X0203953Y0180331D01*
X0300409Y0180331D01*
X0301591Y0179150D01*
X0304346Y0176787D02*
X0306709Y0174425D01*
X0301591Y0174031D02*
X0300016Y0175606D01*
X0204740Y0175606D01*
X0178559Y0201787D01*
X0147850Y0201787D01*
X0131118Y0185055D01*
X0114976Y0185055D01*
X0104740Y0174819D01*
X0104740Y0172272D01*
X0112614Y0164398D01*
X0115370Y0168520D02*
X0109661Y0174228D01*
X0109661Y0176591D01*
X0116157Y0183087D01*
X0132299Y0183087D01*
X0148638Y0199425D01*
X0176984Y0199425D01*
X0203559Y0172850D01*
X0282299Y0172850D01*
X0284268Y0170882D01*
X0294504Y0170882D01*
X0296472Y0168913D01*
X0312220Y0164583D02*
X0313008Y0165370D01*
X0316551Y0137024D02*
X0285843Y0137024D01*
X0259858Y0111039D01*
X0259858Y0089780D01*
X0254946Y0084868D01*
X0185676Y0084868D01*
X0179771Y0078963D01*
X0176580Y0078963D01*
X0173027Y0075409D01*
X0172850Y0075409D01*
X0120291Y0075016D01*
X0116157Y0079150D01*
X0116157Y0092929D01*
X0115130Y0093957D01*
X0113795Y0092929D02*
X0113795Y0079937D01*
X0119701Y0074031D01*
X0176373Y0074031D01*
X0176391Y0074050D01*
X0179168Y0074050D01*
X0188992Y0083874D01*
X0259465Y0083874D01*
X0265764Y0090173D01*
X0265764Y0111827D01*
X0289182Y0135245D01*
X0314787Y0135245D01*
X0316551Y0133480D01*
X0321276Y0133480D01*
X0311433Y0131512D02*
X0291748Y0131512D01*
X0271276Y0111039D01*
X0271276Y0091354D01*
X0262614Y0082693D01*
X0191748Y0082693D01*
X0179955Y0070900D01*
X0179955Y0070879D01*
X0179152Y0070076D01*
X0178016Y0070076D01*
X0177998Y0070094D01*
X0122063Y0070094D01*
X0102378Y0089780D01*
X0102378Y0110252D01*
X0104740Y0112614D01*
X0110026Y0112614D01*
X0112024Y0110616D01*
X0114976Y0113795D02*
X0103953Y0113795D01*
X0100803Y0110646D01*
X0100803Y0089780D01*
X0121669Y0068913D01*
X0179543Y0068913D01*
X0192142Y0081512D01*
X0273244Y0081512D01*
X0276787Y0085055D01*
X0276787Y0110252D01*
X0292929Y0126394D01*
X0301984Y0126394D01*
X0305528Y0124425D02*
X0295291Y0124425D01*
X0281699Y0110833D01*
X0281699Y0099449D01*
X0280724Y0098474D01*
X0280724Y0083480D01*
X0277575Y0080331D01*
X0192535Y0080331D01*
X0179937Y0067732D01*
X0121276Y0067732D01*
X0099622Y0089386D01*
X0099622Y0112220D01*
X0104536Y0117135D01*
X0112410Y0117135D01*
X0115357Y0120082D01*
X0115357Y0120956D01*
X0113076Y0120951D02*
X0113076Y0120193D01*
X0111676Y0118792D01*
X0103832Y0118792D01*
X0098441Y0113402D01*
X0098441Y0088992D01*
X0120882Y0066551D01*
X0180332Y0066551D01*
X0192929Y0079148D01*
X0281118Y0079149D01*
X0286827Y0084858D01*
X0286827Y0111630D01*
X0296472Y0121276D01*
X0301591Y0115764D02*
X0299228Y0113402D01*
X0299228Y0082693D01*
X0294504Y0077969D01*
X0271276Y0077969D01*
X0269307Y0076000D01*
X0269307Y0074425D01*
X0272850Y0074425D02*
X0272850Y0076000D01*
X0273244Y0076394D01*
X0273638Y0076787D01*
X0301984Y0076787D01*
X0303461Y0078264D01*
X0303461Y0109169D01*
X0301984Y0110646D01*
X0305338Y0106913D02*
X0305338Y0077779D01*
X0303165Y0075606D01*
X0281118Y0075606D01*
X0279543Y0074031D01*
X0290173Y0074425D02*
X0268402Y0052654D01*
X0268402Y0051984D01*
X0268402Y0050331D01*
X0268402Y0051984D02*
X0268402Y0052654D01*
X0270488Y0051000D02*
X0292732Y0073244D01*
X0306118Y0073244D01*
X0310547Y0077673D01*
X0310547Y0096413D01*
X0316709Y0102575D01*
X0316709Y0110803D01*
X0316945Y0111039D01*
X0311827Y0111039D02*
X0310252Y0109465D01*
X0310252Y0107102D01*
X0307306Y0104157D01*
X0307306Y0076991D01*
X0304740Y0074425D01*
X0290173Y0074425D01*
X0262890Y0070724D02*
X0262102Y0071273D01*
X0262024Y0071470D01*
X0262024Y0075837D01*
X0261236Y0075791D02*
X0261236Y0068638D01*
X0261238Y0068607D01*
X0261243Y0068577D01*
X0261251Y0068547D01*
X0261263Y0068518D01*
X0261278Y0068491D01*
X0261296Y0068466D01*
X0261317Y0068443D01*
X0261340Y0068422D01*
X0261365Y0068404D01*
X0261392Y0068389D01*
X0261421Y0068377D01*
X0261451Y0068369D01*
X0261481Y0068364D01*
X0261512Y0068362D01*
X0260809Y0065919D02*
X0260749Y0065921D01*
X0260689Y0065926D01*
X0260630Y0065935D01*
X0260572Y0065948D01*
X0260514Y0065964D01*
X0260457Y0065983D01*
X0260402Y0066006D01*
X0260348Y0066033D01*
X0260296Y0066062D01*
X0260245Y0066095D01*
X0260197Y0066130D01*
X0260151Y0066168D01*
X0260108Y0066210D01*
X0260107Y0066210D02*
X0259795Y0066522D01*
X0259158Y0066163D02*
X0259121Y0066203D01*
X0259087Y0066245D01*
X0259055Y0066289D01*
X0259027Y0066334D01*
X0259001Y0066382D01*
X0258979Y0066432D01*
X0258960Y0066482D01*
X0258944Y0066534D01*
X0258932Y0066587D01*
X0258923Y0066640D01*
X0258918Y0066694D01*
X0258916Y0066748D01*
X0258916Y0071763D01*
X0259620Y0071773D02*
X0259620Y0066945D01*
X0259622Y0066898D01*
X0259627Y0066851D01*
X0259637Y0066805D01*
X0259649Y0066760D01*
X0259666Y0066716D01*
X0259685Y0066674D01*
X0259708Y0066633D01*
X0259734Y0066593D01*
X0259763Y0066557D01*
X0259795Y0066522D01*
X0259158Y0066163D02*
X0261289Y0064031D01*
X0261512Y0064031D01*
X0260809Y0065919D02*
X0262218Y0065919D01*
X0262299Y0066000D01*
X0258916Y0071763D02*
X0258914Y0071829D01*
X0258908Y0071894D01*
X0258899Y0071959D01*
X0258886Y0072023D01*
X0258869Y0072087D01*
X0258848Y0072149D01*
X0258824Y0072210D01*
X0258796Y0072270D01*
X0258765Y0072328D01*
X0258730Y0072383D01*
X0258693Y0072437D01*
X0258652Y0072489D01*
X0258608Y0072538D01*
X0258562Y0072584D01*
X0258513Y0072628D01*
X0258461Y0072669D01*
X0258407Y0072706D01*
X0258352Y0072741D01*
X0258294Y0072772D01*
X0258234Y0072800D01*
X0258173Y0072824D01*
X0258111Y0072845D01*
X0258047Y0072862D01*
X0257983Y0072875D01*
X0257918Y0072884D01*
X0257853Y0072890D01*
X0257787Y0072892D01*
X0256300Y0072892D01*
X0255486Y0073596D02*
X0255436Y0073594D01*
X0255386Y0073589D01*
X0255336Y0073580D01*
X0255288Y0073567D01*
X0255240Y0073552D01*
X0255194Y0073532D01*
X0255149Y0073510D01*
X0255105Y0073484D01*
X0255064Y0073456D01*
X0255025Y0073424D01*
X0254988Y0073390D01*
X0254954Y0073353D01*
X0254922Y0073314D01*
X0254894Y0073273D01*
X0254868Y0073229D01*
X0254846Y0073184D01*
X0254826Y0073138D01*
X0254811Y0073090D01*
X0254798Y0073042D01*
X0254789Y0072992D01*
X0254784Y0072942D01*
X0254782Y0072892D01*
X0254780Y0072844D01*
X0254774Y0072796D01*
X0254765Y0072748D01*
X0254752Y0072702D01*
X0254735Y0072657D01*
X0254715Y0072613D01*
X0254691Y0072571D01*
X0254665Y0072531D01*
X0254635Y0072493D01*
X0254602Y0072457D01*
X0254566Y0072424D01*
X0254528Y0072394D01*
X0254488Y0072368D01*
X0254446Y0072344D01*
X0254402Y0072324D01*
X0254357Y0072307D01*
X0254311Y0072294D01*
X0254263Y0072285D01*
X0254215Y0072279D01*
X0254167Y0072277D01*
X0253906Y0072277D01*
X0253906Y0072278D02*
X0253858Y0072276D01*
X0253810Y0072270D01*
X0253762Y0072261D01*
X0253716Y0072248D01*
X0253671Y0072231D01*
X0253627Y0072211D01*
X0253585Y0072187D01*
X0253545Y0072161D01*
X0253507Y0072131D01*
X0253471Y0072098D01*
X0253438Y0072062D01*
X0253408Y0072024D01*
X0253382Y0071984D01*
X0253358Y0071942D01*
X0253338Y0071898D01*
X0253321Y0071853D01*
X0253308Y0071807D01*
X0253299Y0071759D01*
X0253293Y0071711D01*
X0253291Y0071663D01*
X0253291Y0071655D01*
X0253293Y0071607D01*
X0253299Y0071559D01*
X0253308Y0071511D01*
X0253321Y0071465D01*
X0253338Y0071420D01*
X0253358Y0071376D01*
X0253382Y0071334D01*
X0253408Y0071294D01*
X0253438Y0071256D01*
X0253471Y0071220D01*
X0253507Y0071187D01*
X0253545Y0071157D01*
X0253585Y0071131D01*
X0253627Y0071107D01*
X0253671Y0071087D01*
X0253716Y0071070D01*
X0253762Y0071057D01*
X0253810Y0071048D01*
X0253858Y0071042D01*
X0253906Y0071040D01*
X0254167Y0071040D01*
X0254167Y0071041D02*
X0254215Y0071039D01*
X0254263Y0071033D01*
X0254311Y0071024D01*
X0254357Y0071011D01*
X0254402Y0070994D01*
X0254446Y0070974D01*
X0254488Y0070950D01*
X0254528Y0070924D01*
X0254566Y0070894D01*
X0254602Y0070861D01*
X0254635Y0070825D01*
X0254665Y0070787D01*
X0254691Y0070747D01*
X0254715Y0070705D01*
X0254735Y0070661D01*
X0254752Y0070616D01*
X0254765Y0070570D01*
X0254774Y0070522D01*
X0254780Y0070474D01*
X0254782Y0070426D01*
X0254782Y0070418D01*
X0254780Y0070370D01*
X0254774Y0070322D01*
X0254765Y0070274D01*
X0254752Y0070228D01*
X0254735Y0070183D01*
X0254715Y0070139D01*
X0254691Y0070097D01*
X0254665Y0070057D01*
X0254635Y0070019D01*
X0254602Y0069983D01*
X0254566Y0069950D01*
X0254528Y0069920D01*
X0254488Y0069894D01*
X0254446Y0069870D01*
X0254402Y0069850D01*
X0254357Y0069833D01*
X0254311Y0069820D01*
X0254263Y0069811D01*
X0254215Y0069805D01*
X0254167Y0069803D01*
X0253906Y0069803D01*
X0253906Y0069804D02*
X0253858Y0069802D01*
X0253810Y0069796D01*
X0253762Y0069787D01*
X0253716Y0069774D01*
X0253671Y0069757D01*
X0253627Y0069737D01*
X0253585Y0069713D01*
X0253545Y0069687D01*
X0253507Y0069657D01*
X0253471Y0069624D01*
X0253438Y0069588D01*
X0253408Y0069550D01*
X0253382Y0069510D01*
X0253358Y0069468D01*
X0253338Y0069424D01*
X0253321Y0069379D01*
X0253308Y0069333D01*
X0253299Y0069285D01*
X0253293Y0069237D01*
X0253291Y0069189D01*
X0253291Y0069181D01*
X0253293Y0069133D01*
X0253299Y0069085D01*
X0253308Y0069037D01*
X0253321Y0068991D01*
X0253338Y0068946D01*
X0253358Y0068902D01*
X0253382Y0068860D01*
X0253408Y0068820D01*
X0253438Y0068782D01*
X0253471Y0068746D01*
X0253507Y0068713D01*
X0253545Y0068683D01*
X0253585Y0068657D01*
X0253627Y0068633D01*
X0253671Y0068613D01*
X0253716Y0068596D01*
X0253762Y0068583D01*
X0253810Y0068574D01*
X0253858Y0068568D01*
X0253906Y0068566D01*
X0254167Y0068566D01*
X0254167Y0068567D02*
X0254215Y0068565D01*
X0254263Y0068559D01*
X0254311Y0068550D01*
X0254357Y0068537D01*
X0254402Y0068520D01*
X0254446Y0068500D01*
X0254488Y0068476D01*
X0254528Y0068450D01*
X0254566Y0068420D01*
X0254602Y0068387D01*
X0254635Y0068351D01*
X0254665Y0068313D01*
X0254691Y0068273D01*
X0254715Y0068231D01*
X0254735Y0068187D01*
X0254752Y0068142D01*
X0254765Y0068096D01*
X0254774Y0068048D01*
X0254780Y0068000D01*
X0254782Y0067952D01*
X0254782Y0067944D01*
X0254780Y0067896D01*
X0254774Y0067848D01*
X0254765Y0067800D01*
X0254752Y0067754D01*
X0254735Y0067709D01*
X0254715Y0067665D01*
X0254691Y0067623D01*
X0254665Y0067583D01*
X0254635Y0067545D01*
X0254602Y0067509D01*
X0254566Y0067476D01*
X0254528Y0067446D01*
X0254488Y0067420D01*
X0254446Y0067396D01*
X0254402Y0067376D01*
X0254357Y0067359D01*
X0254311Y0067346D01*
X0254263Y0067337D01*
X0254215Y0067331D01*
X0254167Y0067329D01*
X0253906Y0067329D01*
X0253906Y0067330D02*
X0253858Y0067328D01*
X0253810Y0067322D01*
X0253762Y0067313D01*
X0253716Y0067300D01*
X0253671Y0067283D01*
X0253627Y0067263D01*
X0253585Y0067239D01*
X0253545Y0067213D01*
X0253507Y0067183D01*
X0253471Y0067150D01*
X0253438Y0067114D01*
X0253408Y0067076D01*
X0253382Y0067036D01*
X0253358Y0066994D01*
X0253338Y0066950D01*
X0253321Y0066905D01*
X0253308Y0066859D01*
X0253299Y0066811D01*
X0253293Y0066763D01*
X0253291Y0066715D01*
X0253291Y0066707D01*
X0253293Y0066659D01*
X0253299Y0066611D01*
X0253308Y0066563D01*
X0253321Y0066517D01*
X0253338Y0066472D01*
X0253358Y0066428D01*
X0253382Y0066386D01*
X0253408Y0066346D01*
X0253438Y0066308D01*
X0253471Y0066272D01*
X0253507Y0066239D01*
X0253545Y0066209D01*
X0253585Y0066183D01*
X0253627Y0066159D01*
X0253671Y0066139D01*
X0253716Y0066122D01*
X0253762Y0066109D01*
X0253810Y0066100D01*
X0253858Y0066094D01*
X0253906Y0066092D01*
X0254167Y0066092D01*
X0254167Y0066093D02*
X0254215Y0066091D01*
X0254263Y0066085D01*
X0254311Y0066076D01*
X0254357Y0066063D01*
X0254402Y0066046D01*
X0254446Y0066026D01*
X0254488Y0066002D01*
X0254528Y0065976D01*
X0254566Y0065946D01*
X0254602Y0065913D01*
X0254635Y0065877D01*
X0254665Y0065839D01*
X0254691Y0065799D01*
X0254715Y0065757D01*
X0254735Y0065713D01*
X0254752Y0065668D01*
X0254765Y0065622D01*
X0254774Y0065574D01*
X0254780Y0065526D01*
X0254782Y0065478D01*
X0254782Y0065470D01*
X0254780Y0065422D01*
X0254774Y0065374D01*
X0254765Y0065326D01*
X0254752Y0065280D01*
X0254735Y0065235D01*
X0254715Y0065191D01*
X0254691Y0065149D01*
X0254665Y0065109D01*
X0254635Y0065071D01*
X0254602Y0065035D01*
X0254566Y0065002D01*
X0254528Y0064972D01*
X0254488Y0064946D01*
X0254446Y0064922D01*
X0254402Y0064902D01*
X0254357Y0064885D01*
X0254311Y0064872D01*
X0254263Y0064863D01*
X0254215Y0064857D01*
X0254167Y0064855D01*
X0253906Y0064855D01*
X0253906Y0064856D02*
X0253858Y0064854D01*
X0253810Y0064848D01*
X0253762Y0064839D01*
X0253716Y0064826D01*
X0253671Y0064809D01*
X0253627Y0064789D01*
X0253585Y0064765D01*
X0253545Y0064739D01*
X0253507Y0064709D01*
X0253471Y0064676D01*
X0253438Y0064640D01*
X0253408Y0064602D01*
X0253382Y0064562D01*
X0253358Y0064520D01*
X0253338Y0064476D01*
X0253321Y0064431D01*
X0253308Y0064385D01*
X0253299Y0064337D01*
X0253293Y0064289D01*
X0253291Y0064241D01*
X0253291Y0064233D01*
X0253293Y0064185D01*
X0253299Y0064137D01*
X0253308Y0064089D01*
X0253321Y0064043D01*
X0253338Y0063998D01*
X0253358Y0063954D01*
X0253382Y0063912D01*
X0253408Y0063872D01*
X0253438Y0063834D01*
X0253471Y0063798D01*
X0253507Y0063765D01*
X0253545Y0063735D01*
X0253585Y0063709D01*
X0253627Y0063685D01*
X0253671Y0063665D01*
X0253716Y0063648D01*
X0253762Y0063635D01*
X0253810Y0063626D01*
X0253858Y0063620D01*
X0253906Y0063618D01*
X0254167Y0063618D01*
X0254215Y0063616D01*
X0254263Y0063610D01*
X0254311Y0063601D01*
X0254357Y0063588D01*
X0254402Y0063571D01*
X0254446Y0063551D01*
X0254488Y0063527D01*
X0254528Y0063501D01*
X0254566Y0063471D01*
X0254602Y0063438D01*
X0254635Y0063402D01*
X0254665Y0063364D01*
X0254691Y0063324D01*
X0254715Y0063282D01*
X0254735Y0063238D01*
X0254752Y0063193D01*
X0254765Y0063147D01*
X0254774Y0063099D01*
X0254780Y0063051D01*
X0254782Y0063003D01*
X0255486Y0062998D02*
X0255486Y0072078D01*
X0255488Y0072134D01*
X0255494Y0072189D01*
X0255503Y0072244D01*
X0255516Y0072298D01*
X0255533Y0072351D01*
X0255553Y0072402D01*
X0255577Y0072452D01*
X0255605Y0072501D01*
X0255635Y0072547D01*
X0255669Y0072592D01*
X0255705Y0072634D01*
X0255744Y0072673D01*
X0255786Y0072709D01*
X0255831Y0072743D01*
X0255877Y0072773D01*
X0255926Y0072801D01*
X0255976Y0072825D01*
X0256027Y0072845D01*
X0256080Y0072862D01*
X0256134Y0072875D01*
X0256189Y0072884D01*
X0256244Y0072890D01*
X0256300Y0072892D01*
X0255486Y0073596D02*
X0257797Y0073596D01*
X0257518Y0075057D02*
X0255528Y0075057D01*
X0255724Y0075762D02*
X0257264Y0075762D01*
X0257518Y0075057D02*
X0257583Y0075059D01*
X0257648Y0075065D01*
X0257712Y0075074D01*
X0257776Y0075087D01*
X0257838Y0075104D01*
X0257900Y0075124D01*
X0257960Y0075148D01*
X0258019Y0075176D01*
X0258077Y0075207D01*
X0258132Y0075241D01*
X0258185Y0075278D01*
X0258236Y0075318D01*
X0258285Y0075362D01*
X0258330Y0075407D01*
X0258374Y0075456D01*
X0258414Y0075507D01*
X0258451Y0075560D01*
X0258485Y0075616D01*
X0258516Y0075673D01*
X0258544Y0075732D01*
X0258568Y0075792D01*
X0258588Y0075854D01*
X0258605Y0075916D01*
X0258618Y0075980D01*
X0258627Y0076044D01*
X0258633Y0076109D01*
X0258635Y0076174D01*
X0257931Y0076429D02*
X0257933Y0076489D01*
X0257938Y0076548D01*
X0257948Y0076607D01*
X0257961Y0076665D01*
X0257977Y0076722D01*
X0257998Y0076778D01*
X0258021Y0076833D01*
X0258048Y0076886D01*
X0258079Y0076937D01*
X0258112Y0076987D01*
X0258149Y0077034D01*
X0258188Y0077079D01*
X0258230Y0077121D01*
X0258275Y0077160D01*
X0258322Y0077197D01*
X0258372Y0077230D01*
X0258423Y0077261D01*
X0258476Y0077288D01*
X0258531Y0077311D01*
X0258587Y0077332D01*
X0258644Y0077348D01*
X0258702Y0077361D01*
X0258761Y0077371D01*
X0258820Y0077376D01*
X0258880Y0077378D01*
X0260483Y0077378D01*
X0260356Y0076671D02*
X0259133Y0076671D01*
X0259090Y0076669D01*
X0259047Y0076663D01*
X0259004Y0076654D01*
X0258963Y0076641D01*
X0258923Y0076624D01*
X0258885Y0076604D01*
X0258848Y0076581D01*
X0258814Y0076555D01*
X0258782Y0076525D01*
X0258752Y0076493D01*
X0258726Y0076459D01*
X0258703Y0076423D01*
X0258683Y0076384D01*
X0258666Y0076344D01*
X0258653Y0076303D01*
X0258644Y0076260D01*
X0258638Y0076217D01*
X0258636Y0076174D01*
X0257931Y0076429D02*
X0257929Y0076379D01*
X0257924Y0076330D01*
X0257914Y0076281D01*
X0257901Y0076232D01*
X0257885Y0076185D01*
X0257865Y0076140D01*
X0257842Y0076096D01*
X0257815Y0076053D01*
X0257785Y0076013D01*
X0257753Y0075975D01*
X0257718Y0075940D01*
X0257680Y0075908D01*
X0257640Y0075878D01*
X0257598Y0075851D01*
X0257553Y0075828D01*
X0257508Y0075808D01*
X0257461Y0075792D01*
X0257412Y0075779D01*
X0257363Y0075769D01*
X0257314Y0075764D01*
X0257264Y0075762D01*
X0255724Y0075762D02*
X0255682Y0075764D01*
X0255640Y0075769D01*
X0255598Y0075779D01*
X0255558Y0075791D01*
X0255519Y0075808D01*
X0255481Y0075827D01*
X0255445Y0075850D01*
X0255412Y0075876D01*
X0255380Y0075904D01*
X0255352Y0075936D01*
X0255326Y0075969D01*
X0255303Y0076005D01*
X0255284Y0076043D01*
X0255267Y0076082D01*
X0255255Y0076122D01*
X0255245Y0076164D01*
X0255240Y0076206D01*
X0255238Y0076248D01*
X0254509Y0076076D02*
X0254511Y0076014D01*
X0254516Y0075953D01*
X0254526Y0075892D01*
X0254539Y0075832D01*
X0254555Y0075773D01*
X0254575Y0075715D01*
X0254599Y0075658D01*
X0254626Y0075602D01*
X0254656Y0075549D01*
X0254689Y0075497D01*
X0254726Y0075448D01*
X0254765Y0075400D01*
X0254807Y0075355D01*
X0254852Y0075313D01*
X0254900Y0075274D01*
X0254949Y0075237D01*
X0255001Y0075204D01*
X0255054Y0075174D01*
X0255110Y0075147D01*
X0255167Y0075123D01*
X0255225Y0075103D01*
X0255284Y0075087D01*
X0255344Y0075074D01*
X0255405Y0075064D01*
X0255466Y0075059D01*
X0255528Y0075057D01*
X0255239Y0076248D02*
X0255237Y0076311D01*
X0255232Y0076374D01*
X0255222Y0076437D01*
X0255210Y0076499D01*
X0255193Y0076560D01*
X0255173Y0076620D01*
X0255150Y0076679D01*
X0255123Y0076737D01*
X0255093Y0076793D01*
X0255060Y0076846D01*
X0255024Y0076898D01*
X0254984Y0076948D01*
X0254942Y0076995D01*
X0254897Y0077040D01*
X0254850Y0077082D01*
X0254800Y0077122D01*
X0254748Y0077158D01*
X0254695Y0077191D01*
X0254639Y0077221D01*
X0254581Y0077248D01*
X0254522Y0077271D01*
X0254462Y0077291D01*
X0254401Y0077308D01*
X0254339Y0077320D01*
X0254276Y0077330D01*
X0254213Y0077335D01*
X0254150Y0077337D01*
X0254150Y0077336D02*
X0252359Y0077336D01*
X0252459Y0076632D02*
X0253953Y0076632D01*
X0253999Y0076630D01*
X0254045Y0076624D01*
X0254089Y0076615D01*
X0254134Y0076602D01*
X0254176Y0076585D01*
X0254218Y0076565D01*
X0254257Y0076541D01*
X0254295Y0076515D01*
X0254330Y0076485D01*
X0254362Y0076453D01*
X0254392Y0076418D01*
X0254418Y0076380D01*
X0254442Y0076341D01*
X0254462Y0076299D01*
X0254479Y0076257D01*
X0254492Y0076212D01*
X0254501Y0076168D01*
X0254507Y0076122D01*
X0254509Y0076076D01*
X0252459Y0076632D02*
X0252409Y0076630D01*
X0252359Y0076624D01*
X0252309Y0076615D01*
X0252260Y0076602D01*
X0252213Y0076585D01*
X0252167Y0076565D01*
X0252122Y0076542D01*
X0252079Y0076515D01*
X0252039Y0076485D01*
X0252001Y0076452D01*
X0251965Y0076416D01*
X0251932Y0076378D01*
X0251902Y0076338D01*
X0251875Y0076295D01*
X0251852Y0076250D01*
X0251832Y0076204D01*
X0251815Y0076157D01*
X0251802Y0076108D01*
X0251793Y0076058D01*
X0251787Y0076008D01*
X0251785Y0075958D01*
X0251785Y0065008D01*
X0251081Y0065057D02*
X0251081Y0066018D01*
X0251079Y0066066D01*
X0251073Y0066114D01*
X0251064Y0066162D01*
X0251051Y0066208D01*
X0251034Y0066253D01*
X0251014Y0066297D01*
X0250990Y0066339D01*
X0250964Y0066379D01*
X0250934Y0066417D01*
X0250901Y0066453D01*
X0250865Y0066486D01*
X0250827Y0066516D01*
X0250787Y0066542D01*
X0250745Y0066566D01*
X0250701Y0066586D01*
X0250656Y0066603D01*
X0250610Y0066616D01*
X0250562Y0066625D01*
X0250514Y0066631D01*
X0250466Y0066633D01*
X0249809Y0066633D01*
X0249761Y0066635D01*
X0249713Y0066641D01*
X0249665Y0066650D01*
X0249619Y0066663D01*
X0249574Y0066680D01*
X0249530Y0066700D01*
X0249488Y0066724D01*
X0249448Y0066750D01*
X0249410Y0066780D01*
X0249374Y0066813D01*
X0249341Y0066849D01*
X0249311Y0066887D01*
X0249285Y0066927D01*
X0249261Y0066969D01*
X0249241Y0067013D01*
X0249224Y0067058D01*
X0249211Y0067104D01*
X0249202Y0067152D01*
X0249196Y0067200D01*
X0249194Y0067248D01*
X0249194Y0067375D01*
X0249196Y0067423D01*
X0249202Y0067471D01*
X0249211Y0067519D01*
X0249224Y0067565D01*
X0249241Y0067610D01*
X0249261Y0067654D01*
X0249285Y0067696D01*
X0249311Y0067736D01*
X0249341Y0067774D01*
X0249374Y0067810D01*
X0249410Y0067843D01*
X0249448Y0067873D01*
X0249488Y0067899D01*
X0249530Y0067923D01*
X0249574Y0067943D01*
X0249619Y0067960D01*
X0249665Y0067973D01*
X0249713Y0067982D01*
X0249761Y0067988D01*
X0249809Y0067990D01*
X0250466Y0067990D01*
X0250514Y0067992D01*
X0250562Y0067998D01*
X0250610Y0068007D01*
X0250656Y0068020D01*
X0250701Y0068037D01*
X0250745Y0068057D01*
X0250787Y0068081D01*
X0250827Y0068107D01*
X0250865Y0068137D01*
X0250901Y0068170D01*
X0250934Y0068206D01*
X0250964Y0068244D01*
X0250990Y0068284D01*
X0251014Y0068326D01*
X0251034Y0068370D01*
X0251051Y0068415D01*
X0251064Y0068461D01*
X0251073Y0068509D01*
X0251079Y0068557D01*
X0251081Y0068605D01*
X0251081Y0068732D01*
X0251079Y0068780D01*
X0251073Y0068828D01*
X0251064Y0068876D01*
X0251051Y0068922D01*
X0251034Y0068967D01*
X0251014Y0069011D01*
X0250990Y0069053D01*
X0250964Y0069093D01*
X0250934Y0069131D01*
X0250901Y0069167D01*
X0250865Y0069200D01*
X0250827Y0069230D01*
X0250787Y0069256D01*
X0250745Y0069280D01*
X0250701Y0069300D01*
X0250656Y0069317D01*
X0250610Y0069330D01*
X0250562Y0069339D01*
X0250514Y0069345D01*
X0250466Y0069347D01*
X0249809Y0069347D01*
X0249809Y0069346D02*
X0249761Y0069348D01*
X0249713Y0069354D01*
X0249665Y0069363D01*
X0249619Y0069376D01*
X0249574Y0069393D01*
X0249530Y0069413D01*
X0249488Y0069437D01*
X0249448Y0069463D01*
X0249410Y0069493D01*
X0249374Y0069526D01*
X0249341Y0069562D01*
X0249311Y0069600D01*
X0249285Y0069640D01*
X0249261Y0069682D01*
X0249241Y0069726D01*
X0249224Y0069771D01*
X0249211Y0069817D01*
X0249202Y0069865D01*
X0249196Y0069913D01*
X0249194Y0069961D01*
X0249194Y0070089D01*
X0249196Y0070137D01*
X0249202Y0070185D01*
X0249211Y0070233D01*
X0249224Y0070279D01*
X0249241Y0070324D01*
X0249261Y0070368D01*
X0249285Y0070410D01*
X0249311Y0070450D01*
X0249341Y0070488D01*
X0249374Y0070524D01*
X0249410Y0070557D01*
X0249448Y0070587D01*
X0249488Y0070613D01*
X0249530Y0070637D01*
X0249574Y0070657D01*
X0249619Y0070674D01*
X0249665Y0070687D01*
X0249713Y0070696D01*
X0249761Y0070702D01*
X0249809Y0070704D01*
X0249809Y0070703D02*
X0250466Y0070703D01*
X0250514Y0070705D01*
X0250562Y0070711D01*
X0250610Y0070720D01*
X0250656Y0070733D01*
X0250701Y0070750D01*
X0250745Y0070770D01*
X0250787Y0070794D01*
X0250827Y0070820D01*
X0250865Y0070850D01*
X0250901Y0070883D01*
X0250934Y0070919D01*
X0250964Y0070957D01*
X0250990Y0070997D01*
X0251014Y0071039D01*
X0251034Y0071083D01*
X0251051Y0071128D01*
X0251064Y0071174D01*
X0251073Y0071222D01*
X0251079Y0071270D01*
X0251081Y0071318D01*
X0251081Y0071445D01*
X0251079Y0071493D01*
X0251073Y0071541D01*
X0251064Y0071589D01*
X0251051Y0071635D01*
X0251034Y0071680D01*
X0251014Y0071724D01*
X0250990Y0071766D01*
X0250964Y0071806D01*
X0250934Y0071844D01*
X0250901Y0071880D01*
X0250865Y0071913D01*
X0250827Y0071943D01*
X0250787Y0071969D01*
X0250745Y0071993D01*
X0250701Y0072013D01*
X0250656Y0072030D01*
X0250610Y0072043D01*
X0250562Y0072052D01*
X0250514Y0072058D01*
X0250466Y0072060D01*
X0249809Y0072060D01*
X0249761Y0072062D01*
X0249713Y0072068D01*
X0249665Y0072077D01*
X0249619Y0072090D01*
X0249574Y0072107D01*
X0249530Y0072127D01*
X0249488Y0072151D01*
X0249448Y0072177D01*
X0249410Y0072207D01*
X0249374Y0072240D01*
X0249341Y0072276D01*
X0249311Y0072314D01*
X0249285Y0072354D01*
X0249261Y0072396D01*
X0249241Y0072440D01*
X0249224Y0072485D01*
X0249211Y0072531D01*
X0249202Y0072579D01*
X0249196Y0072627D01*
X0249194Y0072675D01*
X0249194Y0072802D01*
X0249196Y0072850D01*
X0249202Y0072898D01*
X0249211Y0072946D01*
X0249224Y0072992D01*
X0249241Y0073037D01*
X0249261Y0073081D01*
X0249285Y0073123D01*
X0249311Y0073163D01*
X0249341Y0073201D01*
X0249374Y0073237D01*
X0249410Y0073270D01*
X0249448Y0073300D01*
X0249488Y0073326D01*
X0249530Y0073350D01*
X0249574Y0073370D01*
X0249619Y0073387D01*
X0249665Y0073400D01*
X0249713Y0073409D01*
X0249761Y0073415D01*
X0249809Y0073417D01*
X0250466Y0073417D01*
X0250466Y0073416D02*
X0250514Y0073418D01*
X0250562Y0073424D01*
X0250610Y0073433D01*
X0250656Y0073446D01*
X0250701Y0073463D01*
X0250745Y0073483D01*
X0250787Y0073507D01*
X0250827Y0073533D01*
X0250865Y0073563D01*
X0250901Y0073596D01*
X0250934Y0073632D01*
X0250964Y0073670D01*
X0250990Y0073710D01*
X0251014Y0073752D01*
X0251034Y0073796D01*
X0251051Y0073841D01*
X0251064Y0073887D01*
X0251073Y0073935D01*
X0251079Y0073983D01*
X0251081Y0074031D01*
X0251081Y0076059D01*
X0251083Y0076128D01*
X0251088Y0076197D01*
X0251098Y0076266D01*
X0251111Y0076334D01*
X0251128Y0076401D01*
X0251148Y0076467D01*
X0251172Y0076532D01*
X0251199Y0076596D01*
X0251230Y0076658D01*
X0251264Y0076718D01*
X0251301Y0076776D01*
X0251342Y0076832D01*
X0251385Y0076886D01*
X0251431Y0076938D01*
X0251480Y0076987D01*
X0251532Y0077033D01*
X0251586Y0077076D01*
X0251642Y0077117D01*
X0251700Y0077154D01*
X0251760Y0077188D01*
X0251822Y0077219D01*
X0251886Y0077246D01*
X0251951Y0077270D01*
X0252017Y0077290D01*
X0252084Y0077307D01*
X0252152Y0077320D01*
X0252221Y0077330D01*
X0252290Y0077335D01*
X0252359Y0077337D01*
X0257797Y0073596D02*
X0257881Y0073594D01*
X0257965Y0073588D01*
X0258049Y0073579D01*
X0258132Y0073565D01*
X0258214Y0073548D01*
X0258296Y0073526D01*
X0258376Y0073501D01*
X0258456Y0073473D01*
X0258533Y0073441D01*
X0258610Y0073405D01*
X0258684Y0073366D01*
X0258757Y0073323D01*
X0258827Y0073277D01*
X0258896Y0073228D01*
X0258962Y0073175D01*
X0259025Y0073120D01*
X0259086Y0073062D01*
X0259144Y0073001D01*
X0259199Y0072938D01*
X0259252Y0072872D01*
X0259301Y0072803D01*
X0259347Y0072733D01*
X0259390Y0072660D01*
X0259429Y0072586D01*
X0259465Y0072509D01*
X0259497Y0072432D01*
X0259525Y0072352D01*
X0259550Y0072272D01*
X0259572Y0072190D01*
X0259589Y0072108D01*
X0259603Y0072025D01*
X0259612Y0071941D01*
X0259618Y0071857D01*
X0259620Y0071773D01*
X0261236Y0075791D02*
X0261234Y0075849D01*
X0261228Y0075906D01*
X0261219Y0075963D01*
X0261206Y0076019D01*
X0261189Y0076074D01*
X0261169Y0076128D01*
X0261145Y0076180D01*
X0261118Y0076231D01*
X0261088Y0076280D01*
X0261054Y0076327D01*
X0261018Y0076371D01*
X0260978Y0076413D01*
X0260936Y0076453D01*
X0260892Y0076489D01*
X0260845Y0076523D01*
X0260796Y0076553D01*
X0260745Y0076580D01*
X0260693Y0076604D01*
X0260639Y0076624D01*
X0260584Y0076641D01*
X0260528Y0076654D01*
X0260471Y0076663D01*
X0260414Y0076669D01*
X0260356Y0076671D01*
X0260482Y0077377D02*
X0260560Y0077375D01*
X0260638Y0077368D01*
X0260715Y0077358D01*
X0260792Y0077344D01*
X0260868Y0077326D01*
X0260943Y0077304D01*
X0261016Y0077279D01*
X0261088Y0077250D01*
X0261159Y0077217D01*
X0261228Y0077181D01*
X0261295Y0077141D01*
X0261360Y0077098D01*
X0261423Y0077052D01*
X0261483Y0077003D01*
X0261541Y0076951D01*
X0261596Y0076896D01*
X0261649Y0076838D01*
X0261698Y0076777D01*
X0261744Y0076715D01*
X0261787Y0076650D01*
X0261827Y0076582D01*
X0261863Y0076514D01*
X0261896Y0076443D01*
X0261925Y0076370D01*
X0261950Y0076297D01*
X0261972Y0076222D01*
X0261990Y0076146D01*
X0262004Y0076069D01*
X0262014Y0075992D01*
X0262021Y0075915D01*
X0262023Y0075837D01*
X0254782Y0063003D02*
X0254780Y0062947D01*
X0254774Y0062891D01*
X0254765Y0062835D01*
X0254751Y0062780D01*
X0254734Y0062727D01*
X0254714Y0062674D01*
X0254690Y0062623D01*
X0254662Y0062574D01*
X0254631Y0062527D01*
X0254597Y0062482D01*
X0254560Y0062440D01*
X0254520Y0062400D01*
X0254478Y0062363D01*
X0254433Y0062329D01*
X0254386Y0062298D01*
X0254337Y0062270D01*
X0254286Y0062246D01*
X0254233Y0062226D01*
X0254180Y0062209D01*
X0254125Y0062195D01*
X0254069Y0062186D01*
X0254013Y0062180D01*
X0253957Y0062178D01*
X0253957Y0062179D02*
X0243097Y0062179D01*
X0242964Y0061475D02*
X0253963Y0061475D01*
X0254040Y0061477D01*
X0254117Y0061483D01*
X0254194Y0061493D01*
X0254270Y0061506D01*
X0254345Y0061524D01*
X0254419Y0061545D01*
X0254492Y0061570D01*
X0254564Y0061598D01*
X0254634Y0061631D01*
X0254702Y0061666D01*
X0254769Y0061706D01*
X0254833Y0061748D01*
X0254895Y0061794D01*
X0254955Y0061842D01*
X0255012Y0061894D01*
X0255067Y0061949D01*
X0255119Y0062006D01*
X0255167Y0062066D01*
X0255213Y0062128D01*
X0255255Y0062192D01*
X0255295Y0062259D01*
X0255330Y0062327D01*
X0255363Y0062397D01*
X0255391Y0062469D01*
X0255416Y0062542D01*
X0255437Y0062616D01*
X0255455Y0062691D01*
X0255468Y0062767D01*
X0255478Y0062844D01*
X0255484Y0062921D01*
X0255486Y0062998D01*
X0258359Y0059817D02*
X0258428Y0059819D01*
X0258498Y0059825D01*
X0258566Y0059834D01*
X0258634Y0059848D01*
X0258702Y0059865D01*
X0258768Y0059886D01*
X0258833Y0059911D01*
X0258896Y0059940D01*
X0258958Y0059971D01*
X0259018Y0060007D01*
X0259075Y0060045D01*
X0259131Y0060087D01*
X0259184Y0060132D01*
X0259234Y0060180D01*
X0259234Y0060179D02*
X0260331Y0061276D01*
X0260611Y0059587D02*
X0260554Y0059532D01*
X0260493Y0059480D01*
X0260431Y0059431D01*
X0260366Y0059385D01*
X0260298Y0059343D01*
X0260229Y0059303D01*
X0260158Y0059268D01*
X0260085Y0059235D01*
X0260011Y0059207D01*
X0259936Y0059182D01*
X0259859Y0059161D01*
X0259781Y0059143D01*
X0259703Y0059130D01*
X0259624Y0059120D01*
X0259545Y0059114D01*
X0259465Y0059112D01*
X0240132Y0059112D01*
X0240210Y0059817D02*
X0258359Y0059817D01*
X0260611Y0059587D02*
X0262299Y0061276D01*
X0262457Y0057693D02*
X0261246Y0056482D01*
X0260843Y0056315D02*
X0259858Y0056315D01*
X0259459Y0056480D02*
X0259349Y0056590D01*
X0259458Y0056480D02*
X0259491Y0056450D01*
X0259526Y0056423D01*
X0259563Y0056398D01*
X0259601Y0056377D01*
X0259642Y0056358D01*
X0259683Y0056343D01*
X0259726Y0056331D01*
X0259770Y0056322D01*
X0259814Y0056317D01*
X0259858Y0056315D01*
X0260843Y0056315D02*
X0260888Y0056317D01*
X0260932Y0056322D01*
X0260976Y0056331D01*
X0261019Y0056343D01*
X0261061Y0056358D01*
X0261102Y0056377D01*
X0261141Y0056399D01*
X0261178Y0056424D01*
X0261213Y0056452D01*
X0261246Y0056482D01*
X0260409Y0057693D02*
X0259937Y0057693D01*
X0259817Y0057573D01*
X0229152Y0057573D01*
X0226352Y0060372D01*
X0226352Y0066215D01*
X0226757Y0067192D02*
X0227033Y0067469D01*
X0226757Y0067193D02*
X0226707Y0067140D01*
X0226660Y0067085D01*
X0226616Y0067028D01*
X0226575Y0066968D01*
X0226537Y0066907D01*
X0226503Y0066843D01*
X0226472Y0066778D01*
X0226444Y0066711D01*
X0226420Y0066642D01*
X0226399Y0066573D01*
X0226382Y0066503D01*
X0226369Y0066431D01*
X0226360Y0066360D01*
X0226354Y0066287D01*
X0226352Y0066215D01*
X0228756Y0065010D02*
X0228756Y0063205D01*
X0229543Y0063680D02*
X0229543Y0064895D01*
X0228756Y0065010D02*
X0228758Y0065080D01*
X0228763Y0065150D01*
X0228773Y0065220D01*
X0228785Y0065289D01*
X0228802Y0065358D01*
X0228822Y0065425D01*
X0228845Y0065492D01*
X0228872Y0065557D01*
X0228902Y0065620D01*
X0228936Y0065682D01*
X0228973Y0065742D01*
X0229013Y0065800D01*
X0229056Y0065856D01*
X0229101Y0065909D01*
X0229150Y0065960D01*
X0229201Y0066009D01*
X0229254Y0066054D01*
X0229310Y0066097D01*
X0229368Y0066137D01*
X0229428Y0066174D01*
X0229490Y0066208D01*
X0229553Y0066238D01*
X0229618Y0066265D01*
X0229685Y0066288D01*
X0229752Y0066308D01*
X0229821Y0066325D01*
X0229890Y0066337D01*
X0229960Y0066347D01*
X0230030Y0066352D01*
X0230100Y0066354D01*
X0230146Y0066356D01*
X0230193Y0066362D01*
X0230238Y0066371D01*
X0230283Y0066385D01*
X0230326Y0066401D01*
X0230368Y0066422D01*
X0230408Y0066446D01*
X0230446Y0066473D01*
X0230481Y0066503D01*
X0230514Y0066536D01*
X0230544Y0066571D01*
X0230571Y0066609D01*
X0230595Y0066649D01*
X0230616Y0066691D01*
X0230632Y0066734D01*
X0230646Y0066779D01*
X0230655Y0066824D01*
X0230661Y0066871D01*
X0230663Y0066917D01*
X0230663Y0068936D01*
X0229533Y0070065D01*
X0231864Y0067215D02*
X0231862Y0067137D01*
X0231857Y0067058D01*
X0231847Y0066980D01*
X0231834Y0066903D01*
X0231818Y0066826D01*
X0231797Y0066750D01*
X0231773Y0066676D01*
X0231746Y0066602D01*
X0231715Y0066530D01*
X0231681Y0066459D01*
X0231643Y0066391D01*
X0231602Y0066323D01*
X0231558Y0066258D01*
X0231511Y0066196D01*
X0231461Y0066135D01*
X0231408Y0066077D01*
X0231353Y0066022D01*
X0231295Y0065969D01*
X0231234Y0065919D01*
X0231172Y0065872D01*
X0231107Y0065828D01*
X0231040Y0065787D01*
X0230971Y0065749D01*
X0230900Y0065715D01*
X0230828Y0065684D01*
X0230754Y0065657D01*
X0230680Y0065633D01*
X0230604Y0065612D01*
X0230527Y0065596D01*
X0230450Y0065583D01*
X0230372Y0065573D01*
X0230293Y0065568D01*
X0230215Y0065566D01*
X0230215Y0065567D02*
X0230165Y0065565D01*
X0230115Y0065559D01*
X0230065Y0065550D01*
X0230017Y0065537D01*
X0229969Y0065521D01*
X0229923Y0065500D01*
X0229879Y0065477D01*
X0229836Y0065450D01*
X0229796Y0065420D01*
X0229758Y0065388D01*
X0229722Y0065352D01*
X0229690Y0065314D01*
X0229660Y0065274D01*
X0229633Y0065231D01*
X0229610Y0065187D01*
X0229589Y0065141D01*
X0229573Y0065093D01*
X0229560Y0065045D01*
X0229551Y0064995D01*
X0229545Y0064945D01*
X0229543Y0064895D01*
X0229543Y0063680D02*
X0229545Y0063630D01*
X0229551Y0063580D01*
X0229560Y0063530D01*
X0229573Y0063482D01*
X0229589Y0063434D01*
X0229610Y0063388D01*
X0229633Y0063344D01*
X0229660Y0063301D01*
X0229690Y0063261D01*
X0229722Y0063223D01*
X0229758Y0063187D01*
X0229796Y0063155D01*
X0229836Y0063125D01*
X0229879Y0063098D01*
X0229923Y0063075D01*
X0229969Y0063054D01*
X0230017Y0063038D01*
X0230065Y0063025D01*
X0230115Y0063016D01*
X0230165Y0063010D01*
X0230215Y0063008D01*
X0237024Y0063008D01*
X0237024Y0062220D02*
X0236646Y0062220D01*
X0236646Y0062221D02*
X0236595Y0062219D01*
X0236544Y0062214D01*
X0236493Y0062205D01*
X0236443Y0062192D01*
X0236395Y0062176D01*
X0236347Y0062156D01*
X0236301Y0062133D01*
X0236257Y0062107D01*
X0236215Y0062078D01*
X0236175Y0062045D01*
X0236138Y0062010D01*
X0236103Y0061973D01*
X0236070Y0061933D01*
X0236041Y0061891D01*
X0236015Y0061847D01*
X0235992Y0061801D01*
X0235972Y0061753D01*
X0235956Y0061705D01*
X0235943Y0061655D01*
X0235934Y0061604D01*
X0235929Y0061553D01*
X0235927Y0061502D01*
X0235928Y0061502D02*
X0235928Y0060997D01*
X0235926Y0060946D01*
X0235921Y0060895D01*
X0235912Y0060844D01*
X0235899Y0060794D01*
X0235883Y0060746D01*
X0235863Y0060698D01*
X0235840Y0060652D01*
X0235814Y0060608D01*
X0235785Y0060566D01*
X0235752Y0060526D01*
X0235717Y0060489D01*
X0235680Y0060454D01*
X0235640Y0060421D01*
X0235598Y0060392D01*
X0235554Y0060366D01*
X0235508Y0060343D01*
X0235460Y0060323D01*
X0235412Y0060307D01*
X0235362Y0060294D01*
X0235311Y0060285D01*
X0235260Y0060280D01*
X0235209Y0060278D01*
X0235209Y0060279D02*
X0234823Y0060279D01*
X0234823Y0060278D02*
X0234772Y0060280D01*
X0234721Y0060285D01*
X0234670Y0060294D01*
X0234620Y0060307D01*
X0234572Y0060323D01*
X0234524Y0060343D01*
X0234478Y0060366D01*
X0234434Y0060392D01*
X0234392Y0060421D01*
X0234352Y0060454D01*
X0234315Y0060489D01*
X0234280Y0060526D01*
X0234247Y0060566D01*
X0234218Y0060608D01*
X0234192Y0060652D01*
X0234169Y0060698D01*
X0234149Y0060746D01*
X0234133Y0060794D01*
X0234120Y0060844D01*
X0234111Y0060895D01*
X0234106Y0060946D01*
X0234104Y0060997D01*
X0234105Y0060997D02*
X0234105Y0061502D01*
X0234103Y0061553D01*
X0234098Y0061604D01*
X0234089Y0061655D01*
X0234076Y0061705D01*
X0234060Y0061753D01*
X0234040Y0061801D01*
X0234017Y0061847D01*
X0233991Y0061891D01*
X0233962Y0061933D01*
X0233929Y0061973D01*
X0233894Y0062010D01*
X0233857Y0062045D01*
X0233817Y0062078D01*
X0233775Y0062107D01*
X0233731Y0062133D01*
X0233685Y0062156D01*
X0233637Y0062176D01*
X0233589Y0062192D01*
X0233539Y0062205D01*
X0233488Y0062214D01*
X0233437Y0062219D01*
X0233386Y0062221D01*
X0233386Y0062220D02*
X0233000Y0062220D01*
X0233000Y0062221D02*
X0232949Y0062219D01*
X0232898Y0062214D01*
X0232847Y0062205D01*
X0232797Y0062192D01*
X0232749Y0062176D01*
X0232701Y0062156D01*
X0232655Y0062133D01*
X0232611Y0062107D01*
X0232569Y0062078D01*
X0232529Y0062045D01*
X0232492Y0062010D01*
X0232457Y0061973D01*
X0232424Y0061933D01*
X0232395Y0061891D01*
X0232369Y0061847D01*
X0232346Y0061801D01*
X0232326Y0061753D01*
X0232310Y0061705D01*
X0232297Y0061655D01*
X0232288Y0061604D01*
X0232283Y0061553D01*
X0232281Y0061502D01*
X0232282Y0061502D02*
X0232282Y0060997D01*
X0232280Y0060946D01*
X0232275Y0060895D01*
X0232266Y0060844D01*
X0232253Y0060794D01*
X0232237Y0060746D01*
X0232217Y0060698D01*
X0232194Y0060652D01*
X0232168Y0060608D01*
X0232139Y0060566D01*
X0232106Y0060526D01*
X0232071Y0060489D01*
X0232034Y0060454D01*
X0231994Y0060421D01*
X0231952Y0060392D01*
X0231908Y0060366D01*
X0231862Y0060343D01*
X0231814Y0060323D01*
X0231766Y0060307D01*
X0231716Y0060294D01*
X0231665Y0060285D01*
X0231614Y0060280D01*
X0231563Y0060278D01*
X0231563Y0060279D02*
X0231177Y0060279D01*
X0231177Y0060278D02*
X0231126Y0060280D01*
X0231075Y0060285D01*
X0231024Y0060294D01*
X0230974Y0060307D01*
X0230926Y0060323D01*
X0230878Y0060343D01*
X0230832Y0060366D01*
X0230788Y0060392D01*
X0230746Y0060421D01*
X0230706Y0060454D01*
X0230669Y0060489D01*
X0230634Y0060526D01*
X0230601Y0060566D01*
X0230572Y0060608D01*
X0230546Y0060652D01*
X0230523Y0060698D01*
X0230503Y0060746D01*
X0230487Y0060794D01*
X0230474Y0060844D01*
X0230465Y0060895D01*
X0230460Y0060946D01*
X0230458Y0060997D01*
X0230459Y0060997D02*
X0230459Y0061502D01*
X0230457Y0061553D01*
X0230452Y0061604D01*
X0230443Y0061655D01*
X0230430Y0061705D01*
X0230414Y0061753D01*
X0230394Y0061801D01*
X0230371Y0061847D01*
X0230345Y0061891D01*
X0230316Y0061933D01*
X0230283Y0061973D01*
X0230248Y0062010D01*
X0230211Y0062045D01*
X0230171Y0062078D01*
X0230129Y0062107D01*
X0230085Y0062133D01*
X0230039Y0062156D01*
X0229991Y0062176D01*
X0229943Y0062192D01*
X0229893Y0062205D01*
X0229842Y0062214D01*
X0229791Y0062219D01*
X0229740Y0062221D01*
X0229678Y0062223D01*
X0229617Y0062229D01*
X0229556Y0062238D01*
X0229495Y0062252D01*
X0229436Y0062269D01*
X0229378Y0062290D01*
X0229321Y0062315D01*
X0229266Y0062343D01*
X0229213Y0062374D01*
X0229162Y0062409D01*
X0229113Y0062447D01*
X0229066Y0062488D01*
X0229023Y0062531D01*
X0228982Y0062578D01*
X0228944Y0062627D01*
X0228909Y0062678D01*
X0228878Y0062731D01*
X0228850Y0062786D01*
X0228825Y0062843D01*
X0228804Y0062901D01*
X0228787Y0062960D01*
X0228773Y0063021D01*
X0228764Y0063082D01*
X0228758Y0063143D01*
X0228756Y0063205D01*
X0225648Y0060014D02*
X0225648Y0068951D01*
X0224533Y0070065D01*
X0231864Y0067405D02*
X0232033Y0067654D01*
X0231864Y0067405D02*
X0231864Y0067215D01*
X0237026Y0066669D02*
X0237026Y0068402D01*
X0237033Y0067937D01*
X0238404Y0067595D02*
X0238402Y0067545D01*
X0238397Y0067495D01*
X0238388Y0067446D01*
X0238376Y0067398D01*
X0238360Y0067350D01*
X0238341Y0067304D01*
X0238318Y0067259D01*
X0238293Y0067216D01*
X0238264Y0067175D01*
X0238233Y0067136D01*
X0238199Y0067099D01*
X0238066Y0066777D02*
X0238066Y0066669D01*
X0238190Y0066369D02*
X0241873Y0062686D01*
X0241355Y0062141D02*
X0237167Y0066330D01*
X0237138Y0066360D01*
X0237113Y0066394D01*
X0237090Y0066429D01*
X0237071Y0066466D01*
X0237055Y0066505D01*
X0237042Y0066545D01*
X0237033Y0066586D01*
X0237028Y0066627D01*
X0237026Y0066669D01*
X0238066Y0066669D02*
X0238068Y0066632D01*
X0238072Y0066595D01*
X0238080Y0066559D01*
X0238092Y0066524D01*
X0238106Y0066489D01*
X0238123Y0066457D01*
X0238143Y0066425D01*
X0238165Y0066396D01*
X0238190Y0066368D01*
X0238066Y0066777D02*
X0238068Y0066817D01*
X0238073Y0066856D01*
X0238081Y0066895D01*
X0238093Y0066932D01*
X0238109Y0066969D01*
X0238127Y0067004D01*
X0238148Y0067037D01*
X0238172Y0067069D01*
X0238199Y0067098D01*
X0238404Y0067595D02*
X0238404Y0068936D01*
X0239533Y0070065D01*
X0243362Y0068894D02*
X0244533Y0070065D01*
X0243362Y0068894D02*
X0243362Y0067560D01*
X0243364Y0067518D01*
X0243369Y0067476D01*
X0243377Y0067435D01*
X0243388Y0067395D01*
X0243403Y0067355D01*
X0243420Y0067317D01*
X0243441Y0067280D01*
X0243464Y0067246D01*
X0243490Y0067213D01*
X0243519Y0067182D01*
X0243617Y0066945D02*
X0243617Y0066466D01*
X0243794Y0066038D02*
X0244869Y0064964D01*
X0244396Y0064440D02*
X0242033Y0066803D01*
X0243519Y0067182D02*
X0243541Y0067158D01*
X0243561Y0067131D01*
X0243577Y0067103D01*
X0243591Y0067073D01*
X0243603Y0067042D01*
X0243611Y0067010D01*
X0243615Y0066978D01*
X0243617Y0066945D01*
X0243617Y0066466D02*
X0243619Y0066419D01*
X0243624Y0066371D01*
X0243634Y0066325D01*
X0243647Y0066279D01*
X0243663Y0066234D01*
X0243683Y0066191D01*
X0243706Y0066150D01*
X0243733Y0066110D01*
X0243762Y0066073D01*
X0243794Y0066038D01*
X0244397Y0064440D02*
X0244462Y0064378D01*
X0244529Y0064319D01*
X0244600Y0064262D01*
X0244672Y0064209D01*
X0244747Y0064159D01*
X0244823Y0064113D01*
X0244902Y0064070D01*
X0244983Y0064030D01*
X0245065Y0063994D01*
X0245149Y0063961D01*
X0245234Y0063932D01*
X0245320Y0063907D01*
X0245407Y0063886D01*
X0245495Y0063868D01*
X0245584Y0063855D01*
X0245674Y0063845D01*
X0245763Y0063839D01*
X0245853Y0063837D01*
X0250614Y0063837D01*
X0250565Y0064541D02*
X0245889Y0064541D01*
X0245813Y0064543D01*
X0245738Y0064549D01*
X0245663Y0064559D01*
X0245589Y0064573D01*
X0245516Y0064590D01*
X0245443Y0064612D01*
X0245372Y0064637D01*
X0245302Y0064666D01*
X0245234Y0064698D01*
X0245168Y0064734D01*
X0245103Y0064774D01*
X0245041Y0064817D01*
X0244981Y0064863D01*
X0244923Y0064912D01*
X0244869Y0064964D01*
X0243097Y0062179D02*
X0243017Y0062181D01*
X0242937Y0062186D01*
X0242858Y0062196D01*
X0242779Y0062208D01*
X0242701Y0062225D01*
X0242623Y0062245D01*
X0242547Y0062269D01*
X0242472Y0062296D01*
X0242398Y0062326D01*
X0242325Y0062360D01*
X0242255Y0062398D01*
X0242186Y0062438D01*
X0242119Y0062482D01*
X0242054Y0062529D01*
X0241991Y0062578D01*
X0241931Y0062631D01*
X0241873Y0062686D01*
X0241355Y0062141D02*
X0241423Y0062075D01*
X0241493Y0062013D01*
X0241566Y0061954D01*
X0241641Y0061898D01*
X0241719Y0061845D01*
X0241799Y0061795D01*
X0241881Y0061748D01*
X0241964Y0061705D01*
X0242050Y0061666D01*
X0242137Y0061630D01*
X0242225Y0061597D01*
X0242315Y0061569D01*
X0242405Y0061544D01*
X0242497Y0061522D01*
X0242589Y0061505D01*
X0242682Y0061491D01*
X0242776Y0061482D01*
X0242870Y0061476D01*
X0242964Y0061474D01*
X0240210Y0059817D02*
X0240136Y0059819D01*
X0240062Y0059825D01*
X0239989Y0059834D01*
X0239916Y0059848D01*
X0239844Y0059865D01*
X0239773Y0059886D01*
X0239703Y0059911D01*
X0239635Y0059939D01*
X0239568Y0059971D01*
X0239503Y0060006D01*
X0239440Y0060045D01*
X0239379Y0060087D01*
X0239320Y0060132D01*
X0239264Y0060180D01*
X0239210Y0060231D01*
X0239159Y0060285D01*
X0239111Y0060341D01*
X0239066Y0060400D01*
X0239024Y0060461D01*
X0238985Y0060524D01*
X0238950Y0060589D01*
X0238918Y0060656D01*
X0238890Y0060724D01*
X0238865Y0060794D01*
X0238844Y0060865D01*
X0238827Y0060937D01*
X0238813Y0061010D01*
X0238804Y0061083D01*
X0238798Y0061157D01*
X0238796Y0061231D01*
X0238795Y0061231D02*
X0238795Y0061236D01*
X0238008Y0061236D02*
X0238010Y0061146D01*
X0238016Y0061056D01*
X0238025Y0060966D01*
X0238039Y0060877D01*
X0238056Y0060789D01*
X0238077Y0060701D01*
X0238101Y0060614D01*
X0238129Y0060528D01*
X0238161Y0060444D01*
X0238197Y0060361D01*
X0238235Y0060280D01*
X0238278Y0060200D01*
X0238323Y0060122D01*
X0238372Y0060047D01*
X0238424Y0059973D01*
X0238479Y0059902D01*
X0238538Y0059833D01*
X0238599Y0059766D01*
X0238662Y0059703D01*
X0238729Y0059642D01*
X0238798Y0059583D01*
X0238869Y0059528D01*
X0238943Y0059476D01*
X0239018Y0059427D01*
X0239096Y0059382D01*
X0239176Y0059339D01*
X0239257Y0059301D01*
X0239340Y0059265D01*
X0239424Y0059233D01*
X0239510Y0059205D01*
X0239597Y0059181D01*
X0239685Y0059160D01*
X0239773Y0059143D01*
X0239862Y0059129D01*
X0239952Y0059120D01*
X0240042Y0059114D01*
X0240132Y0059112D01*
X0238796Y0061236D02*
X0238794Y0061318D01*
X0238788Y0061399D01*
X0238779Y0061481D01*
X0238766Y0061562D01*
X0238749Y0061642D01*
X0238728Y0061721D01*
X0238704Y0061799D01*
X0238676Y0061876D01*
X0238645Y0061952D01*
X0238610Y0062026D01*
X0238572Y0062098D01*
X0238531Y0062169D01*
X0238486Y0062237D01*
X0238438Y0062304D01*
X0238387Y0062368D01*
X0238334Y0062430D01*
X0238277Y0062489D01*
X0238218Y0062546D01*
X0238156Y0062599D01*
X0238092Y0062650D01*
X0238025Y0062698D01*
X0237957Y0062743D01*
X0237886Y0062784D01*
X0237814Y0062822D01*
X0237740Y0062857D01*
X0237664Y0062888D01*
X0237587Y0062916D01*
X0237509Y0062940D01*
X0237430Y0062961D01*
X0237350Y0062978D01*
X0237269Y0062991D01*
X0237187Y0063000D01*
X0237106Y0063006D01*
X0237024Y0063008D01*
X0237024Y0062220D02*
X0237086Y0062218D01*
X0237147Y0062212D01*
X0237208Y0062203D01*
X0237269Y0062189D01*
X0237328Y0062172D01*
X0237386Y0062151D01*
X0237443Y0062126D01*
X0237498Y0062098D01*
X0237551Y0062067D01*
X0237602Y0062032D01*
X0237651Y0061994D01*
X0237698Y0061953D01*
X0237741Y0061910D01*
X0237782Y0061863D01*
X0237820Y0061814D01*
X0237855Y0061763D01*
X0237886Y0061710D01*
X0237914Y0061655D01*
X0237939Y0061598D01*
X0237960Y0061540D01*
X0237977Y0061481D01*
X0237991Y0061420D01*
X0238000Y0061359D01*
X0238006Y0061298D01*
X0238008Y0061236D01*
X0228793Y0056868D02*
X0225648Y0060014D01*
X0228793Y0056868D02*
X0258677Y0056868D01*
X0258734Y0056866D01*
X0258792Y0056861D01*
X0258848Y0056852D01*
X0258904Y0056840D01*
X0258960Y0056825D01*
X0259014Y0056806D01*
X0259067Y0056784D01*
X0259118Y0056759D01*
X0259168Y0056731D01*
X0259217Y0056700D01*
X0259263Y0056666D01*
X0259307Y0056629D01*
X0259349Y0056590D01*
X0251785Y0065008D02*
X0251783Y0064942D01*
X0251778Y0064877D01*
X0251768Y0064812D01*
X0251756Y0064747D01*
X0251739Y0064684D01*
X0251719Y0064621D01*
X0251696Y0064560D01*
X0251669Y0064500D01*
X0251639Y0064442D01*
X0251606Y0064385D01*
X0251569Y0064330D01*
X0251530Y0064278D01*
X0251487Y0064228D01*
X0251442Y0064180D01*
X0251394Y0064135D01*
X0251344Y0064092D01*
X0251292Y0064053D01*
X0251237Y0064016D01*
X0251180Y0063983D01*
X0251122Y0063953D01*
X0251062Y0063926D01*
X0251001Y0063903D01*
X0250938Y0063883D01*
X0250875Y0063866D01*
X0250810Y0063854D01*
X0250745Y0063844D01*
X0250680Y0063839D01*
X0250614Y0063837D01*
X0250565Y0064541D02*
X0250608Y0064543D01*
X0250650Y0064548D01*
X0250692Y0064557D01*
X0250733Y0064569D01*
X0250772Y0064584D01*
X0250811Y0064603D01*
X0250847Y0064625D01*
X0250882Y0064650D01*
X0250914Y0064677D01*
X0250945Y0064708D01*
X0250972Y0064740D01*
X0250997Y0064775D01*
X0251019Y0064811D01*
X0251038Y0064850D01*
X0251053Y0064889D01*
X0251065Y0064930D01*
X0251074Y0064972D01*
X0251079Y0065014D01*
X0251081Y0065057D01*
X0270488Y0051000D02*
X0270488Y0050606D01*
X0305338Y0106913D02*
X0307890Y0109465D01*
X0307890Y0112220D01*
X0311827Y0116157D01*
X0305528Y0124425D02*
X0307102Y0126000D01*
X0239533Y0194533D02*
X0236551Y0191551D01*
X0239533Y0194533D02*
X0243264Y0194533D01*
X0238598Y0199622D02*
X0236630Y0197654D01*
X0213795Y0197654D01*
X0211827Y0199622D01*
X0211827Y0218126D01*
X0205724Y0224228D01*
X0128559Y0224228D01*
X0110252Y0242535D01*
X0096079Y0242535D01*
X0094052Y0240508D01*
X0088343Y0240508D01*
X0086316Y0242535D01*
X0085711Y0242535D01*
X0080462Y0242535D01*
X0076262Y0242535D02*
X0073792Y0245005D01*
X0071455Y0245005D01*
X0070776Y0245685D01*
X0070291Y0245685D01*
X0071276Y0248244D02*
X0075672Y0248244D01*
X0075672Y0248245D02*
X0075718Y0248243D01*
X0075764Y0248238D01*
X0075810Y0248229D01*
X0075855Y0248216D01*
X0075898Y0248200D01*
X0075940Y0248181D01*
X0075981Y0248158D01*
X0076019Y0248132D01*
X0076056Y0248103D01*
X0076090Y0248072D01*
X0076121Y0248038D01*
X0076150Y0248001D01*
X0076176Y0247963D01*
X0076199Y0247922D01*
X0076218Y0247880D01*
X0076234Y0247837D01*
X0076247Y0247792D01*
X0076256Y0247746D01*
X0076261Y0247700D01*
X0076263Y0247654D01*
X0080462Y0247654D02*
X0085711Y0247654D01*
X0085711Y0247916D01*
X0088205Y0250409D01*
X0092929Y0250409D01*
X0095685Y0247654D01*
X0110646Y0247654D01*
X0132890Y0225409D01*
X0206118Y0225409D01*
X0213008Y0218520D01*
X0213008Y0200803D01*
X0214976Y0198835D01*
X0235259Y0198835D01*
X0235843Y0199418D01*
X0216551Y0192818D02*
X0216551Y0191551D01*
X0216551Y0192818D02*
X0212804Y0196566D01*
X0209071Y0213795D02*
X0208021Y0214845D01*
X0206315Y0214845D01*
X0200803Y0214845D01*
X0198703Y0216945D02*
X0197654Y0216945D01*
X0198703Y0216945D02*
X0200803Y0219045D01*
X0203559Y0216945D02*
X0205659Y0219045D01*
X0206315Y0219045D01*
X0206315Y0226787D02*
X0136266Y0226787D01*
X0134298Y0228756D01*
X0134268Y0228756D01*
X0110646Y0252378D01*
X0080856Y0252378D01*
X0080462Y0252772D01*
X0076263Y0252772D02*
X0076261Y0252726D01*
X0076256Y0252680D01*
X0076247Y0252634D01*
X0076234Y0252589D01*
X0076218Y0252546D01*
X0076199Y0252504D01*
X0076176Y0252463D01*
X0076150Y0252425D01*
X0076121Y0252388D01*
X0076090Y0252354D01*
X0076056Y0252323D01*
X0076019Y0252294D01*
X0075981Y0252268D01*
X0075940Y0252245D01*
X0075898Y0252226D01*
X0075855Y0252210D01*
X0075810Y0252197D01*
X0075764Y0252188D01*
X0075718Y0252183D01*
X0075672Y0252181D01*
X0071276Y0252181D01*
X0080462Y0262614D02*
X0082562Y0260515D01*
X0085580Y0260515D01*
X0085711Y0260383D01*
X0085843Y0260515D01*
X0106840Y0260515D01*
X0126204Y0241150D01*
X0164760Y0241150D01*
X0168126Y0237784D01*
X0169091Y0236820D01*
X0210048Y0236820D01*
X0212220Y0238992D01*
X0210252Y0240567D02*
X0207496Y0237811D01*
X0170882Y0237811D01*
X0166157Y0242535D01*
X0163008Y0242535D01*
X0129150Y0242535D01*
X0129133Y0242519D01*
X0103920Y0267732D01*
X0095291Y0267732D01*
X0092870Y0265311D01*
X0088132Y0265311D01*
X0085711Y0267732D01*
X0080462Y0267732D01*
X0076262Y0267732D02*
X0076065Y0267929D01*
X0071276Y0267929D01*
X0070776Y0265370D02*
X0071455Y0264690D01*
X0074186Y0264690D01*
X0076262Y0262614D01*
X0080462Y0262614D02*
X0080593Y0262614D01*
X0085711Y0260383D02*
X0085711Y0257496D01*
X0089911Y0257496D02*
X0091486Y0259071D01*
X0093717Y0259071D01*
X0089911Y0262746D02*
X0090173Y0263008D01*
X0089911Y0267732D02*
X0089911Y0269832D01*
X0090173Y0270094D01*
X0080462Y0272850D02*
X0101591Y0272850D01*
X0130331Y0244110D01*
X0167142Y0244110D01*
X0172457Y0238795D01*
X0205724Y0238795D01*
X0209071Y0242142D01*
X0206118Y0245488D02*
X0205989Y0245617D01*
X0205989Y0249216D01*
X0201000Y0270094D02*
X0195291Y0270094D01*
X0195291Y0281315D01*
X0201000Y0281315D01*
X0201000Y0270094D01*
X0201000Y0270137D02*
X0195291Y0270137D01*
X0195291Y0270490D02*
X0201000Y0270490D01*
X0201000Y0270843D02*
X0195291Y0270843D01*
X0195291Y0271196D02*
X0201000Y0271196D01*
X0201000Y0271549D02*
X0195291Y0271549D01*
X0195291Y0271901D02*
X0201000Y0271901D01*
X0201000Y0272254D02*
X0195291Y0272254D01*
X0195291Y0272607D02*
X0201000Y0272607D01*
X0201000Y0272960D02*
X0195291Y0272960D01*
X0195291Y0273313D02*
X0201000Y0273313D01*
X0201000Y0273666D02*
X0195291Y0273666D01*
X0195291Y0274018D02*
X0201000Y0274018D01*
X0201000Y0274371D02*
X0195291Y0274371D01*
X0195291Y0274724D02*
X0201000Y0274724D01*
X0201000Y0275077D02*
X0195291Y0275077D01*
X0195291Y0275430D02*
X0201000Y0275430D01*
X0201000Y0275783D02*
X0195291Y0275783D01*
X0195291Y0276136D02*
X0201000Y0276136D01*
X0201000Y0276488D02*
X0195291Y0276488D01*
X0195291Y0276841D02*
X0201000Y0276841D01*
X0201000Y0277194D02*
X0195291Y0277194D01*
X0195291Y0277547D02*
X0201000Y0277547D01*
X0201000Y0277900D02*
X0195291Y0277900D01*
X0195291Y0278253D02*
X0201000Y0278253D01*
X0201000Y0278605D02*
X0195291Y0278605D01*
X0195291Y0278958D02*
X0201000Y0278958D01*
X0201000Y0279311D02*
X0195291Y0279311D01*
X0195291Y0279664D02*
X0201000Y0279664D01*
X0201000Y0280017D02*
X0195291Y0280017D01*
X0195291Y0280370D02*
X0201000Y0280370D01*
X0201000Y0280722D02*
X0195291Y0280722D01*
X0195291Y0281075D02*
X0201000Y0281075D01*
X0201000Y0282693D02*
X0203821Y0282693D01*
X0201000Y0282693D02*
X0199819Y0283874D01*
X0208021Y0282693D02*
X0209868Y0282693D01*
X0210055Y0282505D01*
X0241354Y0298441D02*
X0241354Y0301197D01*
X0242142Y0301984D01*
X0245685Y0276984D02*
X0247457Y0275213D01*
X0247457Y0268126D01*
X0239845Y0233874D02*
X0239845Y0233677D01*
X0214583Y0218520D02*
X0206315Y0226787D01*
X0171268Y0247656D02*
X0169093Y0245481D01*
X0156709Y0245481D01*
X0157496Y0238205D02*
X0161354Y0238205D01*
X0141000Y0238323D02*
X0138087Y0238323D01*
X0136630Y0239780D01*
X0135449Y0220094D02*
X0136236Y0219307D01*
X0135449Y0220094D02*
X0133087Y0220094D01*
X0112220Y0207496D02*
X0109071Y0204346D01*
X0107890Y0204346D01*
X0063795Y0183874D02*
X0063795Y0177575D01*
X0122457Y0168913D02*
X0123244Y0168913D01*
X0124819Y0170488D01*
X0150803Y0125606D02*
X0150803Y0119307D01*
X0149622Y0108677D02*
X0152378Y0108677D01*
X0152575Y0108480D01*
X0182348Y0106889D02*
X0182348Y0092487D01*
X0186236Y0092142D02*
X0186236Y0095423D01*
X0186498Y0095685D01*
X0186236Y0092142D02*
X0190173Y0088205D01*
X0196866Y0088205D01*
X0192929Y0095685D02*
X0190698Y0095685D01*
X0190698Y0100803D02*
X0193323Y0100803D01*
X0193454Y0103165D02*
X0190698Y0105921D01*
X0193454Y0103165D02*
X0194504Y0103165D01*
X0186498Y0100803D02*
X0186498Y0105921D01*
X0182348Y0106889D02*
X0186498Y0111039D01*
X0190698Y0111039D02*
X0190698Y0113270D01*
X0190567Y0113402D01*
X0186498Y0100803D02*
X0184661Y0100803D01*
X0183874Y0100016D01*
X0113795Y0092929D02*
X0112614Y0094110D01*
X0070094Y0071276D02*
X0067339Y0076000D01*
X0271669Y0219898D02*
X0271669Y0231118D01*
X0277378Y0231118D01*
X0277378Y0219898D01*
X0271669Y0219898D01*
X0271669Y0220034D02*
X0277378Y0220034D01*
X0277378Y0220387D02*
X0271669Y0220387D01*
X0271669Y0220739D02*
X0277378Y0220739D01*
X0277378Y0221092D02*
X0271669Y0221092D01*
X0271669Y0221445D02*
X0277378Y0221445D01*
X0277378Y0221798D02*
X0271669Y0221798D01*
X0271669Y0222151D02*
X0277378Y0222151D01*
X0277378Y0222504D02*
X0271669Y0222504D01*
X0271669Y0222856D02*
X0277378Y0222856D01*
X0277378Y0223209D02*
X0271669Y0223209D01*
X0271669Y0223562D02*
X0277378Y0223562D01*
X0277378Y0223915D02*
X0271669Y0223915D01*
X0271669Y0224268D02*
X0277378Y0224268D01*
X0277378Y0224621D02*
X0271669Y0224621D01*
X0271669Y0224973D02*
X0277378Y0224973D01*
X0277378Y0225326D02*
X0271669Y0225326D01*
X0271669Y0225679D02*
X0277378Y0225679D01*
X0277378Y0226032D02*
X0271669Y0226032D01*
X0271669Y0226385D02*
X0277378Y0226385D01*
X0277378Y0226738D02*
X0271669Y0226738D01*
X0271669Y0227091D02*
X0277378Y0227091D01*
X0277378Y0227443D02*
X0271669Y0227443D01*
X0271669Y0227796D02*
X0277378Y0227796D01*
X0277378Y0228149D02*
X0271669Y0228149D01*
X0271669Y0228502D02*
X0277378Y0228502D01*
X0277378Y0228855D02*
X0271669Y0228855D01*
X0271669Y0229208D02*
X0277378Y0229208D01*
X0277378Y0229560D02*
X0271669Y0229560D01*
X0271669Y0229913D02*
X0277378Y0229913D01*
X0277378Y0230266D02*
X0271669Y0230266D01*
X0271669Y0230619D02*
X0277378Y0230619D01*
X0277378Y0230972D02*
X0271669Y0230972D01*
X0271276Y0233283D02*
X0281053Y0233283D01*
X0281118Y0233218D01*
X0281118Y0229018D02*
X0286171Y0229018D01*
X0286236Y0228953D01*
X0144504Y0309071D02*
X0144504Y0314189D01*
X0076262Y0272850D02*
X0075278Y0271866D01*
X0071276Y0271866D01*
X0070776Y0265370D02*
X0070291Y0265370D01*
X0089911Y0247654D02*
X0089911Y0244504D01*
X0094504Y0244504D01*
X0089911Y0244504D02*
X0089911Y0243061D01*
X0089911Y0242535D01*
X0089780Y0242929D02*
X0089911Y0243061D01*
D45*
X0158480Y0262811D03*
X0183409Y0249748D03*
X0222457Y0239780D03*
X0234858Y0213205D03*
X0259485Y0198814D03*
X0276591Y0195911D03*
X0278362Y0163008D03*
X0185843Y0153559D03*
X0172850Y0153845D03*
X0174819Y0129937D03*
X0098047Y0167732D03*
X0261558Y0237785D03*
X0201394Y0291551D03*
X0203559Y0309465D03*
X0160646Y0307102D03*
D46*
X0197281Y0290195D02*
X0198827Y0290195D01*
X0197457Y0290370D02*
X0200213Y0290370D01*
X0201394Y0291551D01*
X0197457Y0290370D02*
X0197281Y0290195D01*
X0190760Y0256906D02*
X0189386Y0255531D01*
X0189386Y0245484D01*
X0189193Y0243323D01*
X0189185Y0245299D01*
X0264780Y0252628D02*
X0269951Y0247457D01*
X0283283Y0247457D01*
X0286236Y0244504D01*
X0286236Y0228953D01*
X0286236Y0201591D01*
X0280556Y0195911D01*
X0276591Y0195911D01*
X0266752Y0194701D02*
X0266752Y0201296D01*
X0266342Y0201706D01*
X0266342Y0203837D01*
X0266354Y0203849D01*
X0266354Y0207500D01*
X0267138Y0208283D01*
X0294311Y0240764D02*
X0294311Y0242925D01*
X0287417Y0249819D01*
X0278362Y0163008D02*
X0278362Y0149622D01*
X0268323Y0139583D01*
X0202575Y0139583D01*
X0192929Y0129937D01*
X0187943Y0129937D01*
X0183743Y0129937D02*
X0174819Y0129937D01*
X0174687Y0150409D02*
X0174687Y0152008D01*
X0172850Y0153845D01*
X0178887Y0150409D02*
X0182693Y0150409D01*
X0185843Y0153559D01*
D47*
X0145291Y0127969D03*
X0174557Y0080199D03*
X0320882Y0252783D03*
D48*
X0320882Y0300803D02*
X0322850Y0304740D01*
D49*
X0141354Y0238205D02*
X0141000Y0238323D01*
D50*
X0253165Y0274031D02*
X0254917Y0275783D01*
X0274167Y0275783D01*
X0284852Y0286469D01*
X0294271Y0286469D01*
X0301523Y0293721D01*
X0316079Y0293717D02*
X0322850Y0293717D01*
X0337406Y0279161D01*
X0341354Y0279161D01*
X0313795Y0274437D02*
X0313599Y0274241D01*
X0311039Y0274241D01*
D51*
X0239845Y0233677D02*
X0239845Y0229543D01*
X0228161Y0280724D02*
X0225016Y0280724D01*
X0222063Y0283677D01*
X0222063Y0290173D01*
X0163073Y0284990D02*
X0163073Y0283677D01*
X0163073Y0279346D01*
X0163073Y0284990D02*
X0161236Y0286827D01*
D52*
X0251104Y0279930D02*
X0251104Y0294694D01*
D53*
X0215764Y0263398D02*
X0214523Y0254146D01*
X0209593Y0249216D01*
X0205989Y0249216D01*
X0205977Y0249228D01*
X0204346Y0249228D01*
X0203760Y0249815D01*
X0203760Y0256906D01*
X0225028Y0256709D02*
X0225867Y0254885D01*
X0225867Y0249376D01*
X0230331Y0244912D01*
X0230331Y0239386D01*
X0168663Y0187811D02*
X0168663Y0184912D01*
X0162757Y0179006D01*
X0156852Y0173101D01*
X0154740Y0173101D01*
X0301523Y0293721D02*
X0301528Y0293717D01*
X0316079Y0293717D01*
D54*
X0109071Y0127050D02*
X0106944Y0129177D01*
X0105613Y0129177D01*
D55*
X0105863Y0131250D02*
X0104760Y0132353D01*
X0105863Y0131250D02*
X0109071Y0131250D01*
D56*
X0168126Y0178756D02*
X0168520Y0179150D01*
X0172063Y0179150D01*
X0204740Y0103559D02*
X0204740Y0101328D01*
X0203953Y0100541D01*
X0172457Y0064583D02*
X0169258Y0064583D01*
X0167994Y0065060D01*
X0167994Y0062924D02*
X0171585Y0059727D01*
X0172063Y0059727D01*
X0172063Y0063927D02*
X0172063Y0064189D01*
X0172457Y0064583D01*
X0172063Y0054084D02*
X0169439Y0054084D01*
X0168913Y0053953D01*
X0168126Y0051984D02*
X0170226Y0049884D01*
X0172063Y0049884D01*
X0190961Y0050409D02*
X0193061Y0052509D01*
X0194898Y0052509D01*
X0194898Y0048309D02*
X0194242Y0047654D01*
X0190961Y0047654D01*
M02*
