%
M48
M72
T01C0.00787
T02C0.01181
T03C0.01378
T04C0.01575
T05C0.02756
T06C0.02795
T07C0.03150
T08C0.05200
T09C0.07087
T10C0.09055
T11C0.10600
T12C0.10630
%
T01
X53559Y145094
X59858Y145094
X53559Y152969
X60843Y155921
X53559Y160843
X53559Y168717
X59465Y171866
X53559Y176591
X53559Y184465
X53559Y192339
X60646Y189583
X53559Y200213
X53559Y208087
X53559Y215961
X53559Y223835
X58677Y226197
X53559Y231709
X53559Y239583
X53559Y247457
X63795Y252969
X65370Y237614
X61433Y213992
X68520Y211236
X67732Y203362
X76394Y215567
X76394Y228559
X89386Y230921
X89780Y225803
X89386Y222260
X89386Y217929
X85055Y210449
X89386Y206906
X85449Y203362
X89386Y201197
X88992Y195882
X85055Y195488
X87417Y191551
X88992Y187614
X84661Y187614
X85449Y181315
X88047Y178717
X90173Y178559
X93158Y180284
X90961Y183283
X96866Y185646
X96079Y188431
X102929Y190370
X101591Y193126
X105843Y192929
X105821Y195542
X105613Y198271
X104760Y201448
X103545Y203362
X103559Y206118
X103559Y208480
X105821Y208453
X105907Y211711
X113008Y210055
X115370Y210055
X117732Y210843
X120820Y205752
X120402Y201957
X114189Y200213
X120882Y193771
X123182Y194728
X127119Y201054
X128362Y207299
X124374Y216440
X119898Y217929
X119910Y221032
X121607Y222287
X123327Y228111
X123182Y230500
X121669Y233369
X124819Y234465
X126394Y232890
X129543Y234465
X127969Y237220
X134465Y231906
X141276Y230291
X136630Y249031
X134661Y251000
X125213Y249031
X118913Y240370
X117339Y241945
X115764Y243520
X116551Y246669
X114976Y248638
X111827Y245094
X107496Y241157
X109465Y239583
X106709Y236827
X104740Y238008
X104740Y234858
X106709Y232496
X104346Y228165
X104346Y225409
X106709Y224255
X105134Y221607
X106709Y219504
X110646Y217535
X113333Y217604
X116157Y217535
X111433Y229740
X112614Y233493
X115370Y237614
X120488Y238795
X122457Y238008
X124031Y265173
X123244Y278165
X126787Y280134
X127181Y297850
X131906Y297850
X136236Y297850
X140567Y297850
X143323Y304543
X149228Y304543
X155134Y304543
X157496Y307299
X161039Y304543
X166945Y304543
X172850Y304543
X178756Y304543
X176000Y297850
X170094Y297850
X170882Y285646
X178362Y279346
X181906Y297850
X187811Y297850
X190567Y304543
X196472Y304543
X202378Y304543
X199622Y297850
X193717Y297850
X197654Y286039
X203559Y286039
X209071Y282890
X216748Y284268
X218913Y284268
X218913Y281118
X216748Y281118
X221276Y287220
X217339Y289583
X212614Y291945
X218126Y298244
X221866Y296866
X222654Y302181
X224937Y305764
X227969Y306512
X229150Y308087
X227969Y309465
X230331Y309661
X231512Y308087
X232496Y309661
X232496Y306512
X230331Y306512
X231709Y303559
X231315Y300409
X232102Y297063
X227181Y296276
X227181Y302378
X238756Y308402
X240094Y307024
X241945Y306118
X242142Y307890
X243217Y310345
X245094Y310449
X247966Y310259
X253362Y306315
X257843Y298436
X256315Y295488
X256315Y288992
X250409Y288992
X247063Y289189
X249819Y295685
X247410Y298554
X241052Y310345
X235449Y334661
X234465Y335843
X225213Y338402
X223638Y337614
X222063Y338598
X220488Y337811
X218520Y338008
X216551Y338008
X213795Y337614
X209858Y339976
X211433Y341945
X209858Y345882
X207496Y347850
X207496Y343913
X207496Y338402
X207102Y335646
X208677Y334071
X209858Y330921
X207693Y328953
X209661Y326984
X207496Y325409
X209071Y323047
X207299Y321472
X204346Y332496
X202378Y332496
X200213Y332496
X198244Y332496
X199622Y335646
X201591Y335843
X204150Y335843
X199819Y341354
X199819Y352969
X194495Y365379
X190370Y367732
X188402Y367732
X186433Y367732
X182299Y373047
X180724Y374622
X179150Y376197
X182299Y376197
X183874Y381709
X191748Y381709
X193717Y371079
X199622Y381709
X207496Y381709
X204740Y372654
X205921Y367929
X211827Y352781
X212614Y354543
X215764Y356118
X216945Y360055
X210055Y351600
X212811Y349819
X216945Y342339
X223244Y368717
X223244Y381709
X231118Y381709
X238992Y381709
X241354Y367535
X246866Y363205
X246182Y358473
X246182Y354733
X246472Y349819
X248441Y348638
X250803Y346669
X251197Y343913
X249228Y343913
X249228Y341945
X251591Y341945
X253165Y343126
X254346Y341945
X253559Y348953
X256025Y349024
X260946Y358867
X265867Y360048
X268328Y361328
X270493Y360934
X273244Y361236
X274425Y358087
X272167Y357981
X269608Y358178
X266852Y357391
X268328Y355422
X271182Y354831
X270198Y352371
X267737Y352371
X265671Y354044
X269608Y349713
X272457Y350213
X273249Y352666
X274234Y355028
X277339Y359228
X279543Y357693
X283087Y362024
X285055Y368323
X291315Y371269
X286236Y376197
X288992Y377991
X290567Y382496
X284268Y382102
X280631Y376288
X276394Y375016
X276906Y379937
X276787Y382890
X266551Y382890
X262614Y381709
X262257Y377415
X265370Y368717
X267732Y365567
X278165Y327181
X279465Y326000
X281000Y324701
X282417Y323165
X283795Y321984
X285055Y320724
X286433Y319425
X287850Y318008
X288992Y316748
X291748Y313992
X292535Y319110
X292535Y323835
X297260Y318717
X301197Y319504
X301197Y324622
X301197Y329346
X298441Y332102
X296866Y329346
X291354Y332496
X292142Y339189
X296079Y337614
X301197Y338008
X301984Y334071
X306315Y334465
X310252Y339189
X312220Y334071
X316157Y334071
X316551Y328165
X316945Y318717
X316945Y313598
X316157Y309268
X312220Y308874
X311039Y313205
X311433Y317142
X311433Y323835
X310646Y328953
X305921Y312220
X301000Y312220
X300882Y306748
X296276Y306551
X296472Y302575
X296472Y297850
X295291Y294701
X296315Y292929
X291748Y293520
X290173Y295488
X291748Y297850
X291354Y302575
X290567Y308874
X283298Y290582
X280331Y289976
X279937Y288008
X280127Y285444
X277961Y285641
X275993Y285837
X272457Y281709
X272457Y279740
X273638Y277772
X272063Y275409
X274031Y273441
X270488Y269898
X268913Y271866
X272850Y267611
X272260Y264386
X281118Y258874
X283480Y257299
X281512Y255331
X284661Y240370
X285449Y236433
X285055Y232890
X285843Y228165
X290961Y226984
X296079Y228953
X296866Y225016
X301197Y224622
X301591Y228953
X306315Y228953
X306315Y224622
X306315Y222260
X306315Y219110
X311433Y219110
X311827Y215173
X316157Y213598
X316551Y219110
X316157Y224228
X316157Y228953
X320882Y229740
X321079Y224228
X326197Y224425
X326197Y219504
X321276Y214189
X326197Y209268
X330724Y209268
X331315Y204346
X330921Y199425
X326000Y199228
X321276Y202575
X316551Y206118
X316157Y199031
X311433Y200606
X311827Y195094
X307102Y195094
X305921Y199031
X300803Y199031
X297260Y198638
X296079Y202969
X291354Y202969
X292142Y198638
X296472Y190370
X301197Y189189
X301591Y184858
X305921Y184071
X306315Y179740
X301984Y179740
X301197Y174622
X296472Y174228
X291748Y174228
X289386Y169898
X291748Y165173
X296079Y163992
X296079Y159268
X292535Y159661
X291354Y154150
X295902Y154012
X298835Y149425
X295685Y139583
X297260Y122260
X301197Y116354
X293323Y116354
X287811Y121472
X285843Y124622
X287024Y126591
X285843Y128559
X285843Y132496
X282693Y142732
X279543Y143126
X272850Y143520
X269307Y143520
X264780Y143913
X262890Y139819
X261512Y137457
X262299Y135094
X261512Y133126
X262299Y130370
X260331Y130370
X257890Y131315
X257299Y134661
X257417Y139504
X259583Y143795
X256433Y146551
X253283Y143402
X248835Y145882
X242339Y146669
X236827Y146669
X232102Y146669
X226984Y146669
X227033Y136563
X232033Y136748
X234228Y134346
X237033Y137031
X242033Y135897
X242457Y133362
X240291Y130291
X233283Y128165
X228559Y129740
X223047Y127181
X221472Y132693
X215449Y135843
X219780Y140961
X219504Y146276
X214386Y142929
X208205Y138913
X204346Y144307
X204346Y146872
X204346Y156512
X200803Y158480
X196866Y157299
X192929Y164780
X194898Y167929
X193323Y169898
X194504Y172260
X193183Y178165
X190567Y182496
X195291Y196276
X191748Y212811
X196472Y214780
X198441Y213598
X204740Y203756
X204740Y201394
X204740Y198638
X212220Y195488
X210646Y188008
X209071Y182496
X204740Y172654
X204740Y162811
X189386Y161630
X193323Y146276
X191748Y144701
X193520Y143913
X190173Y143126
X192929Y140370
X187417Y121866
X190961Y119504
X190961Y116748
X183874Y115961
X177575Y124622
X177575Y126984
X177969Y129740
X178584Y140542
X176959Y141773
X176959Y146498
X179372Y149597
X182348Y161581
X183874Y169110
X167994Y134154
X167994Y132019
X165370Y129346
X168913Y123047
X168126Y121079
X162614Y117142
X159858Y121472
X152772Y127378
X144898Y127378
X137024Y127378
X129150Y127378
X128362Y146866
X128165Y153559
X128165Y159268
X128362Y164780
X134268Y157890
X134268Y155921
X134661Y154034
X123638Y184071
X120813Y180065
X122149Y178730
X121376Y174005
X121669Y167535
X120094Y163992
X118520Y162024
X115130Y163051
X112614Y163205
X110646Y162811
X109858Y159465
X105528Y164976
X105724Y168323
X104891Y175409
X105196Y179319
X105331Y184858
X111108Y189258
X113076Y190045
X115357Y190050
X114976Y182890
X112024Y179711
X113552Y173441
X118913Y150409
X121276Y127378
X113402Y127378
X107102Y129346
X105528Y134465
X94898Y145094
X91354Y145094
X83480Y145094
X75606Y145094
X81315Y157102
X89307Y173402
X76000Y176984
X76000Y188402
X68126Y165567
X67339Y145094
X97654Y195931
X99622Y198244
X88205Y244701
X81118Y268323
X80724Y276197
X81118Y283283
X80724Y290764
X81118Y298244
X84661Y308087
X89386Y307693
X93717Y304937
X96866Y301394
X101197Y299031
X106315Y297850
X111039Y297850
X116945Y297850
X121669Y297850
X119701Y304543
X125606Y304543
X131512Y304543
X136630Y308874
X137417Y304543
X136236Y288402
X132299Y278953
X142142Y257693
X143717Y255724
X149622Y265567
X151984Y263992
X157102Y259268
X152378Y254924
X160449Y239976
X163992Y243520
X168126Y247850
X171079Y250803
X175606Y246669
X172457Y243520
X175803Y240370
X171472Y236039
X168126Y239189
X164583Y235646
X174498Y230206
X177181Y213205
X180724Y211630
X184268Y212417
X189386Y221866
X194110Y224622
X189347Y230935
X192535Y233677
X194432Y236039
X194504Y238402
X194110Y243520
X192535Y247850
X189780Y247457
X187417Y245094
X183480Y248244
X182299Y249819
X180927Y251191
X179592Y252526
X185055Y251787
X184268Y278559
X184268Y289583
X184661Y304543
X193717Y317535
X196079Y319504
X198047Y316354
X205528Y297850
X208283Y304543
X212220Y303362
X216551Y309071
X215370Y311630
X213402Y313205
X233480Y354937
X236045Y355816
X237718Y354339
X238899Y356308
X238800Y358473
X241261Y358867
X240867Y354733
X245685Y346079
X250611Y369694
X246079Y378953
X246866Y381709
X254740Y381709
X235848Y358375
X233289Y357784
X215370Y381709
X184479Y355513
X188598Y348638
X186236Y345882
X179937Y345882
X179937Y348638
X176591Y355724
X171079Y354543
X170094Y348244
X173638Y345882
X173244Y339189
X170291Y339386
X173638Y332890
X170094Y331315
X168126Y323047
X172457Y321079
X171268Y316751
X164189Y312811
X161433Y312417
X156709Y314576
X153559Y315961
X159465Y317535
X160835Y323835
X163167Y322888
X164189Y297850
X158283Y297850
X152378Y297850
X146472Y297850
X148047Y283677
X155921Y288795
X165764Y266748
X183480Y329740
X186236Y332890
X186236Y339189
X179937Y339189
X179937Y332890
X170801Y361155
X168913Y361433
X167142Y361433
X165173Y361433
X164976Y358677
X165173Y356906
X155134Y358480
X151984Y353559
X154937Y348441
X150016Y347457
X146669Y347063
X142535Y346276
X140370Y349622
X145882Y352181
X148047Y358087
X148441Y364386
X144898Y339583
X141354Y337614
X140567Y334071
X143323Y334071
X143323Y331315
X140567Y331315
X136630Y333677
X133480Y332102
X129543Y332102
X125606Y332102
X121669Y332102
X117732Y332102
X113795Y332102
X109858Y332496
X105921Y332102
X101984Y332102
X98047Y332102
X94110Y332102
X90173Y332102
X86236Y332102
X81906Y331709
X83087Y348244
X90961Y348244
X98835Y348244
X98047Y339189
X94110Y339189
X90173Y339189
X93717Y328165
X95476Y325016
X94504Y313598
X99622Y308087
X103165Y305724
X108283Y304543
X109071Y325016
X113795Y304543
X117339Y285252
X105528Y247850
X94504Y288795
X79543Y308874
X75213Y348244
X67339Y348244
X98047Y368323
X101197Y365567
X101197Y371866
X105528Y373047
X109858Y372654
X116945Y354543
X116945Y343126
X117732Y339189
X113795Y339189
X109858Y339189
X106315Y339189
X101984Y339189
X121669Y339189
X125606Y339189
X129543Y339189
X133874Y340370
X133087Y345488
X137811Y343913
X132693Y350606
X138205Y358087
X138205Y369898
X138598Y375016
X140173Y382890
X152378Y381709
X160252Y381709
X168126Y381709
X172850Y366945
X149622Y330921
X118126Y367535
X120094Y371079
X118126Y372654
X128362Y187220
X149622Y177772
X150016Y152969
X153461Y153264
X155921Y152575
X199622Y121079
X200409Y116354
X207496Y116354
X208087Y132102
X215291Y127496
X215370Y116354
X223244Y116354
X231118Y116354
X238992Y116354
X246866Y116354
X254740Y116354
X247260Y135331
X252509Y155435
X254740Y156906
X246472Y161498
X244504Y161498
X243323Y166748
X248441Y166748
X253165Y166748
X257890Y166748
X263008Y166748
X263008Y161630
X263008Y171866
X263008Y176591
X268126Y176197
X268126Y171866
X273638Y171866
X274425Y175016
X278756Y167142
X290567Y179740
X296079Y178953
X296079Y184465
X301984Y195488
X306315Y189583
X310646Y189583
X311827Y185252
X311827Y180134
X316945Y180134
X321472Y184465
X326000Y184858
X331118Y184268
X336236Y184465
X336236Y179346
X336236Y174622
X331512Y169898
X326000Y174425
X326000Y179543
X326394Y190370
X321276Y194504
X316551Y189583
X311827Y174228
X311827Y169898
X309071Y169504
X306709Y175016
X301413Y169484
X301591Y165173
X301591Y160843
X296079Y169110
X308677Y148244
X312811Y153835
X313008Y159268
X314583Y164780
X320882Y169898
X321079Y159465
X324228Y153992
X326984Y154346
X326394Y149425
X331315Y159268
X336236Y159661
X335843Y154543
X335843Y149425
X343756Y140803
X346866Y139189
X346866Y147063
X346866Y154937
X346827Y162575
X346866Y170685
X346866Y180528
X346866Y190370
X346866Y202181
X346866Y210055
X346866Y221866
X346866Y231709
X346866Y241551
X346866Y249425
X346866Y257299
X346866Y265173
X346866Y273047
X346866Y280921
X347654Y288795
X343323Y294307
X344110Y297063
X347654Y296669
X347654Y304543
X343717Y308874
X347654Y312417
X347654Y320291
X347654Y328165
X347654Y336039
X347654Y343913
X347654Y351787
X347654Y359661
X347654Y367535
X347654Y375409
X347654Y381709
X341354Y381709
X341354Y375016
X333480Y381709
X325606Y381709
X317732Y381709
X313008Y382102
X320882Y369898
X321276Y349031
X326394Y344307
X331118Y344307
X328362Y350213
X325606Y339189
X326000Y334465
X326000Y328953
X326394Y319110
X331512Y319504
X331118Y314386
X336236Y314386
X335843Y308874
X336236Y304150
X335843Y299425
X336630Y294701
X330724Y294307
X326000Y294701
X321276Y294307
X316551Y299031
X316551Y303756
X311827Y303362
X311039Y298638
X311827Y293520
X315764Y294307
X316945Y288402
X316945Y283677
X321276Y284465
X321669Y280528
X321669Y278165
X320882Y274228
X316551Y274228
X315764Y268717
X311039Y268717
X307102Y268323
X306709Y273441
X311039Y274622
X306315Y283283
X300803Y279346
X296079Y279346
X291748Y280134
X296472Y286827
X301591Y273441
X301197Y267535
X301197Y262811
X305921Y263205
X306709Y258480
X301197Y257299
X296472Y262024
X290961Y262024
X289386Y255331
X291354Y247850
X291354Y241945
X296472Y243126
X301591Y243126
X301591Y248244
X305921Y248638
X311039Y249425
X311039Y243520
X306709Y243520
X301197Y238008
X301197Y234071
X303953Y234071
X306315Y234465
X310252Y235252
X312220Y233677
X316551Y235646
X316945Y239976
X321276Y239386
X321079Y244110
X324425Y244701
X326787Y249031
X331118Y249228
X331315Y244701
X331315Y239386
X336236Y238795
X336236Y229346
X335843Y224622
X335843Y218323
X336039Y214386
X336236Y209465
X336236Y199425
X336236Y189976
X336630Y164780
X326197Y164189
X318520Y149425
X323047Y137811
X316551Y136039
X321276Y128559
X324819Y116354
X330331Y116354
X316945Y116354
X309071Y116354
X285449Y116354
X270488Y119701
X268402Y119425
X268126Y116354
X262614Y116354
X262457Y126787
X260409Y126787
X257890Y171866
X253165Y171866
X248441Y171866
X243323Y171866
X238205Y171866
X238205Y166748
X233087Y166748
X233087Y171866
X228362Y171866
X223244Y171866
X223244Y176591
X223244Y181709
X218126Y182102
X218126Y176591
X218126Y171866
X227969Y166748
X227969Y162024
X235055Y157102
X238467Y155435
X248047Y176984
X248047Y182102
X248047Y186433
X253165Y186433
X253165Y182102
X257496Y182102
X257890Y176984
X253165Y176984
X250803Y229346
X255134Y232890
X255134Y235646
X257890Y235646
X257890Y232890
X262614Y229346
X264189Y230528
X264976Y228559
X267339Y228559
X266945Y230528
X266945Y232496
X266945Y235252
X273638Y234465
X273638Y236827
X273244Y239976
X271276Y241145
X274031Y231315
X273355Y228362
X256709Y257299
X252772Y257299
X249622Y257299
X243264Y263627
X245291Y266354
X246006Y268720
X244635Y272522
X238598Y268717
X235843Y270481
X232693Y265173
X230331Y256906
X227181Y258087
X223244Y259661
X222063Y266748
X212804Y265660
X211827Y258087
X206315Y240370
X211433Y236433
X211433Y233677
X214189Y233677
X214189Y236433
X220488Y232102
X221276Y230134
X223244Y230134
X222850Y232102
X222850Y228165
X220488Y228165
X218913Y230134
X209465Y227378
X198835Y241945
X224031Y190370
X229150Y230528
X233480Y233677
X236236Y233677
X236236Y236827
X233480Y236827
X228756Y240370
X240909Y230134
X242535Y231709
X243323Y229740
X244898Y230921
X244898Y232890
X244504Y235646
X250409Y239976
X250480Y272528
X246859Y280955
X250409Y282693
X256315Y282890
X261111Y279144
X262811Y282693
X265442Y286625
X263008Y288992
X262811Y295488
X265835Y297648
X271276Y302378
X276000Y291347
X296079Y267535
X296472Y252181
X296101Y237220
X295685Y234071
X292142Y233677
X296472Y220291
X301197Y217142
X300425Y213614
X301197Y208874
X296472Y208087
X296472Y210843
X289767Y210843
X306315Y208874
X311039Y208874
X306709Y213598
X311039Y224622
X316945Y249425
X321276Y250213
X321276Y254937
X326394Y254150
X326394Y259268
X322063Y263598
X322063Y268717
X326394Y269504
X331118Y269110
X331118Y274228
X326000Y274228
X326787Y278953
X331118Y279346
X331118Y282496
X336236Y278953
X336236Y274622
X336630Y269110
X336236Y264386
X331118Y263205
X336236Y252969
X336236Y249031
X326000Y234268
X331118Y229346
X315764Y254543
X316157Y263205
X306315Y293126
X305921Y297457
X306315Y306906
X320882Y308480
X324031Y304481
X326101Y303116
X330331Y304150
X330724Y299425
X329937Y309268
X335449Y339189
X331512Y362811
X307102Y352181
X293323Y362024
X286630Y349031
X282693Y345882
X282693Y343126
X301984Y381709
X300016Y382890
X346866Y131315
X346866Y123835
X346079Y116354
X340567Y116354
T02
X261438Y363788
X251104Y363788
X251104Y349024
X236827Y295488
X283480Y373441
X160662Y345702
X121669Y262417
X115370Y263205
T03
X145291Y197063
X174557Y149294
X321276Y324634
T04
X320882Y319504
X315764Y339189
X316157Y344307
X311039Y344307
X306315Y344307
X303559Y351787
X298835Y351787
X296472Y344307
X291748Y349425
X310695Y351000
X330724Y330134
X330724Y324228
X335843Y319898
X335843Y334465
X340567Y365173
X274031Y163992
X274031Y159661
X274031Y154937
X278756Y154937
X283087Y154937
X276000Y143520
X266945Y146276
X272457Y117929
X283874Y118323
X217339Y157299
X213795Y157693
X209465Y157693
X216945Y161630
X216945Y164780
X205921Y185646
X207890Y191157
X206315Y196276
X194898Y183283
X191748Y191157
X180331Y162811
X178362Y177772
X171079Y185646
X167732Y180134
X174425Y165173
X166945Y162091
X166945Y151787
X170488Y151394
X171276Y147457
X181118Y133677
X181512Y121472
X191354Y134858
X201591Y133677
X204346Y141551
X178756Y189583
X167732Y197260
X170488Y210843
X166945Y211630
X174425Y210449
X166157Y223047
X161039Y226197
X151591Y243520
X146866Y249425
X150409Y252969
X154346Y256906
X160252Y260843
X168520Y260055
X166203Y277772
X178362Y254543
X183874Y243520
X179150Y230134
X182693Y224622
X190961Y240764
X194734Y268553
X200409Y274228
X206709Y273835
X209071Y278165
X209858Y286433
X221866Y273638
X237614Y304740
X222063Y359268
X213008Y359268
X216945Y371079
X192535Y290764
X192535Y280528
X161236Y355921
X146472Y323835
X144819Y318953
X150173Y315764
X153165Y290764
X140173Y290764
X136860Y283908
X133087Y267535
X127575Y261047
X112220Y268717
X110252Y263205
X112220Y276591
X98441Y289583
X134791Y199425
X134661Y175803
X145291Y177378
X149228Y173835
X148638Y165370
X150803Y194701
T05
X172850Y222939
X174819Y199031
X185843Y222654
X183409Y318842
X201394Y360646
X203559Y378559
X222457Y308874
X234858Y282299
X259485Y267908
X270488Y232102
X276591Y265005
X261558Y306880
X160646Y376197
X158874Y332299
X98047Y236827
T06
X224533Y144159
X224533Y139159
X229533Y139159
X229533Y144159
X234533Y144159
X234533Y139159
X239533Y139159
X239533Y144159
X244533Y144159
X244533Y139159
T07
X63283Y260173
X58283Y265173
X53283Y260173
X53283Y270173
X53283Y277890
X58283Y282890
X53283Y287890
X53283Y295606
X58283Y300606
X53283Y305606
X53283Y315291
X58283Y320291
X53283Y325291
X53283Y334976
X58283Y339976
X53283Y344976
X63283Y344976
X63283Y334976
X63283Y325291
X63283Y315291
X63283Y305606
X63283Y295606
X63283Y287890
X63283Y277890
X63283Y270173
T08
X304150Y356475
X316157Y142475
T09
X68520Y174622
X68520Y229740
T10
X78362Y239976
X78362Y164386
T11
X308157Y125425
X308157Y373425
T12
X93323Y357890
X93323Y135252
M30
