G75*
%MOIN*%
%OFA0B0*%
%FSLAX25Y25*%
%IPPOS*%
%LPD*%
%AMOC8*
5,1,8,0,0,1.08239X$1,22.5*
%
%ADD10C,0.04724*%
%ADD11R,0.03315X0.03015*%
%ADD12R,0.04115X0.06315*%
%ADD13R,0.03015X0.03315*%
%ADD14R,0.05115X0.07715*%
%ADD15R,0.07715X0.05115*%
%ADD16R,0.04515X0.03815*%
%ADD17R,0.03815X0.04515*%
%ADD18C,0.16063*%
%ADD19C,0.07402*%
%ADD20C,0.09370*%
%ADD21R,0.06614X0.03307*%
%ADD22R,0.11315X0.06815*%
%ADD23R,0.06315X0.04115*%
%ADD24C,0.05315*%
%ADD25C,0.10315*%
%ADD26R,0.04252X0.02480*%
%ADD27C,0.14915*%
%ADD28C,0.05515*%
%ADD29R,0.05039X0.01693*%
%ADD30R,0.03307X0.05315*%
%ADD31R,0.03465X0.01496*%
%ADD32R,0.03858X0.02677*%
%ADD33C,0.01083*%
%ADD34C,0.00709*%
%ADD35R,0.06815X0.11315*%
%ADD36R,0.06614X0.03858*%
%ADD37R,0.01299X0.02283*%
%ADD38R,0.04488X0.04488*%
%ADD39C,0.04488*%
D10*
X0053283Y0191079D03*
X0058283Y0196079D03*
X0063283Y0191079D03*
X0063283Y0201079D03*
X0063283Y0208795D03*
X0058283Y0213795D03*
X0053283Y0208795D03*
X0053283Y0201079D03*
X0053283Y0218795D03*
X0053283Y0226512D03*
X0058283Y0231512D03*
X0053283Y0236512D03*
X0063283Y0236512D03*
X0063283Y0246197D03*
X0058283Y0251197D03*
X0053283Y0246197D03*
X0053283Y0256197D03*
X0063283Y0256197D03*
X0063283Y0265882D03*
X0058283Y0270882D03*
X0053283Y0275882D03*
X0053283Y0265882D03*
X0063283Y0275882D03*
X0063283Y0226512D03*
X0063283Y0218795D03*
D11*
X0118520Y0195817D03*
X0118520Y0191617D03*
X0139780Y0213664D03*
X0139780Y0217864D03*
X0171381Y0254319D03*
X0171381Y0258519D03*
X0184359Y0257918D03*
X0184359Y0253718D03*
X0179150Y0282168D03*
X0174125Y0282175D03*
X0174125Y0286375D03*
X0179150Y0286368D03*
X0188591Y0285411D03*
X0188591Y0289611D03*
X0250803Y0236958D03*
X0250803Y0232758D03*
X0255724Y0232758D03*
X0255724Y0236958D03*
X0266748Y0235711D03*
X0266748Y0239911D03*
X0281118Y0233218D03*
X0281118Y0229018D03*
X0260843Y0207431D03*
X0260843Y0203231D03*
X0248047Y0204018D03*
X0248047Y0208218D03*
X0206315Y0214845D03*
X0206315Y0219045D03*
X0200803Y0219045D03*
X0200803Y0214845D03*
X0192535Y0214451D03*
X0192535Y0218651D03*
X0126000Y0158415D03*
X0126000Y0154215D03*
X0101197Y0155002D03*
X0101197Y0159202D03*
X0109071Y0131250D03*
X0109071Y0127050D03*
X0118520Y0127050D03*
X0118520Y0131250D03*
X0116945Y0103691D03*
X0108677Y0103691D03*
X0108677Y0099491D03*
X0116945Y0099491D03*
X0168520Y0089911D03*
X0168520Y0085711D03*
X0178362Y0101065D03*
X0178362Y0105265D03*
X0203953Y0100541D03*
X0203953Y0096341D03*
X0200016Y0072194D03*
X0200016Y0067994D03*
X0195685Y0067994D03*
X0195685Y0072194D03*
X0194898Y0052509D03*
X0194898Y0048309D03*
X0172063Y0049884D03*
X0172063Y0054084D03*
X0172063Y0059727D03*
X0172063Y0063927D03*
X0166945Y0145947D03*
X0166945Y0150147D03*
X0320882Y0242798D03*
X0320882Y0246998D03*
X0333737Y0259071D03*
X0333737Y0263271D03*
X0338735Y0255528D03*
X0338735Y0251328D03*
X0303559Y0275475D03*
X0298835Y0275475D03*
X0298835Y0279675D03*
X0303559Y0279675D03*
X0291354Y0300672D03*
X0291354Y0304872D03*
X0321276Y0222982D03*
X0321276Y0218782D03*
X0343323Y0218782D03*
X0343323Y0222982D03*
D12*
X0208053Y0199622D03*
X0199853Y0199622D03*
G36*
X0169440Y0188598D02*
X0172349Y0185689D01*
X0167886Y0181226D01*
X0164977Y0184135D01*
X0169440Y0188598D01*
G37*
G36*
X0163642Y0194396D02*
X0166551Y0191487D01*
X0162088Y0187024D01*
X0159179Y0189933D01*
X0163642Y0194396D01*
G37*
G36*
X0157736Y0188491D02*
X0160645Y0185582D01*
X0156182Y0181119D01*
X0153273Y0184028D01*
X0157736Y0188491D01*
G37*
G36*
X0163534Y0182692D02*
X0166443Y0179783D01*
X0161980Y0175320D01*
X0159071Y0178229D01*
X0163534Y0182692D01*
G37*
G36*
X0157629Y0176787D02*
X0160538Y0173878D01*
X0156075Y0169415D01*
X0153166Y0172324D01*
X0157629Y0176787D01*
G37*
G36*
X0151831Y0182585D02*
X0154740Y0179676D01*
X0150277Y0175213D01*
X0147368Y0178122D01*
X0151831Y0182585D01*
G37*
G36*
X0171168Y0166311D02*
X0168259Y0163402D01*
X0163796Y0167865D01*
X0166705Y0170774D01*
X0171168Y0166311D01*
G37*
G36*
X0165370Y0160513D02*
X0162461Y0157604D01*
X0157998Y0162067D01*
X0160907Y0164976D01*
X0165370Y0160513D01*
G37*
G36*
X0178864Y0163642D02*
X0181773Y0166551D01*
X0186236Y0162088D01*
X0183327Y0159179D01*
X0178864Y0163642D01*
G37*
G36*
X0184662Y0169440D02*
X0187571Y0172349D01*
X0192034Y0167886D01*
X0189125Y0164977D01*
X0184662Y0169440D01*
G37*
X0174194Y0136236D03*
X0165994Y0136236D03*
X0144273Y0134268D03*
X0136073Y0134268D03*
X0135680Y0101984D03*
X0143880Y0101984D03*
X0196309Y0108677D03*
X0204509Y0108677D03*
X0204116Y0122063D03*
X0195916Y0122063D03*
X0198827Y0290195D03*
X0207027Y0290195D03*
D13*
X0208021Y0282693D03*
X0203821Y0282693D03*
X0196801Y0270488D03*
X0192601Y0270488D03*
X0192601Y0265567D03*
X0196801Y0265567D03*
X0167259Y0266256D03*
X0163059Y0266256D03*
X0163066Y0270581D03*
X0167266Y0270581D03*
X0167273Y0275016D03*
X0163073Y0275016D03*
X0163073Y0279346D03*
X0167273Y0279346D03*
X0167273Y0283677D03*
X0163073Y0283677D03*
X0162876Y0261827D03*
X0167076Y0261827D03*
X0167076Y0257299D03*
X0162876Y0257299D03*
X0147549Y0246787D03*
X0143349Y0246787D03*
X0089911Y0247654D03*
X0085711Y0247654D03*
X0085711Y0242535D03*
X0089911Y0242535D03*
X0080462Y0242535D03*
X0076262Y0242535D03*
X0076262Y0247654D03*
X0080462Y0247654D03*
X0080462Y0252772D03*
X0076262Y0252772D03*
X0085711Y0257496D03*
X0089911Y0257496D03*
X0080462Y0262614D03*
X0076262Y0262614D03*
X0076262Y0267732D03*
X0080462Y0267732D03*
X0085711Y0267732D03*
X0089911Y0267732D03*
X0080462Y0272850D03*
X0076262Y0272850D03*
X0201459Y0209071D03*
X0205659Y0209071D03*
X0239451Y0206906D03*
X0243651Y0206906D03*
X0243651Y0211433D03*
X0239451Y0211433D03*
X0239845Y0216157D03*
X0244045Y0216157D03*
X0244045Y0220685D03*
X0239845Y0220685D03*
X0239845Y0225016D03*
X0244045Y0225016D03*
X0244045Y0229543D03*
X0239845Y0229543D03*
X0239845Y0233874D03*
X0244045Y0233874D03*
X0268585Y0220882D03*
X0272785Y0220882D03*
X0272785Y0215961D03*
X0268585Y0215961D03*
G36*
X0178398Y0177591D02*
X0180529Y0179722D01*
X0182872Y0177379D01*
X0180741Y0175248D01*
X0178398Y0177591D01*
G37*
G36*
X0175428Y0174621D02*
X0177559Y0176752D01*
X0179902Y0174409D01*
X0177771Y0172278D01*
X0175428Y0174621D01*
G37*
G36*
X0176590Y0161218D02*
X0178721Y0159087D01*
X0176378Y0156744D01*
X0174247Y0158875D01*
X0176590Y0161218D01*
G37*
G36*
X0179559Y0158248D02*
X0181690Y0156117D01*
X0179347Y0153774D01*
X0177216Y0155905D01*
X0179559Y0158248D01*
G37*
X0178887Y0150409D03*
X0174687Y0150409D03*
X0183743Y0129937D03*
X0187943Y0129937D03*
X0198309Y0115370D03*
X0202509Y0115370D03*
X0190698Y0111039D03*
X0186498Y0111039D03*
X0186498Y0105921D03*
X0190698Y0105921D03*
X0190698Y0100803D03*
X0186498Y0100803D03*
X0186498Y0095685D03*
X0190698Y0095685D03*
X0172982Y0100803D03*
X0168782Y0100803D03*
X0141880Y0108677D03*
X0137680Y0108677D03*
X0138073Y0126394D03*
X0142273Y0126394D03*
X0184530Y0065370D03*
X0188730Y0065370D03*
X0188730Y0060646D03*
X0184530Y0060646D03*
X0238467Y0090173D03*
X0242667Y0090173D03*
X0247522Y0090173D03*
X0251722Y0090173D03*
D14*
X0253752Y0194701D03*
X0266752Y0194701D03*
X0267138Y0208283D03*
X0280138Y0208283D03*
X0274429Y0228165D03*
X0261429Y0228165D03*
X0281311Y0240764D03*
X0294311Y0240764D03*
X0241161Y0280724D03*
X0228161Y0280724D03*
X0211634Y0300409D03*
X0198634Y0300409D03*
X0198051Y0277969D03*
X0185051Y0277969D03*
X0190760Y0256906D03*
X0203760Y0256906D03*
X0189193Y0243323D03*
X0176193Y0243323D03*
X0154146Y0254833D03*
X0141146Y0254833D03*
X0217728Y0204346D03*
X0230728Y0204346D03*
D15*
X0254543Y0246469D03*
X0254543Y0259469D03*
X0215764Y0263398D03*
X0215764Y0276398D03*
X0178165Y0297453D03*
X0178165Y0310453D03*
X0170882Y0120295D03*
X0170882Y0107295D03*
D16*
X0244898Y0246025D03*
X0244898Y0252825D03*
X0264780Y0252628D03*
X0264780Y0245828D03*
X0188598Y0295041D03*
X0188598Y0301841D03*
X0166846Y0303602D03*
X0166846Y0296802D03*
D17*
X0153310Y0262904D03*
X0146510Y0262904D03*
X0222600Y0212614D03*
X0229400Y0212614D03*
D18*
X0093323Y0066157D03*
X0093323Y0288795D03*
D19*
X0068520Y0160646D03*
X0068520Y0105528D03*
D20*
X0078362Y0095291D03*
X0078362Y0170882D03*
D21*
X0141354Y0238205D03*
X0161354Y0238205D03*
X0216551Y0191551D03*
X0236551Y0191551D03*
D22*
X0313795Y0274437D03*
X0313795Y0285437D03*
X0341354Y0290161D03*
X0341354Y0279161D03*
D23*
X0285055Y0295916D03*
X0285055Y0304116D03*
X0273638Y0251557D03*
X0273638Y0243357D03*
X0254346Y0211202D03*
X0254346Y0203002D03*
X0177575Y0251624D03*
X0177575Y0259824D03*
X0160646Y0152147D03*
X0160646Y0143947D03*
X0161827Y0092305D03*
X0161827Y0084105D03*
X0175213Y0084105D03*
X0175213Y0092305D03*
D24*
X0148047Y0169307D03*
X0138835Y0169524D03*
X0131787Y0169780D03*
X0124819Y0170488D03*
X0107890Y0204346D03*
X0133087Y0220094D03*
X0184268Y0220488D03*
X0206118Y0245488D03*
X0247457Y0268126D03*
X0242142Y0301984D03*
X0322850Y0304740D03*
X0326000Y0290961D03*
D25*
X0334661Y0305921D03*
X0144504Y0309071D03*
X0063795Y0177575D03*
X0150803Y0119307D03*
X0204346Y0154346D03*
X0070094Y0071276D03*
D26*
X0152575Y0101000D03*
X0152575Y0104740D03*
X0152575Y0108480D03*
X0163205Y0108480D03*
X0163205Y0101000D03*
D27*
X0308157Y0056331D03*
X0308157Y0304331D03*
D28*
X0304150Y0287381D03*
X0316157Y0073381D03*
D29*
X0320390Y0230035D03*
X0320390Y0232594D03*
X0320390Y0235154D03*
X0320390Y0237713D03*
X0343421Y0237713D03*
X0343421Y0235154D03*
X0343421Y0232594D03*
X0343421Y0230035D03*
D30*
X0334799Y0217378D03*
X0329799Y0217378D03*
X0329799Y0187378D03*
X0334799Y0187378D03*
D31*
X0071276Y0248244D03*
X0071276Y0250213D03*
X0071276Y0252181D03*
X0071276Y0254150D03*
X0071276Y0267929D03*
X0071276Y0269898D03*
X0071276Y0271866D03*
X0071276Y0273835D03*
D32*
X0070291Y0276394D03*
X0070291Y0265370D03*
X0070291Y0256709D03*
X0070291Y0245685D03*
D33*
X0325213Y0071669D02*
X0335055Y0064583D01*
X0322457Y0066945D01*
X0331118Y0063402D01*
X0325213Y0071669D01*
X0329937Y0076787D01*
X0331118Y0063402D01*
X0335055Y0064583D01*
X0329937Y0076787D01*
D34*
X0337654Y0076748D02*
X0337654Y0077929D01*
X0341118Y0077929D01*
X0341118Y0076748D01*
X0341116Y0076697D01*
X0341111Y0076647D01*
X0341102Y0076597D01*
X0341089Y0076548D01*
X0341073Y0076500D01*
X0341054Y0076453D01*
X0341031Y0076408D01*
X0341005Y0076365D01*
X0340977Y0076323D01*
X0340945Y0076284D01*
X0340910Y0076247D01*
X0340873Y0076212D01*
X0340834Y0076180D01*
X0340792Y0076152D01*
X0340749Y0076126D01*
X0340704Y0076103D01*
X0340657Y0076084D01*
X0340609Y0076068D01*
X0340560Y0076055D01*
X0340510Y0076046D01*
X0340460Y0076041D01*
X0340409Y0076039D01*
X0338362Y0076039D01*
X0338311Y0076041D01*
X0338261Y0076046D01*
X0338211Y0076055D01*
X0338162Y0076068D01*
X0338114Y0076084D01*
X0338067Y0076103D01*
X0338022Y0076126D01*
X0337979Y0076152D01*
X0337937Y0076180D01*
X0337898Y0076212D01*
X0337861Y0076247D01*
X0337826Y0076284D01*
X0337794Y0076323D01*
X0337766Y0076365D01*
X0337740Y0076408D01*
X0337717Y0076453D01*
X0337698Y0076500D01*
X0337682Y0076548D01*
X0337669Y0076597D01*
X0337660Y0076647D01*
X0337655Y0076697D01*
X0337653Y0076748D01*
X0338362Y0074740D02*
X0340409Y0074740D01*
X0340460Y0074738D01*
X0340510Y0074733D01*
X0340560Y0074724D01*
X0340609Y0074711D01*
X0340657Y0074695D01*
X0340704Y0074676D01*
X0340749Y0074653D01*
X0340792Y0074627D01*
X0340834Y0074599D01*
X0340873Y0074567D01*
X0340910Y0074532D01*
X0340945Y0074495D01*
X0340977Y0074456D01*
X0341005Y0074414D01*
X0341031Y0074371D01*
X0341054Y0074326D01*
X0341073Y0074279D01*
X0341089Y0074231D01*
X0341102Y0074182D01*
X0341111Y0074132D01*
X0341116Y0074082D01*
X0341118Y0074031D01*
X0341118Y0073323D01*
X0341119Y0073323D02*
X0341117Y0073292D01*
X0341112Y0073262D01*
X0341104Y0073232D01*
X0341092Y0073203D01*
X0341077Y0073176D01*
X0341059Y0073151D01*
X0341038Y0073128D01*
X0341015Y0073107D01*
X0340990Y0073089D01*
X0340963Y0073074D01*
X0340934Y0073062D01*
X0340904Y0073054D01*
X0340874Y0073049D01*
X0340843Y0073047D01*
X0339386Y0072850D02*
X0338441Y0072850D01*
X0338362Y0072850D02*
X0338311Y0072852D01*
X0338261Y0072857D01*
X0338211Y0072866D01*
X0338162Y0072879D01*
X0338114Y0072895D01*
X0338067Y0072914D01*
X0338022Y0072937D01*
X0337979Y0072963D01*
X0337937Y0072991D01*
X0337898Y0073023D01*
X0337861Y0073058D01*
X0337826Y0073095D01*
X0337794Y0073134D01*
X0337766Y0073176D01*
X0337740Y0073219D01*
X0337717Y0073264D01*
X0337698Y0073311D01*
X0337682Y0073359D01*
X0337669Y0073408D01*
X0337660Y0073458D01*
X0337655Y0073508D01*
X0337653Y0073559D01*
X0337654Y0073559D02*
X0337654Y0074031D01*
X0337653Y0074031D02*
X0337655Y0074082D01*
X0337660Y0074132D01*
X0337669Y0074182D01*
X0337682Y0074231D01*
X0337698Y0074279D01*
X0337717Y0074326D01*
X0337740Y0074371D01*
X0337766Y0074414D01*
X0337794Y0074456D01*
X0337826Y0074495D01*
X0337861Y0074532D01*
X0337898Y0074567D01*
X0337937Y0074599D01*
X0337979Y0074627D01*
X0338022Y0074653D01*
X0338067Y0074676D01*
X0338114Y0074695D01*
X0338162Y0074711D01*
X0338211Y0074724D01*
X0338261Y0074733D01*
X0338311Y0074738D01*
X0338362Y0074740D01*
X0339386Y0074504D02*
X0339386Y0072850D01*
X0337654Y0071512D02*
X0341118Y0071512D01*
X0341118Y0069622D02*
X0338362Y0069622D01*
X0338311Y0069624D01*
X0338261Y0069629D01*
X0338211Y0069638D01*
X0338162Y0069651D01*
X0338114Y0069667D01*
X0338067Y0069686D01*
X0338022Y0069709D01*
X0337979Y0069735D01*
X0337937Y0069763D01*
X0337898Y0069795D01*
X0337861Y0069830D01*
X0337826Y0069867D01*
X0337794Y0069906D01*
X0337766Y0069948D01*
X0337740Y0069991D01*
X0337717Y0070036D01*
X0337698Y0070083D01*
X0337682Y0070131D01*
X0337669Y0070180D01*
X0337660Y0070230D01*
X0337655Y0070280D01*
X0337653Y0070331D01*
X0337654Y0070331D02*
X0337654Y0071512D01*
X0338362Y0066787D02*
X0340409Y0066787D01*
X0340409Y0066788D02*
X0340460Y0066786D01*
X0340510Y0066781D01*
X0340560Y0066772D01*
X0340609Y0066759D01*
X0340657Y0066743D01*
X0340704Y0066724D01*
X0340749Y0066701D01*
X0340792Y0066675D01*
X0340834Y0066647D01*
X0340873Y0066615D01*
X0340910Y0066580D01*
X0340945Y0066543D01*
X0340977Y0066504D01*
X0341005Y0066462D01*
X0341031Y0066419D01*
X0341054Y0066374D01*
X0341073Y0066327D01*
X0341089Y0066279D01*
X0341102Y0066230D01*
X0341111Y0066180D01*
X0341116Y0066130D01*
X0341118Y0066079D01*
X0341118Y0065370D01*
X0341119Y0065370D02*
X0341117Y0065339D01*
X0341112Y0065309D01*
X0341104Y0065279D01*
X0341092Y0065250D01*
X0341077Y0065223D01*
X0341059Y0065198D01*
X0341038Y0065175D01*
X0341015Y0065154D01*
X0340990Y0065136D01*
X0340963Y0065121D01*
X0340934Y0065109D01*
X0340904Y0065101D01*
X0340874Y0065096D01*
X0340843Y0065094D01*
X0339386Y0064898D02*
X0339386Y0066551D01*
X0338362Y0066788D02*
X0338311Y0066786D01*
X0338261Y0066781D01*
X0338211Y0066772D01*
X0338162Y0066759D01*
X0338114Y0066743D01*
X0338067Y0066724D01*
X0338022Y0066701D01*
X0337979Y0066675D01*
X0337937Y0066647D01*
X0337898Y0066615D01*
X0337861Y0066580D01*
X0337826Y0066543D01*
X0337794Y0066504D01*
X0337766Y0066462D01*
X0337740Y0066419D01*
X0337717Y0066374D01*
X0337698Y0066327D01*
X0337682Y0066279D01*
X0337669Y0066230D01*
X0337660Y0066180D01*
X0337655Y0066130D01*
X0337653Y0066079D01*
X0337654Y0066079D02*
X0337654Y0065606D01*
X0337653Y0065606D02*
X0337655Y0065555D01*
X0337660Y0065505D01*
X0337669Y0065455D01*
X0337682Y0065406D01*
X0337698Y0065358D01*
X0337717Y0065311D01*
X0337740Y0065266D01*
X0337766Y0065223D01*
X0337794Y0065181D01*
X0337826Y0065142D01*
X0337861Y0065105D01*
X0337898Y0065070D01*
X0337937Y0065038D01*
X0337979Y0065010D01*
X0338022Y0064984D01*
X0338067Y0064961D01*
X0338114Y0064942D01*
X0338162Y0064926D01*
X0338211Y0064913D01*
X0338261Y0064904D01*
X0338311Y0064899D01*
X0338362Y0064897D01*
X0338441Y0064898D02*
X0339386Y0064898D01*
X0337654Y0063638D02*
X0341118Y0063638D01*
X0341118Y0062457D01*
X0341116Y0062406D01*
X0341111Y0062356D01*
X0341102Y0062306D01*
X0341089Y0062257D01*
X0341073Y0062209D01*
X0341054Y0062162D01*
X0341031Y0062117D01*
X0341005Y0062074D01*
X0340977Y0062032D01*
X0340945Y0061993D01*
X0340910Y0061956D01*
X0340873Y0061921D01*
X0340834Y0061889D01*
X0340792Y0061861D01*
X0340749Y0061835D01*
X0340704Y0061812D01*
X0340657Y0061793D01*
X0340609Y0061777D01*
X0340560Y0061764D01*
X0340510Y0061755D01*
X0340460Y0061750D01*
X0340409Y0061748D01*
X0338362Y0061748D01*
X0338311Y0061750D01*
X0338261Y0061755D01*
X0338211Y0061764D01*
X0338162Y0061777D01*
X0338114Y0061793D01*
X0338067Y0061812D01*
X0338022Y0061835D01*
X0337979Y0061861D01*
X0337937Y0061889D01*
X0337898Y0061921D01*
X0337861Y0061956D01*
X0337826Y0061993D01*
X0337794Y0062032D01*
X0337766Y0062074D01*
X0337740Y0062117D01*
X0337717Y0062162D01*
X0337698Y0062209D01*
X0337682Y0062257D01*
X0337669Y0062306D01*
X0337660Y0062356D01*
X0337655Y0062406D01*
X0337653Y0062457D01*
X0337654Y0062457D02*
X0337654Y0063638D01*
X0341157Y0063638D02*
X0343205Y0063638D01*
X0341079Y0060331D02*
X0335488Y0060331D01*
X0337654Y0060055D02*
X0337654Y0059150D01*
X0337653Y0059150D02*
X0337655Y0059099D01*
X0337660Y0059049D01*
X0337669Y0058999D01*
X0337682Y0058950D01*
X0337698Y0058902D01*
X0337717Y0058855D01*
X0337740Y0058810D01*
X0337766Y0058767D01*
X0337794Y0058725D01*
X0337826Y0058686D01*
X0337861Y0058649D01*
X0337898Y0058614D01*
X0337937Y0058582D01*
X0337979Y0058554D01*
X0338022Y0058528D01*
X0338067Y0058505D01*
X0338114Y0058486D01*
X0338162Y0058470D01*
X0338211Y0058457D01*
X0338261Y0058448D01*
X0338311Y0058443D01*
X0338362Y0058441D01*
X0341118Y0058402D01*
X0341079Y0056236D02*
X0337299Y0057535D01*
X0337299Y0055016D02*
X0342614Y0056669D01*
X0342693Y0056709D02*
X0343087Y0056984D01*
X0343165Y0057339D01*
X0343165Y0057535D01*
X0340921Y0054110D02*
X0340843Y0054110D01*
X0340921Y0054110D02*
X0341039Y0054031D01*
X0341157Y0053835D01*
X0341236Y0053677D01*
X0341236Y0053638D02*
X0341236Y0053165D01*
X0341237Y0053165D02*
X0341235Y0053114D01*
X0341230Y0053064D01*
X0341221Y0053014D01*
X0341208Y0052965D01*
X0341192Y0052917D01*
X0341173Y0052870D01*
X0341150Y0052825D01*
X0341124Y0052782D01*
X0341096Y0052740D01*
X0341064Y0052701D01*
X0341029Y0052664D01*
X0340992Y0052629D01*
X0340953Y0052597D01*
X0340911Y0052569D01*
X0340868Y0052543D01*
X0340823Y0052520D01*
X0340776Y0052501D01*
X0340728Y0052485D01*
X0340679Y0052472D01*
X0340629Y0052463D01*
X0340579Y0052458D01*
X0340528Y0052456D01*
X0340488Y0052457D02*
X0340291Y0052457D01*
X0340094Y0052496D01*
X0339740Y0052850D01*
X0339268Y0053480D01*
X0339346Y0053362D02*
X0338874Y0053992D01*
X0338638Y0054150D01*
X0338441Y0054189D01*
X0338244Y0054189D01*
X0338205Y0054189D02*
X0338154Y0054187D01*
X0338104Y0054182D01*
X0338054Y0054173D01*
X0338005Y0054160D01*
X0337957Y0054144D01*
X0337910Y0054125D01*
X0337865Y0054102D01*
X0337822Y0054076D01*
X0337780Y0054048D01*
X0337741Y0054016D01*
X0337704Y0053981D01*
X0337669Y0053944D01*
X0337637Y0053905D01*
X0337609Y0053863D01*
X0337583Y0053820D01*
X0337560Y0053775D01*
X0337541Y0053728D01*
X0337525Y0053680D01*
X0337512Y0053631D01*
X0337503Y0053581D01*
X0337498Y0053531D01*
X0337496Y0053480D01*
X0337496Y0053008D01*
X0337496Y0052969D02*
X0337575Y0052811D01*
X0337693Y0052614D01*
X0337811Y0052535D01*
X0337890Y0052535D01*
X0341157Y0077929D02*
X0343205Y0077929D01*
X0341118Y0079937D02*
X0341118Y0080409D01*
X0341116Y0080460D01*
X0341111Y0080510D01*
X0341102Y0080560D01*
X0341089Y0080609D01*
X0341073Y0080657D01*
X0341054Y0080704D01*
X0341031Y0080749D01*
X0341005Y0080792D01*
X0340977Y0080834D01*
X0340945Y0080873D01*
X0340910Y0080910D01*
X0340873Y0080945D01*
X0340834Y0080977D01*
X0340792Y0081005D01*
X0340749Y0081031D01*
X0340704Y0081054D01*
X0340657Y0081073D01*
X0340609Y0081089D01*
X0340560Y0081102D01*
X0340510Y0081111D01*
X0340460Y0081116D01*
X0340409Y0081118D01*
X0338362Y0081118D01*
X0338311Y0081116D01*
X0338261Y0081111D01*
X0338211Y0081102D01*
X0338162Y0081089D01*
X0338114Y0081073D01*
X0338067Y0081054D01*
X0338022Y0081031D01*
X0337979Y0081005D01*
X0337937Y0080977D01*
X0337898Y0080945D01*
X0337861Y0080910D01*
X0337826Y0080873D01*
X0337794Y0080834D01*
X0337766Y0080792D01*
X0337740Y0080749D01*
X0337717Y0080704D01*
X0337698Y0080657D01*
X0337682Y0080609D01*
X0337669Y0080560D01*
X0337660Y0080510D01*
X0337655Y0080460D01*
X0337653Y0080409D01*
X0337654Y0080409D02*
X0337654Y0079937D01*
X0337653Y0079937D02*
X0337655Y0079886D01*
X0337660Y0079836D01*
X0337669Y0079786D01*
X0337682Y0079737D01*
X0337698Y0079689D01*
X0337717Y0079642D01*
X0337740Y0079597D01*
X0337766Y0079554D01*
X0337794Y0079512D01*
X0337826Y0079473D01*
X0337861Y0079436D01*
X0337898Y0079401D01*
X0337937Y0079369D01*
X0337979Y0079341D01*
X0338022Y0079315D01*
X0338067Y0079292D01*
X0338114Y0079273D01*
X0338162Y0079257D01*
X0338211Y0079244D01*
X0338261Y0079235D01*
X0338311Y0079230D01*
X0338362Y0079228D01*
X0340409Y0079228D01*
X0340460Y0079230D01*
X0340510Y0079235D01*
X0340560Y0079244D01*
X0340609Y0079257D01*
X0340657Y0079273D01*
X0340704Y0079292D01*
X0340749Y0079315D01*
X0340792Y0079341D01*
X0340834Y0079369D01*
X0340873Y0079401D01*
X0340910Y0079436D01*
X0340945Y0079473D01*
X0340977Y0079512D01*
X0341005Y0079554D01*
X0341031Y0079597D01*
X0341054Y0079642D01*
X0341073Y0079689D01*
X0341089Y0079737D01*
X0341102Y0079786D01*
X0341111Y0079836D01*
X0341116Y0079886D01*
X0341118Y0079937D01*
D35*
X0236028Y0256709D03*
X0225028Y0256709D03*
D36*
X0228953Y0269504D03*
D37*
X0229937Y0273244D03*
X0227969Y0273244D03*
X0226000Y0273244D03*
X0231906Y0273244D03*
X0231906Y0265764D03*
X0229937Y0265764D03*
X0227969Y0265764D03*
X0226000Y0265764D03*
D38*
X0244533Y0070065D03*
D39*
X0239533Y0070065D03*
X0234533Y0070065D03*
X0229533Y0070065D03*
X0224533Y0070065D03*
X0224533Y0075065D03*
X0229533Y0075065D03*
X0234533Y0075065D03*
X0239533Y0075065D03*
X0244533Y0075065D03*
M02*
