G75*
%MOIN*%
%OFA0B0*%
%FSLAX25Y25*%
%IPPOS*%
%LPD*%
%AMOC8*
5,1,8,0,0,1.08239X$1,22.5*
%
%ADD10C,0.00600*%
%ADD11C,0.00900*%
%ADD12C,0.00500*%
%ADD13C,0.00591*%
%ADD14C,0.01181*%
%ADD15C,0.00787*%
%ADD16C,0.01300*%
%ADD17R,0.57087X0.78740*%
%ADD18R,0.07000X0.04000*%
%ADD19C,0.00800*%
%ADD20C,0.02559*%
%ADD21R,0.03937X0.07874*%
%ADD22C,0.00700*%
%ADD23C,0.01260*%
D10*
X0107253Y0089154D02*
X0107253Y0090005D01*
X0107678Y0090430D01*
X0107253Y0091629D02*
X0107253Y0093330D01*
X0107253Y0092480D02*
X0109805Y0092480D01*
X0108954Y0091629D01*
X0109379Y0090430D02*
X0109805Y0090005D01*
X0109805Y0089154D01*
X0109379Y0088729D01*
X0107678Y0088729D01*
X0107253Y0089154D01*
X0107678Y0094529D02*
X0107253Y0094955D01*
X0107253Y0095805D01*
X0107678Y0096231D01*
X0109379Y0096231D01*
X0109805Y0095805D01*
X0109805Y0094955D01*
X0109379Y0094529D01*
X0108954Y0094529D01*
X0108529Y0094955D01*
X0108529Y0096231D01*
X0115914Y0092905D02*
X0116339Y0093330D01*
X0118041Y0093330D01*
X0118466Y0092905D01*
X0118466Y0092055D01*
X0118041Y0091629D01*
X0117615Y0091629D01*
X0117190Y0092055D01*
X0117190Y0093330D01*
X0115914Y0092905D02*
X0115914Y0092055D01*
X0116339Y0091629D01*
X0116339Y0090430D02*
X0115914Y0090005D01*
X0115914Y0089154D01*
X0116339Y0088729D01*
X0118041Y0088729D01*
X0118466Y0089154D01*
X0118466Y0090005D01*
X0118041Y0090430D01*
X0133678Y0094560D02*
X0133678Y0096261D01*
X0134104Y0096686D01*
X0134954Y0096686D01*
X0135380Y0096261D01*
X0135380Y0095836D01*
X0134954Y0095411D01*
X0133678Y0095411D01*
X0133678Y0094560D02*
X0134104Y0094135D01*
X0134954Y0094135D01*
X0135380Y0094560D01*
X0136579Y0094560D02*
X0137004Y0094135D01*
X0137854Y0094135D01*
X0138280Y0094560D01*
X0138280Y0095411D02*
X0137429Y0095836D01*
X0137004Y0095836D01*
X0136579Y0095411D01*
X0136579Y0094560D01*
X0138280Y0095411D02*
X0138280Y0096686D01*
X0136579Y0096686D01*
X0139479Y0096261D02*
X0139904Y0096686D01*
X0140755Y0096686D01*
X0141180Y0096261D01*
X0141180Y0094560D01*
X0140755Y0094135D01*
X0139904Y0094135D01*
X0139479Y0094560D01*
X0151092Y0097090D02*
X0152793Y0097090D01*
X0151518Y0098366D01*
X0151518Y0095814D01*
X0153992Y0095814D02*
X0155694Y0095814D01*
X0154843Y0095814D02*
X0154843Y0098366D01*
X0155694Y0097515D01*
X0156893Y0098366D02*
X0156893Y0096239D01*
X0157318Y0095814D01*
X0158168Y0095814D01*
X0158594Y0096239D01*
X0158594Y0098366D01*
X0158890Y0099240D02*
X0158888Y0099302D01*
X0158882Y0099363D01*
X0158873Y0099424D01*
X0158860Y0099484D01*
X0158843Y0099543D01*
X0158822Y0099601D01*
X0158798Y0099658D01*
X0158771Y0099713D01*
X0158740Y0099766D01*
X0158706Y0099818D01*
X0158669Y0099867D01*
X0158629Y0099914D01*
X0158586Y0099958D01*
X0158541Y0099999D01*
X0158493Y0100038D01*
X0158442Y0100074D01*
X0158390Y0100106D01*
X0158336Y0100135D01*
X0158280Y0100161D01*
X0158222Y0100183D01*
X0158164Y0100202D01*
X0158104Y0100217D01*
X0158043Y0100228D01*
X0157982Y0100236D01*
X0157921Y0100240D01*
X0157859Y0100240D01*
X0157798Y0100236D01*
X0157737Y0100228D01*
X0157676Y0100217D01*
X0157616Y0100202D01*
X0157558Y0100183D01*
X0157500Y0100161D01*
X0157444Y0100135D01*
X0157390Y0100106D01*
X0157338Y0100074D01*
X0157287Y0100038D01*
X0157239Y0099999D01*
X0157194Y0099958D01*
X0157151Y0099914D01*
X0157111Y0099867D01*
X0157074Y0099818D01*
X0157040Y0099766D01*
X0157009Y0099713D01*
X0156982Y0099658D01*
X0156958Y0099601D01*
X0156937Y0099543D01*
X0156920Y0099484D01*
X0156907Y0099424D01*
X0156898Y0099363D01*
X0156892Y0099302D01*
X0156890Y0099240D01*
X0154815Y0099138D02*
X0160965Y0099138D01*
X0164919Y0097867D02*
X0165344Y0098293D01*
X0166195Y0098293D01*
X0166620Y0097867D01*
X0166620Y0097442D01*
X0166195Y0097017D01*
X0164919Y0097017D01*
X0164919Y0097867D02*
X0164919Y0096166D01*
X0165344Y0095741D01*
X0166195Y0095741D01*
X0166620Y0096166D01*
X0167819Y0096166D02*
X0168244Y0095741D01*
X0169095Y0095741D01*
X0169520Y0096166D01*
X0169520Y0097017D02*
X0168669Y0097442D01*
X0168244Y0097442D01*
X0167819Y0097017D01*
X0167819Y0096166D01*
X0169520Y0097017D02*
X0169520Y0098293D01*
X0167819Y0098293D01*
X0170719Y0097867D02*
X0170719Y0097017D01*
X0171144Y0096592D01*
X0172420Y0096592D01*
X0171569Y0096592D02*
X0170719Y0095741D01*
X0172420Y0095741D02*
X0172420Y0098293D01*
X0171144Y0098293D01*
X0170719Y0097867D01*
X0180513Y0088581D02*
X0180513Y0087730D01*
X0180938Y0087305D01*
X0181788Y0087305D02*
X0182214Y0088156D01*
X0182214Y0088581D01*
X0181788Y0089006D01*
X0180938Y0089006D01*
X0180513Y0088581D01*
X0181788Y0087305D02*
X0183064Y0087305D01*
X0183064Y0089006D01*
X0182639Y0086106D02*
X0183064Y0085681D01*
X0183064Y0084830D01*
X0182639Y0084405D01*
X0182214Y0084405D01*
X0181788Y0084830D01*
X0181788Y0086106D01*
X0180938Y0086106D02*
X0182639Y0086106D01*
X0180938Y0086106D02*
X0180513Y0085681D01*
X0180513Y0084830D01*
X0180938Y0084405D01*
X0180938Y0083206D02*
X0180513Y0082781D01*
X0180513Y0081930D01*
X0180938Y0081505D01*
X0182639Y0081505D01*
X0183064Y0081930D01*
X0183064Y0082781D01*
X0182639Y0083206D01*
X0190678Y0082395D02*
X0192380Y0082395D01*
X0192380Y0081119D01*
X0191529Y0081544D01*
X0191104Y0081544D01*
X0190678Y0081119D01*
X0190678Y0080269D01*
X0191104Y0079843D01*
X0191954Y0079843D01*
X0192380Y0080269D01*
X0193579Y0079843D02*
X0195280Y0079843D01*
X0194429Y0079843D02*
X0194429Y0082395D01*
X0195280Y0081544D01*
X0196479Y0079843D02*
X0198180Y0079843D01*
X0197329Y0079843D02*
X0197329Y0082395D01*
X0198180Y0081544D01*
X0199379Y0081970D02*
X0199804Y0082395D01*
X0200655Y0082395D01*
X0201080Y0081970D01*
X0201080Y0080269D01*
X0200655Y0079843D01*
X0199804Y0079843D01*
X0199379Y0080269D01*
X0198180Y0078458D02*
X0196904Y0078458D01*
X0196479Y0078033D01*
X0196479Y0077182D01*
X0196904Y0076757D01*
X0198180Y0076757D01*
X0198180Y0075906D02*
X0198180Y0078458D01*
X0197329Y0076757D02*
X0196479Y0075906D01*
X0195280Y0076332D02*
X0194854Y0075906D01*
X0194004Y0075906D01*
X0193579Y0076332D01*
X0193579Y0076757D01*
X0194004Y0077182D01*
X0195280Y0077182D01*
X0195280Y0076332D01*
X0195280Y0077182D02*
X0194429Y0078033D01*
X0193579Y0078458D01*
X0192380Y0077182D02*
X0190678Y0077182D01*
X0191104Y0075906D02*
X0191104Y0078458D01*
X0192380Y0077182D01*
X0191979Y0072403D02*
X0192405Y0071978D01*
X0192405Y0070276D01*
X0191979Y0069851D01*
X0191129Y0069851D01*
X0190704Y0070276D01*
X0189505Y0070276D02*
X0189079Y0069851D01*
X0188229Y0069851D01*
X0187803Y0070276D01*
X0187803Y0070702D01*
X0188229Y0071127D01*
X0188654Y0071127D01*
X0188229Y0071127D02*
X0187803Y0071552D01*
X0187803Y0071978D01*
X0188229Y0072403D01*
X0189079Y0072403D01*
X0189505Y0071978D01*
X0190704Y0071978D02*
X0191129Y0072403D01*
X0191979Y0072403D01*
X0186605Y0071978D02*
X0186179Y0072403D01*
X0185329Y0072403D01*
X0184903Y0071978D01*
X0184903Y0071552D01*
X0186605Y0069851D01*
X0184903Y0069851D01*
X0178702Y0065916D02*
X0178702Y0064214D01*
X0177426Y0064214D01*
X0177852Y0065065D01*
X0177852Y0065490D01*
X0177426Y0065916D01*
X0176576Y0065916D01*
X0176150Y0065490D01*
X0176150Y0064640D01*
X0176576Y0064214D01*
X0176150Y0063015D02*
X0176150Y0061314D01*
X0177852Y0063015D01*
X0178277Y0063015D01*
X0178702Y0062590D01*
X0178702Y0061740D01*
X0178277Y0061314D01*
X0178277Y0060115D02*
X0177426Y0060115D01*
X0177001Y0059690D01*
X0177001Y0058414D01*
X0176150Y0058414D02*
X0178702Y0058414D01*
X0178702Y0059690D01*
X0178277Y0060115D01*
X0177001Y0059265D02*
X0176150Y0060115D01*
X0176182Y0055679D02*
X0176607Y0055679D01*
X0177033Y0055254D01*
X0177033Y0053978D01*
X0176182Y0053978D01*
X0175757Y0054403D01*
X0175757Y0055254D01*
X0176182Y0055679D01*
X0177883Y0054829D02*
X0177033Y0053978D01*
X0177883Y0054829D02*
X0178308Y0055679D01*
X0177883Y0052779D02*
X0178308Y0052354D01*
X0178308Y0051503D01*
X0177883Y0051078D01*
X0177883Y0049879D02*
X0177033Y0049879D01*
X0176607Y0049454D01*
X0176607Y0048178D01*
X0175757Y0048178D02*
X0178308Y0048178D01*
X0178308Y0049454D01*
X0177883Y0049879D01*
X0176607Y0049029D02*
X0175757Y0049879D01*
X0175757Y0051078D02*
X0177458Y0052779D01*
X0177883Y0052779D01*
X0175757Y0052779D02*
X0175757Y0051078D01*
X0192084Y0058371D02*
X0192084Y0058796D01*
X0192509Y0059222D01*
X0192935Y0059222D01*
X0192509Y0059222D02*
X0192084Y0059647D01*
X0192084Y0060072D01*
X0192509Y0060497D01*
X0193360Y0060497D01*
X0193785Y0060072D01*
X0194984Y0060072D02*
X0194984Y0059647D01*
X0195409Y0059222D01*
X0194984Y0058796D01*
X0194984Y0058371D01*
X0195409Y0057946D01*
X0196260Y0057946D01*
X0196685Y0058371D01*
X0197884Y0058371D02*
X0198309Y0057946D01*
X0199160Y0057946D01*
X0199585Y0058371D01*
X0199585Y0060072D01*
X0199160Y0060497D01*
X0198309Y0060497D01*
X0197884Y0060072D01*
X0196685Y0060072D02*
X0196260Y0060497D01*
X0195409Y0060497D01*
X0194984Y0060072D01*
X0195409Y0059222D02*
X0195835Y0059222D01*
X0193785Y0058371D02*
X0193360Y0057946D01*
X0192509Y0057946D01*
X0192084Y0058371D01*
X0198198Y0052010D02*
X0198623Y0052010D01*
X0200324Y0053711D01*
X0200749Y0053711D01*
X0200749Y0052010D01*
X0200324Y0050811D02*
X0200749Y0050385D01*
X0200749Y0049535D01*
X0200324Y0049110D01*
X0200324Y0047911D02*
X0199474Y0047911D01*
X0199048Y0047485D01*
X0199048Y0046209D01*
X0198198Y0046209D02*
X0200749Y0046209D01*
X0200749Y0047485D01*
X0200324Y0047911D01*
X0199048Y0047060D02*
X0198198Y0047911D01*
X0198198Y0049110D02*
X0199899Y0050811D01*
X0200324Y0050811D01*
X0198198Y0050811D02*
X0198198Y0049110D01*
X0198309Y0062276D02*
X0197884Y0062702D01*
X0198309Y0062276D02*
X0199160Y0062276D01*
X0199585Y0062702D01*
X0199585Y0064403D01*
X0199160Y0064828D01*
X0198309Y0064828D01*
X0197884Y0064403D01*
X0196685Y0064403D02*
X0196260Y0064828D01*
X0195409Y0064828D01*
X0194984Y0064403D01*
X0194984Y0063978D01*
X0196685Y0062276D01*
X0194984Y0062276D01*
X0193785Y0062702D02*
X0193360Y0062276D01*
X0192509Y0062276D01*
X0192084Y0062702D01*
X0192084Y0064403D01*
X0192509Y0064828D01*
X0193360Y0064828D01*
X0193785Y0064403D01*
X0193785Y0063978D01*
X0193360Y0063552D01*
X0192084Y0063552D01*
X0203895Y0066639D02*
X0204320Y0066213D01*
X0205171Y0066213D01*
X0205596Y0066639D01*
X0205596Y0067064D01*
X0205171Y0067489D01*
X0204320Y0067489D01*
X0203895Y0067064D01*
X0203895Y0066639D01*
X0204320Y0067489D02*
X0203895Y0067915D01*
X0203895Y0068340D01*
X0204320Y0068765D01*
X0205171Y0068765D01*
X0205596Y0068340D01*
X0205596Y0067915D01*
X0205171Y0067489D01*
X0206795Y0067915D02*
X0206795Y0068340D01*
X0207220Y0068765D01*
X0208071Y0068765D01*
X0208496Y0068340D01*
X0209695Y0068340D02*
X0210121Y0068765D01*
X0210971Y0068765D01*
X0211396Y0068340D01*
X0211396Y0066639D01*
X0210971Y0066213D01*
X0210121Y0066213D01*
X0209695Y0066639D01*
X0208496Y0066213D02*
X0206795Y0067915D01*
X0206795Y0066213D02*
X0208496Y0066213D01*
X0198180Y0083780D02*
X0198180Y0086332D01*
X0196904Y0086332D01*
X0196479Y0085907D01*
X0196479Y0085056D01*
X0196904Y0084631D01*
X0198180Y0084631D01*
X0197329Y0084631D02*
X0196479Y0083780D01*
X0195280Y0084206D02*
X0194854Y0083780D01*
X0194004Y0083780D01*
X0193579Y0084206D01*
X0193579Y0084631D01*
X0194004Y0085056D01*
X0195280Y0085056D01*
X0195280Y0084206D01*
X0195280Y0085056D02*
X0194429Y0085907D01*
X0193579Y0086332D01*
X0194004Y0087717D02*
X0193579Y0088143D01*
X0193579Y0088568D01*
X0194004Y0088993D01*
X0195280Y0088993D01*
X0195280Y0088143D01*
X0194854Y0087717D01*
X0194004Y0087717D01*
X0192380Y0088143D02*
X0191954Y0087717D01*
X0191104Y0087717D01*
X0190678Y0088143D01*
X0190678Y0088568D01*
X0191104Y0088993D01*
X0191529Y0088993D01*
X0191104Y0088993D02*
X0190678Y0089419D01*
X0190678Y0089844D01*
X0191104Y0090269D01*
X0191954Y0090269D01*
X0192380Y0089844D01*
X0193579Y0090269D02*
X0194429Y0089844D01*
X0195280Y0088993D01*
X0196479Y0088993D02*
X0196904Y0088568D01*
X0198180Y0088568D01*
X0198180Y0087717D02*
X0198180Y0090269D01*
X0196904Y0090269D01*
X0196479Y0089844D01*
X0196479Y0088993D01*
X0197329Y0088568D02*
X0196479Y0087717D01*
X0192380Y0085056D02*
X0191104Y0085056D01*
X0190678Y0084631D01*
X0190678Y0084206D01*
X0191104Y0083780D01*
X0191954Y0083780D01*
X0192380Y0084206D01*
X0192380Y0085056D01*
X0191529Y0085907D01*
X0190678Y0086332D01*
X0207646Y0094635D02*
X0210198Y0094635D01*
X0210198Y0095911D01*
X0209773Y0096336D01*
X0208922Y0096336D01*
X0208497Y0095911D01*
X0208497Y0094635D01*
X0208497Y0095485D02*
X0207646Y0096336D01*
X0208072Y0097535D02*
X0207646Y0097960D01*
X0207646Y0098811D01*
X0208072Y0099236D01*
X0208497Y0099236D01*
X0208922Y0098811D01*
X0208922Y0097535D01*
X0208072Y0097535D01*
X0208922Y0097535D02*
X0209773Y0098385D01*
X0210198Y0099236D01*
X0210198Y0100435D02*
X0208922Y0100435D01*
X0209348Y0101285D01*
X0209348Y0101711D01*
X0208922Y0102136D01*
X0208072Y0102136D01*
X0207646Y0101711D01*
X0207646Y0100860D01*
X0208072Y0100435D01*
X0210198Y0100435D02*
X0210198Y0102136D01*
X0209826Y0108859D02*
X0209826Y0109284D01*
X0208125Y0110986D01*
X0208125Y0111411D01*
X0209826Y0111411D01*
X0211876Y0111411D02*
X0211876Y0108859D01*
X0212727Y0108859D02*
X0211025Y0108859D01*
X0212727Y0110560D02*
X0211876Y0111411D01*
X0211801Y0113946D02*
X0210100Y0113946D01*
X0210951Y0113946D02*
X0210951Y0116497D01*
X0211801Y0115647D01*
X0213000Y0113946D02*
X0214701Y0113946D01*
X0213851Y0113946D02*
X0213851Y0116497D01*
X0214701Y0115647D01*
X0215900Y0116072D02*
X0216326Y0116497D01*
X0217176Y0116497D01*
X0217602Y0116072D01*
X0217602Y0114371D01*
X0217176Y0113946D01*
X0216326Y0113946D01*
X0215900Y0114371D01*
X0214776Y0111411D02*
X0214776Y0108859D01*
X0215627Y0108859D02*
X0213925Y0108859D01*
X0215627Y0110560D02*
X0214776Y0111411D01*
X0216826Y0110986D02*
X0217251Y0111411D01*
X0218101Y0111411D01*
X0218527Y0110986D01*
X0218527Y0109284D01*
X0218101Y0108859D01*
X0217251Y0108859D01*
X0216826Y0109284D01*
X0208901Y0115222D02*
X0207200Y0115222D01*
X0207625Y0116497D02*
X0208901Y0115222D01*
X0207625Y0116497D02*
X0207625Y0113946D01*
X0208157Y0123426D02*
X0207732Y0123851D01*
X0207732Y0125552D01*
X0208157Y0125978D01*
X0209007Y0125978D01*
X0209433Y0125552D01*
X0209433Y0125127D01*
X0209007Y0124702D01*
X0207732Y0124702D01*
X0208157Y0123426D02*
X0209007Y0123426D01*
X0209433Y0123851D01*
X0210632Y0123851D02*
X0211057Y0123426D01*
X0211908Y0123426D01*
X0212333Y0123851D01*
X0210632Y0125552D01*
X0210632Y0123851D01*
X0212333Y0123851D02*
X0212333Y0125552D01*
X0211908Y0125978D01*
X0211057Y0125978D01*
X0210632Y0125552D01*
X0213532Y0123426D02*
X0215233Y0123426D01*
X0214382Y0123426D02*
X0214382Y0125978D01*
X0215233Y0125127D01*
X0216432Y0125552D02*
X0216857Y0125978D01*
X0217708Y0125978D01*
X0218133Y0125552D01*
X0218133Y0123851D01*
X0217708Y0123426D01*
X0216857Y0123426D01*
X0216432Y0123851D01*
X0189743Y0123694D02*
X0188042Y0123694D01*
X0186843Y0123694D02*
X0185142Y0123694D01*
X0185992Y0123694D02*
X0185992Y0126245D01*
X0186843Y0125395D01*
X0183943Y0124970D02*
X0182241Y0124970D01*
X0182667Y0126245D02*
X0183943Y0124970D01*
X0182667Y0126245D02*
X0182667Y0123694D01*
X0182214Y0118816D02*
X0180513Y0117115D01*
X0180087Y0117540D01*
X0180087Y0118390D01*
X0180513Y0118816D01*
X0182214Y0118816D01*
X0182639Y0118390D01*
X0182639Y0117540D01*
X0182214Y0117115D01*
X0180513Y0117115D01*
X0180513Y0115916D02*
X0180087Y0115490D01*
X0180087Y0114640D01*
X0180513Y0114214D01*
X0182214Y0115916D01*
X0180513Y0115916D01*
X0182214Y0115916D02*
X0182639Y0115490D01*
X0182639Y0114640D01*
X0182214Y0114214D01*
X0180513Y0114214D01*
X0180087Y0113015D02*
X0180087Y0111314D01*
X0180087Y0112165D02*
X0182639Y0112165D01*
X0181789Y0111314D01*
X0182214Y0110115D02*
X0182639Y0109690D01*
X0182639Y0108839D01*
X0182214Y0108414D01*
X0180513Y0108414D01*
X0180087Y0108839D01*
X0180087Y0109690D01*
X0180513Y0110115D01*
X0164978Y0112277D02*
X0164552Y0111852D01*
X0162851Y0111852D01*
X0162426Y0112277D01*
X0162426Y0113128D01*
X0162851Y0113553D01*
X0162851Y0114752D02*
X0163277Y0114752D01*
X0163702Y0115177D01*
X0163702Y0116028D01*
X0163277Y0116453D01*
X0162851Y0116453D01*
X0162426Y0116028D01*
X0162426Y0115177D01*
X0162851Y0114752D01*
X0163702Y0115177D02*
X0164127Y0114752D01*
X0164552Y0114752D01*
X0164978Y0115177D01*
X0164978Y0116028D01*
X0164552Y0116453D01*
X0164127Y0116453D01*
X0163702Y0116028D01*
X0164127Y0117652D02*
X0164978Y0118502D01*
X0162426Y0118502D01*
X0162426Y0117652D02*
X0162426Y0119353D01*
X0164552Y0113553D02*
X0164978Y0113128D01*
X0164978Y0112277D01*
X0160965Y0110339D02*
X0154815Y0110339D01*
X0143286Y0112308D02*
X0143286Y0114009D01*
X0142861Y0114434D01*
X0142010Y0114434D01*
X0141585Y0114009D01*
X0140386Y0114009D02*
X0140386Y0113584D01*
X0139961Y0113159D01*
X0138685Y0113159D01*
X0138685Y0114009D02*
X0138685Y0112308D01*
X0139110Y0111883D01*
X0139961Y0111883D01*
X0140386Y0112308D01*
X0141585Y0112308D02*
X0142010Y0111883D01*
X0142861Y0111883D01*
X0143286Y0112308D01*
X0140386Y0114009D02*
X0139961Y0114434D01*
X0139110Y0114434D01*
X0138685Y0114009D01*
X0137486Y0114009D02*
X0137061Y0114434D01*
X0136210Y0114434D01*
X0135785Y0114009D01*
X0137486Y0112308D01*
X0137061Y0111883D01*
X0136210Y0111883D01*
X0135785Y0112308D01*
X0135785Y0114009D01*
X0137486Y0114009D02*
X0137486Y0112308D01*
X0136997Y0120544D02*
X0136997Y0123096D01*
X0138273Y0121820D01*
X0136572Y0121820D01*
X0139472Y0122245D02*
X0139898Y0121820D01*
X0140748Y0121820D01*
X0141173Y0122245D01*
X0141173Y0122671D01*
X0140748Y0123096D01*
X0139898Y0123096D01*
X0139472Y0122671D01*
X0139472Y0122245D01*
X0139898Y0121820D02*
X0139472Y0121395D01*
X0139472Y0120969D01*
X0139898Y0120544D01*
X0140748Y0120544D01*
X0141173Y0120969D01*
X0141173Y0121395D01*
X0140748Y0121820D01*
X0142372Y0122671D02*
X0142798Y0123096D01*
X0143648Y0123096D01*
X0144074Y0122671D01*
X0144074Y0120969D01*
X0143648Y0120544D01*
X0142798Y0120544D01*
X0142372Y0120969D01*
X0131883Y0130749D02*
X0131883Y0131600D01*
X0131458Y0132025D01*
X0131883Y0130749D02*
X0131458Y0130324D01*
X0129757Y0130324D01*
X0129331Y0130749D01*
X0129331Y0131600D01*
X0129757Y0132025D01*
X0129757Y0133224D02*
X0129331Y0133649D01*
X0129331Y0134500D01*
X0129757Y0134925D01*
X0130182Y0134925D01*
X0130607Y0134500D01*
X0130607Y0133224D01*
X0129757Y0133224D01*
X0130607Y0133224D02*
X0131458Y0134074D01*
X0131883Y0134925D01*
X0131458Y0136124D02*
X0131033Y0136124D01*
X0130607Y0136549D01*
X0130607Y0137825D01*
X0129757Y0137825D02*
X0131458Y0137825D01*
X0131883Y0137400D01*
X0131883Y0136549D01*
X0131458Y0136124D01*
X0129757Y0136124D02*
X0129331Y0136549D01*
X0129331Y0137400D01*
X0129757Y0137825D01*
X0123946Y0129551D02*
X0123521Y0129551D01*
X0123096Y0129126D01*
X0123096Y0128275D01*
X0123521Y0127850D01*
X0123946Y0127850D01*
X0124371Y0128275D01*
X0124371Y0129126D01*
X0123946Y0129551D01*
X0123096Y0129126D02*
X0122670Y0129551D01*
X0122245Y0129551D01*
X0121820Y0129126D01*
X0121820Y0128275D01*
X0122245Y0127850D01*
X0122670Y0127850D01*
X0123096Y0128275D01*
X0123946Y0126651D02*
X0124371Y0126225D01*
X0124371Y0125375D01*
X0123946Y0124950D01*
X0122245Y0124950D01*
X0121820Y0125375D01*
X0121820Y0126225D01*
X0122245Y0126651D01*
X0114923Y0126225D02*
X0114923Y0125375D01*
X0114497Y0124950D01*
X0112796Y0124950D01*
X0112371Y0125375D01*
X0112371Y0126225D01*
X0112796Y0126651D01*
X0112371Y0127850D02*
X0112371Y0129551D01*
X0112371Y0128700D02*
X0114923Y0128700D01*
X0114072Y0127850D01*
X0114497Y0126651D02*
X0114923Y0126225D01*
X0114497Y0130750D02*
X0114072Y0130750D01*
X0113647Y0131175D01*
X0113647Y0132026D01*
X0113221Y0132451D01*
X0112796Y0132451D01*
X0112371Y0132026D01*
X0112371Y0131175D01*
X0112796Y0130750D01*
X0113221Y0130750D01*
X0113647Y0131175D01*
X0113647Y0132026D02*
X0114072Y0132451D01*
X0114497Y0132451D01*
X0114923Y0132026D01*
X0114923Y0131175D01*
X0114497Y0130750D01*
X0120276Y0152509D02*
X0119851Y0152934D01*
X0119851Y0153785D01*
X0120276Y0154210D01*
X0120276Y0155409D02*
X0119851Y0155409D01*
X0120276Y0155409D02*
X0121978Y0157110D01*
X0122403Y0157110D01*
X0122403Y0155409D01*
X0121978Y0154210D02*
X0122403Y0153785D01*
X0122403Y0152934D01*
X0121978Y0152509D01*
X0120276Y0152509D01*
X0097994Y0153721D02*
X0097568Y0153296D01*
X0095867Y0153296D01*
X0095442Y0153721D01*
X0095442Y0154572D01*
X0095867Y0154997D01*
X0095442Y0156196D02*
X0095442Y0157897D01*
X0095442Y0157047D02*
X0097994Y0157047D01*
X0097143Y0156196D01*
X0097568Y0154997D02*
X0097994Y0154572D01*
X0097994Y0153721D01*
X0097994Y0159096D02*
X0097994Y0160797D01*
X0097568Y0160797D01*
X0095867Y0159096D01*
X0095442Y0159096D01*
X0116524Y0177764D02*
X0117727Y0177764D01*
X0117727Y0176561D01*
X0119532Y0178366D01*
X0120079Y0177217D02*
X0120680Y0177217D01*
X0121282Y0176616D01*
X0121282Y0176014D01*
X0119778Y0174510D01*
X0120626Y0173663D02*
X0123633Y0174264D01*
X0122430Y0175467D02*
X0121829Y0172460D01*
X0118575Y0175713D02*
X0120079Y0177217D01*
X0118329Y0179568D02*
X0116524Y0177764D01*
X0122920Y0179773D02*
X0124123Y0180976D01*
X0122920Y0180976D02*
X0124123Y0179773D01*
X0124670Y0178625D02*
X0124670Y0177422D01*
X0126475Y0179226D01*
X0127076Y0178625D02*
X0125873Y0179828D01*
X0127623Y0177476D02*
X0128225Y0177476D01*
X0128826Y0176875D01*
X0128826Y0176273D01*
X0128525Y0175973D01*
X0127924Y0175973D01*
X0127623Y0176273D01*
X0127924Y0175973D02*
X0127924Y0175371D01*
X0127623Y0175070D01*
X0127022Y0175070D01*
X0126420Y0175672D01*
X0126420Y0176273D01*
X0128170Y0173922D02*
X0129373Y0175125D01*
X0130576Y0175125D01*
X0130576Y0173922D01*
X0129373Y0172719D01*
X0133559Y0175817D02*
X0134461Y0176719D01*
X0134762Y0175817D01*
X0135062Y0175516D01*
X0135664Y0175516D01*
X0136265Y0176118D01*
X0136265Y0176719D01*
X0135664Y0177321D01*
X0135062Y0177321D01*
X0133613Y0177567D02*
X0132410Y0178770D01*
X0132410Y0177567D02*
X0133613Y0178770D01*
X0133559Y0175817D02*
X0134762Y0174614D01*
X0135609Y0173766D02*
X0136812Y0174969D01*
X0138015Y0174969D01*
X0138015Y0173766D01*
X0136812Y0172563D01*
X0140395Y0176728D02*
X0142200Y0178532D01*
X0142801Y0177931D02*
X0141598Y0179134D01*
X0140395Y0177931D02*
X0140395Y0176728D01*
X0142145Y0175579D02*
X0142145Y0174978D01*
X0142747Y0174376D01*
X0143348Y0174376D01*
X0143649Y0174677D01*
X0143649Y0175279D01*
X0144250Y0175279D01*
X0144551Y0175579D01*
X0144551Y0176181D01*
X0143950Y0176782D01*
X0143348Y0176782D01*
X0143348Y0175579D02*
X0143649Y0175279D01*
X0145098Y0174431D02*
X0146301Y0174431D01*
X0146301Y0173228D01*
X0145098Y0172025D01*
X0143895Y0173228D02*
X0145098Y0174431D01*
X0139848Y0179079D02*
X0138645Y0180282D01*
X0143104Y0185197D02*
X0143706Y0185197D01*
X0143706Y0187602D01*
X0142503Y0186399D01*
X0142503Y0185798D01*
X0143104Y0185197D01*
X0143706Y0185197D02*
X0144908Y0186399D01*
X0144908Y0187001D01*
X0144307Y0187602D01*
X0143706Y0187602D01*
X0142858Y0188450D02*
X0142557Y0188149D01*
X0141956Y0188149D01*
X0141354Y0188751D01*
X0140753Y0188751D01*
X0140452Y0188450D01*
X0140452Y0187849D01*
X0141053Y0187247D01*
X0141655Y0187247D01*
X0141956Y0187548D01*
X0141956Y0188149D01*
X0141354Y0188751D02*
X0141354Y0189352D01*
X0141655Y0189653D01*
X0142256Y0189653D01*
X0142858Y0189052D01*
X0142858Y0188450D01*
X0144253Y0184048D02*
X0145455Y0182845D01*
X0144854Y0183447D02*
X0146658Y0185251D01*
X0146658Y0184048D01*
X0147807Y0183501D02*
X0148408Y0183501D01*
X0149010Y0182900D01*
X0149010Y0182298D01*
X0147807Y0181095D01*
X0147205Y0181095D01*
X0146604Y0181697D01*
X0146604Y0182298D01*
X0151536Y0187788D02*
X0150935Y0188390D01*
X0150935Y0188991D01*
X0149786Y0189538D02*
X0148583Y0190741D01*
X0149185Y0190139D02*
X0150989Y0191944D01*
X0150989Y0190741D01*
X0152138Y0190194D02*
X0152739Y0190194D01*
X0153341Y0189592D01*
X0153341Y0188991D01*
X0152138Y0187788D01*
X0151536Y0187788D01*
X0148036Y0191889D02*
X0148036Y0194295D01*
X0146833Y0193092D01*
X0146833Y0192491D01*
X0147435Y0191889D01*
X0148036Y0191889D01*
X0149239Y0193092D01*
X0149239Y0193694D01*
X0148638Y0194295D01*
X0148036Y0194295D01*
X0147489Y0195444D02*
X0146587Y0194542D01*
X0146286Y0195444D01*
X0145986Y0195744D01*
X0145384Y0195744D01*
X0144783Y0195143D01*
X0144783Y0194542D01*
X0145384Y0193940D01*
X0145986Y0193940D01*
X0147489Y0195444D02*
X0146286Y0196647D01*
X0153838Y0197691D02*
X0154439Y0197090D01*
X0155041Y0197090D01*
X0155341Y0197390D01*
X0155341Y0197992D01*
X0154740Y0198593D01*
X0154138Y0198593D01*
X0153838Y0198293D01*
X0153838Y0197691D01*
X0154740Y0198593D02*
X0154740Y0199195D01*
X0155041Y0199496D01*
X0155642Y0199496D01*
X0156244Y0198894D01*
X0156244Y0198293D01*
X0155943Y0197992D01*
X0155341Y0197992D01*
X0156189Y0196543D02*
X0155888Y0196242D01*
X0155888Y0195641D01*
X0156490Y0195039D01*
X0157091Y0195039D01*
X0157392Y0195340D01*
X0157392Y0195941D01*
X0156791Y0196543D01*
X0156189Y0196543D01*
X0156791Y0196543D02*
X0156791Y0197144D01*
X0157091Y0197445D01*
X0157693Y0197445D01*
X0158294Y0196843D01*
X0158294Y0196242D01*
X0157994Y0195941D01*
X0157392Y0195941D01*
X0157939Y0194191D02*
X0157939Y0193590D01*
X0158541Y0192988D01*
X0159142Y0192988D01*
X0160345Y0194191D01*
X0160345Y0194793D01*
X0159743Y0195394D01*
X0159142Y0195394D01*
X0175029Y0180155D02*
X0175630Y0180756D01*
X0176232Y0180756D01*
X0176532Y0180456D01*
X0176532Y0179854D01*
X0175630Y0178952D01*
X0175029Y0179553D02*
X0176232Y0178350D01*
X0176833Y0178350D01*
X0177435Y0178952D01*
X0177435Y0179553D01*
X0178282Y0180401D02*
X0178884Y0180401D01*
X0179485Y0181003D01*
X0179485Y0181604D01*
X0178282Y0182807D01*
X0177681Y0182807D01*
X0177079Y0182205D01*
X0177079Y0181604D01*
X0175029Y0180155D02*
X0175029Y0179553D01*
X0174181Y0178706D02*
X0174482Y0178405D01*
X0174482Y0177803D01*
X0173580Y0176901D01*
X0174181Y0176300D02*
X0172978Y0177503D01*
X0172978Y0178104D01*
X0173580Y0178706D01*
X0174181Y0178706D01*
X0175384Y0177503D02*
X0175384Y0176901D01*
X0174782Y0176300D01*
X0174181Y0176300D01*
X0176974Y0169482D02*
X0177576Y0169482D01*
X0178779Y0168279D01*
X0178779Y0167678D01*
X0178177Y0167076D01*
X0177576Y0167076D01*
X0177029Y0165928D02*
X0175826Y0164725D01*
X0176427Y0165326D02*
X0174623Y0167131D01*
X0175826Y0167131D01*
X0176373Y0168279D02*
X0176373Y0168881D01*
X0176974Y0169482D01*
X0173475Y0165381D02*
X0172873Y0165381D01*
X0172272Y0164779D01*
X0172272Y0164178D01*
X0174677Y0164178D01*
X0174677Y0163576D01*
X0174076Y0162975D01*
X0173475Y0162975D01*
X0172272Y0164178D01*
X0171424Y0163330D02*
X0170822Y0163330D01*
X0170221Y0162729D01*
X0170221Y0162127D01*
X0170522Y0161826D01*
X0171123Y0161826D01*
X0171123Y0161225D01*
X0171424Y0160924D01*
X0172025Y0160924D01*
X0172627Y0161526D01*
X0172627Y0162127D01*
X0171424Y0162127D02*
X0171123Y0161826D01*
X0170325Y0158565D02*
X0169474Y0158565D01*
X0169049Y0158139D01*
X0169049Y0156438D01*
X0169474Y0156013D01*
X0170325Y0156013D01*
X0170750Y0156438D01*
X0170325Y0157289D02*
X0169049Y0157289D01*
X0170325Y0157289D02*
X0170750Y0157714D01*
X0170750Y0158139D01*
X0170325Y0158565D01*
X0171949Y0158139D02*
X0172374Y0158565D01*
X0173225Y0158565D01*
X0173650Y0158139D01*
X0173650Y0156438D01*
X0173225Y0156013D01*
X0172374Y0156013D01*
X0171949Y0156438D01*
X0167850Y0156438D02*
X0167424Y0156013D01*
X0166574Y0156013D01*
X0166149Y0156438D01*
X0166149Y0156863D01*
X0166574Y0157289D01*
X0166999Y0157289D01*
X0166574Y0157289D02*
X0166149Y0157714D01*
X0166149Y0158139D01*
X0166574Y0158565D01*
X0167424Y0158565D01*
X0167850Y0158139D01*
X0174677Y0164178D02*
X0173475Y0165381D01*
X0183316Y0151017D02*
X0182891Y0150592D01*
X0182891Y0150167D01*
X0183316Y0149741D01*
X0184167Y0149741D01*
X0184592Y0150167D01*
X0184592Y0150592D01*
X0184167Y0151017D01*
X0183316Y0151017D01*
X0183316Y0149741D02*
X0182891Y0149316D01*
X0182891Y0148891D01*
X0183316Y0148465D01*
X0184167Y0148465D01*
X0184592Y0148891D01*
X0184592Y0149316D01*
X0184167Y0149741D01*
X0185791Y0149741D02*
X0187492Y0149741D01*
X0186216Y0151017D01*
X0186216Y0148465D01*
X0188691Y0148465D02*
X0189542Y0149316D01*
X0189117Y0149316D02*
X0190392Y0149316D01*
X0190392Y0148465D02*
X0190392Y0151017D01*
X0189117Y0151017D01*
X0188691Y0150592D01*
X0188691Y0149741D01*
X0189117Y0149316D01*
X0188143Y0138025D02*
X0188568Y0137600D01*
X0188568Y0135899D01*
X0188143Y0135473D01*
X0187292Y0135473D01*
X0186867Y0135899D01*
X0185668Y0135473D02*
X0183967Y0135473D01*
X0184817Y0135473D02*
X0184817Y0138025D01*
X0185668Y0137174D01*
X0186867Y0137600D02*
X0187292Y0138025D01*
X0188143Y0138025D01*
X0182768Y0137600D02*
X0182343Y0138025D01*
X0181492Y0138025D01*
X0181067Y0137600D01*
X0182768Y0135899D01*
X0182343Y0135473D01*
X0181492Y0135473D01*
X0181067Y0135899D01*
X0181067Y0137600D01*
X0179868Y0137174D02*
X0179017Y0138025D01*
X0179017Y0135473D01*
X0178167Y0135473D02*
X0179868Y0135473D01*
X0182768Y0135899D02*
X0182768Y0137600D01*
X0177412Y0144261D02*
X0176562Y0144261D01*
X0176137Y0144686D01*
X0174938Y0144686D02*
X0174938Y0145111D01*
X0174512Y0145537D01*
X0173662Y0145537D01*
X0173237Y0145111D01*
X0173237Y0144686D01*
X0173662Y0144261D01*
X0174512Y0144261D01*
X0174938Y0144686D01*
X0174512Y0145537D02*
X0174938Y0145962D01*
X0174938Y0146387D01*
X0174512Y0146812D01*
X0173662Y0146812D01*
X0173237Y0146387D01*
X0173237Y0145962D01*
X0173662Y0145537D01*
X0172038Y0146387D02*
X0171612Y0146812D01*
X0170762Y0146812D01*
X0170336Y0146387D01*
X0170336Y0145962D01*
X0170762Y0145537D01*
X0170336Y0145111D01*
X0170336Y0144686D01*
X0170762Y0144261D01*
X0171612Y0144261D01*
X0172038Y0144686D01*
X0171187Y0145537D02*
X0170762Y0145537D01*
X0176137Y0146387D02*
X0176562Y0146812D01*
X0177412Y0146812D01*
X0177838Y0146387D01*
X0177838Y0144686D01*
X0177412Y0144261D01*
X0155899Y0143854D02*
X0155899Y0145555D01*
X0155474Y0145555D01*
X0153773Y0143854D01*
X0153347Y0143854D01*
X0153773Y0142655D02*
X0153347Y0142229D01*
X0153347Y0141379D01*
X0153773Y0140954D01*
X0155474Y0140954D01*
X0155899Y0141379D01*
X0155899Y0142229D01*
X0155474Y0142655D01*
X0155899Y0146754D02*
X0155899Y0148455D01*
X0155474Y0148455D01*
X0153773Y0146754D01*
X0153347Y0146754D01*
X0189743Y0126245D02*
X0189743Y0123694D01*
X0155867Y0089794D02*
X0155442Y0089794D01*
X0153741Y0088092D01*
X0153741Y0089794D01*
X0155867Y0089794D02*
X0156293Y0089368D01*
X0156293Y0088518D01*
X0155867Y0088092D01*
X0156293Y0086893D02*
X0155867Y0086043D01*
X0155017Y0085192D01*
X0155017Y0086468D01*
X0154592Y0086893D01*
X0154166Y0086893D01*
X0153741Y0086468D01*
X0153741Y0085618D01*
X0154166Y0085192D01*
X0155017Y0085192D01*
X0155867Y0083993D02*
X0156293Y0083568D01*
X0156293Y0082717D01*
X0155867Y0082292D01*
X0154166Y0082292D01*
X0153741Y0082717D01*
X0153741Y0083568D01*
X0154166Y0083993D01*
X0167489Y0080845D02*
X0167489Y0079994D01*
X0167914Y0079569D01*
X0168765Y0079569D02*
X0169190Y0080419D01*
X0169190Y0080845D01*
X0168765Y0081270D01*
X0167914Y0081270D01*
X0167489Y0080845D01*
X0168765Y0079569D02*
X0170041Y0079569D01*
X0170041Y0081270D01*
X0169615Y0078370D02*
X0169190Y0078370D01*
X0168765Y0077945D01*
X0168765Y0077094D01*
X0169190Y0076669D01*
X0169615Y0076669D01*
X0170041Y0077094D01*
X0170041Y0077945D01*
X0169615Y0078370D01*
X0168765Y0077945D02*
X0168340Y0078370D01*
X0167914Y0078370D01*
X0167489Y0077945D01*
X0167489Y0077094D01*
X0167914Y0076669D01*
X0168340Y0076669D01*
X0168765Y0077094D01*
X0169615Y0075470D02*
X0170041Y0075044D01*
X0170041Y0074194D01*
X0169615Y0073769D01*
X0167914Y0073769D01*
X0167489Y0074194D01*
X0167489Y0075044D01*
X0167914Y0075470D01*
X0227817Y0088749D02*
X0229518Y0088749D01*
X0228667Y0088749D02*
X0228667Y0091301D01*
X0229518Y0090450D01*
X0230717Y0090450D02*
X0231142Y0090025D01*
X0231993Y0090025D01*
X0232418Y0090450D01*
X0232418Y0090875D01*
X0231993Y0091301D01*
X0231142Y0091301D01*
X0230717Y0090875D01*
X0230717Y0090450D01*
X0231142Y0090025D02*
X0230717Y0089599D01*
X0230717Y0089174D01*
X0231142Y0088749D01*
X0231993Y0088749D01*
X0232418Y0089174D01*
X0232418Y0089599D01*
X0231993Y0090025D01*
X0233617Y0090025D02*
X0234042Y0089599D01*
X0235318Y0089599D01*
X0235318Y0088749D02*
X0235318Y0091301D01*
X0234042Y0091301D01*
X0233617Y0090875D01*
X0233617Y0090025D01*
X0234468Y0089599D02*
X0233617Y0088749D01*
X0255864Y0089080D02*
X0256289Y0088654D01*
X0257139Y0088654D01*
X0257565Y0089080D01*
X0255864Y0090781D01*
X0255864Y0089080D01*
X0257565Y0089080D02*
X0257565Y0090781D01*
X0257139Y0091206D01*
X0256289Y0091206D01*
X0255864Y0090781D01*
X0258764Y0090781D02*
X0258764Y0090356D01*
X0259189Y0089930D01*
X0260040Y0089930D01*
X0260465Y0090356D01*
X0260465Y0090781D01*
X0260040Y0091206D01*
X0259189Y0091206D01*
X0258764Y0090781D01*
X0259189Y0089930D02*
X0258764Y0089505D01*
X0258764Y0089080D01*
X0259189Y0088654D01*
X0260040Y0088654D01*
X0260465Y0089080D01*
X0260465Y0089505D01*
X0260040Y0089930D01*
X0261664Y0089930D02*
X0262089Y0089505D01*
X0263365Y0089505D01*
X0263365Y0088654D02*
X0263365Y0091206D01*
X0262089Y0091206D01*
X0261664Y0090781D01*
X0261664Y0089930D01*
X0262514Y0089505D02*
X0261664Y0088654D01*
X0195362Y0169366D02*
X0194761Y0169366D01*
X0194160Y0169968D01*
X0194160Y0170569D01*
X0193312Y0171417D02*
X0192710Y0171417D01*
X0192109Y0172018D01*
X0192109Y0172620D01*
X0193312Y0173823D01*
X0193913Y0173823D01*
X0194515Y0173221D01*
X0194515Y0172620D01*
X0194214Y0172319D01*
X0193613Y0172319D01*
X0192710Y0173221D01*
X0191863Y0174069D02*
X0190960Y0174971D01*
X0190359Y0174971D01*
X0190058Y0174671D01*
X0190058Y0174069D01*
X0190660Y0173468D01*
X0191261Y0173468D01*
X0191863Y0174069D01*
X0191863Y0175272D01*
X0191562Y0176174D01*
X0195362Y0171772D02*
X0195964Y0171772D01*
X0196565Y0171171D01*
X0196565Y0170569D01*
X0195362Y0169366D01*
X0215370Y0186630D02*
X0237417Y0186630D01*
X0232071Y0189551D02*
X0221189Y0189551D01*
X0221189Y0193551D01*
X0232071Y0193551D01*
X0232071Y0189551D01*
X0227790Y0184824D02*
X0228216Y0184399D01*
X0228216Y0183974D01*
X0227790Y0183548D01*
X0226940Y0183548D01*
X0226515Y0183123D01*
X0226515Y0182698D01*
X0226940Y0182272D01*
X0227790Y0182272D01*
X0228216Y0182698D01*
X0227790Y0184824D02*
X0226940Y0184824D01*
X0226515Y0184399D01*
X0225316Y0183974D02*
X0224465Y0184824D01*
X0224465Y0182272D01*
X0225316Y0182272D02*
X0223614Y0182272D01*
X0208318Y0192276D02*
X0207892Y0191851D01*
X0207042Y0191851D01*
X0206616Y0192276D01*
X0205418Y0192276D02*
X0205418Y0191851D01*
X0205418Y0192276D02*
X0203716Y0193978D01*
X0203716Y0194403D01*
X0205418Y0194403D01*
X0206616Y0193978D02*
X0207042Y0194403D01*
X0207892Y0194403D01*
X0208318Y0193978D01*
X0208318Y0192276D01*
X0216045Y0194076D02*
X0216045Y0196627D01*
X0217746Y0196627D02*
X0216045Y0194076D01*
X0217746Y0194076D02*
X0217746Y0196627D01*
X0218945Y0196202D02*
X0219370Y0196627D01*
X0220221Y0196627D01*
X0220646Y0196202D01*
X0220646Y0194501D01*
X0220221Y0194076D01*
X0219370Y0194076D01*
X0218945Y0194501D01*
X0218945Y0196202D01*
X0222457Y0196472D02*
X0237417Y0196472D01*
X0246135Y0196945D02*
X0248686Y0196945D01*
X0247411Y0195669D01*
X0247411Y0197370D01*
X0247411Y0198569D02*
X0247411Y0199845D01*
X0246985Y0200270D01*
X0246560Y0200270D01*
X0246135Y0199845D01*
X0246135Y0198994D01*
X0246560Y0198569D01*
X0247411Y0198569D01*
X0248261Y0199420D01*
X0248686Y0200270D01*
X0248261Y0194470D02*
X0248686Y0194045D01*
X0248686Y0193194D01*
X0248261Y0192769D01*
X0246560Y0192769D01*
X0246135Y0193194D01*
X0246135Y0194045D01*
X0246560Y0194470D01*
X0256970Y0188592D02*
X0258246Y0187316D01*
X0256545Y0187316D01*
X0256970Y0186040D02*
X0256970Y0188592D01*
X0259445Y0188167D02*
X0259445Y0187741D01*
X0259870Y0187316D01*
X0259445Y0186891D01*
X0259445Y0186465D01*
X0259870Y0186040D01*
X0260721Y0186040D01*
X0261146Y0186465D01*
X0262345Y0186465D02*
X0262771Y0186040D01*
X0263621Y0186040D01*
X0264046Y0186465D01*
X0264046Y0188167D01*
X0263621Y0188592D01*
X0262771Y0188592D01*
X0262345Y0188167D01*
X0261146Y0188167D02*
X0260721Y0188592D01*
X0259870Y0188592D01*
X0259445Y0188167D01*
X0259870Y0187316D02*
X0260296Y0187316D01*
X0284615Y0206914D02*
X0286317Y0206914D01*
X0285466Y0206914D02*
X0285466Y0209466D01*
X0286317Y0208615D01*
X0287516Y0208190D02*
X0288791Y0208190D01*
X0289217Y0208615D01*
X0289217Y0209041D01*
X0288791Y0209466D01*
X0287941Y0209466D01*
X0287516Y0209041D01*
X0287516Y0207339D01*
X0287941Y0206914D01*
X0288791Y0206914D01*
X0289217Y0207339D01*
X0290416Y0207339D02*
X0290841Y0206914D01*
X0291692Y0206914D01*
X0292117Y0207339D01*
X0292117Y0209041D01*
X0291692Y0209466D01*
X0290841Y0209466D01*
X0290416Y0209041D01*
X0284428Y0214867D02*
X0284003Y0214442D01*
X0283152Y0214442D01*
X0282727Y0214867D01*
X0281528Y0214867D02*
X0281528Y0215292D01*
X0281102Y0215718D01*
X0280252Y0215718D01*
X0279827Y0215292D01*
X0279827Y0214867D01*
X0280252Y0214442D01*
X0281102Y0214442D01*
X0281528Y0214867D01*
X0281102Y0215718D02*
X0281528Y0216143D01*
X0281528Y0216568D01*
X0281102Y0216994D01*
X0280252Y0216994D01*
X0279827Y0216568D01*
X0279827Y0216143D01*
X0280252Y0215718D01*
X0278628Y0215718D02*
X0277352Y0215718D01*
X0276927Y0215292D01*
X0276927Y0214867D01*
X0277352Y0214442D01*
X0278202Y0214442D01*
X0278628Y0214867D01*
X0278628Y0215718D01*
X0277777Y0216568D01*
X0276927Y0216994D01*
X0276927Y0219363D02*
X0278628Y0219363D01*
X0277777Y0219363D02*
X0277777Y0221915D01*
X0278628Y0221064D01*
X0279827Y0220639D02*
X0281528Y0220639D01*
X0280252Y0221915D01*
X0280252Y0219363D01*
X0282727Y0219788D02*
X0283152Y0219363D01*
X0284003Y0219363D01*
X0284428Y0219788D01*
X0284428Y0221489D01*
X0284003Y0221915D01*
X0283152Y0221915D01*
X0282727Y0221489D01*
X0284812Y0227312D02*
X0287364Y0227312D01*
X0287364Y0228588D01*
X0286938Y0229013D01*
X0286088Y0229013D01*
X0285662Y0228588D01*
X0285662Y0227312D01*
X0285662Y0228162D02*
X0284812Y0229013D01*
X0286088Y0230212D02*
X0286088Y0231913D01*
X0287364Y0231488D02*
X0286088Y0230212D01*
X0284812Y0231488D02*
X0287364Y0231488D01*
X0286938Y0233112D02*
X0287364Y0233537D01*
X0287364Y0234388D01*
X0286938Y0234813D01*
X0285237Y0233112D01*
X0284812Y0233537D01*
X0284812Y0234388D01*
X0285237Y0234813D01*
X0286938Y0234813D01*
X0286938Y0233112D02*
X0285237Y0233112D01*
X0277144Y0234946D02*
X0276719Y0234520D01*
X0275869Y0234520D01*
X0275443Y0234946D01*
X0274244Y0234946D02*
X0273819Y0234520D01*
X0272968Y0234520D01*
X0272543Y0234946D01*
X0272543Y0235371D01*
X0272968Y0235796D01*
X0274244Y0235796D01*
X0274244Y0234946D01*
X0274244Y0235796D02*
X0273394Y0236647D01*
X0272543Y0237072D01*
X0271344Y0236647D02*
X0270919Y0237072D01*
X0270068Y0237072D01*
X0269643Y0236647D01*
X0271344Y0234946D01*
X0270919Y0234520D01*
X0270068Y0234520D01*
X0269643Y0234946D01*
X0269643Y0236647D01*
X0271344Y0236647D02*
X0271344Y0234946D01*
X0275443Y0236647D02*
X0275869Y0237072D01*
X0276719Y0237072D01*
X0277144Y0236647D01*
X0277144Y0234946D01*
X0289616Y0246670D02*
X0291317Y0246670D01*
X0290467Y0246670D02*
X0290467Y0249222D01*
X0291317Y0248371D01*
X0292516Y0248797D02*
X0294217Y0247095D01*
X0294217Y0246670D01*
X0295416Y0247095D02*
X0295841Y0246670D01*
X0296692Y0246670D01*
X0297117Y0247095D01*
X0297117Y0248797D01*
X0296692Y0249222D01*
X0295841Y0249222D01*
X0295416Y0248797D01*
X0294217Y0249222D02*
X0292516Y0249222D01*
X0292516Y0248797D01*
X0297591Y0261550D02*
X0297166Y0261975D01*
X0297166Y0262826D01*
X0297591Y0263251D01*
X0297166Y0264450D02*
X0297166Y0266151D01*
X0297166Y0265301D02*
X0299718Y0265301D01*
X0298867Y0264450D01*
X0299293Y0263251D02*
X0299718Y0262826D01*
X0299718Y0261975D01*
X0299293Y0261550D01*
X0297591Y0261550D01*
X0302284Y0261582D02*
X0302284Y0262432D01*
X0302710Y0262857D01*
X0302284Y0264056D02*
X0302284Y0265758D01*
X0302284Y0264907D02*
X0304836Y0264907D01*
X0303985Y0264056D01*
X0304411Y0262857D02*
X0304836Y0262432D01*
X0304836Y0261582D01*
X0304411Y0261156D01*
X0302710Y0261156D01*
X0302284Y0261582D01*
X0302710Y0266956D02*
X0302284Y0267382D01*
X0302284Y0268232D01*
X0302710Y0268658D01*
X0303135Y0268658D01*
X0303560Y0268232D01*
X0303560Y0267807D01*
X0303560Y0268232D02*
X0303985Y0268658D01*
X0304411Y0268658D01*
X0304836Y0268232D01*
X0304836Y0267382D01*
X0304411Y0266956D01*
X0304411Y0269857D02*
X0303985Y0269857D01*
X0303560Y0270282D01*
X0303560Y0271132D01*
X0303135Y0271558D01*
X0302710Y0271558D01*
X0302284Y0271132D01*
X0302284Y0270282D01*
X0302710Y0269857D01*
X0303135Y0269857D01*
X0303560Y0270282D01*
X0303560Y0271132D02*
X0303985Y0271558D01*
X0304411Y0271558D01*
X0304836Y0271132D01*
X0304836Y0270282D01*
X0304411Y0269857D01*
X0299718Y0270250D02*
X0299718Y0271951D01*
X0299293Y0271951D01*
X0297591Y0270250D01*
X0297166Y0270250D01*
X0297591Y0269051D02*
X0297166Y0268626D01*
X0297166Y0267775D01*
X0297591Y0267350D01*
X0298442Y0268201D02*
X0298442Y0268626D01*
X0298017Y0269051D01*
X0297591Y0269051D01*
X0298442Y0268626D02*
X0298867Y0269051D01*
X0299293Y0269051D01*
X0299718Y0268626D01*
X0299718Y0267775D01*
X0299293Y0267350D01*
X0275308Y0262510D02*
X0274033Y0261234D01*
X0274033Y0262935D01*
X0275308Y0262510D02*
X0272757Y0262510D01*
X0273182Y0260035D02*
X0273607Y0260035D01*
X0274033Y0259610D01*
X0274033Y0258334D01*
X0273182Y0258334D01*
X0272757Y0258759D01*
X0272757Y0259610D01*
X0273182Y0260035D01*
X0274883Y0259185D02*
X0274033Y0258334D01*
X0274883Y0259185D02*
X0275308Y0260035D01*
X0274883Y0257135D02*
X0275308Y0256710D01*
X0275308Y0255859D01*
X0274883Y0255434D01*
X0273182Y0255434D01*
X0272757Y0255859D01*
X0272757Y0256710D01*
X0273182Y0257135D01*
X0266045Y0256627D02*
X0263493Y0256627D01*
X0263493Y0258328D01*
X0263493Y0259527D02*
X0263493Y0261228D01*
X0263493Y0260377D02*
X0266045Y0260377D01*
X0265194Y0259527D01*
X0265194Y0262427D02*
X0266045Y0263278D01*
X0263493Y0263278D01*
X0263493Y0264128D02*
X0263493Y0262427D01*
X0255976Y0264418D02*
X0255976Y0266119D01*
X0255550Y0266545D01*
X0254700Y0266545D01*
X0254274Y0266119D01*
X0253075Y0265694D02*
X0252225Y0266545D01*
X0252225Y0263993D01*
X0253075Y0263993D02*
X0251374Y0263993D01*
X0254274Y0264418D02*
X0254700Y0263993D01*
X0255550Y0263993D01*
X0255976Y0264418D01*
X0247457Y0259572D02*
X0247457Y0257020D01*
X0245756Y0257020D01*
X0244557Y0257446D02*
X0244132Y0257020D01*
X0243281Y0257020D01*
X0242856Y0257446D01*
X0242856Y0257871D01*
X0243281Y0258296D01*
X0243706Y0258296D01*
X0243281Y0258296D02*
X0242856Y0258722D01*
X0242856Y0259147D01*
X0243281Y0259572D01*
X0244132Y0259572D01*
X0244557Y0259147D01*
X0243769Y0261091D02*
X0241217Y0261091D01*
X0241217Y0262793D01*
X0241217Y0263991D02*
X0241217Y0265693D01*
X0241217Y0264842D02*
X0243769Y0264842D01*
X0242919Y0263991D01*
X0243344Y0266892D02*
X0243769Y0267317D01*
X0243769Y0268167D01*
X0243344Y0268593D01*
X0242919Y0268593D01*
X0242493Y0268167D01*
X0242068Y0268593D01*
X0241643Y0268593D01*
X0241217Y0268167D01*
X0241217Y0267317D01*
X0241643Y0266892D01*
X0242493Y0267742D02*
X0242493Y0268167D01*
X0237316Y0267962D02*
X0235190Y0267962D01*
X0234765Y0267537D01*
X0234765Y0266686D01*
X0235190Y0266261D01*
X0237316Y0266261D01*
X0236891Y0269161D02*
X0237316Y0269586D01*
X0237316Y0270437D01*
X0236891Y0270862D01*
X0236466Y0270862D01*
X0234765Y0269161D01*
X0234765Y0270862D01*
X0236040Y0272061D02*
X0236040Y0273762D01*
X0234765Y0273337D02*
X0237316Y0273337D01*
X0236040Y0272061D01*
X0219558Y0257852D02*
X0219558Y0256150D01*
X0219133Y0255725D01*
X0218282Y0255725D01*
X0217857Y0256150D01*
X0216658Y0255725D02*
X0214957Y0255725D01*
X0215808Y0255725D02*
X0215808Y0258277D01*
X0216658Y0257426D01*
X0217857Y0257852D02*
X0218282Y0258277D01*
X0219133Y0258277D01*
X0219558Y0257852D01*
X0213758Y0257852D02*
X0213333Y0258277D01*
X0212482Y0258277D01*
X0212057Y0257852D01*
X0213758Y0256150D01*
X0213333Y0255725D01*
X0212482Y0255725D01*
X0212057Y0256150D01*
X0212057Y0257852D01*
X0210858Y0257001D02*
X0209582Y0257001D01*
X0209157Y0256576D01*
X0209157Y0256150D01*
X0209582Y0255725D01*
X0210433Y0255725D01*
X0210858Y0256150D01*
X0210858Y0257001D01*
X0210007Y0257852D01*
X0209157Y0258277D01*
X0213758Y0257852D02*
X0213758Y0256150D01*
X0208089Y0263997D02*
X0207239Y0263997D01*
X0206813Y0264422D01*
X0205614Y0264422D02*
X0205614Y0264847D01*
X0205189Y0265273D01*
X0204339Y0265273D01*
X0203913Y0264847D01*
X0203913Y0264422D01*
X0204339Y0263997D01*
X0205189Y0263997D01*
X0205614Y0264422D01*
X0205189Y0265273D02*
X0205614Y0265698D01*
X0205614Y0266123D01*
X0205189Y0266549D01*
X0204339Y0266549D01*
X0203913Y0266123D01*
X0203913Y0265698D01*
X0204339Y0265273D01*
X0202714Y0264422D02*
X0201013Y0266123D01*
X0201013Y0266549D01*
X0202714Y0266549D01*
X0202218Y0268576D02*
X0202643Y0269001D01*
X0202218Y0268576D02*
X0201368Y0268576D01*
X0200942Y0269001D01*
X0200942Y0269426D01*
X0201368Y0269851D01*
X0201793Y0269851D01*
X0201368Y0269851D02*
X0200942Y0270277D01*
X0200942Y0270702D01*
X0201368Y0271127D01*
X0202218Y0271127D01*
X0202643Y0270702D01*
X0203842Y0269851D02*
X0205544Y0269851D01*
X0204268Y0271127D01*
X0204268Y0268576D01*
X0206742Y0269001D02*
X0207168Y0268576D01*
X0208018Y0268576D01*
X0208444Y0269001D01*
X0208444Y0270702D01*
X0208018Y0271127D01*
X0207168Y0271127D01*
X0206742Y0270702D01*
X0207239Y0266549D02*
X0208089Y0266549D01*
X0208515Y0266123D01*
X0208515Y0264422D01*
X0208089Y0263997D01*
X0206813Y0266123D02*
X0207239Y0266549D01*
X0202714Y0264422D02*
X0202714Y0263997D01*
X0192301Y0274765D02*
X0190599Y0274765D01*
X0190174Y0275190D01*
X0190174Y0276040D01*
X0190599Y0276466D01*
X0190599Y0277665D02*
X0190174Y0278090D01*
X0190174Y0278941D01*
X0190599Y0279366D01*
X0191025Y0279366D01*
X0191450Y0278941D01*
X0191450Y0278515D01*
X0191450Y0278941D02*
X0191875Y0279366D01*
X0192301Y0279366D01*
X0192726Y0278941D01*
X0192726Y0278090D01*
X0192301Y0277665D01*
X0192301Y0276466D02*
X0192726Y0276040D01*
X0192726Y0275190D01*
X0192301Y0274765D01*
X0192726Y0280565D02*
X0192726Y0282266D01*
X0192301Y0282266D01*
X0190599Y0280565D01*
X0190174Y0280565D01*
X0185749Y0284172D02*
X0185323Y0283747D01*
X0183622Y0283747D01*
X0183197Y0284172D01*
X0183197Y0285022D01*
X0183622Y0285448D01*
X0183622Y0286647D02*
X0183197Y0287072D01*
X0183197Y0287923D01*
X0183622Y0288348D01*
X0184047Y0288348D01*
X0184473Y0287923D01*
X0184473Y0286647D01*
X0183622Y0286647D01*
X0184473Y0286647D02*
X0185323Y0287497D01*
X0185749Y0288348D01*
X0184898Y0289547D02*
X0185749Y0290397D01*
X0183197Y0290397D01*
X0183197Y0289547D02*
X0183197Y0291248D01*
X0181310Y0290406D02*
X0180885Y0289981D01*
X0180034Y0289981D01*
X0179609Y0290406D01*
X0178410Y0291257D02*
X0176709Y0291257D01*
X0177134Y0292533D02*
X0178410Y0291257D01*
X0179609Y0292108D02*
X0180034Y0292533D01*
X0180885Y0292533D01*
X0181310Y0292108D01*
X0181310Y0290406D01*
X0177134Y0289981D02*
X0177134Y0292533D01*
X0173528Y0292004D02*
X0173528Y0290303D01*
X0173102Y0289878D01*
X0172252Y0289878D01*
X0171826Y0290303D01*
X0170627Y0289878D02*
X0168926Y0291579D01*
X0168926Y0292004D01*
X0169352Y0292429D01*
X0170202Y0292429D01*
X0170627Y0292004D01*
X0171826Y0292004D02*
X0172252Y0292429D01*
X0173102Y0292429D01*
X0173528Y0292004D01*
X0170627Y0289878D02*
X0168926Y0289878D01*
X0167727Y0290303D02*
X0167302Y0289878D01*
X0166451Y0289878D01*
X0166026Y0290303D01*
X0166026Y0291153D01*
X0166451Y0291579D01*
X0166877Y0291579D01*
X0167727Y0291153D01*
X0167727Y0292429D01*
X0166026Y0292429D01*
X0157196Y0293261D02*
X0156771Y0292835D01*
X0155920Y0292835D01*
X0155495Y0293261D01*
X0154296Y0293261D02*
X0153871Y0292835D01*
X0153020Y0292835D01*
X0152595Y0293261D01*
X0152595Y0294111D01*
X0153020Y0294537D01*
X0153445Y0294537D01*
X0154296Y0294111D01*
X0154296Y0295387D01*
X0152595Y0295387D01*
X0153020Y0296772D02*
X0153871Y0296772D01*
X0154296Y0297198D01*
X0154296Y0298048D02*
X0153445Y0298474D01*
X0153020Y0298474D01*
X0152595Y0298048D01*
X0152595Y0297198D01*
X0153020Y0296772D01*
X0151396Y0297198D02*
X0151396Y0297623D01*
X0150971Y0298048D01*
X0150120Y0298048D01*
X0149695Y0297623D01*
X0149695Y0297198D01*
X0150120Y0296772D01*
X0150971Y0296772D01*
X0151396Y0297198D01*
X0150971Y0298048D02*
X0151396Y0298474D01*
X0151396Y0298899D01*
X0150971Y0299324D01*
X0150120Y0299324D01*
X0149695Y0298899D01*
X0149695Y0298474D01*
X0150120Y0298048D01*
X0150120Y0295387D02*
X0151396Y0294111D01*
X0149695Y0294111D01*
X0150120Y0292835D02*
X0150120Y0295387D01*
X0150120Y0291450D02*
X0150971Y0291450D01*
X0151396Y0291025D01*
X0150120Y0291450D02*
X0149695Y0291025D01*
X0149695Y0290600D01*
X0151396Y0288898D01*
X0149695Y0288898D01*
X0150545Y0287513D02*
X0150545Y0284961D01*
X0149695Y0284961D02*
X0151396Y0284961D01*
X0151389Y0283965D02*
X0151389Y0282689D01*
X0150538Y0283114D01*
X0150113Y0283114D01*
X0149688Y0282689D01*
X0149688Y0281838D01*
X0150113Y0281413D01*
X0150963Y0281413D01*
X0151389Y0281838D01*
X0152588Y0281838D02*
X0152588Y0282264D01*
X0153013Y0282689D01*
X0154289Y0282689D01*
X0154289Y0281838D01*
X0153864Y0281413D01*
X0153013Y0281413D01*
X0152588Y0281838D01*
X0152595Y0280427D02*
X0154296Y0280427D01*
X0154296Y0279151D01*
X0153445Y0279576D01*
X0153020Y0279576D01*
X0152595Y0279151D01*
X0152595Y0278300D01*
X0153020Y0277875D01*
X0153871Y0277875D01*
X0154296Y0278300D01*
X0155495Y0278300D02*
X0155920Y0277875D01*
X0156771Y0277875D01*
X0157196Y0278300D01*
X0157196Y0280001D01*
X0156771Y0280427D01*
X0155920Y0280427D01*
X0155495Y0280001D01*
X0155913Y0281413D02*
X0155488Y0281838D01*
X0155913Y0281413D02*
X0156764Y0281413D01*
X0157189Y0281838D01*
X0157189Y0283539D01*
X0156764Y0283965D01*
X0155913Y0283965D01*
X0155488Y0283539D01*
X0154289Y0282689D02*
X0153438Y0283539D01*
X0152588Y0283965D01*
X0152595Y0284961D02*
X0154296Y0284961D01*
X0152595Y0286663D01*
X0152595Y0287088D01*
X0153020Y0287513D01*
X0153871Y0287513D01*
X0154296Y0287088D01*
X0155495Y0287088D02*
X0155920Y0287513D01*
X0156771Y0287513D01*
X0157196Y0287088D01*
X0157196Y0285387D01*
X0156771Y0284961D01*
X0155920Y0284961D01*
X0155495Y0285387D01*
X0155920Y0288898D02*
X0155495Y0289324D01*
X0155920Y0288898D02*
X0156771Y0288898D01*
X0157196Y0289324D01*
X0157196Y0291025D01*
X0156771Y0291450D01*
X0155920Y0291450D01*
X0155495Y0291025D01*
X0154296Y0290600D02*
X0153445Y0291450D01*
X0153445Y0288898D01*
X0152595Y0288898D02*
X0154296Y0288898D01*
X0151396Y0286663D02*
X0150545Y0287513D01*
X0151389Y0283965D02*
X0149688Y0283965D01*
X0150545Y0280427D02*
X0150545Y0277875D01*
X0149695Y0277875D02*
X0151396Y0277875D01*
X0150971Y0276490D02*
X0151396Y0276064D01*
X0151396Y0275639D01*
X0150971Y0275214D01*
X0149695Y0275214D01*
X0149695Y0276064D02*
X0149695Y0274363D01*
X0150120Y0273938D01*
X0150971Y0273938D01*
X0151396Y0274363D01*
X0152595Y0275214D02*
X0154296Y0275214D01*
X0153020Y0276490D01*
X0153020Y0273938D01*
X0155495Y0274363D02*
X0155920Y0273938D01*
X0156771Y0273938D01*
X0157196Y0274363D01*
X0157196Y0276064D01*
X0156771Y0276490D01*
X0155920Y0276490D01*
X0155495Y0276064D01*
X0150971Y0276490D02*
X0150120Y0276490D01*
X0149695Y0276064D01*
X0151396Y0279576D02*
X0150545Y0280427D01*
X0152367Y0270368D02*
X0152367Y0267817D01*
X0150665Y0267817D01*
X0149466Y0267817D02*
X0147765Y0267817D01*
X0148616Y0267817D02*
X0148616Y0270368D01*
X0149466Y0269518D01*
X0146566Y0269943D02*
X0146141Y0270368D01*
X0145290Y0270368D01*
X0144865Y0269943D01*
X0146566Y0268242D01*
X0146141Y0267817D01*
X0145290Y0267817D01*
X0144865Y0268242D01*
X0144865Y0269943D01*
X0146566Y0269943D02*
X0146566Y0268242D01*
X0135872Y0255920D02*
X0136298Y0255495D01*
X0136298Y0253793D01*
X0135872Y0253368D01*
X0135022Y0253368D01*
X0134596Y0253793D01*
X0133398Y0253793D02*
X0133398Y0253368D01*
X0133398Y0253793D02*
X0131696Y0255495D01*
X0131696Y0255920D01*
X0133398Y0255920D01*
X0134596Y0255495D02*
X0135022Y0255920D01*
X0135872Y0255920D01*
X0130497Y0255495D02*
X0130072Y0255920D01*
X0129222Y0255920D01*
X0128796Y0255495D01*
X0128796Y0255069D01*
X0130497Y0253368D01*
X0128796Y0253368D01*
X0132730Y0247915D02*
X0132305Y0247489D01*
X0134006Y0245788D01*
X0133581Y0245363D01*
X0132730Y0245363D01*
X0132305Y0245788D01*
X0132305Y0247489D01*
X0132730Y0247915D02*
X0133581Y0247915D01*
X0134006Y0247489D01*
X0134006Y0245788D01*
X0135205Y0245788D02*
X0135630Y0245363D01*
X0136481Y0245363D01*
X0136906Y0245788D01*
X0138105Y0245788D02*
X0138530Y0245363D01*
X0139381Y0245363D01*
X0139806Y0245788D01*
X0139806Y0247489D01*
X0139381Y0247915D01*
X0138530Y0247915D01*
X0138105Y0247489D01*
X0136906Y0247489D02*
X0136481Y0247915D01*
X0135630Y0247915D01*
X0135205Y0247489D01*
X0135205Y0247064D01*
X0135630Y0246639D01*
X0135205Y0246214D01*
X0135205Y0245788D01*
X0135630Y0246639D02*
X0136056Y0246639D01*
X0140848Y0243281D02*
X0140848Y0240729D01*
X0142549Y0243281D01*
X0142549Y0240729D01*
X0143748Y0241154D02*
X0143748Y0242856D01*
X0144173Y0243281D01*
X0145024Y0243281D01*
X0145449Y0242856D01*
X0145449Y0241154D01*
X0145024Y0240729D01*
X0144173Y0240729D01*
X0143748Y0241154D01*
X0145992Y0240205D02*
X0156874Y0240205D01*
X0156874Y0236205D01*
X0145992Y0236205D01*
X0145992Y0240205D01*
X0147260Y0243126D02*
X0162220Y0243126D01*
X0165406Y0248551D02*
X0165406Y0248977D01*
X0163705Y0250678D01*
X0163705Y0251103D01*
X0165406Y0251103D01*
X0167030Y0251103D02*
X0168306Y0249827D01*
X0166605Y0249827D01*
X0167030Y0248551D02*
X0167030Y0251103D01*
X0169505Y0250678D02*
X0169930Y0251103D01*
X0170781Y0251103D01*
X0171206Y0250678D01*
X0171206Y0248977D01*
X0170781Y0248551D01*
X0169930Y0248551D01*
X0169505Y0248977D01*
X0183295Y0261278D02*
X0183295Y0262128D01*
X0183721Y0262554D01*
X0183721Y0263753D02*
X0183295Y0264178D01*
X0183295Y0265028D01*
X0183721Y0265454D01*
X0184571Y0265454D01*
X0184996Y0265028D01*
X0184996Y0264603D01*
X0184571Y0263753D01*
X0185847Y0263753D01*
X0185847Y0265454D01*
X0184571Y0266653D02*
X0183721Y0266653D01*
X0183295Y0267078D01*
X0183295Y0267929D01*
X0183721Y0268354D01*
X0184146Y0268354D01*
X0184571Y0267929D01*
X0184571Y0266653D01*
X0185422Y0267503D01*
X0185847Y0268354D01*
X0185422Y0262554D02*
X0185847Y0262128D01*
X0185847Y0261278D01*
X0185422Y0260852D01*
X0183721Y0260852D01*
X0183295Y0261278D01*
X0178340Y0264410D02*
X0177915Y0263985D01*
X0176213Y0263985D01*
X0175788Y0264410D01*
X0175788Y0265261D01*
X0176213Y0265686D01*
X0177064Y0266885D02*
X0177064Y0268586D01*
X0175788Y0268161D02*
X0178340Y0268161D01*
X0177064Y0266885D01*
X0177915Y0265686D02*
X0178340Y0265261D01*
X0178340Y0264410D01*
X0177915Y0269785D02*
X0178340Y0270211D01*
X0178340Y0271061D01*
X0177915Y0271486D01*
X0177489Y0271486D01*
X0175788Y0269785D01*
X0175788Y0271486D01*
X0185749Y0284172D02*
X0185749Y0285022D01*
X0185323Y0285448D01*
X0202226Y0278671D02*
X0202226Y0278245D01*
X0202651Y0277820D01*
X0202226Y0277395D01*
X0202226Y0276969D01*
X0202651Y0276544D01*
X0203502Y0276544D01*
X0203927Y0276969D01*
X0203077Y0277820D02*
X0202651Y0277820D01*
X0202226Y0278671D02*
X0202651Y0279096D01*
X0203502Y0279096D01*
X0203927Y0278671D01*
X0205126Y0277820D02*
X0206827Y0277820D01*
X0205552Y0279096D01*
X0205552Y0276544D01*
X0208026Y0276544D02*
X0208877Y0277395D01*
X0208452Y0277395D02*
X0209728Y0277395D01*
X0209728Y0276544D02*
X0209728Y0279096D01*
X0208452Y0279096D01*
X0208026Y0278671D01*
X0208026Y0277820D01*
X0208452Y0277395D01*
X0211768Y0291465D02*
X0211343Y0291890D01*
X0211343Y0292315D01*
X0211768Y0292740D01*
X0213044Y0292740D01*
X0213044Y0291890D01*
X0212618Y0291465D01*
X0211768Y0291465D01*
X0213044Y0292740D02*
X0212193Y0293591D01*
X0211343Y0294016D01*
X0214243Y0294016D02*
X0215093Y0293591D01*
X0215944Y0292740D01*
X0214668Y0292740D01*
X0214243Y0292315D01*
X0214243Y0291890D01*
X0214668Y0291465D01*
X0215519Y0291465D01*
X0215944Y0291890D01*
X0215944Y0292740D01*
X0217143Y0291890D02*
X0217568Y0291465D01*
X0218419Y0291465D01*
X0218844Y0291890D01*
X0218844Y0293591D01*
X0218419Y0294016D01*
X0217568Y0294016D01*
X0217143Y0293591D01*
X0216574Y0306709D02*
X0215723Y0306709D01*
X0215298Y0307135D01*
X0214099Y0307135D02*
X0214099Y0306709D01*
X0214099Y0307135D02*
X0212398Y0308836D01*
X0212398Y0309261D01*
X0214099Y0309261D01*
X0215298Y0308836D02*
X0215723Y0309261D01*
X0216574Y0309261D01*
X0216999Y0308836D01*
X0216999Y0307135D01*
X0216574Y0306709D01*
X0211199Y0307135D02*
X0210774Y0306709D01*
X0209923Y0306709D01*
X0209498Y0307135D01*
X0209498Y0307560D01*
X0209923Y0307985D01*
X0210348Y0307985D01*
X0209923Y0307985D02*
X0209498Y0308411D01*
X0209498Y0308836D01*
X0209923Y0309261D01*
X0210774Y0309261D01*
X0211199Y0308836D01*
X0192286Y0308785D02*
X0192286Y0306233D01*
X0190585Y0306233D01*
X0189386Y0306233D02*
X0187685Y0306233D01*
X0188535Y0306233D02*
X0188535Y0308785D01*
X0189386Y0307934D01*
X0186486Y0308360D02*
X0186061Y0308785D01*
X0185210Y0308785D01*
X0184785Y0308360D01*
X0184785Y0307934D01*
X0186486Y0306233D01*
X0184785Y0306233D01*
X0180328Y0305491D02*
X0180328Y0303790D01*
X0179903Y0303365D01*
X0179052Y0303365D01*
X0178627Y0303790D01*
X0177428Y0303365D02*
X0175727Y0305066D01*
X0175727Y0305491D01*
X0176152Y0305917D01*
X0177002Y0305917D01*
X0177428Y0305491D01*
X0178627Y0305491D02*
X0179052Y0305917D01*
X0179903Y0305917D01*
X0180328Y0305491D01*
X0177428Y0303365D02*
X0175727Y0303365D01*
X0169204Y0307402D02*
X0167503Y0307402D01*
X0169204Y0307402D02*
X0169204Y0309954D01*
X0166304Y0308678D02*
X0164603Y0308678D01*
X0165028Y0307402D02*
X0165028Y0309954D01*
X0166304Y0308678D01*
X0156771Y0299324D02*
X0157196Y0298899D01*
X0157196Y0297198D01*
X0156771Y0296772D01*
X0155920Y0296772D01*
X0155495Y0297198D01*
X0154296Y0298048D02*
X0154296Y0299324D01*
X0152595Y0299324D01*
X0155495Y0298899D02*
X0155920Y0299324D01*
X0156771Y0299324D01*
X0156771Y0295387D02*
X0157196Y0294962D01*
X0157196Y0293261D01*
X0156771Y0295387D02*
X0155920Y0295387D01*
X0155495Y0294962D01*
X0101160Y0268765D02*
X0099884Y0268765D01*
X0099459Y0268340D01*
X0099459Y0267489D01*
X0099884Y0267064D01*
X0101160Y0267064D01*
X0100310Y0267064D02*
X0099459Y0266213D01*
X0098260Y0266639D02*
X0097835Y0266213D01*
X0096984Y0266213D01*
X0096559Y0266639D01*
X0096559Y0267489D01*
X0096984Y0267915D01*
X0097409Y0267915D01*
X0098260Y0267489D01*
X0098260Y0268765D01*
X0096559Y0268765D01*
X0095360Y0268340D02*
X0094935Y0268765D01*
X0094084Y0268765D01*
X0093659Y0268340D01*
X0093659Y0267915D01*
X0095360Y0266213D01*
X0093659Y0266213D01*
X0093062Y0273544D02*
X0093062Y0276096D01*
X0091786Y0276096D01*
X0091361Y0275671D01*
X0091361Y0274820D01*
X0091786Y0274395D01*
X0093062Y0274395D01*
X0092211Y0274395D02*
X0091361Y0273544D01*
X0090162Y0274820D02*
X0088460Y0274820D01*
X0087262Y0274820D02*
X0086411Y0275245D01*
X0085986Y0275245D01*
X0085560Y0274820D01*
X0085560Y0273969D01*
X0085986Y0273544D01*
X0086836Y0273544D01*
X0087262Y0273969D01*
X0087262Y0274820D02*
X0087262Y0276096D01*
X0085560Y0276096D01*
X0088886Y0276096D02*
X0090162Y0274820D01*
X0088886Y0273544D02*
X0088886Y0276096D01*
X0081999Y0276300D02*
X0081999Y0278852D01*
X0080723Y0278852D01*
X0080298Y0278426D01*
X0080298Y0277576D01*
X0080723Y0277151D01*
X0081999Y0277151D01*
X0081149Y0277151D02*
X0080298Y0276300D01*
X0079099Y0277576D02*
X0077398Y0277576D01*
X0077823Y0278852D02*
X0079099Y0277576D01*
X0077823Y0276300D02*
X0077823Y0278852D01*
X0076199Y0278852D02*
X0074498Y0278852D01*
X0074498Y0278426D01*
X0076199Y0276725D01*
X0076199Y0276300D01*
X0072157Y0278662D02*
X0072157Y0281214D01*
X0070881Y0281214D01*
X0070456Y0280789D01*
X0070456Y0279088D01*
X0070881Y0278662D01*
X0072157Y0278662D01*
X0069257Y0279088D02*
X0069257Y0279513D01*
X0068831Y0279938D01*
X0067981Y0279938D01*
X0067555Y0279513D01*
X0067555Y0279088D01*
X0067981Y0278662D01*
X0068831Y0278662D01*
X0069257Y0279088D01*
X0068831Y0279938D02*
X0069257Y0280363D01*
X0069257Y0280789D01*
X0068831Y0281214D01*
X0067981Y0281214D01*
X0067555Y0280789D01*
X0067555Y0280363D01*
X0067981Y0279938D01*
X0067555Y0261529D02*
X0067555Y0261104D01*
X0069257Y0259402D01*
X0069257Y0258977D01*
X0070456Y0259402D02*
X0070456Y0261104D01*
X0070881Y0261529D01*
X0072157Y0261529D01*
X0072157Y0258977D01*
X0070881Y0258977D01*
X0070456Y0259402D01*
X0069257Y0261529D02*
X0067555Y0261529D01*
X0074537Y0259135D02*
X0074962Y0259560D01*
X0075813Y0259560D01*
X0076238Y0259135D01*
X0077437Y0258285D02*
X0079138Y0258285D01*
X0077862Y0259560D01*
X0077862Y0257009D01*
X0076238Y0257009D02*
X0074537Y0258710D01*
X0074537Y0259135D01*
X0074537Y0257009D02*
X0076238Y0257009D01*
X0080337Y0257009D02*
X0081188Y0257859D01*
X0080762Y0257859D02*
X0082038Y0257859D01*
X0082038Y0257009D02*
X0082038Y0259560D01*
X0080762Y0259560D01*
X0080337Y0259135D01*
X0080337Y0258285D01*
X0080762Y0257859D01*
X0083986Y0254049D02*
X0084836Y0253623D01*
X0085687Y0252773D01*
X0084411Y0252773D01*
X0083986Y0252347D01*
X0083986Y0251922D01*
X0084411Y0251497D01*
X0085261Y0251497D01*
X0085687Y0251922D01*
X0085687Y0252773D01*
X0086886Y0252773D02*
X0088587Y0252773D01*
X0087311Y0254049D01*
X0087311Y0251497D01*
X0089786Y0251497D02*
X0090636Y0252347D01*
X0090211Y0252347D02*
X0091487Y0252347D01*
X0091487Y0251497D02*
X0091487Y0254049D01*
X0090211Y0254049D01*
X0089786Y0253623D01*
X0089786Y0252773D01*
X0090211Y0252347D01*
X0094084Y0255977D02*
X0094935Y0255977D01*
X0095360Y0256402D01*
X0093659Y0258104D01*
X0093659Y0256402D01*
X0094084Y0255977D01*
X0095360Y0256402D02*
X0095360Y0258104D01*
X0094935Y0258529D01*
X0094084Y0258529D01*
X0093659Y0258104D01*
X0096559Y0258529D02*
X0098260Y0258529D01*
X0098260Y0257253D01*
X0097409Y0257678D01*
X0096984Y0257678D01*
X0096559Y0257253D01*
X0096559Y0256402D01*
X0096984Y0255977D01*
X0097835Y0255977D01*
X0098260Y0256402D01*
X0099459Y0255977D02*
X0100310Y0256828D01*
X0099884Y0256828D02*
X0101160Y0256828D01*
X0101160Y0255977D02*
X0101160Y0258529D01*
X0099884Y0258529D01*
X0099459Y0258104D01*
X0099459Y0257253D01*
X0099884Y0256828D01*
X0099884Y0248686D02*
X0099459Y0248261D01*
X0099459Y0247411D01*
X0099884Y0246985D01*
X0101160Y0246985D01*
X0101160Y0246135D02*
X0101160Y0248686D01*
X0099884Y0248686D01*
X0098260Y0248686D02*
X0098260Y0247411D01*
X0097409Y0247836D01*
X0096984Y0247836D01*
X0096559Y0247411D01*
X0096559Y0246560D01*
X0096984Y0246135D01*
X0097835Y0246135D01*
X0098260Y0246560D01*
X0099459Y0246135D02*
X0100310Y0246985D01*
X0098260Y0248686D02*
X0096559Y0248686D01*
X0095360Y0247836D02*
X0094509Y0248686D01*
X0094509Y0246135D01*
X0093659Y0246135D02*
X0095360Y0246135D01*
X0094935Y0243175D02*
X0094084Y0243175D01*
X0093659Y0242749D01*
X0093659Y0241048D01*
X0094084Y0240623D01*
X0094935Y0240623D01*
X0095360Y0241048D01*
X0094935Y0241899D02*
X0093659Y0241899D01*
X0094935Y0241899D02*
X0095360Y0242324D01*
X0095360Y0242749D01*
X0094935Y0243175D01*
X0096984Y0243175D02*
X0098260Y0241899D01*
X0096559Y0241899D01*
X0096984Y0240623D02*
X0096984Y0243175D01*
X0099459Y0242749D02*
X0099459Y0241899D01*
X0099884Y0241473D01*
X0101160Y0241473D01*
X0101160Y0240623D02*
X0101160Y0243175D01*
X0099884Y0243175D01*
X0099459Y0242749D01*
X0100310Y0241473D02*
X0099459Y0240623D01*
X0082038Y0239482D02*
X0082038Y0236930D01*
X0082038Y0237781D02*
X0080762Y0237781D01*
X0080337Y0238206D01*
X0080337Y0239056D01*
X0080762Y0239482D01*
X0082038Y0239482D01*
X0081188Y0237781D02*
X0080337Y0236930D01*
X0079138Y0238206D02*
X0077437Y0238206D01*
X0076238Y0238631D02*
X0075387Y0239482D01*
X0075387Y0236930D01*
X0074537Y0236930D02*
X0076238Y0236930D01*
X0077862Y0236930D02*
X0077862Y0239482D01*
X0079138Y0238206D01*
X0069401Y0240080D02*
X0069401Y0242631D01*
X0068125Y0242631D01*
X0067700Y0242206D01*
X0067700Y0241355D01*
X0068125Y0240930D01*
X0069401Y0240930D01*
X0068550Y0240930D02*
X0067700Y0240080D01*
X0066501Y0241355D02*
X0064799Y0241355D01*
X0063601Y0241355D02*
X0061899Y0241355D01*
X0062325Y0240080D02*
X0062325Y0242631D01*
X0063601Y0241355D01*
X0065225Y0240080D02*
X0065225Y0242631D01*
X0066501Y0241355D01*
X0101160Y0266213D02*
X0101160Y0268765D01*
X0140173Y0233283D02*
X0162220Y0233283D01*
X0153531Y0231171D02*
X0153531Y0230745D01*
X0153105Y0230320D01*
X0152255Y0230320D01*
X0151830Y0229895D01*
X0151830Y0229469D01*
X0152255Y0229044D01*
X0153105Y0229044D01*
X0153531Y0229469D01*
X0153531Y0231171D02*
X0153105Y0231596D01*
X0152255Y0231596D01*
X0151830Y0231171D01*
X0150631Y0231171D02*
X0150205Y0231596D01*
X0149355Y0231596D01*
X0148929Y0231171D01*
X0148929Y0230745D01*
X0150631Y0229044D01*
X0148929Y0229044D01*
X0145343Y0219883D02*
X0144918Y0219883D01*
X0144493Y0219457D01*
X0144067Y0219883D01*
X0143642Y0219883D01*
X0143217Y0219457D01*
X0143217Y0218607D01*
X0143642Y0218181D01*
X0144493Y0219032D02*
X0144493Y0219457D01*
X0145343Y0219883D02*
X0145769Y0219457D01*
X0145769Y0218607D01*
X0145343Y0218181D01*
X0145343Y0216982D02*
X0145769Y0216557D01*
X0145769Y0215707D01*
X0145343Y0215281D01*
X0145343Y0214082D02*
X0145769Y0213657D01*
X0145769Y0212806D01*
X0145343Y0212381D01*
X0143642Y0212381D01*
X0143217Y0212806D01*
X0143217Y0213657D01*
X0143642Y0214082D01*
X0143217Y0215281D02*
X0144918Y0216982D01*
X0145343Y0216982D01*
X0143217Y0216982D02*
X0143217Y0215281D01*
X0115085Y0196134D02*
X0114659Y0196560D01*
X0112958Y0194859D01*
X0112533Y0195284D01*
X0112533Y0196134D01*
X0112958Y0196560D01*
X0114659Y0196560D01*
X0115085Y0196134D02*
X0115085Y0195284D01*
X0114659Y0194859D01*
X0112958Y0194859D01*
X0112533Y0193660D02*
X0112533Y0191958D01*
X0112533Y0192809D02*
X0115085Y0192809D01*
X0114234Y0191958D01*
X0114659Y0190759D02*
X0115085Y0190334D01*
X0115085Y0189484D01*
X0114659Y0189058D01*
X0112958Y0189058D01*
X0112533Y0189484D01*
X0112533Y0190334D01*
X0112958Y0190759D01*
X0179497Y0234505D02*
X0179497Y0234930D01*
X0179923Y0235355D01*
X0181199Y0235355D01*
X0181199Y0234505D01*
X0180773Y0234080D01*
X0179923Y0234080D01*
X0179497Y0234505D01*
X0180348Y0236206D02*
X0181199Y0235355D01*
X0180348Y0236206D02*
X0179497Y0236631D01*
X0182397Y0236206D02*
X0182397Y0235781D01*
X0182823Y0235355D01*
X0182397Y0234930D01*
X0182397Y0234505D01*
X0182823Y0234080D01*
X0183673Y0234080D01*
X0184099Y0234505D01*
X0185298Y0234505D02*
X0185723Y0234080D01*
X0186573Y0234080D01*
X0186999Y0234505D01*
X0186999Y0236206D01*
X0186573Y0236631D01*
X0185723Y0236631D01*
X0185298Y0236206D01*
X0184099Y0236206D02*
X0183673Y0236631D01*
X0182823Y0236631D01*
X0182397Y0236206D01*
X0182823Y0235355D02*
X0183248Y0235355D01*
X0195965Y0247841D02*
X0197666Y0247841D01*
X0195965Y0249542D01*
X0195965Y0249967D01*
X0196390Y0250393D01*
X0197241Y0250393D01*
X0197666Y0249967D01*
X0198865Y0249967D02*
X0198865Y0248266D01*
X0199290Y0247841D01*
X0200141Y0247841D01*
X0200566Y0248266D01*
X0200141Y0249117D02*
X0198865Y0249117D01*
X0198865Y0249967D02*
X0199290Y0250393D01*
X0200141Y0250393D01*
X0200566Y0249967D01*
X0200566Y0249542D01*
X0200141Y0249117D01*
X0201765Y0249967D02*
X0202190Y0250393D01*
X0203041Y0250393D01*
X0203466Y0249967D01*
X0203466Y0248266D01*
X0203041Y0247841D01*
X0202190Y0247841D01*
X0201765Y0248266D01*
X0201809Y0230385D02*
X0200108Y0228684D01*
X0199683Y0228684D01*
X0200108Y0227485D02*
X0199683Y0227060D01*
X0199683Y0226209D01*
X0200108Y0225784D01*
X0200959Y0225784D02*
X0201384Y0226635D01*
X0201384Y0227060D01*
X0200959Y0227485D01*
X0200108Y0227485D01*
X0200959Y0225784D02*
X0202234Y0225784D01*
X0202234Y0227485D01*
X0202234Y0228684D02*
X0202234Y0230385D01*
X0201809Y0230385D01*
X0205167Y0229574D02*
X0205167Y0228724D01*
X0205592Y0228298D01*
X0206017Y0228298D01*
X0206443Y0228724D01*
X0206443Y0229574D01*
X0206017Y0229999D01*
X0205592Y0229999D01*
X0205167Y0229574D01*
X0206443Y0229574D02*
X0206868Y0229999D01*
X0207293Y0229999D01*
X0207719Y0229574D01*
X0207719Y0228724D01*
X0207293Y0228298D01*
X0206868Y0228298D01*
X0206443Y0228724D01*
X0206443Y0227099D02*
X0205592Y0227099D01*
X0205167Y0226674D01*
X0205167Y0225823D01*
X0205592Y0225398D01*
X0206443Y0225398D02*
X0206868Y0226249D01*
X0206868Y0226674D01*
X0206443Y0227099D01*
X0207719Y0227099D02*
X0207719Y0225398D01*
X0206443Y0225398D01*
X0206443Y0224199D02*
X0206017Y0223774D01*
X0206017Y0222498D01*
X0205167Y0222498D02*
X0207719Y0222498D01*
X0207719Y0223774D01*
X0207293Y0224199D01*
X0206443Y0224199D01*
X0206017Y0223349D02*
X0205167Y0224199D01*
X0202234Y0224160D02*
X0201809Y0224585D01*
X0200959Y0224585D01*
X0200533Y0224160D01*
X0200533Y0222884D01*
X0199683Y0222884D02*
X0202234Y0222884D01*
X0202234Y0224160D01*
X0200533Y0223734D02*
X0199683Y0224585D01*
X0189080Y0217750D02*
X0189080Y0216900D01*
X0188655Y0216474D01*
X0188655Y0215275D02*
X0189080Y0214850D01*
X0189080Y0213999D01*
X0188655Y0213574D01*
X0188655Y0212375D02*
X0189080Y0211950D01*
X0189080Y0211099D01*
X0188655Y0210674D01*
X0186954Y0210674D01*
X0186528Y0211099D01*
X0186528Y0211950D01*
X0186954Y0212375D01*
X0186528Y0213574D02*
X0188230Y0215275D01*
X0188655Y0215275D01*
X0186528Y0215275D02*
X0186528Y0213574D01*
X0186528Y0216474D02*
X0188230Y0218175D01*
X0188655Y0218175D01*
X0189080Y0217750D01*
X0186528Y0218175D02*
X0186528Y0216474D01*
X0191301Y0209167D02*
X0192151Y0209167D01*
X0192577Y0208741D01*
X0192577Y0208316D01*
X0192151Y0207891D01*
X0190875Y0207891D01*
X0190875Y0208741D02*
X0191301Y0209167D01*
X0190875Y0208741D02*
X0190875Y0207040D01*
X0191301Y0206615D01*
X0192151Y0206615D01*
X0192577Y0207040D01*
X0193775Y0207040D02*
X0194201Y0206615D01*
X0195051Y0206615D01*
X0195477Y0207040D01*
X0195477Y0207466D01*
X0195051Y0207891D01*
X0194201Y0207891D01*
X0193775Y0207466D01*
X0193775Y0207040D01*
X0194201Y0207891D02*
X0193775Y0208316D01*
X0193775Y0208741D01*
X0194201Y0209167D01*
X0195051Y0209167D01*
X0195477Y0208741D01*
X0195477Y0208316D01*
X0195051Y0207891D01*
X0196676Y0208741D02*
X0197101Y0209167D01*
X0197951Y0209167D01*
X0198377Y0208741D01*
X0198377Y0207040D01*
X0197951Y0206615D01*
X0197101Y0206615D01*
X0196676Y0207040D01*
X0201242Y0194403D02*
X0202517Y0193127D01*
X0200816Y0193127D01*
X0201242Y0191851D02*
X0201242Y0194403D01*
X0213552Y0210237D02*
X0213127Y0210662D01*
X0213127Y0211513D01*
X0213552Y0211938D01*
X0213552Y0213137D02*
X0213127Y0213137D01*
X0213552Y0213137D02*
X0215253Y0214838D01*
X0215679Y0214838D01*
X0215679Y0213137D01*
X0215253Y0211938D02*
X0215679Y0211513D01*
X0215679Y0210662D01*
X0215253Y0210237D01*
X0213552Y0210237D01*
X0213552Y0216037D02*
X0215253Y0217738D01*
X0213552Y0217738D01*
X0213127Y0217313D01*
X0213127Y0216463D01*
X0213552Y0216037D01*
X0215253Y0216037D01*
X0215679Y0216463D01*
X0215679Y0217313D01*
X0215253Y0217738D01*
X0224430Y0217406D02*
X0224856Y0216981D01*
X0225706Y0216981D01*
X0226132Y0217406D01*
X0225706Y0218257D02*
X0224430Y0218257D01*
X0224430Y0219108D02*
X0224856Y0219533D01*
X0225706Y0219533D01*
X0226132Y0219108D01*
X0226132Y0218682D01*
X0225706Y0218257D01*
X0224430Y0217406D02*
X0224430Y0219108D01*
X0227331Y0216981D02*
X0229032Y0216981D01*
X0229032Y0219533D01*
X0228977Y0222410D02*
X0229827Y0222410D01*
X0230253Y0222836D01*
X0230253Y0223686D02*
X0229402Y0224111D01*
X0228977Y0224111D01*
X0228551Y0223686D01*
X0228551Y0222836D01*
X0228977Y0222410D01*
X0227353Y0222836D02*
X0226927Y0222410D01*
X0226077Y0222410D01*
X0225651Y0222836D01*
X0225651Y0223261D01*
X0226077Y0223686D01*
X0226502Y0223686D01*
X0226077Y0223686D02*
X0225651Y0224111D01*
X0225651Y0224537D01*
X0226077Y0224962D01*
X0226927Y0224962D01*
X0227353Y0224537D01*
X0228551Y0224962D02*
X0230253Y0224962D01*
X0230253Y0223686D01*
X0231452Y0222836D02*
X0231877Y0222410D01*
X0232727Y0222410D01*
X0233153Y0222836D01*
X0233153Y0224537D01*
X0232727Y0224962D01*
X0231877Y0224962D01*
X0231452Y0224537D01*
X0231877Y0226150D02*
X0231452Y0226576D01*
X0231877Y0226150D02*
X0232727Y0226150D01*
X0233153Y0226576D01*
X0233153Y0228277D01*
X0232727Y0228702D01*
X0231877Y0228702D01*
X0231452Y0228277D01*
X0230253Y0228702D02*
X0230253Y0227426D01*
X0229402Y0227852D01*
X0228977Y0227852D01*
X0228551Y0227426D01*
X0228551Y0226576D01*
X0228977Y0226150D01*
X0229827Y0226150D01*
X0230253Y0226576D01*
X0230253Y0228702D02*
X0228551Y0228702D01*
X0229004Y0229843D02*
X0228579Y0230269D01*
X0228579Y0230694D01*
X0229004Y0231119D01*
X0230280Y0231119D01*
X0230280Y0230269D01*
X0229855Y0229843D01*
X0229004Y0229843D01*
X0227380Y0230269D02*
X0226955Y0229843D01*
X0226104Y0229843D01*
X0225679Y0230269D01*
X0225679Y0230694D01*
X0226104Y0231119D01*
X0226530Y0231119D01*
X0226104Y0231119D02*
X0225679Y0231544D01*
X0225679Y0231970D01*
X0226104Y0232395D01*
X0226955Y0232395D01*
X0227380Y0231970D01*
X0228579Y0232395D02*
X0229430Y0231970D01*
X0230280Y0231119D01*
X0231479Y0230269D02*
X0231904Y0229843D01*
X0232755Y0229843D01*
X0233180Y0230269D01*
X0233180Y0231970D01*
X0232755Y0232395D01*
X0231904Y0232395D01*
X0231479Y0231970D01*
X0231904Y0233387D02*
X0231479Y0233812D01*
X0231904Y0233387D02*
X0232755Y0233387D01*
X0233180Y0233812D01*
X0233180Y0235513D01*
X0232755Y0235938D01*
X0231904Y0235938D01*
X0231479Y0235513D01*
X0230280Y0235088D02*
X0229430Y0235938D01*
X0229430Y0233387D01*
X0230280Y0233387D02*
X0228579Y0233387D01*
X0227380Y0233387D02*
X0225679Y0233387D01*
X0226530Y0233387D02*
X0226530Y0235938D01*
X0227380Y0235088D01*
X0228579Y0236930D02*
X0230280Y0236930D01*
X0228579Y0238631D01*
X0228579Y0239056D01*
X0229004Y0239482D01*
X0229855Y0239482D01*
X0230280Y0239056D01*
X0231479Y0239056D02*
X0231904Y0239482D01*
X0232755Y0239482D01*
X0233180Y0239056D01*
X0233180Y0237355D01*
X0232755Y0236930D01*
X0231904Y0236930D01*
X0231479Y0237355D01*
X0231904Y0240473D02*
X0231479Y0240899D01*
X0231904Y0240473D02*
X0232755Y0240473D01*
X0233180Y0240899D01*
X0233180Y0242600D01*
X0232755Y0243025D01*
X0231904Y0243025D01*
X0231479Y0242600D01*
X0230280Y0241749D02*
X0228579Y0241749D01*
X0227380Y0241324D02*
X0226955Y0241749D01*
X0226104Y0241749D01*
X0225679Y0241324D01*
X0225679Y0240899D01*
X0226104Y0240473D01*
X0226955Y0240473D01*
X0227380Y0240899D01*
X0227380Y0241324D01*
X0226955Y0241749D02*
X0227380Y0242174D01*
X0227380Y0242600D01*
X0226955Y0243025D01*
X0226104Y0243025D01*
X0225679Y0242600D01*
X0225679Y0242174D01*
X0226104Y0241749D01*
X0226104Y0239482D02*
X0227380Y0238206D01*
X0225679Y0238206D01*
X0226104Y0236930D02*
X0226104Y0239482D01*
X0229004Y0240473D02*
X0229004Y0243025D01*
X0230280Y0241749D01*
X0229855Y0244017D02*
X0230280Y0244442D01*
X0229855Y0244017D02*
X0229004Y0244017D01*
X0228579Y0244442D01*
X0228579Y0245292D01*
X0229004Y0245718D01*
X0229430Y0245718D01*
X0230280Y0245292D01*
X0230280Y0246568D01*
X0228579Y0246568D01*
X0227380Y0246568D02*
X0225679Y0246568D01*
X0225679Y0246143D01*
X0227380Y0244442D01*
X0227380Y0244017D01*
X0231479Y0244442D02*
X0231904Y0244017D01*
X0232755Y0244017D01*
X0233180Y0244442D01*
X0233180Y0246143D01*
X0232755Y0246568D01*
X0231904Y0246568D01*
X0231479Y0246143D01*
X0240218Y0240875D02*
X0241919Y0239174D01*
X0241494Y0238749D01*
X0240644Y0238749D01*
X0240218Y0239174D01*
X0240218Y0240875D01*
X0240644Y0241301D01*
X0241494Y0241301D01*
X0241919Y0240875D01*
X0241919Y0239174D01*
X0243118Y0238749D02*
X0244820Y0238749D01*
X0243118Y0240450D01*
X0243118Y0240875D01*
X0243544Y0241301D01*
X0244394Y0241301D01*
X0244820Y0240875D01*
X0246019Y0240875D02*
X0246444Y0241301D01*
X0247294Y0241301D01*
X0247720Y0240875D01*
X0247720Y0239174D01*
X0247294Y0238749D01*
X0246444Y0238749D01*
X0246019Y0239174D01*
X0253355Y0240158D02*
X0253780Y0239733D01*
X0254630Y0239733D01*
X0255056Y0240158D01*
X0256255Y0240158D02*
X0256680Y0239733D01*
X0257531Y0239733D01*
X0257956Y0240158D01*
X0257956Y0241860D01*
X0257531Y0242285D01*
X0256680Y0242285D01*
X0256255Y0241860D01*
X0255056Y0241860D02*
X0254630Y0242285D01*
X0253780Y0242285D01*
X0253355Y0241860D01*
X0253355Y0241434D01*
X0253780Y0241009D01*
X0253355Y0240584D01*
X0253355Y0240158D01*
X0253780Y0241009D02*
X0254205Y0241009D01*
X0254576Y0228920D02*
X0254150Y0228494D01*
X0254150Y0227644D01*
X0254576Y0227218D01*
X0255426Y0227218D02*
X0255852Y0228069D01*
X0255852Y0228494D01*
X0255426Y0228920D01*
X0254576Y0228920D01*
X0255426Y0227218D02*
X0256702Y0227218D01*
X0256702Y0228920D01*
X0256277Y0226019D02*
X0255852Y0226019D01*
X0255426Y0225594D01*
X0255001Y0226019D01*
X0254576Y0226019D01*
X0254150Y0225594D01*
X0254150Y0224744D01*
X0254576Y0224318D01*
X0254576Y0223119D02*
X0254150Y0222694D01*
X0254150Y0221843D01*
X0254576Y0221418D01*
X0256277Y0221418D01*
X0256702Y0221843D01*
X0256702Y0222694D01*
X0256277Y0223119D01*
X0256277Y0224318D02*
X0256702Y0224744D01*
X0256702Y0225594D01*
X0256277Y0226019D01*
X0255426Y0225594D02*
X0255426Y0225169D01*
X0256833Y0217946D02*
X0257684Y0217946D01*
X0258109Y0217521D01*
X0258109Y0215820D01*
X0257684Y0215394D01*
X0256833Y0215394D01*
X0256408Y0215820D01*
X0255209Y0216670D02*
X0253508Y0216670D01*
X0253933Y0215394D02*
X0253933Y0217946D01*
X0255209Y0216670D01*
X0256408Y0217521D02*
X0256833Y0217946D01*
X0259812Y0217656D02*
X0259812Y0216805D01*
X0260237Y0216380D01*
X0261088Y0216380D02*
X0261513Y0217230D01*
X0261513Y0217656D01*
X0261088Y0218081D01*
X0260237Y0218081D01*
X0259812Y0217656D01*
X0261088Y0216380D02*
X0262364Y0216380D01*
X0262364Y0218081D01*
X0262364Y0215181D02*
X0262364Y0213480D01*
X0261088Y0213480D01*
X0261513Y0214330D01*
X0261513Y0214756D01*
X0261088Y0215181D01*
X0260237Y0215181D01*
X0259812Y0214756D01*
X0259812Y0213905D01*
X0260237Y0213480D01*
X0260237Y0212281D02*
X0259812Y0211855D01*
X0259812Y0211005D01*
X0260237Y0210580D01*
X0261938Y0210580D01*
X0262364Y0211005D01*
X0262364Y0211855D01*
X0261938Y0212281D01*
X0252309Y0215820D02*
X0250608Y0217521D01*
X0250608Y0215820D01*
X0251033Y0215394D01*
X0251883Y0215394D01*
X0252309Y0215820D01*
X0252309Y0217521D01*
X0251883Y0217946D01*
X0251033Y0217946D01*
X0250608Y0217521D01*
X0227353Y0226576D02*
X0225651Y0228277D01*
X0225651Y0226576D01*
X0226077Y0226150D01*
X0226927Y0226150D01*
X0227353Y0226576D01*
X0227353Y0228277D01*
X0226927Y0228702D01*
X0226077Y0228702D01*
X0225651Y0228277D01*
X0282727Y0216568D02*
X0283152Y0216994D01*
X0284003Y0216994D01*
X0284428Y0216568D01*
X0284428Y0214867D01*
X0315127Y0217076D02*
X0317679Y0217076D01*
X0317679Y0218351D01*
X0317253Y0218777D01*
X0316403Y0218777D01*
X0315977Y0218351D01*
X0315977Y0217076D01*
X0315977Y0217926D02*
X0315127Y0218777D01*
X0315127Y0219976D02*
X0315552Y0219976D01*
X0317253Y0221677D01*
X0317679Y0221677D01*
X0317679Y0219976D01*
X0317253Y0222876D02*
X0316828Y0222876D01*
X0316403Y0223301D01*
X0316403Y0224577D01*
X0317253Y0224577D02*
X0317679Y0224152D01*
X0317679Y0223301D01*
X0317253Y0222876D01*
X0315552Y0222876D02*
X0315127Y0223301D01*
X0315127Y0224152D01*
X0315552Y0224577D01*
X0317253Y0224577D01*
X0328140Y0224036D02*
X0329841Y0224036D01*
X0328140Y0225737D01*
X0328140Y0226163D01*
X0328565Y0226588D01*
X0329415Y0226588D01*
X0329841Y0226163D01*
X0331040Y0226163D02*
X0331465Y0226588D01*
X0332316Y0226588D01*
X0332741Y0226163D01*
X0333940Y0226588D02*
X0333940Y0224462D01*
X0334365Y0224036D01*
X0335216Y0224036D01*
X0335641Y0224462D01*
X0335641Y0226588D01*
X0332741Y0224036D02*
X0331040Y0225737D01*
X0331040Y0226163D01*
X0331040Y0224036D02*
X0332741Y0224036D01*
X0346623Y0223758D02*
X0346623Y0222907D01*
X0347048Y0222482D01*
X0347473Y0222482D01*
X0347899Y0222907D01*
X0347899Y0223758D01*
X0347473Y0224183D01*
X0347048Y0224183D01*
X0346623Y0223758D01*
X0347899Y0223758D02*
X0348324Y0224183D01*
X0348749Y0224183D01*
X0349175Y0223758D01*
X0349175Y0222907D01*
X0348749Y0222482D01*
X0348324Y0222482D01*
X0347899Y0222907D01*
X0348749Y0221283D02*
X0347048Y0219582D01*
X0346623Y0219582D01*
X0346623Y0218383D02*
X0347473Y0217532D01*
X0347473Y0217958D02*
X0347473Y0216682D01*
X0346623Y0216682D02*
X0349175Y0216682D01*
X0349175Y0217958D01*
X0348749Y0218383D01*
X0347899Y0218383D01*
X0347473Y0217958D01*
X0349175Y0219582D02*
X0349175Y0221283D01*
X0348749Y0221283D01*
X0322773Y0204590D02*
X0322348Y0205015D01*
X0321922Y0205015D01*
X0321497Y0204590D01*
X0321072Y0205015D01*
X0320647Y0205015D01*
X0320221Y0204590D01*
X0320221Y0203740D01*
X0320647Y0203314D01*
X0320647Y0202115D02*
X0320221Y0201690D01*
X0320221Y0200839D01*
X0320647Y0200414D01*
X0321497Y0200839D02*
X0321497Y0201690D01*
X0321072Y0202115D01*
X0320647Y0202115D01*
X0321497Y0200839D02*
X0321922Y0200414D01*
X0322348Y0200414D01*
X0322773Y0200839D01*
X0322773Y0201690D01*
X0322348Y0202115D01*
X0322348Y0203314D02*
X0322773Y0203740D01*
X0322773Y0204590D01*
X0321497Y0204590D02*
X0321497Y0204165D01*
X0324930Y0243623D02*
X0326632Y0243623D01*
X0324930Y0245324D01*
X0324930Y0245749D01*
X0325356Y0246175D01*
X0326206Y0246175D01*
X0326632Y0245749D01*
X0327831Y0245749D02*
X0327831Y0245324D01*
X0328256Y0244899D01*
X0327831Y0244473D01*
X0327831Y0244048D01*
X0328256Y0243623D01*
X0329106Y0243623D01*
X0329532Y0244048D01*
X0328681Y0244899D02*
X0328256Y0244899D01*
X0327831Y0245749D02*
X0328256Y0246175D01*
X0329106Y0246175D01*
X0329532Y0245749D01*
X0331581Y0246175D02*
X0331581Y0243623D01*
X0330731Y0243623D02*
X0332432Y0243623D01*
X0333631Y0244048D02*
X0334056Y0243623D01*
X0334907Y0243623D01*
X0335332Y0244048D01*
X0335332Y0245749D01*
X0334907Y0246175D01*
X0334056Y0246175D01*
X0333631Y0245749D01*
X0332432Y0245324D02*
X0331581Y0246175D01*
X0342067Y0247659D02*
X0342067Y0248509D01*
X0342492Y0248935D01*
X0342067Y0250134D02*
X0342067Y0251835D01*
X0342067Y0250984D02*
X0344619Y0250984D01*
X0343768Y0250134D01*
X0344193Y0248935D02*
X0344619Y0248509D01*
X0344619Y0247659D01*
X0344193Y0247233D01*
X0342492Y0247233D01*
X0342067Y0247659D01*
X0342492Y0253034D02*
X0342067Y0253459D01*
X0342067Y0254310D01*
X0342492Y0254735D01*
X0342918Y0254735D01*
X0343343Y0254310D01*
X0343343Y0253884D01*
X0343343Y0254310D02*
X0343768Y0254735D01*
X0344193Y0254735D01*
X0344619Y0254310D01*
X0344619Y0253459D01*
X0344193Y0253034D01*
X0344619Y0255934D02*
X0343343Y0255934D01*
X0343768Y0256784D01*
X0343768Y0257210D01*
X0343343Y0257635D01*
X0342492Y0257635D01*
X0342067Y0257210D01*
X0342067Y0256359D01*
X0342492Y0255934D01*
X0344619Y0255934D02*
X0344619Y0257635D01*
X0345030Y0261733D02*
X0343329Y0261733D01*
X0344180Y0261733D02*
X0344180Y0264285D01*
X0345030Y0263434D01*
X0346229Y0263860D02*
X0346654Y0264285D01*
X0347505Y0264285D01*
X0347930Y0263860D01*
X0347930Y0262158D01*
X0347505Y0261733D01*
X0346654Y0261733D01*
X0346229Y0262158D01*
X0342130Y0262158D02*
X0341705Y0261733D01*
X0340854Y0261733D01*
X0340429Y0262158D01*
X0340429Y0262584D01*
X0340854Y0263009D01*
X0341280Y0263009D01*
X0340854Y0263009D02*
X0340429Y0263434D01*
X0340429Y0263860D01*
X0340854Y0264285D01*
X0341705Y0264285D01*
X0342130Y0263860D01*
X0339230Y0263009D02*
X0337529Y0263009D01*
X0337954Y0264285D02*
X0339230Y0263009D01*
X0337954Y0261733D02*
X0337954Y0264285D01*
X0318765Y0290473D02*
X0317914Y0290473D01*
X0317489Y0290899D01*
X0316290Y0290473D02*
X0314589Y0290473D01*
X0315440Y0290473D02*
X0315440Y0293025D01*
X0316290Y0292174D01*
X0317489Y0292600D02*
X0317914Y0293025D01*
X0318765Y0293025D01*
X0319190Y0292600D01*
X0319190Y0290899D01*
X0318765Y0290473D01*
X0313390Y0290899D02*
X0312965Y0290473D01*
X0312114Y0290473D01*
X0311689Y0290899D01*
X0311689Y0291324D01*
X0312114Y0291749D01*
X0312539Y0291749D01*
X0312114Y0291749D02*
X0311689Y0292174D01*
X0311689Y0292600D01*
X0312114Y0293025D01*
X0312965Y0293025D01*
X0313390Y0292600D01*
X0310490Y0291749D02*
X0309214Y0291749D01*
X0308789Y0291324D01*
X0308789Y0290899D01*
X0309214Y0290473D01*
X0310065Y0290473D01*
X0310490Y0290899D01*
X0310490Y0291749D01*
X0309639Y0292600D01*
X0308789Y0293025D01*
X0292781Y0293173D02*
X0290229Y0293173D01*
X0290229Y0292323D02*
X0290229Y0294024D01*
X0290229Y0295223D02*
X0290229Y0296924D01*
X0290229Y0296073D02*
X0292781Y0296073D01*
X0291930Y0295223D01*
X0292781Y0293173D02*
X0291930Y0292323D01*
X0290229Y0291124D02*
X0290229Y0289422D01*
X0290229Y0290273D02*
X0292781Y0290273D01*
X0291930Y0289422D01*
X0292356Y0288224D02*
X0292781Y0287798D01*
X0292781Y0286948D01*
X0292356Y0286522D01*
X0290654Y0286522D01*
X0290229Y0286948D01*
X0290229Y0287798D01*
X0290654Y0288224D01*
X0279883Y0300402D02*
X0278182Y0300402D01*
X0277757Y0300828D01*
X0277757Y0301678D01*
X0278182Y0302104D01*
X0277757Y0303302D02*
X0277757Y0305004D01*
X0277757Y0304153D02*
X0280308Y0304153D01*
X0279458Y0303302D01*
X0279883Y0302104D02*
X0280308Y0301678D01*
X0280308Y0300828D01*
X0279883Y0300402D01*
X0279458Y0306203D02*
X0280308Y0307053D01*
X0277757Y0307053D01*
X0277757Y0306203D02*
X0277757Y0307904D01*
X0278182Y0309103D02*
X0277757Y0309528D01*
X0277757Y0310379D01*
X0278182Y0310804D01*
X0278607Y0310804D01*
X0279033Y0310379D01*
X0279033Y0309953D01*
X0279033Y0310379D02*
X0279458Y0310804D01*
X0279883Y0310804D01*
X0280308Y0310379D01*
X0280308Y0309528D01*
X0279883Y0309103D01*
X0244361Y0289151D02*
X0244361Y0287450D01*
X0243936Y0287024D01*
X0243086Y0287024D01*
X0242660Y0287450D01*
X0241461Y0287024D02*
X0239760Y0287024D01*
X0240611Y0287024D02*
X0240611Y0289576D01*
X0241461Y0288726D01*
X0242660Y0289151D02*
X0243086Y0289576D01*
X0243936Y0289576D01*
X0244361Y0289151D01*
X0238561Y0288726D02*
X0237711Y0289576D01*
X0237711Y0287024D01*
X0238561Y0287024D02*
X0236860Y0287024D01*
X0235661Y0287450D02*
X0235661Y0287875D01*
X0235236Y0288300D01*
X0234385Y0288300D01*
X0233960Y0287875D01*
X0233960Y0287450D01*
X0234385Y0287024D01*
X0235236Y0287024D01*
X0235661Y0287450D01*
X0235236Y0288300D02*
X0235661Y0288726D01*
X0235661Y0289151D01*
X0235236Y0289576D01*
X0234385Y0289576D01*
X0233960Y0289151D01*
X0233960Y0288726D01*
X0234385Y0288300D01*
X0336297Y0295666D02*
X0336722Y0295241D01*
X0337572Y0295241D01*
X0337998Y0295666D01*
X0339197Y0295666D02*
X0339622Y0295241D01*
X0340473Y0295241D01*
X0340898Y0295666D01*
X0340047Y0296517D02*
X0339622Y0296517D01*
X0339197Y0296092D01*
X0339197Y0295666D01*
X0339622Y0296517D02*
X0339197Y0296942D01*
X0339197Y0297367D01*
X0339622Y0297793D01*
X0340473Y0297793D01*
X0340898Y0297367D01*
X0342947Y0297793D02*
X0342947Y0295241D01*
X0342097Y0295241D02*
X0343798Y0295241D01*
X0344997Y0295666D02*
X0345422Y0295241D01*
X0346273Y0295241D01*
X0346698Y0295666D01*
X0346698Y0297367D01*
X0346273Y0297793D01*
X0345422Y0297793D01*
X0344997Y0297367D01*
X0343798Y0296942D02*
X0342947Y0297793D01*
X0337998Y0297367D02*
X0337572Y0297793D01*
X0336722Y0297793D01*
X0336297Y0297367D01*
X0336297Y0296942D01*
X0336722Y0296517D01*
X0336297Y0296092D01*
X0336297Y0295666D01*
X0336722Y0296517D02*
X0337147Y0296517D01*
D11*
X0065146Y0078222D02*
X0064574Y0078794D01*
X0064574Y0081083D01*
X0065146Y0081655D01*
X0066863Y0081655D01*
X0066863Y0078222D01*
X0065146Y0078222D01*
X0068562Y0078222D02*
X0068562Y0081655D01*
X0070851Y0081655D02*
X0068562Y0078222D01*
X0070851Y0078222D02*
X0070851Y0081655D01*
X0072549Y0081083D02*
X0073122Y0081655D01*
X0074266Y0081655D01*
X0074839Y0081083D01*
X0074839Y0078794D01*
X0074266Y0078222D01*
X0073122Y0078222D01*
X0072549Y0078794D01*
X0072549Y0079938D01*
X0073694Y0079938D01*
X0066983Y0092147D02*
X0066411Y0092720D01*
X0066411Y0093292D01*
X0066983Y0093864D01*
X0069844Y0093864D01*
X0069844Y0093292D02*
X0069844Y0094436D01*
X0069844Y0096135D02*
X0069844Y0098424D01*
X0069272Y0098424D01*
X0066983Y0096135D01*
X0066411Y0096135D01*
X0148407Y0128007D02*
X0148979Y0127434D01*
X0150696Y0127434D01*
X0150696Y0130868D01*
X0148979Y0130868D01*
X0148407Y0130296D01*
X0148407Y0128007D01*
X0152395Y0127434D02*
X0152395Y0130868D01*
X0154684Y0130868D02*
X0152395Y0127434D01*
X0154684Y0127434D02*
X0154684Y0130868D01*
X0156382Y0130296D02*
X0156955Y0130868D01*
X0158099Y0130868D01*
X0158672Y0130296D01*
X0158672Y0128007D01*
X0158099Y0127434D01*
X0156955Y0127434D01*
X0156382Y0128007D01*
X0156382Y0129151D01*
X0157527Y0129151D01*
X0160370Y0129151D02*
X0162659Y0129151D01*
X0162659Y0129723D02*
X0161515Y0130868D01*
X0160370Y0129723D01*
X0160370Y0127434D01*
X0162659Y0127434D02*
X0162659Y0129723D01*
X0198826Y0161865D02*
X0198826Y0164154D01*
X0199398Y0164726D01*
X0201115Y0164726D01*
X0201115Y0161293D01*
X0199398Y0161293D01*
X0198826Y0161865D01*
X0202814Y0161293D02*
X0202814Y0164726D01*
X0205103Y0164726D02*
X0202814Y0161293D01*
X0205103Y0161293D02*
X0205103Y0164726D01*
X0206801Y0164154D02*
X0207374Y0164726D01*
X0208518Y0164726D01*
X0209091Y0164154D01*
X0209091Y0161865D01*
X0208518Y0161293D01*
X0207374Y0161293D01*
X0206801Y0161865D01*
X0206801Y0163009D01*
X0207946Y0163009D01*
X0178377Y0217985D02*
X0177232Y0217985D01*
X0176660Y0218558D01*
X0174961Y0217985D02*
X0172672Y0217985D01*
X0170974Y0217985D02*
X0170974Y0221419D01*
X0170401Y0219702D02*
X0168685Y0217985D01*
X0166986Y0217985D02*
X0165842Y0217985D01*
X0166414Y0217985D02*
X0166414Y0221419D01*
X0166986Y0221419D02*
X0165842Y0221419D01*
X0164328Y0220847D02*
X0164328Y0218558D01*
X0162039Y0220847D01*
X0162039Y0218558D01*
X0162611Y0217985D01*
X0163755Y0217985D01*
X0164328Y0218558D01*
X0164328Y0220847D02*
X0163755Y0221419D01*
X0162611Y0221419D01*
X0162039Y0220847D01*
X0168685Y0221419D02*
X0170974Y0219130D01*
X0174961Y0217985D02*
X0174961Y0221419D01*
X0176660Y0220847D02*
X0177232Y0221419D01*
X0178377Y0221419D01*
X0178949Y0220847D01*
X0178949Y0218558D01*
X0178377Y0217985D01*
X0199736Y0238655D02*
X0198591Y0239799D01*
X0198591Y0242088D01*
X0200880Y0242088D02*
X0200880Y0239799D01*
X0199736Y0238655D01*
X0202579Y0239227D02*
X0203151Y0238655D01*
X0204296Y0238655D01*
X0204868Y0239227D01*
X0204868Y0239799D01*
X0204296Y0240372D01*
X0203151Y0240372D01*
X0202579Y0239799D01*
X0202579Y0239227D01*
X0203151Y0240372D02*
X0202579Y0240944D01*
X0202579Y0241516D01*
X0203151Y0242088D01*
X0204296Y0242088D01*
X0204868Y0241516D01*
X0204868Y0240944D01*
X0204296Y0240372D01*
X0206290Y0239227D02*
X0206290Y0238655D01*
X0206862Y0238655D01*
X0206862Y0239227D01*
X0206290Y0239227D01*
X0208560Y0238655D02*
X0210850Y0238655D01*
X0209705Y0238655D02*
X0209705Y0242088D01*
X0210850Y0240944D01*
X0212548Y0240372D02*
X0214837Y0240372D01*
X0213693Y0241516D02*
X0213693Y0239227D01*
X0251752Y0269345D02*
X0252324Y0268773D01*
X0254041Y0268773D01*
X0254041Y0272206D01*
X0252324Y0272206D01*
X0251752Y0271634D01*
X0251752Y0271062D01*
X0252324Y0270490D01*
X0254041Y0270490D01*
X0252324Y0270490D02*
X0251752Y0269917D01*
X0251752Y0269345D01*
X0255739Y0268201D02*
X0258028Y0268201D01*
X0259727Y0268773D02*
X0261444Y0270490D01*
X0262016Y0269917D02*
X0259727Y0272206D01*
X0262016Y0272206D02*
X0262016Y0268773D01*
X0263715Y0268773D02*
X0263715Y0272206D01*
X0266004Y0272206D02*
X0263715Y0268773D01*
X0266004Y0268773D02*
X0266004Y0272206D01*
X0267518Y0272206D02*
X0268662Y0272206D01*
X0268090Y0272206D02*
X0268090Y0268773D01*
X0268662Y0268773D02*
X0267518Y0268773D01*
X0270361Y0268773D02*
X0272650Y0268773D01*
X0272650Y0272206D01*
X0274348Y0272206D02*
X0274348Y0269917D01*
X0275493Y0268773D01*
X0276637Y0269917D01*
X0276637Y0272206D01*
X0270769Y0300859D02*
X0269624Y0302004D01*
X0269624Y0304293D01*
X0267925Y0304293D02*
X0267925Y0300859D01*
X0265636Y0300859D01*
X0263938Y0300859D02*
X0262793Y0300859D01*
X0263365Y0300859D02*
X0263365Y0304293D01*
X0262793Y0304293D02*
X0263938Y0304293D01*
X0261279Y0304293D02*
X0258990Y0300859D01*
X0258990Y0304293D01*
X0257292Y0304293D02*
X0257292Y0300859D01*
X0257292Y0302004D02*
X0255003Y0304293D01*
X0256719Y0302576D02*
X0255003Y0300859D01*
X0253304Y0300287D02*
X0251015Y0300287D01*
X0249316Y0300859D02*
X0249316Y0303149D01*
X0248172Y0304293D01*
X0247027Y0303149D01*
X0247027Y0300859D01*
X0247027Y0302576D02*
X0249316Y0302576D01*
X0261279Y0300859D02*
X0261279Y0304293D01*
X0270769Y0300859D02*
X0271913Y0302004D01*
X0271913Y0304293D01*
X0314733Y0310469D02*
X0315878Y0309324D01*
X0317022Y0310469D01*
X0317022Y0312758D01*
X0318721Y0312185D02*
X0318721Y0311613D01*
X0319293Y0311041D01*
X0318721Y0310469D01*
X0318721Y0309896D01*
X0319293Y0309324D01*
X0320438Y0309324D01*
X0321010Y0309896D01*
X0322431Y0309896D02*
X0322431Y0309324D01*
X0323004Y0309324D01*
X0323004Y0309896D01*
X0322431Y0309896D01*
X0324702Y0309896D02*
X0325274Y0309324D01*
X0326419Y0309324D01*
X0326991Y0309896D01*
X0325847Y0311041D02*
X0325274Y0311041D01*
X0324702Y0310469D01*
X0324702Y0309896D01*
X0325274Y0311041D02*
X0324702Y0311613D01*
X0324702Y0312185D01*
X0325274Y0312758D01*
X0326419Y0312758D01*
X0326991Y0312185D01*
X0328690Y0311041D02*
X0330979Y0311041D01*
X0329834Y0312185D02*
X0329834Y0309896D01*
X0321010Y0312185D02*
X0320438Y0312758D01*
X0319293Y0312758D01*
X0318721Y0312185D01*
X0319293Y0311041D02*
X0319865Y0311041D01*
X0314733Y0310469D02*
X0314733Y0312758D01*
X0318880Y0298191D02*
X0318880Y0295902D01*
X0320024Y0294757D01*
X0321169Y0295902D01*
X0321169Y0298191D01*
X0322867Y0297618D02*
X0323439Y0298191D01*
X0324584Y0298191D01*
X0325156Y0297618D01*
X0322867Y0297618D02*
X0322867Y0297046D01*
X0325156Y0294757D01*
X0322867Y0294757D01*
X0326855Y0294757D02*
X0329144Y0294757D01*
X0327999Y0294757D02*
X0327999Y0298191D01*
X0329144Y0297046D01*
X0330843Y0296474D02*
X0333132Y0296474D01*
X0331987Y0297618D02*
X0331987Y0295329D01*
X0342001Y0300962D02*
X0342001Y0302107D01*
X0342573Y0302679D01*
X0343718Y0302679D01*
X0343718Y0301534D01*
X0342573Y0300390D02*
X0342001Y0300962D01*
X0342573Y0300390D02*
X0344863Y0300390D01*
X0345435Y0300962D01*
X0345435Y0302107D01*
X0344863Y0302679D01*
X0345435Y0304377D02*
X0342001Y0306667D01*
X0345435Y0306667D01*
X0345435Y0308365D02*
X0342001Y0308365D01*
X0342001Y0310082D01*
X0342573Y0310654D01*
X0344863Y0310654D01*
X0345435Y0310082D01*
X0345435Y0308365D01*
X0345435Y0304377D02*
X0342001Y0304377D01*
X0154884Y0304505D02*
X0154311Y0303933D01*
X0152022Y0303933D01*
X0151450Y0304505D01*
X0151450Y0305650D01*
X0152022Y0306222D01*
X0153167Y0306222D01*
X0153167Y0305078D01*
X0154311Y0306222D02*
X0154884Y0305650D01*
X0154884Y0304505D01*
X0154884Y0307921D02*
X0151450Y0310210D01*
X0154884Y0310210D01*
X0154884Y0311908D02*
X0154884Y0313625D01*
X0154311Y0314197D01*
X0152022Y0314197D01*
X0151450Y0313625D01*
X0151450Y0311908D01*
X0154884Y0311908D01*
X0154884Y0307921D02*
X0151450Y0307921D01*
X0061821Y0279581D02*
X0061249Y0279009D01*
X0060677Y0279009D01*
X0060104Y0279581D01*
X0060104Y0282443D01*
X0059532Y0282443D02*
X0060677Y0282443D01*
X0057833Y0281870D02*
X0057261Y0282443D01*
X0056117Y0282443D01*
X0055544Y0281870D01*
X0055544Y0281298D01*
X0057833Y0279009D01*
X0055544Y0279009D01*
X0056689Y0262758D02*
X0056689Y0259324D01*
X0057833Y0259324D02*
X0055544Y0259324D01*
X0057833Y0261613D02*
X0056689Y0262758D01*
X0059532Y0262758D02*
X0060677Y0262758D01*
X0060104Y0262758D02*
X0060104Y0259896D01*
X0060677Y0259324D01*
X0061249Y0259324D01*
X0061821Y0259896D01*
X0068951Y0234251D02*
X0068379Y0233679D01*
X0068379Y0232534D01*
X0068951Y0231962D01*
X0070096Y0233106D02*
X0070096Y0233679D01*
X0069524Y0234251D01*
X0068951Y0234251D01*
X0070096Y0233679D02*
X0070668Y0234251D01*
X0071241Y0234251D01*
X0071813Y0233679D01*
X0071813Y0232534D01*
X0071241Y0231962D01*
X0071813Y0230263D02*
X0071813Y0229119D01*
X0071813Y0229691D02*
X0068951Y0229691D01*
X0068379Y0229119D01*
X0068379Y0228546D01*
X0068951Y0227974D01*
X0070096Y0216534D02*
X0070096Y0214245D01*
X0071813Y0215962D01*
X0068379Y0215962D01*
X0068951Y0211974D02*
X0071813Y0211974D01*
X0071813Y0211402D02*
X0071813Y0212547D01*
X0068951Y0211974D02*
X0068379Y0211402D01*
X0068379Y0210830D01*
X0068951Y0210258D01*
X0068951Y0198818D02*
X0068379Y0198246D01*
X0068379Y0197101D01*
X0068951Y0196529D01*
X0070096Y0196529D02*
X0070668Y0197673D01*
X0070668Y0198246D01*
X0070096Y0198818D01*
X0068951Y0198818D01*
X0070096Y0196529D02*
X0071813Y0196529D01*
X0071813Y0198818D01*
X0071813Y0194830D02*
X0071813Y0193686D01*
X0071813Y0194258D02*
X0068951Y0194258D01*
X0068379Y0193686D01*
X0068379Y0193113D01*
X0068951Y0192541D01*
X0070265Y0183230D02*
X0071981Y0183230D01*
X0071981Y0179796D01*
X0070265Y0179796D01*
X0069692Y0180369D01*
X0069692Y0182658D01*
X0070265Y0183230D01*
X0073680Y0183230D02*
X0073680Y0179796D01*
X0075969Y0183230D01*
X0075969Y0179796D01*
X0077668Y0180369D02*
X0077668Y0181513D01*
X0078812Y0181513D01*
X0077668Y0180369D02*
X0078240Y0179796D01*
X0079384Y0179796D01*
X0079957Y0180369D01*
X0079957Y0182658D01*
X0079384Y0183230D01*
X0078240Y0183230D01*
X0077668Y0182658D01*
X0093227Y0196726D02*
X0093227Y0200159D01*
X0092083Y0200159D02*
X0094372Y0200159D01*
X0096070Y0199587D02*
X0096642Y0200159D01*
X0097787Y0200159D01*
X0098359Y0199587D01*
X0098359Y0197298D01*
X0097787Y0196726D01*
X0096642Y0196726D01*
X0096070Y0197298D01*
X0096070Y0199587D01*
X0100058Y0199587D02*
X0100630Y0200159D01*
X0102347Y0200159D01*
X0102347Y0196726D01*
X0102347Y0197870D02*
X0100630Y0197870D01*
X0100058Y0198442D01*
X0100058Y0199587D01*
X0101202Y0197870D02*
X0100058Y0196726D01*
X0104046Y0198442D02*
X0104618Y0197870D01*
X0106335Y0197870D01*
X0106335Y0196726D02*
X0106335Y0200159D01*
X0104618Y0200159D01*
X0104046Y0199587D01*
X0104046Y0198442D01*
X0108033Y0197870D02*
X0108033Y0200159D01*
X0108033Y0197870D02*
X0109178Y0196726D01*
X0110322Y0197870D01*
X0110322Y0200159D01*
X0110857Y0218379D02*
X0113147Y0218379D01*
X0112002Y0218379D02*
X0112002Y0221813D01*
X0113147Y0220668D01*
X0114660Y0221813D02*
X0115805Y0221813D01*
X0115233Y0221813D02*
X0115233Y0218379D01*
X0115805Y0218379D02*
X0114660Y0218379D01*
X0117504Y0218379D02*
X0119220Y0220096D01*
X0119793Y0219524D02*
X0117504Y0221813D01*
X0119793Y0221813D02*
X0119793Y0218379D01*
X0121491Y0218379D02*
X0123780Y0218379D01*
X0123780Y0221813D01*
X0125479Y0221241D02*
X0126051Y0221813D01*
X0127196Y0221813D01*
X0127768Y0221241D01*
X0127768Y0218951D01*
X0127196Y0218379D01*
X0126051Y0218379D01*
X0125479Y0218951D01*
X0330384Y0164676D02*
X0331022Y0165314D01*
X0333573Y0165314D01*
X0334211Y0164676D01*
X0334211Y0163400D01*
X0333573Y0162762D01*
X0331022Y0162762D01*
X0330384Y0163400D01*
X0330384Y0164676D01*
X0330384Y0160964D02*
X0334211Y0158412D01*
X0330384Y0158412D01*
X0330384Y0156613D02*
X0330384Y0155338D01*
X0330384Y0155975D02*
X0334211Y0155975D01*
X0334211Y0155338D02*
X0334211Y0156613D01*
X0334211Y0153713D02*
X0330384Y0151162D01*
X0330384Y0153713D02*
X0334211Y0151162D01*
X0337470Y0147913D02*
X0341298Y0147913D01*
X0339384Y0147913D02*
X0339384Y0145361D01*
X0339384Y0143563D02*
X0340660Y0143563D01*
X0341298Y0142925D01*
X0341298Y0141649D01*
X0340660Y0141011D01*
X0339384Y0141011D01*
X0338746Y0141649D01*
X0338746Y0142925D01*
X0339384Y0143563D01*
X0337470Y0145361D02*
X0341298Y0145361D01*
X0341298Y0139213D02*
X0341298Y0137299D01*
X0340660Y0136661D01*
X0340022Y0137299D01*
X0340022Y0138575D01*
X0339384Y0139213D01*
X0338746Y0138575D01*
X0338746Y0136661D01*
X0338746Y0134863D02*
X0338746Y0133587D01*
X0338108Y0134225D02*
X0340660Y0134225D01*
X0341298Y0133587D01*
X0340660Y0125944D02*
X0341298Y0125306D01*
X0341298Y0124668D01*
X0340660Y0124030D01*
X0337470Y0124030D01*
X0337470Y0124668D02*
X0337470Y0123392D01*
X0337470Y0121594D02*
X0337470Y0119680D01*
X0338108Y0119042D01*
X0339384Y0119042D01*
X0340022Y0119680D01*
X0340022Y0121594D01*
X0341298Y0121594D02*
X0337470Y0121594D01*
X0334211Y0120956D02*
X0334211Y0119680D01*
X0334211Y0120956D02*
X0333573Y0121594D01*
X0332298Y0121594D01*
X0331660Y0120956D01*
X0331660Y0119680D01*
X0332298Y0119042D01*
X0332936Y0119042D01*
X0332936Y0121594D01*
X0332298Y0123392D02*
X0332936Y0124030D01*
X0332936Y0125944D01*
X0334211Y0125944D02*
X0330384Y0125944D01*
X0330384Y0124030D01*
X0331022Y0123392D01*
X0332298Y0123392D01*
X0332936Y0124668D02*
X0334211Y0123392D01*
X0331660Y0117243D02*
X0334211Y0115967D01*
X0331660Y0114692D01*
X0333573Y0112893D02*
X0333573Y0112255D01*
X0334211Y0112255D01*
X0334211Y0112893D01*
X0333573Y0112893D01*
X0337470Y0114692D02*
X0341298Y0114692D01*
X0337470Y0117243D01*
X0341298Y0117243D01*
X0341298Y0108543D02*
X0338746Y0105991D01*
X0338108Y0105991D01*
X0337470Y0106629D01*
X0337470Y0107905D01*
X0338108Y0108543D01*
X0341298Y0108543D02*
X0341298Y0105991D01*
X0340660Y0104193D02*
X0338108Y0101641D01*
X0340660Y0101641D01*
X0341298Y0102279D01*
X0341298Y0103555D01*
X0340660Y0104193D01*
X0338108Y0104193D01*
X0337470Y0103555D01*
X0337470Y0102279D01*
X0338108Y0101641D01*
X0338108Y0099843D02*
X0337470Y0099205D01*
X0337470Y0097929D01*
X0338108Y0097291D01*
X0338746Y0097291D01*
X0341298Y0099843D01*
X0341298Y0097291D01*
X0341298Y0095492D02*
X0341298Y0092941D01*
X0341298Y0094217D02*
X0337470Y0094217D01*
X0338746Y0095492D01*
X0334211Y0097929D02*
X0333573Y0097291D01*
X0332936Y0097291D01*
X0332298Y0097929D01*
X0332298Y0099843D01*
X0333573Y0099843D01*
X0334211Y0099205D01*
X0334211Y0097929D01*
X0332298Y0099843D02*
X0331022Y0098567D01*
X0330384Y0097291D01*
X0333573Y0101380D02*
X0334211Y0101380D01*
X0334211Y0102018D01*
X0333573Y0102018D01*
X0333573Y0101380D01*
X0334211Y0103816D02*
X0334211Y0106368D01*
X0334211Y0105092D02*
X0330384Y0105092D01*
X0331660Y0106368D01*
X0338108Y0154062D02*
X0337470Y0154700D01*
X0337470Y0155975D01*
X0338108Y0156613D01*
X0340660Y0156613D01*
X0341298Y0155975D01*
X0341298Y0154700D01*
X0340660Y0154062D01*
X0341298Y0158412D02*
X0337470Y0158412D01*
X0338746Y0159688D01*
X0337470Y0160964D01*
X0341298Y0160964D01*
X0339384Y0164038D02*
X0339384Y0165314D01*
X0337470Y0165314D02*
X0337470Y0162762D01*
X0337470Y0165314D02*
X0341298Y0165314D01*
X0334211Y0160964D02*
X0330384Y0160964D01*
D12*
X0324031Y0192142D02*
X0324031Y0212614D01*
X0340567Y0212614D01*
X0340567Y0192142D01*
X0324031Y0192142D01*
X0323476Y0216682D02*
X0319076Y0216682D01*
X0319076Y0225082D01*
X0323476Y0225082D01*
X0323476Y0216682D01*
X0341123Y0216682D02*
X0345523Y0216682D01*
X0345523Y0225082D01*
X0341123Y0225082D01*
X0341123Y0216682D01*
X0323082Y0240698D02*
X0318682Y0240698D01*
X0318682Y0249098D01*
X0323082Y0249098D01*
X0323082Y0240698D01*
X0336535Y0249228D02*
X0340935Y0249228D01*
X0340935Y0257628D01*
X0336535Y0257628D01*
X0336535Y0249228D01*
X0335937Y0256971D02*
X0331537Y0256971D01*
X0331537Y0265371D01*
X0335937Y0265371D01*
X0335937Y0256971D01*
X0320295Y0270437D02*
X0320295Y0289437D01*
X0307295Y0289437D01*
X0307295Y0270437D01*
X0320295Y0270437D01*
X0305759Y0273375D02*
X0305759Y0281775D01*
X0301359Y0281775D01*
X0301359Y0273375D01*
X0305759Y0273375D01*
X0301035Y0273375D02*
X0301035Y0281775D01*
X0296635Y0281775D01*
X0296635Y0273375D01*
X0301035Y0273375D01*
X0289055Y0293016D02*
X0281055Y0293016D01*
X0281055Y0307016D01*
X0289055Y0307016D01*
X0289055Y0293016D01*
X0289154Y0298572D02*
X0293554Y0298572D01*
X0293554Y0306972D01*
X0289154Y0306972D01*
X0289154Y0298572D01*
X0334854Y0294161D02*
X0334854Y0275161D01*
X0347854Y0275161D01*
X0347854Y0294161D01*
X0334854Y0294161D01*
X0277638Y0254457D02*
X0269638Y0254457D01*
X0269638Y0240457D01*
X0277638Y0240457D01*
X0277638Y0254457D01*
X0277811Y0245764D02*
X0277811Y0235764D01*
X0297811Y0235764D01*
X0297811Y0245764D01*
X0277811Y0245764D01*
X0268948Y0242011D02*
X0264548Y0242011D01*
X0264548Y0233611D01*
X0268948Y0233611D01*
X0268948Y0242011D01*
X0268030Y0242978D02*
X0268030Y0255478D01*
X0261530Y0255478D01*
X0261530Y0242978D01*
X0268030Y0242978D01*
X0259543Y0242969D02*
X0259543Y0262969D01*
X0249543Y0262969D01*
X0249543Y0242969D01*
X0259543Y0242969D01*
X0257924Y0239058D02*
X0253524Y0239058D01*
X0253524Y0230658D01*
X0257924Y0230658D01*
X0257924Y0239058D01*
X0253003Y0239058D02*
X0248603Y0239058D01*
X0248603Y0230658D01*
X0253003Y0230658D01*
X0253003Y0239058D01*
X0248148Y0243175D02*
X0248148Y0255675D01*
X0241648Y0255675D01*
X0241648Y0243175D01*
X0248148Y0243175D01*
X0246145Y0236074D02*
X0237745Y0236074D01*
X0237745Y0231674D01*
X0246145Y0231674D01*
X0246145Y0236074D01*
X0246145Y0231743D02*
X0246145Y0227343D01*
X0237745Y0227343D01*
X0237745Y0231743D01*
X0246145Y0231743D01*
X0246145Y0227216D02*
X0237745Y0227216D01*
X0237745Y0222816D01*
X0246145Y0222816D01*
X0246145Y0227216D01*
X0246145Y0222885D02*
X0246145Y0218485D01*
X0237745Y0218485D01*
X0237745Y0222885D01*
X0246145Y0222885D01*
X0246145Y0218357D02*
X0246145Y0213957D01*
X0237745Y0213957D01*
X0237745Y0218357D01*
X0246145Y0218357D01*
X0250346Y0214102D02*
X0258346Y0214102D01*
X0258346Y0200102D01*
X0250346Y0200102D01*
X0250346Y0214102D01*
X0245751Y0213633D02*
X0245751Y0209233D01*
X0237351Y0209233D01*
X0237351Y0213633D01*
X0245751Y0213633D01*
X0245847Y0210318D02*
X0250247Y0210318D01*
X0250247Y0201918D01*
X0245847Y0201918D01*
X0245847Y0210318D01*
X0245751Y0209106D02*
X0245751Y0204706D01*
X0237351Y0204706D01*
X0237351Y0209106D01*
X0245751Y0209106D01*
X0258643Y0209531D02*
X0258643Y0201131D01*
X0263043Y0201131D01*
X0263043Y0209531D01*
X0258643Y0209531D01*
X0263638Y0213283D02*
X0263638Y0203283D01*
X0283638Y0203283D01*
X0283638Y0213283D01*
X0263638Y0213283D01*
X0266485Y0213761D02*
X0266485Y0218161D01*
X0274885Y0218161D01*
X0274885Y0213761D01*
X0266485Y0213761D01*
X0266485Y0218682D02*
X0266485Y0223082D01*
X0274885Y0223082D01*
X0274885Y0218682D01*
X0266485Y0218682D01*
X0257929Y0223165D02*
X0257929Y0233165D01*
X0277929Y0233165D01*
X0277929Y0223165D01*
X0257929Y0223165D01*
X0237417Y0218520D02*
X0234661Y0221276D01*
X0224425Y0221276D01*
X0224425Y0247654D01*
X0234661Y0247654D01*
X0234661Y0221276D01*
X0232250Y0215864D02*
X0219750Y0215864D01*
X0219750Y0209364D01*
X0232250Y0209364D01*
X0232250Y0215864D01*
X0234228Y0209346D02*
X0214228Y0209346D01*
X0214228Y0199346D01*
X0234228Y0199346D01*
X0234228Y0209346D01*
X0250252Y0199701D02*
X0250252Y0189701D01*
X0270252Y0189701D01*
X0270252Y0199701D01*
X0250252Y0199701D01*
X0278918Y0226918D02*
X0283318Y0226918D01*
X0283318Y0235318D01*
X0278918Y0235318D01*
X0278918Y0226918D01*
X0240028Y0250209D02*
X0240028Y0263209D01*
X0221028Y0263209D01*
X0221028Y0250209D01*
X0240028Y0250209D01*
X0224819Y0265370D02*
X0224819Y0273638D01*
X0224661Y0275724D02*
X0244661Y0275724D01*
X0244661Y0285724D01*
X0224661Y0285724D01*
X0224661Y0275724D01*
X0220764Y0279898D02*
X0210764Y0279898D01*
X0210764Y0259898D01*
X0220764Y0259898D01*
X0220764Y0279898D01*
X0210121Y0280493D02*
X0210121Y0284893D01*
X0201721Y0284893D01*
X0201721Y0280493D01*
X0210121Y0280493D01*
X0209927Y0286195D02*
X0209927Y0294195D01*
X0195927Y0294195D01*
X0195927Y0286195D01*
X0209927Y0286195D01*
X0201551Y0282969D02*
X0181551Y0282969D01*
X0181551Y0272969D01*
X0201551Y0272969D01*
X0201551Y0282969D01*
X0190791Y0283311D02*
X0190791Y0291711D01*
X0186391Y0291711D01*
X0186391Y0283311D01*
X0190791Y0283311D01*
X0191848Y0292191D02*
X0185348Y0292191D01*
X0185348Y0304691D01*
X0191848Y0304691D01*
X0191848Y0292191D01*
X0195134Y0295409D02*
X0215134Y0295409D01*
X0215134Y0305409D01*
X0195134Y0305409D01*
X0195134Y0295409D01*
X0183165Y0293953D02*
X0183165Y0313953D01*
X0173165Y0313953D01*
X0173165Y0293953D01*
X0183165Y0293953D01*
X0181350Y0288468D02*
X0176950Y0288468D01*
X0176950Y0280068D01*
X0181350Y0280068D01*
X0181350Y0288468D01*
X0176325Y0288475D02*
X0171925Y0288475D01*
X0171925Y0280075D01*
X0176325Y0280075D01*
X0176325Y0288475D01*
X0169373Y0285877D02*
X0169373Y0281477D01*
X0160973Y0281477D01*
X0160973Y0285877D01*
X0169373Y0285877D01*
X0169373Y0281546D02*
X0160973Y0281546D01*
X0160973Y0277146D01*
X0169373Y0277146D01*
X0169373Y0281546D01*
X0169373Y0277216D02*
X0160973Y0277216D01*
X0160973Y0272816D01*
X0169373Y0272816D01*
X0169373Y0277216D01*
X0169366Y0272781D02*
X0160966Y0272781D01*
X0160966Y0268381D01*
X0169366Y0268381D01*
X0169366Y0272781D01*
X0161039Y0270094D02*
X0158283Y0272850D01*
X0148441Y0272850D01*
X0148441Y0300409D01*
X0158283Y0300409D01*
X0158283Y0272850D01*
X0160959Y0268456D02*
X0160959Y0264056D01*
X0169359Y0264056D01*
X0169359Y0268456D01*
X0160959Y0268456D01*
X0160776Y0264027D02*
X0160776Y0259627D01*
X0169176Y0259627D01*
X0169176Y0264027D01*
X0160776Y0264027D01*
X0160776Y0259499D02*
X0160776Y0255099D01*
X0169176Y0255099D01*
X0169176Y0259499D01*
X0160776Y0259499D01*
X0157646Y0259833D02*
X0137646Y0259833D01*
X0137646Y0249833D01*
X0157646Y0249833D01*
X0157646Y0259833D01*
X0156160Y0259654D02*
X0156160Y0266154D01*
X0143660Y0266154D01*
X0143660Y0259654D01*
X0156160Y0259654D01*
X0169181Y0260619D02*
X0169181Y0252219D01*
X0173581Y0252219D01*
X0173581Y0260619D01*
X0169181Y0260619D01*
X0173575Y0262724D02*
X0181575Y0262724D01*
X0181575Y0248724D01*
X0173575Y0248724D01*
X0173575Y0262724D01*
X0182159Y0260018D02*
X0186559Y0260018D01*
X0186559Y0251618D01*
X0182159Y0251618D01*
X0182159Y0260018D01*
X0187260Y0261906D02*
X0187260Y0251906D01*
X0207260Y0251906D01*
X0207260Y0261906D01*
X0187260Y0261906D01*
X0190501Y0263367D02*
X0190501Y0267767D01*
X0198901Y0267767D01*
X0198901Y0263367D01*
X0190501Y0263367D01*
X0190501Y0268288D02*
X0190501Y0272688D01*
X0198901Y0272688D01*
X0198901Y0268288D01*
X0190501Y0268288D01*
X0192693Y0248323D02*
X0172693Y0248323D01*
X0172693Y0238323D01*
X0192693Y0238323D01*
X0192693Y0248323D01*
X0194735Y0220751D02*
X0190335Y0220751D01*
X0190335Y0212351D01*
X0194735Y0212351D01*
X0194735Y0220751D01*
X0198603Y0221145D02*
X0203003Y0221145D01*
X0203003Y0212745D01*
X0198603Y0212745D01*
X0198603Y0221145D01*
X0204115Y0221145D02*
X0208515Y0221145D01*
X0208515Y0212745D01*
X0204115Y0212745D01*
X0204115Y0221145D01*
X0207759Y0211271D02*
X0199359Y0211271D01*
X0199359Y0206871D01*
X0207759Y0206871D01*
X0207759Y0211271D01*
X0210953Y0203622D02*
X0196953Y0203622D01*
X0196953Y0195622D01*
X0210953Y0195622D01*
X0210953Y0203622D01*
X0183675Y0177414D02*
X0180564Y0180525D01*
X0174624Y0174586D01*
X0177735Y0171475D01*
X0183675Y0177414D01*
X0187570Y0173542D02*
X0193227Y0167885D01*
X0183328Y0157986D01*
X0177671Y0163642D01*
X0187570Y0173542D01*
X0172361Y0166310D02*
X0166704Y0171967D01*
X0156805Y0162068D01*
X0162461Y0156411D01*
X0172361Y0166310D01*
X0176554Y0162022D02*
X0173443Y0158910D01*
X0179383Y0152971D01*
X0182494Y0156082D01*
X0176554Y0162022D01*
X0172587Y0152609D02*
X0172587Y0148209D01*
X0180987Y0148209D01*
X0180987Y0152609D01*
X0172587Y0152609D01*
X0169145Y0152247D02*
X0164745Y0152247D01*
X0164745Y0143847D01*
X0169145Y0143847D01*
X0169145Y0152247D01*
X0164646Y0155047D02*
X0156646Y0155047D01*
X0156646Y0141047D01*
X0164646Y0141047D01*
X0164646Y0155047D01*
X0163094Y0140236D02*
X0163094Y0132236D01*
X0177094Y0132236D01*
X0177094Y0140236D01*
X0163094Y0140236D01*
X0147173Y0138268D02*
X0147173Y0130268D01*
X0133173Y0130268D01*
X0133173Y0138268D01*
X0147173Y0138268D01*
X0144373Y0128594D02*
X0135973Y0128594D01*
X0135973Y0124194D01*
X0144373Y0124194D01*
X0144373Y0128594D01*
X0143980Y0110877D02*
X0135580Y0110877D01*
X0135580Y0106477D01*
X0143980Y0106477D01*
X0143980Y0110877D01*
X0146780Y0105984D02*
X0132780Y0105984D01*
X0132780Y0097984D01*
X0146780Y0097984D01*
X0146780Y0105984D01*
X0157827Y0095205D02*
X0157827Y0081205D01*
X0165827Y0081205D01*
X0165827Y0095205D01*
X0157827Y0095205D01*
X0166320Y0092011D02*
X0166320Y0083611D01*
X0170720Y0083611D01*
X0170720Y0092011D01*
X0166320Y0092011D01*
X0171213Y0095205D02*
X0171213Y0081205D01*
X0179213Y0081205D01*
X0179213Y0095205D01*
X0171213Y0095205D01*
X0175082Y0098603D02*
X0166682Y0098603D01*
X0166682Y0103003D01*
X0175082Y0103003D01*
X0175082Y0098603D01*
X0176162Y0098965D02*
X0180562Y0098965D01*
X0180562Y0107365D01*
X0176162Y0107365D01*
X0176162Y0098965D01*
X0175882Y0103795D02*
X0165882Y0103795D01*
X0165882Y0123795D01*
X0175882Y0123795D01*
X0175882Y0103795D01*
X0184398Y0103721D02*
X0184398Y0108121D01*
X0192798Y0108121D01*
X0192798Y0103721D01*
X0184398Y0103721D01*
X0184398Y0103003D02*
X0184398Y0098603D01*
X0192798Y0098603D01*
X0192798Y0103003D01*
X0184398Y0103003D01*
X0184398Y0097885D02*
X0184398Y0093485D01*
X0192798Y0093485D01*
X0192798Y0097885D01*
X0184398Y0097885D01*
X0187417Y0092929D02*
X0188992Y0091354D01*
X0201984Y0091354D01*
X0201984Y0074819D01*
X0188992Y0074819D01*
X0188992Y0091354D01*
X0201753Y0094241D02*
X0206153Y0094241D01*
X0206153Y0102641D01*
X0201753Y0102641D01*
X0201753Y0094241D01*
X0207409Y0104677D02*
X0193409Y0104677D01*
X0193409Y0112677D01*
X0207409Y0112677D01*
X0207409Y0104677D01*
X0204609Y0113170D02*
X0196209Y0113170D01*
X0196209Y0117570D01*
X0204609Y0117570D01*
X0204609Y0113170D01*
X0207016Y0118063D02*
X0207016Y0126063D01*
X0193016Y0126063D01*
X0193016Y0118063D01*
X0207016Y0118063D01*
X0192798Y0113239D02*
X0192798Y0108839D01*
X0184398Y0108839D01*
X0184398Y0113239D01*
X0192798Y0113239D01*
X0190043Y0127737D02*
X0181643Y0127737D01*
X0181643Y0132137D01*
X0190043Y0132137D01*
X0190043Y0127737D01*
X0156074Y0168222D02*
X0161731Y0173879D01*
X0151831Y0183778D01*
X0146175Y0178121D01*
X0156074Y0168222D01*
X0161980Y0174127D02*
X0167636Y0179784D01*
X0157737Y0189684D01*
X0152080Y0184027D01*
X0161980Y0174127D01*
X0167885Y0180033D02*
X0173542Y0185690D01*
X0163642Y0195589D01*
X0157986Y0189932D01*
X0167885Y0180033D01*
X0128200Y0160515D02*
X0128200Y0152115D01*
X0123800Y0152115D01*
X0123800Y0160515D01*
X0128200Y0160515D01*
X0103397Y0161302D02*
X0103397Y0152902D01*
X0098997Y0152902D01*
X0098997Y0161302D01*
X0103397Y0161302D01*
X0106871Y0133350D02*
X0106871Y0124950D01*
X0111271Y0124950D01*
X0111271Y0133350D01*
X0106871Y0133350D01*
X0116320Y0133350D02*
X0116320Y0124950D01*
X0120720Y0124950D01*
X0120720Y0133350D01*
X0116320Y0133350D01*
X0114745Y0105791D02*
X0114745Y0097391D01*
X0119145Y0097391D01*
X0119145Y0105791D01*
X0114745Y0105791D01*
X0110877Y0105791D02*
X0106477Y0105791D01*
X0106477Y0097391D01*
X0110877Y0097391D01*
X0110877Y0105791D01*
X0169863Y0066027D02*
X0174263Y0066027D01*
X0174263Y0057627D01*
X0169863Y0057627D01*
X0169863Y0066027D01*
X0169863Y0056184D02*
X0169863Y0047784D01*
X0174263Y0047784D01*
X0174263Y0056184D01*
X0169863Y0056184D01*
X0182430Y0058446D02*
X0190830Y0058446D01*
X0190830Y0062846D01*
X0182430Y0062846D01*
X0182430Y0058446D01*
X0182430Y0063170D02*
X0190830Y0063170D01*
X0190830Y0067570D01*
X0182430Y0067570D01*
X0182430Y0063170D01*
X0193485Y0065894D02*
X0197885Y0065894D01*
X0197885Y0074294D01*
X0193485Y0074294D01*
X0193485Y0065894D01*
X0197816Y0065894D02*
X0202216Y0065894D01*
X0202216Y0074294D01*
X0197816Y0074294D01*
X0197816Y0065894D01*
X0197098Y0054609D02*
X0192698Y0054609D01*
X0192698Y0046209D01*
X0197098Y0046209D01*
X0197098Y0054609D01*
X0236367Y0087973D02*
X0236367Y0092373D01*
X0244767Y0092373D01*
X0244767Y0087973D01*
X0236367Y0087973D01*
X0245422Y0087973D02*
X0245422Y0092373D01*
X0253822Y0092373D01*
X0253822Y0087973D01*
X0245422Y0087973D01*
X0120720Y0189517D02*
X0116320Y0189517D01*
X0116320Y0197917D01*
X0120720Y0197917D01*
X0120720Y0189517D01*
X0137580Y0211564D02*
X0141980Y0211564D01*
X0141980Y0219964D01*
X0137580Y0219964D01*
X0137580Y0211564D01*
X0141249Y0244587D02*
X0149649Y0244587D01*
X0149649Y0248987D01*
X0141249Y0248987D01*
X0141249Y0244587D01*
X0092011Y0244735D02*
X0092011Y0240335D01*
X0083611Y0240335D01*
X0083611Y0244735D01*
X0092011Y0244735D01*
X0092011Y0245454D02*
X0092011Y0249854D01*
X0083611Y0249854D01*
X0083611Y0245454D01*
X0092011Y0245454D01*
X0082562Y0245454D02*
X0082562Y0249854D01*
X0074162Y0249854D01*
X0074162Y0245454D01*
X0082562Y0245454D01*
X0082562Y0244735D02*
X0074162Y0244735D01*
X0074162Y0240335D01*
X0082562Y0240335D01*
X0082562Y0244735D01*
X0082562Y0250572D02*
X0074162Y0250572D01*
X0074162Y0254972D01*
X0082562Y0254972D01*
X0082562Y0250572D01*
X0083611Y0255296D02*
X0092011Y0255296D01*
X0092011Y0259696D01*
X0083611Y0259696D01*
X0083611Y0255296D01*
X0082562Y0260414D02*
X0082562Y0264814D01*
X0074162Y0264814D01*
X0074162Y0260414D01*
X0082562Y0260414D01*
X0082562Y0265532D02*
X0082562Y0269932D01*
X0074162Y0269932D01*
X0074162Y0265532D01*
X0082562Y0265532D01*
X0083611Y0265532D02*
X0092011Y0265532D01*
X0092011Y0269932D01*
X0083611Y0269932D01*
X0083611Y0265532D01*
X0082562Y0270650D02*
X0074162Y0270650D01*
X0074162Y0275050D01*
X0082562Y0275050D01*
X0082562Y0270650D01*
X0068126Y0266945D02*
X0068002Y0266947D01*
X0067879Y0266953D01*
X0067755Y0266962D01*
X0067633Y0266976D01*
X0067510Y0266993D01*
X0067388Y0267015D01*
X0067267Y0267040D01*
X0067147Y0267069D01*
X0067028Y0267101D01*
X0066909Y0267138D01*
X0066792Y0267178D01*
X0066677Y0267221D01*
X0066562Y0267269D01*
X0066450Y0267320D01*
X0066339Y0267374D01*
X0066229Y0267432D01*
X0066122Y0267493D01*
X0066016Y0267558D01*
X0065913Y0267626D01*
X0065812Y0267697D01*
X0065713Y0267771D01*
X0065616Y0267848D01*
X0065522Y0267929D01*
X0065431Y0268012D01*
X0065342Y0268098D01*
X0065256Y0268187D01*
X0065173Y0268278D01*
X0065092Y0268372D01*
X0065015Y0268469D01*
X0064941Y0268568D01*
X0064870Y0268669D01*
X0064802Y0268772D01*
X0064737Y0268878D01*
X0064676Y0268985D01*
X0064618Y0269095D01*
X0064564Y0269206D01*
X0064513Y0269318D01*
X0064465Y0269433D01*
X0064422Y0269548D01*
X0064382Y0269665D01*
X0064345Y0269784D01*
X0064313Y0269903D01*
X0064284Y0270023D01*
X0064259Y0270144D01*
X0064237Y0270266D01*
X0064220Y0270389D01*
X0064206Y0270511D01*
X0064197Y0270635D01*
X0064191Y0270758D01*
X0064189Y0270882D01*
X0064191Y0271006D01*
X0064197Y0271129D01*
X0064206Y0271253D01*
X0064220Y0271375D01*
X0064237Y0271498D01*
X0064259Y0271620D01*
X0064284Y0271741D01*
X0064313Y0271861D01*
X0064345Y0271980D01*
X0064382Y0272099D01*
X0064422Y0272216D01*
X0064465Y0272331D01*
X0064513Y0272446D01*
X0064564Y0272558D01*
X0064618Y0272669D01*
X0064676Y0272779D01*
X0064737Y0272886D01*
X0064802Y0272992D01*
X0064870Y0273095D01*
X0064941Y0273196D01*
X0065015Y0273295D01*
X0065092Y0273392D01*
X0065173Y0273486D01*
X0065256Y0273577D01*
X0065342Y0273666D01*
X0065431Y0273752D01*
X0065522Y0273835D01*
X0065616Y0273916D01*
X0065713Y0273993D01*
X0065812Y0274067D01*
X0065913Y0274138D01*
X0066016Y0274206D01*
X0066122Y0274271D01*
X0066229Y0274332D01*
X0066339Y0274390D01*
X0066450Y0274444D01*
X0066562Y0274495D01*
X0066677Y0274543D01*
X0066792Y0274586D01*
X0066909Y0274626D01*
X0067028Y0274663D01*
X0067147Y0274695D01*
X0067267Y0274724D01*
X0067388Y0274749D01*
X0067510Y0274771D01*
X0067633Y0274788D01*
X0067755Y0274802D01*
X0067879Y0274811D01*
X0068002Y0274817D01*
X0068126Y0274819D01*
X0068126Y0276787D01*
X0068126Y0274819D02*
X0068126Y0266945D01*
X0068126Y0264976D01*
X0068126Y0257102D02*
X0068126Y0255134D01*
X0068126Y0247260D01*
X0068126Y0245291D01*
X0068126Y0247260D02*
X0068002Y0247262D01*
X0067879Y0247268D01*
X0067755Y0247277D01*
X0067633Y0247291D01*
X0067510Y0247308D01*
X0067388Y0247330D01*
X0067267Y0247355D01*
X0067147Y0247384D01*
X0067028Y0247416D01*
X0066909Y0247453D01*
X0066792Y0247493D01*
X0066677Y0247536D01*
X0066562Y0247584D01*
X0066450Y0247635D01*
X0066339Y0247689D01*
X0066229Y0247747D01*
X0066122Y0247808D01*
X0066016Y0247873D01*
X0065913Y0247941D01*
X0065812Y0248012D01*
X0065713Y0248086D01*
X0065616Y0248163D01*
X0065522Y0248244D01*
X0065431Y0248327D01*
X0065342Y0248413D01*
X0065256Y0248502D01*
X0065173Y0248593D01*
X0065092Y0248687D01*
X0065015Y0248784D01*
X0064941Y0248883D01*
X0064870Y0248984D01*
X0064802Y0249087D01*
X0064737Y0249193D01*
X0064676Y0249300D01*
X0064618Y0249410D01*
X0064564Y0249521D01*
X0064513Y0249633D01*
X0064465Y0249748D01*
X0064422Y0249863D01*
X0064382Y0249980D01*
X0064345Y0250099D01*
X0064313Y0250218D01*
X0064284Y0250338D01*
X0064259Y0250459D01*
X0064237Y0250581D01*
X0064220Y0250704D01*
X0064206Y0250826D01*
X0064197Y0250950D01*
X0064191Y0251073D01*
X0064189Y0251197D01*
X0064191Y0251321D01*
X0064197Y0251444D01*
X0064206Y0251568D01*
X0064220Y0251690D01*
X0064237Y0251813D01*
X0064259Y0251935D01*
X0064284Y0252056D01*
X0064313Y0252176D01*
X0064345Y0252295D01*
X0064382Y0252414D01*
X0064422Y0252531D01*
X0064465Y0252646D01*
X0064513Y0252761D01*
X0064564Y0252873D01*
X0064618Y0252984D01*
X0064676Y0253094D01*
X0064737Y0253201D01*
X0064802Y0253307D01*
X0064870Y0253410D01*
X0064941Y0253511D01*
X0065015Y0253610D01*
X0065092Y0253707D01*
X0065173Y0253801D01*
X0065256Y0253892D01*
X0065342Y0253981D01*
X0065431Y0254067D01*
X0065522Y0254150D01*
X0065616Y0254231D01*
X0065713Y0254308D01*
X0065812Y0254382D01*
X0065913Y0254453D01*
X0066016Y0254521D01*
X0066122Y0254586D01*
X0066229Y0254647D01*
X0066339Y0254705D01*
X0066450Y0254759D01*
X0066562Y0254810D01*
X0066677Y0254858D01*
X0066792Y0254901D01*
X0066909Y0254941D01*
X0067028Y0254978D01*
X0067147Y0255010D01*
X0067267Y0255039D01*
X0067388Y0255064D01*
X0067510Y0255086D01*
X0067633Y0255103D01*
X0067755Y0255117D01*
X0067879Y0255126D01*
X0068002Y0255132D01*
X0068126Y0255134D01*
X0163596Y0293952D02*
X0170096Y0293952D01*
X0170096Y0306452D01*
X0163596Y0306452D01*
X0163596Y0293952D01*
X0233087Y0273638D02*
X0233087Y0266748D01*
D13*
X0085055Y0272850D02*
X0083087Y0270488D01*
X0073244Y0244504D02*
X0070488Y0240567D01*
D14*
X0268913Y0168520D02*
X0268913Y0089780D01*
X0326000Y0089780D01*
X0345685Y0089780D01*
X0345685Y0129150D01*
X0345685Y0168520D01*
X0326000Y0168520D01*
X0268913Y0168520D01*
X0326000Y0168520D02*
X0326000Y0129150D01*
X0326000Y0089780D01*
D15*
X0326000Y0129150D02*
X0345685Y0129150D01*
X0246876Y0065065D02*
X0222191Y0065065D01*
X0222191Y0055183D01*
X0246876Y0055183D01*
X0246876Y0065065D01*
D16*
X0243597Y0079800D02*
X0244431Y0080634D01*
X0243597Y0079800D02*
X0241929Y0079800D01*
X0241095Y0080634D01*
X0241095Y0081467D01*
X0241929Y0082301D01*
X0243597Y0082301D01*
X0244431Y0083135D01*
X0244431Y0083969D01*
X0243597Y0084803D01*
X0241929Y0084803D01*
X0241095Y0083969D01*
X0238631Y0083969D02*
X0236963Y0082301D01*
X0236963Y0079800D01*
X0236963Y0082301D02*
X0235295Y0083969D01*
X0235295Y0084803D01*
X0232830Y0084803D02*
X0229495Y0079800D01*
X0229495Y0084803D01*
X0227030Y0083969D02*
X0227030Y0080634D01*
X0226196Y0079800D01*
X0224528Y0079800D01*
X0223694Y0080634D01*
X0223694Y0083969D02*
X0224528Y0084803D01*
X0226196Y0084803D01*
X0227030Y0083969D01*
X0232830Y0084803D02*
X0232830Y0079800D01*
X0238631Y0083969D02*
X0238631Y0084803D01*
X0083622Y0198845D02*
X0082788Y0198011D01*
X0079452Y0198011D01*
X0078619Y0198845D01*
X0078619Y0200513D01*
X0079452Y0201347D01*
X0078619Y0203812D02*
X0078619Y0207147D01*
X0078619Y0209612D02*
X0083622Y0209612D01*
X0081120Y0210446D02*
X0078619Y0212947D01*
X0080286Y0209612D02*
X0083622Y0212947D01*
X0083622Y0203812D02*
X0078619Y0203812D01*
X0082788Y0201347D02*
X0083622Y0200513D01*
X0083622Y0198845D01*
X0083622Y0221212D02*
X0083622Y0222880D01*
X0083622Y0222046D02*
X0078619Y0222046D01*
X0078619Y0221212D02*
X0078619Y0222880D01*
X0079452Y0225079D02*
X0078619Y0225913D01*
X0078619Y0227581D01*
X0079452Y0228415D01*
X0082788Y0228415D01*
X0083622Y0227581D01*
X0083622Y0225913D01*
X0082788Y0225079D01*
X0079452Y0225079D01*
X0080222Y0286099D02*
X0080222Y0291102D01*
X0080222Y0288601D02*
X0076887Y0288601D01*
X0076887Y0291102D02*
X0076887Y0286099D01*
X0074422Y0286933D02*
X0073588Y0286099D01*
X0071920Y0286099D01*
X0071087Y0286933D01*
X0071087Y0287767D01*
X0071920Y0288601D01*
X0073588Y0288601D01*
X0074422Y0289434D01*
X0074422Y0290268D01*
X0073588Y0291102D01*
X0071920Y0291102D01*
X0071087Y0290268D01*
X0062822Y0291102D02*
X0061154Y0291102D01*
X0061988Y0291102D02*
X0061988Y0286099D01*
X0062822Y0286099D02*
X0061154Y0286099D01*
X0058955Y0286933D02*
X0058121Y0286099D01*
X0056453Y0286099D01*
X0055619Y0286933D01*
X0055619Y0290268D01*
X0056453Y0291102D01*
X0058121Y0291102D01*
X0058955Y0290268D01*
X0058955Y0286933D01*
X0063704Y0147706D02*
X0067040Y0147706D01*
X0067874Y0146872D01*
X0067874Y0145204D01*
X0067040Y0144370D01*
X0063704Y0144370D01*
X0062870Y0145204D01*
X0062870Y0146872D01*
X0063704Y0147706D01*
X0062870Y0142171D02*
X0062870Y0140504D01*
X0062870Y0141337D02*
X0067874Y0141337D01*
X0067874Y0140504D02*
X0067874Y0142171D01*
X0067874Y0132239D02*
X0062870Y0128903D01*
X0063704Y0126438D02*
X0067874Y0126438D01*
X0067874Y0128903D02*
X0062870Y0132239D01*
X0063704Y0126438D02*
X0062870Y0125605D01*
X0062870Y0123937D01*
X0063704Y0123103D01*
X0067874Y0123103D01*
X0066206Y0120638D02*
X0062870Y0120638D01*
X0065372Y0120638D02*
X0065372Y0117303D01*
X0066206Y0117303D02*
X0062870Y0117303D01*
X0066206Y0117303D02*
X0067874Y0118970D01*
X0066206Y0120638D01*
D17*
X0297457Y0129150D03*
D18*
X0224689Y0191551D03*
X0149492Y0238205D03*
D19*
X0323441Y0239386D02*
X0323441Y0228362D01*
X0340370Y0228362D01*
X0340370Y0239386D01*
X0323441Y0239386D01*
X0255498Y0074136D02*
X0254320Y0074136D01*
X0254909Y0074136D02*
X0254909Y0071192D01*
X0255498Y0070603D01*
X0256087Y0070603D01*
X0256676Y0071192D01*
X0252688Y0071192D02*
X0252099Y0070603D01*
X0250921Y0070603D01*
X0250332Y0071192D01*
X0250332Y0071781D01*
X0250921Y0072370D01*
X0252688Y0072370D01*
X0252688Y0071192D01*
X0252688Y0072370D02*
X0251510Y0073548D01*
X0250332Y0074136D01*
D20*
X0338303Y0236433D03*
D21*
X0336236Y0198441D03*
X0328362Y0198441D03*
D22*
X0330001Y0206665D02*
X0330001Y0209968D01*
X0332203Y0209968D02*
X0330001Y0206665D01*
X0332203Y0206665D02*
X0332203Y0209968D01*
X0333684Y0209417D02*
X0334235Y0209968D01*
X0335336Y0209968D01*
X0335886Y0209417D01*
X0335886Y0207215D01*
X0335336Y0206665D01*
X0334235Y0206665D01*
X0333684Y0207215D01*
X0333684Y0209417D01*
D23*
X0233283Y0265567D03*
M02*
