G75*
%MOIN*%
%OFA0B0*%
%FSLAX25Y25*%
%IPPOS*%
%LPD*%
%AMOC8*
5,1,8,0,0,1.08239X$1,22.5*
%
%ADD10C,0.04724*%
%ADD11R,0.03315X0.03015*%
%ADD12R,0.04115X0.06315*%
%ADD13R,0.03015X0.03315*%
%ADD14R,0.05115X0.07715*%
%ADD15R,0.07715X0.05115*%
%ADD16R,0.04515X0.03815*%
%ADD17R,0.03815X0.04515*%
%ADD18C,0.16063*%
%ADD19C,0.07402*%
%ADD20C,0.09370*%
%ADD21R,0.06614X0.03307*%
%ADD22R,0.06315X0.04115*%
%ADD23C,0.05315*%
%ADD24C,0.10315*%
%ADD25R,0.04252X0.02480*%
%ADD26C,0.14915*%
%ADD27C,0.05515*%
%ADD28R,0.05039X0.01693*%
%ADD29R,0.03307X0.05315*%
%ADD30C,0.01083*%
%ADD31C,0.00709*%
%ADD32R,0.06815X0.11315*%
%ADD33R,0.06614X0.03858*%
%ADD34R,0.01299X0.02283*%
%ADD35R,0.04488X0.04488*%
%ADD36C,0.04488*%
%ADD37R,0.12126X0.07402*%
D10*
X0053283Y0260173D03*
X0058283Y0265173D03*
X0053283Y0270173D03*
X0053283Y0277890D03*
X0058283Y0282890D03*
X0053283Y0287890D03*
X0053283Y0295606D03*
X0058283Y0300606D03*
X0053283Y0305606D03*
X0053283Y0315291D03*
X0058283Y0320291D03*
X0053283Y0325291D03*
X0053283Y0334976D03*
X0058283Y0339976D03*
X0053283Y0344976D03*
X0063283Y0344976D03*
X0063283Y0334976D03*
X0063283Y0325291D03*
X0063283Y0315291D03*
X0063283Y0305606D03*
X0063283Y0295606D03*
X0063283Y0287890D03*
X0063283Y0277890D03*
X0063283Y0270173D03*
X0063283Y0260173D03*
D11*
X0101197Y0228297D03*
X0101197Y0224097D03*
X0109071Y0200344D03*
X0109071Y0196144D03*
X0118520Y0196144D03*
X0118520Y0200344D03*
X0126000Y0223309D03*
X0126000Y0227509D03*
X0118520Y0260711D03*
X0118520Y0264911D03*
X0139780Y0282758D03*
X0139780Y0286958D03*
X0166945Y0219242D03*
X0166945Y0215042D03*
X0178362Y0174360D03*
X0178362Y0170160D03*
X0168520Y0159006D03*
X0168520Y0154806D03*
X0172063Y0133021D03*
X0172063Y0128821D03*
X0172063Y0123179D03*
X0172063Y0118979D03*
X0194898Y0117404D03*
X0194898Y0121604D03*
X0195685Y0137089D03*
X0195685Y0141289D03*
X0200016Y0141289D03*
X0200016Y0137089D03*
X0203953Y0165435D03*
X0203953Y0169635D03*
X0206315Y0283939D03*
X0206315Y0288139D03*
X0200803Y0288139D03*
X0200803Y0283939D03*
X0192535Y0283546D03*
X0192535Y0287746D03*
X0184359Y0322812D03*
X0184359Y0327012D03*
X0179150Y0351262D03*
X0179150Y0355462D03*
X0174125Y0355469D03*
X0174125Y0351269D03*
X0171381Y0327613D03*
X0171381Y0323413D03*
X0188591Y0354505D03*
X0188591Y0358705D03*
X0248047Y0277313D03*
X0248047Y0273113D03*
X0250803Y0301853D03*
X0250803Y0306053D03*
X0255724Y0306053D03*
X0255724Y0301853D03*
X0266748Y0304806D03*
X0266748Y0309006D03*
X0260843Y0276525D03*
X0260843Y0272325D03*
X0281118Y0298113D03*
X0281118Y0302313D03*
X0298835Y0344569D03*
X0298835Y0348769D03*
X0303559Y0348769D03*
X0303559Y0344569D03*
X0288598Y0367010D03*
X0288598Y0371210D03*
X0320882Y0316092D03*
X0320882Y0311892D03*
X0321276Y0292076D03*
X0321276Y0287876D03*
X0338735Y0320422D03*
X0338735Y0324622D03*
X0333737Y0328165D03*
X0333737Y0332365D03*
X0343323Y0292076D03*
X0343323Y0287876D03*
X0116945Y0172785D03*
X0116945Y0168585D03*
X0108677Y0168585D03*
X0108677Y0172785D03*
D12*
X0135680Y0171079D03*
X0143880Y0171079D03*
X0144273Y0203362D03*
X0136073Y0203362D03*
G36*
X0151831Y0251680D02*
X0154740Y0248771D01*
X0150277Y0244308D01*
X0147368Y0247217D01*
X0151831Y0251680D01*
G37*
G36*
X0157736Y0257585D02*
X0160645Y0254676D01*
X0156182Y0250213D01*
X0153273Y0253122D01*
X0157736Y0257585D01*
G37*
G36*
X0163642Y0263491D02*
X0166551Y0260582D01*
X0162088Y0256119D01*
X0159179Y0259028D01*
X0163642Y0263491D01*
G37*
G36*
X0169440Y0257692D02*
X0172349Y0254783D01*
X0167886Y0250320D01*
X0164977Y0253229D01*
X0169440Y0257692D01*
G37*
G36*
X0163534Y0251787D02*
X0166443Y0248878D01*
X0161980Y0244415D01*
X0159071Y0247324D01*
X0163534Y0251787D01*
G37*
G36*
X0157629Y0245881D02*
X0160538Y0242972D01*
X0156075Y0238509D01*
X0153166Y0241418D01*
X0157629Y0245881D01*
G37*
G36*
X0165370Y0229607D02*
X0162461Y0226698D01*
X0157998Y0231161D01*
X0160907Y0234070D01*
X0165370Y0229607D01*
G37*
G36*
X0171168Y0235406D02*
X0168259Y0232497D01*
X0163796Y0236960D01*
X0166705Y0239869D01*
X0171168Y0235406D01*
G37*
G36*
X0178864Y0232736D02*
X0181773Y0235645D01*
X0186236Y0231182D01*
X0183327Y0228273D01*
X0178864Y0232736D01*
G37*
G36*
X0184662Y0238534D02*
X0187571Y0241443D01*
X0192034Y0236980D01*
X0189125Y0234071D01*
X0184662Y0238534D01*
G37*
X0199853Y0268717D03*
X0208053Y0268717D03*
X0204116Y0191157D03*
X0204509Y0177772D03*
X0196309Y0177772D03*
X0195916Y0191157D03*
X0174194Y0205331D03*
X0165994Y0205331D03*
X0198827Y0359289D03*
X0207027Y0359289D03*
D13*
X0208021Y0351787D03*
X0203821Y0351787D03*
X0196801Y0339583D03*
X0192601Y0339583D03*
X0192601Y0334661D03*
X0196801Y0334661D03*
X0201459Y0278165D03*
X0205659Y0278165D03*
G36*
X0178398Y0246685D02*
X0180529Y0248816D01*
X0182872Y0246473D01*
X0180741Y0244342D01*
X0178398Y0246685D01*
G37*
G36*
X0175428Y0243716D02*
X0177559Y0245847D01*
X0179902Y0243504D01*
X0177771Y0241373D01*
X0175428Y0243716D01*
G37*
G36*
X0176590Y0230312D02*
X0178721Y0228181D01*
X0176378Y0225838D01*
X0174247Y0227969D01*
X0176590Y0230312D01*
G37*
G36*
X0179559Y0227343D02*
X0181690Y0225212D01*
X0179347Y0222869D01*
X0177216Y0225000D01*
X0179559Y0227343D01*
G37*
X0178887Y0219504D03*
X0174687Y0219504D03*
X0183743Y0199031D03*
X0187943Y0199031D03*
X0186498Y0180134D03*
X0190698Y0180134D03*
X0190698Y0175016D03*
X0186498Y0175016D03*
X0186498Y0169898D03*
X0190698Y0169898D03*
X0190698Y0164780D03*
X0186498Y0164780D03*
X0172982Y0169898D03*
X0168782Y0169898D03*
X0184530Y0134465D03*
X0188730Y0134465D03*
X0188730Y0129740D03*
X0184530Y0129740D03*
X0198309Y0184465D03*
X0202509Y0184465D03*
X0238467Y0159268D03*
X0242667Y0159268D03*
X0247522Y0159268D03*
X0251722Y0159268D03*
X0277050Y0221866D03*
X0281250Y0221866D03*
X0281250Y0226197D03*
X0277050Y0226197D03*
X0277050Y0230528D03*
X0281250Y0230528D03*
X0281250Y0234858D03*
X0277050Y0234858D03*
X0277050Y0239189D03*
X0281250Y0239189D03*
X0281250Y0243520D03*
X0277050Y0243520D03*
X0272785Y0285055D03*
X0268585Y0285055D03*
X0268585Y0289976D03*
X0272785Y0289976D03*
X0285317Y0362024D03*
X0289517Y0362024D03*
X0244045Y0302969D03*
X0239845Y0302969D03*
X0239845Y0298638D03*
X0244045Y0298638D03*
X0244045Y0294110D03*
X0239845Y0294110D03*
X0239845Y0289780D03*
X0244045Y0289780D03*
X0244045Y0285252D03*
X0239845Y0285252D03*
X0239451Y0280528D03*
X0243651Y0280528D03*
X0243651Y0276000D03*
X0239451Y0276000D03*
X0167076Y0326394D03*
X0162876Y0326394D03*
X0162876Y0330921D03*
X0167076Y0330921D03*
X0167259Y0335350D03*
X0163059Y0335350D03*
X0163066Y0339676D03*
X0167266Y0339676D03*
X0167273Y0344110D03*
X0163073Y0344110D03*
X0163073Y0348441D03*
X0167273Y0348441D03*
X0167273Y0352772D03*
X0163073Y0352772D03*
X0147549Y0315882D03*
X0143349Y0315882D03*
X0142273Y0195488D03*
X0138073Y0195488D03*
X0137680Y0177772D03*
X0141880Y0177772D03*
D14*
X0176193Y0312417D03*
X0185051Y0347063D03*
X0190760Y0326000D03*
X0189193Y0312417D03*
X0198051Y0347063D03*
X0203760Y0326000D03*
X0198634Y0369504D03*
X0211634Y0369504D03*
X0228161Y0349819D03*
X0241161Y0349819D03*
X0261429Y0297260D03*
X0267138Y0277378D03*
X0266752Y0263795D03*
X0274429Y0297260D03*
X0281311Y0309858D03*
X0280138Y0277378D03*
X0294311Y0309858D03*
X0253752Y0263795D03*
X0230728Y0273441D03*
X0217728Y0273441D03*
X0154146Y0323928D03*
X0141146Y0323928D03*
D15*
X0178165Y0366547D03*
X0178165Y0379547D03*
X0215764Y0345492D03*
X0215764Y0332492D03*
X0254543Y0328563D03*
X0254543Y0315563D03*
X0170882Y0189390D03*
X0170882Y0176390D03*
D16*
X0188598Y0364135D03*
X0188598Y0370935D03*
X0166846Y0372697D03*
X0166846Y0365897D03*
X0244898Y0321920D03*
X0244898Y0315120D03*
X0264780Y0314923D03*
X0264780Y0321723D03*
D17*
X0229400Y0281709D03*
X0222600Y0281709D03*
X0153310Y0331999D03*
X0146510Y0331999D03*
D18*
X0093323Y0357890D03*
X0093323Y0135252D03*
D19*
X0068520Y0174622D03*
X0068520Y0229740D03*
D20*
X0078362Y0239976D03*
X0078362Y0164386D03*
D21*
X0141354Y0307299D03*
X0161354Y0307299D03*
X0216551Y0260646D03*
X0236551Y0260646D03*
D22*
X0254346Y0272097D03*
X0254346Y0280297D03*
X0273638Y0312451D03*
X0273638Y0320651D03*
X0278756Y0363042D03*
X0278756Y0371242D03*
X0177575Y0328919D03*
X0177575Y0320719D03*
X0160646Y0221242D03*
X0160646Y0213042D03*
X0161827Y0161399D03*
X0161827Y0153199D03*
X0175213Y0153199D03*
X0175213Y0161399D03*
D23*
X0148047Y0238402D03*
X0138835Y0238618D03*
X0131787Y0238874D03*
X0124819Y0239583D03*
X0107890Y0273441D03*
X0133087Y0289189D03*
X0184268Y0289583D03*
X0206118Y0314583D03*
X0242142Y0371079D03*
X0247457Y0337220D03*
X0322850Y0373835D03*
X0326000Y0360055D03*
D24*
X0070094Y0140370D03*
X0063795Y0246669D03*
X0144504Y0378165D03*
X0204346Y0223441D03*
X0150803Y0188402D03*
X0334661Y0375016D03*
D25*
X0163205Y0177575D03*
X0163205Y0170094D03*
X0152575Y0170094D03*
X0152575Y0173835D03*
X0152575Y0177575D03*
D26*
X0308157Y0125425D03*
X0308157Y0373425D03*
D27*
X0304150Y0356475D03*
X0316157Y0142475D03*
D28*
X0320390Y0299130D03*
X0320390Y0301689D03*
X0320390Y0304248D03*
X0320390Y0306807D03*
X0343421Y0306807D03*
X0343421Y0304248D03*
X0343421Y0301689D03*
X0343421Y0299130D03*
D29*
X0334799Y0286472D03*
X0329799Y0286472D03*
X0329799Y0256472D03*
X0334799Y0256472D03*
D30*
X0329937Y0145882D02*
X0325213Y0140764D01*
X0335055Y0133677D01*
X0322457Y0136039D01*
X0331118Y0132496D01*
X0325213Y0140764D01*
X0329937Y0145882D02*
X0331118Y0132496D01*
X0335055Y0133677D01*
X0329937Y0145882D01*
D31*
X0337654Y0145843D02*
X0337654Y0147024D01*
X0341118Y0147024D01*
X0341118Y0145843D01*
X0341116Y0145792D01*
X0341111Y0145742D01*
X0341102Y0145692D01*
X0341089Y0145643D01*
X0341073Y0145595D01*
X0341054Y0145548D01*
X0341031Y0145503D01*
X0341005Y0145460D01*
X0340977Y0145418D01*
X0340945Y0145379D01*
X0340910Y0145342D01*
X0340873Y0145307D01*
X0340834Y0145275D01*
X0340792Y0145247D01*
X0340749Y0145221D01*
X0340704Y0145198D01*
X0340657Y0145179D01*
X0340609Y0145163D01*
X0340560Y0145150D01*
X0340510Y0145141D01*
X0340460Y0145136D01*
X0340409Y0145134D01*
X0338362Y0145134D01*
X0338311Y0145136D01*
X0338261Y0145141D01*
X0338211Y0145150D01*
X0338162Y0145163D01*
X0338114Y0145179D01*
X0338067Y0145198D01*
X0338022Y0145221D01*
X0337979Y0145247D01*
X0337937Y0145275D01*
X0337898Y0145307D01*
X0337861Y0145342D01*
X0337826Y0145379D01*
X0337794Y0145418D01*
X0337766Y0145460D01*
X0337740Y0145503D01*
X0337717Y0145548D01*
X0337698Y0145595D01*
X0337682Y0145643D01*
X0337669Y0145692D01*
X0337660Y0145742D01*
X0337655Y0145792D01*
X0337653Y0145843D01*
X0338362Y0143835D02*
X0340409Y0143835D01*
X0340460Y0143833D01*
X0340510Y0143828D01*
X0340560Y0143819D01*
X0340609Y0143806D01*
X0340657Y0143790D01*
X0340704Y0143771D01*
X0340749Y0143748D01*
X0340792Y0143722D01*
X0340834Y0143694D01*
X0340873Y0143662D01*
X0340910Y0143627D01*
X0340945Y0143590D01*
X0340977Y0143551D01*
X0341005Y0143509D01*
X0341031Y0143466D01*
X0341054Y0143421D01*
X0341073Y0143374D01*
X0341089Y0143326D01*
X0341102Y0143277D01*
X0341111Y0143227D01*
X0341116Y0143177D01*
X0341118Y0143126D01*
X0341118Y0142417D01*
X0341119Y0142417D02*
X0341117Y0142386D01*
X0341112Y0142356D01*
X0341104Y0142326D01*
X0341092Y0142297D01*
X0341077Y0142270D01*
X0341059Y0142245D01*
X0341038Y0142222D01*
X0341015Y0142201D01*
X0340990Y0142183D01*
X0340963Y0142168D01*
X0340934Y0142156D01*
X0340904Y0142148D01*
X0340874Y0142143D01*
X0340843Y0142141D01*
X0339386Y0141945D02*
X0338441Y0141945D01*
X0338362Y0141945D02*
X0338311Y0141947D01*
X0338261Y0141952D01*
X0338211Y0141961D01*
X0338162Y0141974D01*
X0338114Y0141990D01*
X0338067Y0142009D01*
X0338022Y0142032D01*
X0337979Y0142058D01*
X0337937Y0142086D01*
X0337898Y0142118D01*
X0337861Y0142153D01*
X0337826Y0142190D01*
X0337794Y0142229D01*
X0337766Y0142271D01*
X0337740Y0142314D01*
X0337717Y0142359D01*
X0337698Y0142406D01*
X0337682Y0142454D01*
X0337669Y0142503D01*
X0337660Y0142553D01*
X0337655Y0142603D01*
X0337653Y0142654D01*
X0337654Y0142654D02*
X0337654Y0143126D01*
X0337653Y0143126D02*
X0337655Y0143177D01*
X0337660Y0143227D01*
X0337669Y0143277D01*
X0337682Y0143326D01*
X0337698Y0143374D01*
X0337717Y0143421D01*
X0337740Y0143466D01*
X0337766Y0143509D01*
X0337794Y0143551D01*
X0337826Y0143590D01*
X0337861Y0143627D01*
X0337898Y0143662D01*
X0337937Y0143694D01*
X0337979Y0143722D01*
X0338022Y0143748D01*
X0338067Y0143771D01*
X0338114Y0143790D01*
X0338162Y0143806D01*
X0338211Y0143819D01*
X0338261Y0143828D01*
X0338311Y0143833D01*
X0338362Y0143835D01*
X0339386Y0143598D02*
X0339386Y0141945D01*
X0337654Y0140606D02*
X0341118Y0140606D01*
X0341118Y0138717D02*
X0338362Y0138717D01*
X0338362Y0138716D02*
X0338311Y0138718D01*
X0338261Y0138723D01*
X0338211Y0138732D01*
X0338162Y0138745D01*
X0338114Y0138761D01*
X0338067Y0138780D01*
X0338022Y0138803D01*
X0337979Y0138829D01*
X0337937Y0138857D01*
X0337898Y0138889D01*
X0337861Y0138924D01*
X0337826Y0138961D01*
X0337794Y0139000D01*
X0337766Y0139042D01*
X0337740Y0139085D01*
X0337717Y0139130D01*
X0337698Y0139177D01*
X0337682Y0139225D01*
X0337669Y0139274D01*
X0337660Y0139324D01*
X0337655Y0139374D01*
X0337653Y0139425D01*
X0337654Y0139425D02*
X0337654Y0140606D01*
X0338362Y0135882D02*
X0340409Y0135882D01*
X0340460Y0135880D01*
X0340510Y0135875D01*
X0340560Y0135866D01*
X0340609Y0135853D01*
X0340657Y0135837D01*
X0340704Y0135818D01*
X0340749Y0135795D01*
X0340792Y0135769D01*
X0340834Y0135741D01*
X0340873Y0135709D01*
X0340910Y0135674D01*
X0340945Y0135637D01*
X0340977Y0135598D01*
X0341005Y0135556D01*
X0341031Y0135513D01*
X0341054Y0135468D01*
X0341073Y0135421D01*
X0341089Y0135373D01*
X0341102Y0135324D01*
X0341111Y0135274D01*
X0341116Y0135224D01*
X0341118Y0135173D01*
X0341118Y0134465D01*
X0341119Y0134465D02*
X0341117Y0134434D01*
X0341112Y0134404D01*
X0341104Y0134374D01*
X0341092Y0134345D01*
X0341077Y0134318D01*
X0341059Y0134293D01*
X0341038Y0134270D01*
X0341015Y0134249D01*
X0340990Y0134231D01*
X0340963Y0134216D01*
X0340934Y0134204D01*
X0340904Y0134196D01*
X0340874Y0134191D01*
X0340843Y0134189D01*
X0339386Y0133992D02*
X0339386Y0135646D01*
X0338362Y0135882D02*
X0338311Y0135880D01*
X0338261Y0135875D01*
X0338211Y0135866D01*
X0338162Y0135853D01*
X0338114Y0135837D01*
X0338067Y0135818D01*
X0338022Y0135795D01*
X0337979Y0135769D01*
X0337937Y0135741D01*
X0337898Y0135709D01*
X0337861Y0135674D01*
X0337826Y0135637D01*
X0337794Y0135598D01*
X0337766Y0135556D01*
X0337740Y0135513D01*
X0337717Y0135468D01*
X0337698Y0135421D01*
X0337682Y0135373D01*
X0337669Y0135324D01*
X0337660Y0135274D01*
X0337655Y0135224D01*
X0337653Y0135173D01*
X0337654Y0135173D02*
X0337654Y0134701D01*
X0337653Y0134701D02*
X0337655Y0134650D01*
X0337660Y0134600D01*
X0337669Y0134550D01*
X0337682Y0134501D01*
X0337698Y0134453D01*
X0337717Y0134406D01*
X0337740Y0134361D01*
X0337766Y0134318D01*
X0337794Y0134276D01*
X0337826Y0134237D01*
X0337861Y0134200D01*
X0337898Y0134165D01*
X0337937Y0134133D01*
X0337979Y0134105D01*
X0338022Y0134079D01*
X0338067Y0134056D01*
X0338114Y0134037D01*
X0338162Y0134021D01*
X0338211Y0134008D01*
X0338261Y0133999D01*
X0338311Y0133994D01*
X0338362Y0133992D01*
X0338441Y0133992D02*
X0339386Y0133992D01*
X0337654Y0132732D02*
X0341118Y0132732D01*
X0341118Y0131551D01*
X0341116Y0131500D01*
X0341111Y0131450D01*
X0341102Y0131400D01*
X0341089Y0131351D01*
X0341073Y0131303D01*
X0341054Y0131256D01*
X0341031Y0131211D01*
X0341005Y0131168D01*
X0340977Y0131126D01*
X0340945Y0131087D01*
X0340910Y0131050D01*
X0340873Y0131015D01*
X0340834Y0130983D01*
X0340792Y0130955D01*
X0340749Y0130929D01*
X0340704Y0130906D01*
X0340657Y0130887D01*
X0340609Y0130871D01*
X0340560Y0130858D01*
X0340510Y0130849D01*
X0340460Y0130844D01*
X0340409Y0130842D01*
X0340409Y0130843D02*
X0338362Y0130843D01*
X0338362Y0130842D02*
X0338311Y0130844D01*
X0338261Y0130849D01*
X0338211Y0130858D01*
X0338162Y0130871D01*
X0338114Y0130887D01*
X0338067Y0130906D01*
X0338022Y0130929D01*
X0337979Y0130955D01*
X0337937Y0130983D01*
X0337898Y0131015D01*
X0337861Y0131050D01*
X0337826Y0131087D01*
X0337794Y0131126D01*
X0337766Y0131168D01*
X0337740Y0131211D01*
X0337717Y0131256D01*
X0337698Y0131303D01*
X0337682Y0131351D01*
X0337669Y0131400D01*
X0337660Y0131450D01*
X0337655Y0131500D01*
X0337653Y0131551D01*
X0337654Y0131551D02*
X0337654Y0132732D01*
X0341157Y0132732D02*
X0343205Y0132732D01*
X0341079Y0129425D02*
X0335488Y0129425D01*
X0337654Y0129150D02*
X0337654Y0128244D01*
X0337653Y0128244D02*
X0337655Y0128193D01*
X0337660Y0128143D01*
X0337669Y0128093D01*
X0337682Y0128044D01*
X0337698Y0127996D01*
X0337717Y0127949D01*
X0337740Y0127904D01*
X0337766Y0127861D01*
X0337794Y0127819D01*
X0337826Y0127780D01*
X0337861Y0127743D01*
X0337898Y0127708D01*
X0337937Y0127676D01*
X0337979Y0127648D01*
X0338022Y0127622D01*
X0338067Y0127599D01*
X0338114Y0127580D01*
X0338162Y0127564D01*
X0338211Y0127551D01*
X0338261Y0127542D01*
X0338311Y0127537D01*
X0338362Y0127535D01*
X0341118Y0127496D01*
X0341079Y0125331D02*
X0337299Y0126630D01*
X0337299Y0124110D02*
X0342614Y0125764D01*
X0342693Y0125803D02*
X0343087Y0126079D01*
X0343165Y0126433D01*
X0343165Y0126630D01*
X0340921Y0123205D02*
X0340843Y0123205D01*
X0340921Y0123205D02*
X0341039Y0123126D01*
X0341157Y0122929D01*
X0341236Y0122772D01*
X0341236Y0122732D02*
X0341236Y0122260D01*
X0341237Y0122260D02*
X0341235Y0122209D01*
X0341230Y0122159D01*
X0341221Y0122109D01*
X0341208Y0122060D01*
X0341192Y0122012D01*
X0341173Y0121965D01*
X0341150Y0121920D01*
X0341124Y0121877D01*
X0341096Y0121835D01*
X0341064Y0121796D01*
X0341029Y0121759D01*
X0340992Y0121724D01*
X0340953Y0121692D01*
X0340911Y0121664D01*
X0340868Y0121638D01*
X0340823Y0121615D01*
X0340776Y0121596D01*
X0340728Y0121580D01*
X0340679Y0121567D01*
X0340629Y0121558D01*
X0340579Y0121553D01*
X0340528Y0121551D01*
X0340488Y0121551D02*
X0340291Y0121551D01*
X0340094Y0121591D01*
X0339740Y0121945D01*
X0339268Y0122575D01*
X0339346Y0122457D02*
X0338874Y0123087D01*
X0338638Y0123244D01*
X0338441Y0123283D01*
X0338244Y0123283D01*
X0338205Y0123284D02*
X0338154Y0123282D01*
X0338104Y0123277D01*
X0338054Y0123268D01*
X0338005Y0123255D01*
X0337957Y0123239D01*
X0337910Y0123220D01*
X0337865Y0123197D01*
X0337822Y0123171D01*
X0337780Y0123143D01*
X0337741Y0123111D01*
X0337704Y0123076D01*
X0337669Y0123039D01*
X0337637Y0123000D01*
X0337609Y0122958D01*
X0337583Y0122915D01*
X0337560Y0122870D01*
X0337541Y0122823D01*
X0337525Y0122775D01*
X0337512Y0122726D01*
X0337503Y0122676D01*
X0337498Y0122626D01*
X0337496Y0122575D01*
X0337496Y0122102D01*
X0337496Y0122063D02*
X0337575Y0121906D01*
X0337693Y0121709D01*
X0337811Y0121630D01*
X0337890Y0121630D01*
X0341157Y0147024D02*
X0343205Y0147024D01*
X0341118Y0149031D02*
X0341118Y0149504D01*
X0341116Y0149555D01*
X0341111Y0149605D01*
X0341102Y0149655D01*
X0341089Y0149704D01*
X0341073Y0149752D01*
X0341054Y0149799D01*
X0341031Y0149844D01*
X0341005Y0149887D01*
X0340977Y0149929D01*
X0340945Y0149968D01*
X0340910Y0150005D01*
X0340873Y0150040D01*
X0340834Y0150072D01*
X0340792Y0150100D01*
X0340749Y0150126D01*
X0340704Y0150149D01*
X0340657Y0150168D01*
X0340609Y0150184D01*
X0340560Y0150197D01*
X0340510Y0150206D01*
X0340460Y0150211D01*
X0340409Y0150213D01*
X0338362Y0150213D01*
X0338311Y0150211D01*
X0338261Y0150206D01*
X0338211Y0150197D01*
X0338162Y0150184D01*
X0338114Y0150168D01*
X0338067Y0150149D01*
X0338022Y0150126D01*
X0337979Y0150100D01*
X0337937Y0150072D01*
X0337898Y0150040D01*
X0337861Y0150005D01*
X0337826Y0149968D01*
X0337794Y0149929D01*
X0337766Y0149887D01*
X0337740Y0149844D01*
X0337717Y0149799D01*
X0337698Y0149752D01*
X0337682Y0149704D01*
X0337669Y0149655D01*
X0337660Y0149605D01*
X0337655Y0149555D01*
X0337653Y0149504D01*
X0337654Y0149504D02*
X0337654Y0149031D01*
X0337653Y0149031D02*
X0337655Y0148980D01*
X0337660Y0148930D01*
X0337669Y0148880D01*
X0337682Y0148831D01*
X0337698Y0148783D01*
X0337717Y0148736D01*
X0337740Y0148691D01*
X0337766Y0148648D01*
X0337794Y0148606D01*
X0337826Y0148567D01*
X0337861Y0148530D01*
X0337898Y0148495D01*
X0337937Y0148463D01*
X0337979Y0148435D01*
X0338022Y0148409D01*
X0338067Y0148386D01*
X0338114Y0148367D01*
X0338162Y0148351D01*
X0338211Y0148338D01*
X0338261Y0148329D01*
X0338311Y0148324D01*
X0338362Y0148322D01*
X0338362Y0148323D02*
X0340409Y0148323D01*
X0340409Y0148322D02*
X0340460Y0148324D01*
X0340510Y0148329D01*
X0340560Y0148338D01*
X0340609Y0148351D01*
X0340657Y0148367D01*
X0340704Y0148386D01*
X0340749Y0148409D01*
X0340792Y0148435D01*
X0340834Y0148463D01*
X0340873Y0148495D01*
X0340910Y0148530D01*
X0340945Y0148567D01*
X0340977Y0148606D01*
X0341005Y0148648D01*
X0341031Y0148691D01*
X0341054Y0148736D01*
X0341073Y0148783D01*
X0341089Y0148831D01*
X0341102Y0148880D01*
X0341111Y0148930D01*
X0341116Y0148980D01*
X0341118Y0149031D01*
D32*
X0236028Y0325803D03*
X0225028Y0325803D03*
D33*
X0228953Y0338598D03*
D34*
X0229937Y0334858D03*
X0227969Y0334858D03*
X0226000Y0334858D03*
X0226000Y0342339D03*
X0227969Y0342339D03*
X0229937Y0342339D03*
X0231906Y0342339D03*
X0231906Y0334858D03*
D35*
X0244533Y0139159D03*
D36*
X0239533Y0139159D03*
X0234533Y0139159D03*
X0229533Y0139159D03*
X0224533Y0139159D03*
X0224533Y0144159D03*
X0229533Y0144159D03*
X0234533Y0144159D03*
X0239533Y0144159D03*
X0244533Y0144159D03*
D37*
X0317732Y0339091D03*
X0317732Y0352673D03*
X0340173Y0346177D03*
X0340173Y0359760D03*
M02*
