G75*
%MOIN*%
%OFA0B0*%
%FSLAX25Y25*%
%IPPOS*%
%LPD*%
%AMOC8*
5,1,8,0,0,1.08239X$1,22.5*
%
%ADD10C,0.00600*%
%ADD11C,0.00900*%
%ADD12C,0.00500*%
%ADD13C,0.01181*%
%ADD14C,0.00787*%
%ADD15C,0.01300*%
%ADD16R,0.47244X0.78740*%
%ADD17R,0.07000X0.04000*%
%ADD18C,0.00800*%
%ADD19C,0.02559*%
%ADD20R,0.03937X0.07874*%
%ADD21C,0.00700*%
%ADD22C,0.01260*%
D10*
X0095867Y0222391D02*
X0095442Y0222816D01*
X0095442Y0223666D01*
X0095867Y0224092D01*
X0095442Y0225291D02*
X0095442Y0226992D01*
X0095442Y0226141D02*
X0097994Y0226141D01*
X0097143Y0225291D01*
X0097568Y0224092D02*
X0097994Y0223666D01*
X0097994Y0222816D01*
X0097568Y0222391D01*
X0095867Y0222391D01*
X0095867Y0228191D02*
X0095442Y0228191D01*
X0095867Y0228191D02*
X0097568Y0229892D01*
X0097994Y0229892D01*
X0097994Y0228191D01*
X0112796Y0201545D02*
X0112371Y0201120D01*
X0112371Y0200270D01*
X0112796Y0199844D01*
X0113221Y0199844D01*
X0113647Y0200270D01*
X0113647Y0201120D01*
X0113221Y0201545D01*
X0112796Y0201545D01*
X0113647Y0201120D02*
X0114072Y0201545D01*
X0114497Y0201545D01*
X0114923Y0201120D01*
X0114923Y0200270D01*
X0114497Y0199844D01*
X0114072Y0199844D01*
X0113647Y0200270D01*
X0112371Y0198645D02*
X0112371Y0196944D01*
X0112371Y0197795D02*
X0114923Y0197795D01*
X0114072Y0196944D01*
X0114497Y0195745D02*
X0114923Y0195320D01*
X0114923Y0194469D01*
X0114497Y0194044D01*
X0112796Y0194044D01*
X0112371Y0194469D01*
X0112371Y0195320D01*
X0112796Y0195745D01*
X0121820Y0195320D02*
X0122245Y0195745D01*
X0121820Y0195320D02*
X0121820Y0194469D01*
X0122245Y0194044D01*
X0123946Y0194044D01*
X0124371Y0194469D01*
X0124371Y0195320D01*
X0123946Y0195745D01*
X0123946Y0196944D02*
X0123521Y0196944D01*
X0123096Y0197370D01*
X0123096Y0198220D01*
X0122670Y0198645D01*
X0122245Y0198645D01*
X0121820Y0198220D01*
X0121820Y0197370D01*
X0122245Y0196944D01*
X0122670Y0196944D01*
X0123096Y0197370D01*
X0123096Y0198220D02*
X0123521Y0198645D01*
X0123946Y0198645D01*
X0124371Y0198220D01*
X0124371Y0197370D01*
X0123946Y0196944D01*
X0129331Y0199843D02*
X0129331Y0200694D01*
X0129757Y0201119D01*
X0129757Y0202318D02*
X0129331Y0202744D01*
X0129331Y0203594D01*
X0129757Y0204019D01*
X0130182Y0204019D01*
X0130607Y0203594D01*
X0130607Y0202318D01*
X0129757Y0202318D01*
X0130607Y0202318D02*
X0131458Y0203169D01*
X0131883Y0204019D01*
X0131458Y0205218D02*
X0131033Y0205218D01*
X0130607Y0205644D01*
X0130607Y0206920D01*
X0129757Y0206920D02*
X0131458Y0206920D01*
X0131883Y0206494D01*
X0131883Y0205644D01*
X0131458Y0205218D01*
X0129757Y0205218D02*
X0129331Y0205644D01*
X0129331Y0206494D01*
X0129757Y0206920D01*
X0131458Y0201119D02*
X0131883Y0200694D01*
X0131883Y0199843D01*
X0131458Y0199418D01*
X0129757Y0199418D01*
X0129331Y0199843D01*
X0136572Y0190914D02*
X0138273Y0190914D01*
X0136997Y0192190D01*
X0136997Y0189639D01*
X0139472Y0190064D02*
X0139898Y0189639D01*
X0140748Y0189639D01*
X0141173Y0190064D01*
X0141173Y0190489D01*
X0140748Y0190914D01*
X0139898Y0190914D01*
X0139472Y0190489D01*
X0139472Y0190064D01*
X0139898Y0190914D02*
X0139472Y0191340D01*
X0139472Y0191765D01*
X0139898Y0192190D01*
X0140748Y0192190D01*
X0141173Y0191765D01*
X0141173Y0191340D01*
X0140748Y0190914D01*
X0142372Y0190064D02*
X0142798Y0189639D01*
X0143648Y0189639D01*
X0144074Y0190064D01*
X0144074Y0191765D01*
X0143648Y0192190D01*
X0142798Y0192190D01*
X0142372Y0191765D01*
X0142010Y0183529D02*
X0141585Y0183104D01*
X0142010Y0183529D02*
X0142861Y0183529D01*
X0143286Y0183104D01*
X0143286Y0181402D01*
X0142861Y0180977D01*
X0142010Y0180977D01*
X0141585Y0181402D01*
X0140386Y0181402D02*
X0139961Y0180977D01*
X0139110Y0180977D01*
X0138685Y0181402D01*
X0138685Y0183104D01*
X0139110Y0183529D01*
X0139961Y0183529D01*
X0140386Y0183104D01*
X0140386Y0182678D01*
X0139961Y0182253D01*
X0138685Y0182253D01*
X0137486Y0181402D02*
X0135785Y0183104D01*
X0135785Y0181402D01*
X0136210Y0180977D01*
X0137061Y0180977D01*
X0137486Y0181402D01*
X0137486Y0183104D01*
X0137061Y0183529D01*
X0136210Y0183529D01*
X0135785Y0183104D01*
X0136579Y0165781D02*
X0138280Y0165781D01*
X0138280Y0164505D01*
X0137429Y0164930D01*
X0137004Y0164930D01*
X0136579Y0164505D01*
X0136579Y0163654D01*
X0137004Y0163229D01*
X0137854Y0163229D01*
X0138280Y0163654D01*
X0139479Y0163654D02*
X0139904Y0163229D01*
X0140755Y0163229D01*
X0141180Y0163654D01*
X0141180Y0165356D01*
X0140755Y0165781D01*
X0139904Y0165781D01*
X0139479Y0165356D01*
X0135380Y0165356D02*
X0135380Y0164930D01*
X0134954Y0164505D01*
X0133678Y0164505D01*
X0133678Y0163654D02*
X0133678Y0165356D01*
X0134104Y0165781D01*
X0134954Y0165781D01*
X0135380Y0165356D01*
X0135380Y0163654D02*
X0134954Y0163229D01*
X0134104Y0163229D01*
X0133678Y0163654D01*
X0118466Y0162000D02*
X0118466Y0161149D01*
X0118041Y0160724D01*
X0117615Y0160724D01*
X0117190Y0161149D01*
X0117190Y0162425D01*
X0116339Y0162425D02*
X0118041Y0162425D01*
X0118466Y0162000D01*
X0116339Y0162425D02*
X0115914Y0162000D01*
X0115914Y0161149D01*
X0116339Y0160724D01*
X0116339Y0159525D02*
X0115914Y0159100D01*
X0115914Y0158249D01*
X0116339Y0157824D01*
X0118041Y0157824D01*
X0118466Y0158249D01*
X0118466Y0159100D01*
X0118041Y0159525D01*
X0109805Y0159100D02*
X0109805Y0158249D01*
X0109379Y0157824D01*
X0107678Y0157824D01*
X0107253Y0158249D01*
X0107253Y0159100D01*
X0107678Y0159525D01*
X0107253Y0160724D02*
X0107253Y0162425D01*
X0107253Y0161574D02*
X0109805Y0161574D01*
X0108954Y0160724D01*
X0109379Y0159525D02*
X0109805Y0159100D01*
X0109379Y0163624D02*
X0108954Y0163624D01*
X0108529Y0164049D01*
X0108529Y0165325D01*
X0109379Y0165325D02*
X0107678Y0165325D01*
X0107253Y0164900D01*
X0107253Y0164049D01*
X0107678Y0163624D01*
X0109379Y0163624D02*
X0109805Y0164049D01*
X0109805Y0164900D01*
X0109379Y0165325D01*
X0120276Y0221603D02*
X0119851Y0222028D01*
X0119851Y0222879D01*
X0120276Y0223304D01*
X0120276Y0224503D02*
X0119851Y0224503D01*
X0120276Y0224503D02*
X0121978Y0226204D01*
X0122403Y0226204D01*
X0122403Y0224503D01*
X0121978Y0223304D02*
X0122403Y0222879D01*
X0122403Y0222028D01*
X0121978Y0221603D01*
X0120276Y0221603D01*
X0121829Y0241554D02*
X0122430Y0244562D01*
X0121282Y0245109D02*
X0119778Y0243605D01*
X0120626Y0242757D02*
X0123633Y0243359D01*
X0121282Y0245109D02*
X0121282Y0245710D01*
X0120680Y0246312D01*
X0120079Y0246312D01*
X0118575Y0244808D01*
X0117727Y0245656D02*
X0119532Y0247460D01*
X0118329Y0248663D02*
X0116524Y0246859D01*
X0117727Y0246859D01*
X0117727Y0245656D01*
X0114659Y0258153D02*
X0112958Y0258153D01*
X0112533Y0258578D01*
X0112533Y0259429D01*
X0112958Y0259854D01*
X0112533Y0261053D02*
X0112533Y0262754D01*
X0112533Y0261903D02*
X0115085Y0261903D01*
X0114234Y0261053D01*
X0114659Y0259854D02*
X0115085Y0259429D01*
X0115085Y0258578D01*
X0114659Y0258153D01*
X0114659Y0263953D02*
X0115085Y0264378D01*
X0115085Y0265229D01*
X0114659Y0265654D01*
X0112958Y0263953D01*
X0112533Y0264378D01*
X0112533Y0265229D01*
X0112958Y0265654D01*
X0114659Y0265654D01*
X0114659Y0263953D02*
X0112958Y0263953D01*
X0122920Y0250071D02*
X0124123Y0248868D01*
X0122920Y0248868D02*
X0124123Y0250071D01*
X0125873Y0248922D02*
X0127076Y0247719D01*
X0126475Y0248321D02*
X0124670Y0246516D01*
X0124670Y0247719D01*
X0126420Y0245368D02*
X0126420Y0244766D01*
X0127022Y0244165D01*
X0127623Y0244165D01*
X0127924Y0244466D01*
X0127924Y0245067D01*
X0128525Y0245067D01*
X0128826Y0245368D01*
X0128826Y0245969D01*
X0128225Y0246571D01*
X0127623Y0246571D01*
X0127623Y0245368D02*
X0127924Y0245067D01*
X0129373Y0244219D02*
X0130576Y0244219D01*
X0130576Y0243016D01*
X0129373Y0241814D01*
X0128170Y0243016D02*
X0129373Y0244219D01*
X0132410Y0246661D02*
X0133613Y0247864D01*
X0132410Y0247864D02*
X0133613Y0246661D01*
X0134461Y0245814D02*
X0134762Y0244911D01*
X0135062Y0244611D01*
X0135664Y0244611D01*
X0136265Y0245212D01*
X0136265Y0245814D01*
X0135664Y0246415D01*
X0135062Y0246415D01*
X0134461Y0245814D02*
X0133559Y0244911D01*
X0134762Y0243708D01*
X0135609Y0242861D02*
X0136812Y0244064D01*
X0138015Y0244064D01*
X0138015Y0242861D01*
X0136812Y0241658D01*
X0140395Y0245822D02*
X0142200Y0247627D01*
X0141598Y0248228D02*
X0142801Y0247025D01*
X0143348Y0245877D02*
X0143950Y0245877D01*
X0144551Y0245275D01*
X0144551Y0244674D01*
X0144250Y0244373D01*
X0143649Y0244373D01*
X0143348Y0244674D01*
X0143649Y0244373D02*
X0143649Y0243772D01*
X0143348Y0243471D01*
X0142747Y0243471D01*
X0142145Y0244072D01*
X0142145Y0244674D01*
X0140395Y0245822D02*
X0140395Y0247025D01*
X0139848Y0248174D02*
X0138645Y0249377D01*
X0143104Y0254291D02*
X0143706Y0254291D01*
X0143706Y0256697D01*
X0142503Y0255494D01*
X0142503Y0254892D01*
X0143104Y0254291D01*
X0143706Y0254291D02*
X0144908Y0255494D01*
X0144908Y0256095D01*
X0144307Y0256697D01*
X0143706Y0256697D01*
X0142858Y0257545D02*
X0142557Y0257244D01*
X0141956Y0257244D01*
X0141354Y0257845D01*
X0140753Y0257845D01*
X0140452Y0257545D01*
X0140452Y0256943D01*
X0141053Y0256342D01*
X0141655Y0256342D01*
X0141956Y0256642D01*
X0141956Y0257244D01*
X0141354Y0257845D02*
X0141354Y0258447D01*
X0141655Y0258748D01*
X0142256Y0258748D01*
X0142858Y0258146D01*
X0142858Y0257545D01*
X0144253Y0253143D02*
X0145455Y0251940D01*
X0144854Y0252541D02*
X0146658Y0254345D01*
X0146658Y0253143D01*
X0147807Y0252595D02*
X0148408Y0252595D01*
X0149010Y0251994D01*
X0149010Y0251393D01*
X0147807Y0250190D01*
X0147205Y0250190D01*
X0146604Y0250791D01*
X0146604Y0251393D01*
X0151536Y0256883D02*
X0150935Y0257484D01*
X0150935Y0258085D01*
X0149786Y0258633D02*
X0148583Y0259835D01*
X0149185Y0259234D02*
X0150989Y0261038D01*
X0150989Y0259835D01*
X0152138Y0259288D02*
X0152739Y0259288D01*
X0153341Y0258687D01*
X0153341Y0258085D01*
X0152138Y0256883D01*
X0151536Y0256883D01*
X0148036Y0260984D02*
X0148036Y0263390D01*
X0146833Y0262187D01*
X0146833Y0261585D01*
X0147435Y0260984D01*
X0148036Y0260984D01*
X0149239Y0262187D01*
X0149239Y0262788D01*
X0148638Y0263390D01*
X0148036Y0263390D01*
X0147489Y0264538D02*
X0146587Y0263636D01*
X0146286Y0264538D01*
X0145986Y0264839D01*
X0145384Y0264839D01*
X0144783Y0264238D01*
X0144783Y0263636D01*
X0145384Y0263035D01*
X0145986Y0263035D01*
X0147489Y0264538D02*
X0146286Y0265741D01*
X0145343Y0281476D02*
X0143642Y0281476D01*
X0143217Y0281901D01*
X0143217Y0282752D01*
X0143642Y0283177D01*
X0143217Y0284376D02*
X0144918Y0286077D01*
X0145343Y0286077D01*
X0145769Y0285652D01*
X0145769Y0284801D01*
X0145343Y0284376D01*
X0145343Y0283177D02*
X0145769Y0282752D01*
X0145769Y0281901D01*
X0145343Y0281476D01*
X0143217Y0284376D02*
X0143217Y0286077D01*
X0143642Y0287276D02*
X0143217Y0287701D01*
X0143217Y0288552D01*
X0143642Y0288977D01*
X0144067Y0288977D01*
X0144493Y0288552D01*
X0144493Y0288126D01*
X0144493Y0288552D02*
X0144918Y0288977D01*
X0145343Y0288977D01*
X0145769Y0288552D01*
X0145769Y0287701D01*
X0145343Y0287276D01*
X0148929Y0298139D02*
X0150631Y0298139D01*
X0148929Y0299840D01*
X0148929Y0300265D01*
X0149355Y0300690D01*
X0150205Y0300690D01*
X0150631Y0300265D01*
X0151830Y0300265D02*
X0152255Y0300690D01*
X0153105Y0300690D01*
X0153531Y0300265D01*
X0153531Y0299840D01*
X0153105Y0299414D01*
X0152255Y0299414D01*
X0151830Y0298989D01*
X0151830Y0298564D01*
X0152255Y0298139D01*
X0153105Y0298139D01*
X0153531Y0298564D01*
X0156874Y0305299D02*
X0145992Y0305299D01*
X0145992Y0309299D01*
X0156874Y0309299D01*
X0156874Y0305299D01*
X0162220Y0302378D02*
X0140173Y0302378D01*
X0140848Y0309824D02*
X0140848Y0312375D01*
X0142549Y0312375D02*
X0140848Y0309824D01*
X0142549Y0309824D02*
X0142549Y0312375D01*
X0143748Y0311950D02*
X0144173Y0312375D01*
X0145024Y0312375D01*
X0145449Y0311950D01*
X0145449Y0310249D01*
X0145024Y0309824D01*
X0144173Y0309824D01*
X0143748Y0310249D01*
X0143748Y0311950D01*
X0147260Y0312220D02*
X0162220Y0312220D01*
X0165406Y0317646D02*
X0165406Y0318071D01*
X0163705Y0319772D01*
X0163705Y0320197D01*
X0165406Y0320197D01*
X0167030Y0320197D02*
X0168306Y0318922D01*
X0166605Y0318922D01*
X0167030Y0320197D02*
X0167030Y0317646D01*
X0169505Y0318071D02*
X0169930Y0317646D01*
X0170781Y0317646D01*
X0171206Y0318071D01*
X0171206Y0319772D01*
X0170781Y0320197D01*
X0169930Y0320197D01*
X0169505Y0319772D01*
X0176213Y0333080D02*
X0175788Y0333505D01*
X0175788Y0334355D01*
X0176213Y0334781D01*
X0177064Y0335980D02*
X0177064Y0337681D01*
X0175788Y0337256D02*
X0178340Y0337256D01*
X0177064Y0335980D01*
X0177915Y0334781D02*
X0178340Y0334355D01*
X0178340Y0333505D01*
X0177915Y0333080D01*
X0176213Y0333080D01*
X0175788Y0338880D02*
X0177489Y0340581D01*
X0177915Y0340581D01*
X0178340Y0340156D01*
X0178340Y0339305D01*
X0177915Y0338880D01*
X0175788Y0338880D02*
X0175788Y0340581D01*
X0183295Y0337023D02*
X0183721Y0337448D01*
X0184146Y0337448D01*
X0184571Y0337023D01*
X0184571Y0335747D01*
X0183721Y0335747D01*
X0183295Y0336172D01*
X0183295Y0337023D01*
X0184571Y0335747D02*
X0185422Y0336598D01*
X0185847Y0337448D01*
X0185847Y0334548D02*
X0185847Y0332847D01*
X0184571Y0332847D01*
X0184996Y0333698D01*
X0184996Y0334123D01*
X0184571Y0334548D01*
X0183721Y0334548D01*
X0183295Y0334123D01*
X0183295Y0333272D01*
X0183721Y0332847D01*
X0183721Y0331648D02*
X0183295Y0331223D01*
X0183295Y0330372D01*
X0183721Y0329947D01*
X0185422Y0329947D01*
X0185847Y0330372D01*
X0185847Y0331223D01*
X0185422Y0331648D01*
X0190599Y0343859D02*
X0190174Y0344284D01*
X0190174Y0345135D01*
X0190599Y0345560D01*
X0190599Y0346759D02*
X0190174Y0347184D01*
X0190174Y0348035D01*
X0190599Y0348460D01*
X0191025Y0348460D01*
X0191450Y0348035D01*
X0191450Y0347610D01*
X0191450Y0348035D02*
X0191875Y0348460D01*
X0192301Y0348460D01*
X0192726Y0348035D01*
X0192726Y0347184D01*
X0192301Y0346759D01*
X0192301Y0345560D02*
X0192726Y0345135D01*
X0192726Y0344284D01*
X0192301Y0343859D01*
X0190599Y0343859D01*
X0190599Y0349659D02*
X0190174Y0349659D01*
X0190599Y0349659D02*
X0192301Y0351360D01*
X0192726Y0351360D01*
X0192726Y0349659D01*
X0185749Y0353266D02*
X0185323Y0352841D01*
X0183622Y0352841D01*
X0183197Y0353266D01*
X0183197Y0354117D01*
X0183622Y0354542D01*
X0183622Y0355741D02*
X0183197Y0356166D01*
X0183197Y0357017D01*
X0183622Y0357442D01*
X0184047Y0357442D01*
X0184473Y0357017D01*
X0184473Y0355741D01*
X0183622Y0355741D01*
X0184473Y0355741D02*
X0185323Y0356592D01*
X0185749Y0357442D01*
X0184898Y0358641D02*
X0185749Y0359492D01*
X0183197Y0359492D01*
X0183197Y0360342D02*
X0183197Y0358641D01*
X0181310Y0359501D02*
X0180885Y0359076D01*
X0180034Y0359076D01*
X0179609Y0359501D01*
X0178410Y0360351D02*
X0176709Y0360351D01*
X0177134Y0359076D02*
X0177134Y0361627D01*
X0178410Y0360351D01*
X0179609Y0361202D02*
X0180034Y0361627D01*
X0180885Y0361627D01*
X0181310Y0361202D01*
X0181310Y0359501D01*
X0185323Y0354542D02*
X0185749Y0354117D01*
X0185749Y0353266D01*
X0179903Y0372459D02*
X0179052Y0372459D01*
X0178627Y0372885D01*
X0177428Y0372459D02*
X0175727Y0374161D01*
X0175727Y0374586D01*
X0176152Y0375011D01*
X0177002Y0375011D01*
X0177428Y0374586D01*
X0178627Y0374586D02*
X0179052Y0375011D01*
X0179903Y0375011D01*
X0180328Y0374586D01*
X0180328Y0372885D01*
X0179903Y0372459D01*
X0177428Y0372459D02*
X0175727Y0372459D01*
X0173102Y0361524D02*
X0173528Y0361098D01*
X0173528Y0359397D01*
X0173102Y0358972D01*
X0172252Y0358972D01*
X0171826Y0359397D01*
X0170627Y0358972D02*
X0168926Y0360673D01*
X0168926Y0361098D01*
X0169352Y0361524D01*
X0170202Y0361524D01*
X0170627Y0361098D01*
X0171826Y0361098D02*
X0172252Y0361524D01*
X0173102Y0361524D01*
X0170627Y0358972D02*
X0168926Y0358972D01*
X0167727Y0359397D02*
X0167302Y0358972D01*
X0166451Y0358972D01*
X0166026Y0359397D01*
X0166026Y0360248D01*
X0166451Y0360673D01*
X0166877Y0360673D01*
X0167727Y0360248D01*
X0167727Y0361524D01*
X0166026Y0361524D01*
X0165028Y0376497D02*
X0165028Y0379049D01*
X0166304Y0377773D01*
X0164603Y0377773D01*
X0167503Y0376497D02*
X0169204Y0376497D01*
X0169204Y0379049D01*
X0157196Y0367993D02*
X0157196Y0366292D01*
X0156771Y0365867D01*
X0155920Y0365867D01*
X0155495Y0366292D01*
X0154296Y0366292D02*
X0153871Y0365867D01*
X0153020Y0365867D01*
X0152595Y0366292D01*
X0152595Y0367143D01*
X0153020Y0367568D01*
X0153445Y0367568D01*
X0154296Y0367143D01*
X0154296Y0368419D01*
X0152595Y0368419D01*
X0151396Y0367993D02*
X0151396Y0367568D01*
X0150971Y0367143D01*
X0150120Y0367143D01*
X0149695Y0366718D01*
X0149695Y0366292D01*
X0150120Y0365867D01*
X0150971Y0365867D01*
X0151396Y0366292D01*
X0151396Y0366718D01*
X0150971Y0367143D01*
X0150120Y0367143D02*
X0149695Y0367568D01*
X0149695Y0367993D01*
X0150120Y0368419D01*
X0150971Y0368419D01*
X0151396Y0367993D01*
X0152595Y0364482D02*
X0154296Y0364482D01*
X0154296Y0363206D01*
X0153445Y0363631D01*
X0153020Y0363631D01*
X0152595Y0363206D01*
X0152595Y0362355D01*
X0153020Y0361930D01*
X0153871Y0361930D01*
X0154296Y0362355D01*
X0155495Y0362355D02*
X0155920Y0361930D01*
X0156771Y0361930D01*
X0157196Y0362355D01*
X0157196Y0364056D01*
X0156771Y0364482D01*
X0155920Y0364482D01*
X0155495Y0364056D01*
X0155920Y0360545D02*
X0155495Y0360119D01*
X0155920Y0360545D02*
X0156771Y0360545D01*
X0157196Y0360119D01*
X0157196Y0358418D01*
X0156771Y0357993D01*
X0155920Y0357993D01*
X0155495Y0358418D01*
X0154296Y0357993D02*
X0152595Y0357993D01*
X0153445Y0357993D02*
X0153445Y0360545D01*
X0154296Y0359694D01*
X0151396Y0360119D02*
X0150971Y0360545D01*
X0150120Y0360545D01*
X0149695Y0360119D01*
X0149695Y0359694D01*
X0151396Y0357993D01*
X0149695Y0357993D01*
X0150545Y0356608D02*
X0150545Y0354056D01*
X0149695Y0354056D02*
X0151396Y0354056D01*
X0151389Y0353059D02*
X0151389Y0351783D01*
X0150538Y0352209D01*
X0150113Y0352209D01*
X0149688Y0351783D01*
X0149688Y0350933D01*
X0150113Y0350507D01*
X0150963Y0350507D01*
X0151389Y0350933D01*
X0152588Y0350933D02*
X0152588Y0351358D01*
X0153013Y0351783D01*
X0154289Y0351783D01*
X0154289Y0350933D01*
X0153864Y0350507D01*
X0153013Y0350507D01*
X0152588Y0350933D01*
X0152595Y0349521D02*
X0154296Y0349521D01*
X0154296Y0348245D01*
X0153445Y0348670D01*
X0153020Y0348670D01*
X0152595Y0348245D01*
X0152595Y0347395D01*
X0153020Y0346969D01*
X0153871Y0346969D01*
X0154296Y0347395D01*
X0155495Y0347395D02*
X0155920Y0346969D01*
X0156771Y0346969D01*
X0157196Y0347395D01*
X0157196Y0349096D01*
X0156771Y0349521D01*
X0155920Y0349521D01*
X0155495Y0349096D01*
X0155913Y0350507D02*
X0155488Y0350933D01*
X0155913Y0350507D02*
X0156764Y0350507D01*
X0157189Y0350933D01*
X0157189Y0352634D01*
X0156764Y0353059D01*
X0155913Y0353059D01*
X0155488Y0352634D01*
X0154289Y0351783D02*
X0153438Y0352634D01*
X0152588Y0353059D01*
X0152595Y0354056D02*
X0154296Y0354056D01*
X0152595Y0355757D01*
X0152595Y0356182D01*
X0153020Y0356608D01*
X0153871Y0356608D01*
X0154296Y0356182D01*
X0155495Y0356182D02*
X0155920Y0356608D01*
X0156771Y0356608D01*
X0157196Y0356182D01*
X0157196Y0354481D01*
X0156771Y0354056D01*
X0155920Y0354056D01*
X0155495Y0354481D01*
X0151396Y0355757D02*
X0150545Y0356608D01*
X0151389Y0353059D02*
X0149688Y0353059D01*
X0150545Y0349521D02*
X0150545Y0346969D01*
X0149695Y0346969D02*
X0151396Y0346969D01*
X0150971Y0345584D02*
X0151396Y0345159D01*
X0151396Y0344733D01*
X0150971Y0344308D01*
X0149695Y0344308D01*
X0149695Y0343458D02*
X0149695Y0345159D01*
X0150120Y0345584D01*
X0150971Y0345584D01*
X0153020Y0345584D02*
X0154296Y0344308D01*
X0152595Y0344308D01*
X0153020Y0343032D02*
X0153020Y0345584D01*
X0155495Y0345159D02*
X0155920Y0345584D01*
X0156771Y0345584D01*
X0157196Y0345159D01*
X0157196Y0343458D01*
X0156771Y0343032D01*
X0155920Y0343032D01*
X0155495Y0343458D01*
X0151396Y0343458D02*
X0150971Y0343032D01*
X0150120Y0343032D01*
X0149695Y0343458D01*
X0148616Y0339463D02*
X0148616Y0336911D01*
X0149466Y0336911D02*
X0147765Y0336911D01*
X0146566Y0337336D02*
X0144865Y0339037D01*
X0144865Y0337336D01*
X0145290Y0336911D01*
X0146141Y0336911D01*
X0146566Y0337336D01*
X0146566Y0339037D01*
X0146141Y0339463D01*
X0145290Y0339463D01*
X0144865Y0339037D01*
X0148616Y0339463D02*
X0149466Y0338612D01*
X0150665Y0336911D02*
X0152367Y0336911D01*
X0152367Y0339463D01*
X0151396Y0348670D02*
X0150545Y0349521D01*
X0150120Y0361930D02*
X0150120Y0364482D01*
X0151396Y0363206D01*
X0149695Y0363206D01*
X0155495Y0367993D02*
X0155920Y0368419D01*
X0156771Y0368419D01*
X0157196Y0367993D01*
X0139381Y0317009D02*
X0139806Y0316584D01*
X0139806Y0314883D01*
X0139381Y0314457D01*
X0138530Y0314457D01*
X0138105Y0314883D01*
X0136906Y0314883D02*
X0136481Y0314457D01*
X0135630Y0314457D01*
X0135205Y0314883D01*
X0135205Y0315308D01*
X0135630Y0315733D01*
X0136056Y0315733D01*
X0135630Y0315733D02*
X0135205Y0316159D01*
X0135205Y0316584D01*
X0135630Y0317009D01*
X0136481Y0317009D01*
X0136906Y0316584D01*
X0138105Y0316584D02*
X0138530Y0317009D01*
X0139381Y0317009D01*
X0134006Y0316584D02*
X0133581Y0317009D01*
X0132730Y0317009D01*
X0132305Y0316584D01*
X0134006Y0314883D01*
X0133581Y0314457D01*
X0132730Y0314457D01*
X0132305Y0314883D01*
X0132305Y0316584D01*
X0134006Y0316584D02*
X0134006Y0314883D01*
X0133398Y0322463D02*
X0133398Y0322888D01*
X0131696Y0324589D01*
X0131696Y0325014D01*
X0133398Y0325014D01*
X0134596Y0324589D02*
X0135022Y0325014D01*
X0135872Y0325014D01*
X0136298Y0324589D01*
X0136298Y0322888D01*
X0135872Y0322463D01*
X0135022Y0322463D01*
X0134596Y0322888D01*
X0130497Y0322463D02*
X0128796Y0324164D01*
X0128796Y0324589D01*
X0129222Y0325014D01*
X0130072Y0325014D01*
X0130497Y0324589D01*
X0130497Y0322463D02*
X0128796Y0322463D01*
X0155041Y0268590D02*
X0154740Y0268289D01*
X0154740Y0267688D01*
X0155341Y0267086D01*
X0155943Y0267086D01*
X0156244Y0267387D01*
X0156244Y0267989D01*
X0155642Y0268590D01*
X0155041Y0268590D01*
X0154740Y0267688D02*
X0154138Y0267688D01*
X0153838Y0267387D01*
X0153838Y0266786D01*
X0154439Y0266184D01*
X0155041Y0266184D01*
X0155341Y0266485D01*
X0155341Y0267086D01*
X0156189Y0265637D02*
X0155888Y0265336D01*
X0155888Y0264735D01*
X0156490Y0264134D01*
X0157091Y0264134D01*
X0157392Y0264434D01*
X0157392Y0265036D01*
X0156791Y0265637D01*
X0156189Y0265637D01*
X0156791Y0265637D02*
X0156791Y0266239D01*
X0157091Y0266539D01*
X0157693Y0266539D01*
X0158294Y0265938D01*
X0158294Y0265336D01*
X0157994Y0265036D01*
X0157392Y0265036D01*
X0159142Y0264489D02*
X0159743Y0264489D01*
X0160345Y0263887D01*
X0160345Y0263286D01*
X0159142Y0262083D01*
X0158541Y0262083D01*
X0157939Y0262684D01*
X0157939Y0263286D01*
X0173580Y0247800D02*
X0174181Y0247800D01*
X0174482Y0247499D01*
X0174482Y0246898D01*
X0173580Y0245996D01*
X0174181Y0245394D02*
X0172978Y0246597D01*
X0172978Y0247199D01*
X0173580Y0247800D01*
X0175029Y0248648D02*
X0175029Y0249249D01*
X0175630Y0249851D01*
X0176232Y0249851D01*
X0176532Y0249550D01*
X0176532Y0248949D01*
X0175630Y0248046D01*
X0176232Y0247445D02*
X0175029Y0248648D01*
X0176232Y0247445D02*
X0176833Y0247445D01*
X0177435Y0248046D01*
X0177435Y0248648D01*
X0178282Y0249496D02*
X0178884Y0249496D01*
X0179485Y0250097D01*
X0179485Y0250698D01*
X0178282Y0251901D01*
X0177681Y0251901D01*
X0177079Y0251300D01*
X0177079Y0250698D01*
X0175384Y0246597D02*
X0175384Y0245996D01*
X0174782Y0245394D01*
X0174181Y0245394D01*
X0176974Y0238577D02*
X0177576Y0238577D01*
X0178779Y0237374D01*
X0178779Y0236772D01*
X0178177Y0236171D01*
X0177576Y0236171D01*
X0177029Y0235022D02*
X0175826Y0233819D01*
X0176427Y0234421D02*
X0174623Y0236225D01*
X0175826Y0236225D01*
X0176373Y0237374D02*
X0176373Y0237975D01*
X0176974Y0238577D01*
X0173475Y0234475D02*
X0174677Y0233272D01*
X0172272Y0233272D01*
X0173475Y0232069D01*
X0174076Y0232069D01*
X0174677Y0232671D01*
X0174677Y0233272D01*
X0173475Y0234475D02*
X0172873Y0234475D01*
X0172272Y0233874D01*
X0172272Y0233272D01*
X0171424Y0232425D02*
X0170822Y0232425D01*
X0170221Y0231823D01*
X0170221Y0231222D01*
X0170522Y0230921D01*
X0171123Y0230921D01*
X0171123Y0230320D01*
X0171424Y0230019D01*
X0172025Y0230019D01*
X0172627Y0230620D01*
X0172627Y0231222D01*
X0171424Y0231222D02*
X0171123Y0230921D01*
X0170325Y0227659D02*
X0169474Y0227659D01*
X0169049Y0227234D01*
X0169049Y0225533D01*
X0169474Y0225107D01*
X0170325Y0225107D01*
X0170750Y0225533D01*
X0170325Y0226383D02*
X0169049Y0226383D01*
X0170325Y0226383D02*
X0170750Y0226808D01*
X0170750Y0227234D01*
X0170325Y0227659D01*
X0171949Y0227234D02*
X0172374Y0227659D01*
X0173225Y0227659D01*
X0173650Y0227234D01*
X0173650Y0225533D01*
X0173225Y0225107D01*
X0172374Y0225107D01*
X0171949Y0225533D01*
X0167850Y0225533D02*
X0167424Y0225107D01*
X0166574Y0225107D01*
X0166149Y0225533D01*
X0166149Y0225958D01*
X0166574Y0226383D01*
X0166999Y0226383D01*
X0166574Y0226383D02*
X0166149Y0226808D01*
X0166149Y0227234D01*
X0166574Y0227659D01*
X0167424Y0227659D01*
X0167850Y0227234D01*
X0170762Y0215907D02*
X0170336Y0215482D01*
X0170336Y0215056D01*
X0170762Y0214631D01*
X0170336Y0214206D01*
X0170336Y0213780D01*
X0170762Y0213355D01*
X0171612Y0213355D01*
X0172038Y0213780D01*
X0173237Y0213780D02*
X0173662Y0213355D01*
X0174512Y0213355D01*
X0174938Y0213780D01*
X0174938Y0214206D01*
X0174512Y0214631D01*
X0173662Y0214631D01*
X0173237Y0214206D01*
X0173237Y0213780D01*
X0173662Y0214631D02*
X0173237Y0215056D01*
X0173237Y0215482D01*
X0173662Y0215907D01*
X0174512Y0215907D01*
X0174938Y0215482D01*
X0174938Y0215056D01*
X0174512Y0214631D01*
X0176137Y0213780D02*
X0176562Y0213355D01*
X0177412Y0213355D01*
X0177838Y0213780D01*
X0177838Y0215482D01*
X0177412Y0215907D01*
X0176562Y0215907D01*
X0176137Y0215482D01*
X0172038Y0215482D02*
X0171612Y0215907D01*
X0170762Y0215907D01*
X0170762Y0214631D02*
X0171187Y0214631D01*
X0179017Y0207120D02*
X0179017Y0204568D01*
X0178167Y0204568D02*
X0179868Y0204568D01*
X0181067Y0204993D02*
X0181492Y0204568D01*
X0182343Y0204568D01*
X0182768Y0204993D01*
X0181067Y0206694D01*
X0181067Y0204993D01*
X0182768Y0204993D02*
X0182768Y0206694D01*
X0182343Y0207120D01*
X0181492Y0207120D01*
X0181067Y0206694D01*
X0179868Y0206269D02*
X0179017Y0207120D01*
X0183967Y0204568D02*
X0185668Y0204568D01*
X0184817Y0204568D02*
X0184817Y0207120D01*
X0185668Y0206269D01*
X0186867Y0206694D02*
X0187292Y0207120D01*
X0188143Y0207120D01*
X0188568Y0206694D01*
X0188568Y0204993D01*
X0188143Y0204568D01*
X0187292Y0204568D01*
X0186867Y0204993D01*
X0185992Y0195340D02*
X0185992Y0192788D01*
X0185142Y0192788D02*
X0186843Y0192788D01*
X0188042Y0192788D02*
X0189743Y0192788D01*
X0189743Y0195340D01*
X0186843Y0194489D02*
X0185992Y0195340D01*
X0183943Y0194064D02*
X0182241Y0194064D01*
X0182667Y0192788D02*
X0182667Y0195340D01*
X0183943Y0194064D01*
X0182214Y0187910D02*
X0180513Y0186209D01*
X0180087Y0186634D01*
X0180087Y0187485D01*
X0180513Y0187910D01*
X0182214Y0187910D01*
X0182639Y0187485D01*
X0182639Y0186634D01*
X0182214Y0186209D01*
X0180513Y0186209D01*
X0180513Y0185010D02*
X0180087Y0184585D01*
X0180087Y0183734D01*
X0180513Y0183309D01*
X0182214Y0185010D01*
X0180513Y0185010D01*
X0182214Y0185010D02*
X0182639Y0184585D01*
X0182639Y0183734D01*
X0182214Y0183309D01*
X0180513Y0183309D01*
X0180087Y0182110D02*
X0180087Y0180409D01*
X0180087Y0181259D02*
X0182639Y0181259D01*
X0181789Y0180409D01*
X0182214Y0179210D02*
X0182639Y0178785D01*
X0182639Y0177934D01*
X0182214Y0177509D01*
X0180513Y0177509D01*
X0180087Y0177934D01*
X0180087Y0178785D01*
X0180513Y0179210D01*
X0185184Y0183828D02*
X0185184Y0186379D01*
X0186460Y0185103D01*
X0184759Y0185103D01*
X0187659Y0183828D02*
X0189360Y0183828D01*
X0188510Y0183828D02*
X0188510Y0186379D01*
X0189360Y0185529D01*
X0190559Y0183828D02*
X0192261Y0183828D01*
X0191410Y0183828D02*
X0191410Y0186379D01*
X0192261Y0185529D01*
X0193459Y0185954D02*
X0193885Y0186379D01*
X0194735Y0186379D01*
X0195161Y0185954D01*
X0195161Y0184253D01*
X0194735Y0183828D01*
X0193885Y0183828D01*
X0193459Y0184253D01*
X0195165Y0196851D02*
X0194739Y0197276D01*
X0194739Y0198978D01*
X0195165Y0199403D01*
X0196015Y0199403D01*
X0196441Y0198978D01*
X0196441Y0198552D01*
X0196015Y0198127D01*
X0194739Y0198127D01*
X0195165Y0196851D02*
X0196015Y0196851D01*
X0196441Y0197276D01*
X0197640Y0197276D02*
X0198065Y0196851D01*
X0198915Y0196851D01*
X0199341Y0197276D01*
X0197640Y0198978D01*
X0197640Y0197276D01*
X0199341Y0197276D02*
X0199341Y0198978D01*
X0198915Y0199403D01*
X0198065Y0199403D01*
X0197640Y0198978D01*
X0200540Y0196851D02*
X0202241Y0196851D01*
X0201390Y0196851D02*
X0201390Y0199403D01*
X0202241Y0198552D01*
X0203440Y0198978D02*
X0203865Y0199403D01*
X0204716Y0199403D01*
X0205141Y0198978D01*
X0205141Y0197276D01*
X0204716Y0196851D01*
X0203865Y0196851D01*
X0203440Y0197276D01*
X0211379Y0184229D02*
X0209678Y0182528D01*
X0209253Y0182528D01*
X0209253Y0181329D02*
X0209253Y0179628D01*
X0209253Y0180478D02*
X0211805Y0180478D01*
X0210954Y0179628D01*
X0209253Y0178429D02*
X0209253Y0176728D01*
X0209253Y0177578D02*
X0211805Y0177578D01*
X0210954Y0176728D01*
X0211379Y0175529D02*
X0211805Y0175103D01*
X0211805Y0174253D01*
X0211379Y0173828D01*
X0209678Y0173828D01*
X0209253Y0174253D01*
X0209253Y0175103D01*
X0209678Y0175529D01*
X0210198Y0171231D02*
X0210198Y0169529D01*
X0208922Y0169529D01*
X0209348Y0170380D01*
X0209348Y0170805D01*
X0208922Y0171231D01*
X0208072Y0171231D01*
X0207646Y0170805D01*
X0207646Y0169955D01*
X0208072Y0169529D01*
X0208072Y0168330D02*
X0208497Y0168330D01*
X0208922Y0167905D01*
X0208922Y0166629D01*
X0208072Y0166629D01*
X0207646Y0167055D01*
X0207646Y0167905D01*
X0208072Y0168330D01*
X0209773Y0167480D02*
X0208922Y0166629D01*
X0208922Y0165430D02*
X0208497Y0165005D01*
X0208497Y0163729D01*
X0207646Y0163729D02*
X0210198Y0163729D01*
X0210198Y0165005D01*
X0209773Y0165430D01*
X0208922Y0165430D01*
X0208497Y0164580D02*
X0207646Y0165430D01*
X0209773Y0167480D02*
X0210198Y0168330D01*
X0211805Y0182528D02*
X0211805Y0184229D01*
X0211379Y0184229D01*
X0200655Y0151490D02*
X0201080Y0151064D01*
X0201080Y0149363D01*
X0200655Y0148938D01*
X0199804Y0148938D01*
X0199379Y0149363D01*
X0198180Y0148938D02*
X0196479Y0148938D01*
X0197329Y0148938D02*
X0197329Y0151490D01*
X0198180Y0150639D01*
X0199379Y0151064D02*
X0199804Y0151490D01*
X0200655Y0151490D01*
X0198180Y0152875D02*
X0198180Y0155427D01*
X0196904Y0155427D01*
X0196479Y0155001D01*
X0196479Y0154151D01*
X0196904Y0153725D01*
X0198180Y0153725D01*
X0197329Y0153725D02*
X0196479Y0152875D01*
X0195280Y0153300D02*
X0194854Y0152875D01*
X0194004Y0152875D01*
X0193579Y0153300D01*
X0193579Y0153725D01*
X0194004Y0154151D01*
X0195280Y0154151D01*
X0195280Y0153300D01*
X0195280Y0154151D02*
X0194429Y0155001D01*
X0193579Y0155427D01*
X0194004Y0156812D02*
X0193579Y0157237D01*
X0193579Y0157662D01*
X0194004Y0158088D01*
X0195280Y0158088D01*
X0195280Y0157237D01*
X0194854Y0156812D01*
X0194004Y0156812D01*
X0192380Y0157237D02*
X0191954Y0156812D01*
X0191104Y0156812D01*
X0190678Y0157237D01*
X0190678Y0157662D01*
X0191104Y0158088D01*
X0191529Y0158088D01*
X0191104Y0158088D02*
X0190678Y0158513D01*
X0190678Y0158938D01*
X0191104Y0159364D01*
X0191954Y0159364D01*
X0192380Y0158938D01*
X0193579Y0159364D02*
X0194429Y0158938D01*
X0195280Y0158088D01*
X0196479Y0158088D02*
X0196904Y0157662D01*
X0198180Y0157662D01*
X0198180Y0156812D02*
X0198180Y0159364D01*
X0196904Y0159364D01*
X0196479Y0158938D01*
X0196479Y0158088D01*
X0197329Y0157662D02*
X0196479Y0156812D01*
X0192380Y0154151D02*
X0191104Y0154151D01*
X0190678Y0153725D01*
X0190678Y0153300D01*
X0191104Y0152875D01*
X0191954Y0152875D01*
X0192380Y0153300D01*
X0192380Y0154151D01*
X0191529Y0155001D01*
X0190678Y0155427D01*
X0190678Y0151490D02*
X0192380Y0151490D01*
X0192380Y0150214D01*
X0191529Y0150639D01*
X0191104Y0150639D01*
X0190678Y0150214D01*
X0190678Y0149363D01*
X0191104Y0148938D01*
X0191954Y0148938D01*
X0192380Y0149363D01*
X0193579Y0148938D02*
X0195280Y0148938D01*
X0194429Y0148938D02*
X0194429Y0151490D01*
X0195280Y0150639D01*
X0196904Y0147553D02*
X0196479Y0147127D01*
X0196479Y0146277D01*
X0196904Y0145851D01*
X0198180Y0145851D01*
X0198180Y0145001D02*
X0198180Y0147553D01*
X0196904Y0147553D01*
X0197329Y0145851D02*
X0196479Y0145001D01*
X0195280Y0145426D02*
X0194854Y0145001D01*
X0194004Y0145001D01*
X0193579Y0145426D01*
X0193579Y0145851D01*
X0194004Y0146277D01*
X0195280Y0146277D01*
X0195280Y0145426D01*
X0195280Y0146277D02*
X0194429Y0147127D01*
X0193579Y0147553D01*
X0192380Y0146277D02*
X0190678Y0146277D01*
X0191104Y0147553D02*
X0192380Y0146277D01*
X0191104Y0145001D02*
X0191104Y0147553D01*
X0191129Y0141497D02*
X0191979Y0141497D01*
X0192405Y0141072D01*
X0192405Y0139371D01*
X0191979Y0138946D01*
X0191129Y0138946D01*
X0190704Y0139371D01*
X0189505Y0139371D02*
X0189079Y0138946D01*
X0188229Y0138946D01*
X0187803Y0139371D01*
X0187803Y0139796D01*
X0188229Y0140222D01*
X0188654Y0140222D01*
X0188229Y0140222D02*
X0187803Y0140647D01*
X0187803Y0141072D01*
X0188229Y0141497D01*
X0189079Y0141497D01*
X0189505Y0141072D01*
X0190704Y0141072D02*
X0191129Y0141497D01*
X0186605Y0141072D02*
X0186179Y0141497D01*
X0185329Y0141497D01*
X0184903Y0141072D01*
X0184903Y0140647D01*
X0186605Y0138946D01*
X0184903Y0138946D01*
X0192084Y0133497D02*
X0192509Y0133923D01*
X0193360Y0133923D01*
X0193785Y0133497D01*
X0193785Y0133072D01*
X0193360Y0132647D01*
X0192084Y0132647D01*
X0192084Y0133497D02*
X0192084Y0131796D01*
X0192509Y0131371D01*
X0193360Y0131371D01*
X0193785Y0131796D01*
X0194984Y0131371D02*
X0196685Y0131371D01*
X0194984Y0133072D01*
X0194984Y0133497D01*
X0195409Y0133923D01*
X0196260Y0133923D01*
X0196685Y0133497D01*
X0197884Y0133497D02*
X0198309Y0133923D01*
X0199160Y0133923D01*
X0199585Y0133497D01*
X0199585Y0131796D01*
X0199160Y0131371D01*
X0198309Y0131371D01*
X0197884Y0131796D01*
X0198309Y0129592D02*
X0197884Y0129167D01*
X0198309Y0129592D02*
X0199160Y0129592D01*
X0199585Y0129167D01*
X0199585Y0127465D01*
X0199160Y0127040D01*
X0198309Y0127040D01*
X0197884Y0127465D01*
X0196685Y0127465D02*
X0196260Y0127040D01*
X0195409Y0127040D01*
X0194984Y0127465D01*
X0194984Y0127891D01*
X0195409Y0128316D01*
X0195835Y0128316D01*
X0195409Y0128316D02*
X0194984Y0128741D01*
X0194984Y0129167D01*
X0195409Y0129592D01*
X0196260Y0129592D01*
X0196685Y0129167D01*
X0193785Y0129167D02*
X0193360Y0129592D01*
X0192509Y0129592D01*
X0192084Y0129167D01*
X0192084Y0128741D01*
X0192509Y0128316D01*
X0192084Y0127891D01*
X0192084Y0127465D01*
X0192509Y0127040D01*
X0193360Y0127040D01*
X0193785Y0127465D01*
X0192935Y0128316D02*
X0192509Y0128316D01*
X0198198Y0121104D02*
X0198623Y0121104D01*
X0200324Y0122805D01*
X0200749Y0122805D01*
X0200749Y0121104D01*
X0200324Y0119905D02*
X0200749Y0119480D01*
X0200749Y0118629D01*
X0200324Y0118204D01*
X0200324Y0117005D02*
X0199474Y0117005D01*
X0199048Y0116580D01*
X0199048Y0115304D01*
X0198198Y0115304D02*
X0200749Y0115304D01*
X0200749Y0116580D01*
X0200324Y0117005D01*
X0199048Y0116155D02*
X0198198Y0117005D01*
X0198198Y0118204D02*
X0199899Y0119905D01*
X0200324Y0119905D01*
X0198198Y0119905D02*
X0198198Y0118204D01*
X0204320Y0135308D02*
X0203895Y0135733D01*
X0203895Y0136158D01*
X0204320Y0136584D01*
X0205171Y0136584D01*
X0205596Y0137009D01*
X0205596Y0137434D01*
X0205171Y0137860D01*
X0204320Y0137860D01*
X0203895Y0137434D01*
X0203895Y0137009D01*
X0204320Y0136584D01*
X0205171Y0136584D02*
X0205596Y0136158D01*
X0205596Y0135733D01*
X0205171Y0135308D01*
X0204320Y0135308D01*
X0206795Y0135308D02*
X0208496Y0135308D01*
X0206795Y0137009D01*
X0206795Y0137434D01*
X0207220Y0137860D01*
X0208071Y0137860D01*
X0208496Y0137434D01*
X0209695Y0137434D02*
X0210121Y0137860D01*
X0210971Y0137860D01*
X0211396Y0137434D01*
X0211396Y0135733D01*
X0210971Y0135308D01*
X0210121Y0135308D01*
X0209695Y0135733D01*
X0227817Y0157843D02*
X0229518Y0157843D01*
X0228667Y0157843D02*
X0228667Y0160395D01*
X0229518Y0159544D01*
X0230717Y0159544D02*
X0231142Y0159119D01*
X0231993Y0159119D01*
X0232418Y0159544D01*
X0232418Y0159970D01*
X0231993Y0160395D01*
X0231142Y0160395D01*
X0230717Y0159970D01*
X0230717Y0159544D01*
X0231142Y0159119D02*
X0230717Y0158694D01*
X0230717Y0158269D01*
X0231142Y0157843D01*
X0231993Y0157843D01*
X0232418Y0158269D01*
X0232418Y0158694D01*
X0231993Y0159119D01*
X0233617Y0159119D02*
X0234042Y0158694D01*
X0235318Y0158694D01*
X0234468Y0158694D02*
X0233617Y0157843D01*
X0233617Y0159119D02*
X0233617Y0159970D01*
X0234042Y0160395D01*
X0235318Y0160395D01*
X0235318Y0157843D01*
X0255864Y0158174D02*
X0256289Y0157749D01*
X0257139Y0157749D01*
X0257565Y0158174D01*
X0255864Y0159875D01*
X0255864Y0158174D01*
X0257565Y0158174D02*
X0257565Y0159875D01*
X0257139Y0160301D01*
X0256289Y0160301D01*
X0255864Y0159875D01*
X0258764Y0159875D02*
X0258764Y0159450D01*
X0259189Y0159025D01*
X0260040Y0159025D01*
X0260465Y0159450D01*
X0260465Y0159875D01*
X0260040Y0160301D01*
X0259189Y0160301D01*
X0258764Y0159875D01*
X0259189Y0159025D02*
X0258764Y0158599D01*
X0258764Y0158174D01*
X0259189Y0157749D01*
X0260040Y0157749D01*
X0260465Y0158174D01*
X0260465Y0158599D01*
X0260040Y0159025D01*
X0261664Y0159025D02*
X0262089Y0158599D01*
X0263365Y0158599D01*
X0263365Y0157749D02*
X0263365Y0160301D01*
X0262089Y0160301D01*
X0261664Y0159875D01*
X0261664Y0159025D01*
X0262514Y0158599D02*
X0261664Y0157749D01*
X0266655Y0220591D02*
X0266655Y0223143D01*
X0267931Y0221867D01*
X0266230Y0221867D01*
X0269130Y0221867D02*
X0270831Y0221867D01*
X0269555Y0223143D01*
X0269555Y0220591D01*
X0272030Y0220591D02*
X0272881Y0221442D01*
X0272456Y0221442D02*
X0273731Y0221442D01*
X0273731Y0220591D02*
X0273731Y0223143D01*
X0272456Y0223143D01*
X0272030Y0222718D01*
X0272030Y0221867D01*
X0272456Y0221442D01*
X0272030Y0224922D02*
X0272881Y0225773D01*
X0272456Y0225773D02*
X0273731Y0225773D01*
X0273731Y0224922D02*
X0273731Y0227474D01*
X0272456Y0227474D01*
X0272030Y0227049D01*
X0272030Y0226198D01*
X0272456Y0225773D01*
X0270831Y0226198D02*
X0269130Y0226198D01*
X0267931Y0226198D02*
X0266655Y0226198D01*
X0266230Y0225773D01*
X0266230Y0225347D01*
X0266655Y0224922D01*
X0267506Y0224922D01*
X0267931Y0225347D01*
X0267931Y0226198D01*
X0267081Y0227049D01*
X0266230Y0227474D01*
X0266655Y0229253D02*
X0267506Y0229253D01*
X0267931Y0229678D01*
X0267931Y0230529D02*
X0267081Y0230954D01*
X0266655Y0230954D01*
X0266230Y0230529D01*
X0266230Y0229678D01*
X0266655Y0229253D01*
X0267931Y0230529D02*
X0267931Y0231805D01*
X0266230Y0231805D01*
X0266230Y0233583D02*
X0267931Y0233583D01*
X0266230Y0235285D01*
X0266230Y0235710D01*
X0266655Y0236135D01*
X0267506Y0236135D01*
X0267931Y0235710D01*
X0269130Y0234859D02*
X0270831Y0234859D01*
X0269555Y0236135D01*
X0269555Y0233583D01*
X0269555Y0231805D02*
X0270831Y0230529D01*
X0269130Y0230529D01*
X0269555Y0229253D02*
X0269555Y0231805D01*
X0272030Y0231379D02*
X0272030Y0230529D01*
X0272456Y0230103D01*
X0273731Y0230103D01*
X0272881Y0230103D02*
X0272030Y0229253D01*
X0273731Y0229253D02*
X0273731Y0231805D01*
X0272456Y0231805D01*
X0272030Y0231379D01*
X0272030Y0233583D02*
X0272881Y0234434D01*
X0272456Y0234434D02*
X0273731Y0234434D01*
X0273731Y0233583D02*
X0273731Y0236135D01*
X0272456Y0236135D01*
X0272030Y0235710D01*
X0272030Y0234859D01*
X0272456Y0234434D01*
X0272030Y0237914D02*
X0272881Y0238765D01*
X0272456Y0238765D02*
X0273731Y0238765D01*
X0273731Y0237914D02*
X0273731Y0240466D01*
X0272456Y0240466D01*
X0272030Y0240041D01*
X0272030Y0239190D01*
X0272456Y0238765D01*
X0270831Y0239190D02*
X0269130Y0239190D01*
X0269555Y0237914D02*
X0269555Y0240466D01*
X0270831Y0239190D01*
X0267931Y0238339D02*
X0267931Y0237914D01*
X0267931Y0238339D02*
X0266230Y0240041D01*
X0266230Y0240466D01*
X0267931Y0240466D01*
X0267931Y0242245D02*
X0266230Y0242245D01*
X0267081Y0242245D02*
X0267081Y0244797D01*
X0267931Y0243946D01*
X0269130Y0243521D02*
X0270831Y0243521D01*
X0269555Y0244797D01*
X0269555Y0242245D01*
X0272030Y0242245D02*
X0272881Y0243095D01*
X0272456Y0243095D02*
X0273731Y0243095D01*
X0273731Y0242245D02*
X0273731Y0244797D01*
X0272456Y0244797D01*
X0272030Y0244371D01*
X0272030Y0243521D01*
X0272456Y0243095D01*
X0269555Y0227474D02*
X0270831Y0226198D01*
X0269555Y0224922D02*
X0269555Y0227474D01*
X0263621Y0255135D02*
X0262771Y0255135D01*
X0262345Y0255560D01*
X0261146Y0255560D02*
X0260721Y0255135D01*
X0259870Y0255135D01*
X0259445Y0255560D01*
X0259445Y0255985D01*
X0259870Y0256411D01*
X0260296Y0256411D01*
X0259870Y0256411D02*
X0259445Y0256836D01*
X0259445Y0257261D01*
X0259870Y0257686D01*
X0260721Y0257686D01*
X0261146Y0257261D01*
X0262345Y0257261D02*
X0262771Y0257686D01*
X0263621Y0257686D01*
X0264046Y0257261D01*
X0264046Y0255560D01*
X0263621Y0255135D01*
X0258246Y0256411D02*
X0256970Y0257686D01*
X0256970Y0255135D01*
X0256545Y0256411D02*
X0258246Y0256411D01*
X0248686Y0262289D02*
X0248261Y0261863D01*
X0246560Y0261863D01*
X0246135Y0262289D01*
X0246135Y0263139D01*
X0246560Y0263565D01*
X0247411Y0264764D02*
X0247411Y0266465D01*
X0247411Y0267664D02*
X0247411Y0268940D01*
X0246985Y0269365D01*
X0246560Y0269365D01*
X0246135Y0268940D01*
X0246135Y0268089D01*
X0246560Y0267664D01*
X0247411Y0267664D01*
X0248261Y0268514D01*
X0248686Y0269365D01*
X0248686Y0266039D02*
X0247411Y0264764D01*
X0248261Y0263565D02*
X0248686Y0263139D01*
X0248686Y0262289D01*
X0248686Y0266039D02*
X0246135Y0266039D01*
X0237417Y0265567D02*
X0222457Y0265567D01*
X0220646Y0265297D02*
X0220646Y0263595D01*
X0220221Y0263170D01*
X0219370Y0263170D01*
X0218945Y0263595D01*
X0218945Y0265297D01*
X0219370Y0265722D01*
X0220221Y0265722D01*
X0220646Y0265297D01*
X0221189Y0262646D02*
X0232071Y0262646D01*
X0232071Y0258646D01*
X0221189Y0258646D01*
X0221189Y0262646D01*
X0217746Y0263170D02*
X0217746Y0265722D01*
X0216045Y0263170D01*
X0216045Y0265722D01*
X0208318Y0263072D02*
X0208318Y0261371D01*
X0207892Y0260946D01*
X0207042Y0260946D01*
X0206616Y0261371D01*
X0205418Y0261371D02*
X0205418Y0260946D01*
X0205418Y0261371D02*
X0203716Y0263072D01*
X0203716Y0263497D01*
X0205418Y0263497D01*
X0206616Y0263072D02*
X0207042Y0263497D01*
X0207892Y0263497D01*
X0208318Y0263072D01*
X0215370Y0255724D02*
X0237417Y0255724D01*
X0228216Y0253493D02*
X0228216Y0253068D01*
X0227790Y0252643D01*
X0226940Y0252643D01*
X0226515Y0252218D01*
X0226515Y0251792D01*
X0226940Y0251367D01*
X0227790Y0251367D01*
X0228216Y0251792D01*
X0228216Y0253493D02*
X0227790Y0253919D01*
X0226940Y0253919D01*
X0226515Y0253493D01*
X0225316Y0253068D02*
X0224465Y0253919D01*
X0224465Y0251367D01*
X0225316Y0251367D02*
X0223614Y0251367D01*
X0215253Y0279331D02*
X0213552Y0279331D01*
X0213127Y0279757D01*
X0213127Y0280607D01*
X0213552Y0281033D01*
X0213552Y0282232D02*
X0213127Y0282232D01*
X0213552Y0282232D02*
X0215253Y0283933D01*
X0215679Y0283933D01*
X0215679Y0282232D01*
X0215253Y0281033D02*
X0215679Y0280607D01*
X0215679Y0279757D01*
X0215253Y0279331D01*
X0215253Y0285132D02*
X0215679Y0285557D01*
X0215679Y0286408D01*
X0215253Y0286833D01*
X0213552Y0285132D01*
X0213127Y0285557D01*
X0213127Y0286408D01*
X0213552Y0286833D01*
X0215253Y0286833D01*
X0215253Y0285132D02*
X0213552Y0285132D01*
X0207719Y0291593D02*
X0207719Y0292868D01*
X0207293Y0293294D01*
X0206443Y0293294D01*
X0206017Y0292868D01*
X0206017Y0291593D01*
X0205167Y0291593D02*
X0207719Y0291593D01*
X0206017Y0292443D02*
X0205167Y0293294D01*
X0205592Y0294493D02*
X0205167Y0294918D01*
X0205167Y0295769D01*
X0205592Y0296194D01*
X0206443Y0296194D01*
X0206868Y0295769D01*
X0206868Y0295343D01*
X0206443Y0294493D01*
X0207719Y0294493D01*
X0207719Y0296194D01*
X0207293Y0297393D02*
X0206868Y0297393D01*
X0206443Y0297818D01*
X0206443Y0298669D01*
X0206017Y0299094D01*
X0205592Y0299094D01*
X0205167Y0298669D01*
X0205167Y0297818D01*
X0205592Y0297393D01*
X0206017Y0297393D01*
X0206443Y0297818D01*
X0206443Y0298669D02*
X0206868Y0299094D01*
X0207293Y0299094D01*
X0207719Y0298669D01*
X0207719Y0297818D01*
X0207293Y0297393D01*
X0202234Y0297779D02*
X0202234Y0299480D01*
X0201809Y0299480D01*
X0200108Y0297779D01*
X0199683Y0297779D01*
X0200108Y0296580D02*
X0199683Y0296154D01*
X0199683Y0295304D01*
X0200108Y0294879D01*
X0200959Y0294879D02*
X0201384Y0295729D01*
X0201384Y0296154D01*
X0200959Y0296580D01*
X0200108Y0296580D01*
X0200959Y0294879D02*
X0202234Y0294879D01*
X0202234Y0296580D01*
X0201809Y0293680D02*
X0200959Y0293680D01*
X0200533Y0293254D01*
X0200533Y0291978D01*
X0199683Y0291978D02*
X0202234Y0291978D01*
X0202234Y0293254D01*
X0201809Y0293680D01*
X0200533Y0292829D02*
X0199683Y0293680D01*
X0197951Y0278261D02*
X0198377Y0277836D01*
X0198377Y0276135D01*
X0197951Y0275709D01*
X0197101Y0275709D01*
X0196676Y0276135D01*
X0195477Y0276135D02*
X0195477Y0276560D01*
X0195051Y0276985D01*
X0194201Y0276985D01*
X0193775Y0276560D01*
X0193775Y0276135D01*
X0194201Y0275709D01*
X0195051Y0275709D01*
X0195477Y0276135D01*
X0195051Y0276985D02*
X0195477Y0277411D01*
X0195477Y0277836D01*
X0195051Y0278261D01*
X0194201Y0278261D01*
X0193775Y0277836D01*
X0193775Y0277411D01*
X0194201Y0276985D01*
X0192577Y0277411D02*
X0192151Y0276985D01*
X0190875Y0276985D01*
X0190875Y0276135D02*
X0190875Y0277836D01*
X0191301Y0278261D01*
X0192151Y0278261D01*
X0192577Y0277836D01*
X0192577Y0277411D01*
X0192577Y0276135D02*
X0192151Y0275709D01*
X0191301Y0275709D01*
X0190875Y0276135D01*
X0188655Y0279769D02*
X0189080Y0280194D01*
X0189080Y0281044D01*
X0188655Y0281470D01*
X0188655Y0282669D02*
X0189080Y0283094D01*
X0189080Y0283945D01*
X0188655Y0284370D01*
X0188230Y0284370D01*
X0186528Y0282669D01*
X0186528Y0284370D01*
X0186528Y0285569D02*
X0188230Y0287270D01*
X0188655Y0287270D01*
X0189080Y0286845D01*
X0189080Y0285994D01*
X0188655Y0285569D01*
X0186528Y0285569D02*
X0186528Y0287270D01*
X0186954Y0281470D02*
X0186528Y0281044D01*
X0186528Y0280194D01*
X0186954Y0279769D01*
X0188655Y0279769D01*
X0196676Y0277836D02*
X0197101Y0278261D01*
X0197951Y0278261D01*
X0201242Y0263497D02*
X0202517Y0262222D01*
X0200816Y0262222D01*
X0201242Y0263497D02*
X0201242Y0260946D01*
X0191562Y0245269D02*
X0191863Y0244367D01*
X0191863Y0243164D01*
X0190960Y0244066D01*
X0190359Y0244066D01*
X0190058Y0243765D01*
X0190058Y0243164D01*
X0190660Y0242562D01*
X0191261Y0242562D01*
X0191863Y0243164D01*
X0192710Y0242316D02*
X0193613Y0241414D01*
X0194214Y0241414D01*
X0194515Y0241714D01*
X0194515Y0242316D01*
X0193913Y0242917D01*
X0193312Y0242917D01*
X0192109Y0241714D01*
X0192109Y0241113D01*
X0192710Y0240511D01*
X0193312Y0240511D01*
X0194160Y0239664D02*
X0194160Y0239062D01*
X0194761Y0238461D01*
X0195362Y0238461D01*
X0196565Y0239664D01*
X0196565Y0240265D01*
X0195964Y0240867D01*
X0195362Y0240867D01*
X0190392Y0220112D02*
X0189117Y0220112D01*
X0188691Y0219686D01*
X0188691Y0218836D01*
X0189117Y0218410D01*
X0190392Y0218410D01*
X0189542Y0218410D02*
X0188691Y0217560D01*
X0190392Y0217560D02*
X0190392Y0220112D01*
X0187492Y0218836D02*
X0185791Y0218836D01*
X0184592Y0219261D02*
X0184592Y0219686D01*
X0184167Y0220112D01*
X0183316Y0220112D01*
X0182891Y0219686D01*
X0182891Y0219261D01*
X0183316Y0218836D01*
X0184167Y0218836D01*
X0184592Y0219261D01*
X0184167Y0218836D02*
X0184592Y0218410D01*
X0184592Y0217985D01*
X0184167Y0217560D01*
X0183316Y0217560D01*
X0182891Y0217985D01*
X0182891Y0218410D01*
X0183316Y0218836D01*
X0186216Y0220112D02*
X0187492Y0218836D01*
X0186216Y0217560D02*
X0186216Y0220112D01*
X0172420Y0167387D02*
X0171144Y0167387D01*
X0170719Y0166962D01*
X0170719Y0166111D01*
X0171144Y0165686D01*
X0172420Y0165686D01*
X0171569Y0165686D02*
X0170719Y0164835D01*
X0169520Y0165261D02*
X0169095Y0164835D01*
X0168244Y0164835D01*
X0167819Y0165261D01*
X0167819Y0166111D01*
X0168244Y0166537D01*
X0168669Y0166537D01*
X0169520Y0166111D01*
X0169520Y0167387D01*
X0167819Y0167387D01*
X0166620Y0166962D02*
X0166620Y0166537D01*
X0166195Y0166111D01*
X0164919Y0166111D01*
X0164919Y0165261D02*
X0164919Y0166962D01*
X0165344Y0167387D01*
X0166195Y0167387D01*
X0166620Y0166962D01*
X0166620Y0165261D02*
X0166195Y0164835D01*
X0165344Y0164835D01*
X0164919Y0165261D01*
X0160965Y0168232D02*
X0154815Y0168232D01*
X0154843Y0167460D02*
X0154843Y0164909D01*
X0155694Y0164909D02*
X0153992Y0164909D01*
X0152793Y0166185D02*
X0151092Y0166185D01*
X0151518Y0167460D02*
X0152793Y0166185D01*
X0151518Y0164909D02*
X0151518Y0167460D01*
X0154843Y0167460D02*
X0155694Y0166610D01*
X0156893Y0167460D02*
X0156893Y0165334D01*
X0157318Y0164909D01*
X0158168Y0164909D01*
X0158594Y0165334D01*
X0158594Y0167460D01*
X0158890Y0168335D02*
X0158888Y0168397D01*
X0158882Y0168458D01*
X0158873Y0168519D01*
X0158860Y0168579D01*
X0158843Y0168638D01*
X0158822Y0168696D01*
X0158798Y0168753D01*
X0158771Y0168808D01*
X0158740Y0168861D01*
X0158706Y0168913D01*
X0158669Y0168962D01*
X0158629Y0169009D01*
X0158586Y0169053D01*
X0158541Y0169094D01*
X0158493Y0169133D01*
X0158442Y0169169D01*
X0158390Y0169201D01*
X0158336Y0169230D01*
X0158280Y0169256D01*
X0158222Y0169278D01*
X0158164Y0169297D01*
X0158104Y0169312D01*
X0158043Y0169323D01*
X0157982Y0169331D01*
X0157921Y0169335D01*
X0157859Y0169335D01*
X0157798Y0169331D01*
X0157737Y0169323D01*
X0157676Y0169312D01*
X0157616Y0169297D01*
X0157558Y0169278D01*
X0157500Y0169256D01*
X0157444Y0169230D01*
X0157390Y0169201D01*
X0157338Y0169169D01*
X0157287Y0169133D01*
X0157239Y0169094D01*
X0157194Y0169053D01*
X0157151Y0169009D01*
X0157111Y0168962D01*
X0157074Y0168913D01*
X0157040Y0168861D01*
X0157009Y0168808D01*
X0156982Y0168753D01*
X0156958Y0168696D01*
X0156937Y0168638D01*
X0156920Y0168579D01*
X0156907Y0168519D01*
X0156898Y0168458D01*
X0156892Y0168397D01*
X0156890Y0168335D01*
X0155867Y0158888D02*
X0155442Y0158888D01*
X0153741Y0157187D01*
X0153741Y0158888D01*
X0155867Y0158888D02*
X0156293Y0158463D01*
X0156293Y0157612D01*
X0155867Y0157187D01*
X0156293Y0155988D02*
X0155867Y0155137D01*
X0155017Y0154287D01*
X0155017Y0155563D01*
X0154592Y0155988D01*
X0154166Y0155988D01*
X0153741Y0155563D01*
X0153741Y0154712D01*
X0154166Y0154287D01*
X0155017Y0154287D01*
X0155867Y0153088D02*
X0156293Y0152663D01*
X0156293Y0151812D01*
X0155867Y0151387D01*
X0154166Y0151387D01*
X0153741Y0151812D01*
X0153741Y0152663D01*
X0154166Y0153088D01*
X0154815Y0179433D02*
X0160965Y0179433D01*
X0162851Y0180946D02*
X0162426Y0181371D01*
X0162426Y0182222D01*
X0162851Y0182647D01*
X0162851Y0183846D02*
X0163277Y0183846D01*
X0163702Y0184272D01*
X0163702Y0185122D01*
X0163277Y0185547D01*
X0162851Y0185547D01*
X0162426Y0185122D01*
X0162426Y0184272D01*
X0162851Y0183846D01*
X0163702Y0184272D02*
X0164127Y0183846D01*
X0164552Y0183846D01*
X0164978Y0184272D01*
X0164978Y0185122D01*
X0164552Y0185547D01*
X0164127Y0185547D01*
X0163702Y0185122D01*
X0164127Y0186746D02*
X0164978Y0187597D01*
X0162426Y0187597D01*
X0162426Y0186746D02*
X0162426Y0188448D01*
X0164552Y0182647D02*
X0164978Y0182222D01*
X0164978Y0181371D01*
X0164552Y0180946D01*
X0162851Y0180946D01*
X0172420Y0167387D02*
X0172420Y0164835D01*
X0170041Y0150364D02*
X0170041Y0148663D01*
X0168765Y0148663D01*
X0169190Y0149514D01*
X0169190Y0149939D01*
X0168765Y0150364D01*
X0167914Y0150364D01*
X0167489Y0149939D01*
X0167489Y0149089D01*
X0167914Y0148663D01*
X0167914Y0147464D02*
X0167489Y0147039D01*
X0167489Y0146188D01*
X0167914Y0145763D01*
X0168340Y0145763D01*
X0168765Y0146188D01*
X0168765Y0147039D01*
X0168340Y0147464D01*
X0167914Y0147464D01*
X0168765Y0147039D02*
X0169190Y0147464D01*
X0169615Y0147464D01*
X0170041Y0147039D01*
X0170041Y0146188D01*
X0169615Y0145763D01*
X0169190Y0145763D01*
X0168765Y0146188D01*
X0169615Y0144564D02*
X0170041Y0144139D01*
X0170041Y0143288D01*
X0169615Y0142863D01*
X0167914Y0142863D01*
X0167489Y0143288D01*
X0167489Y0144139D01*
X0167914Y0144564D01*
X0176576Y0135010D02*
X0176150Y0134585D01*
X0176150Y0133734D01*
X0176576Y0133309D01*
X0177426Y0133309D02*
X0177852Y0134159D01*
X0177852Y0134585D01*
X0177426Y0135010D01*
X0176576Y0135010D01*
X0177426Y0133309D02*
X0178702Y0133309D01*
X0178702Y0135010D01*
X0178277Y0132110D02*
X0178702Y0131685D01*
X0178702Y0130834D01*
X0178277Y0130409D01*
X0178277Y0129210D02*
X0177426Y0129210D01*
X0177001Y0128785D01*
X0177001Y0127509D01*
X0177001Y0128359D02*
X0176150Y0129210D01*
X0176150Y0130409D02*
X0177852Y0132110D01*
X0178277Y0132110D01*
X0176150Y0132110D02*
X0176150Y0130409D01*
X0178277Y0129210D02*
X0178702Y0128785D01*
X0178702Y0127509D01*
X0176150Y0127509D01*
X0176182Y0124774D02*
X0176607Y0124774D01*
X0177033Y0124349D01*
X0177033Y0123073D01*
X0176182Y0123073D01*
X0175757Y0123498D01*
X0175757Y0124349D01*
X0176182Y0124774D01*
X0177883Y0123923D02*
X0177033Y0123073D01*
X0177883Y0123923D02*
X0178308Y0124774D01*
X0177883Y0121874D02*
X0178308Y0121448D01*
X0178308Y0120598D01*
X0177883Y0120173D01*
X0177883Y0118974D02*
X0177033Y0118974D01*
X0176607Y0118548D01*
X0176607Y0117272D01*
X0175757Y0117272D02*
X0178308Y0117272D01*
X0178308Y0118548D01*
X0177883Y0118974D01*
X0176607Y0118123D02*
X0175757Y0118974D01*
X0175757Y0120173D02*
X0177458Y0121874D01*
X0177883Y0121874D01*
X0175757Y0121874D02*
X0175757Y0120173D01*
X0180938Y0150599D02*
X0180513Y0151025D01*
X0180513Y0151875D01*
X0180938Y0152300D01*
X0180938Y0153499D02*
X0180513Y0153925D01*
X0180513Y0154775D01*
X0180938Y0155201D01*
X0182639Y0155201D01*
X0183064Y0154775D01*
X0183064Y0153925D01*
X0182639Y0153499D01*
X0182214Y0153499D01*
X0181788Y0153925D01*
X0181788Y0155201D01*
X0181788Y0156399D02*
X0182214Y0157250D01*
X0182214Y0157675D01*
X0181788Y0158101D01*
X0180938Y0158101D01*
X0180513Y0157675D01*
X0180513Y0156825D01*
X0180938Y0156399D01*
X0181788Y0156399D02*
X0183064Y0156399D01*
X0183064Y0158101D01*
X0182639Y0152300D02*
X0183064Y0151875D01*
X0183064Y0151025D01*
X0182639Y0150599D01*
X0180938Y0150599D01*
X0155474Y0210048D02*
X0155899Y0210473D01*
X0155899Y0211324D01*
X0155474Y0211749D01*
X0155899Y0212948D02*
X0155899Y0214649D01*
X0155474Y0214649D01*
X0153773Y0212948D01*
X0153347Y0212948D01*
X0153773Y0211749D02*
X0153347Y0211324D01*
X0153347Y0210473D01*
X0153773Y0210048D01*
X0155474Y0210048D01*
X0155899Y0215848D02*
X0155899Y0217549D01*
X0155474Y0217549D01*
X0153773Y0215848D01*
X0153347Y0215848D01*
X0145098Y0241119D02*
X0146301Y0242322D01*
X0146301Y0243525D01*
X0145098Y0243525D01*
X0143895Y0242322D01*
X0179923Y0303174D02*
X0179497Y0303599D01*
X0179497Y0304025D01*
X0179923Y0304450D01*
X0181199Y0304450D01*
X0181199Y0303599D01*
X0180773Y0303174D01*
X0179923Y0303174D01*
X0181199Y0304450D02*
X0180348Y0305301D01*
X0179497Y0305726D01*
X0182397Y0305301D02*
X0182397Y0304875D01*
X0182823Y0304450D01*
X0182397Y0304025D01*
X0182397Y0303599D01*
X0182823Y0303174D01*
X0183673Y0303174D01*
X0184099Y0303599D01*
X0185298Y0303599D02*
X0185723Y0303174D01*
X0186573Y0303174D01*
X0186999Y0303599D01*
X0186999Y0305301D01*
X0186573Y0305726D01*
X0185723Y0305726D01*
X0185298Y0305301D01*
X0184099Y0305301D02*
X0183673Y0305726D01*
X0182823Y0305726D01*
X0182397Y0305301D01*
X0182823Y0304450D02*
X0183248Y0304450D01*
X0195965Y0316935D02*
X0197666Y0316935D01*
X0195965Y0318637D01*
X0195965Y0319062D01*
X0196390Y0319487D01*
X0197241Y0319487D01*
X0197666Y0319062D01*
X0198865Y0319062D02*
X0199290Y0319487D01*
X0200141Y0319487D01*
X0200566Y0319062D01*
X0200566Y0318637D01*
X0200141Y0318211D01*
X0198865Y0318211D01*
X0198865Y0317361D02*
X0198865Y0319062D01*
X0198865Y0317361D02*
X0199290Y0316935D01*
X0200141Y0316935D01*
X0200566Y0317361D01*
X0201765Y0317361D02*
X0202190Y0316935D01*
X0203041Y0316935D01*
X0203466Y0317361D01*
X0203466Y0319062D01*
X0203041Y0319487D01*
X0202190Y0319487D01*
X0201765Y0319062D01*
X0202714Y0333091D02*
X0202714Y0333517D01*
X0201013Y0335218D01*
X0201013Y0335643D01*
X0202714Y0335643D01*
X0203913Y0335218D02*
X0203913Y0334793D01*
X0204339Y0334367D01*
X0205189Y0334367D01*
X0205614Y0334793D01*
X0205614Y0335218D01*
X0205189Y0335643D01*
X0204339Y0335643D01*
X0203913Y0335218D01*
X0204339Y0334367D02*
X0203913Y0333942D01*
X0203913Y0333517D01*
X0204339Y0333091D01*
X0205189Y0333091D01*
X0205614Y0333517D01*
X0205614Y0333942D01*
X0205189Y0334367D01*
X0206813Y0333517D02*
X0207239Y0333091D01*
X0208089Y0333091D01*
X0208515Y0333517D01*
X0208515Y0335218D01*
X0208089Y0335643D01*
X0207239Y0335643D01*
X0206813Y0335218D01*
X0207168Y0337670D02*
X0206742Y0338095D01*
X0207168Y0337670D02*
X0208018Y0337670D01*
X0208444Y0338095D01*
X0208444Y0339797D01*
X0208018Y0340222D01*
X0207168Y0340222D01*
X0206742Y0339797D01*
X0205544Y0338946D02*
X0203842Y0338946D01*
X0204268Y0340222D02*
X0205544Y0338946D01*
X0204268Y0337670D02*
X0204268Y0340222D01*
X0202643Y0339797D02*
X0202218Y0340222D01*
X0201368Y0340222D01*
X0200942Y0339797D01*
X0200942Y0339371D01*
X0201368Y0338946D01*
X0200942Y0338521D01*
X0200942Y0338095D01*
X0201368Y0337670D01*
X0202218Y0337670D01*
X0202643Y0338095D01*
X0201793Y0338946D02*
X0201368Y0338946D01*
X0202651Y0345639D02*
X0203502Y0345639D01*
X0203927Y0346064D01*
X0203077Y0346914D02*
X0202651Y0346914D01*
X0202226Y0346489D01*
X0202226Y0346064D01*
X0202651Y0345639D01*
X0202651Y0346914D02*
X0202226Y0347340D01*
X0202226Y0347765D01*
X0202651Y0348190D01*
X0203502Y0348190D01*
X0203927Y0347765D01*
X0205126Y0346914D02*
X0206827Y0346914D01*
X0205552Y0348190D01*
X0205552Y0345639D01*
X0208026Y0345639D02*
X0208877Y0346489D01*
X0208452Y0346489D02*
X0209728Y0346489D01*
X0209728Y0345639D02*
X0209728Y0348190D01*
X0208452Y0348190D01*
X0208026Y0347765D01*
X0208026Y0346914D01*
X0208452Y0346489D01*
X0211768Y0360559D02*
X0211343Y0360984D01*
X0211343Y0361410D01*
X0211768Y0361835D01*
X0213044Y0361835D01*
X0213044Y0360984D01*
X0212618Y0360559D01*
X0211768Y0360559D01*
X0213044Y0361835D02*
X0212193Y0362686D01*
X0211343Y0363111D01*
X0214243Y0363111D02*
X0215093Y0362686D01*
X0215944Y0361835D01*
X0214668Y0361835D01*
X0214243Y0361410D01*
X0214243Y0360984D01*
X0214668Y0360559D01*
X0215519Y0360559D01*
X0215944Y0360984D01*
X0215944Y0361835D01*
X0217143Y0362686D02*
X0217568Y0363111D01*
X0218419Y0363111D01*
X0218844Y0362686D01*
X0218844Y0360984D01*
X0218419Y0360559D01*
X0217568Y0360559D01*
X0217143Y0360984D01*
X0216574Y0375804D02*
X0215723Y0375804D01*
X0215298Y0376229D01*
X0214099Y0376229D02*
X0214099Y0375804D01*
X0214099Y0376229D02*
X0212398Y0377930D01*
X0212398Y0378356D01*
X0214099Y0378356D01*
X0215298Y0377930D02*
X0215723Y0378356D01*
X0216574Y0378356D01*
X0216999Y0377930D01*
X0216999Y0376229D01*
X0216574Y0375804D01*
X0211199Y0376229D02*
X0210774Y0375804D01*
X0209923Y0375804D01*
X0209498Y0376229D01*
X0209498Y0376655D01*
X0209923Y0377080D01*
X0210348Y0377080D01*
X0209923Y0377080D02*
X0209498Y0377505D01*
X0209498Y0377930D01*
X0209923Y0378356D01*
X0210774Y0378356D01*
X0211199Y0377930D01*
X0212482Y0327371D02*
X0212057Y0326946D01*
X0213758Y0325245D01*
X0213333Y0324820D01*
X0212482Y0324820D01*
X0212057Y0325245D01*
X0212057Y0326946D01*
X0212482Y0327371D02*
X0213333Y0327371D01*
X0213758Y0326946D01*
X0213758Y0325245D01*
X0214957Y0324820D02*
X0216658Y0324820D01*
X0215808Y0324820D02*
X0215808Y0327371D01*
X0216658Y0326521D01*
X0217857Y0326946D02*
X0218282Y0327371D01*
X0219133Y0327371D01*
X0219558Y0326946D01*
X0219558Y0325245D01*
X0219133Y0324820D01*
X0218282Y0324820D01*
X0217857Y0325245D01*
X0225679Y0315663D02*
X0225679Y0315238D01*
X0227380Y0313536D01*
X0227380Y0313111D01*
X0226955Y0312120D02*
X0226104Y0312120D01*
X0225679Y0311694D01*
X0225679Y0311269D01*
X0226104Y0310844D01*
X0226955Y0310844D01*
X0227380Y0311269D01*
X0227380Y0311694D01*
X0226955Y0312120D01*
X0226955Y0310844D02*
X0227380Y0310418D01*
X0227380Y0309993D01*
X0226955Y0309568D01*
X0226104Y0309568D01*
X0225679Y0309993D01*
X0225679Y0310418D01*
X0226104Y0310844D01*
X0226104Y0308576D02*
X0227380Y0307300D01*
X0225679Y0307300D01*
X0226104Y0306024D02*
X0226104Y0308576D01*
X0228579Y0308151D02*
X0229004Y0308576D01*
X0229855Y0308576D01*
X0230280Y0308151D01*
X0231479Y0308151D02*
X0231904Y0308576D01*
X0232755Y0308576D01*
X0233180Y0308151D01*
X0233180Y0306450D01*
X0232755Y0306024D01*
X0231904Y0306024D01*
X0231479Y0306450D01*
X0230280Y0306024D02*
X0228579Y0307726D01*
X0228579Y0308151D01*
X0229004Y0309568D02*
X0229004Y0312120D01*
X0230280Y0310844D01*
X0228579Y0310844D01*
X0229004Y0313111D02*
X0229855Y0313111D01*
X0230280Y0313536D01*
X0230280Y0314387D02*
X0229430Y0314812D01*
X0229004Y0314812D01*
X0228579Y0314387D01*
X0228579Y0313536D01*
X0229004Y0313111D01*
X0230280Y0314387D02*
X0230280Y0315663D01*
X0228579Y0315663D01*
X0227380Y0315663D02*
X0225679Y0315663D01*
X0228579Y0306024D02*
X0230280Y0306024D01*
X0229430Y0305033D02*
X0229430Y0302481D01*
X0230280Y0302481D02*
X0228579Y0302481D01*
X0228579Y0301490D02*
X0229430Y0301064D01*
X0230280Y0300214D01*
X0229004Y0300214D01*
X0228579Y0299788D01*
X0228579Y0299363D01*
X0229004Y0298938D01*
X0229855Y0298938D01*
X0230280Y0299363D01*
X0230280Y0300214D01*
X0231479Y0301064D02*
X0231904Y0301490D01*
X0232755Y0301490D01*
X0233180Y0301064D01*
X0233180Y0299363D01*
X0232755Y0298938D01*
X0231904Y0298938D01*
X0231479Y0299363D01*
X0231877Y0297797D02*
X0232727Y0297797D01*
X0233153Y0297371D01*
X0233153Y0295670D01*
X0232727Y0295245D01*
X0231877Y0295245D01*
X0231452Y0295670D01*
X0230253Y0295670D02*
X0229827Y0295245D01*
X0228977Y0295245D01*
X0228551Y0295670D01*
X0228551Y0296521D01*
X0228977Y0296946D01*
X0229402Y0296946D01*
X0230253Y0296521D01*
X0230253Y0297797D01*
X0228551Y0297797D01*
X0227353Y0297371D02*
X0226927Y0297797D01*
X0226077Y0297797D01*
X0225651Y0297371D01*
X0227353Y0295670D01*
X0226927Y0295245D01*
X0226077Y0295245D01*
X0225651Y0295670D01*
X0225651Y0297371D01*
X0226104Y0298938D02*
X0226955Y0298938D01*
X0227380Y0299363D01*
X0226530Y0300214D02*
X0226104Y0300214D01*
X0225679Y0299788D01*
X0225679Y0299363D01*
X0226104Y0298938D01*
X0226104Y0300214D02*
X0225679Y0300639D01*
X0225679Y0301064D01*
X0226104Y0301490D01*
X0226955Y0301490D01*
X0227380Y0301064D01*
X0227380Y0302481D02*
X0225679Y0302481D01*
X0226530Y0302481D02*
X0226530Y0305033D01*
X0227380Y0304182D01*
X0229430Y0305033D02*
X0230280Y0304182D01*
X0231479Y0304608D02*
X0231904Y0305033D01*
X0232755Y0305033D01*
X0233180Y0304608D01*
X0233180Y0302906D01*
X0232755Y0302481D01*
X0231904Y0302481D01*
X0231479Y0302906D01*
X0231877Y0297797D02*
X0231452Y0297371D01*
X0231877Y0294057D02*
X0232727Y0294057D01*
X0233153Y0293631D01*
X0233153Y0291930D01*
X0232727Y0291505D01*
X0231877Y0291505D01*
X0231452Y0291930D01*
X0230253Y0291930D02*
X0229827Y0291505D01*
X0228977Y0291505D01*
X0228551Y0291930D01*
X0228551Y0292781D01*
X0228977Y0293206D01*
X0229402Y0293206D01*
X0230253Y0292781D01*
X0230253Y0294057D01*
X0228551Y0294057D01*
X0227353Y0293631D02*
X0226927Y0294057D01*
X0226077Y0294057D01*
X0225651Y0293631D01*
X0225651Y0293206D01*
X0226077Y0292781D01*
X0225651Y0292355D01*
X0225651Y0291930D01*
X0226077Y0291505D01*
X0226927Y0291505D01*
X0227353Y0291930D01*
X0226502Y0292781D02*
X0226077Y0292781D01*
X0227353Y0295670D02*
X0227353Y0297371D01*
X0231452Y0293631D02*
X0231877Y0294057D01*
X0229032Y0288627D02*
X0229032Y0286076D01*
X0227331Y0286076D01*
X0226132Y0286501D02*
X0225706Y0286076D01*
X0224856Y0286076D01*
X0224430Y0286501D01*
X0224430Y0288202D01*
X0224856Y0288627D01*
X0225706Y0288627D01*
X0226132Y0288202D01*
X0226132Y0287777D01*
X0225706Y0287351D01*
X0224430Y0287351D01*
X0231904Y0309568D02*
X0231479Y0309993D01*
X0231904Y0309568D02*
X0232755Y0309568D01*
X0233180Y0309993D01*
X0233180Y0311694D01*
X0232755Y0312120D01*
X0231904Y0312120D01*
X0231479Y0311694D01*
X0231904Y0313111D02*
X0231479Y0313536D01*
X0231904Y0313111D02*
X0232755Y0313111D01*
X0233180Y0313536D01*
X0233180Y0315238D01*
X0232755Y0315663D01*
X0231904Y0315663D01*
X0231479Y0315238D01*
X0240218Y0309970D02*
X0241919Y0308269D01*
X0241494Y0307843D01*
X0240644Y0307843D01*
X0240218Y0308269D01*
X0240218Y0309970D01*
X0240644Y0310395D01*
X0241494Y0310395D01*
X0241919Y0309970D01*
X0241919Y0308269D01*
X0243118Y0307843D02*
X0244820Y0307843D01*
X0243118Y0309544D01*
X0243118Y0309970D01*
X0243544Y0310395D01*
X0244394Y0310395D01*
X0244820Y0309970D01*
X0246019Y0309970D02*
X0246444Y0310395D01*
X0247294Y0310395D01*
X0247720Y0309970D01*
X0247720Y0308269D01*
X0247294Y0307843D01*
X0246444Y0307843D01*
X0246019Y0308269D01*
X0253355Y0309253D02*
X0253780Y0308828D01*
X0254630Y0308828D01*
X0255056Y0309253D01*
X0256255Y0309253D02*
X0256680Y0308828D01*
X0257531Y0308828D01*
X0257956Y0309253D01*
X0257956Y0310954D01*
X0257531Y0311379D01*
X0256680Y0311379D01*
X0256255Y0310954D01*
X0255056Y0310954D02*
X0254630Y0311379D01*
X0253780Y0311379D01*
X0253355Y0310954D01*
X0253355Y0310529D01*
X0253780Y0310103D01*
X0253355Y0309678D01*
X0253355Y0309253D01*
X0253780Y0310103D02*
X0254205Y0310103D01*
X0254576Y0298014D02*
X0254150Y0297589D01*
X0254150Y0296738D01*
X0254576Y0296313D01*
X0255426Y0296313D02*
X0255852Y0297163D01*
X0255852Y0297589D01*
X0255426Y0298014D01*
X0254576Y0298014D01*
X0255426Y0296313D02*
X0256702Y0296313D01*
X0256702Y0298014D01*
X0256277Y0295114D02*
X0255852Y0295114D01*
X0255426Y0294689D01*
X0255001Y0295114D01*
X0254576Y0295114D01*
X0254150Y0294689D01*
X0254150Y0293838D01*
X0254576Y0293413D01*
X0254576Y0292214D02*
X0254150Y0291788D01*
X0254150Y0290938D01*
X0254576Y0290513D01*
X0256277Y0290513D01*
X0256702Y0290938D01*
X0256702Y0291788D01*
X0256277Y0292214D01*
X0256277Y0293413D02*
X0256702Y0293838D01*
X0256702Y0294689D01*
X0256277Y0295114D01*
X0255426Y0294689D02*
X0255426Y0294263D01*
X0256833Y0287041D02*
X0257684Y0287041D01*
X0258109Y0286615D01*
X0258109Y0284914D01*
X0257684Y0284489D01*
X0256833Y0284489D01*
X0256408Y0284914D01*
X0255209Y0285765D02*
X0253508Y0285765D01*
X0253933Y0287041D02*
X0255209Y0285765D01*
X0256408Y0286615D02*
X0256833Y0287041D01*
X0253933Y0287041D02*
X0253933Y0284489D01*
X0252309Y0284914D02*
X0250608Y0286615D01*
X0250608Y0284914D01*
X0251033Y0284489D01*
X0251883Y0284489D01*
X0252309Y0284914D01*
X0252309Y0286615D01*
X0251883Y0287041D01*
X0251033Y0287041D01*
X0250608Y0286615D01*
X0259812Y0286750D02*
X0259812Y0285900D01*
X0260237Y0285474D01*
X0261088Y0285474D02*
X0261513Y0286325D01*
X0261513Y0286750D01*
X0261088Y0287175D01*
X0260237Y0287175D01*
X0259812Y0286750D01*
X0261088Y0285474D02*
X0262364Y0285474D01*
X0262364Y0287175D01*
X0262364Y0284275D02*
X0262364Y0282574D01*
X0261088Y0282574D01*
X0261513Y0283425D01*
X0261513Y0283850D01*
X0261088Y0284275D01*
X0260237Y0284275D01*
X0259812Y0283850D01*
X0259812Y0282999D01*
X0260237Y0282574D01*
X0260237Y0281375D02*
X0259812Y0280950D01*
X0259812Y0280099D01*
X0260237Y0279674D01*
X0261938Y0279674D01*
X0262364Y0280099D01*
X0262364Y0280950D01*
X0261938Y0281375D01*
X0270068Y0303615D02*
X0270919Y0303615D01*
X0271344Y0304040D01*
X0269643Y0305741D01*
X0269643Y0304040D01*
X0270068Y0303615D01*
X0271344Y0304040D02*
X0271344Y0305741D01*
X0270919Y0306167D01*
X0270068Y0306167D01*
X0269643Y0305741D01*
X0272543Y0306167D02*
X0273394Y0305741D01*
X0274244Y0304891D01*
X0272968Y0304891D01*
X0272543Y0304466D01*
X0272543Y0304040D01*
X0272968Y0303615D01*
X0273819Y0303615D01*
X0274244Y0304040D01*
X0274244Y0304891D01*
X0275443Y0305741D02*
X0275869Y0306167D01*
X0276719Y0306167D01*
X0277144Y0305741D01*
X0277144Y0304040D01*
X0276719Y0303615D01*
X0275869Y0303615D01*
X0275443Y0304040D01*
X0277777Y0291009D02*
X0277777Y0288457D01*
X0276927Y0288457D02*
X0278628Y0288457D01*
X0280252Y0288457D02*
X0280252Y0291009D01*
X0281528Y0289733D01*
X0279827Y0289733D01*
X0278628Y0290159D02*
X0277777Y0291009D01*
X0282727Y0290584D02*
X0283152Y0291009D01*
X0284003Y0291009D01*
X0284428Y0290584D01*
X0284428Y0288883D01*
X0284003Y0288457D01*
X0283152Y0288457D01*
X0282727Y0288883D01*
X0283152Y0286088D02*
X0284003Y0286088D01*
X0284428Y0285663D01*
X0284428Y0283962D01*
X0284003Y0283536D01*
X0283152Y0283536D01*
X0282727Y0283962D01*
X0281528Y0283962D02*
X0281528Y0284387D01*
X0281102Y0284812D01*
X0280252Y0284812D01*
X0279827Y0284387D01*
X0279827Y0283962D01*
X0280252Y0283536D01*
X0281102Y0283536D01*
X0281528Y0283962D01*
X0281102Y0284812D02*
X0281528Y0285237D01*
X0281528Y0285663D01*
X0281102Y0286088D01*
X0280252Y0286088D01*
X0279827Y0285663D01*
X0279827Y0285237D01*
X0280252Y0284812D01*
X0278628Y0284812D02*
X0277352Y0284812D01*
X0276927Y0284387D01*
X0276927Y0283962D01*
X0277352Y0283536D01*
X0278202Y0283536D01*
X0278628Y0283962D01*
X0278628Y0284812D01*
X0277777Y0285663D01*
X0276927Y0286088D01*
X0282727Y0285663D02*
X0283152Y0286088D01*
X0285466Y0278560D02*
X0285466Y0276009D01*
X0286317Y0276009D02*
X0284615Y0276009D01*
X0286317Y0277710D02*
X0285466Y0278560D01*
X0287516Y0278135D02*
X0287941Y0278560D01*
X0288791Y0278560D01*
X0289217Y0278135D01*
X0289217Y0277710D01*
X0288791Y0277285D01*
X0287516Y0277285D01*
X0287516Y0278135D02*
X0287516Y0276434D01*
X0287941Y0276009D01*
X0288791Y0276009D01*
X0289217Y0276434D01*
X0290416Y0276434D02*
X0290841Y0276009D01*
X0291692Y0276009D01*
X0292117Y0276434D01*
X0292117Y0278135D01*
X0291692Y0278560D01*
X0290841Y0278560D01*
X0290416Y0278135D01*
X0287364Y0296406D02*
X0287364Y0297682D01*
X0286938Y0298107D01*
X0286088Y0298107D01*
X0285662Y0297682D01*
X0285662Y0296406D01*
X0284812Y0296406D02*
X0287364Y0296406D01*
X0285662Y0297257D02*
X0284812Y0298107D01*
X0286088Y0299306D02*
X0286088Y0301008D01*
X0287364Y0300582D02*
X0286088Y0299306D01*
X0284812Y0300582D02*
X0287364Y0300582D01*
X0286938Y0302207D02*
X0287364Y0302632D01*
X0287364Y0303482D01*
X0286938Y0303908D01*
X0285237Y0302207D01*
X0284812Y0302632D01*
X0284812Y0303482D01*
X0285237Y0303908D01*
X0286938Y0303908D01*
X0286938Y0302207D02*
X0285237Y0302207D01*
X0289616Y0315765D02*
X0291317Y0315765D01*
X0290467Y0315765D02*
X0290467Y0318316D01*
X0291317Y0317466D01*
X0292516Y0317891D02*
X0294217Y0316190D01*
X0294217Y0315765D01*
X0295416Y0316190D02*
X0295841Y0315765D01*
X0296692Y0315765D01*
X0297117Y0316190D01*
X0297117Y0317891D01*
X0296692Y0318316D01*
X0295841Y0318316D01*
X0295416Y0317891D01*
X0294217Y0318316D02*
X0292516Y0318316D01*
X0292516Y0317891D01*
X0297591Y0330644D02*
X0297166Y0331070D01*
X0297166Y0331920D01*
X0297591Y0332346D01*
X0297166Y0333545D02*
X0297166Y0335246D01*
X0297166Y0334395D02*
X0299718Y0334395D01*
X0298867Y0333545D01*
X0299293Y0332346D02*
X0299718Y0331920D01*
X0299718Y0331070D01*
X0299293Y0330644D01*
X0297591Y0330644D01*
X0302284Y0330676D02*
X0302284Y0331527D01*
X0302710Y0331952D01*
X0302284Y0333151D02*
X0302284Y0334852D01*
X0302284Y0334001D02*
X0304836Y0334001D01*
X0303985Y0333151D01*
X0304411Y0331952D02*
X0304836Y0331527D01*
X0304836Y0330676D01*
X0304411Y0330251D01*
X0302710Y0330251D01*
X0302284Y0330676D01*
X0302710Y0336051D02*
X0302284Y0336476D01*
X0302284Y0337327D01*
X0302710Y0337752D01*
X0303135Y0337752D01*
X0303560Y0337327D01*
X0303560Y0336902D01*
X0303560Y0337327D02*
X0303985Y0337752D01*
X0304411Y0337752D01*
X0304836Y0337327D01*
X0304836Y0336476D01*
X0304411Y0336051D01*
X0304411Y0338951D02*
X0303985Y0338951D01*
X0303560Y0339376D01*
X0303560Y0340227D01*
X0303135Y0340652D01*
X0302710Y0340652D01*
X0302284Y0340227D01*
X0302284Y0339376D01*
X0302710Y0338951D01*
X0303135Y0338951D01*
X0303560Y0339376D01*
X0303560Y0340227D02*
X0303985Y0340652D01*
X0304411Y0340652D01*
X0304836Y0340227D01*
X0304836Y0339376D01*
X0304411Y0338951D01*
X0299718Y0339345D02*
X0299718Y0341046D01*
X0299293Y0341046D01*
X0297591Y0339345D01*
X0297166Y0339345D01*
X0297591Y0338146D02*
X0297166Y0337721D01*
X0297166Y0336870D01*
X0297591Y0336445D01*
X0298442Y0337295D02*
X0298442Y0337721D01*
X0298017Y0338146D01*
X0297591Y0338146D01*
X0298442Y0337721D02*
X0298867Y0338146D01*
X0299293Y0338146D01*
X0299718Y0337721D01*
X0299718Y0336870D01*
X0299293Y0336445D01*
X0299459Y0360111D02*
X0300310Y0360962D01*
X0299884Y0360962D02*
X0301160Y0360962D01*
X0301160Y0360111D02*
X0301160Y0362663D01*
X0299884Y0362663D01*
X0299459Y0362238D01*
X0299459Y0361387D01*
X0299884Y0360962D01*
X0298260Y0361387D02*
X0296984Y0361387D01*
X0296559Y0360962D01*
X0296559Y0360536D01*
X0296984Y0360111D01*
X0297835Y0360111D01*
X0298260Y0360536D01*
X0298260Y0361387D01*
X0297409Y0362238D01*
X0296559Y0362663D01*
X0295360Y0362238D02*
X0295360Y0361812D01*
X0294935Y0361387D01*
X0293659Y0361387D01*
X0293659Y0362238D02*
X0294084Y0362663D01*
X0294935Y0362663D01*
X0295360Y0362238D01*
X0293659Y0362238D02*
X0293659Y0360536D01*
X0294084Y0360111D01*
X0294935Y0360111D01*
X0295360Y0360536D01*
X0295523Y0374772D02*
X0294672Y0374772D01*
X0294247Y0375198D01*
X0293048Y0374772D02*
X0291347Y0374772D01*
X0292197Y0374772D02*
X0292197Y0377324D01*
X0293048Y0376474D01*
X0294247Y0376899D02*
X0294672Y0377324D01*
X0295523Y0377324D01*
X0295948Y0376899D01*
X0295948Y0375198D01*
X0295523Y0374772D01*
X0290148Y0374772D02*
X0288447Y0374772D01*
X0289297Y0374772D02*
X0289297Y0377324D01*
X0290148Y0376474D01*
X0287248Y0376474D02*
X0286397Y0377324D01*
X0286397Y0374772D01*
X0285547Y0374772D02*
X0287248Y0374772D01*
X0281913Y0376410D02*
X0281487Y0375985D01*
X0280637Y0375985D01*
X0280211Y0376410D01*
X0279012Y0375985D02*
X0277311Y0375985D01*
X0278162Y0375985D02*
X0278162Y0378537D01*
X0279012Y0377686D01*
X0280211Y0378112D02*
X0280637Y0378537D01*
X0281487Y0378537D01*
X0281913Y0378112D01*
X0281913Y0376410D01*
X0276112Y0375985D02*
X0274411Y0375985D01*
X0275262Y0375985D02*
X0275262Y0378537D01*
X0276112Y0377686D01*
X0273212Y0378112D02*
X0272787Y0378537D01*
X0271936Y0378537D01*
X0271511Y0378112D01*
X0271511Y0377686D01*
X0271936Y0377261D01*
X0271511Y0376836D01*
X0271511Y0376410D01*
X0271936Y0375985D01*
X0272787Y0375985D01*
X0273212Y0376410D01*
X0272362Y0377261D02*
X0271936Y0377261D01*
X0255550Y0335639D02*
X0255976Y0335214D01*
X0255976Y0333513D01*
X0255550Y0333087D01*
X0254700Y0333087D01*
X0254274Y0333513D01*
X0253075Y0333087D02*
X0251374Y0333087D01*
X0252225Y0333087D02*
X0252225Y0335639D01*
X0253075Y0334789D01*
X0254274Y0335214D02*
X0254700Y0335639D01*
X0255550Y0335639D01*
X0263493Y0333223D02*
X0263493Y0331521D01*
X0263493Y0332372D02*
X0266045Y0332372D01*
X0265194Y0331521D01*
X0263493Y0330323D02*
X0263493Y0328621D01*
X0263493Y0329472D02*
X0266045Y0329472D01*
X0265194Y0328621D01*
X0263493Y0327422D02*
X0263493Y0325721D01*
X0266045Y0325721D01*
X0272757Y0325804D02*
X0272757Y0324954D01*
X0273182Y0324528D01*
X0274883Y0324528D01*
X0275308Y0324954D01*
X0275308Y0325804D01*
X0274883Y0326230D01*
X0274033Y0327428D02*
X0274033Y0328704D01*
X0273607Y0329130D01*
X0273182Y0329130D01*
X0272757Y0328704D01*
X0272757Y0327854D01*
X0273182Y0327428D01*
X0274033Y0327428D01*
X0274883Y0328279D01*
X0275308Y0329130D01*
X0274033Y0330329D02*
X0274033Y0332030D01*
X0275308Y0331604D02*
X0274033Y0330329D01*
X0272757Y0331604D02*
X0275308Y0331604D01*
X0273182Y0326230D02*
X0272757Y0325804D01*
X0247457Y0326115D02*
X0245756Y0326115D01*
X0244557Y0326540D02*
X0244132Y0326115D01*
X0243281Y0326115D01*
X0242856Y0326540D01*
X0242856Y0326966D01*
X0243281Y0327391D01*
X0243706Y0327391D01*
X0243281Y0327391D02*
X0242856Y0327816D01*
X0242856Y0328241D01*
X0243281Y0328667D01*
X0244132Y0328667D01*
X0244557Y0328241D01*
X0243769Y0330186D02*
X0241217Y0330186D01*
X0241217Y0331887D01*
X0241217Y0333086D02*
X0241217Y0334787D01*
X0241217Y0333937D02*
X0243769Y0333937D01*
X0242919Y0333086D01*
X0243344Y0335986D02*
X0243769Y0336411D01*
X0243769Y0337262D01*
X0243344Y0337687D01*
X0242919Y0337687D01*
X0242493Y0337262D01*
X0242068Y0337687D01*
X0241643Y0337687D01*
X0241217Y0337262D01*
X0241217Y0336411D01*
X0241643Y0335986D01*
X0242493Y0336837D02*
X0242493Y0337262D01*
X0237316Y0337056D02*
X0235190Y0337056D01*
X0234765Y0336631D01*
X0234765Y0335780D01*
X0235190Y0335355D01*
X0237316Y0335355D01*
X0236891Y0338255D02*
X0237316Y0338681D01*
X0237316Y0339531D01*
X0236891Y0339956D01*
X0236466Y0339956D01*
X0234765Y0338255D01*
X0234765Y0339956D01*
X0236040Y0341155D02*
X0236040Y0342857D01*
X0234765Y0342431D02*
X0237316Y0342431D01*
X0236040Y0341155D01*
X0235236Y0356119D02*
X0235661Y0356544D01*
X0235661Y0356969D01*
X0235236Y0357395D01*
X0234385Y0357395D01*
X0233960Y0356969D01*
X0233960Y0356544D01*
X0234385Y0356119D01*
X0235236Y0356119D01*
X0235236Y0357395D02*
X0235661Y0357820D01*
X0235661Y0358245D01*
X0235236Y0358671D01*
X0234385Y0358671D01*
X0233960Y0358245D01*
X0233960Y0357820D01*
X0234385Y0357395D01*
X0236860Y0356119D02*
X0238561Y0356119D01*
X0237711Y0356119D02*
X0237711Y0358671D01*
X0238561Y0357820D01*
X0239760Y0356119D02*
X0241461Y0356119D01*
X0240611Y0356119D02*
X0240611Y0358671D01*
X0241461Y0357820D01*
X0242660Y0358245D02*
X0243086Y0358671D01*
X0243936Y0358671D01*
X0244361Y0358245D01*
X0244361Y0356544D01*
X0243936Y0356119D01*
X0243086Y0356119D01*
X0242660Y0356544D01*
X0247457Y0328667D02*
X0247457Y0326115D01*
X0210858Y0326096D02*
X0209582Y0326096D01*
X0209157Y0325670D01*
X0209157Y0325245D01*
X0209582Y0324820D01*
X0210433Y0324820D01*
X0210858Y0325245D01*
X0210858Y0326096D01*
X0210007Y0326946D01*
X0209157Y0327371D01*
X0192286Y0375328D02*
X0190585Y0375328D01*
X0189386Y0375328D02*
X0187685Y0375328D01*
X0188535Y0375328D02*
X0188535Y0377879D01*
X0189386Y0377029D01*
X0186486Y0377454D02*
X0186061Y0377879D01*
X0185210Y0377879D01*
X0184785Y0377454D01*
X0184785Y0377029D01*
X0186486Y0375328D01*
X0184785Y0375328D01*
X0192286Y0375328D02*
X0192286Y0377879D01*
X0312556Y0333135D02*
X0313407Y0332710D01*
X0314258Y0331859D01*
X0312982Y0331859D01*
X0312556Y0331434D01*
X0312556Y0331009D01*
X0312982Y0330583D01*
X0313832Y0330583D01*
X0314258Y0331009D01*
X0314258Y0331859D01*
X0315457Y0331434D02*
X0315457Y0331009D01*
X0315882Y0330583D01*
X0316732Y0330583D01*
X0317158Y0331009D01*
X0316307Y0331859D02*
X0315882Y0331859D01*
X0315457Y0331434D01*
X0315882Y0331859D02*
X0315457Y0332285D01*
X0315457Y0332710D01*
X0315882Y0333135D01*
X0316732Y0333135D01*
X0317158Y0332710D01*
X0319207Y0333135D02*
X0319207Y0330583D01*
X0318357Y0330583D02*
X0320058Y0330583D01*
X0321257Y0331009D02*
X0321682Y0330583D01*
X0322533Y0330583D01*
X0322958Y0331009D01*
X0322958Y0332710D01*
X0322533Y0333135D01*
X0321682Y0333135D01*
X0321257Y0332710D01*
X0320058Y0332285D02*
X0319207Y0333135D01*
X0325356Y0315269D02*
X0326206Y0315269D01*
X0326632Y0314844D01*
X0327831Y0314844D02*
X0327831Y0314419D01*
X0328256Y0313993D01*
X0327831Y0313568D01*
X0327831Y0313143D01*
X0328256Y0312717D01*
X0329106Y0312717D01*
X0329532Y0313143D01*
X0328681Y0313993D02*
X0328256Y0313993D01*
X0327831Y0314844D02*
X0328256Y0315269D01*
X0329106Y0315269D01*
X0329532Y0314844D01*
X0331581Y0315269D02*
X0331581Y0312717D01*
X0330731Y0312717D02*
X0332432Y0312717D01*
X0333631Y0313143D02*
X0334056Y0312717D01*
X0334907Y0312717D01*
X0335332Y0313143D01*
X0335332Y0314844D01*
X0334907Y0315269D01*
X0334056Y0315269D01*
X0333631Y0314844D01*
X0332432Y0314419D02*
X0331581Y0315269D01*
X0326632Y0312717D02*
X0324930Y0314419D01*
X0324930Y0314844D01*
X0325356Y0315269D01*
X0324930Y0312717D02*
X0326632Y0312717D01*
X0335423Y0337670D02*
X0334997Y0338095D01*
X0334997Y0338521D01*
X0335423Y0338946D01*
X0335848Y0338946D01*
X0335423Y0338946D02*
X0334997Y0339371D01*
X0334997Y0339797D01*
X0335423Y0340222D01*
X0336273Y0340222D01*
X0336699Y0339797D01*
X0337897Y0339797D02*
X0337897Y0339371D01*
X0338323Y0338946D01*
X0337897Y0338521D01*
X0337897Y0338095D01*
X0338323Y0337670D01*
X0339173Y0337670D01*
X0339599Y0338095D01*
X0338748Y0338946D02*
X0338323Y0338946D01*
X0337897Y0339797D02*
X0338323Y0340222D01*
X0339173Y0340222D01*
X0339599Y0339797D01*
X0341648Y0340222D02*
X0341648Y0337670D01*
X0340798Y0337670D02*
X0342499Y0337670D01*
X0343698Y0338095D02*
X0344123Y0337670D01*
X0344974Y0337670D01*
X0345399Y0338095D01*
X0345399Y0339797D01*
X0344974Y0340222D01*
X0344123Y0340222D01*
X0343698Y0339797D01*
X0342499Y0339371D02*
X0341648Y0340222D01*
X0336699Y0338095D02*
X0336273Y0337670D01*
X0335423Y0337670D01*
X0337954Y0333379D02*
X0339230Y0332103D01*
X0337529Y0332103D01*
X0337954Y0330828D02*
X0337954Y0333379D01*
X0340429Y0332954D02*
X0340429Y0332529D01*
X0340854Y0332103D01*
X0340429Y0331678D01*
X0340429Y0331253D01*
X0340854Y0330828D01*
X0341705Y0330828D01*
X0342130Y0331253D01*
X0341280Y0332103D02*
X0340854Y0332103D01*
X0340429Y0332954D02*
X0340854Y0333379D01*
X0341705Y0333379D01*
X0342130Y0332954D01*
X0344180Y0333379D02*
X0344180Y0330828D01*
X0345030Y0330828D02*
X0343329Y0330828D01*
X0345030Y0332529D02*
X0344180Y0333379D01*
X0346229Y0332954D02*
X0346654Y0333379D01*
X0347505Y0333379D01*
X0347930Y0332954D01*
X0347930Y0331253D01*
X0347505Y0330828D01*
X0346654Y0330828D01*
X0346229Y0331253D01*
X0344619Y0326729D02*
X0344619Y0325028D01*
X0343343Y0325028D01*
X0343768Y0325879D01*
X0343768Y0326304D01*
X0343343Y0326729D01*
X0342492Y0326729D01*
X0342067Y0326304D01*
X0342067Y0325454D01*
X0342492Y0325028D01*
X0342492Y0323829D02*
X0342067Y0323404D01*
X0342067Y0322553D01*
X0342492Y0322128D01*
X0343343Y0322979D02*
X0343343Y0323404D01*
X0342918Y0323829D01*
X0342492Y0323829D01*
X0343343Y0323404D02*
X0343768Y0323829D01*
X0344193Y0323829D01*
X0344619Y0323404D01*
X0344619Y0322553D01*
X0344193Y0322128D01*
X0344619Y0320079D02*
X0342067Y0320079D01*
X0342067Y0320929D02*
X0342067Y0319228D01*
X0342492Y0318029D02*
X0342067Y0317604D01*
X0342067Y0316753D01*
X0342492Y0316328D01*
X0344193Y0316328D01*
X0344619Y0316753D01*
X0344619Y0317604D01*
X0344193Y0318029D01*
X0343768Y0319228D02*
X0344619Y0320079D01*
X0335641Y0295682D02*
X0335641Y0293556D01*
X0335216Y0293131D01*
X0334365Y0293131D01*
X0333940Y0293556D01*
X0333940Y0295682D01*
X0332741Y0295257D02*
X0332316Y0295682D01*
X0331465Y0295682D01*
X0331040Y0295257D01*
X0331040Y0294832D01*
X0332741Y0293131D01*
X0331040Y0293131D01*
X0329841Y0293131D02*
X0328140Y0294832D01*
X0328140Y0295257D01*
X0328565Y0295682D01*
X0329415Y0295682D01*
X0329841Y0295257D01*
X0329841Y0293131D02*
X0328140Y0293131D01*
X0322348Y0274110D02*
X0321922Y0274110D01*
X0321497Y0273685D01*
X0321072Y0274110D01*
X0320647Y0274110D01*
X0320221Y0273685D01*
X0320221Y0272834D01*
X0320647Y0272409D01*
X0320647Y0271210D02*
X0320221Y0270785D01*
X0320221Y0269934D01*
X0320647Y0269509D01*
X0321497Y0269934D02*
X0321497Y0270785D01*
X0321072Y0271210D01*
X0320647Y0271210D01*
X0321497Y0269934D02*
X0321922Y0269509D01*
X0322348Y0269509D01*
X0322773Y0269934D01*
X0322773Y0270785D01*
X0322348Y0271210D01*
X0322348Y0272409D02*
X0322773Y0272834D01*
X0322773Y0273685D01*
X0322348Y0274110D01*
X0321497Y0273685D02*
X0321497Y0273259D01*
X0317679Y0286170D02*
X0317679Y0287446D01*
X0317253Y0287871D01*
X0316403Y0287871D01*
X0315977Y0287446D01*
X0315977Y0286170D01*
X0315127Y0286170D02*
X0317679Y0286170D01*
X0315977Y0287021D02*
X0315127Y0287871D01*
X0315127Y0289070D02*
X0315552Y0289070D01*
X0317253Y0290771D01*
X0317679Y0290771D01*
X0317679Y0289070D01*
X0317253Y0291970D02*
X0316828Y0291970D01*
X0316403Y0292396D01*
X0316403Y0293671D01*
X0317253Y0293671D02*
X0317679Y0293246D01*
X0317679Y0292396D01*
X0317253Y0291970D01*
X0315552Y0291970D02*
X0315127Y0292396D01*
X0315127Y0293246D01*
X0315552Y0293671D01*
X0317253Y0293671D01*
X0346623Y0292852D02*
X0346623Y0292002D01*
X0347048Y0291577D01*
X0347473Y0291577D01*
X0347899Y0292002D01*
X0347899Y0292852D01*
X0347473Y0293278D01*
X0347048Y0293278D01*
X0346623Y0292852D01*
X0347899Y0292852D02*
X0348324Y0293278D01*
X0348749Y0293278D01*
X0349175Y0292852D01*
X0349175Y0292002D01*
X0348749Y0291577D01*
X0348324Y0291577D01*
X0347899Y0292002D01*
X0348749Y0290378D02*
X0347048Y0288676D01*
X0346623Y0288676D01*
X0346623Y0287478D02*
X0347473Y0286627D01*
X0347473Y0287052D02*
X0347473Y0285776D01*
X0346623Y0285776D02*
X0349175Y0285776D01*
X0349175Y0287052D01*
X0348749Y0287478D01*
X0347899Y0287478D01*
X0347473Y0287052D01*
X0349175Y0288676D02*
X0349175Y0290378D01*
X0348749Y0290378D01*
D11*
X0065146Y0147316D02*
X0064574Y0147888D01*
X0064574Y0150178D01*
X0065146Y0150750D01*
X0066863Y0150750D01*
X0066863Y0147316D01*
X0065146Y0147316D01*
X0068562Y0147316D02*
X0068562Y0150750D01*
X0070851Y0150750D02*
X0068562Y0147316D01*
X0070851Y0147316D02*
X0070851Y0150750D01*
X0072549Y0150178D02*
X0073122Y0150750D01*
X0074266Y0150750D01*
X0074839Y0150178D01*
X0074839Y0147888D01*
X0074266Y0147316D01*
X0073122Y0147316D01*
X0072549Y0147888D01*
X0072549Y0149033D01*
X0073694Y0149033D01*
X0069844Y0162386D02*
X0069844Y0163531D01*
X0069844Y0162959D02*
X0066983Y0162959D01*
X0066411Y0162386D01*
X0066411Y0161814D01*
X0066983Y0161242D01*
X0066983Y0165230D02*
X0066411Y0165230D01*
X0066983Y0165230D02*
X0069272Y0167519D01*
X0069844Y0167519D01*
X0069844Y0165230D01*
X0070265Y0248891D02*
X0069692Y0249463D01*
X0069692Y0251752D01*
X0070265Y0252325D01*
X0071981Y0252325D01*
X0071981Y0248891D01*
X0070265Y0248891D01*
X0073680Y0248891D02*
X0073680Y0252325D01*
X0075969Y0252325D02*
X0073680Y0248891D01*
X0075969Y0248891D02*
X0075969Y0252325D01*
X0077668Y0251752D02*
X0078240Y0252325D01*
X0079384Y0252325D01*
X0079957Y0251752D01*
X0079957Y0249463D01*
X0079384Y0248891D01*
X0078240Y0248891D01*
X0077668Y0249463D01*
X0077668Y0250608D01*
X0078812Y0250608D01*
X0071813Y0262780D02*
X0071813Y0263925D01*
X0071813Y0263352D02*
X0068951Y0263352D01*
X0068379Y0262780D01*
X0068379Y0262208D01*
X0068951Y0261636D01*
X0068951Y0265623D02*
X0068379Y0266195D01*
X0068379Y0267340D01*
X0068951Y0267912D01*
X0070096Y0267912D01*
X0070668Y0267340D01*
X0070668Y0266768D01*
X0070096Y0265623D01*
X0071813Y0265623D01*
X0071813Y0267912D01*
X0068951Y0279352D02*
X0068379Y0279924D01*
X0068379Y0280497D01*
X0068951Y0281069D01*
X0071813Y0281069D01*
X0071813Y0280497D02*
X0071813Y0281641D01*
X0070096Y0283340D02*
X0070096Y0285629D01*
X0068379Y0285057D02*
X0071813Y0285057D01*
X0070096Y0283340D01*
X0068951Y0297069D02*
X0068379Y0297641D01*
X0068379Y0298213D01*
X0068951Y0298785D01*
X0071813Y0298785D01*
X0071813Y0298213D02*
X0071813Y0299358D01*
X0071241Y0301056D02*
X0071813Y0301629D01*
X0071813Y0302773D01*
X0071241Y0303345D01*
X0070668Y0303345D01*
X0070096Y0302773D01*
X0069524Y0303345D01*
X0068951Y0303345D01*
X0068379Y0302773D01*
X0068379Y0301629D01*
X0068951Y0301056D01*
X0070096Y0302201D02*
X0070096Y0302773D01*
X0068951Y0316754D02*
X0068379Y0317326D01*
X0068379Y0317898D01*
X0068951Y0318470D01*
X0071813Y0318470D01*
X0071813Y0317898D02*
X0071813Y0319043D01*
X0070668Y0320741D02*
X0071813Y0321886D01*
X0068379Y0321886D01*
X0068379Y0323030D02*
X0068379Y0320741D01*
X0068951Y0336439D02*
X0068379Y0337011D01*
X0068379Y0337583D01*
X0068951Y0338156D01*
X0071813Y0338156D01*
X0071813Y0338728D02*
X0071813Y0337583D01*
X0071241Y0340426D02*
X0071813Y0340999D01*
X0071813Y0342143D01*
X0071241Y0342715D01*
X0070668Y0342715D01*
X0068379Y0340426D01*
X0068379Y0342715D01*
X0092083Y0269254D02*
X0094372Y0269254D01*
X0093227Y0269254D02*
X0093227Y0265820D01*
X0096070Y0266392D02*
X0096070Y0268681D01*
X0096642Y0269254D01*
X0097787Y0269254D01*
X0098359Y0268681D01*
X0098359Y0266392D01*
X0097787Y0265820D01*
X0096642Y0265820D01*
X0096070Y0266392D01*
X0100058Y0265820D02*
X0101202Y0266965D01*
X0100630Y0266965D02*
X0102347Y0266965D01*
X0102347Y0265820D02*
X0102347Y0269254D01*
X0100630Y0269254D01*
X0100058Y0268681D01*
X0100058Y0267537D01*
X0100630Y0266965D01*
X0104046Y0267537D02*
X0104618Y0266965D01*
X0106335Y0266965D01*
X0106335Y0265820D02*
X0106335Y0269254D01*
X0104618Y0269254D01*
X0104046Y0268681D01*
X0104046Y0267537D01*
X0108033Y0266965D02*
X0108033Y0269254D01*
X0110322Y0269254D02*
X0110322Y0266965D01*
X0109178Y0265820D01*
X0108033Y0266965D01*
X0110857Y0287474D02*
X0113147Y0287474D01*
X0112002Y0287474D02*
X0112002Y0290907D01*
X0113147Y0289763D01*
X0114660Y0290907D02*
X0115805Y0290907D01*
X0115233Y0290907D02*
X0115233Y0287474D01*
X0115805Y0287474D02*
X0114660Y0287474D01*
X0117504Y0287474D02*
X0119220Y0289190D01*
X0119793Y0288618D02*
X0117504Y0290907D01*
X0119793Y0290907D02*
X0119793Y0287474D01*
X0121491Y0287474D02*
X0123780Y0287474D01*
X0123780Y0290907D01*
X0125479Y0290335D02*
X0126051Y0290907D01*
X0127196Y0290907D01*
X0127768Y0290335D01*
X0127768Y0288046D01*
X0127196Y0287474D01*
X0126051Y0287474D01*
X0125479Y0288046D01*
X0152022Y0373028D02*
X0151450Y0373600D01*
X0151450Y0374744D01*
X0152022Y0375317D01*
X0153167Y0375317D01*
X0153167Y0374172D01*
X0154311Y0373028D02*
X0152022Y0373028D01*
X0154311Y0373028D02*
X0154884Y0373600D01*
X0154884Y0374744D01*
X0154311Y0375317D01*
X0154884Y0377015D02*
X0151450Y0379304D01*
X0154884Y0379304D01*
X0154884Y0381003D02*
X0154884Y0382720D01*
X0154311Y0383292D01*
X0152022Y0383292D01*
X0151450Y0382720D01*
X0151450Y0381003D01*
X0154884Y0381003D01*
X0154884Y0377015D02*
X0151450Y0377015D01*
X0162611Y0290514D02*
X0162039Y0289941D01*
X0164328Y0287652D01*
X0163755Y0287080D01*
X0162611Y0287080D01*
X0162039Y0287652D01*
X0162039Y0289941D01*
X0162611Y0290514D02*
X0163755Y0290514D01*
X0164328Y0289941D01*
X0164328Y0287652D01*
X0165842Y0287080D02*
X0166986Y0287080D01*
X0166414Y0287080D02*
X0166414Y0290514D01*
X0166986Y0290514D02*
X0165842Y0290514D01*
X0168685Y0290514D02*
X0170974Y0288224D01*
X0170401Y0288797D02*
X0168685Y0287080D01*
X0170974Y0287080D02*
X0170974Y0290514D01*
X0172672Y0287080D02*
X0174961Y0287080D01*
X0174961Y0290514D01*
X0176660Y0289941D02*
X0177232Y0290514D01*
X0178377Y0290514D01*
X0178949Y0289941D01*
X0178949Y0287652D01*
X0178377Y0287080D01*
X0177232Y0287080D01*
X0176660Y0287652D01*
X0198591Y0308894D02*
X0198591Y0311183D01*
X0198591Y0308894D02*
X0199736Y0307749D01*
X0200880Y0308894D01*
X0200880Y0311183D01*
X0202579Y0310611D02*
X0202579Y0310038D01*
X0203151Y0309466D01*
X0204296Y0309466D01*
X0204868Y0310038D01*
X0204868Y0310611D01*
X0204296Y0311183D01*
X0203151Y0311183D01*
X0202579Y0310611D01*
X0203151Y0309466D02*
X0202579Y0308894D01*
X0202579Y0308321D01*
X0203151Y0307749D01*
X0204296Y0307749D01*
X0204868Y0308321D01*
X0204868Y0308894D01*
X0204296Y0309466D01*
X0206290Y0308321D02*
X0206290Y0307749D01*
X0206862Y0307749D01*
X0206862Y0308321D01*
X0206290Y0308321D01*
X0208560Y0307749D02*
X0210850Y0307749D01*
X0209705Y0307749D02*
X0209705Y0311183D01*
X0210850Y0310038D01*
X0212548Y0309466D02*
X0214837Y0309466D01*
X0213693Y0310611D02*
X0213693Y0308321D01*
X0208518Y0233821D02*
X0207374Y0233821D01*
X0206801Y0233248D01*
X0206801Y0232104D02*
X0207946Y0232104D01*
X0206801Y0232104D02*
X0206801Y0230959D01*
X0207374Y0230387D01*
X0208518Y0230387D01*
X0209091Y0230959D01*
X0209091Y0233248D01*
X0208518Y0233821D01*
X0205103Y0233821D02*
X0202814Y0230387D01*
X0202814Y0233821D01*
X0201115Y0233821D02*
X0199398Y0233821D01*
X0198826Y0233248D01*
X0198826Y0230959D01*
X0199398Y0230387D01*
X0201115Y0230387D01*
X0201115Y0233821D01*
X0205103Y0233821D02*
X0205103Y0230387D01*
X0162659Y0198818D02*
X0161515Y0199962D01*
X0160370Y0198818D01*
X0160370Y0196529D01*
X0160370Y0198246D02*
X0162659Y0198246D01*
X0162659Y0198818D02*
X0162659Y0196529D01*
X0158672Y0197101D02*
X0158099Y0196529D01*
X0156955Y0196529D01*
X0156382Y0197101D01*
X0156382Y0198246D01*
X0157527Y0198246D01*
X0158672Y0199390D02*
X0158672Y0197101D01*
X0158672Y0199390D02*
X0158099Y0199962D01*
X0156955Y0199962D01*
X0156382Y0199390D01*
X0154684Y0199962D02*
X0152395Y0196529D01*
X0152395Y0199962D01*
X0150696Y0199962D02*
X0148979Y0199962D01*
X0148407Y0199390D01*
X0148407Y0197101D01*
X0148979Y0196529D01*
X0150696Y0196529D01*
X0150696Y0199962D01*
X0154684Y0199962D02*
X0154684Y0196529D01*
X0247027Y0369954D02*
X0247027Y0372243D01*
X0248172Y0373388D01*
X0249316Y0372243D01*
X0249316Y0369954D01*
X0249316Y0371671D02*
X0247027Y0371671D01*
X0251015Y0369382D02*
X0253304Y0369382D01*
X0255003Y0369954D02*
X0256719Y0371671D01*
X0257292Y0371098D02*
X0255003Y0373388D01*
X0257292Y0373388D02*
X0257292Y0369954D01*
X0258990Y0369954D02*
X0258990Y0373388D01*
X0261279Y0373388D02*
X0258990Y0369954D01*
X0261279Y0369954D02*
X0261279Y0373388D01*
X0262793Y0373388D02*
X0263938Y0373388D01*
X0263365Y0373388D02*
X0263365Y0369954D01*
X0262793Y0369954D02*
X0263938Y0369954D01*
X0265636Y0369954D02*
X0267925Y0369954D01*
X0267925Y0373388D01*
X0269624Y0373388D02*
X0269624Y0371098D01*
X0270769Y0369954D01*
X0271913Y0371098D01*
X0271913Y0373388D01*
X0272650Y0341301D02*
X0272650Y0337867D01*
X0270361Y0337867D01*
X0268662Y0337867D02*
X0267518Y0337867D01*
X0268090Y0337867D02*
X0268090Y0341301D01*
X0268662Y0341301D02*
X0267518Y0341301D01*
X0266004Y0341301D02*
X0263715Y0337867D01*
X0263715Y0341301D01*
X0262016Y0341301D02*
X0262016Y0337867D01*
X0262016Y0339012D02*
X0259727Y0341301D01*
X0261444Y0339584D02*
X0259727Y0337867D01*
X0258028Y0337295D02*
X0255739Y0337295D01*
X0254041Y0337867D02*
X0254041Y0341301D01*
X0252324Y0341301D01*
X0251752Y0340729D01*
X0251752Y0340156D01*
X0252324Y0339584D01*
X0254041Y0339584D01*
X0254041Y0337867D02*
X0252324Y0337867D01*
X0251752Y0338440D01*
X0251752Y0339012D01*
X0252324Y0339584D01*
X0266004Y0337867D02*
X0266004Y0341301D01*
X0274348Y0341301D02*
X0274348Y0339012D01*
X0275493Y0337867D01*
X0276637Y0339012D01*
X0276637Y0341301D01*
X0314733Y0379563D02*
X0315878Y0378419D01*
X0317022Y0379563D01*
X0317022Y0381852D01*
X0318721Y0381280D02*
X0318721Y0380708D01*
X0319293Y0380135D01*
X0318721Y0379563D01*
X0318721Y0378991D01*
X0319293Y0378419D01*
X0320438Y0378419D01*
X0321010Y0378991D01*
X0322431Y0378991D02*
X0322431Y0378419D01*
X0323004Y0378419D01*
X0323004Y0378991D01*
X0322431Y0378991D01*
X0324702Y0378991D02*
X0325274Y0378419D01*
X0326419Y0378419D01*
X0326991Y0378991D01*
X0325847Y0380135D02*
X0325274Y0380135D01*
X0324702Y0379563D01*
X0324702Y0378991D01*
X0325274Y0380135D02*
X0324702Y0380708D01*
X0324702Y0381280D01*
X0325274Y0381852D01*
X0326419Y0381852D01*
X0326991Y0381280D01*
X0328690Y0380135D02*
X0330979Y0380135D01*
X0329834Y0378991D02*
X0329834Y0381280D01*
X0327999Y0367285D02*
X0327999Y0363852D01*
X0326855Y0363852D02*
X0329144Y0363852D01*
X0329144Y0366141D02*
X0327999Y0367285D01*
X0325156Y0366713D02*
X0324584Y0367285D01*
X0323439Y0367285D01*
X0322867Y0366713D01*
X0322867Y0366141D01*
X0325156Y0363852D01*
X0322867Y0363852D01*
X0321169Y0364996D02*
X0320024Y0363852D01*
X0318880Y0364996D01*
X0318880Y0367285D01*
X0321169Y0367285D02*
X0321169Y0364996D01*
X0330843Y0365568D02*
X0333132Y0365568D01*
X0331987Y0364424D02*
X0331987Y0366713D01*
X0342001Y0370057D02*
X0342001Y0371201D01*
X0342573Y0371773D01*
X0343718Y0371773D01*
X0343718Y0370629D01*
X0344863Y0371773D02*
X0345435Y0371201D01*
X0345435Y0370057D01*
X0344863Y0369484D01*
X0342573Y0369484D01*
X0342001Y0370057D01*
X0342001Y0373472D02*
X0345435Y0373472D01*
X0342001Y0375761D01*
X0345435Y0375761D01*
X0345435Y0377460D02*
X0345435Y0379176D01*
X0344863Y0379749D01*
X0342573Y0379749D01*
X0342001Y0379176D01*
X0342001Y0377460D01*
X0345435Y0377460D01*
X0321010Y0381280D02*
X0320438Y0381852D01*
X0319293Y0381852D01*
X0318721Y0381280D01*
X0319293Y0380135D02*
X0319865Y0380135D01*
X0314733Y0379563D02*
X0314733Y0381852D01*
X0331022Y0242282D02*
X0330384Y0241644D01*
X0330384Y0240368D01*
X0331022Y0239730D01*
X0333573Y0239730D01*
X0334211Y0240368D01*
X0334211Y0241644D01*
X0333573Y0242282D01*
X0331022Y0242282D01*
X0330384Y0237932D02*
X0334211Y0235380D01*
X0330384Y0235380D01*
X0330384Y0233582D02*
X0330384Y0232306D01*
X0330384Y0232944D02*
X0334211Y0232944D01*
X0334211Y0233582D02*
X0334211Y0232306D01*
X0334211Y0230682D02*
X0330384Y0228130D01*
X0330384Y0230682D02*
X0334211Y0228130D01*
X0337470Y0224882D02*
X0341298Y0224882D01*
X0339384Y0224882D02*
X0339384Y0222330D01*
X0339384Y0220531D02*
X0340660Y0220531D01*
X0341298Y0219893D01*
X0341298Y0218618D01*
X0340660Y0217980D01*
X0339384Y0217980D01*
X0338746Y0218618D01*
X0338746Y0219893D01*
X0339384Y0220531D01*
X0337470Y0222330D02*
X0341298Y0222330D01*
X0341298Y0216181D02*
X0341298Y0214267D01*
X0340660Y0213629D01*
X0340022Y0214267D01*
X0340022Y0215543D01*
X0339384Y0216181D01*
X0338746Y0215543D01*
X0338746Y0213629D01*
X0338746Y0211831D02*
X0338746Y0210555D01*
X0338108Y0211193D02*
X0340660Y0211193D01*
X0341298Y0210555D01*
X0340660Y0202912D02*
X0341298Y0202274D01*
X0341298Y0201636D01*
X0340660Y0200998D01*
X0337470Y0200998D01*
X0337470Y0201636D02*
X0337470Y0200360D01*
X0337470Y0198562D02*
X0337470Y0196648D01*
X0338108Y0196010D01*
X0339384Y0196010D01*
X0340022Y0196648D01*
X0340022Y0198562D01*
X0341298Y0198562D02*
X0337470Y0198562D01*
X0334211Y0197924D02*
X0333573Y0198562D01*
X0332298Y0198562D01*
X0331660Y0197924D01*
X0331660Y0196648D01*
X0332298Y0196010D01*
X0332936Y0196010D01*
X0332936Y0198562D01*
X0334211Y0197924D02*
X0334211Y0196648D01*
X0331660Y0194212D02*
X0334211Y0192936D01*
X0331660Y0191660D01*
X0333573Y0189862D02*
X0333573Y0189224D01*
X0334211Y0189224D01*
X0334211Y0189862D01*
X0333573Y0189862D01*
X0337470Y0191660D02*
X0341298Y0191660D01*
X0337470Y0194212D01*
X0341298Y0194212D01*
X0341298Y0185512D02*
X0338746Y0182960D01*
X0338108Y0182960D01*
X0337470Y0183598D01*
X0337470Y0184874D01*
X0338108Y0185512D01*
X0341298Y0185512D02*
X0341298Y0182960D01*
X0340660Y0181161D02*
X0338108Y0178610D01*
X0340660Y0178610D01*
X0341298Y0179248D01*
X0341298Y0180523D01*
X0340660Y0181161D01*
X0338108Y0181161D01*
X0337470Y0180523D01*
X0337470Y0179248D01*
X0338108Y0178610D01*
X0338108Y0176811D02*
X0337470Y0176173D01*
X0337470Y0174897D01*
X0338108Y0174259D01*
X0338746Y0174259D01*
X0341298Y0176811D01*
X0341298Y0174259D01*
X0341298Y0172461D02*
X0341298Y0169909D01*
X0341298Y0171185D02*
X0337470Y0171185D01*
X0338746Y0172461D01*
X0332298Y0182061D02*
X0332298Y0183336D01*
X0334211Y0183336D02*
X0330384Y0183336D01*
X0330384Y0180785D01*
X0331022Y0200360D02*
X0330384Y0200998D01*
X0330384Y0202912D01*
X0334211Y0202912D01*
X0332936Y0202912D02*
X0332936Y0200998D01*
X0332298Y0200360D01*
X0331022Y0200360D01*
X0332936Y0201636D02*
X0334211Y0200360D01*
X0338108Y0231030D02*
X0337470Y0231668D01*
X0337470Y0232944D01*
X0338108Y0233582D01*
X0340660Y0233582D01*
X0341298Y0232944D01*
X0341298Y0231668D01*
X0340660Y0231030D01*
X0341298Y0235380D02*
X0337470Y0235380D01*
X0338746Y0236656D01*
X0337470Y0237932D01*
X0341298Y0237932D01*
X0339384Y0241006D02*
X0339384Y0242282D01*
X0337470Y0242282D02*
X0337470Y0239730D01*
X0337470Y0242282D02*
X0341298Y0242282D01*
X0334211Y0237932D02*
X0330384Y0237932D01*
D12*
X0324031Y0261236D02*
X0324031Y0281709D01*
X0340567Y0281709D01*
X0340567Y0261236D01*
X0324031Y0261236D01*
X0323476Y0285776D02*
X0319076Y0285776D01*
X0319076Y0294176D01*
X0323476Y0294176D01*
X0323476Y0285776D01*
X0323082Y0309792D02*
X0318682Y0309792D01*
X0318682Y0318192D01*
X0323082Y0318192D01*
X0323082Y0309792D01*
X0331537Y0326065D02*
X0335937Y0326065D01*
X0335937Y0334465D01*
X0331537Y0334465D01*
X0331537Y0326065D01*
X0336535Y0326722D02*
X0336535Y0318322D01*
X0340935Y0318322D01*
X0340935Y0326722D01*
X0336535Y0326722D01*
X0333480Y0341157D02*
X0333480Y0341551D01*
X0346866Y0341551D01*
X0346866Y0341157D01*
X0333480Y0341157D01*
X0333480Y0341551D02*
X0333480Y0364386D01*
X0346866Y0364386D01*
X0346866Y0341551D01*
X0345523Y0294176D02*
X0341123Y0294176D01*
X0341123Y0285776D01*
X0345523Y0285776D01*
X0345523Y0294176D01*
X0324425Y0334071D02*
X0324425Y0334465D01*
X0311039Y0334465D01*
X0311039Y0334071D01*
X0324425Y0334071D01*
X0324425Y0334465D02*
X0324425Y0357299D01*
X0311039Y0357299D01*
X0311039Y0334465D01*
X0305759Y0342469D02*
X0305759Y0350869D01*
X0301359Y0350869D01*
X0301359Y0342469D01*
X0305759Y0342469D01*
X0301035Y0342469D02*
X0301035Y0350869D01*
X0296635Y0350869D01*
X0296635Y0342469D01*
X0301035Y0342469D01*
X0291617Y0359824D02*
X0291617Y0364224D01*
X0283217Y0364224D01*
X0283217Y0359824D01*
X0291617Y0359824D01*
X0290798Y0364910D02*
X0286398Y0364910D01*
X0286398Y0373310D01*
X0290798Y0373310D01*
X0290798Y0364910D01*
X0282756Y0360142D02*
X0274756Y0360142D01*
X0274756Y0374142D01*
X0282756Y0374142D01*
X0282756Y0360142D01*
X0277638Y0323551D02*
X0269638Y0323551D01*
X0269638Y0309551D01*
X0277638Y0309551D01*
X0277638Y0323551D01*
X0277811Y0314858D02*
X0277811Y0304858D01*
X0297811Y0304858D01*
X0297811Y0314858D01*
X0277811Y0314858D01*
X0278918Y0304413D02*
X0283318Y0304413D01*
X0283318Y0296013D01*
X0278918Y0296013D01*
X0278918Y0304413D01*
X0277929Y0302260D02*
X0277929Y0292260D01*
X0257929Y0292260D01*
X0257929Y0302260D01*
X0277929Y0302260D01*
X0274885Y0292176D02*
X0266485Y0292176D01*
X0266485Y0287776D01*
X0274885Y0287776D01*
X0274885Y0292176D01*
X0274885Y0287255D02*
X0266485Y0287255D01*
X0266485Y0282855D01*
X0274885Y0282855D01*
X0274885Y0287255D01*
X0283638Y0282378D02*
X0263638Y0282378D01*
X0263638Y0272378D01*
X0283638Y0272378D01*
X0283638Y0282378D01*
X0283350Y0245720D02*
X0274950Y0245720D01*
X0274950Y0241320D01*
X0283350Y0241320D01*
X0283350Y0245720D01*
X0283350Y0241389D02*
X0274950Y0241389D01*
X0274950Y0236989D01*
X0283350Y0236989D01*
X0283350Y0241389D01*
X0283350Y0237058D02*
X0283350Y0232658D01*
X0274950Y0232658D01*
X0274950Y0237058D01*
X0283350Y0237058D01*
X0283350Y0232728D02*
X0274950Y0232728D01*
X0274950Y0228328D01*
X0283350Y0228328D01*
X0283350Y0232728D01*
X0283350Y0228397D02*
X0274950Y0228397D01*
X0274950Y0223997D01*
X0283350Y0223997D01*
X0283350Y0228397D01*
X0283350Y0224066D02*
X0274950Y0224066D01*
X0274950Y0219666D01*
X0283350Y0219666D01*
X0283350Y0224066D01*
X0270252Y0258795D02*
X0270252Y0268795D01*
X0250252Y0268795D01*
X0250252Y0258795D01*
X0270252Y0258795D01*
X0263043Y0270225D02*
X0263043Y0278625D01*
X0258643Y0278625D01*
X0258643Y0270225D01*
X0263043Y0270225D01*
X0258346Y0269197D02*
X0258346Y0283197D01*
X0250346Y0283197D01*
X0250346Y0269197D01*
X0258346Y0269197D01*
X0250247Y0271013D02*
X0250247Y0279413D01*
X0245847Y0279413D01*
X0245847Y0271013D01*
X0250247Y0271013D01*
X0245751Y0273800D02*
X0245751Y0278200D01*
X0237351Y0278200D01*
X0237351Y0273800D01*
X0245751Y0273800D01*
X0245751Y0278328D02*
X0245751Y0282728D01*
X0237351Y0282728D01*
X0237351Y0278328D01*
X0245751Y0278328D01*
X0246145Y0283052D02*
X0246145Y0287452D01*
X0237745Y0287452D01*
X0237745Y0283052D01*
X0246145Y0283052D01*
X0246145Y0287580D02*
X0246145Y0291980D01*
X0237745Y0291980D01*
X0237745Y0287580D01*
X0246145Y0287580D01*
X0246145Y0291910D02*
X0246145Y0296310D01*
X0237745Y0296310D01*
X0237745Y0291910D01*
X0246145Y0291910D01*
X0246145Y0296438D02*
X0246145Y0300838D01*
X0237745Y0300838D01*
X0237745Y0296438D01*
X0246145Y0296438D01*
X0248603Y0299753D02*
X0253003Y0299753D01*
X0253003Y0308153D01*
X0248603Y0308153D01*
X0248603Y0299753D01*
X0246145Y0300769D02*
X0246145Y0305169D01*
X0237745Y0305169D01*
X0237745Y0300769D01*
X0246145Y0300769D01*
X0253524Y0299753D02*
X0257924Y0299753D01*
X0257924Y0308153D01*
X0253524Y0308153D01*
X0253524Y0299753D01*
X0249543Y0312063D02*
X0259543Y0312063D01*
X0259543Y0332063D01*
X0249543Y0332063D01*
X0249543Y0312063D01*
X0248148Y0312270D02*
X0248148Y0324770D01*
X0241648Y0324770D01*
X0241648Y0312270D01*
X0248148Y0312270D01*
X0240028Y0319303D02*
X0240028Y0332303D01*
X0221028Y0332303D01*
X0221028Y0319303D01*
X0240028Y0319303D01*
X0234661Y0316748D02*
X0224425Y0316748D01*
X0224425Y0290370D01*
X0234661Y0290370D01*
X0234661Y0316748D01*
X0233087Y0335843D02*
X0233087Y0342732D01*
X0224819Y0342732D02*
X0224819Y0334465D01*
X0220764Y0328992D02*
X0220764Y0348992D01*
X0210764Y0348992D01*
X0210764Y0328992D01*
X0220764Y0328992D01*
X0224661Y0344819D02*
X0244661Y0344819D01*
X0244661Y0354819D01*
X0224661Y0354819D01*
X0224661Y0344819D01*
X0215134Y0364504D02*
X0215134Y0374504D01*
X0195134Y0374504D01*
X0195134Y0364504D01*
X0215134Y0364504D01*
X0209927Y0363289D02*
X0209927Y0355289D01*
X0195927Y0355289D01*
X0195927Y0363289D01*
X0209927Y0363289D01*
X0210121Y0353987D02*
X0210121Y0349587D01*
X0201721Y0349587D01*
X0201721Y0353987D01*
X0210121Y0353987D01*
X0201551Y0352063D02*
X0181551Y0352063D01*
X0181551Y0342063D01*
X0201551Y0342063D01*
X0201551Y0352063D01*
X0198901Y0341783D02*
X0190501Y0341783D01*
X0190501Y0337383D01*
X0198901Y0337383D01*
X0198901Y0341783D01*
X0198901Y0336861D02*
X0190501Y0336861D01*
X0190501Y0332461D01*
X0198901Y0332461D01*
X0198901Y0336861D01*
X0207260Y0331000D02*
X0207260Y0321000D01*
X0187260Y0321000D01*
X0187260Y0331000D01*
X0207260Y0331000D01*
X0192693Y0317417D02*
X0192693Y0307417D01*
X0172693Y0307417D01*
X0172693Y0317417D01*
X0192693Y0317417D01*
X0186559Y0320712D02*
X0186559Y0329112D01*
X0182159Y0329112D01*
X0182159Y0320712D01*
X0186559Y0320712D01*
X0181575Y0317819D02*
X0181575Y0331819D01*
X0173575Y0331819D01*
X0173575Y0317819D01*
X0181575Y0317819D01*
X0173581Y0321313D02*
X0173581Y0329713D01*
X0169181Y0329713D01*
X0169181Y0321313D01*
X0173581Y0321313D01*
X0169176Y0324194D02*
X0169176Y0328594D01*
X0160776Y0328594D01*
X0160776Y0324194D01*
X0169176Y0324194D01*
X0169176Y0328721D02*
X0160776Y0328721D01*
X0160776Y0333121D01*
X0169176Y0333121D01*
X0169176Y0328721D01*
X0169359Y0333150D02*
X0169359Y0337550D01*
X0160959Y0337550D01*
X0160959Y0333150D01*
X0169359Y0333150D01*
X0169366Y0337476D02*
X0169366Y0341876D01*
X0160966Y0341876D01*
X0160966Y0337476D01*
X0169366Y0337476D01*
X0169373Y0341910D02*
X0160973Y0341910D01*
X0160973Y0346310D01*
X0169373Y0346310D01*
X0169373Y0341910D01*
X0169373Y0346241D02*
X0169373Y0350641D01*
X0160973Y0350641D01*
X0160973Y0346241D01*
X0169373Y0346241D01*
X0171925Y0349169D02*
X0171925Y0357569D01*
X0176325Y0357569D01*
X0176325Y0349169D01*
X0171925Y0349169D01*
X0169373Y0350572D02*
X0169373Y0354972D01*
X0160973Y0354972D01*
X0160973Y0350572D01*
X0169373Y0350572D01*
X0170096Y0363047D02*
X0163596Y0363047D01*
X0163596Y0375547D01*
X0170096Y0375547D01*
X0170096Y0363047D01*
X0173165Y0363047D02*
X0183165Y0363047D01*
X0183165Y0383047D01*
X0173165Y0383047D01*
X0173165Y0363047D01*
X0176950Y0357562D02*
X0176950Y0349162D01*
X0181350Y0349162D01*
X0181350Y0357562D01*
X0176950Y0357562D01*
X0185348Y0361285D02*
X0191848Y0361285D01*
X0191848Y0373785D01*
X0185348Y0373785D01*
X0185348Y0361285D01*
X0186391Y0360805D02*
X0186391Y0352405D01*
X0190791Y0352405D01*
X0190791Y0360805D01*
X0186391Y0360805D01*
X0161039Y0339189D02*
X0158283Y0341945D01*
X0148441Y0341945D01*
X0148441Y0369504D01*
X0158283Y0369504D01*
X0158283Y0341945D01*
X0156160Y0335249D02*
X0143660Y0335249D01*
X0143660Y0328749D01*
X0156160Y0328749D01*
X0156160Y0335249D01*
X0157646Y0328928D02*
X0137646Y0328928D01*
X0137646Y0318928D01*
X0157646Y0318928D01*
X0157646Y0328928D01*
X0149649Y0318082D02*
X0149649Y0313682D01*
X0141249Y0313682D01*
X0141249Y0318082D01*
X0149649Y0318082D01*
X0141980Y0289058D02*
X0137580Y0289058D01*
X0137580Y0280658D01*
X0141980Y0280658D01*
X0141980Y0289058D01*
X0163642Y0264684D02*
X0157986Y0259027D01*
X0167885Y0249127D01*
X0173542Y0254784D01*
X0163642Y0264684D01*
X0157737Y0258778D02*
X0167636Y0248879D01*
X0161980Y0243222D01*
X0152080Y0253121D01*
X0157737Y0258778D01*
X0151831Y0252873D02*
X0146175Y0247216D01*
X0156074Y0237316D01*
X0161731Y0242973D01*
X0151831Y0252873D01*
X0166704Y0241062D02*
X0156805Y0231162D01*
X0162461Y0225505D01*
X0172361Y0235405D01*
X0166704Y0241062D01*
X0174624Y0243680D02*
X0177735Y0240569D01*
X0183675Y0246509D01*
X0180564Y0249620D01*
X0174624Y0243680D01*
X0177671Y0232737D02*
X0183328Y0227080D01*
X0193227Y0236980D01*
X0187570Y0242636D01*
X0177671Y0232737D01*
X0176554Y0231116D02*
X0173443Y0228005D01*
X0179383Y0222065D01*
X0182494Y0225176D01*
X0176554Y0231116D01*
X0172587Y0221704D02*
X0172587Y0217304D01*
X0180987Y0217304D01*
X0180987Y0221704D01*
X0172587Y0221704D01*
X0169145Y0221342D02*
X0169145Y0212942D01*
X0164745Y0212942D01*
X0164745Y0221342D01*
X0169145Y0221342D01*
X0164646Y0224142D02*
X0164646Y0210142D01*
X0156646Y0210142D01*
X0156646Y0224142D01*
X0164646Y0224142D01*
X0163094Y0209331D02*
X0163094Y0201331D01*
X0177094Y0201331D01*
X0177094Y0209331D01*
X0163094Y0209331D01*
X0165882Y0192890D02*
X0165882Y0172890D01*
X0175882Y0172890D01*
X0175882Y0192890D01*
X0165882Y0192890D01*
X0176162Y0176460D02*
X0176162Y0168060D01*
X0180562Y0168060D01*
X0180562Y0176460D01*
X0176162Y0176460D01*
X0175082Y0172098D02*
X0175082Y0167698D01*
X0166682Y0167698D01*
X0166682Y0172098D01*
X0175082Y0172098D01*
X0171213Y0164299D02*
X0179213Y0164299D01*
X0179213Y0150299D01*
X0171213Y0150299D01*
X0171213Y0164299D01*
X0170720Y0161106D02*
X0166320Y0161106D01*
X0166320Y0152706D01*
X0170720Y0152706D01*
X0170720Y0161106D01*
X0165827Y0164299D02*
X0157827Y0164299D01*
X0157827Y0150299D01*
X0165827Y0150299D01*
X0165827Y0164299D01*
X0169863Y0135121D02*
X0174263Y0135121D01*
X0174263Y0126721D01*
X0169863Y0126721D01*
X0169863Y0135121D01*
X0169863Y0125279D02*
X0169863Y0116879D01*
X0174263Y0116879D01*
X0174263Y0125279D01*
X0169863Y0125279D01*
X0182430Y0127540D02*
X0190830Y0127540D01*
X0190830Y0131940D01*
X0182430Y0131940D01*
X0182430Y0127540D01*
X0182430Y0132265D02*
X0190830Y0132265D01*
X0190830Y0136665D01*
X0182430Y0136665D01*
X0182430Y0132265D01*
X0193485Y0134989D02*
X0197885Y0134989D01*
X0197885Y0143389D01*
X0193485Y0143389D01*
X0193485Y0134989D01*
X0197816Y0134989D02*
X0197816Y0143389D01*
X0202216Y0143389D01*
X0202216Y0134989D01*
X0197816Y0134989D01*
X0201984Y0143913D02*
X0188992Y0143913D01*
X0188992Y0160449D01*
X0201984Y0160449D01*
X0201984Y0143913D01*
X0197098Y0123704D02*
X0192698Y0123704D01*
X0192698Y0115304D01*
X0197098Y0115304D01*
X0197098Y0123704D01*
X0188992Y0160449D02*
X0187417Y0162024D01*
X0184398Y0162580D02*
X0192798Y0162580D01*
X0192798Y0166980D01*
X0184398Y0166980D01*
X0184398Y0162580D01*
X0184398Y0167698D02*
X0184398Y0172098D01*
X0192798Y0172098D01*
X0192798Y0167698D01*
X0184398Y0167698D01*
X0184398Y0172816D02*
X0184398Y0177216D01*
X0192798Y0177216D01*
X0192798Y0172816D01*
X0184398Y0172816D01*
X0184398Y0177934D02*
X0192798Y0177934D01*
X0192798Y0182334D01*
X0184398Y0182334D01*
X0184398Y0177934D01*
X0193409Y0181772D02*
X0193409Y0173772D01*
X0207409Y0173772D01*
X0207409Y0181772D01*
X0193409Y0181772D01*
X0196209Y0182265D02*
X0204609Y0182265D01*
X0204609Y0186665D01*
X0196209Y0186665D01*
X0196209Y0182265D01*
X0193016Y0187157D02*
X0193016Y0195157D01*
X0207016Y0195157D01*
X0207016Y0187157D01*
X0193016Y0187157D01*
X0190043Y0196831D02*
X0190043Y0201231D01*
X0181643Y0201231D01*
X0181643Y0196831D01*
X0190043Y0196831D01*
X0201753Y0171735D02*
X0201753Y0163335D01*
X0206153Y0163335D01*
X0206153Y0171735D01*
X0201753Y0171735D01*
X0196953Y0264717D02*
X0196953Y0272717D01*
X0210953Y0272717D01*
X0210953Y0264717D01*
X0196953Y0264717D01*
X0199359Y0275965D02*
X0207759Y0275965D01*
X0207759Y0280365D01*
X0199359Y0280365D01*
X0199359Y0275965D01*
X0198603Y0281839D02*
X0203003Y0281839D01*
X0203003Y0290239D01*
X0198603Y0290239D01*
X0198603Y0281839D01*
X0194735Y0281446D02*
X0194735Y0289846D01*
X0190335Y0289846D01*
X0190335Y0281446D01*
X0194735Y0281446D01*
X0204115Y0281839D02*
X0208515Y0281839D01*
X0208515Y0290239D01*
X0204115Y0290239D01*
X0204115Y0281839D01*
X0214228Y0278441D02*
X0214228Y0268441D01*
X0234228Y0268441D01*
X0234228Y0278441D01*
X0214228Y0278441D01*
X0219750Y0278459D02*
X0219750Y0284959D01*
X0232250Y0284959D01*
X0232250Y0278459D01*
X0219750Y0278459D01*
X0234661Y0290370D02*
X0237417Y0287614D01*
X0261530Y0312073D02*
X0268030Y0312073D01*
X0268030Y0324573D01*
X0261530Y0324573D01*
X0261530Y0312073D01*
X0264548Y0311106D02*
X0264548Y0302706D01*
X0268948Y0302706D01*
X0268948Y0311106D01*
X0264548Y0311106D01*
X0253822Y0161468D02*
X0245422Y0161468D01*
X0245422Y0157068D01*
X0253822Y0157068D01*
X0253822Y0161468D01*
X0244767Y0161468D02*
X0236367Y0161468D01*
X0236367Y0157068D01*
X0244767Y0157068D01*
X0244767Y0161468D01*
X0146780Y0167079D02*
X0146780Y0175079D01*
X0132780Y0175079D01*
X0132780Y0167079D01*
X0146780Y0167079D01*
X0143980Y0175572D02*
X0143980Y0179972D01*
X0135580Y0179972D01*
X0135580Y0175572D01*
X0143980Y0175572D01*
X0144373Y0193288D02*
X0135973Y0193288D01*
X0135973Y0197688D01*
X0144373Y0197688D01*
X0144373Y0193288D01*
X0147173Y0199362D02*
X0147173Y0207362D01*
X0133173Y0207362D01*
X0133173Y0199362D01*
X0147173Y0199362D01*
X0128200Y0221209D02*
X0123800Y0221209D01*
X0123800Y0229609D01*
X0128200Y0229609D01*
X0128200Y0221209D01*
X0120720Y0202444D02*
X0116320Y0202444D01*
X0116320Y0194044D01*
X0120720Y0194044D01*
X0120720Y0202444D01*
X0111271Y0202444D02*
X0106871Y0202444D01*
X0106871Y0194044D01*
X0111271Y0194044D01*
X0111271Y0202444D01*
X0103397Y0221997D02*
X0098997Y0221997D01*
X0098997Y0230397D01*
X0103397Y0230397D01*
X0103397Y0221997D01*
X0116320Y0258611D02*
X0120720Y0258611D01*
X0120720Y0267011D01*
X0116320Y0267011D01*
X0116320Y0258611D01*
X0114745Y0174885D02*
X0114745Y0166485D01*
X0119145Y0166485D01*
X0119145Y0174885D01*
X0114745Y0174885D01*
X0110877Y0174885D02*
X0106477Y0174885D01*
X0106477Y0166485D01*
X0110877Y0166485D01*
X0110877Y0174885D01*
D13*
X0215764Y0166748D02*
X0263008Y0166748D01*
X0263008Y0245488D01*
X0215764Y0245488D01*
X0215764Y0166748D01*
X0288598Y0166748D02*
X0326000Y0166748D01*
X0345685Y0166748D01*
X0345685Y0206118D01*
X0345685Y0245488D01*
X0326000Y0245488D01*
X0326000Y0206118D01*
X0326000Y0166748D01*
X0326000Y0245488D02*
X0288598Y0245488D01*
X0288598Y0166748D01*
D14*
X0326000Y0206118D02*
X0345685Y0206118D01*
X0246876Y0134159D02*
X0222191Y0134159D01*
X0222191Y0124278D01*
X0246876Y0124278D01*
X0246876Y0134159D01*
D15*
X0243597Y0148894D02*
X0244431Y0149728D01*
X0243597Y0148894D02*
X0241929Y0148894D01*
X0241095Y0149728D01*
X0241095Y0150562D01*
X0241929Y0151396D01*
X0243597Y0151396D01*
X0244431Y0152230D01*
X0244431Y0153064D01*
X0243597Y0153898D01*
X0241929Y0153898D01*
X0241095Y0153064D01*
X0238631Y0153064D02*
X0236963Y0151396D01*
X0236963Y0148894D01*
X0236963Y0151396D02*
X0235295Y0153064D01*
X0235295Y0153898D01*
X0232830Y0153898D02*
X0229495Y0148894D01*
X0229495Y0153898D01*
X0227030Y0153064D02*
X0227030Y0149728D01*
X0226196Y0148894D01*
X0224528Y0148894D01*
X0223694Y0149728D01*
X0223694Y0153064D02*
X0224528Y0153898D01*
X0226196Y0153898D01*
X0227030Y0153064D01*
X0232830Y0153898D02*
X0232830Y0148894D01*
X0238631Y0153064D02*
X0238631Y0153898D01*
X0083622Y0267940D02*
X0082788Y0267106D01*
X0079452Y0267106D01*
X0078619Y0267940D01*
X0078619Y0269608D01*
X0079452Y0270441D01*
X0078619Y0272906D02*
X0078619Y0276242D01*
X0078619Y0278706D02*
X0083622Y0278706D01*
X0081120Y0279540D02*
X0078619Y0282042D01*
X0080286Y0278706D02*
X0083622Y0282042D01*
X0083622Y0290307D02*
X0083622Y0291974D01*
X0083622Y0291141D02*
X0078619Y0291141D01*
X0078619Y0291974D02*
X0078619Y0290307D01*
X0079452Y0294173D02*
X0078619Y0295007D01*
X0078619Y0296675D01*
X0079452Y0297509D01*
X0082788Y0297509D01*
X0083622Y0296675D01*
X0083622Y0295007D01*
X0082788Y0294173D01*
X0079452Y0294173D01*
X0078619Y0272906D02*
X0083622Y0272906D01*
X0082788Y0270441D02*
X0083622Y0269608D01*
X0083622Y0267940D01*
X0067040Y0216800D02*
X0067874Y0215967D01*
X0067874Y0214299D01*
X0067040Y0213465D01*
X0063704Y0213465D01*
X0062870Y0214299D01*
X0062870Y0215967D01*
X0063704Y0216800D01*
X0067040Y0216800D01*
X0067874Y0211266D02*
X0067874Y0209598D01*
X0067874Y0210432D02*
X0062870Y0210432D01*
X0062870Y0209598D02*
X0062870Y0211266D01*
X0062870Y0201333D02*
X0067874Y0197998D01*
X0067874Y0195533D02*
X0063704Y0195533D01*
X0062870Y0194699D01*
X0062870Y0193031D01*
X0063704Y0192197D01*
X0067874Y0192197D01*
X0066206Y0189733D02*
X0062870Y0189733D01*
X0065372Y0189733D02*
X0065372Y0186397D01*
X0066206Y0186397D02*
X0062870Y0186397D01*
X0066206Y0186397D02*
X0067874Y0188065D01*
X0066206Y0189733D01*
X0062870Y0197998D02*
X0067874Y0201333D01*
X0079054Y0317627D02*
X0078221Y0318461D01*
X0078221Y0320129D01*
X0079054Y0320963D01*
X0082390Y0320963D01*
X0083224Y0320129D01*
X0083224Y0318461D01*
X0082390Y0317627D01*
X0079054Y0317627D01*
X0078221Y0323162D02*
X0078221Y0324830D01*
X0078221Y0323996D02*
X0083224Y0323996D01*
X0083224Y0324830D02*
X0083224Y0323162D01*
X0082390Y0333094D02*
X0083224Y0333928D01*
X0083224Y0335596D01*
X0082390Y0336430D01*
X0080722Y0335596D02*
X0080722Y0333928D01*
X0081556Y0333094D01*
X0082390Y0333094D01*
X0080722Y0335596D02*
X0079888Y0336430D01*
X0079054Y0336430D01*
X0078221Y0335596D01*
X0078221Y0333928D01*
X0079054Y0333094D01*
X0078221Y0338895D02*
X0083224Y0338895D01*
X0080722Y0338895D02*
X0080722Y0342230D01*
X0078221Y0342230D02*
X0083224Y0342230D01*
D16*
X0239386Y0206118D03*
D17*
X0224689Y0260646D03*
X0149492Y0307299D03*
D18*
X0250332Y0143231D02*
X0251510Y0142642D01*
X0252688Y0141464D01*
X0250921Y0141464D01*
X0250332Y0140875D01*
X0250332Y0140286D01*
X0250921Y0139697D01*
X0252099Y0139697D01*
X0252688Y0140286D01*
X0252688Y0141464D01*
X0254320Y0143231D02*
X0255498Y0143231D01*
X0254909Y0143231D02*
X0254909Y0140286D01*
X0255498Y0139697D01*
X0256087Y0139697D01*
X0256676Y0140286D01*
X0323441Y0297457D02*
X0323441Y0308480D01*
X0340370Y0308480D01*
X0340370Y0297457D01*
X0323441Y0297457D01*
D19*
X0338303Y0305528D03*
D20*
X0336236Y0267535D03*
X0328362Y0267535D03*
D21*
X0330001Y0275759D02*
X0330001Y0279062D01*
X0332203Y0279062D02*
X0330001Y0275759D01*
X0332203Y0275759D02*
X0332203Y0279062D01*
X0333684Y0278512D02*
X0334235Y0279062D01*
X0335336Y0279062D01*
X0335886Y0278512D01*
X0335886Y0276310D01*
X0335336Y0275759D01*
X0334235Y0275759D01*
X0333684Y0276310D01*
X0333684Y0278512D01*
D22*
X0233283Y0334661D03*
M02*
