M48
;GenerationSoftware,Autodesk,EAGLE,9.5.1*%
;CreationDate,2023-01-28T18:29:07Z*%
FMAT,2
ICI,OFF
METRIC,TZ,000.000
T12C0.200
T11C0.300
T10C0.350
T9C0.400
T8C0.700
T7C0.710
T6C0.800
T5C1.321
T4C1.800
T3C2.300
T2C2.692
T1C2.700
%
G90
M71
T1
X-54600Y76500
X26900Y133050
X26900Y76500
X-54600Y133050
X26900Y2500
X26900Y59050
X-54600Y59050
X-54600Y2500
T2
X81468Y62996
X-32Y62996
X-32Y136996
X-32Y74004
X-32Y4
X81468Y136996
X81468Y74004
X81468Y4
T3
X-58400Y29100
X23100Y83900
X23100Y103100
X-58400Y9900
X-58400Y103100
X23100Y9900
X23100Y29100
X-58400Y83900
T4
X20600Y100500
X20600Y86500
X-60900Y26500
X20600Y12500
X20600Y26500
X-60900Y86500
X-60900Y100500
X-60900Y12500
T5
X-1050Y132691
X2000Y78335
X2000Y4335
X-1050Y58691
X80450Y132691
X83500Y78335
X83500Y4335
X80450Y58691
T6
X16730Y55770
X18000Y49500
X19270Y48230
X19270Y50770
X16730Y50770
X-63500Y118500
X-64770Y117230
X-62230Y117230
X-62230Y119770
X-64770Y119770
X-63500Y109500
X-64770Y108230
X-62230Y108230
X-62230Y110770
X-64770Y110770
X-63500Y114000
X-64770Y112730
X-62230Y112730
X-62230Y115270
X-64770Y115270
X-63500Y128500
X-64770Y127230
X-62230Y127230
X-62230Y129770
X-64770Y129770
X-63500Y123500
X-64770Y122230
X16730Y48230
X-62230Y122230
X-62230Y124770
X-64770Y124770
X18000Y118500
X16730Y117230
X19270Y117230
X19270Y119770
X16730Y119770
X18000Y109500
X16730Y108230
X19270Y110770
X16730Y110770
X18000Y114000
X16730Y112730
X19270Y112730
X19270Y115270
X16730Y115270
X18000Y128500
X16730Y127230
X19270Y127230
X19270Y129770
X16730Y129770
X18000Y123500
X16730Y122230
X19270Y122230
X19270Y124770
X16730Y124770
X-63500Y44500
X-64770Y43230
X-62230Y43230
X-62230Y45770
X-64770Y45770
X-63500Y35500
X-64770Y34230
X-62230Y34230
X-62230Y36770
X-64770Y36770
X-63500Y40000
X-64770Y38730
X-62230Y38730
X-62230Y41270
X-64770Y41270
X-63500Y54500
X-64770Y53230
X-62230Y53230
X-62230Y55770
X-64770Y55770
X-63500Y49500
X-64770Y48230
X-62230Y48230
X-62230Y50770
X-64770Y50770
X19270Y108230
X18000Y44500
X16730Y43230
X19270Y43230
X19270Y45770
X16730Y45770
X18000Y35500
X16730Y34230
X19270Y34230
X19270Y36770
X16730Y36770
X18000Y40000
X16730Y38730
X19270Y38730
X19270Y41270
X16730Y41270
X18000Y54500
X16730Y53230
X19270Y53230
X19270Y55770
T7
X-18733Y4763
X-21273Y3492
X64037Y3492
X60227Y78763
X-17463Y77493
X-17463Y78763
X-18733Y77493
X-18733Y78763
X-20003Y77493
X-20003Y78763
X-21273Y77493
X-21273Y78763
X-21273Y4763
X65307Y3492
X65307Y4763
X64037Y4763
X62767Y3492
X62767Y4763
X61497Y3492
X61497Y4763
X60227Y3492
X60227Y4763
X-18733Y3492
X-17463Y4763
X-16192Y3492
X-17463Y3492
X-16192Y4763
X-20003Y3492
X-20003Y4763
X-16192Y77493
X-16192Y78763
X65307Y77493
X65307Y78763
X64037Y77493
X64037Y78763
X62767Y77493
X62767Y78763
X61497Y77493
X61497Y78763
X60227Y77493
T8
X47100Y98773
X50400Y24700
X-12395Y110195
X47600Y18700
X-12395Y36195
X-11868Y46093
X-37500Y137700
X69632Y46093
X28100Y102300
X59700Y120600
X28100Y28300
X69105Y110195
X49782Y123132
X-27150Y133750
X-27150Y59750
X62850Y39850
X71900Y27100
X44000Y63700
X54900Y64300
X54350Y59750
X-37950Y52550
X-31718Y49132
X-26600Y138300
X-37500Y63700
X54900Y138300
X59700Y46600
X49782Y49132
X-26600Y64300
X47600Y92700
X-37950Y126550
X44000Y137700
X71900Y101100
X-11868Y120093
X-9600Y27100
X-34400Y98773
X-31100Y98700
X-18650Y113850
X69632Y120093
X62850Y113850
X54350Y133750
X43550Y52550
X-33900Y18700
X50400Y98700
X-18650Y39850
X-33900Y92700
X43550Y126550
X-21800Y120600
X-31100Y24700
X-21800Y46600
X-53400Y28300
X-8050Y35457
X-8050Y109457
X-53400Y102300
X73450Y109457
X-31718Y123132
X73450Y35457
X69105Y36195
X47100Y24773
X-9600Y101100
X-34400Y24773
T9
X71000Y5300
X45800Y18250
X-40160Y48350
X45412Y38700
X31700Y38400
X35600Y34452
X46650Y15300
X84700Y49300
X88500Y53100
X88500Y49400
X41100Y12300
X41500Y17600
X80300Y57500
X40950Y10150
X-34000Y10100
X-29600Y16700
X-35000Y21700
X41340Y48350
X45600Y9317
X8200Y60900
X613Y57300
X46700Y5600
X49200Y2100
X-28800Y14700
X-32800Y26600
X54400Y2100
X49300Y-1000
X48500Y13300
X-25100Y8200
X-23200Y9200
X-23100Y8100
X3200Y123300
X7000Y127100
X7000Y123400
X-1200Y131500
X-32300Y76100
X-27100Y76100
X-32200Y73000
X-29400Y113400
X-28841Y110359
X-25200Y112800
X-43541Y114259
X-41100Y124400
X-41520Y123160
X-2400Y131500
X-24200Y133400
X-21950Y111650
X-23200Y136400
X-6200Y72200
X-10500Y79300
X8200Y134900
X613Y131300
X-28800Y88700
X-32800Y100600
X-25100Y82200
X-23200Y83200
X-23100Y82100
X-24000Y82200
X-27400Y111800
X-29400Y116000
X-42700Y116000
X-8700Y82700
X-6400Y81500
X-7500Y81500
X-8700Y81500
X-23200Y84000
X-8700Y83800
X-25800Y111700
X-29700Y76400
X-26400Y78100
X2000Y129600
X1900Y128300
X700Y129600
X-21900Y133400
X-4200Y130900
X-3000Y129600
X-9100Y72100
X-8200Y78600
X-500Y129600
X-36088Y112700
X-49800Y112400
X-45900Y108452
X-37350Y132550
X5700Y126000
X5700Y124500
X-44500Y110100
X-44067Y92800
X-35900Y80700
X-44100Y86800
X-35000Y80600
X-34000Y95600
X-36100Y98800
X-41000Y105500
X-35500Y108200
X-39800Y104000
X-31600Y104000
X-37400Y99600
X-35700Y92250
X58300Y10000
X-40400Y86300
X-40000Y91600
X-40550Y84150
X-34800Y79600
X-33000Y87300
X-32900Y90300
X-35900Y83317
X-41400Y87200
X-35900Y95900
X-40100Y106400
X-35700Y87900
X-37600Y108400
X-33000Y106800
X-39100Y107400
X-34000Y84100
X-29600Y90700
X-35000Y95700
X-32500Y83500
X-40160Y122350
X-17950Y119550
X55500Y89300
X56000Y90700
X51700Y103300
X49600Y99200
X55600Y92000
X31700Y110400
X28200Y115700
X42100Y116000
X31200Y109000
X56500Y114900
X84700Y123300
X88500Y127100
X88500Y123400
X80300Y131500
X49200Y76100
X54400Y76100
X49300Y73000
X52100Y113400
X52659Y110359
X56300Y112800
X37959Y114259
X40400Y124400
X39980Y123160
X79100Y131500
X57300Y133400
X59550Y111650
X58300Y136400
X75300Y72200
X71000Y79300
X89700Y134900
X82113Y131300
X52700Y88700
X48700Y100600
X56400Y82200
X58300Y83200
X58400Y82100
X57500Y82200
X54100Y111800
X52100Y116000
X38800Y116000
X72800Y82700
X75100Y81500
X74000Y81500
X72800Y81500
X58300Y84000
X72800Y83800
X55700Y111700
X51800Y76400
X55100Y78100
X83500Y129600
X83400Y128300
X82200Y129600
X59600Y133400
X77300Y130900
X78500Y129600
X72400Y72100
X73300Y78600
X81000Y129600
X45412Y112700
X31700Y112400
X35600Y108452
X44150Y132550
X87200Y126000
X87200Y124500
X37000Y110100
X37433Y92800
X45600Y80700
X37400Y86800
X46500Y80600
X47500Y95600
X45400Y98800
X40500Y105500
X46000Y108200
X41700Y104000
X49900Y104000
X44100Y99600
X45800Y92250
X46650Y89300
X41100Y86300
X41500Y91600
X40950Y84150
X46700Y79600
X48500Y87300
X48600Y90300
X45600Y83317
X40100Y87200
X45600Y95900
X41400Y106400
X45800Y87900
X43900Y108400
X48500Y106800
X42400Y107400
X47500Y84100
X51900Y90700
X46500Y95700
X49000Y83500
X41340Y122350
X63550Y119550
X-24000Y8200
X-27400Y37800
X-29400Y42000
X-42700Y42000
X-8700Y8700
X-6400Y7500
X-7500Y7500
X-8700Y7500
X48600Y16300
X40100Y13200
X-23200Y10000
X-8700Y9800
X-25800Y37700
X45600Y21900
X52100Y39400
X52659Y36359
X56300Y38800
X37959Y40259
X-29700Y2400
X-26400Y4100
X40400Y50400
X41400Y32400
X57300Y59400
X-26000Y15300
X-25500Y16700
X-29800Y29300
X-31900Y25200
X-25900Y18000
X2000Y55600
X1900Y54300
X700Y55600
X-21900Y59400
X-4200Y56900
X-3000Y55600
X-9100Y-1900
X-8200Y4600
X-41520Y49160
X-500Y55600
X44150Y58550
X-2400Y57500
X-49800Y36400
X-53300Y41700
X-39400Y42000
X-36088Y38700
X-50300Y35000
X-25000Y40900
X-49800Y38400
X-45900Y34452
X-32500Y9500
X45800Y13900
X-31900Y99200
X-25900Y92000
X43900Y34400
X63550Y45550
X-37350Y58550
X48500Y32800
X87200Y52000
X87200Y50500
X37000Y36100
X-50300Y109000
X47500Y10100
X59550Y37650
X51900Y16700
X46500Y21700
X-49800Y110400
X89700Y60900
X-24200Y59400
X5700Y52000
X5700Y50500
X-44500Y36100
X82113Y57300
X-53300Y115700
X-39400Y116000
X-32300Y2100
X-27100Y2100
X-32200Y-1000
X52700Y14700
X48700Y26600
X58300Y62400
X55500Y15300
X-29400Y39400
X-28841Y36359
X-25200Y38800
X-43541Y40259
X-41100Y50400
X56000Y16700
X51700Y29300
X-44067Y18800
X-35900Y6700
X-44100Y12800
X-34850Y89300
X-35000Y6600
X-34000Y21600
X-36100Y24800
X-41000Y31500
X-35500Y34200
X-39800Y30000
X49600Y25200
X-31600Y30000
X-37400Y25600
X55600Y18000
X49000Y9500
X-21950Y37650
X-25000Y114900
X-35700Y18250
X-34850Y15300
X-40400Y12300
X-40000Y17600
X-40550Y10150
X37433Y18800
X56400Y8200
X58300Y9200
X-23200Y62400
X58400Y8100
X-34800Y5600
X-33000Y13300
X-32900Y16300
X57500Y8200
X54100Y37800
X52100Y42000
X38800Y42000
X72800Y8700
X75100Y7500
X74000Y7500
X72800Y7500
X31700Y36400
X28200Y41700
X42100Y42000
X45600Y6700
X31200Y35000
X56500Y40900
X37400Y12800
X72800Y9800
X55700Y37700
X46500Y6600
X47500Y21600
X39980Y49160
X45400Y24800
X40500Y31500
X46000Y34200
X79100Y57500
X51800Y2400
X55100Y4100
X41700Y30000
X42400Y33400
X49900Y30000
X-35900Y9317
X-41400Y13200
X-35900Y21900
X-40100Y32400
X-6200Y-1800
X-10500Y5300
X-35700Y13900
X44100Y25600
X-26000Y89300
X-37600Y34400
X-25500Y90700
X83500Y55600
X83400Y54300
X82200Y55600
X59600Y59400
X-33000Y32800
X77300Y56900
X78500Y55600
X-17950Y45550
X72400Y-1900
X73300Y4600
X81000Y55600
X-39100Y33400
X-29800Y103300
X3200Y49300
X7000Y53100
X7000Y49400
X75300Y-1800
X-1200Y57500
T10
X-41400Y92200
X3300Y50603
X-33967Y6067
X84800Y50603
X3300Y124603
X40100Y92200
X47533Y80067
X-41400Y18200
X47533Y6067
X84800Y124603
X40100Y18200
X-33967Y80067
T11
X-49000Y109000
X75200Y137000
X-18150Y117200
X34100Y108800
X32500Y109000
X34100Y34800
X-18150Y43200
X66976Y130798
X66976Y134548
X-49000Y35000
X44004Y129954
X-6300Y137000
X-47400Y108800
X-14524Y134548
X75200Y63000
X69601Y134548
X-47400Y34800
X-14524Y60548
X69601Y60548
X-14524Y56798
X-37496Y55954
X-37496Y129954
X-11899Y134548
X66976Y60548
X63350Y117200
X-14524Y130798
X66976Y56798
X63350Y43200
X44004Y55954
X-6300Y63000
X32500Y35000
X-11899Y60548
T12
X-500Y26300
X-500Y23800
X800Y23800
X2100Y23800
X2000Y22400
X-1800Y21200
X700Y21200
X5700Y21300
X-500Y53100
X-3100Y53900
X-300Y57600
X3300Y56800
X5100Y57100
X600Y51700
X-1800Y51800
X700Y47700
X-500Y46100
X7100Y28800
X5800Y26400
X7100Y26400
X3200Y26500
X-500Y21200
X-600Y18700
X-1900Y18700
X-3100Y19700
X2000Y18700
X4600Y16500
X7100Y16400
X7100Y18800
X-1800Y16200
X600Y16300
X-500Y16300
X-3100Y15000
X-600Y14900
X-3100Y13600
X-3000Y12400
X-3100Y11100
X-3100Y9800
X900Y12400
X3200Y11300
X2600Y6100
X4750Y7350
X7000Y7400
X7100Y8700
X7200Y10000
X5900Y11300
X-4000Y8700
X100Y5800
X1200Y8600
X200Y11200
X-1700Y9000
X-2400Y6100
X-4300Y7300
X7000Y6100
X4600Y6100
X7100Y12500
X7100Y13700
X2100Y16300
X-1800Y12500
X-4200Y12400
X7000Y23600
X7000Y25200
X7100Y15000
X-7650Y51250
X-6570Y50230
X-6220Y49930
X-5900Y49610
X-5550Y49280
X-4200Y47900
X-4900Y48600
X-6930Y50620
X-29200Y11300
X-21500Y53900
X-24000Y53900
X-23200Y55100
X-24600Y55000
X-25700Y53400
X-28000Y48500
X-40600Y60700
X-40700Y59100
X-38900Y59200
X-43200Y62100
X-43200Y59100
X-29400Y31100
X-27800Y29600
X-4800Y11300
X-24400Y17800
X-24800Y15900
X-25200Y14500
X-26400Y7900
X-27300Y8400
X-9150Y35300
X-4200Y39300
X-5500Y56800
X-7300Y59000
X-7860Y59390
X5900Y60300
X-1880Y46060
X-3050Y46010
X-3040Y42550
X-61200Y5000
X-29300Y3800
X-30700Y-900
X-36300Y1000
X-2800Y-800
X3750Y3150
X3300Y800
X9010Y3910
X2100Y2700
X-57650Y8050
X-62850Y7750
X-61000Y10200
X-58900Y22900
X-58900Y26200
X-63400Y25600
X-61700Y28500
X-55900Y30300
X-51500Y31100
X-54300Y41500
X-57800Y42000
X-57800Y38300
X-23200Y59600
X-26000Y61600
X-29100Y62400
X-46100Y39300
X-48500Y40600
X-40700Y40200
X-34900Y40700
X-38700Y41500
X-29000Y25200
X-63100Y5000
X-59100Y5000
X-57100Y5000
X-55100Y5000
X-54200Y5000
X-51500Y2300
X7100Y32400
X-4200Y43800
X-54500Y51500
X-26300Y62800
X-21600Y61800
X-48300Y62800
X-36400Y59250
X-36350Y58800
X-38950Y56650
X-40200Y56400
X-41050Y56300
X-42650Y56950
X-39700Y57950
X-32800Y63700
X-32000Y63700
X-32000Y62900
X-32400Y63300
X-35100Y56600
X-34200Y56000
X-35100Y52300
X-32600Y56700
X-31700Y51900
X-22900Y43900
X-21950Y43550
X-20600Y43400
X-19350Y43600
X-19550Y44450
X-21750Y44900
X-41250Y57600
X-16800Y46350
X-16850Y45900
X-20600Y44950
X-23300Y46650
X-19450Y45250
X-21170Y45810
X-7320Y50950
X-5190Y48920
X-17320Y46130
X-17660Y46480
X-15602Y39509
X-15462Y43979
X-12812Y43949
X-10782Y43749
X-15550Y41600
X-35050Y54350
X-22300Y53950
X-21900Y54150
X-22800Y54000
X-23300Y54000
X-21100Y54100
X-61100Y19800
X-63200Y11800
X-59000Y13100
X-56600Y14200
X5800Y14950
X4500Y12450
X4500Y13750
X3300Y22550
X4550Y23900
X4550Y25150
X5850Y20050
X5750Y18800
X4500Y18750
X4550Y9850
X5850Y8600
X3250Y8650
X3300Y17550
X4550Y21300
X7050Y22600
X3250Y30150
X2200Y31500
X5800Y31450
X4500Y15100
X3350Y15000
X5850Y28950
X4500Y27650
X3300Y28950
X5850Y30300
X3250Y25100
X7100Y21350
X-18750Y53450
X-18500Y53150
X-21600Y-2300
X-19600Y-2300
X-17600Y-2300
X-15600Y-2300
X-13600Y-2300
X-11600Y-2300
X-21650Y450
X-23620Y530
X-25450Y1700
X-23850Y4450
X-11050Y4700
X-15100Y5200
X-22550Y5300
X-12920Y3580
X-18810Y2270
X-19050Y700
X-20250Y1100
X-17270Y1240
X-16720Y2020
X-15500Y2520
X-23580Y2650
X-13170Y5370
X-22050Y1850
X-12950Y2350
X-13970Y4570
X-12370Y4670
X-22480Y3950
X-12800Y1500
X-20650Y5400
X-19350Y5400
X-18150Y5400
X-16750Y5400
X-3200Y3600
X-6500Y4400
X-5200Y-1000
X-25420Y3430
X-51300Y54300
X-50400Y52600
X-44800Y43800
X-57500Y52400
X-61200Y56600
X-42100Y56100
X-4500Y13800
X-5900Y27300
X-5800Y28200
X-6000Y29200
X-5700Y26100
X-6800Y33000
X-4800Y33000
X-21900Y35900
X-19200Y35500
X4500Y53100
X4500Y51700
X5800Y48000
X5800Y55600
X4600Y55600
X-10882Y40949
X-11982Y39049
X-29950Y61550
X-30450Y61550
X-27550Y57800
X-30950Y61550
X3200Y62100
X-24252Y35624
X3300Y42900
X8900Y42900
X-39300Y48400
X-43600Y46600
X-33200Y400
X-25200Y40000
X-26300Y9500
X-29300Y10000
X-29900Y14500
X-4310Y62448
X-16000Y35800
X-6400Y60100
X-8000Y65400
X3300Y31700
X-31500Y41700
X2200Y29100
X-43700Y41400
X-46800Y35500
X4100Y30300
X-35600Y50200
X900Y42700
X-3300Y43000
X-4600Y43200
X5600Y45400
X4526Y45137
X-31500Y38900
X-4300Y29600
X-44700Y39000
X-4100Y27500
X-33450Y58500
X-34802Y48601
X-38500Y48048
X-38300Y46200
X-34850Y58200
X-34400Y61350
X-15000Y55500
X-14000Y55300
X-15000Y55000
X-14400Y55000
X-14500Y55500
X-14600Y56200
X-13900Y56780
X-15200Y56700
X-13700Y55000
X-13274Y56798
X-14649Y62048
X-12024Y59298
X-10900Y61800
X-3000Y41000
X-37800Y48800
X-23600Y47300
X-37300Y47500
X800Y50400
X-28902Y60952
X-38400Y34000
X-45750Y8600
X-45750Y7150
X-45700Y5450
X-51700Y27800
X-43600Y31400
X-39700Y35200
X-46500Y31400
X-41800Y33100
X-48100Y6350
X-50400Y8650
X-51500Y10050
X-55600Y19250
X-55600Y20700
X-55600Y23500
X-55600Y24600
X-55600Y26800
X-51800Y25400
X-47600Y17364
X-51478Y18507
X-47800Y9800
X-45700Y10000
X-45700Y15700
X-45700Y20800
X-46900Y14900
X-51200Y28300
X-50500Y29000
X-48700Y30800
X-30100Y31000
X-31300Y32100
X-30700Y30400
X-46713Y23122
X-51550Y15100
X-51420Y17150
X-47850Y23500
X-37452Y50400
X-36600Y47600
X-24100Y47700
X2200Y40200
X-17733Y7627
X-14167Y7627
X-18600Y8050
X-13600Y8000
X-40300Y13300
X-42420Y26640
X-11600Y26400
X-14600Y26400
X-37550Y29100
X-36650Y30000
X-34500Y30000
X-33700Y30800
X-33650Y29200
X-35600Y31100
X-34750Y28100
X-36500Y28000
X-35600Y28900
X-51800Y26100
X-50000Y26500
X-51695Y19314
X-51662Y12700
X-49462Y12200
X-49300Y19000
X-34850Y31850
X-46979Y26086
X-47722Y19443
X-44150Y27050
X-47475Y12343
X-28300Y8100
X-4300Y19700
X-26300Y19900
X-2800Y18600
X-26300Y19300
X-4100Y18600
X-26300Y18600
X-26300Y12000
X900Y17700
X-28900Y11900
X-3000Y21700
X-29600Y22200
X-30200Y24500
X-1996Y22404
X-31988Y9188
X-3000Y21000
X-32400Y21900
X-33300Y22300
X-4703Y21700
X-38700Y6900
X-44100Y7271
X-39325Y7075
X-44200Y7750
X-40200Y7000
X-44200Y8250
X-4200Y10100
X-26400Y5451
X-3100Y8600
X-26400Y4800
X-17113Y26600
X-20100Y26700
X-22700Y26600
X-25100Y25900
X-48500Y29600
X-51200Y25107
X-48100Y29200
X-47416Y24607
X-46600Y27700
X-51425Y21093
X-1800Y23300
X-30210Y26804
X-4400Y25800
X-28900Y28700
X-3000Y24100
X-29400Y27500
X-2900Y25300
X-28918Y28100
X900Y22800
X-33982Y26618
X-45800Y28400
X-47616Y20407
X-46200Y27300
X-51425Y17814
X-47700Y28800
X-47016Y26693
X-48900Y30000
X-51200Y27200
X-45400Y27700
X-47016Y17607
X-2500Y52500
X-23500Y58600
X-4300Y52600
X-24300Y58200
X-2900Y51800
X-24500Y57752
X2200Y49100
X-24950Y57452
X2200Y41400
X-36860Y50160
X-31700Y31200
X-47400Y10700
X-32000Y31600
X-47278Y13543
X-32349Y31949
X-51450Y10900
X-32688Y32288
X-51584Y13693
X-8100Y63400
X-15800Y64400
X-11691Y64009
X-10300Y61000
X-1600Y53000
X-15600Y60400
X-6500Y56000
X-4100Y54300
X-15700Y57000
X-6500Y55300
X2000Y53000
X-7970Y64650
X-1800Y54000
X-5900Y61700
X1000Y53000
X-4900Y64156
X-3800Y60100
X-17000Y61500
X3200Y46500
X-4300Y31100
X-28100Y40800
X-55500Y25500
X-50200Y23400
X-51600Y24434
X-47400Y27422
X-51200Y23900
X-47847Y24288
X-1700Y29900
X-49700Y27453
X-400Y30000
X-49517Y23417
X-49000Y28500
X-3000Y29900
X-39600Y32897
X-47200Y28600
X-1700Y31200
X-48800Y23400
X-48400Y21700
X-46016Y19214
X-51404Y21921
X-50083Y16217
X-52000Y21100
X-47617Y13883
X-52000Y20500
X-48200Y9300
X-52004Y19800
X-50200Y9500
X2100Y28000
X-49600Y21500
X1000Y27500
X-49000Y21500
X-300Y17700
X-49003Y16419
X800Y19100
X-49850Y13793
X-1600Y17800
X-49100Y14600
X2100Y20500
X-49061Y9561
X-3000Y16500
X-49583Y16417
X-1745Y11195
X-33200Y-200
X-3145Y7265
X-33100Y1100
X-1700Y10100
X-27600Y-1100
X-15900Y56050
X-50600Y50700
X-54053Y50700
X-400Y33800
X-15818Y36401
X-1800Y33500
X-16167Y37367
X-6300Y33500
X-18400Y36848
X-6900Y33900
X-17700Y36400
X-9400Y44950
X-4000Y50400
X-25600Y56500
X-3000Y45000
X-25600Y50800
X800Y48700
X-24250Y57000
X-2800Y49100
X-25000Y56000
X-4000Y49200
X-25600Y55500
X2200Y47800
X-25000Y54500
X-1850Y47450
X-25600Y54100
X1000Y46600
X-25300Y53000
X2100Y45300
X-25000Y52200
X-4500Y46600
X-25550Y51700
X900Y45200
X-25050Y51200
X-4300Y45000
X-25200Y50200
X2100Y44100
X-25650Y49800
X-3000Y43800
X-28500Y49300
X-4200Y42700
X-29100Y48800
X-500Y40100
X-6346Y41954
X3400Y39400
X-7100Y41800
X3400Y38800
X-7200Y41300
X-400Y37600
X-9100Y39700
X-1700Y37600
X-9100Y39200
X3500Y36400
X-8800Y38700
X-300Y36300
X-9200Y38100
X3500Y35100
X-8700Y37600
X-1800Y34900
X-10000Y37200
X-4400Y34700
X-9600Y36700
X4600Y34000
X-9000Y36119
X-11530Y3660
X-11880Y1960
X-18098Y2952
X-11680Y1260
X-12180Y1260
X-19368Y2880
X-12160Y350
X-20638Y2833
X-11880Y3060
X-16828Y2664
X900Y13900
X-10130Y-1520
X2200Y13900
X-9600Y-1450
X-1600Y13800
X-9000Y4600
X-400Y12600
X-5700Y800
X-500Y13800
X-5700Y1800
X-1700Y15100
X-9900Y4600
X900Y11300
X-5400Y300
X1600Y10000
X-5700Y-200
X-11680Y2460
X-11640Y350
X5800Y39900
X4700Y39000
X-16515Y35107
X3300Y19600
X-49700Y9600
X-3094Y28400
X-500Y24600
X2100Y51500
X-5600Y63700
X500Y54300
X-2100Y65400
X-32944Y3844
X-53500Y17913
X-33356Y4156
X-53000Y18500
X-33356Y5356
X-52160Y16500
X-32744Y6144
X-52500Y17200
X-35634Y1679
X-53900Y16007
X-35634Y2221
X-53700Y15300
X-35400Y-600
X-54642Y13938
X-35600Y-1100
X-55200Y14700
X-3000Y32200
X-26600Y40800
X-34500Y49700
X-27550Y54850
X-31600Y11100
X-14682Y37368
X-8200Y42148
X-13950Y45950
X-31446Y58446
X-27600Y53400
X-8202Y40749
X-36350Y59950
X-16527Y46974
X-34921Y59879
X-15321Y46952
X-20400Y46000
X-20100Y46400
X-19800Y46800
X-19800Y46000
X-19500Y46400
X-19250Y46800
X-19250Y46000
X-20400Y46750
X-27950Y52600
X-27450Y52600
X-26900Y52600
X-26400Y52600
X-27100Y53450
X-26450Y53450
X-35850Y59950
X-35400Y59950
X-42600Y53000
X-41900Y53000
X-41900Y52300
X-42600Y52300
X-17077Y46974
X-16050Y47000
X-7702Y40699
X-7152Y40649
X-23250Y40350
X-22700Y40350
X-22700Y39550
X-23250Y39550
X4050Y7260
X1150Y7220
X-55400Y13500
X-29800Y-1500
X-55940Y13540
X-29800Y-2200
X900Y15200
X-7300Y4500
X-8800Y28300
X-8900Y29100
X-9400Y29397
X-1100Y27600
X-8800Y27700
X-8700Y26900
X-8872Y26150
X-400Y22400
X500Y27900
X-1700Y26300
X65726Y59198
X65726Y58248
X64376Y58248
X64476Y59298
X63851Y59198
X70726Y59598
X71351Y59923
X71201Y57648
X71351Y58423
X71826Y57648
X71901Y59823
X72076Y58273
X71676Y59123
X72601Y57723
X72851Y58323
X63576Y58148
X63101Y59173
X63151Y58523
X47200Y54300
X47300Y52700
X48900Y52700
X50500Y52700
X50500Y56000
X48900Y54300
X51100Y56700
X74476Y63723
X72326Y59073
X63876Y58648
X62451Y59023
X62500Y58300
X72600Y59900
X72900Y59100
X71676Y56973
X50000Y22100
X53100Y22700
X53600Y22400
X52800Y18000
X52264Y13400
X52700Y10800
X51300Y9200
X48900Y56000
X50500Y54300
X45300Y35900
X48500Y39100
X34500Y38800
X58600Y14400
X59900Y14300
X59900Y13000
X58600Y13000
X58600Y11800
X59900Y11800
X61200Y11800
X62400Y11800
X63700Y11800
X65000Y11800
X61100Y10500
X61100Y9300
X62400Y10500
X63700Y10500
X65000Y10500
X66300Y10500
X67500Y10500
X68700Y10500
X70000Y10500
X70000Y9200
X70000Y11800
X68700Y11800
X67500Y11800
X66300Y11800
X66200Y13100
X66200Y14400
X67500Y14400
X67500Y13100
X68700Y13100
X71300Y11800
X72700Y11800
X71300Y12900
X70000Y13000
X74000Y10600
X72900Y12600
X68600Y14400
X66200Y15500
X67500Y15500
X65300Y28000
X65400Y27300
X65000Y26500
X60900Y33700
X61700Y33400
X61300Y29200
X59800Y27100
X59900Y26600
X59400Y26600
X52500Y30000
X57000Y33700
X55600Y29200
X59200Y27100
X71000Y27900
X71000Y27200
X66600Y33500
X67400Y33500
X66800Y29100
X23800Y36300
X23800Y40100
X23800Y43900
X36900Y57200
X28100Y61700
X28900Y61000
X28900Y62600
X30000Y62900
X31100Y62800
X33700Y62400
X38400Y63400
X64800Y27000
X91100Y-2300
X37000Y55900
X68700Y28000
X68000Y28000
X68000Y27300
X68700Y27300
X60100Y16500
X57600Y28200
X57600Y27500
X56900Y27500
X56900Y28200
X63200Y28300
X63200Y27500
X62500Y27500
X62500Y28300
X41200Y52200
X40000Y54400
X32900Y55300
X32900Y58200
X33200Y61500
X66800Y39950
X68300Y40000
X69950Y39950
X68300Y43200
X66650Y43250
X69950Y43200
X68300Y41550
X66800Y41550
X70000Y41550
X59400Y41100
X71000Y26700
X70300Y26700
X65400Y26800
X59200Y26100
X59800Y26100
X71100Y26200
X70500Y26200
X68400Y33500
X59900Y34100
X26100Y54300
X27100Y54300
X28100Y54300
X29100Y54300
X31100Y54300
X32100Y54300
X33100Y54300
X34100Y54300
X35100Y54300
X36100Y54300
X25100Y52500
X26100Y52500
X27100Y52500
X28100Y52500
X29100Y52500
X30100Y52500
X32100Y52500
X33100Y52500
X34100Y52500
X35100Y52500
X36100Y52500
X37100Y52500
X91300Y-400
X91300Y1500
X91300Y3500
X91300Y5500
X91300Y7500
X91290Y9440
X91300Y11500
X91300Y14000
X91300Y29500
X91300Y16500
X91300Y19500
X91300Y21500
X91300Y24500
X91300Y27000
X91300Y31500
X91500Y45500
X91300Y33500
X91300Y35500
X91300Y37500
X91300Y39500
X91500Y41500
X91500Y43500
X91500Y47500
X91500Y49500
X91500Y51500
X91500Y53500
X91500Y55500
X91500Y57500
X91500Y59500
X72400Y57100
X70676Y58073
X70976Y58923
X90500Y46600
X90600Y43600
X37200Y54600
X39100Y53900
X37900Y52900
X91500Y65100
X91500Y63500
X91500Y61500
X89900Y65100
X87900Y65100
X85900Y65100
X83900Y65100
X82700Y65200
X79900Y65100
X77000Y65300
X75400Y65200
X70900Y65400
X69900Y65100
X67900Y65100
X65900Y65100
X63900Y65100
X61900Y65100
X59900Y65100
X57900Y65100
X55900Y65100
X53900Y65100
X51900Y65100
X49900Y65100
X45900Y65100
X43900Y65100
X41900Y65100
X38800Y65400
X25900Y46300
X27000Y45600
X27800Y44700
X28900Y44100
X30200Y43800
X31400Y43800
X32900Y43800
X34100Y43800
X35500Y43800
X37800Y43800
X38900Y43800
X40400Y43800
X43400Y43800
X41900Y43800
X44900Y43800
X46400Y43800
X47900Y43800
X49400Y43800
X50900Y43800
X52400Y43800
X53900Y43800
X55400Y43800
X57200Y42300
X58400Y41700
X24700Y46400
X23400Y46600
X28500Y46400
X29400Y45800
X30700Y45500
X32100Y45500
X33600Y45500
X35100Y45500
X36600Y45500
X39600Y45500
X38100Y45500
X41100Y45500
X42600Y45500
X45600Y45500
X47100Y45500
X48600Y45500
X50100Y45500
X51600Y45500
X53100Y45500
X54600Y45500
X56100Y45500
X57100Y45200
X89700Y-2300
X87100Y-2300
X85700Y-2300
X83700Y-2300
X81700Y-2300
X79700Y-2300
X77700Y-2300
X75700Y-2300
X44500Y-2100
X43800Y-1000
X22300Y56600
X24300Y56600
X26300Y56600
X28300Y56600
X16800Y15000
X16800Y13000
X16800Y11000
X16800Y9000
X16800Y7000
X16800Y5000
X16800Y17000
X16800Y19000
X16800Y21000
X16800Y23000
X16800Y25000
X16800Y27000
X16800Y29000
X16800Y31000
X42000Y500
X40000Y500
X38000Y500
X36000Y500
X34000Y500
X32000Y500
X18800Y22500
X20600Y21800
X18600Y16300
X22500Y16000
X25800Y17900
X24800Y17800
X25800Y15800
X24700Y15800
X24900Y19800
X24800Y21600
X25400Y16800
X25880Y12190
X38200Y55500
X44100Y45500
X65300Y9167
X65800Y9167
X30400Y1000
X51500Y4500
X52300Y5300
X52350Y4700
X51900Y4900
X49900Y-2400
X54100Y-2300
X55900Y-2300
X57900Y-2300
X71300Y-2300
X31600Y30400
X32400Y31300
X30500Y29400
X29800Y28600
X37400Y31900
X39300Y33600
X41200Y35600
X27200Y47800
X89900Y63400
X19400Y32400
X85500Y45484
X85900Y54300
X88400Y54300
X87400Y49300
X86100Y49200
X79700Y49300
X79700Y50600
X80900Y47450
X83500Y46700
X87000Y46700
X88500Y46600
X88600Y48000
X88600Y45400
X88500Y44200
X87200Y44200
X87200Y42900
X88700Y43000
X86000Y43000
X83400Y42900
X81000Y42600
X80900Y43700
X82200Y44000
X79600Y39100
X78400Y39100
X82200Y37900
X83600Y37800
X84700Y37800
X84800Y40400
X86000Y37800
X87300Y37800
X87300Y39100
X88600Y39000
X88600Y37900
X88700Y36500
X87300Y36500
X86100Y36600
X83400Y36400
X82200Y36400
X79700Y36100
X78400Y36100
X80900Y35000
X78500Y34700
X83500Y35000
X87300Y35000
X88600Y35300
X84800Y32900
X86100Y32700
X86200Y31400
X88600Y31400
X83400Y32800
X82200Y31500
X80900Y31300
X82200Y30000
X79700Y28600
X79700Y27600
X78300Y27600
X81000Y27700
X79700Y25200
X81000Y25200
X82200Y25200
X83500Y25100
X78400Y26300
X83500Y26300
X81000Y26300
X81000Y23800
X82300Y23800
X83600Y23800
X83500Y22400
X79700Y21200
X82200Y21200
X87200Y21300
X81000Y53100
X78400Y53900
X81200Y57600
X84800Y56800
X86600Y57100
X82100Y51700
X79700Y51800
X82200Y47700
X81000Y46100
X88600Y28800
X87300Y26400
X88600Y26400
X84700Y26500
X81000Y21200
X80900Y18700
X79600Y18700
X78400Y19700
X83500Y18700
X86100Y16500
X88600Y16400
X88600Y18800
X79700Y16200
X82100Y16300
X81000Y16300
X78400Y15000
X80900Y14900
X78400Y13600
X78500Y12400
X78400Y11100
X78400Y9800
X82400Y12400
X84700Y11300
X84100Y6100
X86250Y7350
X88500Y7400
X88600Y8700
X88700Y10000
X87400Y11300
X77500Y8700
X81600Y5800
X82700Y8600
X81700Y11200
X79800Y9000
X79100Y6100
X77200Y7300
X88500Y6100
X86100Y6100
X88600Y12500
X88600Y13700
X83600Y16300
X79700Y12500
X77300Y12400
X88500Y23600
X88500Y25200
X88600Y15000
X73850Y51250
X74930Y50230
X75280Y49930
X75600Y49610
X75950Y49280
X77300Y47900
X76600Y48600
X74570Y50620
X52300Y11300
X60000Y53900
X57500Y53900
X58300Y55100
X56900Y55000
X55800Y53400
X53500Y48500
X40900Y60700
X40800Y59100
X42600Y59200
X38300Y62100
X38300Y59100
X52100Y31100
X53700Y29600
X76700Y11300
X57100Y17800
X56700Y15900
X56300Y14500
X55100Y7900
X54200Y8400
X72350Y35300
X77300Y39300
X76000Y56800
X74200Y59000
X73640Y59390
X87400Y60300
X79620Y46060
X78450Y46010
X78460Y42550
X20300Y5000
X52200Y3800
X50800Y-900
X45200Y1000
X78700Y-800
X85250Y3150
X84800Y800
X90510Y3910
X83600Y2700
X23850Y8050
X18650Y7750
X20500Y10200
X22600Y22900
X22600Y26200
X18100Y25600
X19800Y28500
X25600Y30300
X30000Y31100
X27200Y41500
X23700Y42000
X23700Y38300
X58300Y59600
X55500Y61600
X52400Y62400
X35400Y39300
X33000Y40600
X40800Y40200
X46600Y40700
X42800Y41500
X52500Y25200
X18400Y5000
X22400Y5000
X24400Y5000
X26400Y5000
X27300Y5000
X30000Y2300
X88600Y32400
X77300Y43800
X27000Y51500
X55200Y62800
X59900Y61800
X33200Y62800
X45100Y59250
X45150Y58800
X42550Y56650
X41300Y56400
X40450Y56300
X38850Y56950
X41800Y57950
X48700Y63700
X49500Y63700
X49500Y62900
X49100Y63300
X46400Y56600
X47300Y56000
X46400Y52300
X48900Y56700
X49800Y51900
X58600Y43900
X59550Y43550
X60900Y43400
X62150Y43600
X61950Y44450
X59750Y44900
X40250Y57600
X64700Y46350
X64650Y45900
X60900Y44950
X58200Y46650
X62050Y45250
X60330Y45810
X74180Y50950
X76310Y48920
X64180Y46130
X63840Y46480
X65898Y39509
X66038Y43979
X68688Y43949
X70718Y43749
X65950Y41600
X46450Y54350
X59200Y53950
X59600Y54150
X58700Y54000
X58200Y54000
X60400Y54100
X20400Y19800
X18300Y11800
X22500Y13100
X24900Y14200
X87300Y14950
X86000Y12450
X86000Y13750
X84800Y22550
X86050Y23900
X86050Y25150
X87350Y20050
X87250Y18800
X86000Y18750
X86050Y9850
X87350Y8600
X84750Y8650
X84800Y17550
X86050Y21300
X88550Y22600
X84750Y30150
X83700Y31500
X87300Y31450
X86000Y15100
X84850Y15000
X87350Y28950
X86000Y27650
X84800Y28950
X87350Y30300
X84750Y25100
X88600Y21350
X62750Y53450
X63000Y53150
X59900Y-2300
X61900Y-2300
X63900Y-2300
X65900Y-2300
X67900Y-2300
X69900Y-2300
X59850Y450
X57880Y530
X56050Y1700
X57650Y4450
X70450Y4700
X66400Y5200
X58950Y5300
X68580Y3580
X62690Y2270
X62450Y700
X61250Y1100
X64230Y1240
X64780Y2020
X66000Y2520
X57920Y2650
X68330Y5370
X59450Y1850
X68550Y2350
X67530Y4570
X69130Y4670
X59020Y3950
X68700Y1500
X60850Y5400
X62150Y5400
X63350Y5400
X64750Y5400
X78300Y3600
X75000Y4400
X76300Y-1000
X56080Y3430
X30200Y54300
X31100Y52600
X36700Y43800
X24000Y52400
X20300Y56600
X39400Y56100
X77000Y13800
X75600Y27300
X75700Y28200
X75500Y29200
X75800Y26100
X74700Y33000
X76700Y33000
X59600Y35900
X62300Y35500
X86000Y53100
X86000Y51700
X87300Y48000
X87300Y55600
X86100Y55600
X70618Y40949
X69518Y39049
X51550Y61550
X51050Y61550
X53950Y57800
X50550Y61550
X84700Y62100
X57248Y35624
X84800Y42900
X90400Y42900
X42200Y48400
X37900Y46600
X48300Y400
X56300Y40000
X55200Y9500
X52200Y10000
X51600Y14500
X77190Y62448
X65500Y35800
X75100Y60100
X73500Y65400
X84800Y31700
X50000Y41700
X83700Y29100
X37800Y41400
X34700Y35500
X85600Y30300
X45900Y50200
X82400Y42700
X78200Y43000
X76900Y43200
X87100Y45400
X86026Y45137
X50000Y38900
X77200Y29600
X36800Y39000
X77400Y27500
X48050Y58500
X46698Y48601
X43000Y48048
X43200Y46200
X46650Y58200
X47100Y61350
X66500Y55500
X67500Y55300
X66500Y55000
X67100Y55000
X67000Y55500
X66900Y56200
X67600Y56780
X66300Y56700
X67800Y55000
X68226Y56798
X66851Y62048
X69476Y59298
X70600Y61800
X78500Y41000
X43700Y48800
X57900Y47300
X44200Y47500
X82300Y50400
X52598Y60952
X43100Y34000
X35750Y8600
X35750Y7150
X35800Y5450
X29800Y27800
X37900Y31400
X41800Y35200
X35000Y31400
X39700Y33100
X33400Y6350
X31100Y8650
X30000Y10050
X25900Y19250
X25900Y20700
X25900Y23500
X25900Y24600
X25900Y26800
X29700Y25400
X33900Y17364
X30022Y18507
X33700Y9800
X35800Y10000
X35800Y15700
X35800Y20800
X34600Y14900
X30300Y28300
X31000Y29000
X32800Y30800
X51400Y31000
X50200Y32100
X50800Y30400
X34787Y23122
X29950Y15100
X30080Y17150
X33650Y23500
X44048Y50400
X44900Y47600
X57400Y47700
X83700Y40200
X63767Y7627
X67333Y7627
X62900Y8050
X67900Y8000
X41200Y13300
X39080Y26640
X69900Y26400
X66900Y26400
X43950Y29100
X44850Y30000
X47000Y30000
X47800Y30800
X47850Y29200
X45900Y31100
X46750Y28100
X45000Y28000
X45900Y28900
X29700Y26100
X31500Y26500
X29805Y19314
X29838Y12700
X32038Y12200
X32200Y19000
X46650Y31850
X34521Y26086
X33778Y19443
X37350Y27050
X34025Y12343
X53200Y8100
X77200Y19700
X55200Y19900
X78700Y18600
X55200Y19300
X77400Y18600
X55200Y18600
X55200Y12000
X82400Y17700
X52600Y11900
X78500Y21700
X51900Y22200
X51300Y24500
X79504Y22404
X49512Y9188
X78500Y21000
X49100Y21900
X48200Y22300
X76797Y21700
X42800Y6900
X37400Y7271
X42175Y7075
X37300Y7750
X41300Y7000
X37300Y8250
X77300Y10100
X55100Y5451
X78400Y8600
X55100Y4800
X64387Y26600
X61400Y26700
X58800Y26600
X56400Y25900
X33000Y29600
X30300Y25107
X33400Y29200
X34084Y24607
X34900Y27700
X30075Y21093
X79700Y23300
X51290Y26804
X77100Y25800
X52600Y28700
X78500Y24100
X52100Y27500
X78600Y25300
X52582Y28100
X82400Y22800
X47518Y26618
X35700Y28400
X33884Y20407
X35300Y27300
X30075Y17814
X33800Y28800
X34484Y26693
X32600Y30000
X30300Y27200
X36100Y27700
X34484Y17607
X79000Y52500
X58000Y58600
X77200Y52600
X57200Y58200
X78600Y51800
X57000Y57752
X83700Y49100
X56550Y57452
X83700Y41400
X44640Y50160
X49800Y31200
X34100Y10700
X49500Y31600
X34222Y13543
X49151Y31949
X30050Y10900
X48812Y32288
X29916Y13693
X73400Y63400
X65700Y64400
X69809Y64009
X71200Y61000
X79900Y53000
X65900Y60400
X75000Y56000
X77400Y54300
X65800Y57000
X75000Y55300
X83500Y53000
X73530Y64650
X79700Y54000
X75600Y61700
X82500Y53000
X76600Y64156
X77700Y60100
X64500Y61500
X84700Y46500
X77200Y31100
X53400Y40800
X26000Y25500
X31300Y23400
X29900Y24434
X34100Y27422
X30300Y23900
X33653Y24288
X79800Y29900
X31800Y27453
X81100Y30000
X31983Y23417
X32500Y28500
X78500Y29900
X41900Y32897
X34300Y28600
X79800Y31200
X32700Y23400
X33100Y21700
X35484Y19214
X30096Y21921
X31417Y16217
X29500Y21100
X33883Y13883
X29500Y20500
X33300Y9300
X29496Y19800
X31300Y9500
X83600Y28000
X31900Y21500
X82500Y27500
X32500Y21500
X81200Y17700
X32497Y16419
X82300Y19100
X31650Y13793
X79900Y17800
X32400Y14600
X83600Y20500
X32439Y9561
X78500Y16500
X31917Y16417
X79755Y11195
X48300Y-200
X78355Y7265
X48400Y1100
X79800Y10100
X53900Y-1100
X65600Y56050
X30900Y50700
X27447Y50700
X81100Y33800
X65682Y36401
X79700Y33500
X65333Y37367
X75200Y33500
X63100Y36848
X74600Y33900
X63800Y36400
X72100Y44950
X77500Y50400
X55900Y56500
X78500Y45000
X55900Y50800
X82300Y48700
X57250Y57000
X78700Y49100
X56500Y56000
X77500Y49200
X55900Y55500
X83700Y47800
X56500Y54500
X79650Y47450
X55900Y54100
X82500Y46600
X56200Y53000
X83600Y45300
X56500Y52200
X77000Y46600
X55950Y51700
X82400Y45200
X56450Y51200
X77200Y45000
X56300Y50200
X83600Y44100
X55850Y49800
X78500Y43800
X53000Y49300
X77300Y42700
X52400Y48800
X81000Y40100
X75154Y41954
X84900Y39400
X74400Y41800
X84900Y38800
X74300Y41300
X81100Y37600
X72400Y39700
X79800Y37600
X72400Y39200
X85000Y36400
X72700Y38700
X81200Y36300
X72300Y38100
X85000Y35100
X72800Y37600
X79700Y34900
X71500Y37200
X77100Y34700
X71900Y36700
X86100Y34000
X72500Y36119
X69970Y3660
X69620Y1960
X63402Y2952
X69820Y1260
X69320Y1260
X62132Y2880
X69340Y350
X60862Y2833
X69620Y3060
X64672Y2664
X82400Y13900
X71370Y-1520
X83700Y13900
X71900Y-1450
X79900Y13800
X72500Y4600
X81100Y12600
X75800Y800
X81000Y13800
X75800Y1800
X79800Y15100
X71600Y4600
X82400Y11300
X76100Y300
X83100Y10000
X75800Y-200
X69820Y2460
X69860Y350
X87300Y39900
X86200Y39000
X64985Y35107
X84800Y19600
X31800Y9600
X78406Y28400
X81000Y24600
X83600Y51500
X75900Y63700
X82000Y54300
X79400Y65400
X48556Y3844
X28000Y17913
X48144Y4156
X28500Y18500
X48144Y5356
X29340Y16500
X48756Y6144
X29000Y17200
X45866Y1679
X27600Y16007
X45866Y2221
X27800Y15300
X46100Y-600
X26858Y13938
X45900Y-1100
X26300Y14700
X78500Y32200
X54900Y40800
X47000Y49700
X53950Y54850
X49900Y11100
X66818Y37368
X73300Y42148
X67550Y45950
X50054Y58446
X53900Y53400
X73298Y40749
X45150Y59950
X64973Y46974
X46579Y59879
X66179Y46952
X61100Y46000
X61400Y46400
X61700Y46800
X61700Y46000
X62000Y46400
X62250Y46800
X62250Y46000
X61100Y46750
X53550Y52600
X54050Y52600
X54600Y52600
X55100Y52600
X54400Y53450
X55050Y53450
X45650Y59950
X46100Y59950
X38900Y53000
X39600Y53000
X39600Y52300
X38900Y52300
X64423Y46974
X65450Y47000
X73798Y40699
X74348Y40649
X58250Y40350
X58800Y40350
X58800Y39550
X58250Y39550
X85550Y7260
X82650Y7220
X26100Y13500
X51700Y-1500
X25560Y13540
X51700Y-2200
X82400Y15200
X74200Y4500
X72700Y28300
X72600Y29100
X72100Y29397
X80400Y27600
X72700Y27700
X72800Y26900
X72628Y26150
X81100Y22400
X82000Y27900
X79800Y26300
X-15774Y133198
X-15774Y132248
X-17124Y132248
X-17024Y133298
X-17649Y133198
X-10774Y133598
X-10149Y133923
X-10299Y131648
X-10149Y132423
X-9674Y131648
X-9599Y133823
X-9424Y132273
X-9824Y133123
X-8899Y131723
X-8649Y132323
X-17924Y132148
X-18399Y133173
X-18349Y132523
X-34300Y128300
X-34200Y126700
X-32600Y126700
X-31000Y126700
X-31000Y130000
X-32600Y128300
X-30400Y130700
X-7024Y137723
X-9174Y133073
X-17624Y132648
X-19049Y133023
X-19000Y132300
X-8900Y133900
X-8600Y133100
X-9824Y130973
X-31500Y96100
X-28400Y96700
X-27900Y96400
X-28700Y92000
X-29236Y87400
X-28800Y84800
X-30200Y83200
X-32600Y130000
X-31000Y128300
X-36200Y109900
X-33000Y113100
X-47000Y112800
X-22900Y88400
X-21600Y88300
X-21600Y87000
X-22900Y87000
X-22900Y85800
X-21600Y85800
X-20300Y85800
X-19100Y85800
X-17800Y85800
X-16500Y85800
X-20400Y84500
X-20400Y83300
X-19100Y84500
X-17800Y84500
X-16500Y84500
X-15200Y84500
X-14000Y84500
X-12800Y84500
X-11500Y84500
X-11500Y83200
X-11500Y85800
X-12800Y85800
X-14000Y85800
X-15200Y85800
X-15300Y87100
X-15300Y88400
X-14000Y88400
X-14000Y87100
X-12800Y87100
X-10200Y85800
X-8800Y85800
X-10200Y86900
X-11500Y87000
X-7500Y84600
X-8600Y86600
X-12900Y88400
X-15300Y89500
X-14000Y89500
X-16200Y102000
X-16100Y101300
X-16500Y100500
X-20600Y107700
X-19800Y107400
X-20200Y103200
X-21700Y101100
X-21600Y100600
X-22100Y100600
X-29000Y104000
X-24500Y107700
X-25900Y103200
X-22300Y101100
X-10500Y101900
X-10500Y101200
X-14900Y107500
X-14100Y107500
X-14700Y103100
X-57700Y110300
X-57700Y114100
X-57700Y117900
X-44600Y131200
X-53400Y135700
X-52600Y135000
X-52600Y136600
X-51500Y136900
X-50400Y136800
X-47800Y136400
X-43100Y137400
X-15774Y59198
X-16700Y101000
X9600Y71700
X-44500Y129900
X-12800Y102000
X-13500Y102000
X-13500Y101300
X-12800Y101300
X-21400Y90500
X-23900Y102200
X-23900Y101500
X-24600Y101500
X-24600Y102200
X-18300Y102300
X-18300Y101500
X-19000Y101500
X-19000Y102300
X-40300Y126200
X-41500Y128400
X-48600Y129300
X-48600Y132200
X-48300Y135500
X-14700Y113950
X-13200Y114000
X-11550Y113950
X-13200Y117200
X-14850Y117250
X-11550Y117200
X-13200Y115550
X-14700Y115550
X-11500Y115550
X-22100Y115100
X-10500Y100700
X-11200Y100700
X-16100Y100800
X-22300Y100100
X-21700Y100100
X-10400Y100200
X-11000Y100200
X-13100Y107500
X-21600Y108100
X-55400Y128300
X-54400Y128300
X-53400Y128300
X-52400Y128300
X-50400Y128300
X-49400Y128300
X-48400Y128300
X-47400Y128300
X-46400Y128300
X-45400Y128300
X-56400Y126500
X-55400Y126500
X-54400Y126500
X-53400Y126500
X-52400Y126500
X-51400Y126500
X-49400Y126500
X-48400Y126500
X-47400Y126500
X-46400Y126500
X-45400Y126500
X-44400Y126500
X9800Y73600
X9800Y75500
X9800Y77500
X9800Y79500
X9800Y81500
X9790Y83440
X9800Y85500
X9800Y88000
X9800Y103500
X9800Y90500
X9800Y93500
X9800Y95500
X9800Y98500
X9800Y101000
X9800Y105500
X10000Y119500
X9800Y107500
X9800Y109500
X9800Y111500
X9800Y113500
X10000Y115500
X10000Y117500
X10000Y121500
X10000Y123500
X10000Y125500
X10000Y127500
X10000Y129500
X10000Y131500
X10000Y133500
X-9100Y131100
X-10824Y132073
X-10524Y132923
X-15774Y58248
X-17124Y58248
X-17024Y59298
X9000Y120600
X9100Y117600
X-17649Y59198
X-44300Y128600
X-42400Y127900
X-43600Y126900
X10000Y139100
X10000Y137500
X10000Y135500
X8400Y139100
X6400Y139100
X4400Y139100
X2400Y139100
X1200Y139200
X-1600Y139100
X-4500Y139300
X-6100Y139200
X-10600Y139400
X-11600Y139100
X-13600Y139100
X-15600Y139100
X-17600Y139100
X-19600Y139100
X-21600Y139100
X-23600Y139100
X-25600Y139100
X-27600Y139100
X-29600Y139100
X-31600Y139100
X-35600Y139100
X-37600Y139100
X-39600Y139100
X-42700Y139400
X-55600Y120300
X-54500Y119600
X-53700Y118700
X-52600Y118100
X-51300Y117800
X-50100Y117800
X-48600Y117800
X-47400Y117800
X-46000Y117800
X-43700Y117800
X-42600Y117800
X-41100Y117800
X-38100Y117800
X-39600Y117800
X-36600Y117800
X-35100Y117800
X-33600Y117800
X-32100Y117800
X-30600Y117800
X-29100Y117800
X-27600Y117800
X-26100Y117800
X-24300Y116300
X-23100Y115700
X-56800Y120400
X-58100Y120600
X-53000Y120400
X-52100Y119800
X-50800Y119500
X-49400Y119500
X-47900Y119500
X-46400Y119500
X-44900Y119500
X-41900Y119500
X-43400Y119500
X-40400Y119500
X-38900Y119500
X-35900Y119500
X-34400Y119500
X-32900Y119500
X-31400Y119500
X-29900Y119500
X-28400Y119500
X-26900Y119500
X-25400Y119500
X-24400Y119200
X8200Y71700
X5600Y71700
X4200Y71700
X2200Y71700
X200Y71700
X-1800Y71700
X-3800Y71700
X-5800Y71700
X-37000Y71900
X-37700Y73000
X-59200Y130600
X-57200Y130600
X-55200Y130600
X-53200Y130600
X-64700Y89000
X-64700Y87000
X-64700Y85000
X-64700Y83000
X-64700Y81000
X-64700Y79000
X-64700Y91000
X-64700Y93000
X-64700Y95000
X-64700Y97000
X-64700Y99000
X-64700Y101000
X-64700Y103000
X-64700Y105000
X-39500Y74500
X-41500Y74500
X-43500Y74500
X-45500Y74500
X-47500Y74500
X-49500Y74500
X-62700Y96500
X-60900Y95800
X-62900Y90300
X-59000Y90000
X-55700Y91900
X-56700Y91800
X-55700Y89800
X-56800Y89800
X-56600Y93800
X-56700Y95600
X-56100Y90800
X-55620Y86190
X-43300Y129500
X-37400Y119500
X-16200Y83167
X-15700Y83167
X-51100Y75000
X-10774Y59598
X-10149Y59923
X-10299Y57648
X-30000Y78500
X-29200Y79300
X-29150Y78700
X-29600Y78900
X-10149Y58423
X-9674Y57648
X-9599Y59823
X-9424Y58273
X-9824Y59123
X-31600Y71600
X-27400Y71700
X-25600Y71700
X-23600Y71700
X-10200Y71700
X-49900Y104400
X-49100Y105300
X-51000Y103400
X-51700Y102600
X-44100Y105900
X-42200Y107600
X-40300Y109600
X-54300Y121800
X8400Y137400
X-62100Y106400
X4000Y119484
X4400Y128300
X6900Y128300
X5900Y123300
X4600Y123200
X-1800Y123300
X-1800Y124600
X-600Y121450
X2000Y120700
X5500Y120700
X7000Y120600
X7100Y122000
X7100Y119400
X7000Y118200
X5700Y118200
X5700Y116900
X7200Y117000
X4500Y117000
X1900Y116900
X-500Y116600
X-600Y117700
X700Y118000
X-1900Y113100
X-3100Y113100
X700Y111900
X2100Y111800
X3200Y111800
X3300Y114400
X4500Y111800
X5800Y111800
X5800Y113100
X7100Y113000
X7100Y111900
X7200Y110500
X5800Y110500
X4600Y110600
X1900Y110400
X700Y110400
X-1800Y110100
X-3100Y110100
X-600Y109000
X-3000Y108700
X2000Y109000
X5800Y109000
X7100Y109300
X3300Y106900
X4600Y106700
X4700Y105400
X7100Y105400
X1900Y106800
X700Y105500
X-600Y105300
X700Y104000
X-1800Y102600
X-1800Y101600
X-3200Y101600
X-500Y101700
X-1800Y99200
X-500Y99200
X700Y99200
X2000Y99100
X-3100Y100300
X2000Y100300
X-500Y100300
X-500Y97800
X800Y97800
X2100Y97800
X2000Y96400
X-1800Y95200
X700Y95200
X5700Y95300
X-500Y127100
X-3100Y127900
X-300Y131600
X3300Y130800
X5100Y131100
X600Y125700
X-1800Y125800
X700Y121700
X-500Y120100
X7100Y102800
X5800Y100400
X7100Y100400
X3200Y100500
X-500Y95200
X-600Y92700
X-1900Y92700
X-3100Y93700
X2000Y92700
X4600Y90500
X7100Y90400
X7100Y92800
X-1800Y90200
X600Y90300
X-500Y90300
X-3100Y89000
X-600Y88900
X-3100Y87600
X-3000Y86400
X-3100Y85100
X-3100Y83800
X900Y86400
X3200Y85300
X2600Y80100
X4750Y81350
X7000Y81400
X7100Y82700
X7200Y84000
X5900Y85300
X-4000Y82700
X100Y79800
X1200Y82600
X200Y85200
X-1700Y83000
X-2400Y80100
X-4300Y81300
X7000Y80100
X4600Y80100
X7100Y86500
X7100Y87700
X2100Y90300
X-1800Y86500
X-4200Y86400
X7000Y97600
X7000Y99200
X7100Y89000
X-7650Y125250
X-6570Y124230
X-6220Y123930
X-5900Y123610
X-5550Y123280
X-4200Y121900
X-4900Y122600
X-6930Y124620
X-29200Y85300
X-21500Y127900
X-24000Y127900
X-23200Y129100
X-24600Y129000
X-25700Y127400
X-28000Y122500
X-40600Y134700
X-40700Y133100
X-38900Y133200
X-43200Y136100
X-43200Y133100
X-29400Y105100
X-27800Y103600
X-4800Y85300
X-24400Y91800
X-24800Y89900
X-25200Y88500
X-26400Y81900
X-27300Y82400
X-9150Y109300
X-4200Y113300
X-5500Y130800
X-7300Y133000
X-7860Y133390
X5900Y134300
X-8899Y57723
X-8649Y58323
X-1880Y120060
X-3050Y120010
X-3040Y116550
X-17924Y58148
X-61200Y79000
X-29300Y77800
X-30700Y73100
X-36300Y75000
X-2800Y73200
X3750Y77150
X3300Y74800
X9010Y77910
X2100Y76700
X-57650Y82050
X-62850Y81750
X-61000Y84200
X-58900Y96900
X-58900Y100200
X-63400Y99600
X-61700Y102500
X-55900Y104300
X-51500Y105100
X-54300Y115500
X-57800Y116000
X-57800Y112300
X-23200Y133600
X-26000Y135600
X-29100Y136400
X-46100Y113300
X-48500Y114600
X-40700Y114200
X-34900Y114700
X-38700Y115500
X-29000Y99200
X-63100Y79000
X-59100Y79000
X-57100Y79000
X-55100Y79000
X-54200Y79000
X-51500Y76300
X7100Y106400
X-4200Y117800
X-54500Y125500
X-26300Y136800
X-21600Y135800
X-48300Y136800
X-18399Y59173
X-36400Y133250
X-36350Y132800
X-38950Y130650
X-40200Y130400
X-41050Y130300
X-42650Y130950
X-39700Y131950
X-32800Y137700
X-32000Y137700
X-32000Y136900
X-32400Y137300
X-35100Y130600
X-34200Y130000
X-35100Y126300
X-32600Y130700
X-31700Y125900
X-22900Y117900
X-21950Y117550
X-20600Y117400
X-19350Y117600
X-19550Y118450
X-21750Y118900
X-41250Y131600
X-16800Y120350
X-16850Y119900
X-20600Y118950
X-23300Y120650
X-18349Y58523
X-19450Y119250
X-21170Y119810
X-7320Y124950
X-5190Y122920
X-17320Y120130
X-17660Y120480
X-15602Y113509
X-15462Y117979
X-12812Y117949
X-10782Y117749
X-34300Y54300
X-15550Y115600
X-35050Y128350
X-34200Y52700
X-22300Y127950
X-21900Y128150
X-22800Y128000
X-23300Y128000
X-21100Y128100
X-61100Y93800
X-63200Y85800
X-59000Y87100
X-56600Y88200
X5800Y88950
X4500Y86450
X4500Y87750
X3300Y96550
X4550Y97900
X4550Y99150
X5850Y94050
X5750Y92800
X4500Y92750
X4550Y83850
X5850Y82600
X3250Y82650
X3300Y91550
X4550Y95300
X7050Y96600
X3250Y104150
X2200Y105500
X5800Y105450
X4500Y89100
X3350Y89000
X5850Y102950
X4500Y101650
X3300Y102950
X5850Y104300
X3250Y99100
X7100Y95350
X-18750Y127450
X-18500Y127150
X-21600Y71700
X-19600Y71700
X-17600Y71700
X-15600Y71700
X-13600Y71700
X-11600Y71700
X-32600Y52700
X-31000Y52700
X-21650Y74450
X-23620Y74530
X-25450Y75700
X-23850Y78450
X-11050Y78700
X-15100Y79200
X-22550Y79300
X-12920Y77580
X-18810Y76270
X-19050Y74700
X-20250Y75100
X-17270Y75240
X-16720Y76020
X-15500Y76520
X-23580Y76650
X-13170Y79370
X-22050Y75850
X-12950Y76350
X-13970Y78570
X-12370Y78670
X-22480Y77950
X-12800Y75500
X-20650Y79400
X-19350Y79400
X-18150Y79400
X-16750Y79400
X-3200Y77600
X-6500Y78400
X-5200Y73000
X-25420Y77430
X-51300Y128300
X-50400Y126600
X-44800Y117800
X-57500Y126400
X-61200Y130600
X-42100Y130100
X-4500Y87800
X-5900Y101300
X-5800Y102200
X-6000Y103200
X-5700Y100100
X-6800Y107000
X-4800Y107000
X-21900Y109900
X-19200Y109500
X4500Y127100
X4500Y125700
X5800Y122000
X5800Y129600
X4600Y129600
X-31000Y56000
X-32600Y54300
X-10882Y114949
X-11982Y113049
X-29950Y135550
X-30400Y56700
X-7024Y63723
X-30450Y135550
X-27550Y131800
X-30950Y135550
X-9174Y59073
X-17624Y58648
X-19049Y59023
X-19000Y58300
X-8900Y59900
X-8600Y59100
X-9824Y56973
X-31500Y22100
X-28400Y22700
X-27900Y22400
X-28700Y18000
X-29236Y13400
X3200Y136100
X-24252Y109624
X-28800Y10800
X-30200Y9200
X-32600Y56000
X3300Y116900
X8900Y116900
X-39300Y122400
X-43600Y120600
X-33200Y74400
X-31000Y54300
X-36200Y35900
X-25200Y114000
X-26300Y83500
X-29300Y84000
X-29900Y88500
X-4310Y136448
X-16000Y109800
X-33000Y39100
X-47000Y38800
X-22900Y14400
X-21600Y14300
X-21600Y13000
X-22900Y13000
X-22900Y11800
X-21600Y11800
X-20300Y11800
X-19100Y11800
X-6400Y134100
X-17800Y11800
X-8000Y139400
X-16500Y11800
X-20400Y10500
X-20400Y9300
X3300Y105700
X-31500Y115700
X2200Y103100
X-43700Y115400
X-46800Y109500
X4100Y104300
X-35600Y124200
X900Y116700
X-3300Y117000
X-4600Y117200
X5600Y119400
X4526Y119137
X-31500Y112900
X-4300Y103600
X-44700Y113000
X-4100Y101500
X-19100Y10500
X-17800Y10500
X-33450Y132500
X-16500Y10500
X-34802Y122601
X-38500Y122048
X-38300Y120200
X-34850Y132200
X-34400Y135350
X-15200Y10500
X-14000Y10500
X-15000Y129500
X-14000Y129300
X-15000Y129000
X-14400Y129000
X-14500Y129500
X-14600Y130200
X-13900Y130780
X-15200Y130700
X-12800Y10500
X-11500Y10500
X-13700Y129000
X-11500Y9200
X-11500Y11800
X-12800Y11800
X-13274Y130798
X-14649Y136048
X-12024Y133298
X-10900Y135800
X-3000Y115000
X-37800Y122800
X-23600Y121300
X-37300Y121500
X800Y124400
X-28902Y134952
X-14000Y11800
X-15200Y11800
X-15300Y13100
X-15300Y14400
X-14000Y14400
X-14000Y13100
X-12800Y13100
X-10200Y11800
X-8800Y11800
X-38400Y108000
X-10200Y12900
X-11500Y13000
X-45750Y82600
X-45750Y81150
X-45700Y79450
X-7500Y10600
X-8600Y12600
X-12900Y14400
X-15300Y15500
X-14000Y15500
X-51700Y101800
X-43600Y105400
X-39700Y109200
X-46500Y105400
X-41800Y107100
X-16200Y28000
X-16100Y27300
X-16500Y26500
X-20600Y33700
X-48100Y80350
X-50400Y82650
X-51500Y84050
X-55600Y93250
X-55600Y94700
X-55600Y97500
X-55600Y98600
X-55600Y100800
X-51800Y99400
X-47600Y91364
X-51478Y92507
X-47800Y83800
X-45700Y84000
X-45700Y89700
X-45700Y94800
X-46900Y88900
X-51200Y102300
X-50500Y103000
X-48700Y104800
X-30100Y105000
X-31300Y106100
X-30700Y104400
X-46713Y97122
X-19800Y33400
X-51550Y89100
X-51420Y91150
X-47850Y97500
X-37452Y124400
X-36600Y121600
X-24100Y121700
X2200Y114200
X-17733Y81627
X-14167Y81627
X-18600Y82050
X-13600Y82000
X-20200Y29200
X-21700Y27100
X-21600Y26600
X-22100Y26600
X-29000Y30000
X-24500Y33700
X-25900Y29200
X-40300Y87300
X-42420Y100640
X-22300Y27100
X-11600Y100400
X-14600Y100400
X-37550Y103100
X-36650Y104000
X-34500Y104000
X-33700Y104800
X-33650Y103200
X-35600Y105100
X-10500Y27900
X-34750Y102100
X-36500Y102000
X-35600Y102900
X-51800Y100100
X-50000Y100500
X-51695Y93314
X-51662Y86700
X-49462Y86200
X-49300Y93000
X-34850Y105850
X-10500Y27200
X-46979Y100086
X-47722Y93443
X-44150Y101050
X-47475Y86343
X-28300Y82100
X-4300Y93700
X-26300Y93900
X-2800Y92600
X-26300Y93300
X-4100Y92600
X-26300Y92600
X-26300Y86000
X900Y91700
X-28900Y85900
X-3000Y95700
X-29600Y96200
X-30200Y98500
X-1996Y96404
X-14900Y33500
X-14100Y33500
X-14700Y29100
X-31988Y83188
X-3000Y95000
X-32400Y95900
X-33300Y96300
X-4703Y95700
X-38700Y80900
X-44100Y81271
X-39325Y81075
X-44200Y81750
X-40200Y81000
X-44200Y82250
X-4200Y84100
X-26400Y79451
X-3100Y82600
X-26400Y78800
X-17113Y100600
X-20100Y100700
X-57700Y36300
X-22700Y100600
X-25100Y99900
X-48500Y103600
X-51200Y99107
X-48100Y103200
X-47416Y98607
X-46600Y101700
X-51425Y95093
X-57700Y40100
X-1800Y97300
X-30210Y100804
X-4400Y99800
X-28900Y102700
X-3000Y98100
X-29400Y101500
X-2900Y99300
X-28918Y102100
X900Y96800
X-33982Y100618
X-45800Y102400
X-47616Y94407
X-46200Y101300
X-51425Y91814
X-47700Y102800
X-47016Y100693
X-48900Y104000
X-51200Y101200
X-45400Y101700
X-47016Y91607
X-2500Y126500
X-23500Y132600
X-4300Y126600
X-24300Y132200
X-2900Y125800
X-24500Y131752
X2200Y123100
X-24950Y131452
X2200Y115400
X-36860Y124160
X-31700Y105200
X-47400Y84700
X-32000Y105600
X-47278Y87543
X-32349Y105949
X-51450Y84900
X-32688Y106288
X-51584Y87693
X-8100Y137400
X-15800Y138400
X-11691Y138009
X-10300Y135000
X-1600Y127000
X-15600Y134400
X-6500Y130000
X-4100Y128300
X-15700Y131000
X-6500Y129300
X2000Y127000
X-7970Y138650
X-1800Y128000
X-5900Y135700
X1000Y127000
X-4900Y138156
X-3800Y134100
X-57700Y43900
X-44600Y57200
X-17000Y135500
X3200Y120500
X-4300Y105100
X-28100Y114800
X-55500Y99500
X-50200Y97400
X-51600Y98434
X-47400Y101422
X-51200Y97900
X-47847Y98288
X-1700Y103900
X-49700Y101453
X-400Y104000
X-49517Y97417
X-49000Y102500
X-3000Y103900
X-39600Y106897
X-47200Y102600
X-1700Y105200
X-48800Y97400
X-48400Y95700
X-46016Y93214
X-51404Y95921
X-50083Y90217
X-52000Y95100
X-47617Y87883
X-52000Y94500
X-48200Y83300
X-52004Y93800
X-50200Y83500
X2100Y102000
X-49600Y95500
X1000Y101500
X-49000Y95500
X-300Y91700
X-49003Y90419
X800Y93100
X-49850Y87793
X-1600Y91800
X-49100Y88600
X2100Y94500
X-49061Y83561
X-3000Y90500
X-49583Y90417
X-1745Y85195
X-33200Y73800
X-3145Y81265
X-33100Y75100
X-1700Y84100
X-27600Y72900
X-53400Y61700
X-15900Y130050
X-50600Y124700
X-54053Y124700
X-400Y107800
X-15818Y110401
X-1800Y107500
X-16167Y111367
X-6300Y107500
X-18400Y110848
X-6900Y107900
X-17700Y110400
X-9400Y118950
X-4000Y124400
X-25600Y130500
X-3000Y119000
X-25600Y124800
X800Y122700
X-24250Y131000
X-2800Y123100
X-25000Y130000
X-4000Y123200
X-25600Y129500
X2200Y121800
X-25000Y128500
X-1850Y121450
X-25600Y128100
X1000Y120600
X-25300Y127000
X2100Y119300
X-25000Y126200
X-4500Y120600
X-25550Y125700
X900Y119200
X-25050Y125200
X-4300Y119000
X-25200Y124200
X2100Y118100
X-25650Y123800
X-3000Y117800
X-28500Y123300
X-4200Y116700
X-29100Y122800
X-500Y114100
X-6346Y115954
X3400Y113400
X-7100Y115800
X3400Y112800
X-7200Y115300
X-400Y111600
X-9100Y113700
X-1700Y111600
X-9100Y113200
X3500Y110400
X-8800Y112700
X-300Y110300
X-9200Y112100
X3500Y109100
X-8700Y111600
X-1800Y108900
X-10000Y111200
X-4400Y108700
X-9600Y110700
X4600Y108000
X-9000Y110119
X-11530Y77660
X-11880Y75960
X-18098Y76952
X-11680Y75260
X-12180Y75260
X-19368Y76880
X-12160Y74350
X-20638Y76833
X-11880Y77060
X-16828Y76664
X900Y87900
X-10130Y72480
X2200Y87900
X-9600Y72550
X-1600Y87800
X-9000Y78600
X-400Y86600
X-5700Y74800
X-500Y87800
X-5700Y75800
X-1700Y89100
X-9900Y78600
X900Y85300
X-5400Y74300
X1600Y84000
X-5700Y73800
X-11680Y76460
X-11640Y74350
X5800Y113900
X4700Y113000
X-16515Y109107
X3300Y93600
X-49700Y83600
X-3094Y102400
X-500Y98600
X2100Y125500
X-5600Y137700
X500Y128300
X-2100Y139400
X-32944Y77844
X-53500Y91912
X-33356Y78156
X-53000Y92500
X-33356Y79356
X-52160Y90500
X-32744Y80144
X-52500Y91200
X-35634Y75679
X-53900Y90007
X-35634Y76221
X-53700Y89300
X-35400Y73400
X-54642Y87938
X-35600Y72900
X-55200Y88700
X-3000Y106200
X-26600Y114800
X-34500Y123700
X-27550Y128850
X-31600Y85100
X-52600Y61000
X-52600Y62600
X-14682Y111368
X-8200Y116148
X-51500Y62900
X-13950Y119950
X-50400Y62800
X-47800Y62400
X-43100Y63400
X-16700Y27000
X-31446Y132446
X-27600Y127400
X-8202Y114749
X-36350Y133950
X-16527Y120974
X-34921Y133879
X-15321Y120952
X-20400Y120000
X-20100Y120400
X-19800Y120800
X-19800Y120000
X-19500Y120400
X-19250Y120800
X-19250Y120000
X-20400Y120750
X-27950Y126600
X-27450Y126600
X-26900Y126600
X-26400Y126600
X-27100Y127450
X-26450Y127450
X-35850Y133950
X-35400Y133950
X-42600Y127000
X-41900Y127000
X-41900Y126300
X-42600Y126300
X-17077Y120974
X-16050Y121000
X-7702Y114699
X-7152Y114649
X-23250Y114350
X-22700Y114350
X-22700Y113550
X-23250Y113550
X4050Y81260
X1150Y81220
X-55400Y87500
X-29800Y72500
X-55940Y87540
X-29800Y71800
X900Y89200
X-7300Y78500
X-8800Y102300
X-8900Y103100
X-9400Y103397
X-1100Y101600
X-8800Y101700
X-8700Y100900
X-8872Y100150
X-400Y96400
X500Y101900
X-1700Y100300
X65726Y133198
X65726Y132248
X64376Y132248
X64476Y133298
X63851Y133198
X70726Y133598
X71351Y133923
X71201Y131648
X71351Y132423
X71826Y131648
X71901Y133823
X72076Y132273
X9600Y-2300
X71676Y133123
X72601Y131723
X72851Y132323
X63576Y132148
X63101Y133173
X63151Y132523
X47200Y128300
X47300Y126700
X48900Y126700
X50500Y126700
X50500Y130000
X48900Y128300
X51100Y130700
X74476Y137723
X72326Y133073
X-44500Y55900
X-12800Y28000
X-13500Y28000
X-13500Y27300
X-12800Y27300
X63876Y132648
X62451Y133023
X62500Y132300
X72600Y133900
X72900Y133100
X71676Y130973
X50000Y96100
X53100Y96700
X53600Y96400
X52800Y92000
X52264Y87400
X52700Y84800
X51300Y83200
X48900Y130000
X50500Y128300
X45300Y109900
X-21400Y16500
X-23900Y28200
X-23900Y27500
X48500Y113100
X-24600Y27500
X-24600Y28200
X34500Y112800
X58600Y88400
X59900Y88300
X59900Y87000
X58600Y87000
X58600Y85800
X59900Y85800
X61200Y85800
X62400Y85800
X63700Y85800
X65000Y85800
X61100Y84500
X61100Y83300
X62400Y84500
X63700Y84500
X65000Y84500
X66300Y84500
X67500Y84500
X68700Y84500
X70000Y84500
X70000Y83200
X70000Y85800
X68700Y85800
X67500Y85800
X66300Y85800
X66200Y87100
X66200Y88400
X67500Y88400
X67500Y87100
X68700Y87100
X71300Y85800
X72700Y85800
X71300Y86900
X70000Y87000
X74000Y84600
X72900Y86600
X68600Y88400
X66200Y89500
X67500Y89500
X65300Y102000
X65400Y101300
X65000Y100500
X60900Y107700
X61700Y107400
X61300Y103200
X59800Y101100
X59900Y100600
X59400Y100600
X52500Y104000
X57000Y107700
X55600Y103200
X59200Y101100
X71000Y101900
X71000Y101200
X66600Y107500
X67400Y107500
X66800Y103100
X23800Y110300
X23800Y114100
X23800Y117900
X36900Y131200
X28100Y135700
X28900Y135000
X28900Y136600
X30000Y136900
X31100Y136800
X33700Y136400
X38400Y137400
X-18300Y28300
X64800Y101000
X91100Y71700
X37000Y129900
X68700Y102000
X68000Y102000
X68000Y101300
X68700Y101300
X60100Y90500
X57600Y102200
X57600Y101500
X56900Y101500
X56900Y102200
X-18300Y27500
X63200Y101500
X62500Y101500
X62500Y102300
X41200Y126200
X40000Y128400
X32900Y129300
X32900Y132200
X33200Y135500
X66800Y113950
X68300Y114000
X69950Y113950
X68300Y117200
X66650Y117250
X69950Y117200
X68300Y115550
X66800Y115550
X70000Y115550
X59400Y115100
X71000Y100700
X70300Y100700
X65400Y100800
X59200Y100100
X59800Y100100
X71100Y100200
X70500Y100200
X68400Y107500
X59900Y108100
X26100Y128300
X27100Y128300
X28100Y128300
X29100Y128300
X31100Y128300
X32100Y128300
X33100Y128300
X34100Y128300
X35100Y128300
X36100Y128300
X25100Y126500
X26100Y126500
X27100Y126500
X28100Y126500
X29100Y126500
X30100Y126500
X32100Y126500
X33100Y126500
X34100Y126500
X35100Y126500
X36100Y126500
X37100Y126500
X91300Y73600
X91300Y75500
X91300Y77500
X91300Y79500
X91300Y81500
X91290Y83440
X91300Y85500
X91300Y88000
X91300Y103500
X91300Y90500
X91300Y93500
X91300Y95500
X91300Y98500
X91300Y101000
X91300Y105500
X91500Y119500
X91300Y107500
X91300Y109500
X91300Y111500
X91300Y113500
X91500Y115500
X91500Y117500
X91500Y121500
X91500Y123500
X91500Y125500
X91500Y127500
X91500Y129500
X91500Y131500
X91500Y133500
X72400Y131100
X70676Y132073
X70976Y132923
X-19000Y27500
X-19000Y28300
X-40300Y52200
X90500Y120600
X90600Y117600
X-41500Y54400
X37200Y128600
X39100Y127900
X37900Y126900
X91500Y139100
X91500Y137500
X91500Y135500
X89900Y139100
X87900Y139100
X85900Y139100
X83900Y139100
X82700Y139200
X79900Y139100
X77000Y139300
X75400Y139200
X70900Y139400
X69900Y139100
X67900Y139100
X65900Y139100
X63900Y139100
X61900Y139100
X59900Y139100
X57900Y139100
X55900Y139100
X53900Y139100
X51900Y139100
X49900Y139100
X45900Y139100
X43900Y139100
X41900Y139100
X38800Y139400
X25900Y120300
X27000Y119600
X27800Y118700
X28900Y118100
X30200Y117800
X31400Y117800
X32900Y117800
X34100Y117800
X35500Y117800
X37800Y117800
X38900Y117800
X40400Y117800
X43400Y117800
X41900Y117800
X44900Y117800
X46400Y117800
X47900Y117800
X49400Y117800
X50900Y117800
X52400Y117800
X53900Y117800
X55400Y117800
X57200Y116300
X58400Y115700
X24700Y120400
X23400Y120600
X28500Y120400
X29400Y119800
X30700Y119500
X32100Y119500
X33600Y119500
X35100Y119500
X36600Y119500
X39600Y119500
X38100Y119500
X41100Y119500
X42600Y119500
X45600Y119500
X47100Y119500
X48600Y119500
X50100Y119500
X51600Y119500
X53100Y119500
X54600Y119500
X56100Y119500
X57100Y119200
X89700Y71700
X87100Y71700
X85700Y71700
X83700Y71700
X81700Y71700
X79700Y71700
X77700Y71700
X75700Y71700
X44500Y71900
X43800Y73000
X22300Y130600
X24300Y130600
X26300Y130600
X28300Y130600
X16800Y89000
X16800Y87000
X16800Y85000
X16800Y83000
X16800Y81000
X16800Y79000
X16800Y91000
X16800Y93000
X16800Y95000
X16800Y97000
X16800Y99000
X16800Y101000
X16800Y103000
X16800Y105000
X42000Y74500
X40000Y74500
X38000Y74500
X36000Y74500
X34000Y74500
X32000Y74500
X18800Y96500
X20600Y95800
X18600Y90300
X22500Y90000
X25800Y91900
X24800Y91800
X25800Y89800
X24700Y89800
X24900Y93800
X24800Y95600
X25400Y90800
X25880Y86190
X38200Y129500
X44100Y119500
X65300Y83167
X65800Y83167
X30400Y75000
X-48600Y55300
X-48600Y58200
X-48300Y61500
X51500Y78500
X52300Y79300
X52350Y78700
X51900Y78900
X-14700Y39950
X-13200Y40000
X-11550Y39950
X-13200Y43200
X-14850Y43250
X49900Y71600
X54100Y71700
X55900Y71700
X57900Y71700
X71300Y71700
X31600Y104400
X32400Y105300
X30500Y103400
X29800Y102600
X37400Y105900
X39300Y107600
X41200Y109600
X27200Y121800
X89900Y137400
X19400Y106400
X85500Y119484
X85900Y128300
X88400Y128300
X87400Y123300
X86100Y123200
X79700Y123300
X79700Y124600
X80900Y121450
X83500Y120700
X87000Y120700
X88500Y120600
X88600Y122000
X88600Y119400
X88500Y118200
X87200Y118200
X87200Y116900
X88700Y117000
X86000Y117000
X83400Y116900
X81000Y116600
X80900Y117700
X82200Y118000
X79600Y113100
X78400Y113100
X82200Y111900
X83600Y111800
X84700Y111800
X84800Y114400
X86000Y111800
X87300Y111800
X87300Y113100
X88600Y113000
X88600Y111900
X88700Y110500
X87300Y110500
X86100Y110600
X83400Y110400
X82200Y110400
X79700Y110100
X78400Y110100
X80900Y109000
X78500Y108700
X83500Y109000
X87300Y109000
X88600Y109300
X84800Y106900
X86100Y106700
X86200Y105400
X88600Y105400
X83400Y106800
X82200Y105500
X80900Y105300
X82200Y104000
X79700Y102600
X79700Y101600
X78300Y101600
X81000Y101700
X79700Y99200
X81000Y99200
X82200Y99200
X83500Y99100
X78400Y100300
X83500Y100300
X81000Y100300
X81000Y97800
X82300Y97800
X83600Y97800
X83500Y96400
X79700Y95200
X82200Y95200
X87200Y95300
X81000Y127100
X78400Y127900
X81200Y131600
X84800Y130800
X86600Y131100
X82100Y125700
X79700Y125800
X82200Y121700
X81000Y120100
X88600Y102800
X87300Y100400
X88600Y100400
X84700Y100500
X81000Y95200
X80900Y92700
X79600Y92700
X78400Y93700
X83500Y92700
X86100Y90500
X88600Y90400
X88600Y92800
X79700Y90200
X82100Y90300
X81000Y90300
X78400Y89000
X80900Y88900
X78400Y87600
X78500Y86400
X78400Y85100
X78400Y83800
X82400Y86400
X84700Y85300
X84100Y80100
X86250Y81350
X88500Y81400
X88600Y82700
X88700Y84000
X87400Y85300
X77500Y82700
X81600Y79800
X82700Y82600
X81700Y85200
X79800Y83000
X79100Y80100
X77200Y81300
X88500Y80100
X86100Y80100
X88600Y86500
X88600Y87700
X83600Y90300
X79700Y86500
X77300Y86400
X88500Y97600
X88500Y99200
X88600Y89000
X73850Y125250
X74930Y124230
X75280Y123930
X75600Y123610
X75950Y123280
X77300Y121900
X76600Y122600
X74570Y124620
X52300Y85300
X60000Y127900
X57500Y127900
X58300Y129100
X56900Y129000
X55800Y127400
X53500Y122500
X40900Y134700
X40800Y133100
X42600Y133200
X38300Y136100
X38300Y133100
X52100Y105100
X53700Y103600
X76700Y85300
X57100Y91800
X56700Y89900
X56300Y88500
X55100Y81900
X54200Y82400
X72350Y109300
X77300Y113300
X76000Y130800
X74200Y133000
X73640Y133390
X87400Y134300
X-11550Y43200
X-13200Y41550
X79620Y120060
X78450Y120010
X78460Y116550
X-14700Y41550
X20300Y79000
X52200Y77800
X50800Y73100
X45200Y75000
X78700Y73200
X85250Y77150
X84800Y74800
X90510Y77910
X83600Y76700
X23850Y82050
X18650Y81750
X20500Y84200
X22600Y96900
X22600Y100200
X18100Y99600
X19800Y102500
X25600Y104300
X30000Y105100
X27200Y115500
X23700Y116000
X23700Y112300
X58300Y133600
X55500Y135600
X52400Y136400
X35400Y113300
X33000Y114600
X40800Y114200
X46600Y114700
X42800Y115500
X52500Y99200
X18400Y79000
X22400Y79000
X24400Y79000
X26400Y79000
X27300Y79000
X30000Y76300
X88600Y106400
X77300Y117800
X27000Y125500
X55200Y136800
X59900Y135800
X33200Y136800
X-11500Y41550
X45100Y133250
X45150Y132800
X42550Y130650
X41300Y130400
X40450Y130300
X38850Y130950
X41800Y131950
X48700Y137700
X49500Y137700
X49500Y136900
X49100Y137300
X46400Y130600
X47300Y130000
X46400Y126300
X48900Y130700
X49800Y125900
X58600Y117900
X59550Y117550
X60900Y117400
X62150Y117600
X61950Y118450
X59750Y118900
X40250Y131600
X64700Y120350
X64650Y119900
X60900Y118950
X58200Y120650
X-22100Y41100
X62050Y119250
X60330Y119810
X74180Y124950
X76310Y122920
X64180Y120130
X63840Y120480
X65898Y113509
X66038Y117979
X68688Y117949
X70718Y117749
X-10500Y26700
X65950Y115600
X46450Y128350
X-11200Y26700
X59200Y127950
X59600Y128150
X58700Y128000
X58200Y128000
X60400Y128100
X20400Y93800
X18300Y85800
X22500Y87100
X24900Y88200
X87300Y88950
X86000Y86450
X86000Y87750
X84800Y96550
X86050Y97900
X86050Y99150
X87350Y94050
X87250Y92800
X86000Y92750
X86050Y83850
X87350Y82600
X84750Y82650
X84800Y91550
X86050Y95300
X88550Y96600
X84750Y104150
X83700Y105500
X87300Y105450
X86000Y89100
X84850Y89000
X87350Y102950
X86000Y101650
X84800Y102950
X87350Y104300
X84750Y99100
X88600Y95350
X62750Y127450
X63000Y127150
X59900Y71700
X61900Y71700
X63900Y71700
X65900Y71700
X67900Y71700
X69900Y71700
X-16100Y26800
X-22300Y26100
X59850Y74450
X57880Y74530
X56050Y75700
X57650Y78450
X70450Y78700
X66400Y79200
X58950Y79300
X68580Y77580
X62690Y76270
X62450Y74700
X61250Y75100
X64230Y75240
X64780Y76020
X66000Y76520
X57920Y76650
X68330Y79370
X59450Y75850
X68550Y76350
X67530Y78570
X69130Y78670
X59020Y77950
X68700Y75500
X60850Y79400
X62150Y79400
X63350Y79400
X64750Y79400
X78300Y77600
X75000Y78400
X76300Y73000
X56080Y77430
X30200Y128300
X31100Y126600
X36700Y117800
X24000Y126400
X20300Y130600
X39400Y130100
X77000Y87800
X75600Y101300
X75700Y102200
X75500Y103200
X75800Y100100
X74700Y107000
X76700Y107000
X59600Y109900
X62300Y109500
X86000Y127100
X86000Y125700
X87300Y122000
X87300Y129600
X86100Y129600
X-21700Y26100
X-10400Y26200
X70618Y114949
X69518Y113049
X51550Y135550
X-11000Y26200
X-13100Y33500
X51050Y135550
X53950Y131800
X50550Y135550
X-21600Y34100
X-55400Y54300
X-54400Y54300
X-53400Y54300
X-52400Y54300
X-50400Y54300
X-49400Y54300
X-48400Y54300
X-47400Y54300
X-46400Y54300
X-45400Y54300
X-56400Y52500
X84700Y136100
X57248Y109624
X-55400Y52500
X-54400Y52500
X-53400Y52500
X84800Y116900
X90400Y116900
X42200Y122400
X37900Y120600
X48300Y74400
X-52400Y52500
X-51400Y52500
X56300Y114000
X55200Y83500
X52200Y84000
X51600Y88500
X77190Y136448
X65500Y109800
X-49400Y52500
X-48400Y52500
X-47400Y52500
X-46400Y52500
X-45400Y52500
X-44400Y52500
X9800Y-400
X9800Y1500
X9800Y3500
X9800Y5500
X75100Y134100
X9800Y7500
X73500Y139400
X9790Y9440
X9800Y11500
X9800Y14000
X84800Y105700
X50000Y115700
X83700Y103100
X37800Y115400
X34700Y109500
X85600Y104300
X45900Y124200
X82400Y116700
X78200Y117000
X76900Y117200
X87100Y119400
X86026Y119137
X63200Y102300
X77200Y103600
X36800Y113000
X77400Y101500
X9800Y29500
X9800Y16500
X48050Y132500
X9800Y19500
X46698Y122601
X43000Y122048
X43200Y120200
X46650Y132200
X47100Y135350
X9800Y21500
X9800Y24500
X66500Y129500
X67500Y129300
X66500Y129000
X67100Y129000
X67000Y129500
X66900Y130200
X67600Y130780
X66300Y130700
X9800Y27000
X9800Y31500
X67800Y129000
X10000Y45500
X9800Y33500
X9800Y35500
X68226Y130798
X66851Y136048
X69476Y133298
X70600Y135800
X78500Y115000
X43700Y122800
X57900Y121300
X44200Y121500
X82300Y124400
X52598Y134952
X9800Y37500
X9800Y39500
X10000Y41500
X10000Y43500
X10000Y47500
X10000Y49500
X10000Y51500
X10000Y53500
X10000Y55500
X43100Y108000
X10000Y57500
X10000Y59500
X35750Y82600
X35750Y81150
X35800Y79450
X-9100Y57100
X-10824Y58073
X-10524Y58923
X9000Y46600
X9100Y43600
X29800Y101800
X37900Y105400
X41800Y109200
X35000Y105400
X39700Y107100
X-44300Y54600
X-42400Y53900
X-43600Y52900
X10000Y65100
X33400Y80350
X31100Y82650
X30000Y84050
X25900Y93250
X25900Y94700
X25900Y97500
X25900Y98600
X25900Y100800
X29700Y99400
X33900Y91364
X30022Y92507
X33700Y83800
X35800Y84000
X35800Y89700
X35800Y94800
X34600Y88900
X30300Y102300
X31000Y103000
X32800Y104800
X51400Y105000
X50200Y106100
X50800Y104400
X34787Y97122
X10000Y63500
X29950Y89100
X30080Y91150
X33650Y97500
X44048Y124400
X44900Y121600
X57400Y121700
X83700Y114200
X63767Y81627
X67333Y81627
X62900Y82050
X67900Y82000
X10000Y61500
X8400Y65100
X6400Y65100
X4400Y65100
X2400Y65100
X1200Y65200
X-1600Y65100
X41200Y87300
X39080Y100640
X-4500Y65300
X69900Y100400
X66900Y100400
X43950Y103100
X44850Y104000
X47000Y104000
X47800Y104800
X47850Y103200
X45900Y105100
X-6100Y65200
X46750Y102100
X45000Y102000
X45900Y102900
X29700Y100100
X31500Y100500
X29805Y93314
X29838Y86700
X32038Y86200
X32200Y93000
X46650Y105850
X-10600Y65400
X34521Y100086
X33778Y93443
X37350Y101050
X34025Y86343
X53200Y82100
X77200Y93700
X55200Y93900
X78700Y92600
X55200Y93300
X77400Y92600
X55200Y92600
X55200Y86000
X82400Y91700
X52600Y85900
X78500Y95700
X51900Y96200
X51300Y98500
X79504Y96404
X-11600Y65100
X-13600Y65100
X-15600Y65100
X49512Y83188
X78500Y95000
X49100Y95900
X48200Y96300
X76797Y95700
X42800Y80900
X37400Y81271
X42175Y81075
X37300Y81750
X41300Y81000
X37300Y82250
X77300Y84100
X55100Y79451
X78400Y82600
X55100Y78800
X64387Y100600
X61400Y100700
X-17600Y65100
X58800Y100600
X56400Y99900
X33000Y103600
X30300Y99107
X33400Y103200
X34084Y98607
X34900Y101700
X30075Y95093
X-19600Y65100
X79700Y97300
X51290Y100804
X77100Y99800
X52600Y102700
X78500Y98100
X52100Y101500
X78600Y99300
X52582Y102100
X82400Y96800
X47518Y100618
X35700Y102400
X33884Y94407
X35300Y101300
X30075Y91814
X33800Y102800
X34484Y100693
X32600Y104000
X30300Y101200
X36100Y101700
X34484Y91607
X79000Y126500
X58000Y132600
X77200Y126600
X57200Y132200
X78600Y125800
X57000Y131752
X83700Y123100
X56550Y131452
X83700Y115400
X44640Y124160
X49800Y105200
X34100Y84700
X49500Y105600
X34222Y87543
X49151Y105949
X30050Y84900
X48812Y106288
X29916Y87693
X73400Y137400
X65700Y138400
X69809Y138009
X71200Y135000
X79900Y127000
X65900Y134400
X75000Y130000
X77400Y128300
X65800Y131000
X75000Y129300
X83500Y127000
X73530Y138650
X79700Y128000
X75600Y135700
X82500Y127000
X76600Y138156
X77700Y134100
X-21600Y65100
X-23600Y65100
X64500Y135500
X84700Y120500
X77200Y105100
X53400Y114800
X26000Y99500
X31300Y97400
X29900Y98434
X34100Y101422
X30300Y97900
X33653Y98288
X79800Y103900
X31800Y101453
X81100Y104000
X31983Y97417
X32500Y102500
X78500Y103900
X41900Y106897
X34300Y102600
X79800Y105200
X32700Y97400
X33100Y95700
X35484Y93214
X30096Y95921
X31417Y90217
X29500Y95100
X33883Y87883
X29500Y94500
X33300Y83300
X29496Y93800
X31300Y83500
X83600Y102000
X31900Y95500
X82500Y101500
X32500Y95500
X81200Y91700
X32497Y90419
X82300Y93100
X31650Y87793
X79900Y91800
X32400Y88600
X83600Y94500
X32439Y83561
X78500Y90500
X31917Y90417
X79755Y85195
X48300Y73800
X78355Y81265
X48400Y75100
X79800Y84100
X53900Y72900
X-25600Y65100
X65600Y130050
X30900Y124700
X27447Y124700
X81100Y107800
X65682Y110401
X79700Y107500
X65333Y111367
X75200Y107500
X63100Y110848
X74600Y107900
X63800Y110400
X72100Y118950
X77500Y124400
X55900Y130500
X78500Y119000
X55900Y124800
X82300Y122700
X57250Y131000
X78700Y123100
X56500Y130000
X77500Y123200
X55900Y129500
X83700Y121800
X56500Y128500
X79650Y121450
X55900Y128100
X82500Y120600
X56200Y127000
X83600Y119300
X56500Y126200
X77000Y120600
X55950Y125700
X82400Y119200
X56450Y125200
X77200Y119000
X56300Y124200
X83600Y118100
X55850Y123800
X78500Y117800
X53000Y123300
X77300Y116700
X52400Y122800
X81000Y114100
X75154Y115954
X84900Y113400
X74400Y115800
X84900Y112800
X74300Y115300
X81100Y111600
X72400Y113700
X79800Y111600
X72400Y113200
X85000Y110400
X72700Y112700
X81200Y110300
X72300Y112100
X85000Y109100
X72800Y111600
X79700Y108900
X71500Y111200
X77100Y108700
X71900Y110700
X86100Y108000
X72500Y110119
X69970Y77660
X69620Y75960
X63402Y76952
X69820Y75260
X69320Y75260
X62132Y76880
X69340Y74350
X60862Y76833
X69620Y77060
X64672Y76664
X82400Y87900
X71370Y72480
X83700Y87900
X71900Y72550
X79900Y87800
X72500Y78600
X81100Y86600
X75800Y74800
X81000Y87800
X75800Y75800
X79800Y89100
X71600Y78600
X82400Y85300
X76100Y74300
X83100Y84000
X75800Y73800
X69820Y76460
X69860Y74350
X87300Y113900
X86200Y113000
X64985Y109107
X84800Y93600
X31800Y83600
X78406Y102400
X81000Y98600
X83600Y125500
X75900Y137700
X82000Y128300
X79400Y139400
X48556Y77844
X28000Y91912
X48144Y78156
X28500Y92500
X48144Y79356
X29340Y90500
X48756Y80144
X29000Y91200
X45866Y75679
X27600Y90007
X45866Y76221
X27800Y89300
X46100Y73400
X26858Y87938
X45900Y72900
X26300Y88700
X78500Y106200
X54900Y114800
X47000Y123700
X53950Y128850
X49900Y85100
X-27600Y65100
X-29600Y65100
X66818Y111368
X73300Y116148
X-31600Y65100
X67550Y119950
X-35600Y65100
X-37600Y65100
X-39600Y65100
X-42700Y65400
X50054Y132446
X53900Y127400
X73298Y114749
X45150Y133950
X64973Y120974
X46579Y133879
X66179Y120952
X61100Y120000
X61400Y120400
X61700Y120800
X61700Y120000
X62000Y120400
X62250Y120800
X62250Y120000
X61100Y120750
X53550Y126600
X54050Y126600
X54600Y126600
X55100Y126600
X54400Y127450
X55050Y127450
X45650Y133950
X46100Y133950
X38900Y127000
X39600Y127000
X39600Y126300
X38900Y126300
X64423Y120974
X65450Y121000
X73798Y114699
X74348Y114649
X58250Y114350
X58800Y114350
X58800Y113550
X58250Y113550
X85550Y81260
X82650Y81220
X26100Y87500
X51700Y72500
X25560Y87540
X51700Y71800
X82400Y89200
X74200Y78500
X72700Y102300
X72600Y103100
X72100Y103397
X80400Y101600
X72700Y101700
X72800Y100900
X72628Y100150
X81100Y96400
X82000Y101900
X79800Y100300
X91100Y139300
X-55600Y46300
X-54500Y45600
X-53700Y44700
X-52600Y44100
X-51300Y43800
X-50100Y43800
X-48600Y43800
X-47400Y43800
X-46000Y43800
X-43700Y43800
X-42600Y43800
X-41100Y43800
X-38100Y43800
X-39600Y43800
X-36600Y43800
X-35100Y43800
X-33600Y43800
X-32100Y43800
X-30600Y43800
X-29100Y43800
X-27600Y43800
X-26100Y43800
X-24300Y42300
X-23100Y41700
X-56800Y46400
X-58100Y46600
X-53000Y46400
X-52100Y45800
X-50800Y45500
X-49400Y45500
X-47900Y45500
X-46400Y45500
X-44900Y45500
X-41900Y45500
X-43400Y45500
X-40400Y45500
X-38900Y45500
X-35900Y45500
X-34400Y45500
X-32900Y45500
X-31400Y45500
X-29900Y45500
X-28400Y45500
X-26900Y45500
X-25400Y45500
X-24400Y45200
X8200Y-2300
X5600Y-2300
X4200Y-2300
X2200Y-2300
X200Y-2300
X-1800Y-2300
X-3800Y-2300
X-5800Y-2300
X-37000Y-2100
X-37700Y-1000
X-59200Y56600
X-57200Y56600
X-55200Y56600
X-53200Y56600
X-64700Y15000
X-64700Y13000
X-64700Y11000
X-64700Y9000
X-64700Y7000
X-64700Y5000
X-64700Y17000
X-64700Y19000
X-64700Y21000
X-64700Y23000
X-64700Y25000
X-64700Y27000
X-64700Y29000
X-64700Y31000
X-39500Y500
X-41500Y500
X-43500Y500
X-45500Y500
X-47500Y500
X-49500Y500
X-62700Y22500
X-60900Y21800
X-62900Y16300
X-59000Y16000
X-55700Y17900
X-56700Y17800
X-55700Y15800
X-56800Y15800
X-56600Y19800
X-56700Y21600
X-56100Y16800
X-55620Y12190
X-43300Y55500
X-37400Y45500
X-16200Y9167
X-15700Y9167
X-51100Y1000
X-30000Y4500
X-29200Y5300
X-29150Y4700
X-29600Y4900
X-31600Y-2400
X-27400Y-2300
X-25600Y-2300
X-23600Y-2300
X-10200Y-2300
X-49900Y30400
X-49100Y31300
X-51000Y29400
X-51700Y28600
X-44100Y31900
X-42200Y33600
X-40300Y35600
X-54300Y47800
X8400Y63400
X-62100Y32400
X4000Y45484
X4400Y54300
X6900Y54300
X5900Y49300
X4600Y49200
X-1800Y49300
X-1800Y50600
X-600Y47450
X2000Y46700
X5500Y46700
X7000Y46600
X7100Y48000
X7100Y45400
X7000Y44200
X5700Y44200
X5700Y42900
X7200Y43000
X4500Y43000
X1900Y42900
X-500Y42600
X-600Y43700
X700Y44000
X-1900Y39100
X-3100Y39100
X700Y37900
X2100Y37800
X3200Y37800
X3300Y40400
X4500Y37800
X5800Y37800
X5800Y39100
X7100Y39000
X7100Y37900
X7200Y36500
X5800Y36500
X4600Y36600
X1900Y36400
X700Y36400
X-1800Y36100
X-3100Y36100
X-600Y35000
X-3000Y34700
X2000Y35000
X5800Y35000
X7100Y35300
X3300Y32900
X4600Y32700
X4700Y31400
X7100Y31400
X1900Y32800
X700Y31500
X-600Y31300
X700Y30000
X-1800Y28600
X-1800Y27600
X-3200Y27600
X-500Y27700
X-1800Y25200
X-500Y25200
X700Y25200
X2000Y25100
X-3100Y26300
X2000Y26300
X50000Y112900
M30