G04 EAGLE Gerber RS-274X export*
G75*
%MOMM*%
%FSLAX34Y34*%
%LPD*%
%INTop Copper*%
%IPPOS*%
%AMOC8*
5,1,8,0,0,1.08239X$1,22.5*%
G01*
%ADD10C,0.152400*%
%ADD11C,0.000000*%
%ADD12C,0.685800*%
%ADD13C,0.127000*%


D10*
X-641413Y638112D02*
X-641413Y654382D01*
X-635990Y648959D01*
X-630566Y654382D01*
X-630566Y638112D01*
X-625041Y648959D02*
X-622330Y648959D01*
X-622330Y638112D01*
X-625041Y638112D02*
X-619618Y638112D01*
X-622330Y654382D02*
X-622330Y657094D01*
X-614127Y654382D02*
X-611415Y654382D01*
X-611415Y638112D01*
X-608704Y638112D02*
X-614127Y638112D01*
X-603213Y654382D02*
X-600501Y654382D01*
X-600501Y638112D01*
X-603213Y638112D02*
X-597789Y638112D01*
X-573215Y638112D02*
X-567792Y638112D01*
X-565080Y640824D01*
X-565080Y646247D01*
X-567792Y648959D01*
X-573215Y648959D01*
X-575927Y646247D01*
X-575927Y640824D01*
X-573215Y638112D01*
X-559555Y640824D02*
X-559555Y648959D01*
X-559555Y640824D02*
X-556844Y638112D01*
X-548709Y638112D01*
X-548709Y648959D01*
X-540472Y651670D02*
X-540472Y640824D01*
X-537760Y638112D01*
X-537760Y648959D02*
X-543184Y648959D01*
D11*
X-656000Y-180000D02*
X109000Y-180000D01*
X159000Y-180000D01*
X924000Y-180000D01*
X-656000Y1400000D02*
X-656000Y1550000D01*
X-656000Y1400000D02*
X-656000Y710000D01*
X-656000Y660000D01*
X-656000Y-30000D01*
X-656000Y-180000D01*
X-656000Y1550000D02*
X109000Y1550000D01*
X159000Y1550000D01*
X924000Y1550000D01*
X924000Y1400000D01*
X924000Y710000D01*
X924000Y660000D01*
X924000Y-30000D01*
X924000Y-180000D01*
X924000Y660000D02*
X-656000Y660000D01*
X-656000Y710000D02*
X924000Y710000D01*
X109000Y1550000D02*
X109000Y-180000D01*
X159000Y-180000D02*
X159000Y1550000D01*
X924000Y-30000D02*
X-656000Y-30000D01*
X-656000Y1400000D02*
X924000Y1400000D01*
D10*
X-590238Y734032D02*
X-590238Y717762D01*
X-584815Y728609D02*
X-590238Y734032D01*
X-584815Y728609D02*
X-579391Y734032D01*
X-579391Y717762D01*
X-573866Y728609D02*
X-571155Y728609D01*
X-571155Y717762D01*
X-573866Y717762D02*
X-568443Y717762D01*
X-571155Y734032D02*
X-571155Y736744D01*
X-562952Y734032D02*
X-560240Y734032D01*
X-560240Y717762D01*
X-557529Y717762D02*
X-562952Y717762D01*
X-552038Y734032D02*
X-549326Y734032D01*
X-549326Y717762D01*
X-552038Y717762D02*
X-546614Y717762D01*
X-522040Y717762D02*
X-516617Y717762D01*
X-513905Y720474D01*
X-513905Y725897D01*
X-516617Y728609D01*
X-522040Y728609D01*
X-524752Y725897D01*
X-524752Y720474D01*
X-522040Y717762D01*
X-508380Y720474D02*
X-508380Y728609D01*
X-508380Y720474D02*
X-505669Y717762D01*
X-497534Y717762D01*
X-497534Y728609D01*
X-489297Y731320D02*
X-489297Y720474D01*
X-486585Y717762D01*
X-486585Y728609D02*
X-492009Y728609D01*
X173237Y654557D02*
X173237Y638287D01*
X178660Y649134D02*
X173237Y654557D01*
X178660Y649134D02*
X184084Y654557D01*
X184084Y638287D01*
X189609Y649134D02*
X192320Y649134D01*
X192320Y638287D01*
X189609Y638287D02*
X195032Y638287D01*
X192320Y654557D02*
X192320Y657269D01*
X200523Y654557D02*
X203235Y654557D01*
X203235Y638287D01*
X205946Y638287D02*
X200523Y638287D01*
X211437Y654557D02*
X214149Y654557D01*
X214149Y638287D01*
X211437Y638287D02*
X216861Y638287D01*
X241435Y638287D02*
X246858Y638287D01*
X249570Y640999D01*
X249570Y646422D01*
X246858Y649134D01*
X241435Y649134D01*
X238723Y646422D01*
X238723Y640999D01*
X241435Y638287D01*
X255095Y640999D02*
X255095Y649134D01*
X255095Y640999D02*
X257806Y638287D01*
X265941Y638287D01*
X265941Y649134D01*
X274178Y651845D02*
X274178Y640999D01*
X276890Y638287D01*
X276890Y649134D02*
X271466Y649134D01*
X230762Y715762D02*
X230762Y732032D01*
X236185Y726609D01*
X241609Y732032D01*
X241609Y715762D01*
X247134Y726609D02*
X249845Y726609D01*
X249845Y715762D01*
X247134Y715762D02*
X252557Y715762D01*
X249845Y732032D02*
X249845Y734744D01*
X258048Y732032D02*
X260760Y732032D01*
X260760Y715762D01*
X263471Y715762D02*
X258048Y715762D01*
X268962Y732032D02*
X271674Y732032D01*
X271674Y715762D01*
X268962Y715762D02*
X274386Y715762D01*
X298960Y715762D02*
X304383Y715762D01*
X307095Y718474D01*
X307095Y723897D01*
X304383Y726609D01*
X298960Y726609D01*
X296248Y723897D01*
X296248Y718474D01*
X298960Y715762D01*
X312620Y718474D02*
X312620Y726609D01*
X312620Y718474D02*
X315331Y715762D01*
X323466Y715762D01*
X323466Y726609D01*
X331703Y729320D02*
X331703Y718474D01*
X334415Y715762D01*
X334415Y726609D02*
X328991Y726609D01*
X172712Y1378287D02*
X172712Y1394557D01*
X178135Y1389134D01*
X183559Y1394557D01*
X183559Y1378287D01*
X189084Y1389134D02*
X191795Y1389134D01*
X191795Y1378287D01*
X189084Y1378287D02*
X194507Y1378287D01*
X191795Y1394557D02*
X191795Y1397269D01*
X199998Y1394557D02*
X202710Y1394557D01*
X202710Y1378287D01*
X205421Y1378287D02*
X199998Y1378287D01*
X210912Y1394557D02*
X213624Y1394557D01*
X213624Y1378287D01*
X210912Y1378287D02*
X216336Y1378287D01*
X240910Y1378287D02*
X246333Y1378287D01*
X249045Y1380999D01*
X249045Y1386422D01*
X246333Y1389134D01*
X240910Y1389134D01*
X238198Y1386422D01*
X238198Y1380999D01*
X240910Y1378287D01*
X254570Y1380999D02*
X254570Y1389134D01*
X254570Y1380999D02*
X257281Y1378287D01*
X265416Y1378287D01*
X265416Y1389134D01*
X273653Y1391845D02*
X273653Y1380999D01*
X276365Y1378287D01*
X276365Y1389134D02*
X270941Y1389134D01*
X-641763Y1394207D02*
X-641763Y1377937D01*
X-636340Y1388784D02*
X-641763Y1394207D01*
X-636340Y1388784D02*
X-630916Y1394207D01*
X-630916Y1377937D01*
X-625391Y1388784D02*
X-622680Y1388784D01*
X-622680Y1377937D01*
X-625391Y1377937D02*
X-619968Y1377937D01*
X-622680Y1394207D02*
X-622680Y1396919D01*
X-614477Y1394207D02*
X-611765Y1394207D01*
X-611765Y1377937D01*
X-609054Y1377937D02*
X-614477Y1377937D01*
X-603563Y1394207D02*
X-600851Y1394207D01*
X-600851Y1377937D01*
X-603563Y1377937D02*
X-598139Y1377937D01*
X-573565Y1377937D02*
X-568142Y1377937D01*
X-565430Y1380649D01*
X-565430Y1386072D01*
X-568142Y1388784D01*
X-573565Y1388784D01*
X-576277Y1386072D01*
X-576277Y1380649D01*
X-573565Y1377937D01*
X-559905Y1380649D02*
X-559905Y1388784D01*
X-559905Y1380649D02*
X-557194Y1377937D01*
X-549059Y1377937D01*
X-549059Y1388784D01*
X-540822Y1391495D02*
X-540822Y1380649D01*
X-538110Y1377937D01*
X-538110Y1388784D02*
X-543534Y1388784D01*
X-556238Y-5968D02*
X-556238Y-22238D01*
X-550815Y-11391D02*
X-556238Y-5968D01*
X-550815Y-11391D02*
X-545391Y-5968D01*
X-545391Y-22238D01*
X-539866Y-11391D02*
X-537155Y-11391D01*
X-537155Y-22238D01*
X-539866Y-22238D02*
X-534443Y-22238D01*
X-537155Y-5968D02*
X-537155Y-3256D01*
X-528952Y-5968D02*
X-526240Y-5968D01*
X-526240Y-22238D01*
X-523529Y-22238D02*
X-528952Y-22238D01*
X-518038Y-5968D02*
X-515326Y-5968D01*
X-515326Y-22238D01*
X-518038Y-22238D02*
X-512614Y-22238D01*
X-488040Y-22238D02*
X-482617Y-22238D01*
X-479905Y-19526D01*
X-479905Y-14103D01*
X-482617Y-11391D01*
X-488040Y-11391D01*
X-490752Y-14103D01*
X-490752Y-19526D01*
X-488040Y-22238D01*
X-474380Y-19526D02*
X-474380Y-11391D01*
X-474380Y-19526D02*
X-471669Y-22238D01*
X-463534Y-22238D01*
X-463534Y-11391D01*
X-455297Y-8680D02*
X-455297Y-19526D01*
X-452585Y-22238D01*
X-452585Y-11391D02*
X-458009Y-11391D01*
X240762Y-7968D02*
X240762Y-24238D01*
X246185Y-13391D02*
X240762Y-7968D01*
X246185Y-13391D02*
X251609Y-7968D01*
X251609Y-24238D01*
X257134Y-13391D02*
X259845Y-13391D01*
X259845Y-24238D01*
X257134Y-24238D02*
X262557Y-24238D01*
X259845Y-7968D02*
X259845Y-5256D01*
X268048Y-7968D02*
X270760Y-7968D01*
X270760Y-24238D01*
X273471Y-24238D02*
X268048Y-24238D01*
X278962Y-7968D02*
X281674Y-7968D01*
X281674Y-24238D01*
X278962Y-24238D02*
X284386Y-24238D01*
X308960Y-24238D02*
X314383Y-24238D01*
X317095Y-21526D01*
X317095Y-16103D01*
X314383Y-13391D01*
X308960Y-13391D01*
X306248Y-16103D01*
X306248Y-21526D01*
X308960Y-24238D01*
X322620Y-21526D02*
X322620Y-13391D01*
X322620Y-21526D02*
X325331Y-24238D01*
X333466Y-24238D01*
X333466Y-13391D01*
X341703Y-10680D02*
X341703Y-21526D01*
X344415Y-24238D01*
X344415Y-13391D02*
X338991Y-13391D01*
D11*
X-656000Y-30000D02*
X-740000Y-30000D01*
D12*
X-916571Y-36148D02*
X-916571Y-15302D01*
X-916571Y-36148D02*
X-906148Y-46571D01*
X-895725Y-36148D01*
X-895725Y-15302D01*
X-881489Y-30937D02*
X-860643Y-30937D01*
X-830773Y-15302D02*
X-825561Y-20514D01*
X-830773Y-15302D02*
X-841196Y-15302D01*
X-846407Y-20514D01*
X-846407Y-41360D01*
X-841196Y-46571D01*
X-830773Y-46571D01*
X-825561Y-41360D01*
X-811325Y-41360D02*
X-811325Y-15302D01*
X-811325Y-41360D02*
X-806114Y-46571D01*
X-795691Y-46571D01*
X-790479Y-41360D01*
X-790479Y-15302D01*
X-765820Y-15302D02*
X-765820Y-46571D01*
X-776243Y-15302D02*
X-755397Y-15302D01*
D11*
X-740000Y660000D02*
X-656000Y660000D01*
D12*
X-916571Y653852D02*
X-916571Y674698D01*
X-916571Y653852D02*
X-906148Y643429D01*
X-895725Y653852D01*
X-895725Y674698D01*
X-881489Y659063D02*
X-860643Y659063D01*
X-830773Y674698D02*
X-825561Y669486D01*
X-830773Y674698D02*
X-841196Y674698D01*
X-846407Y669486D01*
X-846407Y648640D01*
X-841196Y643429D01*
X-830773Y643429D01*
X-825561Y648640D01*
X-811325Y648640D02*
X-811325Y674698D01*
X-811325Y648640D02*
X-806114Y643429D01*
X-795691Y643429D01*
X-790479Y648640D01*
X-790479Y674698D01*
X-765820Y674698D02*
X-765820Y643429D01*
X-776243Y674698D02*
X-755397Y674698D01*
D11*
X-740000Y710000D02*
X-656000Y710000D01*
D12*
X-916571Y703852D02*
X-916571Y724698D01*
X-916571Y703852D02*
X-906148Y693429D01*
X-895725Y703852D01*
X-895725Y724698D01*
X-881489Y709063D02*
X-860643Y709063D01*
X-830773Y724698D02*
X-825561Y719486D01*
X-830773Y724698D02*
X-841196Y724698D01*
X-846407Y719486D01*
X-846407Y698640D01*
X-841196Y693429D01*
X-830773Y693429D01*
X-825561Y698640D01*
X-811325Y698640D02*
X-811325Y724698D01*
X-811325Y698640D02*
X-806114Y693429D01*
X-795691Y693429D01*
X-790479Y698640D01*
X-790479Y724698D01*
X-765820Y724698D02*
X-765820Y693429D01*
X-776243Y724698D02*
X-755397Y724698D01*
D11*
X-740000Y1400000D02*
X-656000Y1400000D01*
D12*
X-916571Y1393852D02*
X-916571Y1414698D01*
X-916571Y1393852D02*
X-906148Y1383429D01*
X-895725Y1393852D01*
X-895725Y1414698D01*
X-881489Y1399063D02*
X-860643Y1399063D01*
X-830773Y1414698D02*
X-825561Y1409486D01*
X-830773Y1414698D02*
X-841196Y1414698D01*
X-846407Y1409486D01*
X-846407Y1388640D01*
X-841196Y1383429D01*
X-830773Y1383429D01*
X-825561Y1388640D01*
X-811325Y1388640D02*
X-811325Y1414698D01*
X-811325Y1388640D02*
X-806114Y1383429D01*
X-795691Y1383429D01*
X-790479Y1388640D01*
X-790479Y1414698D01*
X-765820Y1414698D02*
X-765820Y1383429D01*
X-776243Y1414698D02*
X-755397Y1414698D01*
D11*
X109000Y1550000D02*
X109000Y1640000D01*
D12*
X113248Y1648019D02*
X92402Y1648019D01*
X113248Y1648019D02*
X123671Y1658442D01*
X113248Y1668865D01*
X92402Y1668865D01*
X108037Y1683101D02*
X108037Y1703947D01*
X92402Y1733817D02*
X97614Y1739029D01*
X92402Y1733817D02*
X92402Y1723394D01*
X97614Y1718183D01*
X118460Y1718183D01*
X123671Y1723394D01*
X123671Y1733817D01*
X118460Y1739029D01*
X118460Y1753265D02*
X92402Y1753265D01*
X118460Y1753265D02*
X123671Y1758476D01*
X123671Y1768899D01*
X118460Y1774111D01*
X92402Y1774111D01*
X92402Y1798770D02*
X123671Y1798770D01*
X92402Y1788347D02*
X92402Y1809193D01*
D11*
X159000Y1640000D02*
X159000Y1550000D01*
D12*
X163248Y1648019D02*
X142402Y1648019D01*
X163248Y1648019D02*
X173671Y1658442D01*
X163248Y1668865D01*
X142402Y1668865D01*
X158037Y1683101D02*
X158037Y1703947D01*
X142402Y1733817D02*
X147614Y1739029D01*
X142402Y1733817D02*
X142402Y1723394D01*
X147614Y1718183D01*
X168460Y1718183D01*
X173671Y1723394D01*
X173671Y1733817D01*
X168460Y1739029D01*
X168460Y1753265D02*
X142402Y1753265D01*
X168460Y1753265D02*
X173671Y1758476D01*
X173671Y1768899D01*
X168460Y1774111D01*
X142402Y1774111D01*
X142402Y1798770D02*
X173671Y1798770D01*
X142402Y1788347D02*
X142402Y1809193D01*
D13*
X109000Y660000D02*
X109000Y-30000D01*
X109000Y660000D02*
X-433000Y660000D01*
X-433000Y644000D01*
X-433003Y643758D01*
X-433012Y643517D01*
X-433026Y643276D01*
X-433047Y643035D01*
X-433073Y642795D01*
X-433105Y642555D01*
X-433143Y642316D01*
X-433186Y642079D01*
X-433236Y641842D01*
X-433291Y641607D01*
X-433351Y641373D01*
X-433418Y641141D01*
X-433489Y640910D01*
X-433567Y640681D01*
X-433650Y640454D01*
X-433738Y640229D01*
X-433832Y640006D01*
X-433931Y639786D01*
X-434036Y639568D01*
X-434145Y639353D01*
X-434260Y639140D01*
X-434380Y638930D01*
X-434505Y638724D01*
X-434635Y638520D01*
X-434770Y638319D01*
X-434910Y638122D01*
X-435054Y637928D01*
X-435203Y637738D01*
X-435357Y637552D01*
X-435515Y637369D01*
X-435677Y637190D01*
X-435844Y637015D01*
X-436015Y636844D01*
X-436190Y636677D01*
X-436369Y636515D01*
X-436552Y636357D01*
X-436738Y636203D01*
X-436928Y636054D01*
X-437122Y635910D01*
X-437319Y635770D01*
X-437520Y635635D01*
X-437724Y635505D01*
X-437930Y635380D01*
X-438140Y635260D01*
X-438353Y635145D01*
X-438568Y635036D01*
X-438786Y634931D01*
X-439006Y634832D01*
X-439229Y634738D01*
X-439454Y634650D01*
X-439681Y634567D01*
X-439910Y634489D01*
X-440141Y634418D01*
X-440373Y634351D01*
X-440607Y634291D01*
X-440842Y634236D01*
X-441079Y634186D01*
X-441316Y634143D01*
X-441555Y634105D01*
X-441795Y634073D01*
X-442035Y634047D01*
X-442276Y634026D01*
X-442517Y634012D01*
X-442758Y634003D01*
X-443000Y634000D01*
X-541000Y634000D01*
X-541000Y623000D01*
X-541003Y622758D01*
X-541012Y622517D01*
X-541026Y622276D01*
X-541047Y622035D01*
X-541073Y621795D01*
X-541105Y621555D01*
X-541143Y621316D01*
X-541186Y621079D01*
X-541236Y620842D01*
X-541291Y620607D01*
X-541351Y620373D01*
X-541418Y620141D01*
X-541489Y619910D01*
X-541567Y619681D01*
X-541650Y619454D01*
X-541738Y619229D01*
X-541832Y619006D01*
X-541931Y618786D01*
X-542036Y618568D01*
X-542145Y618353D01*
X-542260Y618140D01*
X-542380Y617930D01*
X-542505Y617724D01*
X-542635Y617520D01*
X-542770Y617319D01*
X-542910Y617122D01*
X-543054Y616928D01*
X-543203Y616738D01*
X-543357Y616552D01*
X-543515Y616369D01*
X-543677Y616190D01*
X-543844Y616015D01*
X-544015Y615844D01*
X-544190Y615677D01*
X-544369Y615515D01*
X-544552Y615357D01*
X-544738Y615203D01*
X-544928Y615054D01*
X-545122Y614910D01*
X-545319Y614770D01*
X-545520Y614635D01*
X-545724Y614505D01*
X-545930Y614380D01*
X-546140Y614260D01*
X-546353Y614145D01*
X-546568Y614036D01*
X-546786Y613931D01*
X-547006Y613832D01*
X-547229Y613738D01*
X-547454Y613650D01*
X-547681Y613567D01*
X-547910Y613489D01*
X-548141Y613418D01*
X-548373Y613351D01*
X-548607Y613291D01*
X-548842Y613236D01*
X-549079Y613186D01*
X-549316Y613143D01*
X-549555Y613105D01*
X-549795Y613073D01*
X-550035Y613047D01*
X-550276Y613026D01*
X-550517Y613012D01*
X-550758Y613003D01*
X-551000Y613000D01*
X-656000Y613000D01*
X-656000Y0D01*
X-395000Y0D01*
X-394758Y-3D01*
X-394517Y-12D01*
X-394276Y-26D01*
X-394035Y-47D01*
X-393795Y-73D01*
X-393555Y-105D01*
X-393316Y-143D01*
X-393079Y-186D01*
X-392842Y-236D01*
X-392607Y-291D01*
X-392373Y-351D01*
X-392141Y-418D01*
X-391910Y-489D01*
X-391681Y-567D01*
X-391454Y-650D01*
X-391229Y-738D01*
X-391006Y-832D01*
X-390786Y-931D01*
X-390568Y-1036D01*
X-390353Y-1145D01*
X-390140Y-1260D01*
X-389930Y-1380D01*
X-389724Y-1505D01*
X-389520Y-1635D01*
X-389319Y-1770D01*
X-389122Y-1910D01*
X-388928Y-2054D01*
X-388738Y-2203D01*
X-388552Y-2357D01*
X-388369Y-2515D01*
X-388190Y-2677D01*
X-388015Y-2844D01*
X-387844Y-3015D01*
X-387677Y-3190D01*
X-387515Y-3369D01*
X-387357Y-3552D01*
X-387203Y-3738D01*
X-387054Y-3928D01*
X-386910Y-4122D01*
X-386770Y-4319D01*
X-386635Y-4520D01*
X-386505Y-4724D01*
X-386380Y-4930D01*
X-386260Y-5140D01*
X-386145Y-5353D01*
X-386036Y-5568D01*
X-385931Y-5786D01*
X-385832Y-6006D01*
X-385738Y-6229D01*
X-385650Y-6454D01*
X-385567Y-6681D01*
X-385489Y-6910D01*
X-385418Y-7141D01*
X-385351Y-7373D01*
X-385291Y-7607D01*
X-385236Y-7842D01*
X-385186Y-8079D01*
X-385143Y-8316D01*
X-385105Y-8555D01*
X-385073Y-8795D01*
X-385047Y-9035D01*
X-385026Y-9276D01*
X-385012Y-9517D01*
X-385003Y-9758D01*
X-385000Y-10000D01*
X-385000Y-30000D01*
X109000Y-30000D01*
D11*
X-618000Y125000D02*
X-617997Y125221D01*
X-617989Y125442D01*
X-617976Y125662D01*
X-617957Y125882D01*
X-617932Y126102D01*
X-617903Y126321D01*
X-617867Y126539D01*
X-617827Y126756D01*
X-617781Y126972D01*
X-617730Y127187D01*
X-617674Y127400D01*
X-617612Y127613D01*
X-617546Y127823D01*
X-617474Y128032D01*
X-617397Y128239D01*
X-617315Y128444D01*
X-617228Y128647D01*
X-617136Y128848D01*
X-617039Y129047D01*
X-616937Y129243D01*
X-616831Y129436D01*
X-616720Y129627D01*
X-616604Y129815D01*
X-616483Y130000D01*
X-616358Y130182D01*
X-616229Y130361D01*
X-616095Y130537D01*
X-615957Y130710D01*
X-615815Y130879D01*
X-615669Y131044D01*
X-615518Y131206D01*
X-615364Y131364D01*
X-615206Y131518D01*
X-615044Y131669D01*
X-614879Y131815D01*
X-614710Y131957D01*
X-614537Y132095D01*
X-614361Y132229D01*
X-614182Y132358D01*
X-614000Y132483D01*
X-613815Y132604D01*
X-613627Y132720D01*
X-613436Y132831D01*
X-613243Y132937D01*
X-613047Y133039D01*
X-612848Y133136D01*
X-612647Y133228D01*
X-612444Y133315D01*
X-612239Y133397D01*
X-612032Y133474D01*
X-611823Y133546D01*
X-611613Y133612D01*
X-611400Y133674D01*
X-611187Y133730D01*
X-610972Y133781D01*
X-610756Y133827D01*
X-610539Y133867D01*
X-610321Y133903D01*
X-610102Y133932D01*
X-609882Y133957D01*
X-609662Y133976D01*
X-609442Y133989D01*
X-609221Y133997D01*
X-609000Y134000D01*
X-608779Y133997D01*
X-608558Y133989D01*
X-608338Y133976D01*
X-608118Y133957D01*
X-607898Y133932D01*
X-607679Y133903D01*
X-607461Y133867D01*
X-607244Y133827D01*
X-607028Y133781D01*
X-606813Y133730D01*
X-606600Y133674D01*
X-606387Y133612D01*
X-606177Y133546D01*
X-605968Y133474D01*
X-605761Y133397D01*
X-605556Y133315D01*
X-605353Y133228D01*
X-605152Y133136D01*
X-604953Y133039D01*
X-604757Y132937D01*
X-604564Y132831D01*
X-604373Y132720D01*
X-604185Y132604D01*
X-604000Y132483D01*
X-603818Y132358D01*
X-603639Y132229D01*
X-603463Y132095D01*
X-603290Y131957D01*
X-603121Y131815D01*
X-602956Y131669D01*
X-602794Y131518D01*
X-602636Y131364D01*
X-602482Y131206D01*
X-602331Y131044D01*
X-602185Y130879D01*
X-602043Y130710D01*
X-601905Y130537D01*
X-601771Y130361D01*
X-601642Y130182D01*
X-601517Y130000D01*
X-601396Y129815D01*
X-601280Y129627D01*
X-601169Y129436D01*
X-601063Y129243D01*
X-600961Y129047D01*
X-600864Y128848D01*
X-600772Y128647D01*
X-600685Y128444D01*
X-600603Y128239D01*
X-600526Y128032D01*
X-600454Y127823D01*
X-600388Y127613D01*
X-600326Y127400D01*
X-600270Y127187D01*
X-600219Y126972D01*
X-600173Y126756D01*
X-600133Y126539D01*
X-600097Y126321D01*
X-600068Y126102D01*
X-600043Y125882D01*
X-600024Y125662D01*
X-600011Y125442D01*
X-600003Y125221D01*
X-600000Y125000D01*
X-600003Y124779D01*
X-600011Y124558D01*
X-600024Y124338D01*
X-600043Y124118D01*
X-600068Y123898D01*
X-600097Y123679D01*
X-600133Y123461D01*
X-600173Y123244D01*
X-600219Y123028D01*
X-600270Y122813D01*
X-600326Y122600D01*
X-600388Y122387D01*
X-600454Y122177D01*
X-600526Y121968D01*
X-600603Y121761D01*
X-600685Y121556D01*
X-600772Y121353D01*
X-600864Y121152D01*
X-600961Y120953D01*
X-601063Y120757D01*
X-601169Y120564D01*
X-601280Y120373D01*
X-601396Y120185D01*
X-601517Y120000D01*
X-601642Y119818D01*
X-601771Y119639D01*
X-601905Y119463D01*
X-602043Y119290D01*
X-602185Y119121D01*
X-602331Y118956D01*
X-602482Y118794D01*
X-602636Y118636D01*
X-602794Y118482D01*
X-602956Y118331D01*
X-603121Y118185D01*
X-603290Y118043D01*
X-603463Y117905D01*
X-603639Y117771D01*
X-603818Y117642D01*
X-604000Y117517D01*
X-604185Y117396D01*
X-604373Y117280D01*
X-604564Y117169D01*
X-604757Y117063D01*
X-604953Y116961D01*
X-605152Y116864D01*
X-605353Y116772D01*
X-605556Y116685D01*
X-605761Y116603D01*
X-605968Y116526D01*
X-606177Y116454D01*
X-606387Y116388D01*
X-606600Y116326D01*
X-606813Y116270D01*
X-607028Y116219D01*
X-607244Y116173D01*
X-607461Y116133D01*
X-607679Y116097D01*
X-607898Y116068D01*
X-608118Y116043D01*
X-608338Y116024D01*
X-608558Y116011D01*
X-608779Y116003D01*
X-609000Y116000D01*
X-609221Y116003D01*
X-609442Y116011D01*
X-609662Y116024D01*
X-609882Y116043D01*
X-610102Y116068D01*
X-610321Y116097D01*
X-610539Y116133D01*
X-610756Y116173D01*
X-610972Y116219D01*
X-611187Y116270D01*
X-611400Y116326D01*
X-611613Y116388D01*
X-611823Y116454D01*
X-612032Y116526D01*
X-612239Y116603D01*
X-612444Y116685D01*
X-612647Y116772D01*
X-612848Y116864D01*
X-613047Y116961D01*
X-613243Y117063D01*
X-613436Y117169D01*
X-613627Y117280D01*
X-613815Y117396D01*
X-614000Y117517D01*
X-614182Y117642D01*
X-614361Y117771D01*
X-614537Y117905D01*
X-614710Y118043D01*
X-614879Y118185D01*
X-615044Y118331D01*
X-615206Y118482D01*
X-615364Y118636D01*
X-615518Y118794D01*
X-615669Y118956D01*
X-615815Y119121D01*
X-615957Y119290D01*
X-616095Y119463D01*
X-616229Y119639D01*
X-616358Y119818D01*
X-616483Y120000D01*
X-616604Y120185D01*
X-616720Y120373D01*
X-616831Y120564D01*
X-616937Y120757D01*
X-617039Y120953D01*
X-617136Y121152D01*
X-617228Y121353D01*
X-617315Y121556D01*
X-617397Y121761D01*
X-617474Y121968D01*
X-617546Y122177D01*
X-617612Y122387D01*
X-617674Y122600D01*
X-617730Y122813D01*
X-617781Y123028D01*
X-617827Y123244D01*
X-617867Y123461D01*
X-617903Y123679D01*
X-617932Y123898D01*
X-617957Y124118D01*
X-617976Y124338D01*
X-617989Y124558D01*
X-617997Y124779D01*
X-618000Y125000D01*
X-618000Y265000D02*
X-617997Y265221D01*
X-617989Y265442D01*
X-617976Y265662D01*
X-617957Y265882D01*
X-617932Y266102D01*
X-617903Y266321D01*
X-617867Y266539D01*
X-617827Y266756D01*
X-617781Y266972D01*
X-617730Y267187D01*
X-617674Y267400D01*
X-617612Y267613D01*
X-617546Y267823D01*
X-617474Y268032D01*
X-617397Y268239D01*
X-617315Y268444D01*
X-617228Y268647D01*
X-617136Y268848D01*
X-617039Y269047D01*
X-616937Y269243D01*
X-616831Y269436D01*
X-616720Y269627D01*
X-616604Y269815D01*
X-616483Y270000D01*
X-616358Y270182D01*
X-616229Y270361D01*
X-616095Y270537D01*
X-615957Y270710D01*
X-615815Y270879D01*
X-615669Y271044D01*
X-615518Y271206D01*
X-615364Y271364D01*
X-615206Y271518D01*
X-615044Y271669D01*
X-614879Y271815D01*
X-614710Y271957D01*
X-614537Y272095D01*
X-614361Y272229D01*
X-614182Y272358D01*
X-614000Y272483D01*
X-613815Y272604D01*
X-613627Y272720D01*
X-613436Y272831D01*
X-613243Y272937D01*
X-613047Y273039D01*
X-612848Y273136D01*
X-612647Y273228D01*
X-612444Y273315D01*
X-612239Y273397D01*
X-612032Y273474D01*
X-611823Y273546D01*
X-611613Y273612D01*
X-611400Y273674D01*
X-611187Y273730D01*
X-610972Y273781D01*
X-610756Y273827D01*
X-610539Y273867D01*
X-610321Y273903D01*
X-610102Y273932D01*
X-609882Y273957D01*
X-609662Y273976D01*
X-609442Y273989D01*
X-609221Y273997D01*
X-609000Y274000D01*
X-608779Y273997D01*
X-608558Y273989D01*
X-608338Y273976D01*
X-608118Y273957D01*
X-607898Y273932D01*
X-607679Y273903D01*
X-607461Y273867D01*
X-607244Y273827D01*
X-607028Y273781D01*
X-606813Y273730D01*
X-606600Y273674D01*
X-606387Y273612D01*
X-606177Y273546D01*
X-605968Y273474D01*
X-605761Y273397D01*
X-605556Y273315D01*
X-605353Y273228D01*
X-605152Y273136D01*
X-604953Y273039D01*
X-604757Y272937D01*
X-604564Y272831D01*
X-604373Y272720D01*
X-604185Y272604D01*
X-604000Y272483D01*
X-603818Y272358D01*
X-603639Y272229D01*
X-603463Y272095D01*
X-603290Y271957D01*
X-603121Y271815D01*
X-602956Y271669D01*
X-602794Y271518D01*
X-602636Y271364D01*
X-602482Y271206D01*
X-602331Y271044D01*
X-602185Y270879D01*
X-602043Y270710D01*
X-601905Y270537D01*
X-601771Y270361D01*
X-601642Y270182D01*
X-601517Y270000D01*
X-601396Y269815D01*
X-601280Y269627D01*
X-601169Y269436D01*
X-601063Y269243D01*
X-600961Y269047D01*
X-600864Y268848D01*
X-600772Y268647D01*
X-600685Y268444D01*
X-600603Y268239D01*
X-600526Y268032D01*
X-600454Y267823D01*
X-600388Y267613D01*
X-600326Y267400D01*
X-600270Y267187D01*
X-600219Y266972D01*
X-600173Y266756D01*
X-600133Y266539D01*
X-600097Y266321D01*
X-600068Y266102D01*
X-600043Y265882D01*
X-600024Y265662D01*
X-600011Y265442D01*
X-600003Y265221D01*
X-600000Y265000D01*
X-600003Y264779D01*
X-600011Y264558D01*
X-600024Y264338D01*
X-600043Y264118D01*
X-600068Y263898D01*
X-600097Y263679D01*
X-600133Y263461D01*
X-600173Y263244D01*
X-600219Y263028D01*
X-600270Y262813D01*
X-600326Y262600D01*
X-600388Y262387D01*
X-600454Y262177D01*
X-600526Y261968D01*
X-600603Y261761D01*
X-600685Y261556D01*
X-600772Y261353D01*
X-600864Y261152D01*
X-600961Y260953D01*
X-601063Y260757D01*
X-601169Y260564D01*
X-601280Y260373D01*
X-601396Y260185D01*
X-601517Y260000D01*
X-601642Y259818D01*
X-601771Y259639D01*
X-601905Y259463D01*
X-602043Y259290D01*
X-602185Y259121D01*
X-602331Y258956D01*
X-602482Y258794D01*
X-602636Y258636D01*
X-602794Y258482D01*
X-602956Y258331D01*
X-603121Y258185D01*
X-603290Y258043D01*
X-603463Y257905D01*
X-603639Y257771D01*
X-603818Y257642D01*
X-604000Y257517D01*
X-604185Y257396D01*
X-604373Y257280D01*
X-604564Y257169D01*
X-604757Y257063D01*
X-604953Y256961D01*
X-605152Y256864D01*
X-605353Y256772D01*
X-605556Y256685D01*
X-605761Y256603D01*
X-605968Y256526D01*
X-606177Y256454D01*
X-606387Y256388D01*
X-606600Y256326D01*
X-606813Y256270D01*
X-607028Y256219D01*
X-607244Y256173D01*
X-607461Y256133D01*
X-607679Y256097D01*
X-607898Y256068D01*
X-608118Y256043D01*
X-608338Y256024D01*
X-608558Y256011D01*
X-608779Y256003D01*
X-609000Y256000D01*
X-609221Y256003D01*
X-609442Y256011D01*
X-609662Y256024D01*
X-609882Y256043D01*
X-610102Y256068D01*
X-610321Y256097D01*
X-610539Y256133D01*
X-610756Y256173D01*
X-610972Y256219D01*
X-611187Y256270D01*
X-611400Y256326D01*
X-611613Y256388D01*
X-611823Y256454D01*
X-612032Y256526D01*
X-612239Y256603D01*
X-612444Y256685D01*
X-612647Y256772D01*
X-612848Y256864D01*
X-613047Y256961D01*
X-613243Y257063D01*
X-613436Y257169D01*
X-613627Y257280D01*
X-613815Y257396D01*
X-614000Y257517D01*
X-614182Y257642D01*
X-614361Y257771D01*
X-614537Y257905D01*
X-614710Y258043D01*
X-614879Y258185D01*
X-615044Y258331D01*
X-615206Y258482D01*
X-615364Y258636D01*
X-615518Y258794D01*
X-615669Y258956D01*
X-615815Y259121D01*
X-615957Y259290D01*
X-616095Y259463D01*
X-616229Y259639D01*
X-616358Y259818D01*
X-616483Y260000D01*
X-616604Y260185D01*
X-616720Y260373D01*
X-616831Y260564D01*
X-616937Y260757D01*
X-617039Y260953D01*
X-617136Y261152D01*
X-617228Y261353D01*
X-617315Y261556D01*
X-617397Y261761D01*
X-617474Y261968D01*
X-617546Y262177D01*
X-617612Y262387D01*
X-617674Y262600D01*
X-617730Y262813D01*
X-617781Y263028D01*
X-617827Y263244D01*
X-617867Y263461D01*
X-617903Y263679D01*
X-617932Y263898D01*
X-617957Y264118D01*
X-617976Y264338D01*
X-617989Y264558D01*
X-617997Y264779D01*
X-618000Y265000D01*
X-595500Y99000D02*
X-595497Y99282D01*
X-595486Y99564D01*
X-595469Y99846D01*
X-595445Y100127D01*
X-595414Y100408D01*
X-595376Y100687D01*
X-595331Y100966D01*
X-595279Y101244D01*
X-595221Y101520D01*
X-595155Y101794D01*
X-595083Y102067D01*
X-595005Y102338D01*
X-594920Y102607D01*
X-594828Y102874D01*
X-594729Y103139D01*
X-594625Y103401D01*
X-594513Y103660D01*
X-594396Y103917D01*
X-594272Y104171D01*
X-594142Y104421D01*
X-594006Y104668D01*
X-593864Y104912D01*
X-593716Y105152D01*
X-593562Y105389D01*
X-593402Y105622D01*
X-593237Y105851D01*
X-593066Y106075D01*
X-592890Y106296D01*
X-592708Y106511D01*
X-592521Y106723D01*
X-592329Y106930D01*
X-592132Y107132D01*
X-591930Y107329D01*
X-591723Y107521D01*
X-591511Y107708D01*
X-591296Y107890D01*
X-591075Y108066D01*
X-590851Y108237D01*
X-590622Y108402D01*
X-590389Y108562D01*
X-590152Y108716D01*
X-589912Y108864D01*
X-589668Y109006D01*
X-589421Y109142D01*
X-589171Y109272D01*
X-588917Y109396D01*
X-588660Y109513D01*
X-588401Y109625D01*
X-588139Y109729D01*
X-587874Y109828D01*
X-587607Y109920D01*
X-587338Y110005D01*
X-587067Y110083D01*
X-586794Y110155D01*
X-586520Y110221D01*
X-586244Y110279D01*
X-585966Y110331D01*
X-585687Y110376D01*
X-585408Y110414D01*
X-585127Y110445D01*
X-584846Y110469D01*
X-584564Y110486D01*
X-584282Y110497D01*
X-584000Y110500D01*
X-583718Y110497D01*
X-583436Y110486D01*
X-583154Y110469D01*
X-582873Y110445D01*
X-582592Y110414D01*
X-582313Y110376D01*
X-582034Y110331D01*
X-581756Y110279D01*
X-581480Y110221D01*
X-581206Y110155D01*
X-580933Y110083D01*
X-580662Y110005D01*
X-580393Y109920D01*
X-580126Y109828D01*
X-579861Y109729D01*
X-579599Y109625D01*
X-579340Y109513D01*
X-579083Y109396D01*
X-578829Y109272D01*
X-578579Y109142D01*
X-578332Y109006D01*
X-578088Y108864D01*
X-577848Y108716D01*
X-577611Y108562D01*
X-577378Y108402D01*
X-577149Y108237D01*
X-576925Y108066D01*
X-576704Y107890D01*
X-576489Y107708D01*
X-576277Y107521D01*
X-576070Y107329D01*
X-575868Y107132D01*
X-575671Y106930D01*
X-575479Y106723D01*
X-575292Y106511D01*
X-575110Y106296D01*
X-574934Y106075D01*
X-574763Y105851D01*
X-574598Y105622D01*
X-574438Y105389D01*
X-574284Y105152D01*
X-574136Y104912D01*
X-573994Y104668D01*
X-573858Y104421D01*
X-573728Y104171D01*
X-573604Y103917D01*
X-573487Y103660D01*
X-573375Y103401D01*
X-573271Y103139D01*
X-573172Y102874D01*
X-573080Y102607D01*
X-572995Y102338D01*
X-572917Y102067D01*
X-572845Y101794D01*
X-572779Y101520D01*
X-572721Y101244D01*
X-572669Y100966D01*
X-572624Y100687D01*
X-572586Y100408D01*
X-572555Y100127D01*
X-572531Y99846D01*
X-572514Y99564D01*
X-572503Y99282D01*
X-572500Y99000D01*
X-572503Y98718D01*
X-572514Y98436D01*
X-572531Y98154D01*
X-572555Y97873D01*
X-572586Y97592D01*
X-572624Y97313D01*
X-572669Y97034D01*
X-572721Y96756D01*
X-572779Y96480D01*
X-572845Y96206D01*
X-572917Y95933D01*
X-572995Y95662D01*
X-573080Y95393D01*
X-573172Y95126D01*
X-573271Y94861D01*
X-573375Y94599D01*
X-573487Y94340D01*
X-573604Y94083D01*
X-573728Y93829D01*
X-573858Y93579D01*
X-573994Y93332D01*
X-574136Y93088D01*
X-574284Y92848D01*
X-574438Y92611D01*
X-574598Y92378D01*
X-574763Y92149D01*
X-574934Y91925D01*
X-575110Y91704D01*
X-575292Y91489D01*
X-575479Y91277D01*
X-575671Y91070D01*
X-575868Y90868D01*
X-576070Y90671D01*
X-576277Y90479D01*
X-576489Y90292D01*
X-576704Y90110D01*
X-576925Y89934D01*
X-577149Y89763D01*
X-577378Y89598D01*
X-577611Y89438D01*
X-577848Y89284D01*
X-578088Y89136D01*
X-578332Y88994D01*
X-578579Y88858D01*
X-578829Y88728D01*
X-579083Y88604D01*
X-579340Y88487D01*
X-579599Y88375D01*
X-579861Y88271D01*
X-580126Y88172D01*
X-580393Y88080D01*
X-580662Y87995D01*
X-580933Y87917D01*
X-581206Y87845D01*
X-581480Y87779D01*
X-581756Y87721D01*
X-582034Y87669D01*
X-582313Y87624D01*
X-582592Y87586D01*
X-582873Y87555D01*
X-583154Y87531D01*
X-583436Y87514D01*
X-583718Y87503D01*
X-584000Y87500D01*
X-584282Y87503D01*
X-584564Y87514D01*
X-584846Y87531D01*
X-585127Y87555D01*
X-585408Y87586D01*
X-585687Y87624D01*
X-585966Y87669D01*
X-586244Y87721D01*
X-586520Y87779D01*
X-586794Y87845D01*
X-587067Y87917D01*
X-587338Y87995D01*
X-587607Y88080D01*
X-587874Y88172D01*
X-588139Y88271D01*
X-588401Y88375D01*
X-588660Y88487D01*
X-588917Y88604D01*
X-589171Y88728D01*
X-589421Y88858D01*
X-589668Y88994D01*
X-589912Y89136D01*
X-590152Y89284D01*
X-590389Y89438D01*
X-590622Y89598D01*
X-590851Y89763D01*
X-591075Y89934D01*
X-591296Y90110D01*
X-591511Y90292D01*
X-591723Y90479D01*
X-591930Y90671D01*
X-592132Y90868D01*
X-592329Y91070D01*
X-592521Y91277D01*
X-592708Y91489D01*
X-592890Y91704D01*
X-593066Y91925D01*
X-593237Y92149D01*
X-593402Y92378D01*
X-593562Y92611D01*
X-593716Y92848D01*
X-593864Y93088D01*
X-594006Y93332D01*
X-594142Y93579D01*
X-594272Y93829D01*
X-594396Y94083D01*
X-594513Y94340D01*
X-594625Y94599D01*
X-594729Y94861D01*
X-594828Y95126D01*
X-594920Y95393D01*
X-595005Y95662D01*
X-595083Y95933D01*
X-595155Y96206D01*
X-595221Y96480D01*
X-595279Y96756D01*
X-595331Y97034D01*
X-595376Y97313D01*
X-595414Y97592D01*
X-595445Y97873D01*
X-595469Y98154D01*
X-595486Y98436D01*
X-595497Y98718D01*
X-595500Y99000D01*
X-595500Y291000D02*
X-595497Y291282D01*
X-595486Y291564D01*
X-595469Y291846D01*
X-595445Y292127D01*
X-595414Y292408D01*
X-595376Y292687D01*
X-595331Y292966D01*
X-595279Y293244D01*
X-595221Y293520D01*
X-595155Y293794D01*
X-595083Y294067D01*
X-595005Y294338D01*
X-594920Y294607D01*
X-594828Y294874D01*
X-594729Y295139D01*
X-594625Y295401D01*
X-594513Y295660D01*
X-594396Y295917D01*
X-594272Y296171D01*
X-594142Y296421D01*
X-594006Y296668D01*
X-593864Y296912D01*
X-593716Y297152D01*
X-593562Y297389D01*
X-593402Y297622D01*
X-593237Y297851D01*
X-593066Y298075D01*
X-592890Y298296D01*
X-592708Y298511D01*
X-592521Y298723D01*
X-592329Y298930D01*
X-592132Y299132D01*
X-591930Y299329D01*
X-591723Y299521D01*
X-591511Y299708D01*
X-591296Y299890D01*
X-591075Y300066D01*
X-590851Y300237D01*
X-590622Y300402D01*
X-590389Y300562D01*
X-590152Y300716D01*
X-589912Y300864D01*
X-589668Y301006D01*
X-589421Y301142D01*
X-589171Y301272D01*
X-588917Y301396D01*
X-588660Y301513D01*
X-588401Y301625D01*
X-588139Y301729D01*
X-587874Y301828D01*
X-587607Y301920D01*
X-587338Y302005D01*
X-587067Y302083D01*
X-586794Y302155D01*
X-586520Y302221D01*
X-586244Y302279D01*
X-585966Y302331D01*
X-585687Y302376D01*
X-585408Y302414D01*
X-585127Y302445D01*
X-584846Y302469D01*
X-584564Y302486D01*
X-584282Y302497D01*
X-584000Y302500D01*
X-583718Y302497D01*
X-583436Y302486D01*
X-583154Y302469D01*
X-582873Y302445D01*
X-582592Y302414D01*
X-582313Y302376D01*
X-582034Y302331D01*
X-581756Y302279D01*
X-581480Y302221D01*
X-581206Y302155D01*
X-580933Y302083D01*
X-580662Y302005D01*
X-580393Y301920D01*
X-580126Y301828D01*
X-579861Y301729D01*
X-579599Y301625D01*
X-579340Y301513D01*
X-579083Y301396D01*
X-578829Y301272D01*
X-578579Y301142D01*
X-578332Y301006D01*
X-578088Y300864D01*
X-577848Y300716D01*
X-577611Y300562D01*
X-577378Y300402D01*
X-577149Y300237D01*
X-576925Y300066D01*
X-576704Y299890D01*
X-576489Y299708D01*
X-576277Y299521D01*
X-576070Y299329D01*
X-575868Y299132D01*
X-575671Y298930D01*
X-575479Y298723D01*
X-575292Y298511D01*
X-575110Y298296D01*
X-574934Y298075D01*
X-574763Y297851D01*
X-574598Y297622D01*
X-574438Y297389D01*
X-574284Y297152D01*
X-574136Y296912D01*
X-573994Y296668D01*
X-573858Y296421D01*
X-573728Y296171D01*
X-573604Y295917D01*
X-573487Y295660D01*
X-573375Y295401D01*
X-573271Y295139D01*
X-573172Y294874D01*
X-573080Y294607D01*
X-572995Y294338D01*
X-572917Y294067D01*
X-572845Y293794D01*
X-572779Y293520D01*
X-572721Y293244D01*
X-572669Y292966D01*
X-572624Y292687D01*
X-572586Y292408D01*
X-572555Y292127D01*
X-572531Y291846D01*
X-572514Y291564D01*
X-572503Y291282D01*
X-572500Y291000D01*
X-572503Y290718D01*
X-572514Y290436D01*
X-572531Y290154D01*
X-572555Y289873D01*
X-572586Y289592D01*
X-572624Y289313D01*
X-572669Y289034D01*
X-572721Y288756D01*
X-572779Y288480D01*
X-572845Y288206D01*
X-572917Y287933D01*
X-572995Y287662D01*
X-573080Y287393D01*
X-573172Y287126D01*
X-573271Y286861D01*
X-573375Y286599D01*
X-573487Y286340D01*
X-573604Y286083D01*
X-573728Y285829D01*
X-573858Y285579D01*
X-573994Y285332D01*
X-574136Y285088D01*
X-574284Y284848D01*
X-574438Y284611D01*
X-574598Y284378D01*
X-574763Y284149D01*
X-574934Y283925D01*
X-575110Y283704D01*
X-575292Y283489D01*
X-575479Y283277D01*
X-575671Y283070D01*
X-575868Y282868D01*
X-576070Y282671D01*
X-576277Y282479D01*
X-576489Y282292D01*
X-576704Y282110D01*
X-576925Y281934D01*
X-577149Y281763D01*
X-577378Y281598D01*
X-577611Y281438D01*
X-577848Y281284D01*
X-578088Y281136D01*
X-578332Y280994D01*
X-578579Y280858D01*
X-578829Y280728D01*
X-579083Y280604D01*
X-579340Y280487D01*
X-579599Y280375D01*
X-579861Y280271D01*
X-580126Y280172D01*
X-580393Y280080D01*
X-580662Y279995D01*
X-580933Y279917D01*
X-581206Y279845D01*
X-581480Y279779D01*
X-581756Y279721D01*
X-582034Y279669D01*
X-582313Y279624D01*
X-582592Y279586D01*
X-582873Y279555D01*
X-583154Y279531D01*
X-583436Y279514D01*
X-583718Y279503D01*
X-584000Y279500D01*
X-584282Y279503D01*
X-584564Y279514D01*
X-584846Y279531D01*
X-585127Y279555D01*
X-585408Y279586D01*
X-585687Y279624D01*
X-585966Y279669D01*
X-586244Y279721D01*
X-586520Y279779D01*
X-586794Y279845D01*
X-587067Y279917D01*
X-587338Y279995D01*
X-587607Y280080D01*
X-587874Y280172D01*
X-588139Y280271D01*
X-588401Y280375D01*
X-588660Y280487D01*
X-588917Y280604D01*
X-589171Y280728D01*
X-589421Y280858D01*
X-589668Y280994D01*
X-589912Y281136D01*
X-590152Y281284D01*
X-590389Y281438D01*
X-590622Y281598D01*
X-590851Y281763D01*
X-591075Y281934D01*
X-591296Y282110D01*
X-591511Y282292D01*
X-591723Y282479D01*
X-591930Y282671D01*
X-592132Y282868D01*
X-592329Y283070D01*
X-592521Y283277D01*
X-592708Y283489D01*
X-592890Y283704D01*
X-593066Y283925D01*
X-593237Y284149D01*
X-593402Y284378D01*
X-593562Y284611D01*
X-593716Y284848D01*
X-593864Y285088D01*
X-594006Y285332D01*
X-594142Y285579D01*
X-594272Y285829D01*
X-594396Y286083D01*
X-594513Y286340D01*
X-594625Y286599D01*
X-594729Y286861D01*
X-594828Y287126D01*
X-594920Y287393D01*
X-595005Y287662D01*
X-595083Y287933D01*
X-595155Y288206D01*
X-595221Y288480D01*
X-595279Y288756D01*
X-595331Y289034D01*
X-595376Y289313D01*
X-595414Y289592D01*
X-595445Y289873D01*
X-595469Y290154D01*
X-595486Y290436D01*
X-595497Y290718D01*
X-595500Y291000D01*
X13396Y43347D02*
X13398Y43509D01*
X13404Y43671D01*
X13414Y43833D01*
X13428Y43994D01*
X13446Y44155D01*
X13467Y44316D01*
X13493Y44476D01*
X13523Y44635D01*
X13556Y44794D01*
X13594Y44952D01*
X13635Y45108D01*
X13680Y45264D01*
X13729Y45419D01*
X13782Y45572D01*
X13839Y45724D01*
X13899Y45874D01*
X13963Y46023D01*
X14030Y46171D01*
X14101Y46316D01*
X14176Y46460D01*
X14254Y46602D01*
X14336Y46742D01*
X14421Y46880D01*
X14509Y47016D01*
X14601Y47150D01*
X14696Y47281D01*
X14794Y47410D01*
X14895Y47537D01*
X14999Y47661D01*
X15107Y47782D01*
X15217Y47901D01*
X15330Y48017D01*
X15446Y48130D01*
X15565Y48240D01*
X15686Y48348D01*
X15810Y48452D01*
X15937Y48553D01*
X16066Y48651D01*
X16197Y48746D01*
X16331Y48838D01*
X16467Y48926D01*
X16605Y49011D01*
X16745Y49093D01*
X16887Y49171D01*
X17031Y49246D01*
X17176Y49317D01*
X17324Y49384D01*
X17473Y49448D01*
X17623Y49508D01*
X17775Y49565D01*
X17928Y49618D01*
X18083Y49667D01*
X18239Y49712D01*
X18395Y49753D01*
X18553Y49791D01*
X18712Y49824D01*
X18871Y49854D01*
X19031Y49880D01*
X19192Y49901D01*
X19353Y49919D01*
X19514Y49933D01*
X19676Y49943D01*
X19838Y49949D01*
X20000Y49951D01*
X20162Y49949D01*
X20324Y49943D01*
X20486Y49933D01*
X20647Y49919D01*
X20808Y49901D01*
X20969Y49880D01*
X21129Y49854D01*
X21288Y49824D01*
X21447Y49791D01*
X21605Y49753D01*
X21761Y49712D01*
X21917Y49667D01*
X22072Y49618D01*
X22225Y49565D01*
X22377Y49508D01*
X22527Y49448D01*
X22676Y49384D01*
X22824Y49317D01*
X22969Y49246D01*
X23113Y49171D01*
X23255Y49093D01*
X23395Y49011D01*
X23533Y48926D01*
X23669Y48838D01*
X23803Y48746D01*
X23934Y48651D01*
X24063Y48553D01*
X24190Y48452D01*
X24314Y48348D01*
X24435Y48240D01*
X24554Y48130D01*
X24670Y48017D01*
X24783Y47901D01*
X24893Y47782D01*
X25001Y47661D01*
X25105Y47537D01*
X25206Y47410D01*
X25304Y47281D01*
X25399Y47150D01*
X25491Y47016D01*
X25579Y46880D01*
X25664Y46742D01*
X25746Y46602D01*
X25824Y46460D01*
X25899Y46316D01*
X25970Y46171D01*
X26037Y46023D01*
X26101Y45874D01*
X26161Y45724D01*
X26218Y45572D01*
X26271Y45419D01*
X26320Y45264D01*
X26365Y45108D01*
X26406Y44952D01*
X26444Y44794D01*
X26477Y44635D01*
X26507Y44476D01*
X26533Y44316D01*
X26554Y44155D01*
X26572Y43994D01*
X26586Y43833D01*
X26596Y43671D01*
X26602Y43509D01*
X26604Y43347D01*
X26602Y43185D01*
X26596Y43023D01*
X26586Y42861D01*
X26572Y42700D01*
X26554Y42539D01*
X26533Y42378D01*
X26507Y42218D01*
X26477Y42059D01*
X26444Y41900D01*
X26406Y41742D01*
X26365Y41586D01*
X26320Y41430D01*
X26271Y41275D01*
X26218Y41122D01*
X26161Y40970D01*
X26101Y40820D01*
X26037Y40671D01*
X25970Y40523D01*
X25899Y40378D01*
X25824Y40234D01*
X25746Y40092D01*
X25664Y39952D01*
X25579Y39814D01*
X25491Y39678D01*
X25399Y39544D01*
X25304Y39413D01*
X25206Y39284D01*
X25105Y39157D01*
X25001Y39033D01*
X24893Y38912D01*
X24783Y38793D01*
X24670Y38677D01*
X24554Y38564D01*
X24435Y38454D01*
X24314Y38346D01*
X24190Y38242D01*
X24063Y38141D01*
X23934Y38043D01*
X23803Y37948D01*
X23669Y37856D01*
X23533Y37768D01*
X23395Y37683D01*
X23255Y37601D01*
X23113Y37523D01*
X22969Y37448D01*
X22824Y37377D01*
X22676Y37310D01*
X22527Y37246D01*
X22377Y37186D01*
X22225Y37129D01*
X22072Y37076D01*
X21917Y37027D01*
X21761Y36982D01*
X21605Y36941D01*
X21447Y36903D01*
X21288Y36870D01*
X21129Y36840D01*
X20969Y36814D01*
X20808Y36793D01*
X20647Y36775D01*
X20486Y36761D01*
X20324Y36751D01*
X20162Y36745D01*
X20000Y36743D01*
X19838Y36745D01*
X19676Y36751D01*
X19514Y36761D01*
X19353Y36775D01*
X19192Y36793D01*
X19031Y36814D01*
X18871Y36840D01*
X18712Y36870D01*
X18553Y36903D01*
X18395Y36941D01*
X18239Y36982D01*
X18083Y37027D01*
X17928Y37076D01*
X17775Y37129D01*
X17623Y37186D01*
X17473Y37246D01*
X17324Y37310D01*
X17176Y37377D01*
X17031Y37448D01*
X16887Y37523D01*
X16745Y37601D01*
X16605Y37683D01*
X16467Y37768D01*
X16331Y37856D01*
X16197Y37948D01*
X16066Y38043D01*
X15937Y38141D01*
X15810Y38242D01*
X15686Y38346D01*
X15565Y38454D01*
X15446Y38564D01*
X15330Y38677D01*
X15217Y38793D01*
X15107Y38912D01*
X14999Y39033D01*
X14895Y39157D01*
X14794Y39284D01*
X14696Y39413D01*
X14601Y39544D01*
X14509Y39678D01*
X14421Y39814D01*
X14336Y39952D01*
X14254Y40092D01*
X14176Y40234D01*
X14101Y40378D01*
X14030Y40523D01*
X13963Y40671D01*
X13899Y40820D01*
X13839Y40970D01*
X13782Y41122D01*
X13729Y41275D01*
X13680Y41430D01*
X13635Y41586D01*
X13594Y41742D01*
X13556Y41900D01*
X13523Y42059D01*
X13493Y42218D01*
X13467Y42378D01*
X13446Y42539D01*
X13428Y42700D01*
X13414Y42861D01*
X13404Y43023D01*
X13398Y43185D01*
X13396Y43347D01*
X-17104Y586907D02*
X-17102Y587069D01*
X-17096Y587231D01*
X-17086Y587393D01*
X-17072Y587554D01*
X-17054Y587715D01*
X-17033Y587876D01*
X-17007Y588036D01*
X-16977Y588195D01*
X-16944Y588354D01*
X-16906Y588512D01*
X-16865Y588668D01*
X-16820Y588824D01*
X-16771Y588979D01*
X-16718Y589132D01*
X-16661Y589284D01*
X-16601Y589434D01*
X-16537Y589583D01*
X-16470Y589731D01*
X-16399Y589876D01*
X-16324Y590020D01*
X-16246Y590162D01*
X-16164Y590302D01*
X-16079Y590440D01*
X-15991Y590576D01*
X-15899Y590710D01*
X-15804Y590841D01*
X-15706Y590970D01*
X-15605Y591097D01*
X-15501Y591221D01*
X-15393Y591342D01*
X-15283Y591461D01*
X-15170Y591577D01*
X-15054Y591690D01*
X-14935Y591800D01*
X-14814Y591908D01*
X-14690Y592012D01*
X-14563Y592113D01*
X-14434Y592211D01*
X-14303Y592306D01*
X-14169Y592398D01*
X-14033Y592486D01*
X-13895Y592571D01*
X-13755Y592653D01*
X-13613Y592731D01*
X-13469Y592806D01*
X-13324Y592877D01*
X-13176Y592944D01*
X-13027Y593008D01*
X-12877Y593068D01*
X-12725Y593125D01*
X-12572Y593178D01*
X-12417Y593227D01*
X-12261Y593272D01*
X-12105Y593313D01*
X-11947Y593351D01*
X-11788Y593384D01*
X-11629Y593414D01*
X-11469Y593440D01*
X-11308Y593461D01*
X-11147Y593479D01*
X-10986Y593493D01*
X-10824Y593503D01*
X-10662Y593509D01*
X-10500Y593511D01*
X-10338Y593509D01*
X-10176Y593503D01*
X-10014Y593493D01*
X-9853Y593479D01*
X-9692Y593461D01*
X-9531Y593440D01*
X-9371Y593414D01*
X-9212Y593384D01*
X-9053Y593351D01*
X-8895Y593313D01*
X-8739Y593272D01*
X-8583Y593227D01*
X-8428Y593178D01*
X-8275Y593125D01*
X-8123Y593068D01*
X-7973Y593008D01*
X-7824Y592944D01*
X-7676Y592877D01*
X-7531Y592806D01*
X-7387Y592731D01*
X-7245Y592653D01*
X-7105Y592571D01*
X-6967Y592486D01*
X-6831Y592398D01*
X-6697Y592306D01*
X-6566Y592211D01*
X-6437Y592113D01*
X-6310Y592012D01*
X-6186Y591908D01*
X-6065Y591800D01*
X-5946Y591690D01*
X-5830Y591577D01*
X-5717Y591461D01*
X-5607Y591342D01*
X-5499Y591221D01*
X-5395Y591097D01*
X-5294Y590970D01*
X-5196Y590841D01*
X-5101Y590710D01*
X-5009Y590576D01*
X-4921Y590440D01*
X-4836Y590302D01*
X-4754Y590162D01*
X-4676Y590020D01*
X-4601Y589876D01*
X-4530Y589731D01*
X-4463Y589583D01*
X-4399Y589434D01*
X-4339Y589284D01*
X-4282Y589132D01*
X-4229Y588979D01*
X-4180Y588824D01*
X-4135Y588668D01*
X-4094Y588512D01*
X-4056Y588354D01*
X-4023Y588195D01*
X-3993Y588036D01*
X-3967Y587876D01*
X-3946Y587715D01*
X-3928Y587554D01*
X-3914Y587393D01*
X-3904Y587231D01*
X-3898Y587069D01*
X-3896Y586907D01*
X-3898Y586745D01*
X-3904Y586583D01*
X-3914Y586421D01*
X-3928Y586260D01*
X-3946Y586099D01*
X-3967Y585938D01*
X-3993Y585778D01*
X-4023Y585619D01*
X-4056Y585460D01*
X-4094Y585302D01*
X-4135Y585146D01*
X-4180Y584990D01*
X-4229Y584835D01*
X-4282Y584682D01*
X-4339Y584530D01*
X-4399Y584380D01*
X-4463Y584231D01*
X-4530Y584083D01*
X-4601Y583938D01*
X-4676Y583794D01*
X-4754Y583652D01*
X-4836Y583512D01*
X-4921Y583374D01*
X-5009Y583238D01*
X-5101Y583104D01*
X-5196Y582973D01*
X-5294Y582844D01*
X-5395Y582717D01*
X-5499Y582593D01*
X-5607Y582472D01*
X-5717Y582353D01*
X-5830Y582237D01*
X-5946Y582124D01*
X-6065Y582014D01*
X-6186Y581906D01*
X-6310Y581802D01*
X-6437Y581701D01*
X-6566Y581603D01*
X-6697Y581508D01*
X-6831Y581416D01*
X-6967Y581328D01*
X-7105Y581243D01*
X-7245Y581161D01*
X-7387Y581083D01*
X-7531Y581008D01*
X-7676Y580937D01*
X-7824Y580870D01*
X-7973Y580806D01*
X-8123Y580746D01*
X-8275Y580689D01*
X-8428Y580636D01*
X-8583Y580587D01*
X-8739Y580542D01*
X-8895Y580501D01*
X-9053Y580463D01*
X-9212Y580430D01*
X-9371Y580400D01*
X-9531Y580374D01*
X-9692Y580353D01*
X-9853Y580335D01*
X-10014Y580321D01*
X-10176Y580311D01*
X-10338Y580305D01*
X-10500Y580303D01*
X-10662Y580305D01*
X-10824Y580311D01*
X-10986Y580321D01*
X-11147Y580335D01*
X-11308Y580353D01*
X-11469Y580374D01*
X-11629Y580400D01*
X-11788Y580430D01*
X-11947Y580463D01*
X-12105Y580501D01*
X-12261Y580542D01*
X-12417Y580587D01*
X-12572Y580636D01*
X-12725Y580689D01*
X-12877Y580746D01*
X-13027Y580806D01*
X-13176Y580870D01*
X-13324Y580937D01*
X-13469Y581008D01*
X-13613Y581083D01*
X-13755Y581161D01*
X-13895Y581243D01*
X-14033Y581328D01*
X-14169Y581416D01*
X-14303Y581508D01*
X-14434Y581603D01*
X-14563Y581701D01*
X-14690Y581802D01*
X-14814Y581906D01*
X-14935Y582014D01*
X-15054Y582124D01*
X-15170Y582237D01*
X-15283Y582353D01*
X-15393Y582472D01*
X-15501Y582593D01*
X-15605Y582717D01*
X-15706Y582844D01*
X-15804Y582973D01*
X-15899Y583104D01*
X-15991Y583238D01*
X-16079Y583374D01*
X-16164Y583512D01*
X-16246Y583652D01*
X-16324Y583794D01*
X-16399Y583938D01*
X-16470Y584083D01*
X-16537Y584231D01*
X-16601Y584380D01*
X-16661Y584530D01*
X-16718Y584682D01*
X-16771Y584835D01*
X-16820Y584990D01*
X-16865Y585146D01*
X-16906Y585302D01*
X-16944Y585460D01*
X-16977Y585619D01*
X-17007Y585778D01*
X-17033Y585938D01*
X-17054Y586099D01*
X-17072Y586260D01*
X-17086Y586421D01*
X-17096Y586583D01*
X-17102Y586745D01*
X-17104Y586907D01*
D13*
X924000Y660000D02*
X924000Y-30000D01*
X924000Y660000D02*
X382000Y660000D01*
X382000Y644000D01*
X381997Y643758D01*
X381988Y643517D01*
X381974Y643276D01*
X381953Y643035D01*
X381927Y642795D01*
X381895Y642555D01*
X381857Y642316D01*
X381814Y642079D01*
X381764Y641842D01*
X381709Y641607D01*
X381649Y641373D01*
X381582Y641141D01*
X381511Y640910D01*
X381433Y640681D01*
X381350Y640454D01*
X381262Y640229D01*
X381168Y640006D01*
X381069Y639786D01*
X380964Y639568D01*
X380855Y639353D01*
X380740Y639140D01*
X380620Y638930D01*
X380495Y638724D01*
X380365Y638520D01*
X380230Y638319D01*
X380090Y638122D01*
X379946Y637928D01*
X379797Y637738D01*
X379643Y637552D01*
X379485Y637369D01*
X379323Y637190D01*
X379156Y637015D01*
X378985Y636844D01*
X378810Y636677D01*
X378631Y636515D01*
X378448Y636357D01*
X378262Y636203D01*
X378072Y636054D01*
X377878Y635910D01*
X377681Y635770D01*
X377480Y635635D01*
X377276Y635505D01*
X377070Y635380D01*
X376860Y635260D01*
X376647Y635145D01*
X376432Y635036D01*
X376214Y634931D01*
X375994Y634832D01*
X375771Y634738D01*
X375546Y634650D01*
X375319Y634567D01*
X375090Y634489D01*
X374859Y634418D01*
X374627Y634351D01*
X374393Y634291D01*
X374158Y634236D01*
X373921Y634186D01*
X373684Y634143D01*
X373445Y634105D01*
X373205Y634073D01*
X372965Y634047D01*
X372724Y634026D01*
X372483Y634012D01*
X372242Y634003D01*
X372000Y634000D01*
X274000Y634000D01*
X274000Y623000D01*
X273997Y622758D01*
X273988Y622517D01*
X273974Y622276D01*
X273953Y622035D01*
X273927Y621795D01*
X273895Y621555D01*
X273857Y621316D01*
X273814Y621079D01*
X273764Y620842D01*
X273709Y620607D01*
X273649Y620373D01*
X273582Y620141D01*
X273511Y619910D01*
X273433Y619681D01*
X273350Y619454D01*
X273262Y619229D01*
X273168Y619006D01*
X273069Y618786D01*
X272964Y618568D01*
X272855Y618353D01*
X272740Y618140D01*
X272620Y617930D01*
X272495Y617724D01*
X272365Y617520D01*
X272230Y617319D01*
X272090Y617122D01*
X271946Y616928D01*
X271797Y616738D01*
X271643Y616552D01*
X271485Y616369D01*
X271323Y616190D01*
X271156Y616015D01*
X270985Y615844D01*
X270810Y615677D01*
X270631Y615515D01*
X270448Y615357D01*
X270262Y615203D01*
X270072Y615054D01*
X269878Y614910D01*
X269681Y614770D01*
X269480Y614635D01*
X269276Y614505D01*
X269070Y614380D01*
X268860Y614260D01*
X268647Y614145D01*
X268432Y614036D01*
X268214Y613931D01*
X267994Y613832D01*
X267771Y613738D01*
X267546Y613650D01*
X267319Y613567D01*
X267090Y613489D01*
X266859Y613418D01*
X266627Y613351D01*
X266393Y613291D01*
X266158Y613236D01*
X265921Y613186D01*
X265684Y613143D01*
X265445Y613105D01*
X265205Y613073D01*
X264965Y613047D01*
X264724Y613026D01*
X264483Y613012D01*
X264242Y613003D01*
X264000Y613000D01*
X159000Y613000D01*
X159000Y0D01*
X420000Y0D01*
X420242Y-3D01*
X420483Y-12D01*
X420724Y-26D01*
X420965Y-47D01*
X421205Y-73D01*
X421445Y-105D01*
X421684Y-143D01*
X421921Y-186D01*
X422158Y-236D01*
X422393Y-291D01*
X422627Y-351D01*
X422859Y-418D01*
X423090Y-489D01*
X423319Y-567D01*
X423546Y-650D01*
X423771Y-738D01*
X423994Y-832D01*
X424214Y-931D01*
X424432Y-1036D01*
X424647Y-1145D01*
X424860Y-1260D01*
X425070Y-1380D01*
X425276Y-1505D01*
X425480Y-1635D01*
X425681Y-1770D01*
X425878Y-1910D01*
X426072Y-2054D01*
X426262Y-2203D01*
X426448Y-2357D01*
X426631Y-2515D01*
X426810Y-2677D01*
X426985Y-2844D01*
X427156Y-3015D01*
X427323Y-3190D01*
X427485Y-3369D01*
X427643Y-3552D01*
X427797Y-3738D01*
X427946Y-3928D01*
X428090Y-4122D01*
X428230Y-4319D01*
X428365Y-4520D01*
X428495Y-4724D01*
X428620Y-4930D01*
X428740Y-5140D01*
X428855Y-5353D01*
X428964Y-5568D01*
X429069Y-5786D01*
X429168Y-6006D01*
X429262Y-6229D01*
X429350Y-6454D01*
X429433Y-6681D01*
X429511Y-6910D01*
X429582Y-7141D01*
X429649Y-7373D01*
X429709Y-7607D01*
X429764Y-7842D01*
X429814Y-8079D01*
X429857Y-8316D01*
X429895Y-8555D01*
X429927Y-8795D01*
X429953Y-9035D01*
X429974Y-9276D01*
X429988Y-9517D01*
X429997Y-9758D01*
X430000Y-10000D01*
X430000Y-30000D01*
X924000Y-30000D01*
D11*
X197000Y125000D02*
X197003Y125221D01*
X197011Y125442D01*
X197024Y125662D01*
X197043Y125882D01*
X197068Y126102D01*
X197097Y126321D01*
X197133Y126539D01*
X197173Y126756D01*
X197219Y126972D01*
X197270Y127187D01*
X197326Y127400D01*
X197388Y127613D01*
X197454Y127823D01*
X197526Y128032D01*
X197603Y128239D01*
X197685Y128444D01*
X197772Y128647D01*
X197864Y128848D01*
X197961Y129047D01*
X198063Y129243D01*
X198169Y129436D01*
X198280Y129627D01*
X198396Y129815D01*
X198517Y130000D01*
X198642Y130182D01*
X198771Y130361D01*
X198905Y130537D01*
X199043Y130710D01*
X199185Y130879D01*
X199331Y131044D01*
X199482Y131206D01*
X199636Y131364D01*
X199794Y131518D01*
X199956Y131669D01*
X200121Y131815D01*
X200290Y131957D01*
X200463Y132095D01*
X200639Y132229D01*
X200818Y132358D01*
X201000Y132483D01*
X201185Y132604D01*
X201373Y132720D01*
X201564Y132831D01*
X201757Y132937D01*
X201953Y133039D01*
X202152Y133136D01*
X202353Y133228D01*
X202556Y133315D01*
X202761Y133397D01*
X202968Y133474D01*
X203177Y133546D01*
X203387Y133612D01*
X203600Y133674D01*
X203813Y133730D01*
X204028Y133781D01*
X204244Y133827D01*
X204461Y133867D01*
X204679Y133903D01*
X204898Y133932D01*
X205118Y133957D01*
X205338Y133976D01*
X205558Y133989D01*
X205779Y133997D01*
X206000Y134000D01*
X206221Y133997D01*
X206442Y133989D01*
X206662Y133976D01*
X206882Y133957D01*
X207102Y133932D01*
X207321Y133903D01*
X207539Y133867D01*
X207756Y133827D01*
X207972Y133781D01*
X208187Y133730D01*
X208400Y133674D01*
X208613Y133612D01*
X208823Y133546D01*
X209032Y133474D01*
X209239Y133397D01*
X209444Y133315D01*
X209647Y133228D01*
X209848Y133136D01*
X210047Y133039D01*
X210243Y132937D01*
X210436Y132831D01*
X210627Y132720D01*
X210815Y132604D01*
X211000Y132483D01*
X211182Y132358D01*
X211361Y132229D01*
X211537Y132095D01*
X211710Y131957D01*
X211879Y131815D01*
X212044Y131669D01*
X212206Y131518D01*
X212364Y131364D01*
X212518Y131206D01*
X212669Y131044D01*
X212815Y130879D01*
X212957Y130710D01*
X213095Y130537D01*
X213229Y130361D01*
X213358Y130182D01*
X213483Y130000D01*
X213604Y129815D01*
X213720Y129627D01*
X213831Y129436D01*
X213937Y129243D01*
X214039Y129047D01*
X214136Y128848D01*
X214228Y128647D01*
X214315Y128444D01*
X214397Y128239D01*
X214474Y128032D01*
X214546Y127823D01*
X214612Y127613D01*
X214674Y127400D01*
X214730Y127187D01*
X214781Y126972D01*
X214827Y126756D01*
X214867Y126539D01*
X214903Y126321D01*
X214932Y126102D01*
X214957Y125882D01*
X214976Y125662D01*
X214989Y125442D01*
X214997Y125221D01*
X215000Y125000D01*
X214997Y124779D01*
X214989Y124558D01*
X214976Y124338D01*
X214957Y124118D01*
X214932Y123898D01*
X214903Y123679D01*
X214867Y123461D01*
X214827Y123244D01*
X214781Y123028D01*
X214730Y122813D01*
X214674Y122600D01*
X214612Y122387D01*
X214546Y122177D01*
X214474Y121968D01*
X214397Y121761D01*
X214315Y121556D01*
X214228Y121353D01*
X214136Y121152D01*
X214039Y120953D01*
X213937Y120757D01*
X213831Y120564D01*
X213720Y120373D01*
X213604Y120185D01*
X213483Y120000D01*
X213358Y119818D01*
X213229Y119639D01*
X213095Y119463D01*
X212957Y119290D01*
X212815Y119121D01*
X212669Y118956D01*
X212518Y118794D01*
X212364Y118636D01*
X212206Y118482D01*
X212044Y118331D01*
X211879Y118185D01*
X211710Y118043D01*
X211537Y117905D01*
X211361Y117771D01*
X211182Y117642D01*
X211000Y117517D01*
X210815Y117396D01*
X210627Y117280D01*
X210436Y117169D01*
X210243Y117063D01*
X210047Y116961D01*
X209848Y116864D01*
X209647Y116772D01*
X209444Y116685D01*
X209239Y116603D01*
X209032Y116526D01*
X208823Y116454D01*
X208613Y116388D01*
X208400Y116326D01*
X208187Y116270D01*
X207972Y116219D01*
X207756Y116173D01*
X207539Y116133D01*
X207321Y116097D01*
X207102Y116068D01*
X206882Y116043D01*
X206662Y116024D01*
X206442Y116011D01*
X206221Y116003D01*
X206000Y116000D01*
X205779Y116003D01*
X205558Y116011D01*
X205338Y116024D01*
X205118Y116043D01*
X204898Y116068D01*
X204679Y116097D01*
X204461Y116133D01*
X204244Y116173D01*
X204028Y116219D01*
X203813Y116270D01*
X203600Y116326D01*
X203387Y116388D01*
X203177Y116454D01*
X202968Y116526D01*
X202761Y116603D01*
X202556Y116685D01*
X202353Y116772D01*
X202152Y116864D01*
X201953Y116961D01*
X201757Y117063D01*
X201564Y117169D01*
X201373Y117280D01*
X201185Y117396D01*
X201000Y117517D01*
X200818Y117642D01*
X200639Y117771D01*
X200463Y117905D01*
X200290Y118043D01*
X200121Y118185D01*
X199956Y118331D01*
X199794Y118482D01*
X199636Y118636D01*
X199482Y118794D01*
X199331Y118956D01*
X199185Y119121D01*
X199043Y119290D01*
X198905Y119463D01*
X198771Y119639D01*
X198642Y119818D01*
X198517Y120000D01*
X198396Y120185D01*
X198280Y120373D01*
X198169Y120564D01*
X198063Y120757D01*
X197961Y120953D01*
X197864Y121152D01*
X197772Y121353D01*
X197685Y121556D01*
X197603Y121761D01*
X197526Y121968D01*
X197454Y122177D01*
X197388Y122387D01*
X197326Y122600D01*
X197270Y122813D01*
X197219Y123028D01*
X197173Y123244D01*
X197133Y123461D01*
X197097Y123679D01*
X197068Y123898D01*
X197043Y124118D01*
X197024Y124338D01*
X197011Y124558D01*
X197003Y124779D01*
X197000Y125000D01*
X197000Y265000D02*
X197003Y265221D01*
X197011Y265442D01*
X197024Y265662D01*
X197043Y265882D01*
X197068Y266102D01*
X197097Y266321D01*
X197133Y266539D01*
X197173Y266756D01*
X197219Y266972D01*
X197270Y267187D01*
X197326Y267400D01*
X197388Y267613D01*
X197454Y267823D01*
X197526Y268032D01*
X197603Y268239D01*
X197685Y268444D01*
X197772Y268647D01*
X197864Y268848D01*
X197961Y269047D01*
X198063Y269243D01*
X198169Y269436D01*
X198280Y269627D01*
X198396Y269815D01*
X198517Y270000D01*
X198642Y270182D01*
X198771Y270361D01*
X198905Y270537D01*
X199043Y270710D01*
X199185Y270879D01*
X199331Y271044D01*
X199482Y271206D01*
X199636Y271364D01*
X199794Y271518D01*
X199956Y271669D01*
X200121Y271815D01*
X200290Y271957D01*
X200463Y272095D01*
X200639Y272229D01*
X200818Y272358D01*
X201000Y272483D01*
X201185Y272604D01*
X201373Y272720D01*
X201564Y272831D01*
X201757Y272937D01*
X201953Y273039D01*
X202152Y273136D01*
X202353Y273228D01*
X202556Y273315D01*
X202761Y273397D01*
X202968Y273474D01*
X203177Y273546D01*
X203387Y273612D01*
X203600Y273674D01*
X203813Y273730D01*
X204028Y273781D01*
X204244Y273827D01*
X204461Y273867D01*
X204679Y273903D01*
X204898Y273932D01*
X205118Y273957D01*
X205338Y273976D01*
X205558Y273989D01*
X205779Y273997D01*
X206000Y274000D01*
X206221Y273997D01*
X206442Y273989D01*
X206662Y273976D01*
X206882Y273957D01*
X207102Y273932D01*
X207321Y273903D01*
X207539Y273867D01*
X207756Y273827D01*
X207972Y273781D01*
X208187Y273730D01*
X208400Y273674D01*
X208613Y273612D01*
X208823Y273546D01*
X209032Y273474D01*
X209239Y273397D01*
X209444Y273315D01*
X209647Y273228D01*
X209848Y273136D01*
X210047Y273039D01*
X210243Y272937D01*
X210436Y272831D01*
X210627Y272720D01*
X210815Y272604D01*
X211000Y272483D01*
X211182Y272358D01*
X211361Y272229D01*
X211537Y272095D01*
X211710Y271957D01*
X211879Y271815D01*
X212044Y271669D01*
X212206Y271518D01*
X212364Y271364D01*
X212518Y271206D01*
X212669Y271044D01*
X212815Y270879D01*
X212957Y270710D01*
X213095Y270537D01*
X213229Y270361D01*
X213358Y270182D01*
X213483Y270000D01*
X213604Y269815D01*
X213720Y269627D01*
X213831Y269436D01*
X213937Y269243D01*
X214039Y269047D01*
X214136Y268848D01*
X214228Y268647D01*
X214315Y268444D01*
X214397Y268239D01*
X214474Y268032D01*
X214546Y267823D01*
X214612Y267613D01*
X214674Y267400D01*
X214730Y267187D01*
X214781Y266972D01*
X214827Y266756D01*
X214867Y266539D01*
X214903Y266321D01*
X214932Y266102D01*
X214957Y265882D01*
X214976Y265662D01*
X214989Y265442D01*
X214997Y265221D01*
X215000Y265000D01*
X214997Y264779D01*
X214989Y264558D01*
X214976Y264338D01*
X214957Y264118D01*
X214932Y263898D01*
X214903Y263679D01*
X214867Y263461D01*
X214827Y263244D01*
X214781Y263028D01*
X214730Y262813D01*
X214674Y262600D01*
X214612Y262387D01*
X214546Y262177D01*
X214474Y261968D01*
X214397Y261761D01*
X214315Y261556D01*
X214228Y261353D01*
X214136Y261152D01*
X214039Y260953D01*
X213937Y260757D01*
X213831Y260564D01*
X213720Y260373D01*
X213604Y260185D01*
X213483Y260000D01*
X213358Y259818D01*
X213229Y259639D01*
X213095Y259463D01*
X212957Y259290D01*
X212815Y259121D01*
X212669Y258956D01*
X212518Y258794D01*
X212364Y258636D01*
X212206Y258482D01*
X212044Y258331D01*
X211879Y258185D01*
X211710Y258043D01*
X211537Y257905D01*
X211361Y257771D01*
X211182Y257642D01*
X211000Y257517D01*
X210815Y257396D01*
X210627Y257280D01*
X210436Y257169D01*
X210243Y257063D01*
X210047Y256961D01*
X209848Y256864D01*
X209647Y256772D01*
X209444Y256685D01*
X209239Y256603D01*
X209032Y256526D01*
X208823Y256454D01*
X208613Y256388D01*
X208400Y256326D01*
X208187Y256270D01*
X207972Y256219D01*
X207756Y256173D01*
X207539Y256133D01*
X207321Y256097D01*
X207102Y256068D01*
X206882Y256043D01*
X206662Y256024D01*
X206442Y256011D01*
X206221Y256003D01*
X206000Y256000D01*
X205779Y256003D01*
X205558Y256011D01*
X205338Y256024D01*
X205118Y256043D01*
X204898Y256068D01*
X204679Y256097D01*
X204461Y256133D01*
X204244Y256173D01*
X204028Y256219D01*
X203813Y256270D01*
X203600Y256326D01*
X203387Y256388D01*
X203177Y256454D01*
X202968Y256526D01*
X202761Y256603D01*
X202556Y256685D01*
X202353Y256772D01*
X202152Y256864D01*
X201953Y256961D01*
X201757Y257063D01*
X201564Y257169D01*
X201373Y257280D01*
X201185Y257396D01*
X201000Y257517D01*
X200818Y257642D01*
X200639Y257771D01*
X200463Y257905D01*
X200290Y258043D01*
X200121Y258185D01*
X199956Y258331D01*
X199794Y258482D01*
X199636Y258636D01*
X199482Y258794D01*
X199331Y258956D01*
X199185Y259121D01*
X199043Y259290D01*
X198905Y259463D01*
X198771Y259639D01*
X198642Y259818D01*
X198517Y260000D01*
X198396Y260185D01*
X198280Y260373D01*
X198169Y260564D01*
X198063Y260757D01*
X197961Y260953D01*
X197864Y261152D01*
X197772Y261353D01*
X197685Y261556D01*
X197603Y261761D01*
X197526Y261968D01*
X197454Y262177D01*
X197388Y262387D01*
X197326Y262600D01*
X197270Y262813D01*
X197219Y263028D01*
X197173Y263244D01*
X197133Y263461D01*
X197097Y263679D01*
X197068Y263898D01*
X197043Y264118D01*
X197024Y264338D01*
X197011Y264558D01*
X197003Y264779D01*
X197000Y265000D01*
X219500Y99000D02*
X219503Y99282D01*
X219514Y99564D01*
X219531Y99846D01*
X219555Y100127D01*
X219586Y100408D01*
X219624Y100687D01*
X219669Y100966D01*
X219721Y101244D01*
X219779Y101520D01*
X219845Y101794D01*
X219917Y102067D01*
X219995Y102338D01*
X220080Y102607D01*
X220172Y102874D01*
X220271Y103139D01*
X220375Y103401D01*
X220487Y103660D01*
X220604Y103917D01*
X220728Y104171D01*
X220858Y104421D01*
X220994Y104668D01*
X221136Y104912D01*
X221284Y105152D01*
X221438Y105389D01*
X221598Y105622D01*
X221763Y105851D01*
X221934Y106075D01*
X222110Y106296D01*
X222292Y106511D01*
X222479Y106723D01*
X222671Y106930D01*
X222868Y107132D01*
X223070Y107329D01*
X223277Y107521D01*
X223489Y107708D01*
X223704Y107890D01*
X223925Y108066D01*
X224149Y108237D01*
X224378Y108402D01*
X224611Y108562D01*
X224848Y108716D01*
X225088Y108864D01*
X225332Y109006D01*
X225579Y109142D01*
X225829Y109272D01*
X226083Y109396D01*
X226340Y109513D01*
X226599Y109625D01*
X226861Y109729D01*
X227126Y109828D01*
X227393Y109920D01*
X227662Y110005D01*
X227933Y110083D01*
X228206Y110155D01*
X228480Y110221D01*
X228756Y110279D01*
X229034Y110331D01*
X229313Y110376D01*
X229592Y110414D01*
X229873Y110445D01*
X230154Y110469D01*
X230436Y110486D01*
X230718Y110497D01*
X231000Y110500D01*
X231282Y110497D01*
X231564Y110486D01*
X231846Y110469D01*
X232127Y110445D01*
X232408Y110414D01*
X232687Y110376D01*
X232966Y110331D01*
X233244Y110279D01*
X233520Y110221D01*
X233794Y110155D01*
X234067Y110083D01*
X234338Y110005D01*
X234607Y109920D01*
X234874Y109828D01*
X235139Y109729D01*
X235401Y109625D01*
X235660Y109513D01*
X235917Y109396D01*
X236171Y109272D01*
X236421Y109142D01*
X236668Y109006D01*
X236912Y108864D01*
X237152Y108716D01*
X237389Y108562D01*
X237622Y108402D01*
X237851Y108237D01*
X238075Y108066D01*
X238296Y107890D01*
X238511Y107708D01*
X238723Y107521D01*
X238930Y107329D01*
X239132Y107132D01*
X239329Y106930D01*
X239521Y106723D01*
X239708Y106511D01*
X239890Y106296D01*
X240066Y106075D01*
X240237Y105851D01*
X240402Y105622D01*
X240562Y105389D01*
X240716Y105152D01*
X240864Y104912D01*
X241006Y104668D01*
X241142Y104421D01*
X241272Y104171D01*
X241396Y103917D01*
X241513Y103660D01*
X241625Y103401D01*
X241729Y103139D01*
X241828Y102874D01*
X241920Y102607D01*
X242005Y102338D01*
X242083Y102067D01*
X242155Y101794D01*
X242221Y101520D01*
X242279Y101244D01*
X242331Y100966D01*
X242376Y100687D01*
X242414Y100408D01*
X242445Y100127D01*
X242469Y99846D01*
X242486Y99564D01*
X242497Y99282D01*
X242500Y99000D01*
X242497Y98718D01*
X242486Y98436D01*
X242469Y98154D01*
X242445Y97873D01*
X242414Y97592D01*
X242376Y97313D01*
X242331Y97034D01*
X242279Y96756D01*
X242221Y96480D01*
X242155Y96206D01*
X242083Y95933D01*
X242005Y95662D01*
X241920Y95393D01*
X241828Y95126D01*
X241729Y94861D01*
X241625Y94599D01*
X241513Y94340D01*
X241396Y94083D01*
X241272Y93829D01*
X241142Y93579D01*
X241006Y93332D01*
X240864Y93088D01*
X240716Y92848D01*
X240562Y92611D01*
X240402Y92378D01*
X240237Y92149D01*
X240066Y91925D01*
X239890Y91704D01*
X239708Y91489D01*
X239521Y91277D01*
X239329Y91070D01*
X239132Y90868D01*
X238930Y90671D01*
X238723Y90479D01*
X238511Y90292D01*
X238296Y90110D01*
X238075Y89934D01*
X237851Y89763D01*
X237622Y89598D01*
X237389Y89438D01*
X237152Y89284D01*
X236912Y89136D01*
X236668Y88994D01*
X236421Y88858D01*
X236171Y88728D01*
X235917Y88604D01*
X235660Y88487D01*
X235401Y88375D01*
X235139Y88271D01*
X234874Y88172D01*
X234607Y88080D01*
X234338Y87995D01*
X234067Y87917D01*
X233794Y87845D01*
X233520Y87779D01*
X233244Y87721D01*
X232966Y87669D01*
X232687Y87624D01*
X232408Y87586D01*
X232127Y87555D01*
X231846Y87531D01*
X231564Y87514D01*
X231282Y87503D01*
X231000Y87500D01*
X230718Y87503D01*
X230436Y87514D01*
X230154Y87531D01*
X229873Y87555D01*
X229592Y87586D01*
X229313Y87624D01*
X229034Y87669D01*
X228756Y87721D01*
X228480Y87779D01*
X228206Y87845D01*
X227933Y87917D01*
X227662Y87995D01*
X227393Y88080D01*
X227126Y88172D01*
X226861Y88271D01*
X226599Y88375D01*
X226340Y88487D01*
X226083Y88604D01*
X225829Y88728D01*
X225579Y88858D01*
X225332Y88994D01*
X225088Y89136D01*
X224848Y89284D01*
X224611Y89438D01*
X224378Y89598D01*
X224149Y89763D01*
X223925Y89934D01*
X223704Y90110D01*
X223489Y90292D01*
X223277Y90479D01*
X223070Y90671D01*
X222868Y90868D01*
X222671Y91070D01*
X222479Y91277D01*
X222292Y91489D01*
X222110Y91704D01*
X221934Y91925D01*
X221763Y92149D01*
X221598Y92378D01*
X221438Y92611D01*
X221284Y92848D01*
X221136Y93088D01*
X220994Y93332D01*
X220858Y93579D01*
X220728Y93829D01*
X220604Y94083D01*
X220487Y94340D01*
X220375Y94599D01*
X220271Y94861D01*
X220172Y95126D01*
X220080Y95393D01*
X219995Y95662D01*
X219917Y95933D01*
X219845Y96206D01*
X219779Y96480D01*
X219721Y96756D01*
X219669Y97034D01*
X219624Y97313D01*
X219586Y97592D01*
X219555Y97873D01*
X219531Y98154D01*
X219514Y98436D01*
X219503Y98718D01*
X219500Y99000D01*
X219500Y291000D02*
X219503Y291282D01*
X219514Y291564D01*
X219531Y291846D01*
X219555Y292127D01*
X219586Y292408D01*
X219624Y292687D01*
X219669Y292966D01*
X219721Y293244D01*
X219779Y293520D01*
X219845Y293794D01*
X219917Y294067D01*
X219995Y294338D01*
X220080Y294607D01*
X220172Y294874D01*
X220271Y295139D01*
X220375Y295401D01*
X220487Y295660D01*
X220604Y295917D01*
X220728Y296171D01*
X220858Y296421D01*
X220994Y296668D01*
X221136Y296912D01*
X221284Y297152D01*
X221438Y297389D01*
X221598Y297622D01*
X221763Y297851D01*
X221934Y298075D01*
X222110Y298296D01*
X222292Y298511D01*
X222479Y298723D01*
X222671Y298930D01*
X222868Y299132D01*
X223070Y299329D01*
X223277Y299521D01*
X223489Y299708D01*
X223704Y299890D01*
X223925Y300066D01*
X224149Y300237D01*
X224378Y300402D01*
X224611Y300562D01*
X224848Y300716D01*
X225088Y300864D01*
X225332Y301006D01*
X225579Y301142D01*
X225829Y301272D01*
X226083Y301396D01*
X226340Y301513D01*
X226599Y301625D01*
X226861Y301729D01*
X227126Y301828D01*
X227393Y301920D01*
X227662Y302005D01*
X227933Y302083D01*
X228206Y302155D01*
X228480Y302221D01*
X228756Y302279D01*
X229034Y302331D01*
X229313Y302376D01*
X229592Y302414D01*
X229873Y302445D01*
X230154Y302469D01*
X230436Y302486D01*
X230718Y302497D01*
X231000Y302500D01*
X231282Y302497D01*
X231564Y302486D01*
X231846Y302469D01*
X232127Y302445D01*
X232408Y302414D01*
X232687Y302376D01*
X232966Y302331D01*
X233244Y302279D01*
X233520Y302221D01*
X233794Y302155D01*
X234067Y302083D01*
X234338Y302005D01*
X234607Y301920D01*
X234874Y301828D01*
X235139Y301729D01*
X235401Y301625D01*
X235660Y301513D01*
X235917Y301396D01*
X236171Y301272D01*
X236421Y301142D01*
X236668Y301006D01*
X236912Y300864D01*
X237152Y300716D01*
X237389Y300562D01*
X237622Y300402D01*
X237851Y300237D01*
X238075Y300066D01*
X238296Y299890D01*
X238511Y299708D01*
X238723Y299521D01*
X238930Y299329D01*
X239132Y299132D01*
X239329Y298930D01*
X239521Y298723D01*
X239708Y298511D01*
X239890Y298296D01*
X240066Y298075D01*
X240237Y297851D01*
X240402Y297622D01*
X240562Y297389D01*
X240716Y297152D01*
X240864Y296912D01*
X241006Y296668D01*
X241142Y296421D01*
X241272Y296171D01*
X241396Y295917D01*
X241513Y295660D01*
X241625Y295401D01*
X241729Y295139D01*
X241828Y294874D01*
X241920Y294607D01*
X242005Y294338D01*
X242083Y294067D01*
X242155Y293794D01*
X242221Y293520D01*
X242279Y293244D01*
X242331Y292966D01*
X242376Y292687D01*
X242414Y292408D01*
X242445Y292127D01*
X242469Y291846D01*
X242486Y291564D01*
X242497Y291282D01*
X242500Y291000D01*
X242497Y290718D01*
X242486Y290436D01*
X242469Y290154D01*
X242445Y289873D01*
X242414Y289592D01*
X242376Y289313D01*
X242331Y289034D01*
X242279Y288756D01*
X242221Y288480D01*
X242155Y288206D01*
X242083Y287933D01*
X242005Y287662D01*
X241920Y287393D01*
X241828Y287126D01*
X241729Y286861D01*
X241625Y286599D01*
X241513Y286340D01*
X241396Y286083D01*
X241272Y285829D01*
X241142Y285579D01*
X241006Y285332D01*
X240864Y285088D01*
X240716Y284848D01*
X240562Y284611D01*
X240402Y284378D01*
X240237Y284149D01*
X240066Y283925D01*
X239890Y283704D01*
X239708Y283489D01*
X239521Y283277D01*
X239329Y283070D01*
X239132Y282868D01*
X238930Y282671D01*
X238723Y282479D01*
X238511Y282292D01*
X238296Y282110D01*
X238075Y281934D01*
X237851Y281763D01*
X237622Y281598D01*
X237389Y281438D01*
X237152Y281284D01*
X236912Y281136D01*
X236668Y280994D01*
X236421Y280858D01*
X236171Y280728D01*
X235917Y280604D01*
X235660Y280487D01*
X235401Y280375D01*
X235139Y280271D01*
X234874Y280172D01*
X234607Y280080D01*
X234338Y279995D01*
X234067Y279917D01*
X233794Y279845D01*
X233520Y279779D01*
X233244Y279721D01*
X232966Y279669D01*
X232687Y279624D01*
X232408Y279586D01*
X232127Y279555D01*
X231846Y279531D01*
X231564Y279514D01*
X231282Y279503D01*
X231000Y279500D01*
X230718Y279503D01*
X230436Y279514D01*
X230154Y279531D01*
X229873Y279555D01*
X229592Y279586D01*
X229313Y279624D01*
X229034Y279669D01*
X228756Y279721D01*
X228480Y279779D01*
X228206Y279845D01*
X227933Y279917D01*
X227662Y279995D01*
X227393Y280080D01*
X227126Y280172D01*
X226861Y280271D01*
X226599Y280375D01*
X226340Y280487D01*
X226083Y280604D01*
X225829Y280728D01*
X225579Y280858D01*
X225332Y280994D01*
X225088Y281136D01*
X224848Y281284D01*
X224611Y281438D01*
X224378Y281598D01*
X224149Y281763D01*
X223925Y281934D01*
X223704Y282110D01*
X223489Y282292D01*
X223277Y282479D01*
X223070Y282671D01*
X222868Y282868D01*
X222671Y283070D01*
X222479Y283277D01*
X222292Y283489D01*
X222110Y283704D01*
X221934Y283925D01*
X221763Y284149D01*
X221598Y284378D01*
X221438Y284611D01*
X221284Y284848D01*
X221136Y285088D01*
X220994Y285332D01*
X220858Y285579D01*
X220728Y285829D01*
X220604Y286083D01*
X220487Y286340D01*
X220375Y286599D01*
X220271Y286861D01*
X220172Y287126D01*
X220080Y287393D01*
X219995Y287662D01*
X219917Y287933D01*
X219845Y288206D01*
X219779Y288480D01*
X219721Y288756D01*
X219669Y289034D01*
X219624Y289313D01*
X219586Y289592D01*
X219555Y289873D01*
X219531Y290154D01*
X219514Y290436D01*
X219503Y290718D01*
X219500Y291000D01*
X828396Y43347D02*
X828398Y43509D01*
X828404Y43671D01*
X828414Y43833D01*
X828428Y43994D01*
X828446Y44155D01*
X828467Y44316D01*
X828493Y44476D01*
X828523Y44635D01*
X828556Y44794D01*
X828594Y44952D01*
X828635Y45108D01*
X828680Y45264D01*
X828729Y45419D01*
X828782Y45572D01*
X828839Y45724D01*
X828899Y45874D01*
X828963Y46023D01*
X829030Y46171D01*
X829101Y46316D01*
X829176Y46460D01*
X829254Y46602D01*
X829336Y46742D01*
X829421Y46880D01*
X829509Y47016D01*
X829601Y47150D01*
X829696Y47281D01*
X829794Y47410D01*
X829895Y47537D01*
X829999Y47661D01*
X830107Y47782D01*
X830217Y47901D01*
X830330Y48017D01*
X830446Y48130D01*
X830565Y48240D01*
X830686Y48348D01*
X830810Y48452D01*
X830937Y48553D01*
X831066Y48651D01*
X831197Y48746D01*
X831331Y48838D01*
X831467Y48926D01*
X831605Y49011D01*
X831745Y49093D01*
X831887Y49171D01*
X832031Y49246D01*
X832176Y49317D01*
X832324Y49384D01*
X832473Y49448D01*
X832623Y49508D01*
X832775Y49565D01*
X832928Y49618D01*
X833083Y49667D01*
X833239Y49712D01*
X833395Y49753D01*
X833553Y49791D01*
X833712Y49824D01*
X833871Y49854D01*
X834031Y49880D01*
X834192Y49901D01*
X834353Y49919D01*
X834514Y49933D01*
X834676Y49943D01*
X834838Y49949D01*
X835000Y49951D01*
X835162Y49949D01*
X835324Y49943D01*
X835486Y49933D01*
X835647Y49919D01*
X835808Y49901D01*
X835969Y49880D01*
X836129Y49854D01*
X836288Y49824D01*
X836447Y49791D01*
X836605Y49753D01*
X836761Y49712D01*
X836917Y49667D01*
X837072Y49618D01*
X837225Y49565D01*
X837377Y49508D01*
X837527Y49448D01*
X837676Y49384D01*
X837824Y49317D01*
X837969Y49246D01*
X838113Y49171D01*
X838255Y49093D01*
X838395Y49011D01*
X838533Y48926D01*
X838669Y48838D01*
X838803Y48746D01*
X838934Y48651D01*
X839063Y48553D01*
X839190Y48452D01*
X839314Y48348D01*
X839435Y48240D01*
X839554Y48130D01*
X839670Y48017D01*
X839783Y47901D01*
X839893Y47782D01*
X840001Y47661D01*
X840105Y47537D01*
X840206Y47410D01*
X840304Y47281D01*
X840399Y47150D01*
X840491Y47016D01*
X840579Y46880D01*
X840664Y46742D01*
X840746Y46602D01*
X840824Y46460D01*
X840899Y46316D01*
X840970Y46171D01*
X841037Y46023D01*
X841101Y45874D01*
X841161Y45724D01*
X841218Y45572D01*
X841271Y45419D01*
X841320Y45264D01*
X841365Y45108D01*
X841406Y44952D01*
X841444Y44794D01*
X841477Y44635D01*
X841507Y44476D01*
X841533Y44316D01*
X841554Y44155D01*
X841572Y43994D01*
X841586Y43833D01*
X841596Y43671D01*
X841602Y43509D01*
X841604Y43347D01*
X841602Y43185D01*
X841596Y43023D01*
X841586Y42861D01*
X841572Y42700D01*
X841554Y42539D01*
X841533Y42378D01*
X841507Y42218D01*
X841477Y42059D01*
X841444Y41900D01*
X841406Y41742D01*
X841365Y41586D01*
X841320Y41430D01*
X841271Y41275D01*
X841218Y41122D01*
X841161Y40970D01*
X841101Y40820D01*
X841037Y40671D01*
X840970Y40523D01*
X840899Y40378D01*
X840824Y40234D01*
X840746Y40092D01*
X840664Y39952D01*
X840579Y39814D01*
X840491Y39678D01*
X840399Y39544D01*
X840304Y39413D01*
X840206Y39284D01*
X840105Y39157D01*
X840001Y39033D01*
X839893Y38912D01*
X839783Y38793D01*
X839670Y38677D01*
X839554Y38564D01*
X839435Y38454D01*
X839314Y38346D01*
X839190Y38242D01*
X839063Y38141D01*
X838934Y38043D01*
X838803Y37948D01*
X838669Y37856D01*
X838533Y37768D01*
X838395Y37683D01*
X838255Y37601D01*
X838113Y37523D01*
X837969Y37448D01*
X837824Y37377D01*
X837676Y37310D01*
X837527Y37246D01*
X837377Y37186D01*
X837225Y37129D01*
X837072Y37076D01*
X836917Y37027D01*
X836761Y36982D01*
X836605Y36941D01*
X836447Y36903D01*
X836288Y36870D01*
X836129Y36840D01*
X835969Y36814D01*
X835808Y36793D01*
X835647Y36775D01*
X835486Y36761D01*
X835324Y36751D01*
X835162Y36745D01*
X835000Y36743D01*
X834838Y36745D01*
X834676Y36751D01*
X834514Y36761D01*
X834353Y36775D01*
X834192Y36793D01*
X834031Y36814D01*
X833871Y36840D01*
X833712Y36870D01*
X833553Y36903D01*
X833395Y36941D01*
X833239Y36982D01*
X833083Y37027D01*
X832928Y37076D01*
X832775Y37129D01*
X832623Y37186D01*
X832473Y37246D01*
X832324Y37310D01*
X832176Y37377D01*
X832031Y37448D01*
X831887Y37523D01*
X831745Y37601D01*
X831605Y37683D01*
X831467Y37768D01*
X831331Y37856D01*
X831197Y37948D01*
X831066Y38043D01*
X830937Y38141D01*
X830810Y38242D01*
X830686Y38346D01*
X830565Y38454D01*
X830446Y38564D01*
X830330Y38677D01*
X830217Y38793D01*
X830107Y38912D01*
X829999Y39033D01*
X829895Y39157D01*
X829794Y39284D01*
X829696Y39413D01*
X829601Y39544D01*
X829509Y39678D01*
X829421Y39814D01*
X829336Y39952D01*
X829254Y40092D01*
X829176Y40234D01*
X829101Y40378D01*
X829030Y40523D01*
X828963Y40671D01*
X828899Y40820D01*
X828839Y40970D01*
X828782Y41122D01*
X828729Y41275D01*
X828680Y41430D01*
X828635Y41586D01*
X828594Y41742D01*
X828556Y41900D01*
X828523Y42059D01*
X828493Y42218D01*
X828467Y42378D01*
X828446Y42539D01*
X828428Y42700D01*
X828414Y42861D01*
X828404Y43023D01*
X828398Y43185D01*
X828396Y43347D01*
X797896Y586907D02*
X797898Y587069D01*
X797904Y587231D01*
X797914Y587393D01*
X797928Y587554D01*
X797946Y587715D01*
X797967Y587876D01*
X797993Y588036D01*
X798023Y588195D01*
X798056Y588354D01*
X798094Y588512D01*
X798135Y588668D01*
X798180Y588824D01*
X798229Y588979D01*
X798282Y589132D01*
X798339Y589284D01*
X798399Y589434D01*
X798463Y589583D01*
X798530Y589731D01*
X798601Y589876D01*
X798676Y590020D01*
X798754Y590162D01*
X798836Y590302D01*
X798921Y590440D01*
X799009Y590576D01*
X799101Y590710D01*
X799196Y590841D01*
X799294Y590970D01*
X799395Y591097D01*
X799499Y591221D01*
X799607Y591342D01*
X799717Y591461D01*
X799830Y591577D01*
X799946Y591690D01*
X800065Y591800D01*
X800186Y591908D01*
X800310Y592012D01*
X800437Y592113D01*
X800566Y592211D01*
X800697Y592306D01*
X800831Y592398D01*
X800967Y592486D01*
X801105Y592571D01*
X801245Y592653D01*
X801387Y592731D01*
X801531Y592806D01*
X801676Y592877D01*
X801824Y592944D01*
X801973Y593008D01*
X802123Y593068D01*
X802275Y593125D01*
X802428Y593178D01*
X802583Y593227D01*
X802739Y593272D01*
X802895Y593313D01*
X803053Y593351D01*
X803212Y593384D01*
X803371Y593414D01*
X803531Y593440D01*
X803692Y593461D01*
X803853Y593479D01*
X804014Y593493D01*
X804176Y593503D01*
X804338Y593509D01*
X804500Y593511D01*
X804662Y593509D01*
X804824Y593503D01*
X804986Y593493D01*
X805147Y593479D01*
X805308Y593461D01*
X805469Y593440D01*
X805629Y593414D01*
X805788Y593384D01*
X805947Y593351D01*
X806105Y593313D01*
X806261Y593272D01*
X806417Y593227D01*
X806572Y593178D01*
X806725Y593125D01*
X806877Y593068D01*
X807027Y593008D01*
X807176Y592944D01*
X807324Y592877D01*
X807469Y592806D01*
X807613Y592731D01*
X807755Y592653D01*
X807895Y592571D01*
X808033Y592486D01*
X808169Y592398D01*
X808303Y592306D01*
X808434Y592211D01*
X808563Y592113D01*
X808690Y592012D01*
X808814Y591908D01*
X808935Y591800D01*
X809054Y591690D01*
X809170Y591577D01*
X809283Y591461D01*
X809393Y591342D01*
X809501Y591221D01*
X809605Y591097D01*
X809706Y590970D01*
X809804Y590841D01*
X809899Y590710D01*
X809991Y590576D01*
X810079Y590440D01*
X810164Y590302D01*
X810246Y590162D01*
X810324Y590020D01*
X810399Y589876D01*
X810470Y589731D01*
X810537Y589583D01*
X810601Y589434D01*
X810661Y589284D01*
X810718Y589132D01*
X810771Y588979D01*
X810820Y588824D01*
X810865Y588668D01*
X810906Y588512D01*
X810944Y588354D01*
X810977Y588195D01*
X811007Y588036D01*
X811033Y587876D01*
X811054Y587715D01*
X811072Y587554D01*
X811086Y587393D01*
X811096Y587231D01*
X811102Y587069D01*
X811104Y586907D01*
X811102Y586745D01*
X811096Y586583D01*
X811086Y586421D01*
X811072Y586260D01*
X811054Y586099D01*
X811033Y585938D01*
X811007Y585778D01*
X810977Y585619D01*
X810944Y585460D01*
X810906Y585302D01*
X810865Y585146D01*
X810820Y584990D01*
X810771Y584835D01*
X810718Y584682D01*
X810661Y584530D01*
X810601Y584380D01*
X810537Y584231D01*
X810470Y584083D01*
X810399Y583938D01*
X810324Y583794D01*
X810246Y583652D01*
X810164Y583512D01*
X810079Y583374D01*
X809991Y583238D01*
X809899Y583104D01*
X809804Y582973D01*
X809706Y582844D01*
X809605Y582717D01*
X809501Y582593D01*
X809393Y582472D01*
X809283Y582353D01*
X809170Y582237D01*
X809054Y582124D01*
X808935Y582014D01*
X808814Y581906D01*
X808690Y581802D01*
X808563Y581701D01*
X808434Y581603D01*
X808303Y581508D01*
X808169Y581416D01*
X808033Y581328D01*
X807895Y581243D01*
X807755Y581161D01*
X807613Y581083D01*
X807469Y581008D01*
X807324Y580937D01*
X807176Y580870D01*
X807027Y580806D01*
X806877Y580746D01*
X806725Y580689D01*
X806572Y580636D01*
X806417Y580587D01*
X806261Y580542D01*
X806105Y580501D01*
X805947Y580463D01*
X805788Y580430D01*
X805629Y580400D01*
X805469Y580374D01*
X805308Y580353D01*
X805147Y580335D01*
X804986Y580321D01*
X804824Y580311D01*
X804662Y580305D01*
X804500Y580303D01*
X804338Y580305D01*
X804176Y580311D01*
X804014Y580321D01*
X803853Y580335D01*
X803692Y580353D01*
X803531Y580374D01*
X803371Y580400D01*
X803212Y580430D01*
X803053Y580463D01*
X802895Y580501D01*
X802739Y580542D01*
X802583Y580587D01*
X802428Y580636D01*
X802275Y580689D01*
X802123Y580746D01*
X801973Y580806D01*
X801824Y580870D01*
X801676Y580937D01*
X801531Y581008D01*
X801387Y581083D01*
X801245Y581161D01*
X801105Y581243D01*
X800967Y581328D01*
X800831Y581416D01*
X800697Y581508D01*
X800566Y581603D01*
X800437Y581701D01*
X800310Y581802D01*
X800186Y581906D01*
X800065Y582014D01*
X799946Y582124D01*
X799830Y582237D01*
X799717Y582353D01*
X799607Y582472D01*
X799499Y582593D01*
X799395Y582717D01*
X799294Y582844D01*
X799196Y582973D01*
X799101Y583104D01*
X799009Y583238D01*
X798921Y583374D01*
X798836Y583512D01*
X798754Y583652D01*
X798676Y583794D01*
X798601Y583938D01*
X798530Y584083D01*
X798463Y584231D01*
X798399Y584380D01*
X798339Y584530D01*
X798282Y584682D01*
X798229Y584835D01*
X798180Y584990D01*
X798135Y585146D01*
X798094Y585302D01*
X798056Y585460D01*
X798023Y585619D01*
X797993Y585778D01*
X797967Y585938D01*
X797946Y586099D01*
X797928Y586260D01*
X797914Y586421D01*
X797904Y586583D01*
X797898Y586745D01*
X797896Y586907D01*
D13*
X109000Y710000D02*
X109000Y1400000D01*
X-433000Y1400000D01*
X-433000Y1384000D01*
X-433003Y1383758D01*
X-433012Y1383517D01*
X-433026Y1383276D01*
X-433047Y1383035D01*
X-433073Y1382795D01*
X-433105Y1382555D01*
X-433143Y1382316D01*
X-433186Y1382079D01*
X-433236Y1381842D01*
X-433291Y1381607D01*
X-433351Y1381373D01*
X-433418Y1381141D01*
X-433489Y1380910D01*
X-433567Y1380681D01*
X-433650Y1380454D01*
X-433738Y1380229D01*
X-433832Y1380006D01*
X-433931Y1379786D01*
X-434036Y1379568D01*
X-434145Y1379353D01*
X-434260Y1379140D01*
X-434380Y1378930D01*
X-434505Y1378724D01*
X-434635Y1378520D01*
X-434770Y1378319D01*
X-434910Y1378122D01*
X-435054Y1377928D01*
X-435203Y1377738D01*
X-435357Y1377552D01*
X-435515Y1377369D01*
X-435677Y1377190D01*
X-435844Y1377015D01*
X-436015Y1376844D01*
X-436190Y1376677D01*
X-436369Y1376515D01*
X-436552Y1376357D01*
X-436738Y1376203D01*
X-436928Y1376054D01*
X-437122Y1375910D01*
X-437319Y1375770D01*
X-437520Y1375635D01*
X-437724Y1375505D01*
X-437930Y1375380D01*
X-438140Y1375260D01*
X-438353Y1375145D01*
X-438568Y1375036D01*
X-438786Y1374931D01*
X-439006Y1374832D01*
X-439229Y1374738D01*
X-439454Y1374650D01*
X-439681Y1374567D01*
X-439910Y1374489D01*
X-440141Y1374418D01*
X-440373Y1374351D01*
X-440607Y1374291D01*
X-440842Y1374236D01*
X-441079Y1374186D01*
X-441316Y1374143D01*
X-441555Y1374105D01*
X-441795Y1374073D01*
X-442035Y1374047D01*
X-442276Y1374026D01*
X-442517Y1374012D01*
X-442758Y1374003D01*
X-443000Y1374000D01*
X-541000Y1374000D01*
X-541000Y1363000D01*
X-541003Y1362758D01*
X-541012Y1362517D01*
X-541026Y1362276D01*
X-541047Y1362035D01*
X-541073Y1361795D01*
X-541105Y1361555D01*
X-541143Y1361316D01*
X-541186Y1361079D01*
X-541236Y1360842D01*
X-541291Y1360607D01*
X-541351Y1360373D01*
X-541418Y1360141D01*
X-541489Y1359910D01*
X-541567Y1359681D01*
X-541650Y1359454D01*
X-541738Y1359229D01*
X-541832Y1359006D01*
X-541931Y1358786D01*
X-542036Y1358568D01*
X-542145Y1358353D01*
X-542260Y1358140D01*
X-542380Y1357930D01*
X-542505Y1357724D01*
X-542635Y1357520D01*
X-542770Y1357319D01*
X-542910Y1357122D01*
X-543054Y1356928D01*
X-543203Y1356738D01*
X-543357Y1356552D01*
X-543515Y1356369D01*
X-543677Y1356190D01*
X-543844Y1356015D01*
X-544015Y1355844D01*
X-544190Y1355677D01*
X-544369Y1355515D01*
X-544552Y1355357D01*
X-544738Y1355203D01*
X-544928Y1355054D01*
X-545122Y1354910D01*
X-545319Y1354770D01*
X-545520Y1354635D01*
X-545724Y1354505D01*
X-545930Y1354380D01*
X-546140Y1354260D01*
X-546353Y1354145D01*
X-546568Y1354036D01*
X-546786Y1353931D01*
X-547006Y1353832D01*
X-547229Y1353738D01*
X-547454Y1353650D01*
X-547681Y1353567D01*
X-547910Y1353489D01*
X-548141Y1353418D01*
X-548373Y1353351D01*
X-548607Y1353291D01*
X-548842Y1353236D01*
X-549079Y1353186D01*
X-549316Y1353143D01*
X-549555Y1353105D01*
X-549795Y1353073D01*
X-550035Y1353047D01*
X-550276Y1353026D01*
X-550517Y1353012D01*
X-550758Y1353003D01*
X-551000Y1353000D01*
X-656000Y1353000D01*
X-656000Y740000D01*
X-395000Y740000D01*
X-394758Y739997D01*
X-394517Y739988D01*
X-394276Y739974D01*
X-394035Y739953D01*
X-393795Y739927D01*
X-393555Y739895D01*
X-393316Y739857D01*
X-393079Y739814D01*
X-392842Y739764D01*
X-392607Y739709D01*
X-392373Y739649D01*
X-392141Y739582D01*
X-391910Y739511D01*
X-391681Y739433D01*
X-391454Y739350D01*
X-391229Y739262D01*
X-391006Y739168D01*
X-390786Y739069D01*
X-390568Y738964D01*
X-390353Y738855D01*
X-390140Y738740D01*
X-389930Y738620D01*
X-389724Y738495D01*
X-389520Y738365D01*
X-389319Y738230D01*
X-389122Y738090D01*
X-388928Y737946D01*
X-388738Y737797D01*
X-388552Y737643D01*
X-388369Y737485D01*
X-388190Y737323D01*
X-388015Y737156D01*
X-387844Y736985D01*
X-387677Y736810D01*
X-387515Y736631D01*
X-387357Y736448D01*
X-387203Y736262D01*
X-387054Y736072D01*
X-386910Y735878D01*
X-386770Y735681D01*
X-386635Y735480D01*
X-386505Y735276D01*
X-386380Y735070D01*
X-386260Y734860D01*
X-386145Y734647D01*
X-386036Y734432D01*
X-385931Y734214D01*
X-385832Y733994D01*
X-385738Y733771D01*
X-385650Y733546D01*
X-385567Y733319D01*
X-385489Y733090D01*
X-385418Y732859D01*
X-385351Y732627D01*
X-385291Y732393D01*
X-385236Y732158D01*
X-385186Y731921D01*
X-385143Y731684D01*
X-385105Y731445D01*
X-385073Y731205D01*
X-385047Y730965D01*
X-385026Y730724D01*
X-385012Y730483D01*
X-385003Y730242D01*
X-385000Y730000D01*
X-385000Y710000D01*
X109000Y710000D01*
D11*
X-618000Y865000D02*
X-617997Y865221D01*
X-617989Y865442D01*
X-617976Y865662D01*
X-617957Y865882D01*
X-617932Y866102D01*
X-617903Y866321D01*
X-617867Y866539D01*
X-617827Y866756D01*
X-617781Y866972D01*
X-617730Y867187D01*
X-617674Y867400D01*
X-617612Y867613D01*
X-617546Y867823D01*
X-617474Y868032D01*
X-617397Y868239D01*
X-617315Y868444D01*
X-617228Y868647D01*
X-617136Y868848D01*
X-617039Y869047D01*
X-616937Y869243D01*
X-616831Y869436D01*
X-616720Y869627D01*
X-616604Y869815D01*
X-616483Y870000D01*
X-616358Y870182D01*
X-616229Y870361D01*
X-616095Y870537D01*
X-615957Y870710D01*
X-615815Y870879D01*
X-615669Y871044D01*
X-615518Y871206D01*
X-615364Y871364D01*
X-615206Y871518D01*
X-615044Y871669D01*
X-614879Y871815D01*
X-614710Y871957D01*
X-614537Y872095D01*
X-614361Y872229D01*
X-614182Y872358D01*
X-614000Y872483D01*
X-613815Y872604D01*
X-613627Y872720D01*
X-613436Y872831D01*
X-613243Y872937D01*
X-613047Y873039D01*
X-612848Y873136D01*
X-612647Y873228D01*
X-612444Y873315D01*
X-612239Y873397D01*
X-612032Y873474D01*
X-611823Y873546D01*
X-611613Y873612D01*
X-611400Y873674D01*
X-611187Y873730D01*
X-610972Y873781D01*
X-610756Y873827D01*
X-610539Y873867D01*
X-610321Y873903D01*
X-610102Y873932D01*
X-609882Y873957D01*
X-609662Y873976D01*
X-609442Y873989D01*
X-609221Y873997D01*
X-609000Y874000D01*
X-608779Y873997D01*
X-608558Y873989D01*
X-608338Y873976D01*
X-608118Y873957D01*
X-607898Y873932D01*
X-607679Y873903D01*
X-607461Y873867D01*
X-607244Y873827D01*
X-607028Y873781D01*
X-606813Y873730D01*
X-606600Y873674D01*
X-606387Y873612D01*
X-606177Y873546D01*
X-605968Y873474D01*
X-605761Y873397D01*
X-605556Y873315D01*
X-605353Y873228D01*
X-605152Y873136D01*
X-604953Y873039D01*
X-604757Y872937D01*
X-604564Y872831D01*
X-604373Y872720D01*
X-604185Y872604D01*
X-604000Y872483D01*
X-603818Y872358D01*
X-603639Y872229D01*
X-603463Y872095D01*
X-603290Y871957D01*
X-603121Y871815D01*
X-602956Y871669D01*
X-602794Y871518D01*
X-602636Y871364D01*
X-602482Y871206D01*
X-602331Y871044D01*
X-602185Y870879D01*
X-602043Y870710D01*
X-601905Y870537D01*
X-601771Y870361D01*
X-601642Y870182D01*
X-601517Y870000D01*
X-601396Y869815D01*
X-601280Y869627D01*
X-601169Y869436D01*
X-601063Y869243D01*
X-600961Y869047D01*
X-600864Y868848D01*
X-600772Y868647D01*
X-600685Y868444D01*
X-600603Y868239D01*
X-600526Y868032D01*
X-600454Y867823D01*
X-600388Y867613D01*
X-600326Y867400D01*
X-600270Y867187D01*
X-600219Y866972D01*
X-600173Y866756D01*
X-600133Y866539D01*
X-600097Y866321D01*
X-600068Y866102D01*
X-600043Y865882D01*
X-600024Y865662D01*
X-600011Y865442D01*
X-600003Y865221D01*
X-600000Y865000D01*
X-600003Y864779D01*
X-600011Y864558D01*
X-600024Y864338D01*
X-600043Y864118D01*
X-600068Y863898D01*
X-600097Y863679D01*
X-600133Y863461D01*
X-600173Y863244D01*
X-600219Y863028D01*
X-600270Y862813D01*
X-600326Y862600D01*
X-600388Y862387D01*
X-600454Y862177D01*
X-600526Y861968D01*
X-600603Y861761D01*
X-600685Y861556D01*
X-600772Y861353D01*
X-600864Y861152D01*
X-600961Y860953D01*
X-601063Y860757D01*
X-601169Y860564D01*
X-601280Y860373D01*
X-601396Y860185D01*
X-601517Y860000D01*
X-601642Y859818D01*
X-601771Y859639D01*
X-601905Y859463D01*
X-602043Y859290D01*
X-602185Y859121D01*
X-602331Y858956D01*
X-602482Y858794D01*
X-602636Y858636D01*
X-602794Y858482D01*
X-602956Y858331D01*
X-603121Y858185D01*
X-603290Y858043D01*
X-603463Y857905D01*
X-603639Y857771D01*
X-603818Y857642D01*
X-604000Y857517D01*
X-604185Y857396D01*
X-604373Y857280D01*
X-604564Y857169D01*
X-604757Y857063D01*
X-604953Y856961D01*
X-605152Y856864D01*
X-605353Y856772D01*
X-605556Y856685D01*
X-605761Y856603D01*
X-605968Y856526D01*
X-606177Y856454D01*
X-606387Y856388D01*
X-606600Y856326D01*
X-606813Y856270D01*
X-607028Y856219D01*
X-607244Y856173D01*
X-607461Y856133D01*
X-607679Y856097D01*
X-607898Y856068D01*
X-608118Y856043D01*
X-608338Y856024D01*
X-608558Y856011D01*
X-608779Y856003D01*
X-609000Y856000D01*
X-609221Y856003D01*
X-609442Y856011D01*
X-609662Y856024D01*
X-609882Y856043D01*
X-610102Y856068D01*
X-610321Y856097D01*
X-610539Y856133D01*
X-610756Y856173D01*
X-610972Y856219D01*
X-611187Y856270D01*
X-611400Y856326D01*
X-611613Y856388D01*
X-611823Y856454D01*
X-612032Y856526D01*
X-612239Y856603D01*
X-612444Y856685D01*
X-612647Y856772D01*
X-612848Y856864D01*
X-613047Y856961D01*
X-613243Y857063D01*
X-613436Y857169D01*
X-613627Y857280D01*
X-613815Y857396D01*
X-614000Y857517D01*
X-614182Y857642D01*
X-614361Y857771D01*
X-614537Y857905D01*
X-614710Y858043D01*
X-614879Y858185D01*
X-615044Y858331D01*
X-615206Y858482D01*
X-615364Y858636D01*
X-615518Y858794D01*
X-615669Y858956D01*
X-615815Y859121D01*
X-615957Y859290D01*
X-616095Y859463D01*
X-616229Y859639D01*
X-616358Y859818D01*
X-616483Y860000D01*
X-616604Y860185D01*
X-616720Y860373D01*
X-616831Y860564D01*
X-616937Y860757D01*
X-617039Y860953D01*
X-617136Y861152D01*
X-617228Y861353D01*
X-617315Y861556D01*
X-617397Y861761D01*
X-617474Y861968D01*
X-617546Y862177D01*
X-617612Y862387D01*
X-617674Y862600D01*
X-617730Y862813D01*
X-617781Y863028D01*
X-617827Y863244D01*
X-617867Y863461D01*
X-617903Y863679D01*
X-617932Y863898D01*
X-617957Y864118D01*
X-617976Y864338D01*
X-617989Y864558D01*
X-617997Y864779D01*
X-618000Y865000D01*
X-618000Y1005000D02*
X-617997Y1005221D01*
X-617989Y1005442D01*
X-617976Y1005662D01*
X-617957Y1005882D01*
X-617932Y1006102D01*
X-617903Y1006321D01*
X-617867Y1006539D01*
X-617827Y1006756D01*
X-617781Y1006972D01*
X-617730Y1007187D01*
X-617674Y1007400D01*
X-617612Y1007613D01*
X-617546Y1007823D01*
X-617474Y1008032D01*
X-617397Y1008239D01*
X-617315Y1008444D01*
X-617228Y1008647D01*
X-617136Y1008848D01*
X-617039Y1009047D01*
X-616937Y1009243D01*
X-616831Y1009436D01*
X-616720Y1009627D01*
X-616604Y1009815D01*
X-616483Y1010000D01*
X-616358Y1010182D01*
X-616229Y1010361D01*
X-616095Y1010537D01*
X-615957Y1010710D01*
X-615815Y1010879D01*
X-615669Y1011044D01*
X-615518Y1011206D01*
X-615364Y1011364D01*
X-615206Y1011518D01*
X-615044Y1011669D01*
X-614879Y1011815D01*
X-614710Y1011957D01*
X-614537Y1012095D01*
X-614361Y1012229D01*
X-614182Y1012358D01*
X-614000Y1012483D01*
X-613815Y1012604D01*
X-613627Y1012720D01*
X-613436Y1012831D01*
X-613243Y1012937D01*
X-613047Y1013039D01*
X-612848Y1013136D01*
X-612647Y1013228D01*
X-612444Y1013315D01*
X-612239Y1013397D01*
X-612032Y1013474D01*
X-611823Y1013546D01*
X-611613Y1013612D01*
X-611400Y1013674D01*
X-611187Y1013730D01*
X-610972Y1013781D01*
X-610756Y1013827D01*
X-610539Y1013867D01*
X-610321Y1013903D01*
X-610102Y1013932D01*
X-609882Y1013957D01*
X-609662Y1013976D01*
X-609442Y1013989D01*
X-609221Y1013997D01*
X-609000Y1014000D01*
X-608779Y1013997D01*
X-608558Y1013989D01*
X-608338Y1013976D01*
X-608118Y1013957D01*
X-607898Y1013932D01*
X-607679Y1013903D01*
X-607461Y1013867D01*
X-607244Y1013827D01*
X-607028Y1013781D01*
X-606813Y1013730D01*
X-606600Y1013674D01*
X-606387Y1013612D01*
X-606177Y1013546D01*
X-605968Y1013474D01*
X-605761Y1013397D01*
X-605556Y1013315D01*
X-605353Y1013228D01*
X-605152Y1013136D01*
X-604953Y1013039D01*
X-604757Y1012937D01*
X-604564Y1012831D01*
X-604373Y1012720D01*
X-604185Y1012604D01*
X-604000Y1012483D01*
X-603818Y1012358D01*
X-603639Y1012229D01*
X-603463Y1012095D01*
X-603290Y1011957D01*
X-603121Y1011815D01*
X-602956Y1011669D01*
X-602794Y1011518D01*
X-602636Y1011364D01*
X-602482Y1011206D01*
X-602331Y1011044D01*
X-602185Y1010879D01*
X-602043Y1010710D01*
X-601905Y1010537D01*
X-601771Y1010361D01*
X-601642Y1010182D01*
X-601517Y1010000D01*
X-601396Y1009815D01*
X-601280Y1009627D01*
X-601169Y1009436D01*
X-601063Y1009243D01*
X-600961Y1009047D01*
X-600864Y1008848D01*
X-600772Y1008647D01*
X-600685Y1008444D01*
X-600603Y1008239D01*
X-600526Y1008032D01*
X-600454Y1007823D01*
X-600388Y1007613D01*
X-600326Y1007400D01*
X-600270Y1007187D01*
X-600219Y1006972D01*
X-600173Y1006756D01*
X-600133Y1006539D01*
X-600097Y1006321D01*
X-600068Y1006102D01*
X-600043Y1005882D01*
X-600024Y1005662D01*
X-600011Y1005442D01*
X-600003Y1005221D01*
X-600000Y1005000D01*
X-600003Y1004779D01*
X-600011Y1004558D01*
X-600024Y1004338D01*
X-600043Y1004118D01*
X-600068Y1003898D01*
X-600097Y1003679D01*
X-600133Y1003461D01*
X-600173Y1003244D01*
X-600219Y1003028D01*
X-600270Y1002813D01*
X-600326Y1002600D01*
X-600388Y1002387D01*
X-600454Y1002177D01*
X-600526Y1001968D01*
X-600603Y1001761D01*
X-600685Y1001556D01*
X-600772Y1001353D01*
X-600864Y1001152D01*
X-600961Y1000953D01*
X-601063Y1000757D01*
X-601169Y1000564D01*
X-601280Y1000373D01*
X-601396Y1000185D01*
X-601517Y1000000D01*
X-601642Y999818D01*
X-601771Y999639D01*
X-601905Y999463D01*
X-602043Y999290D01*
X-602185Y999121D01*
X-602331Y998956D01*
X-602482Y998794D01*
X-602636Y998636D01*
X-602794Y998482D01*
X-602956Y998331D01*
X-603121Y998185D01*
X-603290Y998043D01*
X-603463Y997905D01*
X-603639Y997771D01*
X-603818Y997642D01*
X-604000Y997517D01*
X-604185Y997396D01*
X-604373Y997280D01*
X-604564Y997169D01*
X-604757Y997063D01*
X-604953Y996961D01*
X-605152Y996864D01*
X-605353Y996772D01*
X-605556Y996685D01*
X-605761Y996603D01*
X-605968Y996526D01*
X-606177Y996454D01*
X-606387Y996388D01*
X-606600Y996326D01*
X-606813Y996270D01*
X-607028Y996219D01*
X-607244Y996173D01*
X-607461Y996133D01*
X-607679Y996097D01*
X-607898Y996068D01*
X-608118Y996043D01*
X-608338Y996024D01*
X-608558Y996011D01*
X-608779Y996003D01*
X-609000Y996000D01*
X-609221Y996003D01*
X-609442Y996011D01*
X-609662Y996024D01*
X-609882Y996043D01*
X-610102Y996068D01*
X-610321Y996097D01*
X-610539Y996133D01*
X-610756Y996173D01*
X-610972Y996219D01*
X-611187Y996270D01*
X-611400Y996326D01*
X-611613Y996388D01*
X-611823Y996454D01*
X-612032Y996526D01*
X-612239Y996603D01*
X-612444Y996685D01*
X-612647Y996772D01*
X-612848Y996864D01*
X-613047Y996961D01*
X-613243Y997063D01*
X-613436Y997169D01*
X-613627Y997280D01*
X-613815Y997396D01*
X-614000Y997517D01*
X-614182Y997642D01*
X-614361Y997771D01*
X-614537Y997905D01*
X-614710Y998043D01*
X-614879Y998185D01*
X-615044Y998331D01*
X-615206Y998482D01*
X-615364Y998636D01*
X-615518Y998794D01*
X-615669Y998956D01*
X-615815Y999121D01*
X-615957Y999290D01*
X-616095Y999463D01*
X-616229Y999639D01*
X-616358Y999818D01*
X-616483Y1000000D01*
X-616604Y1000185D01*
X-616720Y1000373D01*
X-616831Y1000564D01*
X-616937Y1000757D01*
X-617039Y1000953D01*
X-617136Y1001152D01*
X-617228Y1001353D01*
X-617315Y1001556D01*
X-617397Y1001761D01*
X-617474Y1001968D01*
X-617546Y1002177D01*
X-617612Y1002387D01*
X-617674Y1002600D01*
X-617730Y1002813D01*
X-617781Y1003028D01*
X-617827Y1003244D01*
X-617867Y1003461D01*
X-617903Y1003679D01*
X-617932Y1003898D01*
X-617957Y1004118D01*
X-617976Y1004338D01*
X-617989Y1004558D01*
X-617997Y1004779D01*
X-618000Y1005000D01*
X-595500Y839000D02*
X-595497Y839282D01*
X-595486Y839564D01*
X-595469Y839846D01*
X-595445Y840127D01*
X-595414Y840408D01*
X-595376Y840687D01*
X-595331Y840966D01*
X-595279Y841244D01*
X-595221Y841520D01*
X-595155Y841794D01*
X-595083Y842067D01*
X-595005Y842338D01*
X-594920Y842607D01*
X-594828Y842874D01*
X-594729Y843139D01*
X-594625Y843401D01*
X-594513Y843660D01*
X-594396Y843917D01*
X-594272Y844171D01*
X-594142Y844421D01*
X-594006Y844668D01*
X-593864Y844912D01*
X-593716Y845152D01*
X-593562Y845389D01*
X-593402Y845622D01*
X-593237Y845851D01*
X-593066Y846075D01*
X-592890Y846296D01*
X-592708Y846511D01*
X-592521Y846723D01*
X-592329Y846930D01*
X-592132Y847132D01*
X-591930Y847329D01*
X-591723Y847521D01*
X-591511Y847708D01*
X-591296Y847890D01*
X-591075Y848066D01*
X-590851Y848237D01*
X-590622Y848402D01*
X-590389Y848562D01*
X-590152Y848716D01*
X-589912Y848864D01*
X-589668Y849006D01*
X-589421Y849142D01*
X-589171Y849272D01*
X-588917Y849396D01*
X-588660Y849513D01*
X-588401Y849625D01*
X-588139Y849729D01*
X-587874Y849828D01*
X-587607Y849920D01*
X-587338Y850005D01*
X-587067Y850083D01*
X-586794Y850155D01*
X-586520Y850221D01*
X-586244Y850279D01*
X-585966Y850331D01*
X-585687Y850376D01*
X-585408Y850414D01*
X-585127Y850445D01*
X-584846Y850469D01*
X-584564Y850486D01*
X-584282Y850497D01*
X-584000Y850500D01*
X-583718Y850497D01*
X-583436Y850486D01*
X-583154Y850469D01*
X-582873Y850445D01*
X-582592Y850414D01*
X-582313Y850376D01*
X-582034Y850331D01*
X-581756Y850279D01*
X-581480Y850221D01*
X-581206Y850155D01*
X-580933Y850083D01*
X-580662Y850005D01*
X-580393Y849920D01*
X-580126Y849828D01*
X-579861Y849729D01*
X-579599Y849625D01*
X-579340Y849513D01*
X-579083Y849396D01*
X-578829Y849272D01*
X-578579Y849142D01*
X-578332Y849006D01*
X-578088Y848864D01*
X-577848Y848716D01*
X-577611Y848562D01*
X-577378Y848402D01*
X-577149Y848237D01*
X-576925Y848066D01*
X-576704Y847890D01*
X-576489Y847708D01*
X-576277Y847521D01*
X-576070Y847329D01*
X-575868Y847132D01*
X-575671Y846930D01*
X-575479Y846723D01*
X-575292Y846511D01*
X-575110Y846296D01*
X-574934Y846075D01*
X-574763Y845851D01*
X-574598Y845622D01*
X-574438Y845389D01*
X-574284Y845152D01*
X-574136Y844912D01*
X-573994Y844668D01*
X-573858Y844421D01*
X-573728Y844171D01*
X-573604Y843917D01*
X-573487Y843660D01*
X-573375Y843401D01*
X-573271Y843139D01*
X-573172Y842874D01*
X-573080Y842607D01*
X-572995Y842338D01*
X-572917Y842067D01*
X-572845Y841794D01*
X-572779Y841520D01*
X-572721Y841244D01*
X-572669Y840966D01*
X-572624Y840687D01*
X-572586Y840408D01*
X-572555Y840127D01*
X-572531Y839846D01*
X-572514Y839564D01*
X-572503Y839282D01*
X-572500Y839000D01*
X-572503Y838718D01*
X-572514Y838436D01*
X-572531Y838154D01*
X-572555Y837873D01*
X-572586Y837592D01*
X-572624Y837313D01*
X-572669Y837034D01*
X-572721Y836756D01*
X-572779Y836480D01*
X-572845Y836206D01*
X-572917Y835933D01*
X-572995Y835662D01*
X-573080Y835393D01*
X-573172Y835126D01*
X-573271Y834861D01*
X-573375Y834599D01*
X-573487Y834340D01*
X-573604Y834083D01*
X-573728Y833829D01*
X-573858Y833579D01*
X-573994Y833332D01*
X-574136Y833088D01*
X-574284Y832848D01*
X-574438Y832611D01*
X-574598Y832378D01*
X-574763Y832149D01*
X-574934Y831925D01*
X-575110Y831704D01*
X-575292Y831489D01*
X-575479Y831277D01*
X-575671Y831070D01*
X-575868Y830868D01*
X-576070Y830671D01*
X-576277Y830479D01*
X-576489Y830292D01*
X-576704Y830110D01*
X-576925Y829934D01*
X-577149Y829763D01*
X-577378Y829598D01*
X-577611Y829438D01*
X-577848Y829284D01*
X-578088Y829136D01*
X-578332Y828994D01*
X-578579Y828858D01*
X-578829Y828728D01*
X-579083Y828604D01*
X-579340Y828487D01*
X-579599Y828375D01*
X-579861Y828271D01*
X-580126Y828172D01*
X-580393Y828080D01*
X-580662Y827995D01*
X-580933Y827917D01*
X-581206Y827845D01*
X-581480Y827779D01*
X-581756Y827721D01*
X-582034Y827669D01*
X-582313Y827624D01*
X-582592Y827586D01*
X-582873Y827555D01*
X-583154Y827531D01*
X-583436Y827514D01*
X-583718Y827503D01*
X-584000Y827500D01*
X-584282Y827503D01*
X-584564Y827514D01*
X-584846Y827531D01*
X-585127Y827555D01*
X-585408Y827586D01*
X-585687Y827624D01*
X-585966Y827669D01*
X-586244Y827721D01*
X-586520Y827779D01*
X-586794Y827845D01*
X-587067Y827917D01*
X-587338Y827995D01*
X-587607Y828080D01*
X-587874Y828172D01*
X-588139Y828271D01*
X-588401Y828375D01*
X-588660Y828487D01*
X-588917Y828604D01*
X-589171Y828728D01*
X-589421Y828858D01*
X-589668Y828994D01*
X-589912Y829136D01*
X-590152Y829284D01*
X-590389Y829438D01*
X-590622Y829598D01*
X-590851Y829763D01*
X-591075Y829934D01*
X-591296Y830110D01*
X-591511Y830292D01*
X-591723Y830479D01*
X-591930Y830671D01*
X-592132Y830868D01*
X-592329Y831070D01*
X-592521Y831277D01*
X-592708Y831489D01*
X-592890Y831704D01*
X-593066Y831925D01*
X-593237Y832149D01*
X-593402Y832378D01*
X-593562Y832611D01*
X-593716Y832848D01*
X-593864Y833088D01*
X-594006Y833332D01*
X-594142Y833579D01*
X-594272Y833829D01*
X-594396Y834083D01*
X-594513Y834340D01*
X-594625Y834599D01*
X-594729Y834861D01*
X-594828Y835126D01*
X-594920Y835393D01*
X-595005Y835662D01*
X-595083Y835933D01*
X-595155Y836206D01*
X-595221Y836480D01*
X-595279Y836756D01*
X-595331Y837034D01*
X-595376Y837313D01*
X-595414Y837592D01*
X-595445Y837873D01*
X-595469Y838154D01*
X-595486Y838436D01*
X-595497Y838718D01*
X-595500Y839000D01*
X-595500Y1031000D02*
X-595497Y1031282D01*
X-595486Y1031564D01*
X-595469Y1031846D01*
X-595445Y1032127D01*
X-595414Y1032408D01*
X-595376Y1032687D01*
X-595331Y1032966D01*
X-595279Y1033244D01*
X-595221Y1033520D01*
X-595155Y1033794D01*
X-595083Y1034067D01*
X-595005Y1034338D01*
X-594920Y1034607D01*
X-594828Y1034874D01*
X-594729Y1035139D01*
X-594625Y1035401D01*
X-594513Y1035660D01*
X-594396Y1035917D01*
X-594272Y1036171D01*
X-594142Y1036421D01*
X-594006Y1036668D01*
X-593864Y1036912D01*
X-593716Y1037152D01*
X-593562Y1037389D01*
X-593402Y1037622D01*
X-593237Y1037851D01*
X-593066Y1038075D01*
X-592890Y1038296D01*
X-592708Y1038511D01*
X-592521Y1038723D01*
X-592329Y1038930D01*
X-592132Y1039132D01*
X-591930Y1039329D01*
X-591723Y1039521D01*
X-591511Y1039708D01*
X-591296Y1039890D01*
X-591075Y1040066D01*
X-590851Y1040237D01*
X-590622Y1040402D01*
X-590389Y1040562D01*
X-590152Y1040716D01*
X-589912Y1040864D01*
X-589668Y1041006D01*
X-589421Y1041142D01*
X-589171Y1041272D01*
X-588917Y1041396D01*
X-588660Y1041513D01*
X-588401Y1041625D01*
X-588139Y1041729D01*
X-587874Y1041828D01*
X-587607Y1041920D01*
X-587338Y1042005D01*
X-587067Y1042083D01*
X-586794Y1042155D01*
X-586520Y1042221D01*
X-586244Y1042279D01*
X-585966Y1042331D01*
X-585687Y1042376D01*
X-585408Y1042414D01*
X-585127Y1042445D01*
X-584846Y1042469D01*
X-584564Y1042486D01*
X-584282Y1042497D01*
X-584000Y1042500D01*
X-583718Y1042497D01*
X-583436Y1042486D01*
X-583154Y1042469D01*
X-582873Y1042445D01*
X-582592Y1042414D01*
X-582313Y1042376D01*
X-582034Y1042331D01*
X-581756Y1042279D01*
X-581480Y1042221D01*
X-581206Y1042155D01*
X-580933Y1042083D01*
X-580662Y1042005D01*
X-580393Y1041920D01*
X-580126Y1041828D01*
X-579861Y1041729D01*
X-579599Y1041625D01*
X-579340Y1041513D01*
X-579083Y1041396D01*
X-578829Y1041272D01*
X-578579Y1041142D01*
X-578332Y1041006D01*
X-578088Y1040864D01*
X-577848Y1040716D01*
X-577611Y1040562D01*
X-577378Y1040402D01*
X-577149Y1040237D01*
X-576925Y1040066D01*
X-576704Y1039890D01*
X-576489Y1039708D01*
X-576277Y1039521D01*
X-576070Y1039329D01*
X-575868Y1039132D01*
X-575671Y1038930D01*
X-575479Y1038723D01*
X-575292Y1038511D01*
X-575110Y1038296D01*
X-574934Y1038075D01*
X-574763Y1037851D01*
X-574598Y1037622D01*
X-574438Y1037389D01*
X-574284Y1037152D01*
X-574136Y1036912D01*
X-573994Y1036668D01*
X-573858Y1036421D01*
X-573728Y1036171D01*
X-573604Y1035917D01*
X-573487Y1035660D01*
X-573375Y1035401D01*
X-573271Y1035139D01*
X-573172Y1034874D01*
X-573080Y1034607D01*
X-572995Y1034338D01*
X-572917Y1034067D01*
X-572845Y1033794D01*
X-572779Y1033520D01*
X-572721Y1033244D01*
X-572669Y1032966D01*
X-572624Y1032687D01*
X-572586Y1032408D01*
X-572555Y1032127D01*
X-572531Y1031846D01*
X-572514Y1031564D01*
X-572503Y1031282D01*
X-572500Y1031000D01*
X-572503Y1030718D01*
X-572514Y1030436D01*
X-572531Y1030154D01*
X-572555Y1029873D01*
X-572586Y1029592D01*
X-572624Y1029313D01*
X-572669Y1029034D01*
X-572721Y1028756D01*
X-572779Y1028480D01*
X-572845Y1028206D01*
X-572917Y1027933D01*
X-572995Y1027662D01*
X-573080Y1027393D01*
X-573172Y1027126D01*
X-573271Y1026861D01*
X-573375Y1026599D01*
X-573487Y1026340D01*
X-573604Y1026083D01*
X-573728Y1025829D01*
X-573858Y1025579D01*
X-573994Y1025332D01*
X-574136Y1025088D01*
X-574284Y1024848D01*
X-574438Y1024611D01*
X-574598Y1024378D01*
X-574763Y1024149D01*
X-574934Y1023925D01*
X-575110Y1023704D01*
X-575292Y1023489D01*
X-575479Y1023277D01*
X-575671Y1023070D01*
X-575868Y1022868D01*
X-576070Y1022671D01*
X-576277Y1022479D01*
X-576489Y1022292D01*
X-576704Y1022110D01*
X-576925Y1021934D01*
X-577149Y1021763D01*
X-577378Y1021598D01*
X-577611Y1021438D01*
X-577848Y1021284D01*
X-578088Y1021136D01*
X-578332Y1020994D01*
X-578579Y1020858D01*
X-578829Y1020728D01*
X-579083Y1020604D01*
X-579340Y1020487D01*
X-579599Y1020375D01*
X-579861Y1020271D01*
X-580126Y1020172D01*
X-580393Y1020080D01*
X-580662Y1019995D01*
X-580933Y1019917D01*
X-581206Y1019845D01*
X-581480Y1019779D01*
X-581756Y1019721D01*
X-582034Y1019669D01*
X-582313Y1019624D01*
X-582592Y1019586D01*
X-582873Y1019555D01*
X-583154Y1019531D01*
X-583436Y1019514D01*
X-583718Y1019503D01*
X-584000Y1019500D01*
X-584282Y1019503D01*
X-584564Y1019514D01*
X-584846Y1019531D01*
X-585127Y1019555D01*
X-585408Y1019586D01*
X-585687Y1019624D01*
X-585966Y1019669D01*
X-586244Y1019721D01*
X-586520Y1019779D01*
X-586794Y1019845D01*
X-587067Y1019917D01*
X-587338Y1019995D01*
X-587607Y1020080D01*
X-587874Y1020172D01*
X-588139Y1020271D01*
X-588401Y1020375D01*
X-588660Y1020487D01*
X-588917Y1020604D01*
X-589171Y1020728D01*
X-589421Y1020858D01*
X-589668Y1020994D01*
X-589912Y1021136D01*
X-590152Y1021284D01*
X-590389Y1021438D01*
X-590622Y1021598D01*
X-590851Y1021763D01*
X-591075Y1021934D01*
X-591296Y1022110D01*
X-591511Y1022292D01*
X-591723Y1022479D01*
X-591930Y1022671D01*
X-592132Y1022868D01*
X-592329Y1023070D01*
X-592521Y1023277D01*
X-592708Y1023489D01*
X-592890Y1023704D01*
X-593066Y1023925D01*
X-593237Y1024149D01*
X-593402Y1024378D01*
X-593562Y1024611D01*
X-593716Y1024848D01*
X-593864Y1025088D01*
X-594006Y1025332D01*
X-594142Y1025579D01*
X-594272Y1025829D01*
X-594396Y1026083D01*
X-594513Y1026340D01*
X-594625Y1026599D01*
X-594729Y1026861D01*
X-594828Y1027126D01*
X-594920Y1027393D01*
X-595005Y1027662D01*
X-595083Y1027933D01*
X-595155Y1028206D01*
X-595221Y1028480D01*
X-595279Y1028756D01*
X-595331Y1029034D01*
X-595376Y1029313D01*
X-595414Y1029592D01*
X-595445Y1029873D01*
X-595469Y1030154D01*
X-595486Y1030436D01*
X-595497Y1030718D01*
X-595500Y1031000D01*
X13396Y783347D02*
X13398Y783509D01*
X13404Y783671D01*
X13414Y783833D01*
X13428Y783994D01*
X13446Y784155D01*
X13467Y784316D01*
X13493Y784476D01*
X13523Y784635D01*
X13556Y784794D01*
X13594Y784952D01*
X13635Y785108D01*
X13680Y785264D01*
X13729Y785419D01*
X13782Y785572D01*
X13839Y785724D01*
X13899Y785874D01*
X13963Y786023D01*
X14030Y786171D01*
X14101Y786316D01*
X14176Y786460D01*
X14254Y786602D01*
X14336Y786742D01*
X14421Y786880D01*
X14509Y787016D01*
X14601Y787150D01*
X14696Y787281D01*
X14794Y787410D01*
X14895Y787537D01*
X14999Y787661D01*
X15107Y787782D01*
X15217Y787901D01*
X15330Y788017D01*
X15446Y788130D01*
X15565Y788240D01*
X15686Y788348D01*
X15810Y788452D01*
X15937Y788553D01*
X16066Y788651D01*
X16197Y788746D01*
X16331Y788838D01*
X16467Y788926D01*
X16605Y789011D01*
X16745Y789093D01*
X16887Y789171D01*
X17031Y789246D01*
X17176Y789317D01*
X17324Y789384D01*
X17473Y789448D01*
X17623Y789508D01*
X17775Y789565D01*
X17928Y789618D01*
X18083Y789667D01*
X18239Y789712D01*
X18395Y789753D01*
X18553Y789791D01*
X18712Y789824D01*
X18871Y789854D01*
X19031Y789880D01*
X19192Y789901D01*
X19353Y789919D01*
X19514Y789933D01*
X19676Y789943D01*
X19838Y789949D01*
X20000Y789951D01*
X20162Y789949D01*
X20324Y789943D01*
X20486Y789933D01*
X20647Y789919D01*
X20808Y789901D01*
X20969Y789880D01*
X21129Y789854D01*
X21288Y789824D01*
X21447Y789791D01*
X21605Y789753D01*
X21761Y789712D01*
X21917Y789667D01*
X22072Y789618D01*
X22225Y789565D01*
X22377Y789508D01*
X22527Y789448D01*
X22676Y789384D01*
X22824Y789317D01*
X22969Y789246D01*
X23113Y789171D01*
X23255Y789093D01*
X23395Y789011D01*
X23533Y788926D01*
X23669Y788838D01*
X23803Y788746D01*
X23934Y788651D01*
X24063Y788553D01*
X24190Y788452D01*
X24314Y788348D01*
X24435Y788240D01*
X24554Y788130D01*
X24670Y788017D01*
X24783Y787901D01*
X24893Y787782D01*
X25001Y787661D01*
X25105Y787537D01*
X25206Y787410D01*
X25304Y787281D01*
X25399Y787150D01*
X25491Y787016D01*
X25579Y786880D01*
X25664Y786742D01*
X25746Y786602D01*
X25824Y786460D01*
X25899Y786316D01*
X25970Y786171D01*
X26037Y786023D01*
X26101Y785874D01*
X26161Y785724D01*
X26218Y785572D01*
X26271Y785419D01*
X26320Y785264D01*
X26365Y785108D01*
X26406Y784952D01*
X26444Y784794D01*
X26477Y784635D01*
X26507Y784476D01*
X26533Y784316D01*
X26554Y784155D01*
X26572Y783994D01*
X26586Y783833D01*
X26596Y783671D01*
X26602Y783509D01*
X26604Y783347D01*
X26602Y783185D01*
X26596Y783023D01*
X26586Y782861D01*
X26572Y782700D01*
X26554Y782539D01*
X26533Y782378D01*
X26507Y782218D01*
X26477Y782059D01*
X26444Y781900D01*
X26406Y781742D01*
X26365Y781586D01*
X26320Y781430D01*
X26271Y781275D01*
X26218Y781122D01*
X26161Y780970D01*
X26101Y780820D01*
X26037Y780671D01*
X25970Y780523D01*
X25899Y780378D01*
X25824Y780234D01*
X25746Y780092D01*
X25664Y779952D01*
X25579Y779814D01*
X25491Y779678D01*
X25399Y779544D01*
X25304Y779413D01*
X25206Y779284D01*
X25105Y779157D01*
X25001Y779033D01*
X24893Y778912D01*
X24783Y778793D01*
X24670Y778677D01*
X24554Y778564D01*
X24435Y778454D01*
X24314Y778346D01*
X24190Y778242D01*
X24063Y778141D01*
X23934Y778043D01*
X23803Y777948D01*
X23669Y777856D01*
X23533Y777768D01*
X23395Y777683D01*
X23255Y777601D01*
X23113Y777523D01*
X22969Y777448D01*
X22824Y777377D01*
X22676Y777310D01*
X22527Y777246D01*
X22377Y777186D01*
X22225Y777129D01*
X22072Y777076D01*
X21917Y777027D01*
X21761Y776982D01*
X21605Y776941D01*
X21447Y776903D01*
X21288Y776870D01*
X21129Y776840D01*
X20969Y776814D01*
X20808Y776793D01*
X20647Y776775D01*
X20486Y776761D01*
X20324Y776751D01*
X20162Y776745D01*
X20000Y776743D01*
X19838Y776745D01*
X19676Y776751D01*
X19514Y776761D01*
X19353Y776775D01*
X19192Y776793D01*
X19031Y776814D01*
X18871Y776840D01*
X18712Y776870D01*
X18553Y776903D01*
X18395Y776941D01*
X18239Y776982D01*
X18083Y777027D01*
X17928Y777076D01*
X17775Y777129D01*
X17623Y777186D01*
X17473Y777246D01*
X17324Y777310D01*
X17176Y777377D01*
X17031Y777448D01*
X16887Y777523D01*
X16745Y777601D01*
X16605Y777683D01*
X16467Y777768D01*
X16331Y777856D01*
X16197Y777948D01*
X16066Y778043D01*
X15937Y778141D01*
X15810Y778242D01*
X15686Y778346D01*
X15565Y778454D01*
X15446Y778564D01*
X15330Y778677D01*
X15217Y778793D01*
X15107Y778912D01*
X14999Y779033D01*
X14895Y779157D01*
X14794Y779284D01*
X14696Y779413D01*
X14601Y779544D01*
X14509Y779678D01*
X14421Y779814D01*
X14336Y779952D01*
X14254Y780092D01*
X14176Y780234D01*
X14101Y780378D01*
X14030Y780523D01*
X13963Y780671D01*
X13899Y780820D01*
X13839Y780970D01*
X13782Y781122D01*
X13729Y781275D01*
X13680Y781430D01*
X13635Y781586D01*
X13594Y781742D01*
X13556Y781900D01*
X13523Y782059D01*
X13493Y782218D01*
X13467Y782378D01*
X13446Y782539D01*
X13428Y782700D01*
X13414Y782861D01*
X13404Y783023D01*
X13398Y783185D01*
X13396Y783347D01*
X-17104Y1326907D02*
X-17102Y1327069D01*
X-17096Y1327231D01*
X-17086Y1327393D01*
X-17072Y1327554D01*
X-17054Y1327715D01*
X-17033Y1327876D01*
X-17007Y1328036D01*
X-16977Y1328195D01*
X-16944Y1328354D01*
X-16906Y1328512D01*
X-16865Y1328668D01*
X-16820Y1328824D01*
X-16771Y1328979D01*
X-16718Y1329132D01*
X-16661Y1329284D01*
X-16601Y1329434D01*
X-16537Y1329583D01*
X-16470Y1329731D01*
X-16399Y1329876D01*
X-16324Y1330020D01*
X-16246Y1330162D01*
X-16164Y1330302D01*
X-16079Y1330440D01*
X-15991Y1330576D01*
X-15899Y1330710D01*
X-15804Y1330841D01*
X-15706Y1330970D01*
X-15605Y1331097D01*
X-15501Y1331221D01*
X-15393Y1331342D01*
X-15283Y1331461D01*
X-15170Y1331577D01*
X-15054Y1331690D01*
X-14935Y1331800D01*
X-14814Y1331908D01*
X-14690Y1332012D01*
X-14563Y1332113D01*
X-14434Y1332211D01*
X-14303Y1332306D01*
X-14169Y1332398D01*
X-14033Y1332486D01*
X-13895Y1332571D01*
X-13755Y1332653D01*
X-13613Y1332731D01*
X-13469Y1332806D01*
X-13324Y1332877D01*
X-13176Y1332944D01*
X-13027Y1333008D01*
X-12877Y1333068D01*
X-12725Y1333125D01*
X-12572Y1333178D01*
X-12417Y1333227D01*
X-12261Y1333272D01*
X-12105Y1333313D01*
X-11947Y1333351D01*
X-11788Y1333384D01*
X-11629Y1333414D01*
X-11469Y1333440D01*
X-11308Y1333461D01*
X-11147Y1333479D01*
X-10986Y1333493D01*
X-10824Y1333503D01*
X-10662Y1333509D01*
X-10500Y1333511D01*
X-10338Y1333509D01*
X-10176Y1333503D01*
X-10014Y1333493D01*
X-9853Y1333479D01*
X-9692Y1333461D01*
X-9531Y1333440D01*
X-9371Y1333414D01*
X-9212Y1333384D01*
X-9053Y1333351D01*
X-8895Y1333313D01*
X-8739Y1333272D01*
X-8583Y1333227D01*
X-8428Y1333178D01*
X-8275Y1333125D01*
X-8123Y1333068D01*
X-7973Y1333008D01*
X-7824Y1332944D01*
X-7676Y1332877D01*
X-7531Y1332806D01*
X-7387Y1332731D01*
X-7245Y1332653D01*
X-7105Y1332571D01*
X-6967Y1332486D01*
X-6831Y1332398D01*
X-6697Y1332306D01*
X-6566Y1332211D01*
X-6437Y1332113D01*
X-6310Y1332012D01*
X-6186Y1331908D01*
X-6065Y1331800D01*
X-5946Y1331690D01*
X-5830Y1331577D01*
X-5717Y1331461D01*
X-5607Y1331342D01*
X-5499Y1331221D01*
X-5395Y1331097D01*
X-5294Y1330970D01*
X-5196Y1330841D01*
X-5101Y1330710D01*
X-5009Y1330576D01*
X-4921Y1330440D01*
X-4836Y1330302D01*
X-4754Y1330162D01*
X-4676Y1330020D01*
X-4601Y1329876D01*
X-4530Y1329731D01*
X-4463Y1329583D01*
X-4399Y1329434D01*
X-4339Y1329284D01*
X-4282Y1329132D01*
X-4229Y1328979D01*
X-4180Y1328824D01*
X-4135Y1328668D01*
X-4094Y1328512D01*
X-4056Y1328354D01*
X-4023Y1328195D01*
X-3993Y1328036D01*
X-3967Y1327876D01*
X-3946Y1327715D01*
X-3928Y1327554D01*
X-3914Y1327393D01*
X-3904Y1327231D01*
X-3898Y1327069D01*
X-3896Y1326907D01*
X-3898Y1326745D01*
X-3904Y1326583D01*
X-3914Y1326421D01*
X-3928Y1326260D01*
X-3946Y1326099D01*
X-3967Y1325938D01*
X-3993Y1325778D01*
X-4023Y1325619D01*
X-4056Y1325460D01*
X-4094Y1325302D01*
X-4135Y1325146D01*
X-4180Y1324990D01*
X-4229Y1324835D01*
X-4282Y1324682D01*
X-4339Y1324530D01*
X-4399Y1324380D01*
X-4463Y1324231D01*
X-4530Y1324083D01*
X-4601Y1323938D01*
X-4676Y1323794D01*
X-4754Y1323652D01*
X-4836Y1323512D01*
X-4921Y1323374D01*
X-5009Y1323238D01*
X-5101Y1323104D01*
X-5196Y1322973D01*
X-5294Y1322844D01*
X-5395Y1322717D01*
X-5499Y1322593D01*
X-5607Y1322472D01*
X-5717Y1322353D01*
X-5830Y1322237D01*
X-5946Y1322124D01*
X-6065Y1322014D01*
X-6186Y1321906D01*
X-6310Y1321802D01*
X-6437Y1321701D01*
X-6566Y1321603D01*
X-6697Y1321508D01*
X-6831Y1321416D01*
X-6967Y1321328D01*
X-7105Y1321243D01*
X-7245Y1321161D01*
X-7387Y1321083D01*
X-7531Y1321008D01*
X-7676Y1320937D01*
X-7824Y1320870D01*
X-7973Y1320806D01*
X-8123Y1320746D01*
X-8275Y1320689D01*
X-8428Y1320636D01*
X-8583Y1320587D01*
X-8739Y1320542D01*
X-8895Y1320501D01*
X-9053Y1320463D01*
X-9212Y1320430D01*
X-9371Y1320400D01*
X-9531Y1320374D01*
X-9692Y1320353D01*
X-9853Y1320335D01*
X-10014Y1320321D01*
X-10176Y1320311D01*
X-10338Y1320305D01*
X-10500Y1320303D01*
X-10662Y1320305D01*
X-10824Y1320311D01*
X-10986Y1320321D01*
X-11147Y1320335D01*
X-11308Y1320353D01*
X-11469Y1320374D01*
X-11629Y1320400D01*
X-11788Y1320430D01*
X-11947Y1320463D01*
X-12105Y1320501D01*
X-12261Y1320542D01*
X-12417Y1320587D01*
X-12572Y1320636D01*
X-12725Y1320689D01*
X-12877Y1320746D01*
X-13027Y1320806D01*
X-13176Y1320870D01*
X-13324Y1320937D01*
X-13469Y1321008D01*
X-13613Y1321083D01*
X-13755Y1321161D01*
X-13895Y1321243D01*
X-14033Y1321328D01*
X-14169Y1321416D01*
X-14303Y1321508D01*
X-14434Y1321603D01*
X-14563Y1321701D01*
X-14690Y1321802D01*
X-14814Y1321906D01*
X-14935Y1322014D01*
X-15054Y1322124D01*
X-15170Y1322237D01*
X-15283Y1322353D01*
X-15393Y1322472D01*
X-15501Y1322593D01*
X-15605Y1322717D01*
X-15706Y1322844D01*
X-15804Y1322973D01*
X-15899Y1323104D01*
X-15991Y1323238D01*
X-16079Y1323374D01*
X-16164Y1323512D01*
X-16246Y1323652D01*
X-16324Y1323794D01*
X-16399Y1323938D01*
X-16470Y1324083D01*
X-16537Y1324231D01*
X-16601Y1324380D01*
X-16661Y1324530D01*
X-16718Y1324682D01*
X-16771Y1324835D01*
X-16820Y1324990D01*
X-16865Y1325146D01*
X-16906Y1325302D01*
X-16944Y1325460D01*
X-16977Y1325619D01*
X-17007Y1325778D01*
X-17033Y1325938D01*
X-17054Y1326099D01*
X-17072Y1326260D01*
X-17086Y1326421D01*
X-17096Y1326583D01*
X-17102Y1326745D01*
X-17104Y1326907D01*
D13*
X924000Y1400000D02*
X924000Y710000D01*
X924000Y1400000D02*
X382000Y1400000D01*
X382000Y1384000D01*
X381997Y1383758D01*
X381988Y1383517D01*
X381974Y1383276D01*
X381953Y1383035D01*
X381927Y1382795D01*
X381895Y1382555D01*
X381857Y1382316D01*
X381814Y1382079D01*
X381764Y1381842D01*
X381709Y1381607D01*
X381649Y1381373D01*
X381582Y1381141D01*
X381511Y1380910D01*
X381433Y1380681D01*
X381350Y1380454D01*
X381262Y1380229D01*
X381168Y1380006D01*
X381069Y1379786D01*
X380964Y1379568D01*
X380855Y1379353D01*
X380740Y1379140D01*
X380620Y1378930D01*
X380495Y1378724D01*
X380365Y1378520D01*
X380230Y1378319D01*
X380090Y1378122D01*
X379946Y1377928D01*
X379797Y1377738D01*
X379643Y1377552D01*
X379485Y1377369D01*
X379323Y1377190D01*
X379156Y1377015D01*
X378985Y1376844D01*
X378810Y1376677D01*
X378631Y1376515D01*
X378448Y1376357D01*
X378262Y1376203D01*
X378072Y1376054D01*
X377878Y1375910D01*
X377681Y1375770D01*
X377480Y1375635D01*
X377276Y1375505D01*
X377070Y1375380D01*
X376860Y1375260D01*
X376647Y1375145D01*
X376432Y1375036D01*
X376214Y1374931D01*
X375994Y1374832D01*
X375771Y1374738D01*
X375546Y1374650D01*
X375319Y1374567D01*
X375090Y1374489D01*
X374859Y1374418D01*
X374627Y1374351D01*
X374393Y1374291D01*
X374158Y1374236D01*
X373921Y1374186D01*
X373684Y1374143D01*
X373445Y1374105D01*
X373205Y1374073D01*
X372965Y1374047D01*
X372724Y1374026D01*
X372483Y1374012D01*
X372242Y1374003D01*
X372000Y1374000D01*
X274000Y1374000D01*
X274000Y1363000D01*
X273997Y1362758D01*
X273988Y1362517D01*
X273974Y1362276D01*
X273953Y1362035D01*
X273927Y1361795D01*
X273895Y1361555D01*
X273857Y1361316D01*
X273814Y1361079D01*
X273764Y1360842D01*
X273709Y1360607D01*
X273649Y1360373D01*
X273582Y1360141D01*
X273511Y1359910D01*
X273433Y1359681D01*
X273350Y1359454D01*
X273262Y1359229D01*
X273168Y1359006D01*
X273069Y1358786D01*
X272964Y1358568D01*
X272855Y1358353D01*
X272740Y1358140D01*
X272620Y1357930D01*
X272495Y1357724D01*
X272365Y1357520D01*
X272230Y1357319D01*
X272090Y1357122D01*
X271946Y1356928D01*
X271797Y1356738D01*
X271643Y1356552D01*
X271485Y1356369D01*
X271323Y1356190D01*
X271156Y1356015D01*
X270985Y1355844D01*
X270810Y1355677D01*
X270631Y1355515D01*
X270448Y1355357D01*
X270262Y1355203D01*
X270072Y1355054D01*
X269878Y1354910D01*
X269681Y1354770D01*
X269480Y1354635D01*
X269276Y1354505D01*
X269070Y1354380D01*
X268860Y1354260D01*
X268647Y1354145D01*
X268432Y1354036D01*
X268214Y1353931D01*
X267994Y1353832D01*
X267771Y1353738D01*
X267546Y1353650D01*
X267319Y1353567D01*
X267090Y1353489D01*
X266859Y1353418D01*
X266627Y1353351D01*
X266393Y1353291D01*
X266158Y1353236D01*
X265921Y1353186D01*
X265684Y1353143D01*
X265445Y1353105D01*
X265205Y1353073D01*
X264965Y1353047D01*
X264724Y1353026D01*
X264483Y1353012D01*
X264242Y1353003D01*
X264000Y1353000D01*
X159000Y1353000D01*
X159000Y740000D01*
X420000Y740000D01*
X420242Y739997D01*
X420483Y739988D01*
X420724Y739974D01*
X420965Y739953D01*
X421205Y739927D01*
X421445Y739895D01*
X421684Y739857D01*
X421921Y739814D01*
X422158Y739764D01*
X422393Y739709D01*
X422627Y739649D01*
X422859Y739582D01*
X423090Y739511D01*
X423319Y739433D01*
X423546Y739350D01*
X423771Y739262D01*
X423994Y739168D01*
X424214Y739069D01*
X424432Y738964D01*
X424647Y738855D01*
X424860Y738740D01*
X425070Y738620D01*
X425276Y738495D01*
X425480Y738365D01*
X425681Y738230D01*
X425878Y738090D01*
X426072Y737946D01*
X426262Y737797D01*
X426448Y737643D01*
X426631Y737485D01*
X426810Y737323D01*
X426985Y737156D01*
X427156Y736985D01*
X427323Y736810D01*
X427485Y736631D01*
X427643Y736448D01*
X427797Y736262D01*
X427946Y736072D01*
X428090Y735878D01*
X428230Y735681D01*
X428365Y735480D01*
X428495Y735276D01*
X428620Y735070D01*
X428740Y734860D01*
X428855Y734647D01*
X428964Y734432D01*
X429069Y734214D01*
X429168Y733994D01*
X429262Y733771D01*
X429350Y733546D01*
X429433Y733319D01*
X429511Y733090D01*
X429582Y732859D01*
X429649Y732627D01*
X429709Y732393D01*
X429764Y732158D01*
X429814Y731921D01*
X429857Y731684D01*
X429895Y731445D01*
X429927Y731205D01*
X429953Y730965D01*
X429974Y730724D01*
X429988Y730483D01*
X429997Y730242D01*
X430000Y730000D01*
X430000Y710000D01*
X924000Y710000D01*
D11*
X197000Y865000D02*
X197003Y865221D01*
X197011Y865442D01*
X197024Y865662D01*
X197043Y865882D01*
X197068Y866102D01*
X197097Y866321D01*
X197133Y866539D01*
X197173Y866756D01*
X197219Y866972D01*
X197270Y867187D01*
X197326Y867400D01*
X197388Y867613D01*
X197454Y867823D01*
X197526Y868032D01*
X197603Y868239D01*
X197685Y868444D01*
X197772Y868647D01*
X197864Y868848D01*
X197961Y869047D01*
X198063Y869243D01*
X198169Y869436D01*
X198280Y869627D01*
X198396Y869815D01*
X198517Y870000D01*
X198642Y870182D01*
X198771Y870361D01*
X198905Y870537D01*
X199043Y870710D01*
X199185Y870879D01*
X199331Y871044D01*
X199482Y871206D01*
X199636Y871364D01*
X199794Y871518D01*
X199956Y871669D01*
X200121Y871815D01*
X200290Y871957D01*
X200463Y872095D01*
X200639Y872229D01*
X200818Y872358D01*
X201000Y872483D01*
X201185Y872604D01*
X201373Y872720D01*
X201564Y872831D01*
X201757Y872937D01*
X201953Y873039D01*
X202152Y873136D01*
X202353Y873228D01*
X202556Y873315D01*
X202761Y873397D01*
X202968Y873474D01*
X203177Y873546D01*
X203387Y873612D01*
X203600Y873674D01*
X203813Y873730D01*
X204028Y873781D01*
X204244Y873827D01*
X204461Y873867D01*
X204679Y873903D01*
X204898Y873932D01*
X205118Y873957D01*
X205338Y873976D01*
X205558Y873989D01*
X205779Y873997D01*
X206000Y874000D01*
X206221Y873997D01*
X206442Y873989D01*
X206662Y873976D01*
X206882Y873957D01*
X207102Y873932D01*
X207321Y873903D01*
X207539Y873867D01*
X207756Y873827D01*
X207972Y873781D01*
X208187Y873730D01*
X208400Y873674D01*
X208613Y873612D01*
X208823Y873546D01*
X209032Y873474D01*
X209239Y873397D01*
X209444Y873315D01*
X209647Y873228D01*
X209848Y873136D01*
X210047Y873039D01*
X210243Y872937D01*
X210436Y872831D01*
X210627Y872720D01*
X210815Y872604D01*
X211000Y872483D01*
X211182Y872358D01*
X211361Y872229D01*
X211537Y872095D01*
X211710Y871957D01*
X211879Y871815D01*
X212044Y871669D01*
X212206Y871518D01*
X212364Y871364D01*
X212518Y871206D01*
X212669Y871044D01*
X212815Y870879D01*
X212957Y870710D01*
X213095Y870537D01*
X213229Y870361D01*
X213358Y870182D01*
X213483Y870000D01*
X213604Y869815D01*
X213720Y869627D01*
X213831Y869436D01*
X213937Y869243D01*
X214039Y869047D01*
X214136Y868848D01*
X214228Y868647D01*
X214315Y868444D01*
X214397Y868239D01*
X214474Y868032D01*
X214546Y867823D01*
X214612Y867613D01*
X214674Y867400D01*
X214730Y867187D01*
X214781Y866972D01*
X214827Y866756D01*
X214867Y866539D01*
X214903Y866321D01*
X214932Y866102D01*
X214957Y865882D01*
X214976Y865662D01*
X214989Y865442D01*
X214997Y865221D01*
X215000Y865000D01*
X214997Y864779D01*
X214989Y864558D01*
X214976Y864338D01*
X214957Y864118D01*
X214932Y863898D01*
X214903Y863679D01*
X214867Y863461D01*
X214827Y863244D01*
X214781Y863028D01*
X214730Y862813D01*
X214674Y862600D01*
X214612Y862387D01*
X214546Y862177D01*
X214474Y861968D01*
X214397Y861761D01*
X214315Y861556D01*
X214228Y861353D01*
X214136Y861152D01*
X214039Y860953D01*
X213937Y860757D01*
X213831Y860564D01*
X213720Y860373D01*
X213604Y860185D01*
X213483Y860000D01*
X213358Y859818D01*
X213229Y859639D01*
X213095Y859463D01*
X212957Y859290D01*
X212815Y859121D01*
X212669Y858956D01*
X212518Y858794D01*
X212364Y858636D01*
X212206Y858482D01*
X212044Y858331D01*
X211879Y858185D01*
X211710Y858043D01*
X211537Y857905D01*
X211361Y857771D01*
X211182Y857642D01*
X211000Y857517D01*
X210815Y857396D01*
X210627Y857280D01*
X210436Y857169D01*
X210243Y857063D01*
X210047Y856961D01*
X209848Y856864D01*
X209647Y856772D01*
X209444Y856685D01*
X209239Y856603D01*
X209032Y856526D01*
X208823Y856454D01*
X208613Y856388D01*
X208400Y856326D01*
X208187Y856270D01*
X207972Y856219D01*
X207756Y856173D01*
X207539Y856133D01*
X207321Y856097D01*
X207102Y856068D01*
X206882Y856043D01*
X206662Y856024D01*
X206442Y856011D01*
X206221Y856003D01*
X206000Y856000D01*
X205779Y856003D01*
X205558Y856011D01*
X205338Y856024D01*
X205118Y856043D01*
X204898Y856068D01*
X204679Y856097D01*
X204461Y856133D01*
X204244Y856173D01*
X204028Y856219D01*
X203813Y856270D01*
X203600Y856326D01*
X203387Y856388D01*
X203177Y856454D01*
X202968Y856526D01*
X202761Y856603D01*
X202556Y856685D01*
X202353Y856772D01*
X202152Y856864D01*
X201953Y856961D01*
X201757Y857063D01*
X201564Y857169D01*
X201373Y857280D01*
X201185Y857396D01*
X201000Y857517D01*
X200818Y857642D01*
X200639Y857771D01*
X200463Y857905D01*
X200290Y858043D01*
X200121Y858185D01*
X199956Y858331D01*
X199794Y858482D01*
X199636Y858636D01*
X199482Y858794D01*
X199331Y858956D01*
X199185Y859121D01*
X199043Y859290D01*
X198905Y859463D01*
X198771Y859639D01*
X198642Y859818D01*
X198517Y860000D01*
X198396Y860185D01*
X198280Y860373D01*
X198169Y860564D01*
X198063Y860757D01*
X197961Y860953D01*
X197864Y861152D01*
X197772Y861353D01*
X197685Y861556D01*
X197603Y861761D01*
X197526Y861968D01*
X197454Y862177D01*
X197388Y862387D01*
X197326Y862600D01*
X197270Y862813D01*
X197219Y863028D01*
X197173Y863244D01*
X197133Y863461D01*
X197097Y863679D01*
X197068Y863898D01*
X197043Y864118D01*
X197024Y864338D01*
X197011Y864558D01*
X197003Y864779D01*
X197000Y865000D01*
X197000Y1005000D02*
X197003Y1005221D01*
X197011Y1005442D01*
X197024Y1005662D01*
X197043Y1005882D01*
X197068Y1006102D01*
X197097Y1006321D01*
X197133Y1006539D01*
X197173Y1006756D01*
X197219Y1006972D01*
X197270Y1007187D01*
X197326Y1007400D01*
X197388Y1007613D01*
X197454Y1007823D01*
X197526Y1008032D01*
X197603Y1008239D01*
X197685Y1008444D01*
X197772Y1008647D01*
X197864Y1008848D01*
X197961Y1009047D01*
X198063Y1009243D01*
X198169Y1009436D01*
X198280Y1009627D01*
X198396Y1009815D01*
X198517Y1010000D01*
X198642Y1010182D01*
X198771Y1010361D01*
X198905Y1010537D01*
X199043Y1010710D01*
X199185Y1010879D01*
X199331Y1011044D01*
X199482Y1011206D01*
X199636Y1011364D01*
X199794Y1011518D01*
X199956Y1011669D01*
X200121Y1011815D01*
X200290Y1011957D01*
X200463Y1012095D01*
X200639Y1012229D01*
X200818Y1012358D01*
X201000Y1012483D01*
X201185Y1012604D01*
X201373Y1012720D01*
X201564Y1012831D01*
X201757Y1012937D01*
X201953Y1013039D01*
X202152Y1013136D01*
X202353Y1013228D01*
X202556Y1013315D01*
X202761Y1013397D01*
X202968Y1013474D01*
X203177Y1013546D01*
X203387Y1013612D01*
X203600Y1013674D01*
X203813Y1013730D01*
X204028Y1013781D01*
X204244Y1013827D01*
X204461Y1013867D01*
X204679Y1013903D01*
X204898Y1013932D01*
X205118Y1013957D01*
X205338Y1013976D01*
X205558Y1013989D01*
X205779Y1013997D01*
X206000Y1014000D01*
X206221Y1013997D01*
X206442Y1013989D01*
X206662Y1013976D01*
X206882Y1013957D01*
X207102Y1013932D01*
X207321Y1013903D01*
X207539Y1013867D01*
X207756Y1013827D01*
X207972Y1013781D01*
X208187Y1013730D01*
X208400Y1013674D01*
X208613Y1013612D01*
X208823Y1013546D01*
X209032Y1013474D01*
X209239Y1013397D01*
X209444Y1013315D01*
X209647Y1013228D01*
X209848Y1013136D01*
X210047Y1013039D01*
X210243Y1012937D01*
X210436Y1012831D01*
X210627Y1012720D01*
X210815Y1012604D01*
X211000Y1012483D01*
X211182Y1012358D01*
X211361Y1012229D01*
X211537Y1012095D01*
X211710Y1011957D01*
X211879Y1011815D01*
X212044Y1011669D01*
X212206Y1011518D01*
X212364Y1011364D01*
X212518Y1011206D01*
X212669Y1011044D01*
X212815Y1010879D01*
X212957Y1010710D01*
X213095Y1010537D01*
X213229Y1010361D01*
X213358Y1010182D01*
X213483Y1010000D01*
X213604Y1009815D01*
X213720Y1009627D01*
X213831Y1009436D01*
X213937Y1009243D01*
X214039Y1009047D01*
X214136Y1008848D01*
X214228Y1008647D01*
X214315Y1008444D01*
X214397Y1008239D01*
X214474Y1008032D01*
X214546Y1007823D01*
X214612Y1007613D01*
X214674Y1007400D01*
X214730Y1007187D01*
X214781Y1006972D01*
X214827Y1006756D01*
X214867Y1006539D01*
X214903Y1006321D01*
X214932Y1006102D01*
X214957Y1005882D01*
X214976Y1005662D01*
X214989Y1005442D01*
X214997Y1005221D01*
X215000Y1005000D01*
X214997Y1004779D01*
X214989Y1004558D01*
X214976Y1004338D01*
X214957Y1004118D01*
X214932Y1003898D01*
X214903Y1003679D01*
X214867Y1003461D01*
X214827Y1003244D01*
X214781Y1003028D01*
X214730Y1002813D01*
X214674Y1002600D01*
X214612Y1002387D01*
X214546Y1002177D01*
X214474Y1001968D01*
X214397Y1001761D01*
X214315Y1001556D01*
X214228Y1001353D01*
X214136Y1001152D01*
X214039Y1000953D01*
X213937Y1000757D01*
X213831Y1000564D01*
X213720Y1000373D01*
X213604Y1000185D01*
X213483Y1000000D01*
X213358Y999818D01*
X213229Y999639D01*
X213095Y999463D01*
X212957Y999290D01*
X212815Y999121D01*
X212669Y998956D01*
X212518Y998794D01*
X212364Y998636D01*
X212206Y998482D01*
X212044Y998331D01*
X211879Y998185D01*
X211710Y998043D01*
X211537Y997905D01*
X211361Y997771D01*
X211182Y997642D01*
X211000Y997517D01*
X210815Y997396D01*
X210627Y997280D01*
X210436Y997169D01*
X210243Y997063D01*
X210047Y996961D01*
X209848Y996864D01*
X209647Y996772D01*
X209444Y996685D01*
X209239Y996603D01*
X209032Y996526D01*
X208823Y996454D01*
X208613Y996388D01*
X208400Y996326D01*
X208187Y996270D01*
X207972Y996219D01*
X207756Y996173D01*
X207539Y996133D01*
X207321Y996097D01*
X207102Y996068D01*
X206882Y996043D01*
X206662Y996024D01*
X206442Y996011D01*
X206221Y996003D01*
X206000Y996000D01*
X205779Y996003D01*
X205558Y996011D01*
X205338Y996024D01*
X205118Y996043D01*
X204898Y996068D01*
X204679Y996097D01*
X204461Y996133D01*
X204244Y996173D01*
X204028Y996219D01*
X203813Y996270D01*
X203600Y996326D01*
X203387Y996388D01*
X203177Y996454D01*
X202968Y996526D01*
X202761Y996603D01*
X202556Y996685D01*
X202353Y996772D01*
X202152Y996864D01*
X201953Y996961D01*
X201757Y997063D01*
X201564Y997169D01*
X201373Y997280D01*
X201185Y997396D01*
X201000Y997517D01*
X200818Y997642D01*
X200639Y997771D01*
X200463Y997905D01*
X200290Y998043D01*
X200121Y998185D01*
X199956Y998331D01*
X199794Y998482D01*
X199636Y998636D01*
X199482Y998794D01*
X199331Y998956D01*
X199185Y999121D01*
X199043Y999290D01*
X198905Y999463D01*
X198771Y999639D01*
X198642Y999818D01*
X198517Y1000000D01*
X198396Y1000185D01*
X198280Y1000373D01*
X198169Y1000564D01*
X198063Y1000757D01*
X197961Y1000953D01*
X197864Y1001152D01*
X197772Y1001353D01*
X197685Y1001556D01*
X197603Y1001761D01*
X197526Y1001968D01*
X197454Y1002177D01*
X197388Y1002387D01*
X197326Y1002600D01*
X197270Y1002813D01*
X197219Y1003028D01*
X197173Y1003244D01*
X197133Y1003461D01*
X197097Y1003679D01*
X197068Y1003898D01*
X197043Y1004118D01*
X197024Y1004338D01*
X197011Y1004558D01*
X197003Y1004779D01*
X197000Y1005000D01*
X219500Y839000D02*
X219503Y839282D01*
X219514Y839564D01*
X219531Y839846D01*
X219555Y840127D01*
X219586Y840408D01*
X219624Y840687D01*
X219669Y840966D01*
X219721Y841244D01*
X219779Y841520D01*
X219845Y841794D01*
X219917Y842067D01*
X219995Y842338D01*
X220080Y842607D01*
X220172Y842874D01*
X220271Y843139D01*
X220375Y843401D01*
X220487Y843660D01*
X220604Y843917D01*
X220728Y844171D01*
X220858Y844421D01*
X220994Y844668D01*
X221136Y844912D01*
X221284Y845152D01*
X221438Y845389D01*
X221598Y845622D01*
X221763Y845851D01*
X221934Y846075D01*
X222110Y846296D01*
X222292Y846511D01*
X222479Y846723D01*
X222671Y846930D01*
X222868Y847132D01*
X223070Y847329D01*
X223277Y847521D01*
X223489Y847708D01*
X223704Y847890D01*
X223925Y848066D01*
X224149Y848237D01*
X224378Y848402D01*
X224611Y848562D01*
X224848Y848716D01*
X225088Y848864D01*
X225332Y849006D01*
X225579Y849142D01*
X225829Y849272D01*
X226083Y849396D01*
X226340Y849513D01*
X226599Y849625D01*
X226861Y849729D01*
X227126Y849828D01*
X227393Y849920D01*
X227662Y850005D01*
X227933Y850083D01*
X228206Y850155D01*
X228480Y850221D01*
X228756Y850279D01*
X229034Y850331D01*
X229313Y850376D01*
X229592Y850414D01*
X229873Y850445D01*
X230154Y850469D01*
X230436Y850486D01*
X230718Y850497D01*
X231000Y850500D01*
X231282Y850497D01*
X231564Y850486D01*
X231846Y850469D01*
X232127Y850445D01*
X232408Y850414D01*
X232687Y850376D01*
X232966Y850331D01*
X233244Y850279D01*
X233520Y850221D01*
X233794Y850155D01*
X234067Y850083D01*
X234338Y850005D01*
X234607Y849920D01*
X234874Y849828D01*
X235139Y849729D01*
X235401Y849625D01*
X235660Y849513D01*
X235917Y849396D01*
X236171Y849272D01*
X236421Y849142D01*
X236668Y849006D01*
X236912Y848864D01*
X237152Y848716D01*
X237389Y848562D01*
X237622Y848402D01*
X237851Y848237D01*
X238075Y848066D01*
X238296Y847890D01*
X238511Y847708D01*
X238723Y847521D01*
X238930Y847329D01*
X239132Y847132D01*
X239329Y846930D01*
X239521Y846723D01*
X239708Y846511D01*
X239890Y846296D01*
X240066Y846075D01*
X240237Y845851D01*
X240402Y845622D01*
X240562Y845389D01*
X240716Y845152D01*
X240864Y844912D01*
X241006Y844668D01*
X241142Y844421D01*
X241272Y844171D01*
X241396Y843917D01*
X241513Y843660D01*
X241625Y843401D01*
X241729Y843139D01*
X241828Y842874D01*
X241920Y842607D01*
X242005Y842338D01*
X242083Y842067D01*
X242155Y841794D01*
X242221Y841520D01*
X242279Y841244D01*
X242331Y840966D01*
X242376Y840687D01*
X242414Y840408D01*
X242445Y840127D01*
X242469Y839846D01*
X242486Y839564D01*
X242497Y839282D01*
X242500Y839000D01*
X242497Y838718D01*
X242486Y838436D01*
X242469Y838154D01*
X242445Y837873D01*
X242414Y837592D01*
X242376Y837313D01*
X242331Y837034D01*
X242279Y836756D01*
X242221Y836480D01*
X242155Y836206D01*
X242083Y835933D01*
X242005Y835662D01*
X241920Y835393D01*
X241828Y835126D01*
X241729Y834861D01*
X241625Y834599D01*
X241513Y834340D01*
X241396Y834083D01*
X241272Y833829D01*
X241142Y833579D01*
X241006Y833332D01*
X240864Y833088D01*
X240716Y832848D01*
X240562Y832611D01*
X240402Y832378D01*
X240237Y832149D01*
X240066Y831925D01*
X239890Y831704D01*
X239708Y831489D01*
X239521Y831277D01*
X239329Y831070D01*
X239132Y830868D01*
X238930Y830671D01*
X238723Y830479D01*
X238511Y830292D01*
X238296Y830110D01*
X238075Y829934D01*
X237851Y829763D01*
X237622Y829598D01*
X237389Y829438D01*
X237152Y829284D01*
X236912Y829136D01*
X236668Y828994D01*
X236421Y828858D01*
X236171Y828728D01*
X235917Y828604D01*
X235660Y828487D01*
X235401Y828375D01*
X235139Y828271D01*
X234874Y828172D01*
X234607Y828080D01*
X234338Y827995D01*
X234067Y827917D01*
X233794Y827845D01*
X233520Y827779D01*
X233244Y827721D01*
X232966Y827669D01*
X232687Y827624D01*
X232408Y827586D01*
X232127Y827555D01*
X231846Y827531D01*
X231564Y827514D01*
X231282Y827503D01*
X231000Y827500D01*
X230718Y827503D01*
X230436Y827514D01*
X230154Y827531D01*
X229873Y827555D01*
X229592Y827586D01*
X229313Y827624D01*
X229034Y827669D01*
X228756Y827721D01*
X228480Y827779D01*
X228206Y827845D01*
X227933Y827917D01*
X227662Y827995D01*
X227393Y828080D01*
X227126Y828172D01*
X226861Y828271D01*
X226599Y828375D01*
X226340Y828487D01*
X226083Y828604D01*
X225829Y828728D01*
X225579Y828858D01*
X225332Y828994D01*
X225088Y829136D01*
X224848Y829284D01*
X224611Y829438D01*
X224378Y829598D01*
X224149Y829763D01*
X223925Y829934D01*
X223704Y830110D01*
X223489Y830292D01*
X223277Y830479D01*
X223070Y830671D01*
X222868Y830868D01*
X222671Y831070D01*
X222479Y831277D01*
X222292Y831489D01*
X222110Y831704D01*
X221934Y831925D01*
X221763Y832149D01*
X221598Y832378D01*
X221438Y832611D01*
X221284Y832848D01*
X221136Y833088D01*
X220994Y833332D01*
X220858Y833579D01*
X220728Y833829D01*
X220604Y834083D01*
X220487Y834340D01*
X220375Y834599D01*
X220271Y834861D01*
X220172Y835126D01*
X220080Y835393D01*
X219995Y835662D01*
X219917Y835933D01*
X219845Y836206D01*
X219779Y836480D01*
X219721Y836756D01*
X219669Y837034D01*
X219624Y837313D01*
X219586Y837592D01*
X219555Y837873D01*
X219531Y838154D01*
X219514Y838436D01*
X219503Y838718D01*
X219500Y839000D01*
X219500Y1031000D02*
X219503Y1031282D01*
X219514Y1031564D01*
X219531Y1031846D01*
X219555Y1032127D01*
X219586Y1032408D01*
X219624Y1032687D01*
X219669Y1032966D01*
X219721Y1033244D01*
X219779Y1033520D01*
X219845Y1033794D01*
X219917Y1034067D01*
X219995Y1034338D01*
X220080Y1034607D01*
X220172Y1034874D01*
X220271Y1035139D01*
X220375Y1035401D01*
X220487Y1035660D01*
X220604Y1035917D01*
X220728Y1036171D01*
X220858Y1036421D01*
X220994Y1036668D01*
X221136Y1036912D01*
X221284Y1037152D01*
X221438Y1037389D01*
X221598Y1037622D01*
X221763Y1037851D01*
X221934Y1038075D01*
X222110Y1038296D01*
X222292Y1038511D01*
X222479Y1038723D01*
X222671Y1038930D01*
X222868Y1039132D01*
X223070Y1039329D01*
X223277Y1039521D01*
X223489Y1039708D01*
X223704Y1039890D01*
X223925Y1040066D01*
X224149Y1040237D01*
X224378Y1040402D01*
X224611Y1040562D01*
X224848Y1040716D01*
X225088Y1040864D01*
X225332Y1041006D01*
X225579Y1041142D01*
X225829Y1041272D01*
X226083Y1041396D01*
X226340Y1041513D01*
X226599Y1041625D01*
X226861Y1041729D01*
X227126Y1041828D01*
X227393Y1041920D01*
X227662Y1042005D01*
X227933Y1042083D01*
X228206Y1042155D01*
X228480Y1042221D01*
X228756Y1042279D01*
X229034Y1042331D01*
X229313Y1042376D01*
X229592Y1042414D01*
X229873Y1042445D01*
X230154Y1042469D01*
X230436Y1042486D01*
X230718Y1042497D01*
X231000Y1042500D01*
X231282Y1042497D01*
X231564Y1042486D01*
X231846Y1042469D01*
X232127Y1042445D01*
X232408Y1042414D01*
X232687Y1042376D01*
X232966Y1042331D01*
X233244Y1042279D01*
X233520Y1042221D01*
X233794Y1042155D01*
X234067Y1042083D01*
X234338Y1042005D01*
X234607Y1041920D01*
X234874Y1041828D01*
X235139Y1041729D01*
X235401Y1041625D01*
X235660Y1041513D01*
X235917Y1041396D01*
X236171Y1041272D01*
X236421Y1041142D01*
X236668Y1041006D01*
X236912Y1040864D01*
X237152Y1040716D01*
X237389Y1040562D01*
X237622Y1040402D01*
X237851Y1040237D01*
X238075Y1040066D01*
X238296Y1039890D01*
X238511Y1039708D01*
X238723Y1039521D01*
X238930Y1039329D01*
X239132Y1039132D01*
X239329Y1038930D01*
X239521Y1038723D01*
X239708Y1038511D01*
X239890Y1038296D01*
X240066Y1038075D01*
X240237Y1037851D01*
X240402Y1037622D01*
X240562Y1037389D01*
X240716Y1037152D01*
X240864Y1036912D01*
X241006Y1036668D01*
X241142Y1036421D01*
X241272Y1036171D01*
X241396Y1035917D01*
X241513Y1035660D01*
X241625Y1035401D01*
X241729Y1035139D01*
X241828Y1034874D01*
X241920Y1034607D01*
X242005Y1034338D01*
X242083Y1034067D01*
X242155Y1033794D01*
X242221Y1033520D01*
X242279Y1033244D01*
X242331Y1032966D01*
X242376Y1032687D01*
X242414Y1032408D01*
X242445Y1032127D01*
X242469Y1031846D01*
X242486Y1031564D01*
X242497Y1031282D01*
X242500Y1031000D01*
X242497Y1030718D01*
X242486Y1030436D01*
X242469Y1030154D01*
X242445Y1029873D01*
X242414Y1029592D01*
X242376Y1029313D01*
X242331Y1029034D01*
X242279Y1028756D01*
X242221Y1028480D01*
X242155Y1028206D01*
X242083Y1027933D01*
X242005Y1027662D01*
X241920Y1027393D01*
X241828Y1027126D01*
X241729Y1026861D01*
X241625Y1026599D01*
X241513Y1026340D01*
X241396Y1026083D01*
X241272Y1025829D01*
X241142Y1025579D01*
X241006Y1025332D01*
X240864Y1025088D01*
X240716Y1024848D01*
X240562Y1024611D01*
X240402Y1024378D01*
X240237Y1024149D01*
X240066Y1023925D01*
X239890Y1023704D01*
X239708Y1023489D01*
X239521Y1023277D01*
X239329Y1023070D01*
X239132Y1022868D01*
X238930Y1022671D01*
X238723Y1022479D01*
X238511Y1022292D01*
X238296Y1022110D01*
X238075Y1021934D01*
X237851Y1021763D01*
X237622Y1021598D01*
X237389Y1021438D01*
X237152Y1021284D01*
X236912Y1021136D01*
X236668Y1020994D01*
X236421Y1020858D01*
X236171Y1020728D01*
X235917Y1020604D01*
X235660Y1020487D01*
X235401Y1020375D01*
X235139Y1020271D01*
X234874Y1020172D01*
X234607Y1020080D01*
X234338Y1019995D01*
X234067Y1019917D01*
X233794Y1019845D01*
X233520Y1019779D01*
X233244Y1019721D01*
X232966Y1019669D01*
X232687Y1019624D01*
X232408Y1019586D01*
X232127Y1019555D01*
X231846Y1019531D01*
X231564Y1019514D01*
X231282Y1019503D01*
X231000Y1019500D01*
X230718Y1019503D01*
X230436Y1019514D01*
X230154Y1019531D01*
X229873Y1019555D01*
X229592Y1019586D01*
X229313Y1019624D01*
X229034Y1019669D01*
X228756Y1019721D01*
X228480Y1019779D01*
X228206Y1019845D01*
X227933Y1019917D01*
X227662Y1019995D01*
X227393Y1020080D01*
X227126Y1020172D01*
X226861Y1020271D01*
X226599Y1020375D01*
X226340Y1020487D01*
X226083Y1020604D01*
X225829Y1020728D01*
X225579Y1020858D01*
X225332Y1020994D01*
X225088Y1021136D01*
X224848Y1021284D01*
X224611Y1021438D01*
X224378Y1021598D01*
X224149Y1021763D01*
X223925Y1021934D01*
X223704Y1022110D01*
X223489Y1022292D01*
X223277Y1022479D01*
X223070Y1022671D01*
X222868Y1022868D01*
X222671Y1023070D01*
X222479Y1023277D01*
X222292Y1023489D01*
X222110Y1023704D01*
X221934Y1023925D01*
X221763Y1024149D01*
X221598Y1024378D01*
X221438Y1024611D01*
X221284Y1024848D01*
X221136Y1025088D01*
X220994Y1025332D01*
X220858Y1025579D01*
X220728Y1025829D01*
X220604Y1026083D01*
X220487Y1026340D01*
X220375Y1026599D01*
X220271Y1026861D01*
X220172Y1027126D01*
X220080Y1027393D01*
X219995Y1027662D01*
X219917Y1027933D01*
X219845Y1028206D01*
X219779Y1028480D01*
X219721Y1028756D01*
X219669Y1029034D01*
X219624Y1029313D01*
X219586Y1029592D01*
X219555Y1029873D01*
X219531Y1030154D01*
X219514Y1030436D01*
X219503Y1030718D01*
X219500Y1031000D01*
X828396Y783347D02*
X828398Y783509D01*
X828404Y783671D01*
X828414Y783833D01*
X828428Y783994D01*
X828446Y784155D01*
X828467Y784316D01*
X828493Y784476D01*
X828523Y784635D01*
X828556Y784794D01*
X828594Y784952D01*
X828635Y785108D01*
X828680Y785264D01*
X828729Y785419D01*
X828782Y785572D01*
X828839Y785724D01*
X828899Y785874D01*
X828963Y786023D01*
X829030Y786171D01*
X829101Y786316D01*
X829176Y786460D01*
X829254Y786602D01*
X829336Y786742D01*
X829421Y786880D01*
X829509Y787016D01*
X829601Y787150D01*
X829696Y787281D01*
X829794Y787410D01*
X829895Y787537D01*
X829999Y787661D01*
X830107Y787782D01*
X830217Y787901D01*
X830330Y788017D01*
X830446Y788130D01*
X830565Y788240D01*
X830686Y788348D01*
X830810Y788452D01*
X830937Y788553D01*
X831066Y788651D01*
X831197Y788746D01*
X831331Y788838D01*
X831467Y788926D01*
X831605Y789011D01*
X831745Y789093D01*
X831887Y789171D01*
X832031Y789246D01*
X832176Y789317D01*
X832324Y789384D01*
X832473Y789448D01*
X832623Y789508D01*
X832775Y789565D01*
X832928Y789618D01*
X833083Y789667D01*
X833239Y789712D01*
X833395Y789753D01*
X833553Y789791D01*
X833712Y789824D01*
X833871Y789854D01*
X834031Y789880D01*
X834192Y789901D01*
X834353Y789919D01*
X834514Y789933D01*
X834676Y789943D01*
X834838Y789949D01*
X835000Y789951D01*
X835162Y789949D01*
X835324Y789943D01*
X835486Y789933D01*
X835647Y789919D01*
X835808Y789901D01*
X835969Y789880D01*
X836129Y789854D01*
X836288Y789824D01*
X836447Y789791D01*
X836605Y789753D01*
X836761Y789712D01*
X836917Y789667D01*
X837072Y789618D01*
X837225Y789565D01*
X837377Y789508D01*
X837527Y789448D01*
X837676Y789384D01*
X837824Y789317D01*
X837969Y789246D01*
X838113Y789171D01*
X838255Y789093D01*
X838395Y789011D01*
X838533Y788926D01*
X838669Y788838D01*
X838803Y788746D01*
X838934Y788651D01*
X839063Y788553D01*
X839190Y788452D01*
X839314Y788348D01*
X839435Y788240D01*
X839554Y788130D01*
X839670Y788017D01*
X839783Y787901D01*
X839893Y787782D01*
X840001Y787661D01*
X840105Y787537D01*
X840206Y787410D01*
X840304Y787281D01*
X840399Y787150D01*
X840491Y787016D01*
X840579Y786880D01*
X840664Y786742D01*
X840746Y786602D01*
X840824Y786460D01*
X840899Y786316D01*
X840970Y786171D01*
X841037Y786023D01*
X841101Y785874D01*
X841161Y785724D01*
X841218Y785572D01*
X841271Y785419D01*
X841320Y785264D01*
X841365Y785108D01*
X841406Y784952D01*
X841444Y784794D01*
X841477Y784635D01*
X841507Y784476D01*
X841533Y784316D01*
X841554Y784155D01*
X841572Y783994D01*
X841586Y783833D01*
X841596Y783671D01*
X841602Y783509D01*
X841604Y783347D01*
X841602Y783185D01*
X841596Y783023D01*
X841586Y782861D01*
X841572Y782700D01*
X841554Y782539D01*
X841533Y782378D01*
X841507Y782218D01*
X841477Y782059D01*
X841444Y781900D01*
X841406Y781742D01*
X841365Y781586D01*
X841320Y781430D01*
X841271Y781275D01*
X841218Y781122D01*
X841161Y780970D01*
X841101Y780820D01*
X841037Y780671D01*
X840970Y780523D01*
X840899Y780378D01*
X840824Y780234D01*
X840746Y780092D01*
X840664Y779952D01*
X840579Y779814D01*
X840491Y779678D01*
X840399Y779544D01*
X840304Y779413D01*
X840206Y779284D01*
X840105Y779157D01*
X840001Y779033D01*
X839893Y778912D01*
X839783Y778793D01*
X839670Y778677D01*
X839554Y778564D01*
X839435Y778454D01*
X839314Y778346D01*
X839190Y778242D01*
X839063Y778141D01*
X838934Y778043D01*
X838803Y777948D01*
X838669Y777856D01*
X838533Y777768D01*
X838395Y777683D01*
X838255Y777601D01*
X838113Y777523D01*
X837969Y777448D01*
X837824Y777377D01*
X837676Y777310D01*
X837527Y777246D01*
X837377Y777186D01*
X837225Y777129D01*
X837072Y777076D01*
X836917Y777027D01*
X836761Y776982D01*
X836605Y776941D01*
X836447Y776903D01*
X836288Y776870D01*
X836129Y776840D01*
X835969Y776814D01*
X835808Y776793D01*
X835647Y776775D01*
X835486Y776761D01*
X835324Y776751D01*
X835162Y776745D01*
X835000Y776743D01*
X834838Y776745D01*
X834676Y776751D01*
X834514Y776761D01*
X834353Y776775D01*
X834192Y776793D01*
X834031Y776814D01*
X833871Y776840D01*
X833712Y776870D01*
X833553Y776903D01*
X833395Y776941D01*
X833239Y776982D01*
X833083Y777027D01*
X832928Y777076D01*
X832775Y777129D01*
X832623Y777186D01*
X832473Y777246D01*
X832324Y777310D01*
X832176Y777377D01*
X832031Y777448D01*
X831887Y777523D01*
X831745Y777601D01*
X831605Y777683D01*
X831467Y777768D01*
X831331Y777856D01*
X831197Y777948D01*
X831066Y778043D01*
X830937Y778141D01*
X830810Y778242D01*
X830686Y778346D01*
X830565Y778454D01*
X830446Y778564D01*
X830330Y778677D01*
X830217Y778793D01*
X830107Y778912D01*
X829999Y779033D01*
X829895Y779157D01*
X829794Y779284D01*
X829696Y779413D01*
X829601Y779544D01*
X829509Y779678D01*
X829421Y779814D01*
X829336Y779952D01*
X829254Y780092D01*
X829176Y780234D01*
X829101Y780378D01*
X829030Y780523D01*
X828963Y780671D01*
X828899Y780820D01*
X828839Y780970D01*
X828782Y781122D01*
X828729Y781275D01*
X828680Y781430D01*
X828635Y781586D01*
X828594Y781742D01*
X828556Y781900D01*
X828523Y782059D01*
X828493Y782218D01*
X828467Y782378D01*
X828446Y782539D01*
X828428Y782700D01*
X828414Y782861D01*
X828404Y783023D01*
X828398Y783185D01*
X828396Y783347D01*
X797896Y1326907D02*
X797898Y1327069D01*
X797904Y1327231D01*
X797914Y1327393D01*
X797928Y1327554D01*
X797946Y1327715D01*
X797967Y1327876D01*
X797993Y1328036D01*
X798023Y1328195D01*
X798056Y1328354D01*
X798094Y1328512D01*
X798135Y1328668D01*
X798180Y1328824D01*
X798229Y1328979D01*
X798282Y1329132D01*
X798339Y1329284D01*
X798399Y1329434D01*
X798463Y1329583D01*
X798530Y1329731D01*
X798601Y1329876D01*
X798676Y1330020D01*
X798754Y1330162D01*
X798836Y1330302D01*
X798921Y1330440D01*
X799009Y1330576D01*
X799101Y1330710D01*
X799196Y1330841D01*
X799294Y1330970D01*
X799395Y1331097D01*
X799499Y1331221D01*
X799607Y1331342D01*
X799717Y1331461D01*
X799830Y1331577D01*
X799946Y1331690D01*
X800065Y1331800D01*
X800186Y1331908D01*
X800310Y1332012D01*
X800437Y1332113D01*
X800566Y1332211D01*
X800697Y1332306D01*
X800831Y1332398D01*
X800967Y1332486D01*
X801105Y1332571D01*
X801245Y1332653D01*
X801387Y1332731D01*
X801531Y1332806D01*
X801676Y1332877D01*
X801824Y1332944D01*
X801973Y1333008D01*
X802123Y1333068D01*
X802275Y1333125D01*
X802428Y1333178D01*
X802583Y1333227D01*
X802739Y1333272D01*
X802895Y1333313D01*
X803053Y1333351D01*
X803212Y1333384D01*
X803371Y1333414D01*
X803531Y1333440D01*
X803692Y1333461D01*
X803853Y1333479D01*
X804014Y1333493D01*
X804176Y1333503D01*
X804338Y1333509D01*
X804500Y1333511D01*
X804662Y1333509D01*
X804824Y1333503D01*
X804986Y1333493D01*
X805147Y1333479D01*
X805308Y1333461D01*
X805469Y1333440D01*
X805629Y1333414D01*
X805788Y1333384D01*
X805947Y1333351D01*
X806105Y1333313D01*
X806261Y1333272D01*
X806417Y1333227D01*
X806572Y1333178D01*
X806725Y1333125D01*
X806877Y1333068D01*
X807027Y1333008D01*
X807176Y1332944D01*
X807324Y1332877D01*
X807469Y1332806D01*
X807613Y1332731D01*
X807755Y1332653D01*
X807895Y1332571D01*
X808033Y1332486D01*
X808169Y1332398D01*
X808303Y1332306D01*
X808434Y1332211D01*
X808563Y1332113D01*
X808690Y1332012D01*
X808814Y1331908D01*
X808935Y1331800D01*
X809054Y1331690D01*
X809170Y1331577D01*
X809283Y1331461D01*
X809393Y1331342D01*
X809501Y1331221D01*
X809605Y1331097D01*
X809706Y1330970D01*
X809804Y1330841D01*
X809899Y1330710D01*
X809991Y1330576D01*
X810079Y1330440D01*
X810164Y1330302D01*
X810246Y1330162D01*
X810324Y1330020D01*
X810399Y1329876D01*
X810470Y1329731D01*
X810537Y1329583D01*
X810601Y1329434D01*
X810661Y1329284D01*
X810718Y1329132D01*
X810771Y1328979D01*
X810820Y1328824D01*
X810865Y1328668D01*
X810906Y1328512D01*
X810944Y1328354D01*
X810977Y1328195D01*
X811007Y1328036D01*
X811033Y1327876D01*
X811054Y1327715D01*
X811072Y1327554D01*
X811086Y1327393D01*
X811096Y1327231D01*
X811102Y1327069D01*
X811104Y1326907D01*
X811102Y1326745D01*
X811096Y1326583D01*
X811086Y1326421D01*
X811072Y1326260D01*
X811054Y1326099D01*
X811033Y1325938D01*
X811007Y1325778D01*
X810977Y1325619D01*
X810944Y1325460D01*
X810906Y1325302D01*
X810865Y1325146D01*
X810820Y1324990D01*
X810771Y1324835D01*
X810718Y1324682D01*
X810661Y1324530D01*
X810601Y1324380D01*
X810537Y1324231D01*
X810470Y1324083D01*
X810399Y1323938D01*
X810324Y1323794D01*
X810246Y1323652D01*
X810164Y1323512D01*
X810079Y1323374D01*
X809991Y1323238D01*
X809899Y1323104D01*
X809804Y1322973D01*
X809706Y1322844D01*
X809605Y1322717D01*
X809501Y1322593D01*
X809393Y1322472D01*
X809283Y1322353D01*
X809170Y1322237D01*
X809054Y1322124D01*
X808935Y1322014D01*
X808814Y1321906D01*
X808690Y1321802D01*
X808563Y1321701D01*
X808434Y1321603D01*
X808303Y1321508D01*
X808169Y1321416D01*
X808033Y1321328D01*
X807895Y1321243D01*
X807755Y1321161D01*
X807613Y1321083D01*
X807469Y1321008D01*
X807324Y1320937D01*
X807176Y1320870D01*
X807027Y1320806D01*
X806877Y1320746D01*
X806725Y1320689D01*
X806572Y1320636D01*
X806417Y1320587D01*
X806261Y1320542D01*
X806105Y1320501D01*
X805947Y1320463D01*
X805788Y1320430D01*
X805629Y1320400D01*
X805469Y1320374D01*
X805308Y1320353D01*
X805147Y1320335D01*
X804986Y1320321D01*
X804824Y1320311D01*
X804662Y1320305D01*
X804500Y1320303D01*
X804338Y1320305D01*
X804176Y1320311D01*
X804014Y1320321D01*
X803853Y1320335D01*
X803692Y1320353D01*
X803531Y1320374D01*
X803371Y1320400D01*
X803212Y1320430D01*
X803053Y1320463D01*
X802895Y1320501D01*
X802739Y1320542D01*
X802583Y1320587D01*
X802428Y1320636D01*
X802275Y1320689D01*
X802123Y1320746D01*
X801973Y1320806D01*
X801824Y1320870D01*
X801676Y1320937D01*
X801531Y1321008D01*
X801387Y1321083D01*
X801245Y1321161D01*
X801105Y1321243D01*
X800967Y1321328D01*
X800831Y1321416D01*
X800697Y1321508D01*
X800566Y1321603D01*
X800437Y1321701D01*
X800310Y1321802D01*
X800186Y1321906D01*
X800065Y1322014D01*
X799946Y1322124D01*
X799830Y1322237D01*
X799717Y1322353D01*
X799607Y1322472D01*
X799499Y1322593D01*
X799395Y1322717D01*
X799294Y1322844D01*
X799196Y1322973D01*
X799101Y1323104D01*
X799009Y1323238D01*
X798921Y1323374D01*
X798836Y1323512D01*
X798754Y1323652D01*
X798676Y1323794D01*
X798601Y1323938D01*
X798530Y1324083D01*
X798463Y1324231D01*
X798399Y1324380D01*
X798339Y1324530D01*
X798282Y1324682D01*
X798229Y1324835D01*
X798180Y1324990D01*
X798135Y1325146D01*
X798094Y1325302D01*
X798056Y1325460D01*
X798023Y1325619D01*
X797993Y1325778D01*
X797967Y1325938D01*
X797946Y1326099D01*
X797928Y1326260D01*
X797914Y1326421D01*
X797904Y1326583D01*
X797898Y1326745D01*
X797896Y1326907D01*
M02*
