G04 EAGLE Gerber RS-274X export*
G75*
%MOMM*%
%FSLAX34Y34*%
%LPD*%
%INSoldermask Top*%
%IPPOS*%
%AMOC8*
5,1,8,0,0,1.08239X$1,22.5*%
G01*
%ADD10C,1.200000*%
%ADD11R,1.580000X3.280000*%
%ADD12R,1.146800X0.969000*%
%ADD13R,0.842000X0.765800*%
%ADD14R,0.583000X0.436000*%
%ADD15R,1.080000X0.630000*%
%ADD16R,1.299200X0.994400*%
%ADD17R,0.765800X0.842000*%
%ADD18R,0.428000X1.530000*%
%ADD19R,1.299200X1.959600*%
%ADD20R,2.620000X1.096000*%
%ADD21R,2.430000X5.180000*%
%ADD22R,1.045200X1.604000*%
%ADD23R,1.480000X1.080000*%
%ADD24R,1.080000X1.480000*%
%ADD25R,1.959600X1.299200*%
%ADD26C,0.715000*%
%ADD27R,1.731000X2.874000*%
%ADD28R,0.430000X0.680000*%
%ADD29C,4.080000*%
%ADD30R,10.800000X4.250000*%
%ADD31R,10.800000X4.000000*%
%ADD32C,1.880000*%
%ADD33C,2.380000*%
%ADD34R,6.080000X2.880000*%
%ADD35R,3.080000X0.415000*%
%ADD36R,1.741200X0.511800*%
%ADD37R,0.511800X1.741200*%
%ADD38R,0.430000X0.930000*%
%ADD39C,0.710000*%
%ADD40R,0.580000X0.330000*%
%ADD41R,0.580000X0.505000*%
%ADD42R,1.830000X1.580000*%
%ADD43R,1.285000X0.360000*%
%ADD44R,0.380000X0.934800*%
%ADD45R,4.680000X4.680000*%
%ADD46C,3.788400*%
%ADD47C,1.400800*%
%ADD48R,1.555000X0.530000*%
%ADD49R,3.180000X3.180000*%
%ADD50R,0.680000X0.330000*%
%ADD51R,0.330000X0.680000*%
%ADD52R,1.680000X0.380000*%
%ADD53R,1.680000X0.480000*%
%ADD54R,1.650000X1.970000*%
%ADD55R,2.580000X2.580000*%
%ADD56R,0.765800X0.410000*%
%ADD57R,0.410000X0.765800*%
%ADD58R,2.874000X1.731000*%
%ADD59R,0.320000X0.680000*%
%ADD60R,4.180000X4.180000*%
%ADD61R,0.680000X0.320000*%
%ADD62R,1.604000X1.045200*%
%ADD63R,1.140000X1.140000*%
%ADD64C,1.140000*%
%ADD65R,1.180000X0.580000*%
%ADD66R,1.780000X1.280000*%
%ADD67C,0.500000*%


D10*
X-635000Y445000D03*
X-647700Y432300D03*
X-622300Y432300D03*
X-622300Y457700D03*
X-647700Y457700D03*
X-635000Y355000D03*
X-647700Y342300D03*
X-622300Y342300D03*
X-622300Y367700D03*
X-647700Y367700D03*
D11*
X-598000Y363000D03*
X-556000Y363000D03*
X-598000Y439000D03*
X-556000Y439000D03*
D12*
X-377000Y398364D03*
X-377000Y415636D03*
X-358000Y398364D03*
X-358000Y415636D03*
X-339000Y398364D03*
X-339000Y415636D03*
D13*
X-394000Y412334D03*
X-394000Y401666D03*
D14*
X-351505Y380000D03*
X-338495Y385080D03*
X-338495Y374920D03*
D13*
X-322000Y382334D03*
X-322000Y371666D03*
D15*
X-307500Y416500D03*
X-307500Y407000D03*
X-307500Y397500D03*
X-280500Y397500D03*
X-280500Y416500D03*
D13*
X-322000Y412334D03*
X-322000Y401666D03*
X-283000Y371666D03*
X-283000Y382334D03*
X-296000Y382334D03*
X-296000Y371666D03*
D10*
X-635000Y400000D03*
X-647700Y387300D03*
X-622300Y387300D03*
X-622300Y412700D03*
X-647700Y412700D03*
D11*
X-598000Y401000D03*
X-556000Y401000D03*
D12*
X-476000Y398364D03*
X-476000Y415636D03*
X-514000Y398364D03*
X-514000Y415636D03*
X-495000Y398364D03*
X-495000Y415636D03*
D13*
X-533000Y408334D03*
X-533000Y397666D03*
D14*
X-488505Y380000D03*
X-475495Y385080D03*
X-475495Y374920D03*
D13*
X-460000Y384334D03*
X-460000Y373666D03*
D15*
X-444500Y416500D03*
X-444500Y407000D03*
X-444500Y397500D03*
X-417500Y397500D03*
X-417500Y416500D03*
D13*
X-459000Y412334D03*
X-459000Y401666D03*
X-421000Y373666D03*
X-421000Y384334D03*
X-434000Y384334D03*
X-434000Y373666D03*
D16*
X-459000Y362000D03*
X-459000Y326000D03*
D13*
X-443000Y346666D03*
X-443000Y357334D03*
X-430000Y346666D03*
X-430000Y357334D03*
D17*
X-430666Y333000D03*
X-441334Y333000D03*
D18*
X-269730Y423500D03*
X-263230Y423500D03*
X-256730Y423500D03*
X-250230Y423500D03*
X-269730Y364500D03*
X-263230Y364500D03*
X-256730Y364500D03*
X-250230Y364500D03*
D10*
X-635000Y545000D03*
X-647700Y532300D03*
X-622300Y532300D03*
X-622300Y557700D03*
X-647700Y557700D03*
D13*
X-566000Y547334D03*
X-566000Y536666D03*
X-512000Y620334D03*
X-512000Y609666D03*
D19*
X-493510Y617000D03*
X-460490Y617000D03*
D17*
X-380947Y553005D03*
X-391615Y553005D03*
X-382947Y540005D03*
X-393615Y540005D03*
D13*
X-407000Y540334D03*
X-407000Y529666D03*
X-348598Y606263D03*
X-348598Y616931D03*
X-362108Y606263D03*
X-362108Y616931D03*
X-348598Y629123D03*
X-348598Y639791D03*
X-362108Y629123D03*
X-362108Y639791D03*
X-442732Y595847D03*
X-442732Y585179D03*
D20*
X-593000Y557430D03*
X-593000Y534570D03*
D21*
X-465250Y573000D03*
X-506750Y573000D03*
D22*
X-421318Y616263D03*
X-442146Y616263D03*
D23*
X-394000Y374000D03*
X-372000Y383500D03*
X-372000Y364500D03*
X-532000Y374000D03*
X-510000Y383500D03*
X-510000Y364500D03*
D24*
X-521000Y324750D03*
X-530500Y346750D03*
X-511500Y346750D03*
D25*
X-390263Y603008D03*
X-390263Y636028D03*
D13*
X-420513Y595852D03*
X-420513Y585184D03*
D26*
X-164387Y612132D03*
X-151687Y612132D03*
X-126287Y612132D03*
X-113587Y612132D03*
X-126287Y599432D03*
X-113587Y599432D03*
X-164387Y586732D03*
X-151687Y586732D03*
X-138987Y586732D03*
X-126287Y586732D03*
X-113587Y586732D03*
X-164387Y574032D03*
X-151687Y574032D03*
X-138987Y574032D03*
X-126287Y574032D03*
X-113587Y574032D03*
X-164387Y561332D03*
X-151687Y561332D03*
X-138987Y561332D03*
X-126287Y561332D03*
X-113587Y561332D03*
X-164387Y599432D03*
X-151687Y599432D03*
X-138987Y599432D03*
X-138987Y612132D03*
D22*
X-96073Y529982D03*
X-116901Y529982D03*
D13*
X-135987Y644566D03*
X-135987Y633898D03*
D17*
X-101153Y546482D03*
X-111821Y546482D03*
D13*
X-108487Y633898D03*
X-108487Y644566D03*
X-122237Y633898D03*
X-122237Y644566D03*
X-149737Y633898D03*
X-149737Y644566D03*
D27*
X-212970Y614000D03*
X-185030Y614000D03*
X-213457Y560232D03*
X-185517Y560232D03*
D13*
X-309000Y382334D03*
X-309000Y371666D03*
X-447000Y384334D03*
X-447000Y373666D03*
D28*
X-600250Y521000D03*
X-593750Y521000D03*
D29*
X-546000Y590500D03*
X-546000Y25000D03*
D30*
X-599500Y23750D03*
D31*
X-599500Y590500D03*
D32*
X-609000Y125000D03*
X-609000Y265000D03*
D33*
X-584000Y99000D03*
X-584000Y291000D03*
D34*
X-584000Y328000D03*
X-584000Y62000D03*
D35*
X-537000Y115625D03*
X-537000Y128325D03*
X-537000Y141025D03*
X-537000Y153725D03*
X-537000Y166425D03*
X-537000Y179125D03*
X-537000Y191825D03*
X-537000Y204525D03*
X-537000Y217225D03*
X-537000Y229925D03*
X-537000Y242625D03*
X-537000Y255325D03*
X-537000Y268025D03*
X-537000Y121975D03*
X-537000Y134675D03*
X-537000Y147375D03*
X-537000Y160075D03*
X-537000Y172775D03*
X-537000Y185475D03*
X-537000Y198175D03*
X-537000Y210875D03*
X-537000Y223575D03*
X-537000Y236275D03*
X-537000Y248975D03*
X-537000Y261675D03*
X-537000Y274375D03*
D36*
X-427250Y218750D03*
X-427250Y212250D03*
X-427250Y205750D03*
X-427250Y199250D03*
X-427250Y192750D03*
X-427250Y186250D03*
X-427250Y179750D03*
X-427250Y173250D03*
X-427250Y166750D03*
X-427250Y160250D03*
X-427250Y153750D03*
X-427250Y147250D03*
X-427250Y140750D03*
X-427250Y134250D03*
X-427250Y127750D03*
X-427250Y121250D03*
X-427250Y114750D03*
X-427250Y108250D03*
X-427250Y101750D03*
X-427250Y95250D03*
D37*
X-412750Y80750D03*
X-406250Y80750D03*
X-399750Y80750D03*
X-393250Y80750D03*
X-386750Y80750D03*
X-380250Y80750D03*
X-373750Y80750D03*
X-367250Y80750D03*
X-360750Y80750D03*
X-354250Y80750D03*
X-347750Y80750D03*
X-341250Y80750D03*
X-334750Y80750D03*
X-328250Y80750D03*
X-321750Y80750D03*
X-315250Y80750D03*
X-308750Y80750D03*
X-302250Y80750D03*
X-295750Y80750D03*
X-289250Y80750D03*
D36*
X-274750Y95250D03*
X-274750Y101750D03*
X-274750Y108250D03*
X-274750Y114750D03*
X-274750Y121250D03*
X-274750Y127750D03*
X-274750Y134250D03*
X-274750Y140750D03*
X-274750Y147250D03*
X-274750Y153750D03*
X-274750Y160250D03*
X-274750Y166750D03*
X-274750Y173250D03*
X-274750Y179750D03*
X-274750Y186250D03*
X-274750Y192750D03*
X-274750Y199250D03*
X-274750Y205750D03*
X-274750Y212250D03*
X-274750Y218750D03*
D37*
X-289250Y233250D03*
X-295750Y233250D03*
X-302250Y233250D03*
X-308750Y233250D03*
X-315250Y233250D03*
X-321750Y233250D03*
X-328250Y233250D03*
X-334750Y233250D03*
X-341250Y233250D03*
X-347750Y233250D03*
X-354250Y233250D03*
X-360750Y233250D03*
X-367250Y233250D03*
X-373750Y233250D03*
X-380250Y233250D03*
X-386750Y233250D03*
X-393250Y233250D03*
X-399750Y233250D03*
X-406250Y233250D03*
X-412750Y233250D03*
D38*
X-483000Y358000D03*
X-476500Y358000D03*
X-489500Y358000D03*
X-483000Y340000D03*
X-476500Y340000D03*
X-489500Y340000D03*
D39*
X-95500Y150100D03*
X-95500Y137400D03*
X-95500Y124700D03*
X-95500Y112000D03*
X-95500Y99300D03*
X-95500Y86600D03*
X-95500Y73900D03*
X-108200Y150100D03*
X-120900Y150100D03*
X-133600Y150100D03*
X-146300Y150100D03*
X-159000Y150100D03*
X-171700Y150100D03*
X-197100Y150100D03*
X-209800Y150100D03*
X-222500Y150100D03*
X-108200Y137400D03*
X-120900Y137400D03*
X-133600Y137400D03*
X-146300Y137400D03*
X-159000Y137400D03*
X-171700Y137400D03*
X-197100Y137400D03*
X-209800Y137400D03*
X-222500Y137400D03*
X-108200Y124700D03*
X-120900Y124700D03*
X-133600Y124700D03*
X-146300Y124700D03*
X-159000Y124700D03*
X-171700Y124700D03*
X-197100Y124700D03*
X-209800Y124700D03*
X-222500Y124700D03*
X-108200Y112000D03*
X-120900Y112000D03*
X-133600Y112000D03*
X-146300Y112000D03*
X-159000Y112000D03*
X-171700Y112000D03*
X-108200Y99300D03*
X-120900Y99300D03*
X-133600Y99300D03*
X-146300Y99300D03*
X-159000Y99300D03*
X-171700Y99300D03*
X-184400Y99300D03*
X-197100Y99300D03*
X-209800Y99300D03*
X-222500Y99300D03*
X-108200Y86600D03*
X-120900Y86600D03*
X-133600Y86600D03*
X-146300Y86600D03*
X-159000Y86600D03*
X-171700Y86600D03*
X-184400Y86600D03*
X-197100Y86600D03*
X-209800Y86600D03*
X-222500Y86600D03*
X-108200Y73900D03*
X-120900Y73900D03*
X-133600Y73900D03*
X-146300Y73900D03*
X-159000Y73900D03*
X-171700Y73900D03*
X-184400Y150100D03*
X-184400Y137400D03*
X-184400Y124700D03*
X-184400Y112000D03*
X-184400Y73900D03*
X-197100Y112000D03*
X-209800Y112000D03*
X-222500Y112000D03*
X-222500Y73900D03*
X-209800Y73900D03*
X-197100Y73900D03*
D27*
X-135970Y188000D03*
X-108030Y188000D03*
X-188030Y189000D03*
X-215970Y189000D03*
D17*
X-107666Y164000D03*
X-118334Y164000D03*
X-185666Y164000D03*
X-196334Y164000D03*
D25*
X-68000Y90490D03*
X-68000Y123510D03*
X-249000Y94490D03*
X-249000Y127510D03*
D13*
X-356000Y495334D03*
X-356000Y484666D03*
X-369000Y495334D03*
X-369000Y484666D03*
X-72000Y543334D03*
X-72000Y532666D03*
X-77000Y199334D03*
X-77000Y188666D03*
D22*
X-136414Y231000D03*
X-115586Y231000D03*
D17*
X-134666Y249000D03*
X-145334Y249000D03*
X-119334Y305000D03*
X-108666Y305000D03*
X-142334Y305000D03*
X-131666Y305000D03*
D22*
X-131414Y323000D03*
X-110586Y323000D03*
D13*
X-90000Y199334D03*
X-90000Y188666D03*
X-170000Y200334D03*
X-170000Y189666D03*
D40*
X-449500Y72500D03*
X-449500Y67500D03*
X-449500Y62500D03*
D41*
X-449500Y56625D03*
D40*
X-449500Y87500D03*
X-449500Y82500D03*
X-449500Y77500D03*
D41*
X-449500Y93375D03*
D40*
X-464500Y77500D03*
X-464500Y82500D03*
X-464500Y87500D03*
D41*
X-464500Y93375D03*
D40*
X-464500Y62500D03*
X-464500Y67500D03*
X-464500Y72500D03*
D41*
X-464500Y56625D03*
D40*
X-449500Y123500D03*
X-449500Y118500D03*
X-449500Y113500D03*
D41*
X-449500Y107625D03*
D40*
X-449500Y138500D03*
X-449500Y133500D03*
X-449500Y128500D03*
D41*
X-449500Y144375D03*
D40*
X-464500Y128500D03*
X-464500Y133500D03*
X-464500Y138500D03*
D41*
X-464500Y144375D03*
D40*
X-464500Y113500D03*
X-464500Y118500D03*
X-464500Y123500D03*
D41*
X-464500Y107625D03*
D40*
X-449500Y236500D03*
X-449500Y231500D03*
X-449500Y226500D03*
D41*
X-449500Y220625D03*
D40*
X-449500Y251500D03*
X-449500Y246500D03*
X-449500Y241500D03*
D41*
X-449500Y257375D03*
D40*
X-464500Y241500D03*
X-464500Y246500D03*
X-464500Y251500D03*
D41*
X-464500Y257375D03*
D40*
X-464500Y226500D03*
X-464500Y231500D03*
X-464500Y236500D03*
D41*
X-464500Y220625D03*
D40*
X-449500Y186500D03*
X-449500Y181500D03*
X-449500Y176500D03*
D41*
X-449500Y170625D03*
D40*
X-449500Y201500D03*
X-449500Y196500D03*
X-449500Y191500D03*
D41*
X-449500Y207375D03*
D40*
X-464500Y191500D03*
X-464500Y196500D03*
X-464500Y201500D03*
D41*
X-464500Y207375D03*
D40*
X-464500Y176500D03*
X-464500Y181500D03*
X-464500Y186500D03*
D41*
X-464500Y170625D03*
D42*
X-131000Y276000D03*
D43*
X-145500Y272750D03*
X-145500Y279250D03*
X-116500Y279250D03*
X-116500Y272750D03*
D38*
X-121250Y290750D03*
X-127750Y290750D03*
X-134250Y290750D03*
X-140750Y290750D03*
X-140750Y261250D03*
X-134250Y261250D03*
X-127750Y261250D03*
X-121250Y261250D03*
D22*
X-191414Y234000D03*
X-170586Y234000D03*
D17*
X-189666Y252000D03*
X-200334Y252000D03*
X-174334Y308000D03*
X-163666Y308000D03*
X-197334Y308000D03*
X-186666Y308000D03*
D22*
X-186414Y326000D03*
X-165586Y326000D03*
D42*
X-186000Y279000D03*
D43*
X-200500Y275750D03*
X-200500Y282250D03*
X-171500Y282250D03*
X-171500Y275750D03*
D38*
X-176250Y293750D03*
X-182750Y293750D03*
X-189250Y293750D03*
X-195750Y293750D03*
X-195750Y264250D03*
X-189250Y264250D03*
X-182750Y264250D03*
X-176250Y264250D03*
D17*
G36*
X-338088Y344959D02*
X-343503Y339544D01*
X-349456Y345497D01*
X-344041Y350912D01*
X-338088Y344959D01*
G37*
G36*
X-330544Y352503D02*
X-335959Y347088D01*
X-341912Y353041D01*
X-336497Y358456D01*
X-330544Y352503D01*
G37*
D22*
X-216586Y234000D03*
X-237414Y234000D03*
D17*
X-245666Y252000D03*
X-256334Y252000D03*
X-230334Y308000D03*
X-219666Y308000D03*
X-253334Y308000D03*
X-242666Y308000D03*
D22*
X-210586Y326000D03*
X-231414Y326000D03*
D42*
X-242000Y279000D03*
D43*
X-256500Y275750D03*
X-256500Y282250D03*
X-227500Y282250D03*
X-227500Y275750D03*
D38*
X-232250Y293750D03*
X-238750Y293750D03*
X-245250Y293750D03*
X-251750Y293750D03*
X-251750Y264250D03*
X-245250Y264250D03*
X-238750Y264250D03*
X-232250Y264250D03*
D17*
G36*
X-329088Y335959D02*
X-334503Y330544D01*
X-340456Y336497D01*
X-335041Y341912D01*
X-329088Y335959D01*
G37*
G36*
X-321544Y343503D02*
X-326959Y338088D01*
X-332912Y344041D01*
X-327497Y349456D01*
X-321544Y343503D01*
G37*
G36*
X-384912Y336041D02*
X-379497Y341456D01*
X-373544Y335503D01*
X-378959Y330088D01*
X-384912Y336041D01*
G37*
G36*
X-392456Y328497D02*
X-387041Y333912D01*
X-381088Y327959D01*
X-386503Y322544D01*
X-392456Y328497D01*
G37*
G36*
X-397088Y311959D02*
X-402503Y306544D01*
X-408456Y312497D01*
X-403041Y317912D01*
X-397088Y311959D01*
G37*
G36*
X-389544Y319503D02*
X-394959Y314088D01*
X-400912Y320041D01*
X-395497Y325456D01*
X-389544Y319503D01*
G37*
D44*
G36*
X-346562Y261429D02*
X-349249Y258742D01*
X-355858Y265351D01*
X-353171Y268038D01*
X-346562Y261429D01*
G37*
G36*
X-343027Y264965D02*
X-345714Y262278D01*
X-352323Y268887D01*
X-349636Y271574D01*
X-343027Y264965D01*
G37*
G36*
X-339491Y268500D02*
X-342178Y265813D01*
X-348787Y272422D01*
X-346100Y275109D01*
X-339491Y268500D01*
G37*
G36*
X-335955Y272036D02*
X-338642Y269349D01*
X-345251Y275958D01*
X-342564Y278645D01*
X-335955Y272036D01*
G37*
G36*
X-332420Y275571D02*
X-335107Y272884D01*
X-341716Y279493D01*
X-339029Y282180D01*
X-332420Y275571D01*
G37*
G36*
X-328884Y279107D02*
X-331571Y276420D01*
X-338180Y283029D01*
X-335493Y285716D01*
X-328884Y279107D01*
G37*
G36*
X-325349Y282642D02*
X-328036Y279955D01*
X-334645Y286564D01*
X-331958Y289251D01*
X-325349Y282642D01*
G37*
G36*
X-321813Y286178D02*
X-324500Y283491D01*
X-331109Y290100D01*
X-328422Y292787D01*
X-321813Y286178D01*
G37*
G36*
X-318278Y289714D02*
X-320965Y287027D01*
X-327574Y293636D01*
X-324887Y296323D01*
X-318278Y289714D01*
G37*
G36*
X-314742Y293249D02*
X-317429Y290562D01*
X-324038Y297171D01*
X-321351Y299858D01*
X-314742Y293249D01*
G37*
G36*
X-321351Y300142D02*
X-324038Y302829D01*
X-317429Y309438D01*
X-314742Y306751D01*
X-321351Y300142D01*
G37*
G36*
X-324887Y303677D02*
X-327574Y306364D01*
X-320965Y312973D01*
X-318278Y310286D01*
X-324887Y303677D01*
G37*
G36*
X-328422Y307213D02*
X-331109Y309900D01*
X-324500Y316509D01*
X-321813Y313822D01*
X-328422Y307213D01*
G37*
G36*
X-331958Y310749D02*
X-334645Y313436D01*
X-328036Y320045D01*
X-325349Y317358D01*
X-331958Y310749D01*
G37*
G36*
X-335493Y314284D02*
X-338180Y316971D01*
X-331571Y323580D01*
X-328884Y320893D01*
X-335493Y314284D01*
G37*
G36*
X-339029Y317820D02*
X-341716Y320507D01*
X-335107Y327116D01*
X-332420Y324429D01*
X-339029Y317820D01*
G37*
G36*
X-342564Y321355D02*
X-345251Y324042D01*
X-338642Y330651D01*
X-335955Y327964D01*
X-342564Y321355D01*
G37*
G36*
X-346100Y324891D02*
X-348787Y327578D01*
X-342178Y334187D01*
X-339491Y331500D01*
X-346100Y324891D01*
G37*
G36*
X-349636Y328426D02*
X-352323Y331113D01*
X-345714Y337722D01*
X-343027Y335035D01*
X-349636Y328426D01*
G37*
G36*
X-353171Y331962D02*
X-355858Y334649D01*
X-349249Y341258D01*
X-346562Y338571D01*
X-353171Y331962D01*
G37*
G36*
X-356142Y334649D02*
X-358829Y331962D01*
X-365438Y338571D01*
X-362751Y341258D01*
X-356142Y334649D01*
G37*
G36*
X-359677Y331113D02*
X-362364Y328426D01*
X-368973Y335035D01*
X-366286Y337722D01*
X-359677Y331113D01*
G37*
G36*
X-363213Y327578D02*
X-365900Y324891D01*
X-372509Y331500D01*
X-369822Y334187D01*
X-363213Y327578D01*
G37*
G36*
X-366749Y324042D02*
X-369436Y321355D01*
X-376045Y327964D01*
X-373358Y330651D01*
X-366749Y324042D01*
G37*
G36*
X-370284Y320507D02*
X-372971Y317820D01*
X-379580Y324429D01*
X-376893Y327116D01*
X-370284Y320507D01*
G37*
G36*
X-373820Y316971D02*
X-376507Y314284D01*
X-383116Y320893D01*
X-380429Y323580D01*
X-373820Y316971D01*
G37*
G36*
X-377355Y313436D02*
X-380042Y310749D01*
X-386651Y317358D01*
X-383964Y320045D01*
X-377355Y313436D01*
G37*
G36*
X-380891Y309900D02*
X-383578Y307213D01*
X-390187Y313822D01*
X-387500Y316509D01*
X-380891Y309900D01*
G37*
G36*
X-384426Y306364D02*
X-387113Y303677D01*
X-393722Y310286D01*
X-391035Y312973D01*
X-384426Y306364D01*
G37*
G36*
X-387962Y302829D02*
X-390649Y300142D01*
X-397258Y306751D01*
X-394571Y309438D01*
X-387962Y302829D01*
G37*
G36*
X-394571Y290562D02*
X-397258Y293249D01*
X-390649Y299858D01*
X-387962Y297171D01*
X-394571Y290562D01*
G37*
G36*
X-391035Y287027D02*
X-393722Y289714D01*
X-387113Y296323D01*
X-384426Y293636D01*
X-391035Y287027D01*
G37*
G36*
X-387500Y283491D02*
X-390187Y286178D01*
X-383578Y292787D01*
X-380891Y290100D01*
X-387500Y283491D01*
G37*
G36*
X-383964Y279955D02*
X-386651Y282642D01*
X-380042Y289251D01*
X-377355Y286564D01*
X-383964Y279955D01*
G37*
G36*
X-380429Y276420D02*
X-383116Y279107D01*
X-376507Y285716D01*
X-373820Y283029D01*
X-380429Y276420D01*
G37*
G36*
X-376893Y272884D02*
X-379580Y275571D01*
X-372971Y282180D01*
X-370284Y279493D01*
X-376893Y272884D01*
G37*
G36*
X-373358Y269349D02*
X-376045Y272036D01*
X-369436Y278645D01*
X-366749Y275958D01*
X-373358Y269349D01*
G37*
G36*
X-369822Y265813D02*
X-372509Y268500D01*
X-365900Y275109D01*
X-363213Y272422D01*
X-369822Y265813D01*
G37*
G36*
X-366286Y262278D02*
X-368973Y264965D01*
X-362364Y271574D01*
X-359677Y268887D01*
X-366286Y262278D01*
G37*
G36*
X-362751Y258742D02*
X-365438Y261429D01*
X-358829Y268038D01*
X-356142Y265351D01*
X-362751Y258742D01*
G37*
D45*
G36*
X-356000Y333092D02*
X-322908Y300000D01*
X-356000Y266908D01*
X-389092Y300000D01*
X-356000Y333092D01*
G37*
D46*
X-320Y629960D03*
X-320Y40D03*
D26*
X-11750Y67350D03*
X950Y67350D03*
X39050Y67350D03*
X51750Y67350D03*
D47*
X20000Y43347D03*
X-10500Y586907D03*
D26*
X13650Y67350D03*
X26350Y67350D03*
X64450Y67350D03*
X77150Y67350D03*
X-24450Y67350D03*
X-37150Y67350D03*
X-11750Y80050D03*
X950Y80050D03*
X39050Y80050D03*
X51750Y80050D03*
X13650Y80050D03*
X26350Y80050D03*
X64450Y80050D03*
X77150Y80050D03*
X-24450Y80050D03*
X-37150Y80050D03*
X-11750Y92750D03*
X950Y92750D03*
X39050Y92750D03*
X51750Y92750D03*
X13650Y92750D03*
X26350Y92750D03*
X64450Y92750D03*
X77150Y92750D03*
X-24450Y92750D03*
X-37150Y92750D03*
X-11750Y105450D03*
X950Y105450D03*
X39050Y105450D03*
X51750Y105450D03*
X13650Y105450D03*
X26350Y105450D03*
X64450Y105450D03*
X77150Y105450D03*
X-24450Y105450D03*
X-37150Y105450D03*
X-11750Y118150D03*
X950Y118150D03*
X39050Y118150D03*
X51750Y118150D03*
X13650Y118150D03*
X26350Y118150D03*
X64450Y118150D03*
X77150Y118150D03*
X-24450Y118150D03*
X-37150Y118150D03*
X-11750Y130850D03*
X950Y130850D03*
X39050Y130850D03*
X51750Y130850D03*
X13650Y130850D03*
X26350Y130850D03*
X64450Y130850D03*
X77150Y130850D03*
X-24450Y130850D03*
X-37150Y130850D03*
X-11750Y143550D03*
X950Y143550D03*
X39050Y143550D03*
X51750Y143550D03*
X13650Y143550D03*
X26350Y143550D03*
X64450Y143550D03*
X77150Y143550D03*
X-24450Y143550D03*
X-37150Y143550D03*
X-11750Y156250D03*
X950Y156250D03*
X39050Y156250D03*
X51750Y156250D03*
X13650Y156250D03*
X26350Y156250D03*
X64450Y156250D03*
X77150Y156250D03*
X-24450Y156250D03*
X-37150Y156250D03*
X-11750Y168950D03*
X950Y168950D03*
X39050Y168950D03*
X51750Y168950D03*
X13650Y168950D03*
X26350Y168950D03*
X64450Y168950D03*
X77150Y168950D03*
X-24450Y168950D03*
X-37150Y168950D03*
X-11750Y181650D03*
X950Y181650D03*
X39050Y181650D03*
X51750Y181650D03*
X13650Y181650D03*
X26350Y181650D03*
X64450Y181650D03*
X77150Y181650D03*
X-24450Y181650D03*
X-37150Y181650D03*
X-11750Y194350D03*
X950Y194350D03*
X39050Y194350D03*
X51750Y194350D03*
X13650Y194350D03*
X26350Y194350D03*
X64450Y194350D03*
X77150Y194350D03*
X-24450Y194350D03*
X-37150Y194350D03*
X-11750Y207050D03*
X950Y207050D03*
X39050Y207050D03*
X51750Y207050D03*
X13650Y207050D03*
X26350Y207050D03*
X64450Y207050D03*
X77150Y207050D03*
X-24450Y207050D03*
X-37150Y207050D03*
X-11750Y219750D03*
X950Y219750D03*
X39050Y219750D03*
X51750Y219750D03*
X13650Y219750D03*
X26350Y219750D03*
X64450Y219750D03*
X77150Y219750D03*
X-24450Y219750D03*
X-37150Y219750D03*
X-11750Y232450D03*
X950Y232450D03*
X39050Y232450D03*
X51750Y232450D03*
X13650Y232450D03*
X26350Y232450D03*
X64450Y232450D03*
X77150Y232450D03*
X-24450Y232450D03*
X-37150Y232450D03*
X-11750Y245150D03*
X950Y245150D03*
X39050Y245150D03*
X51750Y245150D03*
X13650Y245150D03*
X26350Y245150D03*
X64450Y245150D03*
X77150Y245150D03*
X-24450Y245150D03*
X-37150Y245150D03*
X-11750Y257850D03*
X950Y257850D03*
X39050Y257850D03*
X51750Y257850D03*
X13650Y257850D03*
X26350Y257850D03*
X64450Y257850D03*
X77150Y257850D03*
X-24450Y257850D03*
X-37150Y257850D03*
X-11750Y270550D03*
X950Y270550D03*
X39050Y270550D03*
X51750Y270550D03*
X13650Y270550D03*
X26350Y270550D03*
X64450Y270550D03*
X77150Y270550D03*
X-24450Y270550D03*
X-37150Y270550D03*
X-11750Y283250D03*
X950Y283250D03*
X39050Y283250D03*
X51750Y283250D03*
X13650Y283250D03*
X26350Y283250D03*
X64450Y283250D03*
X77150Y283250D03*
X-24450Y283250D03*
X-37150Y283250D03*
X-11750Y295950D03*
X950Y295950D03*
X39050Y295950D03*
X51750Y295950D03*
X13650Y295950D03*
X26350Y295950D03*
X64450Y295950D03*
X77150Y295950D03*
X-24450Y295950D03*
X-37150Y295950D03*
X-11750Y308650D03*
X950Y308650D03*
X39050Y308650D03*
X51750Y308650D03*
X13650Y308650D03*
X26350Y308650D03*
X64450Y308650D03*
X77150Y308650D03*
X-24450Y308650D03*
X-37150Y308650D03*
X-11750Y321350D03*
X950Y321350D03*
X39050Y321350D03*
X51750Y321350D03*
X13650Y321350D03*
X26350Y321350D03*
X64450Y321350D03*
X77150Y321350D03*
X-24450Y321350D03*
X-37150Y321350D03*
X-11750Y334050D03*
X950Y334050D03*
X39050Y334050D03*
X51750Y334050D03*
X13650Y334050D03*
X26350Y334050D03*
X64450Y334050D03*
X77150Y334050D03*
X-24450Y334050D03*
X-37150Y334050D03*
X-11750Y346750D03*
X950Y346750D03*
X39050Y346750D03*
X51750Y346750D03*
X13650Y346750D03*
X26350Y346750D03*
X64450Y346750D03*
X77150Y346750D03*
X-24450Y346750D03*
X-37150Y346750D03*
X-11750Y359450D03*
X950Y359450D03*
X39050Y359450D03*
X51750Y359450D03*
X13650Y359450D03*
X26350Y359450D03*
X64450Y359450D03*
X77150Y359450D03*
X-24450Y359450D03*
X-37150Y359450D03*
X-11750Y372150D03*
X950Y372150D03*
X39050Y372150D03*
X51750Y372150D03*
X13650Y372150D03*
X26350Y372150D03*
X64450Y372150D03*
X77150Y372150D03*
X-24450Y372150D03*
X-37150Y372150D03*
X-11750Y384850D03*
X950Y384850D03*
X39050Y384850D03*
X51750Y384850D03*
X13650Y384850D03*
X26350Y384850D03*
X64450Y384850D03*
X77150Y384850D03*
X-24450Y384850D03*
X-37150Y384850D03*
X-11750Y397550D03*
X950Y397550D03*
X39050Y397550D03*
X51750Y397550D03*
X13650Y397550D03*
X26350Y397550D03*
X64450Y397550D03*
X77150Y397550D03*
X-24450Y397550D03*
X-37150Y397550D03*
X-11750Y410250D03*
X950Y410250D03*
X39050Y410250D03*
X51750Y410250D03*
X13650Y410250D03*
X26350Y410250D03*
X64450Y410250D03*
X77150Y410250D03*
X-24450Y410250D03*
X-37150Y410250D03*
X-11750Y422950D03*
X950Y422950D03*
X39050Y422950D03*
X51750Y422950D03*
X13650Y422950D03*
X26350Y422950D03*
X64450Y422950D03*
X77150Y422950D03*
X-24450Y422950D03*
X-37150Y422950D03*
X-11750Y435650D03*
X950Y435650D03*
X39050Y435650D03*
X51750Y435650D03*
X13650Y435650D03*
X26350Y435650D03*
X64450Y435650D03*
X77150Y435650D03*
X-24450Y435650D03*
X-37150Y435650D03*
X-11750Y448350D03*
X950Y448350D03*
X39050Y448350D03*
X51750Y448350D03*
X13650Y448350D03*
X26350Y448350D03*
X64450Y448350D03*
X77150Y448350D03*
X-24450Y448350D03*
X-37150Y448350D03*
X-11750Y461050D03*
X950Y461050D03*
X39050Y461050D03*
X51750Y461050D03*
X13650Y461050D03*
X26350Y461050D03*
X64450Y461050D03*
X77150Y461050D03*
X-24450Y461050D03*
X-37150Y461050D03*
X-11750Y473750D03*
X950Y473750D03*
X39050Y473750D03*
X51750Y473750D03*
X13650Y473750D03*
X26350Y473750D03*
X64450Y473750D03*
X77150Y473750D03*
X-24450Y473750D03*
X-37150Y473750D03*
X-11750Y486450D03*
X950Y486450D03*
X39050Y486450D03*
X51750Y486450D03*
X13650Y486450D03*
X26350Y486450D03*
X64450Y486450D03*
X77150Y486450D03*
X-24450Y486450D03*
X-37150Y486450D03*
X-11750Y499150D03*
X950Y499150D03*
X39050Y499150D03*
X51750Y499150D03*
X13650Y499150D03*
X26350Y499150D03*
X64450Y499150D03*
X77150Y499150D03*
X-24450Y499150D03*
X-37150Y499150D03*
X-11750Y511850D03*
X950Y511850D03*
X39050Y511850D03*
X51750Y511850D03*
X13650Y511850D03*
X26350Y511850D03*
X64450Y511850D03*
X77150Y511850D03*
X-24450Y511850D03*
X-37150Y511850D03*
X-11750Y524550D03*
X950Y524550D03*
X39050Y524550D03*
X51750Y524550D03*
X13650Y524550D03*
X26350Y524550D03*
X64450Y524550D03*
X77150Y524550D03*
X-24450Y524550D03*
X-37150Y524550D03*
X-11750Y537250D03*
X950Y537250D03*
X39050Y537250D03*
X51750Y537250D03*
X13650Y537250D03*
X26350Y537250D03*
X64450Y537250D03*
X77150Y537250D03*
X-24450Y537250D03*
X-37150Y537250D03*
X-11750Y549950D03*
X950Y549950D03*
X39050Y549950D03*
X51750Y549950D03*
X13650Y549950D03*
X26350Y549950D03*
X64450Y549950D03*
X77150Y549950D03*
X-24450Y549950D03*
X-37150Y549950D03*
X-11750Y562650D03*
X950Y562650D03*
X39050Y562650D03*
X51750Y562650D03*
X13650Y562650D03*
X26350Y562650D03*
X64450Y562650D03*
X77150Y562650D03*
X-24450Y562650D03*
X-37150Y562650D03*
D48*
X-32000Y653750D03*
X-32000Y647250D03*
X-32000Y640750D03*
X-32000Y634250D03*
X-32000Y627750D03*
X-32000Y621250D03*
X-32000Y614750D03*
X-32000Y608250D03*
X-92000Y653750D03*
X-92000Y647250D03*
X-92000Y640750D03*
X-92000Y634250D03*
X-92000Y627750D03*
X-92000Y621250D03*
X-92000Y614750D03*
X-92000Y608250D03*
D13*
X-72000Y566666D03*
X-72000Y577334D03*
D10*
X-635000Y495000D03*
X-647700Y482300D03*
X-622300Y482300D03*
X-622300Y507700D03*
X-647700Y507700D03*
D13*
X-565000Y486334D03*
X-565000Y475666D03*
D17*
X-548666Y507000D03*
X-559334Y507000D03*
D25*
X-458000Y475490D03*
X-458000Y508510D03*
D17*
X-184166Y424000D03*
X-194834Y424000D03*
X-179666Y411000D03*
X-190334Y411000D03*
X-202666Y411000D03*
X-213334Y411000D03*
D13*
X-152000Y477666D03*
X-152000Y488334D03*
X-165000Y477666D03*
X-165000Y488334D03*
X-152000Y499666D03*
X-152000Y510334D03*
X-165000Y499666D03*
X-165000Y510334D03*
X-437000Y500666D03*
X-437000Y511334D03*
D20*
X-592000Y503430D03*
X-592000Y480570D03*
D21*
X-484250Y494000D03*
X-525750Y494000D03*
D22*
X-416586Y477000D03*
X-437414Y477000D03*
D19*
X-420510Y504000D03*
X-387490Y504000D03*
D28*
X-598250Y467000D03*
X-591750Y467000D03*
D13*
X-153000Y368334D03*
X-153000Y357666D03*
X-167000Y368334D03*
X-167000Y357666D03*
D49*
X-86800Y15600D03*
D50*
X-62800Y-1900D03*
X-62800Y3100D03*
X-62800Y8100D03*
X-62800Y13100D03*
X-62800Y18100D03*
X-62800Y23100D03*
X-62800Y28100D03*
X-62800Y33100D03*
D51*
X-69300Y39600D03*
X-74300Y39600D03*
X-79300Y39600D03*
X-84300Y39600D03*
X-89300Y39600D03*
X-94300Y39600D03*
X-99300Y39600D03*
X-104300Y39600D03*
D50*
X-110800Y33100D03*
X-110800Y28100D03*
X-110800Y23100D03*
X-110800Y18100D03*
X-110800Y13100D03*
X-110800Y8100D03*
X-110800Y3100D03*
X-110800Y-1900D03*
D51*
X-104300Y-8400D03*
X-99300Y-8400D03*
X-94300Y-8400D03*
X-89300Y-8400D03*
X-84300Y-8400D03*
X-79300Y-8400D03*
X-74300Y-8400D03*
X-69300Y-8400D03*
D17*
X-72166Y-18200D03*
X-82834Y-18200D03*
X-92734Y54200D03*
X-82066Y54200D03*
D52*
X-287000Y23750D03*
X-287000Y17250D03*
X-287000Y10750D03*
X-287000Y4250D03*
X-287000Y-2250D03*
X-287000Y-8750D03*
X-287000Y-15250D03*
X-287000Y-21750D03*
X-343000Y23750D03*
X-343000Y17250D03*
X-343000Y10750D03*
X-343000Y4250D03*
X-343000Y-2250D03*
X-343000Y-8750D03*
X-343000Y-15250D03*
X-343000Y-21750D03*
D53*
X-275000Y48750D03*
X-275000Y42250D03*
X-275000Y55250D03*
X-275000Y61750D03*
X-317000Y61750D03*
X-317000Y55250D03*
X-317000Y48750D03*
X-317000Y42250D03*
D54*
X-296000Y52000D03*
D55*
X-493000Y259000D03*
D56*
X-512254Y268750D03*
X-512254Y262250D03*
X-512254Y255750D03*
X-512254Y249250D03*
D57*
X-502750Y239746D03*
X-496250Y239746D03*
X-489750Y239746D03*
X-483250Y239746D03*
D56*
X-473746Y249250D03*
X-473746Y255750D03*
X-473746Y262250D03*
X-473746Y268750D03*
D57*
X-483250Y278254D03*
X-489750Y278254D03*
X-496250Y278254D03*
X-502750Y278254D03*
D55*
X-493000Y190000D03*
D56*
X-512254Y199750D03*
X-512254Y193250D03*
X-512254Y186750D03*
X-512254Y180250D03*
D57*
X-502750Y170746D03*
X-496250Y170746D03*
X-489750Y170746D03*
X-483250Y170746D03*
D56*
X-473746Y180250D03*
X-473746Y186750D03*
X-473746Y193250D03*
X-473746Y199750D03*
D57*
X-483250Y209254D03*
X-489750Y209254D03*
X-496250Y209254D03*
X-502750Y209254D03*
D55*
X-494000Y122000D03*
D56*
X-513254Y131750D03*
X-513254Y125250D03*
X-513254Y118750D03*
X-513254Y112250D03*
D57*
X-503750Y102746D03*
X-497250Y102746D03*
X-490750Y102746D03*
X-484250Y102746D03*
D56*
X-474746Y112250D03*
X-474746Y118750D03*
X-474746Y125250D03*
X-474746Y131750D03*
D57*
X-484250Y141254D03*
X-490750Y141254D03*
X-497250Y141254D03*
X-503750Y141254D03*
D17*
X-202334Y369000D03*
X-191666Y369000D03*
X-202334Y383000D03*
X-191666Y383000D03*
X-259334Y477000D03*
X-248666Y477000D03*
X-259334Y464000D03*
X-248666Y464000D03*
D27*
X-226970Y521500D03*
X-199030Y521500D03*
D58*
X-243000Y610030D03*
X-243000Y637970D03*
D59*
X-353500Y509000D03*
D60*
X-326000Y543000D03*
D59*
X-348500Y509000D03*
X-343500Y509000D03*
X-338500Y509000D03*
X-333500Y509000D03*
X-328500Y509000D03*
X-323500Y509000D03*
X-318500Y509000D03*
X-313500Y509000D03*
X-308500Y509000D03*
X-303500Y509000D03*
X-298500Y509000D03*
D61*
X-292000Y515500D03*
X-292000Y520500D03*
X-292000Y525500D03*
X-292000Y530500D03*
X-292000Y535500D03*
X-292000Y540500D03*
X-292000Y545500D03*
X-292000Y550500D03*
X-292000Y555500D03*
X-292000Y560500D03*
X-292000Y565500D03*
X-292000Y570500D03*
D59*
X-298500Y577000D03*
X-303500Y577000D03*
X-308500Y577000D03*
X-313500Y577000D03*
X-318500Y577000D03*
X-323500Y577000D03*
X-328500Y577000D03*
X-333500Y577000D03*
X-338500Y577000D03*
X-343500Y577000D03*
X-348500Y577000D03*
X-353500Y577000D03*
D61*
X-360000Y570500D03*
X-360000Y565500D03*
X-360000Y560500D03*
X-360000Y555500D03*
X-360000Y550500D03*
X-360000Y545500D03*
X-360000Y540500D03*
X-360000Y535500D03*
X-360000Y530500D03*
X-360000Y525500D03*
X-360000Y520500D03*
X-360000Y515500D03*
D17*
X-356334Y590000D03*
X-345666Y590000D03*
D25*
X-302500Y638510D03*
X-302500Y605490D03*
D62*
X-328000Y616914D03*
X-328000Y596086D03*
D59*
X-159500Y381500D03*
D60*
X-132000Y415500D03*
D59*
X-154500Y381500D03*
X-149500Y381500D03*
X-144500Y381500D03*
X-139500Y381500D03*
X-134500Y381500D03*
X-129500Y381500D03*
X-124500Y381500D03*
X-119500Y381500D03*
X-114500Y381500D03*
X-109500Y381500D03*
X-104500Y381500D03*
D61*
X-98000Y388000D03*
X-98000Y393000D03*
X-98000Y398000D03*
X-98000Y403000D03*
X-98000Y408000D03*
X-98000Y413000D03*
X-98000Y418000D03*
X-98000Y423000D03*
X-98000Y428000D03*
X-98000Y433000D03*
X-98000Y438000D03*
X-98000Y443000D03*
D59*
X-104500Y449500D03*
X-109500Y449500D03*
X-114500Y449500D03*
X-119500Y449500D03*
X-124500Y449500D03*
X-129500Y449500D03*
X-134500Y449500D03*
X-139500Y449500D03*
X-144500Y449500D03*
X-149500Y449500D03*
X-154500Y449500D03*
X-159500Y449500D03*
D61*
X-166000Y443000D03*
X-166000Y438000D03*
X-166000Y433000D03*
X-166000Y428000D03*
X-166000Y423000D03*
X-166000Y418000D03*
X-166000Y413000D03*
X-166000Y408000D03*
X-166000Y403000D03*
X-166000Y398000D03*
X-166000Y393000D03*
X-166000Y388000D03*
D17*
X-161834Y460400D03*
X-151166Y460400D03*
D25*
X-109500Y508510D03*
X-109500Y475490D03*
D62*
X-135500Y489914D03*
X-135500Y469086D03*
D27*
X73970Y630000D03*
X46030Y630000D03*
X73970Y0D03*
X46030Y0D03*
D63*
X-161925Y34925D03*
D64*
X-161925Y47625D03*
X-174625Y34925D03*
X-174625Y47625D03*
X-187325Y34925D03*
X-187325Y47625D03*
X-200025Y34925D03*
X-200025Y47625D03*
X-212725Y34925D03*
X-212725Y47625D03*
D65*
X-70000Y246000D03*
X-70000Y254000D03*
X-70000Y262000D03*
X-70000Y270000D03*
X-70000Y278000D03*
X-70000Y286000D03*
X-70000Y294000D03*
X-70000Y302000D03*
D66*
X-84000Y233000D03*
X-84000Y315000D03*
D10*
X180000Y445000D03*
X167300Y432300D03*
X192700Y432300D03*
X192700Y457700D03*
X167300Y457700D03*
X180000Y355000D03*
X167300Y342300D03*
X192700Y342300D03*
X192700Y367700D03*
X167300Y367700D03*
D11*
X217000Y363000D03*
X259000Y363000D03*
X217000Y439000D03*
X259000Y439000D03*
D12*
X438000Y398364D03*
X438000Y415636D03*
X457000Y398364D03*
X457000Y415636D03*
X476000Y398364D03*
X476000Y415636D03*
D13*
X421000Y412334D03*
X421000Y401666D03*
D14*
X463495Y380000D03*
X476505Y385080D03*
X476505Y374920D03*
D13*
X493000Y382334D03*
X493000Y371666D03*
D15*
X507500Y416500D03*
X507500Y407000D03*
X507500Y397500D03*
X534500Y397500D03*
X534500Y416500D03*
D13*
X493000Y412334D03*
X493000Y401666D03*
X532000Y371666D03*
X532000Y382334D03*
X519000Y382334D03*
X519000Y371666D03*
D10*
X180000Y400000D03*
X167300Y387300D03*
X192700Y387300D03*
X192700Y412700D03*
X167300Y412700D03*
D11*
X217000Y401000D03*
X259000Y401000D03*
D12*
X339000Y398364D03*
X339000Y415636D03*
X301000Y398364D03*
X301000Y415636D03*
X320000Y398364D03*
X320000Y415636D03*
D13*
X282000Y408334D03*
X282000Y397666D03*
D14*
X326495Y380000D03*
X339505Y385080D03*
X339505Y374920D03*
D13*
X355000Y384334D03*
X355000Y373666D03*
D15*
X370500Y416500D03*
X370500Y407000D03*
X370500Y397500D03*
X397500Y397500D03*
X397500Y416500D03*
D13*
X356000Y412334D03*
X356000Y401666D03*
X394000Y373666D03*
X394000Y384334D03*
X381000Y384334D03*
X381000Y373666D03*
D16*
X356000Y362000D03*
X356000Y326000D03*
D13*
X372000Y346666D03*
X372000Y357334D03*
X385000Y346666D03*
X385000Y357334D03*
D17*
X384334Y333000D03*
X373666Y333000D03*
D18*
X545270Y423500D03*
X551770Y423500D03*
X558270Y423500D03*
X564770Y423500D03*
X545270Y364500D03*
X551770Y364500D03*
X558270Y364500D03*
X564770Y364500D03*
D10*
X180000Y545000D03*
X167300Y532300D03*
X192700Y532300D03*
X192700Y557700D03*
X167300Y557700D03*
D13*
X249000Y547334D03*
X249000Y536666D03*
X303000Y620334D03*
X303000Y609666D03*
D19*
X321490Y617000D03*
X354510Y617000D03*
D17*
X434053Y553005D03*
X423385Y553005D03*
X432053Y540005D03*
X421385Y540005D03*
D13*
X408000Y540334D03*
X408000Y529666D03*
X466402Y606263D03*
X466402Y616931D03*
X452892Y606263D03*
X452892Y616931D03*
X466402Y629123D03*
X466402Y639791D03*
X452892Y629123D03*
X452892Y639791D03*
X372268Y595847D03*
X372268Y585179D03*
D20*
X222000Y557430D03*
X222000Y534570D03*
D21*
X349750Y573000D03*
X308250Y573000D03*
D22*
X393682Y616263D03*
X372854Y616263D03*
D23*
X421000Y374000D03*
X443000Y383500D03*
X443000Y364500D03*
X283000Y374000D03*
X305000Y383500D03*
X305000Y364500D03*
D24*
X294000Y324750D03*
X284500Y346750D03*
X303500Y346750D03*
D25*
X424737Y603008D03*
X424737Y636028D03*
D13*
X394487Y595852D03*
X394487Y585184D03*
D26*
X650613Y612132D03*
X663313Y612132D03*
X688713Y612132D03*
X701413Y612132D03*
X688713Y599432D03*
X701413Y599432D03*
X650613Y586732D03*
X663313Y586732D03*
X676013Y586732D03*
X688713Y586732D03*
X701413Y586732D03*
X650613Y574032D03*
X663313Y574032D03*
X676013Y574032D03*
X688713Y574032D03*
X701413Y574032D03*
X650613Y561332D03*
X663313Y561332D03*
X676013Y561332D03*
X688713Y561332D03*
X701413Y561332D03*
X650613Y599432D03*
X663313Y599432D03*
X676013Y599432D03*
X676013Y612132D03*
D22*
X718927Y529982D03*
X698099Y529982D03*
D13*
X679013Y644566D03*
X679013Y633898D03*
D17*
X713847Y546482D03*
X703179Y546482D03*
D13*
X706513Y633898D03*
X706513Y644566D03*
X692763Y633898D03*
X692763Y644566D03*
X665263Y633898D03*
X665263Y644566D03*
D27*
X602030Y614000D03*
X629970Y614000D03*
X601543Y560232D03*
X629483Y560232D03*
D13*
X506000Y382334D03*
X506000Y371666D03*
X368000Y384334D03*
X368000Y373666D03*
D28*
X214750Y521000D03*
X221250Y521000D03*
D29*
X269000Y590500D03*
X269000Y25000D03*
D30*
X215500Y23750D03*
D31*
X215500Y590500D03*
D32*
X206000Y125000D03*
X206000Y265000D03*
D33*
X231000Y99000D03*
X231000Y291000D03*
D34*
X231000Y328000D03*
X231000Y62000D03*
D35*
X278000Y115625D03*
X278000Y128325D03*
X278000Y141025D03*
X278000Y153725D03*
X278000Y166425D03*
X278000Y179125D03*
X278000Y191825D03*
X278000Y204525D03*
X278000Y217225D03*
X278000Y229925D03*
X278000Y242625D03*
X278000Y255325D03*
X278000Y268025D03*
X278000Y121975D03*
X278000Y134675D03*
X278000Y147375D03*
X278000Y160075D03*
X278000Y172775D03*
X278000Y185475D03*
X278000Y198175D03*
X278000Y210875D03*
X278000Y223575D03*
X278000Y236275D03*
X278000Y248975D03*
X278000Y261675D03*
X278000Y274375D03*
D36*
X387750Y218750D03*
X387750Y212250D03*
X387750Y205750D03*
X387750Y199250D03*
X387750Y192750D03*
X387750Y186250D03*
X387750Y179750D03*
X387750Y173250D03*
X387750Y166750D03*
X387750Y160250D03*
X387750Y153750D03*
X387750Y147250D03*
X387750Y140750D03*
X387750Y134250D03*
X387750Y127750D03*
X387750Y121250D03*
X387750Y114750D03*
X387750Y108250D03*
X387750Y101750D03*
X387750Y95250D03*
D37*
X402250Y80750D03*
X408750Y80750D03*
X415250Y80750D03*
X421750Y80750D03*
X428250Y80750D03*
X434750Y80750D03*
X441250Y80750D03*
X447750Y80750D03*
X454250Y80750D03*
X460750Y80750D03*
X467250Y80750D03*
X473750Y80750D03*
X480250Y80750D03*
X486750Y80750D03*
X493250Y80750D03*
X499750Y80750D03*
X506250Y80750D03*
X512750Y80750D03*
X519250Y80750D03*
X525750Y80750D03*
D36*
X540250Y95250D03*
X540250Y101750D03*
X540250Y108250D03*
X540250Y114750D03*
X540250Y121250D03*
X540250Y127750D03*
X540250Y134250D03*
X540250Y140750D03*
X540250Y147250D03*
X540250Y153750D03*
X540250Y160250D03*
X540250Y166750D03*
X540250Y173250D03*
X540250Y179750D03*
X540250Y186250D03*
X540250Y192750D03*
X540250Y199250D03*
X540250Y205750D03*
X540250Y212250D03*
X540250Y218750D03*
D37*
X525750Y233250D03*
X519250Y233250D03*
X512750Y233250D03*
X506250Y233250D03*
X499750Y233250D03*
X493250Y233250D03*
X486750Y233250D03*
X480250Y233250D03*
X473750Y233250D03*
X467250Y233250D03*
X460750Y233250D03*
X454250Y233250D03*
X447750Y233250D03*
X441250Y233250D03*
X434750Y233250D03*
X428250Y233250D03*
X421750Y233250D03*
X415250Y233250D03*
X408750Y233250D03*
X402250Y233250D03*
D38*
X332000Y358000D03*
X338500Y358000D03*
X325500Y358000D03*
X332000Y340000D03*
X338500Y340000D03*
X325500Y340000D03*
D39*
X719500Y150100D03*
X719500Y137400D03*
X719500Y124700D03*
X719500Y112000D03*
X719500Y99300D03*
X719500Y86600D03*
X719500Y73900D03*
X706800Y150100D03*
X694100Y150100D03*
X681400Y150100D03*
X668700Y150100D03*
X656000Y150100D03*
X643300Y150100D03*
X617900Y150100D03*
X605200Y150100D03*
X592500Y150100D03*
X706800Y137400D03*
X694100Y137400D03*
X681400Y137400D03*
X668700Y137400D03*
X656000Y137400D03*
X643300Y137400D03*
X617900Y137400D03*
X605200Y137400D03*
X592500Y137400D03*
X706800Y124700D03*
X694100Y124700D03*
X681400Y124700D03*
X668700Y124700D03*
X656000Y124700D03*
X643300Y124700D03*
X617900Y124700D03*
X605200Y124700D03*
X592500Y124700D03*
X706800Y112000D03*
X694100Y112000D03*
X681400Y112000D03*
X668700Y112000D03*
X656000Y112000D03*
X643300Y112000D03*
X706800Y99300D03*
X694100Y99300D03*
X681400Y99300D03*
X668700Y99300D03*
X656000Y99300D03*
X643300Y99300D03*
X630600Y99300D03*
X617900Y99300D03*
X605200Y99300D03*
X592500Y99300D03*
X706800Y86600D03*
X694100Y86600D03*
X681400Y86600D03*
X668700Y86600D03*
X656000Y86600D03*
X643300Y86600D03*
X630600Y86600D03*
X617900Y86600D03*
X605200Y86600D03*
X592500Y86600D03*
X706800Y73900D03*
X694100Y73900D03*
X681400Y73900D03*
X668700Y73900D03*
X656000Y73900D03*
X643300Y73900D03*
X630600Y150100D03*
X630600Y137400D03*
X630600Y124700D03*
X630600Y112000D03*
X630600Y73900D03*
X617900Y112000D03*
X605200Y112000D03*
X592500Y112000D03*
X592500Y73900D03*
X605200Y73900D03*
X617900Y73900D03*
D27*
X679030Y188000D03*
X706970Y188000D03*
X626970Y189000D03*
X599030Y189000D03*
D17*
X707334Y164000D03*
X696666Y164000D03*
X629334Y164000D03*
X618666Y164000D03*
D25*
X747000Y90490D03*
X747000Y123510D03*
X566000Y94490D03*
X566000Y127510D03*
D13*
X459000Y495334D03*
X459000Y484666D03*
X446000Y495334D03*
X446000Y484666D03*
X743000Y543334D03*
X743000Y532666D03*
X738000Y199334D03*
X738000Y188666D03*
D22*
X678586Y231000D03*
X699414Y231000D03*
D17*
X680334Y249000D03*
X669666Y249000D03*
X695666Y305000D03*
X706334Y305000D03*
X672666Y305000D03*
X683334Y305000D03*
D22*
X683586Y323000D03*
X704414Y323000D03*
D13*
X725000Y199334D03*
X725000Y188666D03*
X645000Y200334D03*
X645000Y189666D03*
D40*
X365500Y72500D03*
X365500Y67500D03*
X365500Y62500D03*
D41*
X365500Y56625D03*
D40*
X365500Y87500D03*
X365500Y82500D03*
X365500Y77500D03*
D41*
X365500Y93375D03*
D40*
X350500Y77500D03*
X350500Y82500D03*
X350500Y87500D03*
D41*
X350500Y93375D03*
D40*
X350500Y62500D03*
X350500Y67500D03*
X350500Y72500D03*
D41*
X350500Y56625D03*
D40*
X365500Y123500D03*
X365500Y118500D03*
X365500Y113500D03*
D41*
X365500Y107625D03*
D40*
X365500Y138500D03*
X365500Y133500D03*
X365500Y128500D03*
D41*
X365500Y144375D03*
D40*
X350500Y128500D03*
X350500Y133500D03*
X350500Y138500D03*
D41*
X350500Y144375D03*
D40*
X350500Y113500D03*
X350500Y118500D03*
X350500Y123500D03*
D41*
X350500Y107625D03*
D40*
X365500Y236500D03*
X365500Y231500D03*
X365500Y226500D03*
D41*
X365500Y220625D03*
D40*
X365500Y251500D03*
X365500Y246500D03*
X365500Y241500D03*
D41*
X365500Y257375D03*
D40*
X350500Y241500D03*
X350500Y246500D03*
X350500Y251500D03*
D41*
X350500Y257375D03*
D40*
X350500Y226500D03*
X350500Y231500D03*
X350500Y236500D03*
D41*
X350500Y220625D03*
D40*
X365500Y186500D03*
X365500Y181500D03*
X365500Y176500D03*
D41*
X365500Y170625D03*
D40*
X365500Y201500D03*
X365500Y196500D03*
X365500Y191500D03*
D41*
X365500Y207375D03*
D40*
X350500Y191500D03*
X350500Y196500D03*
X350500Y201500D03*
D41*
X350500Y207375D03*
D40*
X350500Y176500D03*
X350500Y181500D03*
X350500Y186500D03*
D41*
X350500Y170625D03*
D42*
X684000Y276000D03*
D43*
X669500Y272750D03*
X669500Y279250D03*
X698500Y279250D03*
X698500Y272750D03*
D38*
X693750Y290750D03*
X687250Y290750D03*
X680750Y290750D03*
X674250Y290750D03*
X674250Y261250D03*
X680750Y261250D03*
X687250Y261250D03*
X693750Y261250D03*
D22*
X623586Y234000D03*
X644414Y234000D03*
D17*
X625334Y252000D03*
X614666Y252000D03*
X640666Y308000D03*
X651334Y308000D03*
X617666Y308000D03*
X628334Y308000D03*
D22*
X628586Y326000D03*
X649414Y326000D03*
D42*
X629000Y279000D03*
D43*
X614500Y275750D03*
X614500Y282250D03*
X643500Y282250D03*
X643500Y275750D03*
D38*
X638750Y293750D03*
X632250Y293750D03*
X625750Y293750D03*
X619250Y293750D03*
X619250Y264250D03*
X625750Y264250D03*
X632250Y264250D03*
X638750Y264250D03*
D17*
G36*
X476912Y344959D02*
X471497Y339544D01*
X465544Y345497D01*
X470959Y350912D01*
X476912Y344959D01*
G37*
G36*
X484456Y352503D02*
X479041Y347088D01*
X473088Y353041D01*
X478503Y358456D01*
X484456Y352503D01*
G37*
D22*
X598414Y234000D03*
X577586Y234000D03*
D17*
X569334Y252000D03*
X558666Y252000D03*
X584666Y308000D03*
X595334Y308000D03*
X561666Y308000D03*
X572334Y308000D03*
D22*
X604414Y326000D03*
X583586Y326000D03*
D42*
X573000Y279000D03*
D43*
X558500Y275750D03*
X558500Y282250D03*
X587500Y282250D03*
X587500Y275750D03*
D38*
X582750Y293750D03*
X576250Y293750D03*
X569750Y293750D03*
X563250Y293750D03*
X563250Y264250D03*
X569750Y264250D03*
X576250Y264250D03*
X582750Y264250D03*
D17*
G36*
X485912Y335959D02*
X480497Y330544D01*
X474544Y336497D01*
X479959Y341912D01*
X485912Y335959D01*
G37*
G36*
X493456Y343503D02*
X488041Y338088D01*
X482088Y344041D01*
X487503Y349456D01*
X493456Y343503D01*
G37*
G36*
X430088Y336041D02*
X435503Y341456D01*
X441456Y335503D01*
X436041Y330088D01*
X430088Y336041D01*
G37*
G36*
X422544Y328497D02*
X427959Y333912D01*
X433912Y327959D01*
X428497Y322544D01*
X422544Y328497D01*
G37*
G36*
X417912Y311959D02*
X412497Y306544D01*
X406544Y312497D01*
X411959Y317912D01*
X417912Y311959D01*
G37*
G36*
X425456Y319503D02*
X420041Y314088D01*
X414088Y320041D01*
X419503Y325456D01*
X425456Y319503D01*
G37*
D44*
G36*
X468438Y261429D02*
X465751Y258742D01*
X459142Y265351D01*
X461829Y268038D01*
X468438Y261429D01*
G37*
G36*
X471973Y264965D02*
X469286Y262278D01*
X462677Y268887D01*
X465364Y271574D01*
X471973Y264965D01*
G37*
G36*
X475509Y268500D02*
X472822Y265813D01*
X466213Y272422D01*
X468900Y275109D01*
X475509Y268500D01*
G37*
G36*
X479045Y272036D02*
X476358Y269349D01*
X469749Y275958D01*
X472436Y278645D01*
X479045Y272036D01*
G37*
G36*
X482580Y275571D02*
X479893Y272884D01*
X473284Y279493D01*
X475971Y282180D01*
X482580Y275571D01*
G37*
G36*
X486116Y279107D02*
X483429Y276420D01*
X476820Y283029D01*
X479507Y285716D01*
X486116Y279107D01*
G37*
G36*
X489651Y282642D02*
X486964Y279955D01*
X480355Y286564D01*
X483042Y289251D01*
X489651Y282642D01*
G37*
G36*
X493187Y286178D02*
X490500Y283491D01*
X483891Y290100D01*
X486578Y292787D01*
X493187Y286178D01*
G37*
G36*
X496722Y289714D02*
X494035Y287027D01*
X487426Y293636D01*
X490113Y296323D01*
X496722Y289714D01*
G37*
G36*
X500258Y293249D02*
X497571Y290562D01*
X490962Y297171D01*
X493649Y299858D01*
X500258Y293249D01*
G37*
G36*
X493649Y300142D02*
X490962Y302829D01*
X497571Y309438D01*
X500258Y306751D01*
X493649Y300142D01*
G37*
G36*
X490113Y303677D02*
X487426Y306364D01*
X494035Y312973D01*
X496722Y310286D01*
X490113Y303677D01*
G37*
G36*
X486578Y307213D02*
X483891Y309900D01*
X490500Y316509D01*
X493187Y313822D01*
X486578Y307213D01*
G37*
G36*
X483042Y310749D02*
X480355Y313436D01*
X486964Y320045D01*
X489651Y317358D01*
X483042Y310749D01*
G37*
G36*
X479507Y314284D02*
X476820Y316971D01*
X483429Y323580D01*
X486116Y320893D01*
X479507Y314284D01*
G37*
G36*
X475971Y317820D02*
X473284Y320507D01*
X479893Y327116D01*
X482580Y324429D01*
X475971Y317820D01*
G37*
G36*
X472436Y321355D02*
X469749Y324042D01*
X476358Y330651D01*
X479045Y327964D01*
X472436Y321355D01*
G37*
G36*
X468900Y324891D02*
X466213Y327578D01*
X472822Y334187D01*
X475509Y331500D01*
X468900Y324891D01*
G37*
G36*
X465364Y328426D02*
X462677Y331113D01*
X469286Y337722D01*
X471973Y335035D01*
X465364Y328426D01*
G37*
G36*
X461829Y331962D02*
X459142Y334649D01*
X465751Y341258D01*
X468438Y338571D01*
X461829Y331962D01*
G37*
G36*
X458858Y334649D02*
X456171Y331962D01*
X449562Y338571D01*
X452249Y341258D01*
X458858Y334649D01*
G37*
G36*
X455323Y331113D02*
X452636Y328426D01*
X446027Y335035D01*
X448714Y337722D01*
X455323Y331113D01*
G37*
G36*
X451787Y327578D02*
X449100Y324891D01*
X442491Y331500D01*
X445178Y334187D01*
X451787Y327578D01*
G37*
G36*
X448251Y324042D02*
X445564Y321355D01*
X438955Y327964D01*
X441642Y330651D01*
X448251Y324042D01*
G37*
G36*
X444716Y320507D02*
X442029Y317820D01*
X435420Y324429D01*
X438107Y327116D01*
X444716Y320507D01*
G37*
G36*
X441180Y316971D02*
X438493Y314284D01*
X431884Y320893D01*
X434571Y323580D01*
X441180Y316971D01*
G37*
G36*
X437645Y313436D02*
X434958Y310749D01*
X428349Y317358D01*
X431036Y320045D01*
X437645Y313436D01*
G37*
G36*
X434109Y309900D02*
X431422Y307213D01*
X424813Y313822D01*
X427500Y316509D01*
X434109Y309900D01*
G37*
G36*
X430574Y306364D02*
X427887Y303677D01*
X421278Y310286D01*
X423965Y312973D01*
X430574Y306364D01*
G37*
G36*
X427038Y302829D02*
X424351Y300142D01*
X417742Y306751D01*
X420429Y309438D01*
X427038Y302829D01*
G37*
G36*
X420429Y290562D02*
X417742Y293249D01*
X424351Y299858D01*
X427038Y297171D01*
X420429Y290562D01*
G37*
G36*
X423965Y287027D02*
X421278Y289714D01*
X427887Y296323D01*
X430574Y293636D01*
X423965Y287027D01*
G37*
G36*
X427500Y283491D02*
X424813Y286178D01*
X431422Y292787D01*
X434109Y290100D01*
X427500Y283491D01*
G37*
G36*
X431036Y279955D02*
X428349Y282642D01*
X434958Y289251D01*
X437645Y286564D01*
X431036Y279955D01*
G37*
G36*
X434571Y276420D02*
X431884Y279107D01*
X438493Y285716D01*
X441180Y283029D01*
X434571Y276420D01*
G37*
G36*
X438107Y272884D02*
X435420Y275571D01*
X442029Y282180D01*
X444716Y279493D01*
X438107Y272884D01*
G37*
G36*
X441642Y269349D02*
X438955Y272036D01*
X445564Y278645D01*
X448251Y275958D01*
X441642Y269349D01*
G37*
G36*
X445178Y265813D02*
X442491Y268500D01*
X449100Y275109D01*
X451787Y272422D01*
X445178Y265813D01*
G37*
G36*
X448714Y262278D02*
X446027Y264965D01*
X452636Y271574D01*
X455323Y268887D01*
X448714Y262278D01*
G37*
G36*
X452249Y258742D02*
X449562Y261429D01*
X456171Y268038D01*
X458858Y265351D01*
X452249Y258742D01*
G37*
D45*
G36*
X459000Y333092D02*
X492092Y300000D01*
X459000Y266908D01*
X425908Y300000D01*
X459000Y333092D01*
G37*
D46*
X814680Y629960D03*
X814680Y40D03*
D26*
X803250Y67350D03*
X815950Y67350D03*
X854050Y67350D03*
X866750Y67350D03*
D47*
X835000Y43347D03*
X804500Y586907D03*
D26*
X828650Y67350D03*
X841350Y67350D03*
X879450Y67350D03*
X892150Y67350D03*
X790550Y67350D03*
X777850Y67350D03*
X803250Y80050D03*
X815950Y80050D03*
X854050Y80050D03*
X866750Y80050D03*
X828650Y80050D03*
X841350Y80050D03*
X879450Y80050D03*
X892150Y80050D03*
X790550Y80050D03*
X777850Y80050D03*
X803250Y92750D03*
X815950Y92750D03*
X854050Y92750D03*
X866750Y92750D03*
X828650Y92750D03*
X841350Y92750D03*
X879450Y92750D03*
X892150Y92750D03*
X790550Y92750D03*
X777850Y92750D03*
X803250Y105450D03*
X815950Y105450D03*
X854050Y105450D03*
X866750Y105450D03*
X828650Y105450D03*
X841350Y105450D03*
X879450Y105450D03*
X892150Y105450D03*
X790550Y105450D03*
X777850Y105450D03*
X803250Y118150D03*
X815950Y118150D03*
X854050Y118150D03*
X866750Y118150D03*
X828650Y118150D03*
X841350Y118150D03*
X879450Y118150D03*
X892150Y118150D03*
X790550Y118150D03*
X777850Y118150D03*
X803250Y130850D03*
X815950Y130850D03*
X854050Y130850D03*
X866750Y130850D03*
X828650Y130850D03*
X841350Y130850D03*
X879450Y130850D03*
X892150Y130850D03*
X790550Y130850D03*
X777850Y130850D03*
X803250Y143550D03*
X815950Y143550D03*
X854050Y143550D03*
X866750Y143550D03*
X828650Y143550D03*
X841350Y143550D03*
X879450Y143550D03*
X892150Y143550D03*
X790550Y143550D03*
X777850Y143550D03*
X803250Y156250D03*
X815950Y156250D03*
X854050Y156250D03*
X866750Y156250D03*
X828650Y156250D03*
X841350Y156250D03*
X879450Y156250D03*
X892150Y156250D03*
X790550Y156250D03*
X777850Y156250D03*
X803250Y168950D03*
X815950Y168950D03*
X854050Y168950D03*
X866750Y168950D03*
X828650Y168950D03*
X841350Y168950D03*
X879450Y168950D03*
X892150Y168950D03*
X790550Y168950D03*
X777850Y168950D03*
X803250Y181650D03*
X815950Y181650D03*
X854050Y181650D03*
X866750Y181650D03*
X828650Y181650D03*
X841350Y181650D03*
X879450Y181650D03*
X892150Y181650D03*
X790550Y181650D03*
X777850Y181650D03*
X803250Y194350D03*
X815950Y194350D03*
X854050Y194350D03*
X866750Y194350D03*
X828650Y194350D03*
X841350Y194350D03*
X879450Y194350D03*
X892150Y194350D03*
X790550Y194350D03*
X777850Y194350D03*
X803250Y207050D03*
X815950Y207050D03*
X854050Y207050D03*
X866750Y207050D03*
X828650Y207050D03*
X841350Y207050D03*
X879450Y207050D03*
X892150Y207050D03*
X790550Y207050D03*
X777850Y207050D03*
X803250Y219750D03*
X815950Y219750D03*
X854050Y219750D03*
X866750Y219750D03*
X828650Y219750D03*
X841350Y219750D03*
X879450Y219750D03*
X892150Y219750D03*
X790550Y219750D03*
X777850Y219750D03*
X803250Y232450D03*
X815950Y232450D03*
X854050Y232450D03*
X866750Y232450D03*
X828650Y232450D03*
X841350Y232450D03*
X879450Y232450D03*
X892150Y232450D03*
X790550Y232450D03*
X777850Y232450D03*
X803250Y245150D03*
X815950Y245150D03*
X854050Y245150D03*
X866750Y245150D03*
X828650Y245150D03*
X841350Y245150D03*
X879450Y245150D03*
X892150Y245150D03*
X790550Y245150D03*
X777850Y245150D03*
X803250Y257850D03*
X815950Y257850D03*
X854050Y257850D03*
X866750Y257850D03*
X828650Y257850D03*
X841350Y257850D03*
X879450Y257850D03*
X892150Y257850D03*
X790550Y257850D03*
X777850Y257850D03*
X803250Y270550D03*
X815950Y270550D03*
X854050Y270550D03*
X866750Y270550D03*
X828650Y270550D03*
X841350Y270550D03*
X879450Y270550D03*
X892150Y270550D03*
X790550Y270550D03*
X777850Y270550D03*
X803250Y283250D03*
X815950Y283250D03*
X854050Y283250D03*
X866750Y283250D03*
X828650Y283250D03*
X841350Y283250D03*
X879450Y283250D03*
X892150Y283250D03*
X790550Y283250D03*
X777850Y283250D03*
X803250Y295950D03*
X815950Y295950D03*
X854050Y295950D03*
X866750Y295950D03*
X828650Y295950D03*
X841350Y295950D03*
X879450Y295950D03*
X892150Y295950D03*
X790550Y295950D03*
X777850Y295950D03*
X803250Y308650D03*
X815950Y308650D03*
X854050Y308650D03*
X866750Y308650D03*
X828650Y308650D03*
X841350Y308650D03*
X879450Y308650D03*
X892150Y308650D03*
X790550Y308650D03*
X777850Y308650D03*
X803250Y321350D03*
X815950Y321350D03*
X854050Y321350D03*
X866750Y321350D03*
X828650Y321350D03*
X841350Y321350D03*
X879450Y321350D03*
X892150Y321350D03*
X790550Y321350D03*
X777850Y321350D03*
X803250Y334050D03*
X815950Y334050D03*
X854050Y334050D03*
X866750Y334050D03*
X828650Y334050D03*
X841350Y334050D03*
X879450Y334050D03*
X892150Y334050D03*
X790550Y334050D03*
X777850Y334050D03*
X803250Y346750D03*
X815950Y346750D03*
X854050Y346750D03*
X866750Y346750D03*
X828650Y346750D03*
X841350Y346750D03*
X879450Y346750D03*
X892150Y346750D03*
X790550Y346750D03*
X777850Y346750D03*
X803250Y359450D03*
X815950Y359450D03*
X854050Y359450D03*
X866750Y359450D03*
X828650Y359450D03*
X841350Y359450D03*
X879450Y359450D03*
X892150Y359450D03*
X790550Y359450D03*
X777850Y359450D03*
X803250Y372150D03*
X815950Y372150D03*
X854050Y372150D03*
X866750Y372150D03*
X828650Y372150D03*
X841350Y372150D03*
X879450Y372150D03*
X892150Y372150D03*
X790550Y372150D03*
X777850Y372150D03*
X803250Y384850D03*
X815950Y384850D03*
X854050Y384850D03*
X866750Y384850D03*
X828650Y384850D03*
X841350Y384850D03*
X879450Y384850D03*
X892150Y384850D03*
X790550Y384850D03*
X777850Y384850D03*
X803250Y397550D03*
X815950Y397550D03*
X854050Y397550D03*
X866750Y397550D03*
X828650Y397550D03*
X841350Y397550D03*
X879450Y397550D03*
X892150Y397550D03*
X790550Y397550D03*
X777850Y397550D03*
X803250Y410250D03*
X815950Y410250D03*
X854050Y410250D03*
X866750Y410250D03*
X828650Y410250D03*
X841350Y410250D03*
X879450Y410250D03*
X892150Y410250D03*
X790550Y410250D03*
X777850Y410250D03*
X803250Y422950D03*
X815950Y422950D03*
X854050Y422950D03*
X866750Y422950D03*
X828650Y422950D03*
X841350Y422950D03*
X879450Y422950D03*
X892150Y422950D03*
X790550Y422950D03*
X777850Y422950D03*
X803250Y435650D03*
X815950Y435650D03*
X854050Y435650D03*
X866750Y435650D03*
X828650Y435650D03*
X841350Y435650D03*
X879450Y435650D03*
X892150Y435650D03*
X790550Y435650D03*
X777850Y435650D03*
X803250Y448350D03*
X815950Y448350D03*
X854050Y448350D03*
X866750Y448350D03*
X828650Y448350D03*
X841350Y448350D03*
X879450Y448350D03*
X892150Y448350D03*
X790550Y448350D03*
X777850Y448350D03*
X803250Y461050D03*
X815950Y461050D03*
X854050Y461050D03*
X866750Y461050D03*
X828650Y461050D03*
X841350Y461050D03*
X879450Y461050D03*
X892150Y461050D03*
X790550Y461050D03*
X777850Y461050D03*
X803250Y473750D03*
X815950Y473750D03*
X854050Y473750D03*
X866750Y473750D03*
X828650Y473750D03*
X841350Y473750D03*
X879450Y473750D03*
X892150Y473750D03*
X790550Y473750D03*
X777850Y473750D03*
X803250Y486450D03*
X815950Y486450D03*
X854050Y486450D03*
X866750Y486450D03*
X828650Y486450D03*
X841350Y486450D03*
X879450Y486450D03*
X892150Y486450D03*
X790550Y486450D03*
X777850Y486450D03*
X803250Y499150D03*
X815950Y499150D03*
X854050Y499150D03*
X866750Y499150D03*
X828650Y499150D03*
X841350Y499150D03*
X879450Y499150D03*
X892150Y499150D03*
X790550Y499150D03*
X777850Y499150D03*
X803250Y511850D03*
X815950Y511850D03*
X854050Y511850D03*
X866750Y511850D03*
X828650Y511850D03*
X841350Y511850D03*
X879450Y511850D03*
X892150Y511850D03*
X790550Y511850D03*
X777850Y511850D03*
X803250Y524550D03*
X815950Y524550D03*
X854050Y524550D03*
X866750Y524550D03*
X828650Y524550D03*
X841350Y524550D03*
X879450Y524550D03*
X892150Y524550D03*
X790550Y524550D03*
X777850Y524550D03*
X803250Y537250D03*
X815950Y537250D03*
X854050Y537250D03*
X866750Y537250D03*
X828650Y537250D03*
X841350Y537250D03*
X879450Y537250D03*
X892150Y537250D03*
X790550Y537250D03*
X777850Y537250D03*
X803250Y549950D03*
X815950Y549950D03*
X854050Y549950D03*
X866750Y549950D03*
X828650Y549950D03*
X841350Y549950D03*
X879450Y549950D03*
X892150Y549950D03*
X790550Y549950D03*
X777850Y549950D03*
X803250Y562650D03*
X815950Y562650D03*
X854050Y562650D03*
X866750Y562650D03*
X828650Y562650D03*
X841350Y562650D03*
X879450Y562650D03*
X892150Y562650D03*
X790550Y562650D03*
X777850Y562650D03*
D48*
X783000Y653750D03*
X783000Y647250D03*
X783000Y640750D03*
X783000Y634250D03*
X783000Y627750D03*
X783000Y621250D03*
X783000Y614750D03*
X783000Y608250D03*
X723000Y653750D03*
X723000Y647250D03*
X723000Y640750D03*
X723000Y634250D03*
X723000Y627750D03*
X723000Y621250D03*
X723000Y614750D03*
X723000Y608250D03*
D13*
X743000Y566666D03*
X743000Y577334D03*
D10*
X180000Y495000D03*
X167300Y482300D03*
X192700Y482300D03*
X192700Y507700D03*
X167300Y507700D03*
D13*
X250000Y486334D03*
X250000Y475666D03*
D17*
X266334Y507000D03*
X255666Y507000D03*
D25*
X357000Y475490D03*
X357000Y508510D03*
D17*
X630834Y424000D03*
X620166Y424000D03*
X635334Y411000D03*
X624666Y411000D03*
X612334Y411000D03*
X601666Y411000D03*
D13*
X663000Y477666D03*
X663000Y488334D03*
X650000Y477666D03*
X650000Y488334D03*
X663000Y499666D03*
X663000Y510334D03*
X650000Y499666D03*
X650000Y510334D03*
X378000Y500666D03*
X378000Y511334D03*
D20*
X223000Y503430D03*
X223000Y480570D03*
D21*
X330750Y494000D03*
X289250Y494000D03*
D22*
X398414Y477000D03*
X377586Y477000D03*
D19*
X394490Y504000D03*
X427510Y504000D03*
D28*
X216750Y467000D03*
X223250Y467000D03*
D13*
X662000Y368334D03*
X662000Y357666D03*
X648000Y368334D03*
X648000Y357666D03*
D49*
X728200Y15600D03*
D50*
X752200Y-1900D03*
X752200Y3100D03*
X752200Y8100D03*
X752200Y13100D03*
X752200Y18100D03*
X752200Y23100D03*
X752200Y28100D03*
X752200Y33100D03*
D51*
X745700Y39600D03*
X740700Y39600D03*
X735700Y39600D03*
X730700Y39600D03*
X725700Y39600D03*
X720700Y39600D03*
X715700Y39600D03*
X710700Y39600D03*
D50*
X704200Y33100D03*
X704200Y28100D03*
X704200Y23100D03*
X704200Y18100D03*
X704200Y13100D03*
X704200Y8100D03*
X704200Y3100D03*
X704200Y-1900D03*
D51*
X710700Y-8400D03*
X715700Y-8400D03*
X720700Y-8400D03*
X725700Y-8400D03*
X730700Y-8400D03*
X735700Y-8400D03*
X740700Y-8400D03*
X745700Y-8400D03*
D17*
X742834Y-18200D03*
X732166Y-18200D03*
X722266Y54200D03*
X732934Y54200D03*
D52*
X528000Y23750D03*
X528000Y17250D03*
X528000Y10750D03*
X528000Y4250D03*
X528000Y-2250D03*
X528000Y-8750D03*
X528000Y-15250D03*
X528000Y-21750D03*
X472000Y23750D03*
X472000Y17250D03*
X472000Y10750D03*
X472000Y4250D03*
X472000Y-2250D03*
X472000Y-8750D03*
X472000Y-15250D03*
X472000Y-21750D03*
D53*
X540000Y48750D03*
X540000Y42250D03*
X540000Y55250D03*
X540000Y61750D03*
X498000Y61750D03*
X498000Y55250D03*
X498000Y48750D03*
X498000Y42250D03*
D54*
X519000Y52000D03*
D55*
X322000Y259000D03*
D56*
X302746Y268750D03*
X302746Y262250D03*
X302746Y255750D03*
X302746Y249250D03*
D57*
X312250Y239746D03*
X318750Y239746D03*
X325250Y239746D03*
X331750Y239746D03*
D56*
X341254Y249250D03*
X341254Y255750D03*
X341254Y262250D03*
X341254Y268750D03*
D57*
X331750Y278254D03*
X325250Y278254D03*
X318750Y278254D03*
X312250Y278254D03*
D55*
X322000Y190000D03*
D56*
X302746Y199750D03*
X302746Y193250D03*
X302746Y186750D03*
X302746Y180250D03*
D57*
X312250Y170746D03*
X318750Y170746D03*
X325250Y170746D03*
X331750Y170746D03*
D56*
X341254Y180250D03*
X341254Y186750D03*
X341254Y193250D03*
X341254Y199750D03*
D57*
X331750Y209254D03*
X325250Y209254D03*
X318750Y209254D03*
X312250Y209254D03*
D55*
X321000Y122000D03*
D56*
X301746Y131750D03*
X301746Y125250D03*
X301746Y118750D03*
X301746Y112250D03*
D57*
X311250Y102746D03*
X317750Y102746D03*
X324250Y102746D03*
X330750Y102746D03*
D56*
X340254Y112250D03*
X340254Y118750D03*
X340254Y125250D03*
X340254Y131750D03*
D57*
X330750Y141254D03*
X324250Y141254D03*
X317750Y141254D03*
X311250Y141254D03*
D17*
X612666Y369000D03*
X623334Y369000D03*
X612666Y383000D03*
X623334Y383000D03*
X555666Y477000D03*
X566334Y477000D03*
X555666Y464000D03*
X566334Y464000D03*
D27*
X588030Y521500D03*
X615970Y521500D03*
D58*
X572000Y610030D03*
X572000Y637970D03*
D59*
X461500Y509000D03*
D60*
X489000Y543000D03*
D59*
X466500Y509000D03*
X471500Y509000D03*
X476500Y509000D03*
X481500Y509000D03*
X486500Y509000D03*
X491500Y509000D03*
X496500Y509000D03*
X501500Y509000D03*
X506500Y509000D03*
X511500Y509000D03*
X516500Y509000D03*
D61*
X523000Y515500D03*
X523000Y520500D03*
X523000Y525500D03*
X523000Y530500D03*
X523000Y535500D03*
X523000Y540500D03*
X523000Y545500D03*
X523000Y550500D03*
X523000Y555500D03*
X523000Y560500D03*
X523000Y565500D03*
X523000Y570500D03*
D59*
X516500Y577000D03*
X511500Y577000D03*
X506500Y577000D03*
X501500Y577000D03*
X496500Y577000D03*
X491500Y577000D03*
X486500Y577000D03*
X481500Y577000D03*
X476500Y577000D03*
X471500Y577000D03*
X466500Y577000D03*
X461500Y577000D03*
D61*
X455000Y570500D03*
X455000Y565500D03*
X455000Y560500D03*
X455000Y555500D03*
X455000Y550500D03*
X455000Y545500D03*
X455000Y540500D03*
X455000Y535500D03*
X455000Y530500D03*
X455000Y525500D03*
X455000Y520500D03*
X455000Y515500D03*
D17*
X458666Y590000D03*
X469334Y590000D03*
D25*
X512500Y638510D03*
X512500Y605490D03*
D62*
X487000Y616914D03*
X487000Y596086D03*
D59*
X655500Y381500D03*
D60*
X683000Y415500D03*
D59*
X660500Y381500D03*
X665500Y381500D03*
X670500Y381500D03*
X675500Y381500D03*
X680500Y381500D03*
X685500Y381500D03*
X690500Y381500D03*
X695500Y381500D03*
X700500Y381500D03*
X705500Y381500D03*
X710500Y381500D03*
D61*
X717000Y388000D03*
X717000Y393000D03*
X717000Y398000D03*
X717000Y403000D03*
X717000Y408000D03*
X717000Y413000D03*
X717000Y418000D03*
X717000Y423000D03*
X717000Y428000D03*
X717000Y433000D03*
X717000Y438000D03*
X717000Y443000D03*
D59*
X710500Y449500D03*
X705500Y449500D03*
X700500Y449500D03*
X695500Y449500D03*
X690500Y449500D03*
X685500Y449500D03*
X680500Y449500D03*
X675500Y449500D03*
X670500Y449500D03*
X665500Y449500D03*
X660500Y449500D03*
X655500Y449500D03*
D61*
X649000Y443000D03*
X649000Y438000D03*
X649000Y433000D03*
X649000Y428000D03*
X649000Y423000D03*
X649000Y418000D03*
X649000Y413000D03*
X649000Y408000D03*
X649000Y403000D03*
X649000Y398000D03*
X649000Y393000D03*
X649000Y388000D03*
D17*
X653166Y460400D03*
X663834Y460400D03*
D25*
X705500Y508510D03*
X705500Y475490D03*
D62*
X679500Y489914D03*
X679500Y469086D03*
D27*
X888970Y630000D03*
X861030Y630000D03*
X888970Y0D03*
X861030Y0D03*
D63*
X653075Y34925D03*
D64*
X653075Y47625D03*
X640375Y34925D03*
X640375Y47625D03*
X627675Y34925D03*
X627675Y47625D03*
X614975Y34925D03*
X614975Y47625D03*
X602275Y34925D03*
X602275Y47625D03*
D65*
X745000Y246000D03*
X745000Y254000D03*
X745000Y262000D03*
X745000Y270000D03*
X745000Y278000D03*
X745000Y286000D03*
X745000Y294000D03*
X745000Y302000D03*
D66*
X731000Y233000D03*
X731000Y315000D03*
D10*
X-635000Y1185000D03*
X-647700Y1172300D03*
X-622300Y1172300D03*
X-622300Y1197700D03*
X-647700Y1197700D03*
X-635000Y1095000D03*
X-647700Y1082300D03*
X-622300Y1082300D03*
X-622300Y1107700D03*
X-647700Y1107700D03*
D11*
X-598000Y1103000D03*
X-556000Y1103000D03*
X-598000Y1179000D03*
X-556000Y1179000D03*
D12*
X-377000Y1138364D03*
X-377000Y1155636D03*
X-358000Y1138364D03*
X-358000Y1155636D03*
X-339000Y1138364D03*
X-339000Y1155636D03*
D13*
X-394000Y1152334D03*
X-394000Y1141666D03*
D14*
X-351505Y1120000D03*
X-338495Y1125080D03*
X-338495Y1114920D03*
D13*
X-322000Y1122334D03*
X-322000Y1111666D03*
D15*
X-307500Y1156500D03*
X-307500Y1147000D03*
X-307500Y1137500D03*
X-280500Y1137500D03*
X-280500Y1156500D03*
D13*
X-322000Y1152334D03*
X-322000Y1141666D03*
X-283000Y1111666D03*
X-283000Y1122334D03*
X-296000Y1122334D03*
X-296000Y1111666D03*
D10*
X-635000Y1140000D03*
X-647700Y1127300D03*
X-622300Y1127300D03*
X-622300Y1152700D03*
X-647700Y1152700D03*
D11*
X-598000Y1141000D03*
X-556000Y1141000D03*
D12*
X-476000Y1138364D03*
X-476000Y1155636D03*
X-514000Y1138364D03*
X-514000Y1155636D03*
X-495000Y1138364D03*
X-495000Y1155636D03*
D13*
X-533000Y1148334D03*
X-533000Y1137666D03*
D14*
X-488505Y1120000D03*
X-475495Y1125080D03*
X-475495Y1114920D03*
D13*
X-460000Y1124334D03*
X-460000Y1113666D03*
D15*
X-444500Y1156500D03*
X-444500Y1147000D03*
X-444500Y1137500D03*
X-417500Y1137500D03*
X-417500Y1156500D03*
D13*
X-459000Y1152334D03*
X-459000Y1141666D03*
X-421000Y1113666D03*
X-421000Y1124334D03*
X-434000Y1124334D03*
X-434000Y1113666D03*
D16*
X-459000Y1102000D03*
X-459000Y1066000D03*
D13*
X-443000Y1086666D03*
X-443000Y1097334D03*
X-430000Y1086666D03*
X-430000Y1097334D03*
D17*
X-430666Y1073000D03*
X-441334Y1073000D03*
D18*
X-269730Y1163500D03*
X-263230Y1163500D03*
X-256730Y1163500D03*
X-250230Y1163500D03*
X-269730Y1104500D03*
X-263230Y1104500D03*
X-256730Y1104500D03*
X-250230Y1104500D03*
D10*
X-635000Y1285000D03*
X-647700Y1272300D03*
X-622300Y1272300D03*
X-622300Y1297700D03*
X-647700Y1297700D03*
D13*
X-566000Y1287334D03*
X-566000Y1276666D03*
X-512000Y1360334D03*
X-512000Y1349666D03*
D19*
X-493510Y1357000D03*
X-460490Y1357000D03*
D17*
X-380947Y1293005D03*
X-391615Y1293005D03*
X-382947Y1280005D03*
X-393615Y1280005D03*
D13*
X-407000Y1280334D03*
X-407000Y1269666D03*
X-348598Y1346263D03*
X-348598Y1356931D03*
X-362108Y1346263D03*
X-362108Y1356931D03*
X-348598Y1369123D03*
X-348598Y1379791D03*
X-362108Y1369123D03*
X-362108Y1379791D03*
X-442732Y1335847D03*
X-442732Y1325179D03*
D20*
X-593000Y1297430D03*
X-593000Y1274570D03*
D21*
X-465250Y1313000D03*
X-506750Y1313000D03*
D22*
X-421318Y1356263D03*
X-442146Y1356263D03*
D23*
X-394000Y1114000D03*
X-372000Y1123500D03*
X-372000Y1104500D03*
X-532000Y1114000D03*
X-510000Y1123500D03*
X-510000Y1104500D03*
D24*
X-521000Y1064750D03*
X-530500Y1086750D03*
X-511500Y1086750D03*
D25*
X-390263Y1343008D03*
X-390263Y1376028D03*
D13*
X-420513Y1335852D03*
X-420513Y1325184D03*
D26*
X-164387Y1352132D03*
X-151687Y1352132D03*
X-126287Y1352132D03*
X-113587Y1352132D03*
X-126287Y1339432D03*
X-113587Y1339432D03*
X-164387Y1326732D03*
X-151687Y1326732D03*
X-138987Y1326732D03*
X-126287Y1326732D03*
X-113587Y1326732D03*
X-164387Y1314032D03*
X-151687Y1314032D03*
X-138987Y1314032D03*
X-126287Y1314032D03*
X-113587Y1314032D03*
X-164387Y1301332D03*
X-151687Y1301332D03*
X-138987Y1301332D03*
X-126287Y1301332D03*
X-113587Y1301332D03*
X-164387Y1339432D03*
X-151687Y1339432D03*
X-138987Y1339432D03*
X-138987Y1352132D03*
D22*
X-96073Y1269982D03*
X-116901Y1269982D03*
D13*
X-135987Y1384566D03*
X-135987Y1373898D03*
D17*
X-101153Y1286482D03*
X-111821Y1286482D03*
D13*
X-108487Y1373898D03*
X-108487Y1384566D03*
X-122237Y1373898D03*
X-122237Y1384566D03*
X-149737Y1373898D03*
X-149737Y1384566D03*
D27*
X-212970Y1354000D03*
X-185030Y1354000D03*
X-213457Y1300232D03*
X-185517Y1300232D03*
D13*
X-309000Y1122334D03*
X-309000Y1111666D03*
X-447000Y1124334D03*
X-447000Y1113666D03*
D28*
X-600250Y1261000D03*
X-593750Y1261000D03*
D29*
X-546000Y1330500D03*
X-546000Y765000D03*
D30*
X-599500Y763750D03*
D31*
X-599500Y1330500D03*
D32*
X-609000Y865000D03*
X-609000Y1005000D03*
D33*
X-584000Y839000D03*
X-584000Y1031000D03*
D34*
X-584000Y1068000D03*
X-584000Y802000D03*
D35*
X-537000Y855625D03*
X-537000Y868325D03*
X-537000Y881025D03*
X-537000Y893725D03*
X-537000Y906425D03*
X-537000Y919125D03*
X-537000Y931825D03*
X-537000Y944525D03*
X-537000Y957225D03*
X-537000Y969925D03*
X-537000Y982625D03*
X-537000Y995325D03*
X-537000Y1008025D03*
X-537000Y861975D03*
X-537000Y874675D03*
X-537000Y887375D03*
X-537000Y900075D03*
X-537000Y912775D03*
X-537000Y925475D03*
X-537000Y938175D03*
X-537000Y950875D03*
X-537000Y963575D03*
X-537000Y976275D03*
X-537000Y988975D03*
X-537000Y1001675D03*
X-537000Y1014375D03*
D36*
X-427250Y958750D03*
X-427250Y952250D03*
X-427250Y945750D03*
X-427250Y939250D03*
X-427250Y932750D03*
X-427250Y926250D03*
X-427250Y919750D03*
X-427250Y913250D03*
X-427250Y906750D03*
X-427250Y900250D03*
X-427250Y893750D03*
X-427250Y887250D03*
X-427250Y880750D03*
X-427250Y874250D03*
X-427250Y867750D03*
X-427250Y861250D03*
X-427250Y854750D03*
X-427250Y848250D03*
X-427250Y841750D03*
X-427250Y835250D03*
D37*
X-412750Y820750D03*
X-406250Y820750D03*
X-399750Y820750D03*
X-393250Y820750D03*
X-386750Y820750D03*
X-380250Y820750D03*
X-373750Y820750D03*
X-367250Y820750D03*
X-360750Y820750D03*
X-354250Y820750D03*
X-347750Y820750D03*
X-341250Y820750D03*
X-334750Y820750D03*
X-328250Y820750D03*
X-321750Y820750D03*
X-315250Y820750D03*
X-308750Y820750D03*
X-302250Y820750D03*
X-295750Y820750D03*
X-289250Y820750D03*
D36*
X-274750Y835250D03*
X-274750Y841750D03*
X-274750Y848250D03*
X-274750Y854750D03*
X-274750Y861250D03*
X-274750Y867750D03*
X-274750Y874250D03*
X-274750Y880750D03*
X-274750Y887250D03*
X-274750Y893750D03*
X-274750Y900250D03*
X-274750Y906750D03*
X-274750Y913250D03*
X-274750Y919750D03*
X-274750Y926250D03*
X-274750Y932750D03*
X-274750Y939250D03*
X-274750Y945750D03*
X-274750Y952250D03*
X-274750Y958750D03*
D37*
X-289250Y973250D03*
X-295750Y973250D03*
X-302250Y973250D03*
X-308750Y973250D03*
X-315250Y973250D03*
X-321750Y973250D03*
X-328250Y973250D03*
X-334750Y973250D03*
X-341250Y973250D03*
X-347750Y973250D03*
X-354250Y973250D03*
X-360750Y973250D03*
X-367250Y973250D03*
X-373750Y973250D03*
X-380250Y973250D03*
X-386750Y973250D03*
X-393250Y973250D03*
X-399750Y973250D03*
X-406250Y973250D03*
X-412750Y973250D03*
D38*
X-483000Y1098000D03*
X-476500Y1098000D03*
X-489500Y1098000D03*
X-483000Y1080000D03*
X-476500Y1080000D03*
X-489500Y1080000D03*
D39*
X-95500Y890100D03*
X-95500Y877400D03*
X-95500Y864700D03*
X-95500Y852000D03*
X-95500Y839300D03*
X-95500Y826600D03*
X-95500Y813900D03*
X-108200Y890100D03*
X-120900Y890100D03*
X-133600Y890100D03*
X-146300Y890100D03*
X-159000Y890100D03*
X-171700Y890100D03*
X-197100Y890100D03*
X-209800Y890100D03*
X-222500Y890100D03*
X-108200Y877400D03*
X-120900Y877400D03*
X-133600Y877400D03*
X-146300Y877400D03*
X-159000Y877400D03*
X-171700Y877400D03*
X-197100Y877400D03*
X-209800Y877400D03*
X-222500Y877400D03*
X-108200Y864700D03*
X-120900Y864700D03*
X-133600Y864700D03*
X-146300Y864700D03*
X-159000Y864700D03*
X-171700Y864700D03*
X-197100Y864700D03*
X-209800Y864700D03*
X-222500Y864700D03*
X-108200Y852000D03*
X-120900Y852000D03*
X-133600Y852000D03*
X-146300Y852000D03*
X-159000Y852000D03*
X-171700Y852000D03*
X-108200Y839300D03*
X-120900Y839300D03*
X-133600Y839300D03*
X-146300Y839300D03*
X-159000Y839300D03*
X-171700Y839300D03*
X-184400Y839300D03*
X-197100Y839300D03*
X-209800Y839300D03*
X-222500Y839300D03*
X-108200Y826600D03*
X-120900Y826600D03*
X-133600Y826600D03*
X-146300Y826600D03*
X-159000Y826600D03*
X-171700Y826600D03*
X-184400Y826600D03*
X-197100Y826600D03*
X-209800Y826600D03*
X-222500Y826600D03*
X-108200Y813900D03*
X-120900Y813900D03*
X-133600Y813900D03*
X-146300Y813900D03*
X-159000Y813900D03*
X-171700Y813900D03*
X-184400Y890100D03*
X-184400Y877400D03*
X-184400Y864700D03*
X-184400Y852000D03*
X-184400Y813900D03*
X-197100Y852000D03*
X-209800Y852000D03*
X-222500Y852000D03*
X-222500Y813900D03*
X-209800Y813900D03*
X-197100Y813900D03*
D27*
X-135970Y928000D03*
X-108030Y928000D03*
X-188030Y929000D03*
X-215970Y929000D03*
D17*
X-107666Y904000D03*
X-118334Y904000D03*
X-185666Y904000D03*
X-196334Y904000D03*
D25*
X-68000Y830490D03*
X-68000Y863510D03*
X-249000Y834490D03*
X-249000Y867510D03*
D13*
X-356000Y1235334D03*
X-356000Y1224666D03*
X-369000Y1235334D03*
X-369000Y1224666D03*
X-72000Y1283334D03*
X-72000Y1272666D03*
X-77000Y939334D03*
X-77000Y928666D03*
D22*
X-136414Y971000D03*
X-115586Y971000D03*
D17*
X-134666Y989000D03*
X-145334Y989000D03*
X-119334Y1045000D03*
X-108666Y1045000D03*
X-142334Y1045000D03*
X-131666Y1045000D03*
D22*
X-131414Y1063000D03*
X-110586Y1063000D03*
D13*
X-90000Y939334D03*
X-90000Y928666D03*
X-170000Y940334D03*
X-170000Y929666D03*
D40*
X-449500Y812500D03*
X-449500Y807500D03*
X-449500Y802500D03*
D41*
X-449500Y796625D03*
D40*
X-449500Y827500D03*
X-449500Y822500D03*
X-449500Y817500D03*
D41*
X-449500Y833375D03*
D40*
X-464500Y817500D03*
X-464500Y822500D03*
X-464500Y827500D03*
D41*
X-464500Y833375D03*
D40*
X-464500Y802500D03*
X-464500Y807500D03*
X-464500Y812500D03*
D41*
X-464500Y796625D03*
D40*
X-449500Y863500D03*
X-449500Y858500D03*
X-449500Y853500D03*
D41*
X-449500Y847625D03*
D40*
X-449500Y878500D03*
X-449500Y873500D03*
X-449500Y868500D03*
D41*
X-449500Y884375D03*
D40*
X-464500Y868500D03*
X-464500Y873500D03*
X-464500Y878500D03*
D41*
X-464500Y884375D03*
D40*
X-464500Y853500D03*
X-464500Y858500D03*
X-464500Y863500D03*
D41*
X-464500Y847625D03*
D40*
X-449500Y976500D03*
X-449500Y971500D03*
X-449500Y966500D03*
D41*
X-449500Y960625D03*
D40*
X-449500Y991500D03*
X-449500Y986500D03*
X-449500Y981500D03*
D41*
X-449500Y997375D03*
D40*
X-464500Y981500D03*
X-464500Y986500D03*
X-464500Y991500D03*
D41*
X-464500Y997375D03*
D40*
X-464500Y966500D03*
X-464500Y971500D03*
X-464500Y976500D03*
D41*
X-464500Y960625D03*
D40*
X-449500Y926500D03*
X-449500Y921500D03*
X-449500Y916500D03*
D41*
X-449500Y910625D03*
D40*
X-449500Y941500D03*
X-449500Y936500D03*
X-449500Y931500D03*
D41*
X-449500Y947375D03*
D40*
X-464500Y931500D03*
X-464500Y936500D03*
X-464500Y941500D03*
D41*
X-464500Y947375D03*
D40*
X-464500Y916500D03*
X-464500Y921500D03*
X-464500Y926500D03*
D41*
X-464500Y910625D03*
D42*
X-131000Y1016000D03*
D43*
X-145500Y1012750D03*
X-145500Y1019250D03*
X-116500Y1019250D03*
X-116500Y1012750D03*
D38*
X-121250Y1030750D03*
X-127750Y1030750D03*
X-134250Y1030750D03*
X-140750Y1030750D03*
X-140750Y1001250D03*
X-134250Y1001250D03*
X-127750Y1001250D03*
X-121250Y1001250D03*
D22*
X-191414Y974000D03*
X-170586Y974000D03*
D17*
X-189666Y992000D03*
X-200334Y992000D03*
X-174334Y1048000D03*
X-163666Y1048000D03*
X-197334Y1048000D03*
X-186666Y1048000D03*
D22*
X-186414Y1066000D03*
X-165586Y1066000D03*
D42*
X-186000Y1019000D03*
D43*
X-200500Y1015750D03*
X-200500Y1022250D03*
X-171500Y1022250D03*
X-171500Y1015750D03*
D38*
X-176250Y1033750D03*
X-182750Y1033750D03*
X-189250Y1033750D03*
X-195750Y1033750D03*
X-195750Y1004250D03*
X-189250Y1004250D03*
X-182750Y1004250D03*
X-176250Y1004250D03*
D17*
G36*
X-338088Y1084959D02*
X-343503Y1079544D01*
X-349456Y1085497D01*
X-344041Y1090912D01*
X-338088Y1084959D01*
G37*
G36*
X-330544Y1092503D02*
X-335959Y1087088D01*
X-341912Y1093041D01*
X-336497Y1098456D01*
X-330544Y1092503D01*
G37*
D22*
X-216586Y974000D03*
X-237414Y974000D03*
D17*
X-245666Y992000D03*
X-256334Y992000D03*
X-230334Y1048000D03*
X-219666Y1048000D03*
X-253334Y1048000D03*
X-242666Y1048000D03*
D22*
X-210586Y1066000D03*
X-231414Y1066000D03*
D42*
X-242000Y1019000D03*
D43*
X-256500Y1015750D03*
X-256500Y1022250D03*
X-227500Y1022250D03*
X-227500Y1015750D03*
D38*
X-232250Y1033750D03*
X-238750Y1033750D03*
X-245250Y1033750D03*
X-251750Y1033750D03*
X-251750Y1004250D03*
X-245250Y1004250D03*
X-238750Y1004250D03*
X-232250Y1004250D03*
D17*
G36*
X-329088Y1075959D02*
X-334503Y1070544D01*
X-340456Y1076497D01*
X-335041Y1081912D01*
X-329088Y1075959D01*
G37*
G36*
X-321544Y1083503D02*
X-326959Y1078088D01*
X-332912Y1084041D01*
X-327497Y1089456D01*
X-321544Y1083503D01*
G37*
G36*
X-384912Y1076041D02*
X-379497Y1081456D01*
X-373544Y1075503D01*
X-378959Y1070088D01*
X-384912Y1076041D01*
G37*
G36*
X-392456Y1068497D02*
X-387041Y1073912D01*
X-381088Y1067959D01*
X-386503Y1062544D01*
X-392456Y1068497D01*
G37*
G36*
X-397088Y1051959D02*
X-402503Y1046544D01*
X-408456Y1052497D01*
X-403041Y1057912D01*
X-397088Y1051959D01*
G37*
G36*
X-389544Y1059503D02*
X-394959Y1054088D01*
X-400912Y1060041D01*
X-395497Y1065456D01*
X-389544Y1059503D01*
G37*
D44*
G36*
X-346562Y1001429D02*
X-349249Y998742D01*
X-355858Y1005351D01*
X-353171Y1008038D01*
X-346562Y1001429D01*
G37*
G36*
X-343027Y1004965D02*
X-345714Y1002278D01*
X-352323Y1008887D01*
X-349636Y1011574D01*
X-343027Y1004965D01*
G37*
G36*
X-339491Y1008500D02*
X-342178Y1005813D01*
X-348787Y1012422D01*
X-346100Y1015109D01*
X-339491Y1008500D01*
G37*
G36*
X-335955Y1012036D02*
X-338642Y1009349D01*
X-345251Y1015958D01*
X-342564Y1018645D01*
X-335955Y1012036D01*
G37*
G36*
X-332420Y1015571D02*
X-335107Y1012884D01*
X-341716Y1019493D01*
X-339029Y1022180D01*
X-332420Y1015571D01*
G37*
G36*
X-328884Y1019107D02*
X-331571Y1016420D01*
X-338180Y1023029D01*
X-335493Y1025716D01*
X-328884Y1019107D01*
G37*
G36*
X-325349Y1022642D02*
X-328036Y1019955D01*
X-334645Y1026564D01*
X-331958Y1029251D01*
X-325349Y1022642D01*
G37*
G36*
X-321813Y1026178D02*
X-324500Y1023491D01*
X-331109Y1030100D01*
X-328422Y1032787D01*
X-321813Y1026178D01*
G37*
G36*
X-318278Y1029714D02*
X-320965Y1027027D01*
X-327574Y1033636D01*
X-324887Y1036323D01*
X-318278Y1029714D01*
G37*
G36*
X-314742Y1033249D02*
X-317429Y1030562D01*
X-324038Y1037171D01*
X-321351Y1039858D01*
X-314742Y1033249D01*
G37*
G36*
X-321351Y1040142D02*
X-324038Y1042829D01*
X-317429Y1049438D01*
X-314742Y1046751D01*
X-321351Y1040142D01*
G37*
G36*
X-324887Y1043677D02*
X-327574Y1046364D01*
X-320965Y1052973D01*
X-318278Y1050286D01*
X-324887Y1043677D01*
G37*
G36*
X-328422Y1047213D02*
X-331109Y1049900D01*
X-324500Y1056509D01*
X-321813Y1053822D01*
X-328422Y1047213D01*
G37*
G36*
X-331958Y1050749D02*
X-334645Y1053436D01*
X-328036Y1060045D01*
X-325349Y1057358D01*
X-331958Y1050749D01*
G37*
G36*
X-335493Y1054284D02*
X-338180Y1056971D01*
X-331571Y1063580D01*
X-328884Y1060893D01*
X-335493Y1054284D01*
G37*
G36*
X-339029Y1057820D02*
X-341716Y1060507D01*
X-335107Y1067116D01*
X-332420Y1064429D01*
X-339029Y1057820D01*
G37*
G36*
X-342564Y1061355D02*
X-345251Y1064042D01*
X-338642Y1070651D01*
X-335955Y1067964D01*
X-342564Y1061355D01*
G37*
G36*
X-346100Y1064891D02*
X-348787Y1067578D01*
X-342178Y1074187D01*
X-339491Y1071500D01*
X-346100Y1064891D01*
G37*
G36*
X-349636Y1068426D02*
X-352323Y1071113D01*
X-345714Y1077722D01*
X-343027Y1075035D01*
X-349636Y1068426D01*
G37*
G36*
X-353171Y1071962D02*
X-355858Y1074649D01*
X-349249Y1081258D01*
X-346562Y1078571D01*
X-353171Y1071962D01*
G37*
G36*
X-356142Y1074649D02*
X-358829Y1071962D01*
X-365438Y1078571D01*
X-362751Y1081258D01*
X-356142Y1074649D01*
G37*
G36*
X-359677Y1071113D02*
X-362364Y1068426D01*
X-368973Y1075035D01*
X-366286Y1077722D01*
X-359677Y1071113D01*
G37*
G36*
X-363213Y1067578D02*
X-365900Y1064891D01*
X-372509Y1071500D01*
X-369822Y1074187D01*
X-363213Y1067578D01*
G37*
G36*
X-366749Y1064042D02*
X-369436Y1061355D01*
X-376045Y1067964D01*
X-373358Y1070651D01*
X-366749Y1064042D01*
G37*
G36*
X-370284Y1060507D02*
X-372971Y1057820D01*
X-379580Y1064429D01*
X-376893Y1067116D01*
X-370284Y1060507D01*
G37*
G36*
X-373820Y1056971D02*
X-376507Y1054284D01*
X-383116Y1060893D01*
X-380429Y1063580D01*
X-373820Y1056971D01*
G37*
G36*
X-377355Y1053436D02*
X-380042Y1050749D01*
X-386651Y1057358D01*
X-383964Y1060045D01*
X-377355Y1053436D01*
G37*
G36*
X-380891Y1049900D02*
X-383578Y1047213D01*
X-390187Y1053822D01*
X-387500Y1056509D01*
X-380891Y1049900D01*
G37*
G36*
X-384426Y1046364D02*
X-387113Y1043677D01*
X-393722Y1050286D01*
X-391035Y1052973D01*
X-384426Y1046364D01*
G37*
G36*
X-387962Y1042829D02*
X-390649Y1040142D01*
X-397258Y1046751D01*
X-394571Y1049438D01*
X-387962Y1042829D01*
G37*
G36*
X-394571Y1030562D02*
X-397258Y1033249D01*
X-390649Y1039858D01*
X-387962Y1037171D01*
X-394571Y1030562D01*
G37*
G36*
X-391035Y1027027D02*
X-393722Y1029714D01*
X-387113Y1036323D01*
X-384426Y1033636D01*
X-391035Y1027027D01*
G37*
G36*
X-387500Y1023491D02*
X-390187Y1026178D01*
X-383578Y1032787D01*
X-380891Y1030100D01*
X-387500Y1023491D01*
G37*
G36*
X-383964Y1019955D02*
X-386651Y1022642D01*
X-380042Y1029251D01*
X-377355Y1026564D01*
X-383964Y1019955D01*
G37*
G36*
X-380429Y1016420D02*
X-383116Y1019107D01*
X-376507Y1025716D01*
X-373820Y1023029D01*
X-380429Y1016420D01*
G37*
G36*
X-376893Y1012884D02*
X-379580Y1015571D01*
X-372971Y1022180D01*
X-370284Y1019493D01*
X-376893Y1012884D01*
G37*
G36*
X-373358Y1009349D02*
X-376045Y1012036D01*
X-369436Y1018645D01*
X-366749Y1015958D01*
X-373358Y1009349D01*
G37*
G36*
X-369822Y1005813D02*
X-372509Y1008500D01*
X-365900Y1015109D01*
X-363213Y1012422D01*
X-369822Y1005813D01*
G37*
G36*
X-366286Y1002278D02*
X-368973Y1004965D01*
X-362364Y1011574D01*
X-359677Y1008887D01*
X-366286Y1002278D01*
G37*
G36*
X-362751Y998742D02*
X-365438Y1001429D01*
X-358829Y1008038D01*
X-356142Y1005351D01*
X-362751Y998742D01*
G37*
D45*
G36*
X-356000Y1073092D02*
X-322908Y1040000D01*
X-356000Y1006908D01*
X-389092Y1040000D01*
X-356000Y1073092D01*
G37*
D46*
X-320Y1369960D03*
X-320Y740040D03*
D26*
X-11750Y807350D03*
X950Y807350D03*
X39050Y807350D03*
X51750Y807350D03*
D47*
X20000Y783347D03*
X-10500Y1326907D03*
D26*
X13650Y807350D03*
X26350Y807350D03*
X64450Y807350D03*
X77150Y807350D03*
X-24450Y807350D03*
X-37150Y807350D03*
X-11750Y820050D03*
X950Y820050D03*
X39050Y820050D03*
X51750Y820050D03*
X13650Y820050D03*
X26350Y820050D03*
X64450Y820050D03*
X77150Y820050D03*
X-24450Y820050D03*
X-37150Y820050D03*
X-11750Y832750D03*
X950Y832750D03*
X39050Y832750D03*
X51750Y832750D03*
X13650Y832750D03*
X26350Y832750D03*
X64450Y832750D03*
X77150Y832750D03*
X-24450Y832750D03*
X-37150Y832750D03*
X-11750Y845450D03*
X950Y845450D03*
X39050Y845450D03*
X51750Y845450D03*
X13650Y845450D03*
X26350Y845450D03*
X64450Y845450D03*
X77150Y845450D03*
X-24450Y845450D03*
X-37150Y845450D03*
X-11750Y858150D03*
X950Y858150D03*
X39050Y858150D03*
X51750Y858150D03*
X13650Y858150D03*
X26350Y858150D03*
X64450Y858150D03*
X77150Y858150D03*
X-24450Y858150D03*
X-37150Y858150D03*
X-11750Y870850D03*
X950Y870850D03*
X39050Y870850D03*
X51750Y870850D03*
X13650Y870850D03*
X26350Y870850D03*
X64450Y870850D03*
X77150Y870850D03*
X-24450Y870850D03*
X-37150Y870850D03*
X-11750Y883550D03*
X950Y883550D03*
X39050Y883550D03*
X51750Y883550D03*
X13650Y883550D03*
X26350Y883550D03*
X64450Y883550D03*
X77150Y883550D03*
X-24450Y883550D03*
X-37150Y883550D03*
X-11750Y896250D03*
X950Y896250D03*
X39050Y896250D03*
X51750Y896250D03*
X13650Y896250D03*
X26350Y896250D03*
X64450Y896250D03*
X77150Y896250D03*
X-24450Y896250D03*
X-37150Y896250D03*
X-11750Y908950D03*
X950Y908950D03*
X39050Y908950D03*
X51750Y908950D03*
X13650Y908950D03*
X26350Y908950D03*
X64450Y908950D03*
X77150Y908950D03*
X-24450Y908950D03*
X-37150Y908950D03*
X-11750Y921650D03*
X950Y921650D03*
X39050Y921650D03*
X51750Y921650D03*
X13650Y921650D03*
X26350Y921650D03*
X64450Y921650D03*
X77150Y921650D03*
X-24450Y921650D03*
X-37150Y921650D03*
X-11750Y934350D03*
X950Y934350D03*
X39050Y934350D03*
X51750Y934350D03*
X13650Y934350D03*
X26350Y934350D03*
X64450Y934350D03*
X77150Y934350D03*
X-24450Y934350D03*
X-37150Y934350D03*
X-11750Y947050D03*
X950Y947050D03*
X39050Y947050D03*
X51750Y947050D03*
X13650Y947050D03*
X26350Y947050D03*
X64450Y947050D03*
X77150Y947050D03*
X-24450Y947050D03*
X-37150Y947050D03*
X-11750Y959750D03*
X950Y959750D03*
X39050Y959750D03*
X51750Y959750D03*
X13650Y959750D03*
X26350Y959750D03*
X64450Y959750D03*
X77150Y959750D03*
X-24450Y959750D03*
X-37150Y959750D03*
X-11750Y972450D03*
X950Y972450D03*
X39050Y972450D03*
X51750Y972450D03*
X13650Y972450D03*
X26350Y972450D03*
X64450Y972450D03*
X77150Y972450D03*
X-24450Y972450D03*
X-37150Y972450D03*
X-11750Y985150D03*
X950Y985150D03*
X39050Y985150D03*
X51750Y985150D03*
X13650Y985150D03*
X26350Y985150D03*
X64450Y985150D03*
X77150Y985150D03*
X-24450Y985150D03*
X-37150Y985150D03*
X-11750Y997850D03*
X950Y997850D03*
X39050Y997850D03*
X51750Y997850D03*
X13650Y997850D03*
X26350Y997850D03*
X64450Y997850D03*
X77150Y997850D03*
X-24450Y997850D03*
X-37150Y997850D03*
X-11750Y1010550D03*
X950Y1010550D03*
X39050Y1010550D03*
X51750Y1010550D03*
X13650Y1010550D03*
X26350Y1010550D03*
X64450Y1010550D03*
X77150Y1010550D03*
X-24450Y1010550D03*
X-37150Y1010550D03*
X-11750Y1023250D03*
X950Y1023250D03*
X39050Y1023250D03*
X51750Y1023250D03*
X13650Y1023250D03*
X26350Y1023250D03*
X64450Y1023250D03*
X77150Y1023250D03*
X-24450Y1023250D03*
X-37150Y1023250D03*
X-11750Y1035950D03*
X950Y1035950D03*
X39050Y1035950D03*
X51750Y1035950D03*
X13650Y1035950D03*
X26350Y1035950D03*
X64450Y1035950D03*
X77150Y1035950D03*
X-24450Y1035950D03*
X-37150Y1035950D03*
X-11750Y1048650D03*
X950Y1048650D03*
X39050Y1048650D03*
X51750Y1048650D03*
X13650Y1048650D03*
X26350Y1048650D03*
X64450Y1048650D03*
X77150Y1048650D03*
X-24450Y1048650D03*
X-37150Y1048650D03*
X-11750Y1061350D03*
X950Y1061350D03*
X39050Y1061350D03*
X51750Y1061350D03*
X13650Y1061350D03*
X26350Y1061350D03*
X64450Y1061350D03*
X77150Y1061350D03*
X-24450Y1061350D03*
X-37150Y1061350D03*
X-11750Y1074050D03*
X950Y1074050D03*
X39050Y1074050D03*
X51750Y1074050D03*
X13650Y1074050D03*
X26350Y1074050D03*
X64450Y1074050D03*
X77150Y1074050D03*
X-24450Y1074050D03*
X-37150Y1074050D03*
X-11750Y1086750D03*
X950Y1086750D03*
X39050Y1086750D03*
X51750Y1086750D03*
X13650Y1086750D03*
X26350Y1086750D03*
X64450Y1086750D03*
X77150Y1086750D03*
X-24450Y1086750D03*
X-37150Y1086750D03*
X-11750Y1099450D03*
X950Y1099450D03*
X39050Y1099450D03*
X51750Y1099450D03*
X13650Y1099450D03*
X26350Y1099450D03*
X64450Y1099450D03*
X77150Y1099450D03*
X-24450Y1099450D03*
X-37150Y1099450D03*
X-11750Y1112150D03*
X950Y1112150D03*
X39050Y1112150D03*
X51750Y1112150D03*
X13650Y1112150D03*
X26350Y1112150D03*
X64450Y1112150D03*
X77150Y1112150D03*
X-24450Y1112150D03*
X-37150Y1112150D03*
X-11750Y1124850D03*
X950Y1124850D03*
X39050Y1124850D03*
X51750Y1124850D03*
X13650Y1124850D03*
X26350Y1124850D03*
X64450Y1124850D03*
X77150Y1124850D03*
X-24450Y1124850D03*
X-37150Y1124850D03*
X-11750Y1137550D03*
X950Y1137550D03*
X39050Y1137550D03*
X51750Y1137550D03*
X13650Y1137550D03*
X26350Y1137550D03*
X64450Y1137550D03*
X77150Y1137550D03*
X-24450Y1137550D03*
X-37150Y1137550D03*
X-11750Y1150250D03*
X950Y1150250D03*
X39050Y1150250D03*
X51750Y1150250D03*
X13650Y1150250D03*
X26350Y1150250D03*
X64450Y1150250D03*
X77150Y1150250D03*
X-24450Y1150250D03*
X-37150Y1150250D03*
X-11750Y1162950D03*
X950Y1162950D03*
X39050Y1162950D03*
X51750Y1162950D03*
X13650Y1162950D03*
X26350Y1162950D03*
X64450Y1162950D03*
X77150Y1162950D03*
X-24450Y1162950D03*
X-37150Y1162950D03*
X-11750Y1175650D03*
X950Y1175650D03*
X39050Y1175650D03*
X51750Y1175650D03*
X13650Y1175650D03*
X26350Y1175650D03*
X64450Y1175650D03*
X77150Y1175650D03*
X-24450Y1175650D03*
X-37150Y1175650D03*
X-11750Y1188350D03*
X950Y1188350D03*
X39050Y1188350D03*
X51750Y1188350D03*
X13650Y1188350D03*
X26350Y1188350D03*
X64450Y1188350D03*
X77150Y1188350D03*
X-24450Y1188350D03*
X-37150Y1188350D03*
X-11750Y1201050D03*
X950Y1201050D03*
X39050Y1201050D03*
X51750Y1201050D03*
X13650Y1201050D03*
X26350Y1201050D03*
X64450Y1201050D03*
X77150Y1201050D03*
X-24450Y1201050D03*
X-37150Y1201050D03*
X-11750Y1213750D03*
X950Y1213750D03*
X39050Y1213750D03*
X51750Y1213750D03*
X13650Y1213750D03*
X26350Y1213750D03*
X64450Y1213750D03*
X77150Y1213750D03*
X-24450Y1213750D03*
X-37150Y1213750D03*
X-11750Y1226450D03*
X950Y1226450D03*
X39050Y1226450D03*
X51750Y1226450D03*
X13650Y1226450D03*
X26350Y1226450D03*
X64450Y1226450D03*
X77150Y1226450D03*
X-24450Y1226450D03*
X-37150Y1226450D03*
X-11750Y1239150D03*
X950Y1239150D03*
X39050Y1239150D03*
X51750Y1239150D03*
X13650Y1239150D03*
X26350Y1239150D03*
X64450Y1239150D03*
X77150Y1239150D03*
X-24450Y1239150D03*
X-37150Y1239150D03*
X-11750Y1251850D03*
X950Y1251850D03*
X39050Y1251850D03*
X51750Y1251850D03*
X13650Y1251850D03*
X26350Y1251850D03*
X64450Y1251850D03*
X77150Y1251850D03*
X-24450Y1251850D03*
X-37150Y1251850D03*
X-11750Y1264550D03*
X950Y1264550D03*
X39050Y1264550D03*
X51750Y1264550D03*
X13650Y1264550D03*
X26350Y1264550D03*
X64450Y1264550D03*
X77150Y1264550D03*
X-24450Y1264550D03*
X-37150Y1264550D03*
X-11750Y1277250D03*
X950Y1277250D03*
X39050Y1277250D03*
X51750Y1277250D03*
X13650Y1277250D03*
X26350Y1277250D03*
X64450Y1277250D03*
X77150Y1277250D03*
X-24450Y1277250D03*
X-37150Y1277250D03*
X-11750Y1289950D03*
X950Y1289950D03*
X39050Y1289950D03*
X51750Y1289950D03*
X13650Y1289950D03*
X26350Y1289950D03*
X64450Y1289950D03*
X77150Y1289950D03*
X-24450Y1289950D03*
X-37150Y1289950D03*
X-11750Y1302650D03*
X950Y1302650D03*
X39050Y1302650D03*
X51750Y1302650D03*
X13650Y1302650D03*
X26350Y1302650D03*
X64450Y1302650D03*
X77150Y1302650D03*
X-24450Y1302650D03*
X-37150Y1302650D03*
D48*
X-32000Y1393750D03*
X-32000Y1387250D03*
X-32000Y1380750D03*
X-32000Y1374250D03*
X-32000Y1367750D03*
X-32000Y1361250D03*
X-32000Y1354750D03*
X-32000Y1348250D03*
X-92000Y1393750D03*
X-92000Y1387250D03*
X-92000Y1380750D03*
X-92000Y1374250D03*
X-92000Y1367750D03*
X-92000Y1361250D03*
X-92000Y1354750D03*
X-92000Y1348250D03*
D13*
X-72000Y1306666D03*
X-72000Y1317334D03*
D10*
X-635000Y1235000D03*
X-647700Y1222300D03*
X-622300Y1222300D03*
X-622300Y1247700D03*
X-647700Y1247700D03*
D13*
X-565000Y1226334D03*
X-565000Y1215666D03*
D17*
X-548666Y1247000D03*
X-559334Y1247000D03*
D25*
X-458000Y1215490D03*
X-458000Y1248510D03*
D17*
X-184166Y1164000D03*
X-194834Y1164000D03*
X-179666Y1151000D03*
X-190334Y1151000D03*
X-202666Y1151000D03*
X-213334Y1151000D03*
D13*
X-152000Y1217666D03*
X-152000Y1228334D03*
X-165000Y1217666D03*
X-165000Y1228334D03*
X-152000Y1239666D03*
X-152000Y1250334D03*
X-165000Y1239666D03*
X-165000Y1250334D03*
X-437000Y1240666D03*
X-437000Y1251334D03*
D20*
X-592000Y1243430D03*
X-592000Y1220570D03*
D21*
X-484250Y1234000D03*
X-525750Y1234000D03*
D22*
X-416586Y1217000D03*
X-437414Y1217000D03*
D19*
X-420510Y1244000D03*
X-387490Y1244000D03*
D28*
X-598250Y1207000D03*
X-591750Y1207000D03*
D13*
X-153000Y1108334D03*
X-153000Y1097666D03*
X-167000Y1108334D03*
X-167000Y1097666D03*
D49*
X-86800Y755600D03*
D50*
X-62800Y738100D03*
X-62800Y743100D03*
X-62800Y748100D03*
X-62800Y753100D03*
X-62800Y758100D03*
X-62800Y763100D03*
X-62800Y768100D03*
X-62800Y773100D03*
D51*
X-69300Y779600D03*
X-74300Y779600D03*
X-79300Y779600D03*
X-84300Y779600D03*
X-89300Y779600D03*
X-94300Y779600D03*
X-99300Y779600D03*
X-104300Y779600D03*
D50*
X-110800Y773100D03*
X-110800Y768100D03*
X-110800Y763100D03*
X-110800Y758100D03*
X-110800Y753100D03*
X-110800Y748100D03*
X-110800Y743100D03*
X-110800Y738100D03*
D51*
X-104300Y731600D03*
X-99300Y731600D03*
X-94300Y731600D03*
X-89300Y731600D03*
X-84300Y731600D03*
X-79300Y731600D03*
X-74300Y731600D03*
X-69300Y731600D03*
D17*
X-72166Y721800D03*
X-82834Y721800D03*
X-92734Y794200D03*
X-82066Y794200D03*
D52*
X-287000Y763750D03*
X-287000Y757250D03*
X-287000Y750750D03*
X-287000Y744250D03*
X-287000Y737750D03*
X-287000Y731250D03*
X-287000Y724750D03*
X-287000Y718250D03*
X-343000Y763750D03*
X-343000Y757250D03*
X-343000Y750750D03*
X-343000Y744250D03*
X-343000Y737750D03*
X-343000Y731250D03*
X-343000Y724750D03*
X-343000Y718250D03*
D53*
X-275000Y788750D03*
X-275000Y782250D03*
X-275000Y795250D03*
X-275000Y801750D03*
X-317000Y801750D03*
X-317000Y795250D03*
X-317000Y788750D03*
X-317000Y782250D03*
D54*
X-296000Y792000D03*
D55*
X-493000Y999000D03*
D56*
X-512254Y1008750D03*
X-512254Y1002250D03*
X-512254Y995750D03*
X-512254Y989250D03*
D57*
X-502750Y979746D03*
X-496250Y979746D03*
X-489750Y979746D03*
X-483250Y979746D03*
D56*
X-473746Y989250D03*
X-473746Y995750D03*
X-473746Y1002250D03*
X-473746Y1008750D03*
D57*
X-483250Y1018254D03*
X-489750Y1018254D03*
X-496250Y1018254D03*
X-502750Y1018254D03*
D55*
X-493000Y930000D03*
D56*
X-512254Y939750D03*
X-512254Y933250D03*
X-512254Y926750D03*
X-512254Y920250D03*
D57*
X-502750Y910746D03*
X-496250Y910746D03*
X-489750Y910746D03*
X-483250Y910746D03*
D56*
X-473746Y920250D03*
X-473746Y926750D03*
X-473746Y933250D03*
X-473746Y939750D03*
D57*
X-483250Y949254D03*
X-489750Y949254D03*
X-496250Y949254D03*
X-502750Y949254D03*
D55*
X-494000Y862000D03*
D56*
X-513254Y871750D03*
X-513254Y865250D03*
X-513254Y858750D03*
X-513254Y852250D03*
D57*
X-503750Y842746D03*
X-497250Y842746D03*
X-490750Y842746D03*
X-484250Y842746D03*
D56*
X-474746Y852250D03*
X-474746Y858750D03*
X-474746Y865250D03*
X-474746Y871750D03*
D57*
X-484250Y881254D03*
X-490750Y881254D03*
X-497250Y881254D03*
X-503750Y881254D03*
D17*
X-202334Y1109000D03*
X-191666Y1109000D03*
X-202334Y1123000D03*
X-191666Y1123000D03*
X-259334Y1217000D03*
X-248666Y1217000D03*
X-259334Y1204000D03*
X-248666Y1204000D03*
D27*
X-226970Y1261500D03*
X-199030Y1261500D03*
D58*
X-243000Y1350030D03*
X-243000Y1377970D03*
D59*
X-353500Y1249000D03*
D60*
X-326000Y1283000D03*
D59*
X-348500Y1249000D03*
X-343500Y1249000D03*
X-338500Y1249000D03*
X-333500Y1249000D03*
X-328500Y1249000D03*
X-323500Y1249000D03*
X-318500Y1249000D03*
X-313500Y1249000D03*
X-308500Y1249000D03*
X-303500Y1249000D03*
X-298500Y1249000D03*
D61*
X-292000Y1255500D03*
X-292000Y1260500D03*
X-292000Y1265500D03*
X-292000Y1270500D03*
X-292000Y1275500D03*
X-292000Y1280500D03*
X-292000Y1285500D03*
X-292000Y1290500D03*
X-292000Y1295500D03*
X-292000Y1300500D03*
X-292000Y1305500D03*
X-292000Y1310500D03*
D59*
X-298500Y1317000D03*
X-303500Y1317000D03*
X-308500Y1317000D03*
X-313500Y1317000D03*
X-318500Y1317000D03*
X-323500Y1317000D03*
X-328500Y1317000D03*
X-333500Y1317000D03*
X-338500Y1317000D03*
X-343500Y1317000D03*
X-348500Y1317000D03*
X-353500Y1317000D03*
D61*
X-360000Y1310500D03*
X-360000Y1305500D03*
X-360000Y1300500D03*
X-360000Y1295500D03*
X-360000Y1290500D03*
X-360000Y1285500D03*
X-360000Y1280500D03*
X-360000Y1275500D03*
X-360000Y1270500D03*
X-360000Y1265500D03*
X-360000Y1260500D03*
X-360000Y1255500D03*
D17*
X-356334Y1330000D03*
X-345666Y1330000D03*
D25*
X-302500Y1378510D03*
X-302500Y1345490D03*
D62*
X-328000Y1356914D03*
X-328000Y1336086D03*
D59*
X-159500Y1121500D03*
D60*
X-132000Y1155500D03*
D59*
X-154500Y1121500D03*
X-149500Y1121500D03*
X-144500Y1121500D03*
X-139500Y1121500D03*
X-134500Y1121500D03*
X-129500Y1121500D03*
X-124500Y1121500D03*
X-119500Y1121500D03*
X-114500Y1121500D03*
X-109500Y1121500D03*
X-104500Y1121500D03*
D61*
X-98000Y1128000D03*
X-98000Y1133000D03*
X-98000Y1138000D03*
X-98000Y1143000D03*
X-98000Y1148000D03*
X-98000Y1153000D03*
X-98000Y1158000D03*
X-98000Y1163000D03*
X-98000Y1168000D03*
X-98000Y1173000D03*
X-98000Y1178000D03*
X-98000Y1183000D03*
D59*
X-104500Y1189500D03*
X-109500Y1189500D03*
X-114500Y1189500D03*
X-119500Y1189500D03*
X-124500Y1189500D03*
X-129500Y1189500D03*
X-134500Y1189500D03*
X-139500Y1189500D03*
X-144500Y1189500D03*
X-149500Y1189500D03*
X-154500Y1189500D03*
X-159500Y1189500D03*
D61*
X-166000Y1183000D03*
X-166000Y1178000D03*
X-166000Y1173000D03*
X-166000Y1168000D03*
X-166000Y1163000D03*
X-166000Y1158000D03*
X-166000Y1153000D03*
X-166000Y1148000D03*
X-166000Y1143000D03*
X-166000Y1138000D03*
X-166000Y1133000D03*
X-166000Y1128000D03*
D17*
X-161834Y1200400D03*
X-151166Y1200400D03*
D25*
X-109500Y1248510D03*
X-109500Y1215490D03*
D62*
X-135500Y1229914D03*
X-135500Y1209086D03*
D27*
X73970Y1370000D03*
X46030Y1370000D03*
X73970Y740000D03*
X46030Y740000D03*
D63*
X-161925Y774925D03*
D64*
X-161925Y787625D03*
X-174625Y774925D03*
X-174625Y787625D03*
X-187325Y774925D03*
X-187325Y787625D03*
X-200025Y774925D03*
X-200025Y787625D03*
X-212725Y774925D03*
X-212725Y787625D03*
D65*
X-70000Y986000D03*
X-70000Y994000D03*
X-70000Y1002000D03*
X-70000Y1010000D03*
X-70000Y1018000D03*
X-70000Y1026000D03*
X-70000Y1034000D03*
X-70000Y1042000D03*
D66*
X-84000Y973000D03*
X-84000Y1055000D03*
D10*
X180000Y1185000D03*
X167300Y1172300D03*
X192700Y1172300D03*
X192700Y1197700D03*
X167300Y1197700D03*
X180000Y1095000D03*
X167300Y1082300D03*
X192700Y1082300D03*
X192700Y1107700D03*
X167300Y1107700D03*
D11*
X217000Y1103000D03*
X259000Y1103000D03*
X217000Y1179000D03*
X259000Y1179000D03*
D12*
X438000Y1138364D03*
X438000Y1155636D03*
X457000Y1138364D03*
X457000Y1155636D03*
X476000Y1138364D03*
X476000Y1155636D03*
D13*
X421000Y1152334D03*
X421000Y1141666D03*
D14*
X463495Y1120000D03*
X476505Y1125080D03*
X476505Y1114920D03*
D13*
X493000Y1122334D03*
X493000Y1111666D03*
D15*
X507500Y1156500D03*
X507500Y1147000D03*
X507500Y1137500D03*
X534500Y1137500D03*
X534500Y1156500D03*
D13*
X493000Y1152334D03*
X493000Y1141666D03*
X532000Y1111666D03*
X532000Y1122334D03*
X519000Y1122334D03*
X519000Y1111666D03*
D10*
X180000Y1140000D03*
X167300Y1127300D03*
X192700Y1127300D03*
X192700Y1152700D03*
X167300Y1152700D03*
D11*
X217000Y1141000D03*
X259000Y1141000D03*
D12*
X339000Y1138364D03*
X339000Y1155636D03*
X301000Y1138364D03*
X301000Y1155636D03*
X320000Y1138364D03*
X320000Y1155636D03*
D13*
X282000Y1148334D03*
X282000Y1137666D03*
D14*
X326495Y1120000D03*
X339505Y1125080D03*
X339505Y1114920D03*
D13*
X355000Y1124334D03*
X355000Y1113666D03*
D15*
X370500Y1156500D03*
X370500Y1147000D03*
X370500Y1137500D03*
X397500Y1137500D03*
X397500Y1156500D03*
D13*
X356000Y1152334D03*
X356000Y1141666D03*
X394000Y1113666D03*
X394000Y1124334D03*
X381000Y1124334D03*
X381000Y1113666D03*
D16*
X356000Y1102000D03*
X356000Y1066000D03*
D13*
X372000Y1086666D03*
X372000Y1097334D03*
X385000Y1086666D03*
X385000Y1097334D03*
D17*
X384334Y1073000D03*
X373666Y1073000D03*
D18*
X545270Y1163500D03*
X551770Y1163500D03*
X558270Y1163500D03*
X564770Y1163500D03*
X545270Y1104500D03*
X551770Y1104500D03*
X558270Y1104500D03*
X564770Y1104500D03*
D10*
X180000Y1285000D03*
X167300Y1272300D03*
X192700Y1272300D03*
X192700Y1297700D03*
X167300Y1297700D03*
D13*
X249000Y1287334D03*
X249000Y1276666D03*
X303000Y1360334D03*
X303000Y1349666D03*
D19*
X321490Y1357000D03*
X354510Y1357000D03*
D17*
X434053Y1293005D03*
X423385Y1293005D03*
X432053Y1280005D03*
X421385Y1280005D03*
D13*
X408000Y1280334D03*
X408000Y1269666D03*
X466402Y1346263D03*
X466402Y1356931D03*
X452892Y1346263D03*
X452892Y1356931D03*
X466402Y1369123D03*
X466402Y1379791D03*
X452892Y1369123D03*
X452892Y1379791D03*
X372268Y1335847D03*
X372268Y1325179D03*
D20*
X222000Y1297430D03*
X222000Y1274570D03*
D21*
X349750Y1313000D03*
X308250Y1313000D03*
D22*
X393682Y1356263D03*
X372854Y1356263D03*
D23*
X421000Y1114000D03*
X443000Y1123500D03*
X443000Y1104500D03*
X283000Y1114000D03*
X305000Y1123500D03*
X305000Y1104500D03*
D24*
X294000Y1064750D03*
X284500Y1086750D03*
X303500Y1086750D03*
D25*
X424737Y1343008D03*
X424737Y1376028D03*
D13*
X394487Y1335852D03*
X394487Y1325184D03*
D26*
X650613Y1352132D03*
X663313Y1352132D03*
X688713Y1352132D03*
X701413Y1352132D03*
X688713Y1339432D03*
X701413Y1339432D03*
X650613Y1326732D03*
X663313Y1326732D03*
X676013Y1326732D03*
X688713Y1326732D03*
X701413Y1326732D03*
X650613Y1314032D03*
X663313Y1314032D03*
X676013Y1314032D03*
X688713Y1314032D03*
X701413Y1314032D03*
X650613Y1301332D03*
X663313Y1301332D03*
X676013Y1301332D03*
X688713Y1301332D03*
X701413Y1301332D03*
X650613Y1339432D03*
X663313Y1339432D03*
X676013Y1339432D03*
X676013Y1352132D03*
D22*
X718927Y1269982D03*
X698099Y1269982D03*
D13*
X679013Y1384566D03*
X679013Y1373898D03*
D17*
X713847Y1286482D03*
X703179Y1286482D03*
D13*
X706513Y1373898D03*
X706513Y1384566D03*
X692763Y1373898D03*
X692763Y1384566D03*
X665263Y1373898D03*
X665263Y1384566D03*
D27*
X602030Y1354000D03*
X629970Y1354000D03*
X601543Y1300232D03*
X629483Y1300232D03*
D13*
X506000Y1122334D03*
X506000Y1111666D03*
X368000Y1124334D03*
X368000Y1113666D03*
D28*
X214750Y1261000D03*
X221250Y1261000D03*
D29*
X269000Y1330500D03*
X269000Y765000D03*
D30*
X215500Y763750D03*
D31*
X215500Y1330500D03*
D32*
X206000Y865000D03*
X206000Y1005000D03*
D33*
X231000Y839000D03*
X231000Y1031000D03*
D34*
X231000Y1068000D03*
X231000Y802000D03*
D35*
X278000Y855625D03*
X278000Y868325D03*
X278000Y881025D03*
X278000Y893725D03*
X278000Y906425D03*
X278000Y919125D03*
X278000Y931825D03*
X278000Y944525D03*
X278000Y957225D03*
X278000Y969925D03*
X278000Y982625D03*
X278000Y995325D03*
X278000Y1008025D03*
X278000Y861975D03*
X278000Y874675D03*
X278000Y887375D03*
X278000Y900075D03*
X278000Y912775D03*
X278000Y925475D03*
X278000Y938175D03*
X278000Y950875D03*
X278000Y963575D03*
X278000Y976275D03*
X278000Y988975D03*
X278000Y1001675D03*
X278000Y1014375D03*
D36*
X387750Y958750D03*
X387750Y952250D03*
X387750Y945750D03*
X387750Y939250D03*
X387750Y932750D03*
X387750Y926250D03*
X387750Y919750D03*
X387750Y913250D03*
X387750Y906750D03*
X387750Y900250D03*
X387750Y893750D03*
X387750Y887250D03*
X387750Y880750D03*
X387750Y874250D03*
X387750Y867750D03*
X387750Y861250D03*
X387750Y854750D03*
X387750Y848250D03*
X387750Y841750D03*
X387750Y835250D03*
D37*
X402250Y820750D03*
X408750Y820750D03*
X415250Y820750D03*
X421750Y820750D03*
X428250Y820750D03*
X434750Y820750D03*
X441250Y820750D03*
X447750Y820750D03*
X454250Y820750D03*
X460750Y820750D03*
X467250Y820750D03*
X473750Y820750D03*
X480250Y820750D03*
X486750Y820750D03*
X493250Y820750D03*
X499750Y820750D03*
X506250Y820750D03*
X512750Y820750D03*
X519250Y820750D03*
X525750Y820750D03*
D36*
X540250Y835250D03*
X540250Y841750D03*
X540250Y848250D03*
X540250Y854750D03*
X540250Y861250D03*
X540250Y867750D03*
X540250Y874250D03*
X540250Y880750D03*
X540250Y887250D03*
X540250Y893750D03*
X540250Y900250D03*
X540250Y906750D03*
X540250Y913250D03*
X540250Y919750D03*
X540250Y926250D03*
X540250Y932750D03*
X540250Y939250D03*
X540250Y945750D03*
X540250Y952250D03*
X540250Y958750D03*
D37*
X525750Y973250D03*
X519250Y973250D03*
X512750Y973250D03*
X506250Y973250D03*
X499750Y973250D03*
X493250Y973250D03*
X486750Y973250D03*
X480250Y973250D03*
X473750Y973250D03*
X467250Y973250D03*
X460750Y973250D03*
X454250Y973250D03*
X447750Y973250D03*
X441250Y973250D03*
X434750Y973250D03*
X428250Y973250D03*
X421750Y973250D03*
X415250Y973250D03*
X408750Y973250D03*
X402250Y973250D03*
D38*
X332000Y1098000D03*
X338500Y1098000D03*
X325500Y1098000D03*
X332000Y1080000D03*
X338500Y1080000D03*
X325500Y1080000D03*
D39*
X719500Y890100D03*
X719500Y877400D03*
X719500Y864700D03*
X719500Y852000D03*
X719500Y839300D03*
X719500Y826600D03*
X719500Y813900D03*
X706800Y890100D03*
X694100Y890100D03*
X681400Y890100D03*
X668700Y890100D03*
X656000Y890100D03*
X643300Y890100D03*
X617900Y890100D03*
X605200Y890100D03*
X592500Y890100D03*
X706800Y877400D03*
X694100Y877400D03*
X681400Y877400D03*
X668700Y877400D03*
X656000Y877400D03*
X643300Y877400D03*
X617900Y877400D03*
X605200Y877400D03*
X592500Y877400D03*
X706800Y864700D03*
X694100Y864700D03*
X681400Y864700D03*
X668700Y864700D03*
X656000Y864700D03*
X643300Y864700D03*
X617900Y864700D03*
X605200Y864700D03*
X592500Y864700D03*
X706800Y852000D03*
X694100Y852000D03*
X681400Y852000D03*
X668700Y852000D03*
X656000Y852000D03*
X643300Y852000D03*
X706800Y839300D03*
X694100Y839300D03*
X681400Y839300D03*
X668700Y839300D03*
X656000Y839300D03*
X643300Y839300D03*
X630600Y839300D03*
X617900Y839300D03*
X605200Y839300D03*
X592500Y839300D03*
X706800Y826600D03*
X694100Y826600D03*
X681400Y826600D03*
X668700Y826600D03*
X656000Y826600D03*
X643300Y826600D03*
X630600Y826600D03*
X617900Y826600D03*
X605200Y826600D03*
X592500Y826600D03*
X706800Y813900D03*
X694100Y813900D03*
X681400Y813900D03*
X668700Y813900D03*
X656000Y813900D03*
X643300Y813900D03*
X630600Y890100D03*
X630600Y877400D03*
X630600Y864700D03*
X630600Y852000D03*
X630600Y813900D03*
X617900Y852000D03*
X605200Y852000D03*
X592500Y852000D03*
X592500Y813900D03*
X605200Y813900D03*
X617900Y813900D03*
D27*
X679030Y928000D03*
X706970Y928000D03*
X626970Y929000D03*
X599030Y929000D03*
D17*
X707334Y904000D03*
X696666Y904000D03*
X629334Y904000D03*
X618666Y904000D03*
D25*
X747000Y830490D03*
X747000Y863510D03*
X566000Y834490D03*
X566000Y867510D03*
D13*
X459000Y1235334D03*
X459000Y1224666D03*
X446000Y1235334D03*
X446000Y1224666D03*
X743000Y1283334D03*
X743000Y1272666D03*
X738000Y939334D03*
X738000Y928666D03*
D22*
X678586Y971000D03*
X699414Y971000D03*
D17*
X680334Y989000D03*
X669666Y989000D03*
X695666Y1045000D03*
X706334Y1045000D03*
X672666Y1045000D03*
X683334Y1045000D03*
D22*
X683586Y1063000D03*
X704414Y1063000D03*
D13*
X725000Y939334D03*
X725000Y928666D03*
X645000Y940334D03*
X645000Y929666D03*
D40*
X365500Y812500D03*
X365500Y807500D03*
X365500Y802500D03*
D41*
X365500Y796625D03*
D40*
X365500Y827500D03*
X365500Y822500D03*
X365500Y817500D03*
D41*
X365500Y833375D03*
D40*
X350500Y817500D03*
X350500Y822500D03*
X350500Y827500D03*
D41*
X350500Y833375D03*
D40*
X350500Y802500D03*
X350500Y807500D03*
X350500Y812500D03*
D41*
X350500Y796625D03*
D40*
X365500Y863500D03*
X365500Y858500D03*
X365500Y853500D03*
D41*
X365500Y847625D03*
D40*
X365500Y878500D03*
X365500Y873500D03*
X365500Y868500D03*
D41*
X365500Y884375D03*
D40*
X350500Y868500D03*
X350500Y873500D03*
X350500Y878500D03*
D41*
X350500Y884375D03*
D40*
X350500Y853500D03*
X350500Y858500D03*
X350500Y863500D03*
D41*
X350500Y847625D03*
D40*
X365500Y976500D03*
X365500Y971500D03*
X365500Y966500D03*
D41*
X365500Y960625D03*
D40*
X365500Y991500D03*
X365500Y986500D03*
X365500Y981500D03*
D41*
X365500Y997375D03*
D40*
X350500Y981500D03*
X350500Y986500D03*
X350500Y991500D03*
D41*
X350500Y997375D03*
D40*
X350500Y966500D03*
X350500Y971500D03*
X350500Y976500D03*
D41*
X350500Y960625D03*
D40*
X365500Y926500D03*
X365500Y921500D03*
X365500Y916500D03*
D41*
X365500Y910625D03*
D40*
X365500Y941500D03*
X365500Y936500D03*
X365500Y931500D03*
D41*
X365500Y947375D03*
D40*
X350500Y931500D03*
X350500Y936500D03*
X350500Y941500D03*
D41*
X350500Y947375D03*
D40*
X350500Y916500D03*
X350500Y921500D03*
X350500Y926500D03*
D41*
X350500Y910625D03*
D42*
X684000Y1016000D03*
D43*
X669500Y1012750D03*
X669500Y1019250D03*
X698500Y1019250D03*
X698500Y1012750D03*
D38*
X693750Y1030750D03*
X687250Y1030750D03*
X680750Y1030750D03*
X674250Y1030750D03*
X674250Y1001250D03*
X680750Y1001250D03*
X687250Y1001250D03*
X693750Y1001250D03*
D22*
X623586Y974000D03*
X644414Y974000D03*
D17*
X625334Y992000D03*
X614666Y992000D03*
X640666Y1048000D03*
X651334Y1048000D03*
X617666Y1048000D03*
X628334Y1048000D03*
D22*
X628586Y1066000D03*
X649414Y1066000D03*
D42*
X629000Y1019000D03*
D43*
X614500Y1015750D03*
X614500Y1022250D03*
X643500Y1022250D03*
X643500Y1015750D03*
D38*
X638750Y1033750D03*
X632250Y1033750D03*
X625750Y1033750D03*
X619250Y1033750D03*
X619250Y1004250D03*
X625750Y1004250D03*
X632250Y1004250D03*
X638750Y1004250D03*
D17*
G36*
X476912Y1084959D02*
X471497Y1079544D01*
X465544Y1085497D01*
X470959Y1090912D01*
X476912Y1084959D01*
G37*
G36*
X484456Y1092503D02*
X479041Y1087088D01*
X473088Y1093041D01*
X478503Y1098456D01*
X484456Y1092503D01*
G37*
D22*
X598414Y974000D03*
X577586Y974000D03*
D17*
X569334Y992000D03*
X558666Y992000D03*
X584666Y1048000D03*
X595334Y1048000D03*
X561666Y1048000D03*
X572334Y1048000D03*
D22*
X604414Y1066000D03*
X583586Y1066000D03*
D42*
X573000Y1019000D03*
D43*
X558500Y1015750D03*
X558500Y1022250D03*
X587500Y1022250D03*
X587500Y1015750D03*
D38*
X582750Y1033750D03*
X576250Y1033750D03*
X569750Y1033750D03*
X563250Y1033750D03*
X563250Y1004250D03*
X569750Y1004250D03*
X576250Y1004250D03*
X582750Y1004250D03*
D17*
G36*
X485912Y1075959D02*
X480497Y1070544D01*
X474544Y1076497D01*
X479959Y1081912D01*
X485912Y1075959D01*
G37*
G36*
X493456Y1083503D02*
X488041Y1078088D01*
X482088Y1084041D01*
X487503Y1089456D01*
X493456Y1083503D01*
G37*
G36*
X430088Y1076041D02*
X435503Y1081456D01*
X441456Y1075503D01*
X436041Y1070088D01*
X430088Y1076041D01*
G37*
G36*
X422544Y1068497D02*
X427959Y1073912D01*
X433912Y1067959D01*
X428497Y1062544D01*
X422544Y1068497D01*
G37*
G36*
X417912Y1051959D02*
X412497Y1046544D01*
X406544Y1052497D01*
X411959Y1057912D01*
X417912Y1051959D01*
G37*
G36*
X425456Y1059503D02*
X420041Y1054088D01*
X414088Y1060041D01*
X419503Y1065456D01*
X425456Y1059503D01*
G37*
D44*
G36*
X468438Y1001429D02*
X465751Y998742D01*
X459142Y1005351D01*
X461829Y1008038D01*
X468438Y1001429D01*
G37*
G36*
X471973Y1004965D02*
X469286Y1002278D01*
X462677Y1008887D01*
X465364Y1011574D01*
X471973Y1004965D01*
G37*
G36*
X475509Y1008500D02*
X472822Y1005813D01*
X466213Y1012422D01*
X468900Y1015109D01*
X475509Y1008500D01*
G37*
G36*
X479045Y1012036D02*
X476358Y1009349D01*
X469749Y1015958D01*
X472436Y1018645D01*
X479045Y1012036D01*
G37*
G36*
X482580Y1015571D02*
X479893Y1012884D01*
X473284Y1019493D01*
X475971Y1022180D01*
X482580Y1015571D01*
G37*
G36*
X486116Y1019107D02*
X483429Y1016420D01*
X476820Y1023029D01*
X479507Y1025716D01*
X486116Y1019107D01*
G37*
G36*
X489651Y1022642D02*
X486964Y1019955D01*
X480355Y1026564D01*
X483042Y1029251D01*
X489651Y1022642D01*
G37*
G36*
X493187Y1026178D02*
X490500Y1023491D01*
X483891Y1030100D01*
X486578Y1032787D01*
X493187Y1026178D01*
G37*
G36*
X496722Y1029714D02*
X494035Y1027027D01*
X487426Y1033636D01*
X490113Y1036323D01*
X496722Y1029714D01*
G37*
G36*
X500258Y1033249D02*
X497571Y1030562D01*
X490962Y1037171D01*
X493649Y1039858D01*
X500258Y1033249D01*
G37*
G36*
X493649Y1040142D02*
X490962Y1042829D01*
X497571Y1049438D01*
X500258Y1046751D01*
X493649Y1040142D01*
G37*
G36*
X490113Y1043677D02*
X487426Y1046364D01*
X494035Y1052973D01*
X496722Y1050286D01*
X490113Y1043677D01*
G37*
G36*
X486578Y1047213D02*
X483891Y1049900D01*
X490500Y1056509D01*
X493187Y1053822D01*
X486578Y1047213D01*
G37*
G36*
X483042Y1050749D02*
X480355Y1053436D01*
X486964Y1060045D01*
X489651Y1057358D01*
X483042Y1050749D01*
G37*
G36*
X479507Y1054284D02*
X476820Y1056971D01*
X483429Y1063580D01*
X486116Y1060893D01*
X479507Y1054284D01*
G37*
G36*
X475971Y1057820D02*
X473284Y1060507D01*
X479893Y1067116D01*
X482580Y1064429D01*
X475971Y1057820D01*
G37*
G36*
X472436Y1061355D02*
X469749Y1064042D01*
X476358Y1070651D01*
X479045Y1067964D01*
X472436Y1061355D01*
G37*
G36*
X468900Y1064891D02*
X466213Y1067578D01*
X472822Y1074187D01*
X475509Y1071500D01*
X468900Y1064891D01*
G37*
G36*
X465364Y1068426D02*
X462677Y1071113D01*
X469286Y1077722D01*
X471973Y1075035D01*
X465364Y1068426D01*
G37*
G36*
X461829Y1071962D02*
X459142Y1074649D01*
X465751Y1081258D01*
X468438Y1078571D01*
X461829Y1071962D01*
G37*
G36*
X458858Y1074649D02*
X456171Y1071962D01*
X449562Y1078571D01*
X452249Y1081258D01*
X458858Y1074649D01*
G37*
G36*
X455323Y1071113D02*
X452636Y1068426D01*
X446027Y1075035D01*
X448714Y1077722D01*
X455323Y1071113D01*
G37*
G36*
X451787Y1067578D02*
X449100Y1064891D01*
X442491Y1071500D01*
X445178Y1074187D01*
X451787Y1067578D01*
G37*
G36*
X448251Y1064042D02*
X445564Y1061355D01*
X438955Y1067964D01*
X441642Y1070651D01*
X448251Y1064042D01*
G37*
G36*
X444716Y1060507D02*
X442029Y1057820D01*
X435420Y1064429D01*
X438107Y1067116D01*
X444716Y1060507D01*
G37*
G36*
X441180Y1056971D02*
X438493Y1054284D01*
X431884Y1060893D01*
X434571Y1063580D01*
X441180Y1056971D01*
G37*
G36*
X437645Y1053436D02*
X434958Y1050749D01*
X428349Y1057358D01*
X431036Y1060045D01*
X437645Y1053436D01*
G37*
G36*
X434109Y1049900D02*
X431422Y1047213D01*
X424813Y1053822D01*
X427500Y1056509D01*
X434109Y1049900D01*
G37*
G36*
X430574Y1046364D02*
X427887Y1043677D01*
X421278Y1050286D01*
X423965Y1052973D01*
X430574Y1046364D01*
G37*
G36*
X427038Y1042829D02*
X424351Y1040142D01*
X417742Y1046751D01*
X420429Y1049438D01*
X427038Y1042829D01*
G37*
G36*
X420429Y1030562D02*
X417742Y1033249D01*
X424351Y1039858D01*
X427038Y1037171D01*
X420429Y1030562D01*
G37*
G36*
X423965Y1027027D02*
X421278Y1029714D01*
X427887Y1036323D01*
X430574Y1033636D01*
X423965Y1027027D01*
G37*
G36*
X427500Y1023491D02*
X424813Y1026178D01*
X431422Y1032787D01*
X434109Y1030100D01*
X427500Y1023491D01*
G37*
G36*
X431036Y1019955D02*
X428349Y1022642D01*
X434958Y1029251D01*
X437645Y1026564D01*
X431036Y1019955D01*
G37*
G36*
X434571Y1016420D02*
X431884Y1019107D01*
X438493Y1025716D01*
X441180Y1023029D01*
X434571Y1016420D01*
G37*
G36*
X438107Y1012884D02*
X435420Y1015571D01*
X442029Y1022180D01*
X444716Y1019493D01*
X438107Y1012884D01*
G37*
G36*
X441642Y1009349D02*
X438955Y1012036D01*
X445564Y1018645D01*
X448251Y1015958D01*
X441642Y1009349D01*
G37*
G36*
X445178Y1005813D02*
X442491Y1008500D01*
X449100Y1015109D01*
X451787Y1012422D01*
X445178Y1005813D01*
G37*
G36*
X448714Y1002278D02*
X446027Y1004965D01*
X452636Y1011574D01*
X455323Y1008887D01*
X448714Y1002278D01*
G37*
G36*
X452249Y998742D02*
X449562Y1001429D01*
X456171Y1008038D01*
X458858Y1005351D01*
X452249Y998742D01*
G37*
D45*
G36*
X459000Y1073092D02*
X492092Y1040000D01*
X459000Y1006908D01*
X425908Y1040000D01*
X459000Y1073092D01*
G37*
D46*
X814680Y1369960D03*
X814680Y740040D03*
D26*
X803250Y807350D03*
X815950Y807350D03*
X854050Y807350D03*
X866750Y807350D03*
D47*
X835000Y783347D03*
X804500Y1326907D03*
D26*
X828650Y807350D03*
X841350Y807350D03*
X879450Y807350D03*
X892150Y807350D03*
X790550Y807350D03*
X777850Y807350D03*
X803250Y820050D03*
X815950Y820050D03*
X854050Y820050D03*
X866750Y820050D03*
X828650Y820050D03*
X841350Y820050D03*
X879450Y820050D03*
X892150Y820050D03*
X790550Y820050D03*
X777850Y820050D03*
X803250Y832750D03*
X815950Y832750D03*
X854050Y832750D03*
X866750Y832750D03*
X828650Y832750D03*
X841350Y832750D03*
X879450Y832750D03*
X892150Y832750D03*
X790550Y832750D03*
X777850Y832750D03*
X803250Y845450D03*
X815950Y845450D03*
X854050Y845450D03*
X866750Y845450D03*
X828650Y845450D03*
X841350Y845450D03*
X879450Y845450D03*
X892150Y845450D03*
X790550Y845450D03*
X777850Y845450D03*
X803250Y858150D03*
X815950Y858150D03*
X854050Y858150D03*
X866750Y858150D03*
X828650Y858150D03*
X841350Y858150D03*
X879450Y858150D03*
X892150Y858150D03*
X790550Y858150D03*
X777850Y858150D03*
X803250Y870850D03*
X815950Y870850D03*
X854050Y870850D03*
X866750Y870850D03*
X828650Y870850D03*
X841350Y870850D03*
X879450Y870850D03*
X892150Y870850D03*
X790550Y870850D03*
X777850Y870850D03*
X803250Y883550D03*
X815950Y883550D03*
X854050Y883550D03*
X866750Y883550D03*
X828650Y883550D03*
X841350Y883550D03*
X879450Y883550D03*
X892150Y883550D03*
X790550Y883550D03*
X777850Y883550D03*
X803250Y896250D03*
X815950Y896250D03*
X854050Y896250D03*
X866750Y896250D03*
X828650Y896250D03*
X841350Y896250D03*
X879450Y896250D03*
X892150Y896250D03*
X790550Y896250D03*
X777850Y896250D03*
X803250Y908950D03*
X815950Y908950D03*
X854050Y908950D03*
X866750Y908950D03*
X828650Y908950D03*
X841350Y908950D03*
X879450Y908950D03*
X892150Y908950D03*
X790550Y908950D03*
X777850Y908950D03*
X803250Y921650D03*
X815950Y921650D03*
X854050Y921650D03*
X866750Y921650D03*
X828650Y921650D03*
X841350Y921650D03*
X879450Y921650D03*
X892150Y921650D03*
X790550Y921650D03*
X777850Y921650D03*
X803250Y934350D03*
X815950Y934350D03*
X854050Y934350D03*
X866750Y934350D03*
X828650Y934350D03*
X841350Y934350D03*
X879450Y934350D03*
X892150Y934350D03*
X790550Y934350D03*
X777850Y934350D03*
X803250Y947050D03*
X815950Y947050D03*
X854050Y947050D03*
X866750Y947050D03*
X828650Y947050D03*
X841350Y947050D03*
X879450Y947050D03*
X892150Y947050D03*
X790550Y947050D03*
X777850Y947050D03*
X803250Y959750D03*
X815950Y959750D03*
X854050Y959750D03*
X866750Y959750D03*
X828650Y959750D03*
X841350Y959750D03*
X879450Y959750D03*
X892150Y959750D03*
X790550Y959750D03*
X777850Y959750D03*
X803250Y972450D03*
X815950Y972450D03*
X854050Y972450D03*
X866750Y972450D03*
X828650Y972450D03*
X841350Y972450D03*
X879450Y972450D03*
X892150Y972450D03*
X790550Y972450D03*
X777850Y972450D03*
X803250Y985150D03*
X815950Y985150D03*
X854050Y985150D03*
X866750Y985150D03*
X828650Y985150D03*
X841350Y985150D03*
X879450Y985150D03*
X892150Y985150D03*
X790550Y985150D03*
X777850Y985150D03*
X803250Y997850D03*
X815950Y997850D03*
X854050Y997850D03*
X866750Y997850D03*
X828650Y997850D03*
X841350Y997850D03*
X879450Y997850D03*
X892150Y997850D03*
X790550Y997850D03*
X777850Y997850D03*
X803250Y1010550D03*
X815950Y1010550D03*
X854050Y1010550D03*
X866750Y1010550D03*
X828650Y1010550D03*
X841350Y1010550D03*
X879450Y1010550D03*
X892150Y1010550D03*
X790550Y1010550D03*
X777850Y1010550D03*
X803250Y1023250D03*
X815950Y1023250D03*
X854050Y1023250D03*
X866750Y1023250D03*
X828650Y1023250D03*
X841350Y1023250D03*
X879450Y1023250D03*
X892150Y1023250D03*
X790550Y1023250D03*
X777850Y1023250D03*
X803250Y1035950D03*
X815950Y1035950D03*
X854050Y1035950D03*
X866750Y1035950D03*
X828650Y1035950D03*
X841350Y1035950D03*
X879450Y1035950D03*
X892150Y1035950D03*
X790550Y1035950D03*
X777850Y1035950D03*
X803250Y1048650D03*
X815950Y1048650D03*
X854050Y1048650D03*
X866750Y1048650D03*
X828650Y1048650D03*
X841350Y1048650D03*
X879450Y1048650D03*
X892150Y1048650D03*
X790550Y1048650D03*
X777850Y1048650D03*
X803250Y1061350D03*
X815950Y1061350D03*
X854050Y1061350D03*
X866750Y1061350D03*
X828650Y1061350D03*
X841350Y1061350D03*
X879450Y1061350D03*
X892150Y1061350D03*
X790550Y1061350D03*
X777850Y1061350D03*
X803250Y1074050D03*
X815950Y1074050D03*
X854050Y1074050D03*
X866750Y1074050D03*
X828650Y1074050D03*
X841350Y1074050D03*
X879450Y1074050D03*
X892150Y1074050D03*
X790550Y1074050D03*
X777850Y1074050D03*
X803250Y1086750D03*
X815950Y1086750D03*
X854050Y1086750D03*
X866750Y1086750D03*
X828650Y1086750D03*
X841350Y1086750D03*
X879450Y1086750D03*
X892150Y1086750D03*
X790550Y1086750D03*
X777850Y1086750D03*
X803250Y1099450D03*
X815950Y1099450D03*
X854050Y1099450D03*
X866750Y1099450D03*
X828650Y1099450D03*
X841350Y1099450D03*
X879450Y1099450D03*
X892150Y1099450D03*
X790550Y1099450D03*
X777850Y1099450D03*
X803250Y1112150D03*
X815950Y1112150D03*
X854050Y1112150D03*
X866750Y1112150D03*
X828650Y1112150D03*
X841350Y1112150D03*
X879450Y1112150D03*
X892150Y1112150D03*
X790550Y1112150D03*
X777850Y1112150D03*
X803250Y1124850D03*
X815950Y1124850D03*
X854050Y1124850D03*
X866750Y1124850D03*
X828650Y1124850D03*
X841350Y1124850D03*
X879450Y1124850D03*
X892150Y1124850D03*
X790550Y1124850D03*
X777850Y1124850D03*
X803250Y1137550D03*
X815950Y1137550D03*
X854050Y1137550D03*
X866750Y1137550D03*
X828650Y1137550D03*
X841350Y1137550D03*
X879450Y1137550D03*
X892150Y1137550D03*
X790550Y1137550D03*
X777850Y1137550D03*
X803250Y1150250D03*
X815950Y1150250D03*
X854050Y1150250D03*
X866750Y1150250D03*
X828650Y1150250D03*
X841350Y1150250D03*
X879450Y1150250D03*
X892150Y1150250D03*
X790550Y1150250D03*
X777850Y1150250D03*
X803250Y1162950D03*
X815950Y1162950D03*
X854050Y1162950D03*
X866750Y1162950D03*
X828650Y1162950D03*
X841350Y1162950D03*
X879450Y1162950D03*
X892150Y1162950D03*
X790550Y1162950D03*
X777850Y1162950D03*
X803250Y1175650D03*
X815950Y1175650D03*
X854050Y1175650D03*
X866750Y1175650D03*
X828650Y1175650D03*
X841350Y1175650D03*
X879450Y1175650D03*
X892150Y1175650D03*
X790550Y1175650D03*
X777850Y1175650D03*
X803250Y1188350D03*
X815950Y1188350D03*
X854050Y1188350D03*
X866750Y1188350D03*
X828650Y1188350D03*
X841350Y1188350D03*
X879450Y1188350D03*
X892150Y1188350D03*
X790550Y1188350D03*
X777850Y1188350D03*
X803250Y1201050D03*
X815950Y1201050D03*
X854050Y1201050D03*
X866750Y1201050D03*
X828650Y1201050D03*
X841350Y1201050D03*
X879450Y1201050D03*
X892150Y1201050D03*
X790550Y1201050D03*
X777850Y1201050D03*
X803250Y1213750D03*
X815950Y1213750D03*
X854050Y1213750D03*
X866750Y1213750D03*
X828650Y1213750D03*
X841350Y1213750D03*
X879450Y1213750D03*
X892150Y1213750D03*
X790550Y1213750D03*
X777850Y1213750D03*
X803250Y1226450D03*
X815950Y1226450D03*
X854050Y1226450D03*
X866750Y1226450D03*
X828650Y1226450D03*
X841350Y1226450D03*
X879450Y1226450D03*
X892150Y1226450D03*
X790550Y1226450D03*
X777850Y1226450D03*
X803250Y1239150D03*
X815950Y1239150D03*
X854050Y1239150D03*
X866750Y1239150D03*
X828650Y1239150D03*
X841350Y1239150D03*
X879450Y1239150D03*
X892150Y1239150D03*
X790550Y1239150D03*
X777850Y1239150D03*
X803250Y1251850D03*
X815950Y1251850D03*
X854050Y1251850D03*
X866750Y1251850D03*
X828650Y1251850D03*
X841350Y1251850D03*
X879450Y1251850D03*
X892150Y1251850D03*
X790550Y1251850D03*
X777850Y1251850D03*
X803250Y1264550D03*
X815950Y1264550D03*
X854050Y1264550D03*
X866750Y1264550D03*
X828650Y1264550D03*
X841350Y1264550D03*
X879450Y1264550D03*
X892150Y1264550D03*
X790550Y1264550D03*
X777850Y1264550D03*
X803250Y1277250D03*
X815950Y1277250D03*
X854050Y1277250D03*
X866750Y1277250D03*
X828650Y1277250D03*
X841350Y1277250D03*
X879450Y1277250D03*
X892150Y1277250D03*
X790550Y1277250D03*
X777850Y1277250D03*
X803250Y1289950D03*
X815950Y1289950D03*
X854050Y1289950D03*
X866750Y1289950D03*
X828650Y1289950D03*
X841350Y1289950D03*
X879450Y1289950D03*
X892150Y1289950D03*
X790550Y1289950D03*
X777850Y1289950D03*
X803250Y1302650D03*
X815950Y1302650D03*
X854050Y1302650D03*
X866750Y1302650D03*
X828650Y1302650D03*
X841350Y1302650D03*
X879450Y1302650D03*
X892150Y1302650D03*
X790550Y1302650D03*
X777850Y1302650D03*
D48*
X783000Y1393750D03*
X783000Y1387250D03*
X783000Y1380750D03*
X783000Y1374250D03*
X783000Y1367750D03*
X783000Y1361250D03*
X783000Y1354750D03*
X783000Y1348250D03*
X723000Y1393750D03*
X723000Y1387250D03*
X723000Y1380750D03*
X723000Y1374250D03*
X723000Y1367750D03*
X723000Y1361250D03*
X723000Y1354750D03*
X723000Y1348250D03*
D13*
X743000Y1306666D03*
X743000Y1317334D03*
D10*
X180000Y1235000D03*
X167300Y1222300D03*
X192700Y1222300D03*
X192700Y1247700D03*
X167300Y1247700D03*
D13*
X250000Y1226334D03*
X250000Y1215666D03*
D17*
X266334Y1247000D03*
X255666Y1247000D03*
D25*
X357000Y1215490D03*
X357000Y1248510D03*
D17*
X630834Y1164000D03*
X620166Y1164000D03*
X635334Y1151000D03*
X624666Y1151000D03*
X612334Y1151000D03*
X601666Y1151000D03*
D13*
X663000Y1217666D03*
X663000Y1228334D03*
X650000Y1217666D03*
X650000Y1228334D03*
X663000Y1239666D03*
X663000Y1250334D03*
X650000Y1239666D03*
X650000Y1250334D03*
X378000Y1240666D03*
X378000Y1251334D03*
D20*
X223000Y1243430D03*
X223000Y1220570D03*
D21*
X330750Y1234000D03*
X289250Y1234000D03*
D22*
X398414Y1217000D03*
X377586Y1217000D03*
D19*
X394490Y1244000D03*
X427510Y1244000D03*
D28*
X216750Y1207000D03*
X223250Y1207000D03*
D13*
X662000Y1108334D03*
X662000Y1097666D03*
X648000Y1108334D03*
X648000Y1097666D03*
D49*
X728200Y755600D03*
D50*
X752200Y738100D03*
X752200Y743100D03*
X752200Y748100D03*
X752200Y753100D03*
X752200Y758100D03*
X752200Y763100D03*
X752200Y768100D03*
X752200Y773100D03*
D51*
X745700Y779600D03*
X740700Y779600D03*
X735700Y779600D03*
X730700Y779600D03*
X725700Y779600D03*
X720700Y779600D03*
X715700Y779600D03*
X710700Y779600D03*
D50*
X704200Y773100D03*
X704200Y768100D03*
X704200Y763100D03*
X704200Y758100D03*
X704200Y753100D03*
X704200Y748100D03*
X704200Y743100D03*
X704200Y738100D03*
D51*
X710700Y731600D03*
X715700Y731600D03*
X720700Y731600D03*
X725700Y731600D03*
X730700Y731600D03*
X735700Y731600D03*
X740700Y731600D03*
X745700Y731600D03*
D17*
X742834Y721800D03*
X732166Y721800D03*
X722266Y794200D03*
X732934Y794200D03*
D52*
X528000Y763750D03*
X528000Y757250D03*
X528000Y750750D03*
X528000Y744250D03*
X528000Y737750D03*
X528000Y731250D03*
X528000Y724750D03*
X528000Y718250D03*
X472000Y763750D03*
X472000Y757250D03*
X472000Y750750D03*
X472000Y744250D03*
X472000Y737750D03*
X472000Y731250D03*
X472000Y724750D03*
X472000Y718250D03*
D53*
X540000Y788750D03*
X540000Y782250D03*
X540000Y795250D03*
X540000Y801750D03*
X498000Y801750D03*
X498000Y795250D03*
X498000Y788750D03*
X498000Y782250D03*
D54*
X519000Y792000D03*
D55*
X322000Y999000D03*
D56*
X302746Y1008750D03*
X302746Y1002250D03*
X302746Y995750D03*
X302746Y989250D03*
D57*
X312250Y979746D03*
X318750Y979746D03*
X325250Y979746D03*
X331750Y979746D03*
D56*
X341254Y989250D03*
X341254Y995750D03*
X341254Y1002250D03*
X341254Y1008750D03*
D57*
X331750Y1018254D03*
X325250Y1018254D03*
X318750Y1018254D03*
X312250Y1018254D03*
D55*
X322000Y930000D03*
D56*
X302746Y939750D03*
X302746Y933250D03*
X302746Y926750D03*
X302746Y920250D03*
D57*
X312250Y910746D03*
X318750Y910746D03*
X325250Y910746D03*
X331750Y910746D03*
D56*
X341254Y920250D03*
X341254Y926750D03*
X341254Y933250D03*
X341254Y939750D03*
D57*
X331750Y949254D03*
X325250Y949254D03*
X318750Y949254D03*
X312250Y949254D03*
D55*
X321000Y862000D03*
D56*
X301746Y871750D03*
X301746Y865250D03*
X301746Y858750D03*
X301746Y852250D03*
D57*
X311250Y842746D03*
X317750Y842746D03*
X324250Y842746D03*
X330750Y842746D03*
D56*
X340254Y852250D03*
X340254Y858750D03*
X340254Y865250D03*
X340254Y871750D03*
D57*
X330750Y881254D03*
X324250Y881254D03*
X317750Y881254D03*
X311250Y881254D03*
D17*
X612666Y1109000D03*
X623334Y1109000D03*
X612666Y1123000D03*
X623334Y1123000D03*
X555666Y1217000D03*
X566334Y1217000D03*
X555666Y1204000D03*
X566334Y1204000D03*
D27*
X588030Y1261500D03*
X615970Y1261500D03*
D58*
X572000Y1350030D03*
X572000Y1377970D03*
D59*
X461500Y1249000D03*
D60*
X489000Y1283000D03*
D59*
X466500Y1249000D03*
X471500Y1249000D03*
X476500Y1249000D03*
X481500Y1249000D03*
X486500Y1249000D03*
X491500Y1249000D03*
X496500Y1249000D03*
X501500Y1249000D03*
X506500Y1249000D03*
X511500Y1249000D03*
X516500Y1249000D03*
D61*
X523000Y1255500D03*
X523000Y1260500D03*
X523000Y1265500D03*
X523000Y1270500D03*
X523000Y1275500D03*
X523000Y1280500D03*
X523000Y1285500D03*
X523000Y1290500D03*
X523000Y1295500D03*
X523000Y1300500D03*
X523000Y1305500D03*
X523000Y1310500D03*
D59*
X516500Y1317000D03*
X511500Y1317000D03*
X506500Y1317000D03*
X501500Y1317000D03*
X496500Y1317000D03*
X491500Y1317000D03*
X486500Y1317000D03*
X481500Y1317000D03*
X476500Y1317000D03*
X471500Y1317000D03*
X466500Y1317000D03*
X461500Y1317000D03*
D61*
X455000Y1310500D03*
X455000Y1305500D03*
X455000Y1300500D03*
X455000Y1295500D03*
X455000Y1290500D03*
X455000Y1285500D03*
X455000Y1280500D03*
X455000Y1275500D03*
X455000Y1270500D03*
X455000Y1265500D03*
X455000Y1260500D03*
X455000Y1255500D03*
D17*
X458666Y1330000D03*
X469334Y1330000D03*
D25*
X512500Y1378510D03*
X512500Y1345490D03*
D62*
X487000Y1356914D03*
X487000Y1336086D03*
D59*
X655500Y1121500D03*
D60*
X683000Y1155500D03*
D59*
X660500Y1121500D03*
X665500Y1121500D03*
X670500Y1121500D03*
X675500Y1121500D03*
X680500Y1121500D03*
X685500Y1121500D03*
X690500Y1121500D03*
X695500Y1121500D03*
X700500Y1121500D03*
X705500Y1121500D03*
X710500Y1121500D03*
D61*
X717000Y1128000D03*
X717000Y1133000D03*
X717000Y1138000D03*
X717000Y1143000D03*
X717000Y1148000D03*
X717000Y1153000D03*
X717000Y1158000D03*
X717000Y1163000D03*
X717000Y1168000D03*
X717000Y1173000D03*
X717000Y1178000D03*
X717000Y1183000D03*
D59*
X710500Y1189500D03*
X705500Y1189500D03*
X700500Y1189500D03*
X695500Y1189500D03*
X690500Y1189500D03*
X685500Y1189500D03*
X680500Y1189500D03*
X675500Y1189500D03*
X670500Y1189500D03*
X665500Y1189500D03*
X660500Y1189500D03*
X655500Y1189500D03*
D61*
X649000Y1183000D03*
X649000Y1178000D03*
X649000Y1173000D03*
X649000Y1168000D03*
X649000Y1163000D03*
X649000Y1158000D03*
X649000Y1153000D03*
X649000Y1148000D03*
X649000Y1143000D03*
X649000Y1138000D03*
X649000Y1133000D03*
X649000Y1128000D03*
D17*
X653166Y1200400D03*
X663834Y1200400D03*
D25*
X705500Y1248510D03*
X705500Y1215490D03*
D62*
X679500Y1229914D03*
X679500Y1209086D03*
D27*
X888970Y1370000D03*
X861030Y1370000D03*
X888970Y740000D03*
X861030Y740000D03*
D63*
X653075Y774925D03*
D64*
X653075Y787625D03*
X640375Y774925D03*
X640375Y787625D03*
X627675Y774925D03*
X627675Y787625D03*
X614975Y774925D03*
X614975Y787625D03*
X602275Y774925D03*
X602275Y787625D03*
D65*
X745000Y986000D03*
X745000Y994000D03*
X745000Y1002000D03*
X745000Y1010000D03*
X745000Y1018000D03*
X745000Y1026000D03*
X745000Y1034000D03*
X745000Y1042000D03*
D66*
X731000Y973000D03*
X731000Y1055000D03*
D67*
X-588500Y-60000D02*
X-588498Y-59901D01*
X-588492Y-59801D01*
X-588482Y-59702D01*
X-588468Y-59604D01*
X-588451Y-59506D01*
X-588429Y-59409D01*
X-588404Y-59313D01*
X-588375Y-59218D01*
X-588342Y-59124D01*
X-588305Y-59032D01*
X-588265Y-58941D01*
X-588221Y-58852D01*
X-588173Y-58764D01*
X-588122Y-58679D01*
X-588068Y-58596D01*
X-588011Y-58514D01*
X-587950Y-58436D01*
X-587886Y-58359D01*
X-587820Y-58286D01*
X-587750Y-58215D01*
X-587678Y-58147D01*
X-587603Y-58081D01*
X-587525Y-58019D01*
X-587445Y-57960D01*
X-587363Y-57904D01*
X-587279Y-57852D01*
X-587192Y-57803D01*
X-587104Y-57757D01*
X-587014Y-57715D01*
X-586922Y-57676D01*
X-586829Y-57641D01*
X-586735Y-57610D01*
X-586639Y-57583D01*
X-586542Y-57560D01*
X-586445Y-57540D01*
X-586347Y-57524D01*
X-586248Y-57512D01*
X-586149Y-57504D01*
X-586050Y-57500D01*
X-585950Y-57500D01*
X-585851Y-57504D01*
X-585752Y-57512D01*
X-585653Y-57524D01*
X-585555Y-57540D01*
X-585458Y-57560D01*
X-585361Y-57583D01*
X-585265Y-57610D01*
X-585171Y-57641D01*
X-585078Y-57676D01*
X-584986Y-57715D01*
X-584896Y-57757D01*
X-584808Y-57803D01*
X-584721Y-57852D01*
X-584637Y-57904D01*
X-584555Y-57960D01*
X-584475Y-58019D01*
X-584397Y-58081D01*
X-584322Y-58147D01*
X-584250Y-58215D01*
X-584180Y-58286D01*
X-584114Y-58359D01*
X-584050Y-58436D01*
X-583989Y-58514D01*
X-583932Y-58596D01*
X-583878Y-58679D01*
X-583827Y-58764D01*
X-583779Y-58852D01*
X-583735Y-58941D01*
X-583695Y-59032D01*
X-583658Y-59124D01*
X-583625Y-59218D01*
X-583596Y-59313D01*
X-583571Y-59409D01*
X-583549Y-59506D01*
X-583532Y-59604D01*
X-583518Y-59702D01*
X-583508Y-59801D01*
X-583502Y-59901D01*
X-583500Y-60000D01*
X-583502Y-60099D01*
X-583508Y-60199D01*
X-583518Y-60298D01*
X-583532Y-60396D01*
X-583549Y-60494D01*
X-583571Y-60591D01*
X-583596Y-60687D01*
X-583625Y-60782D01*
X-583658Y-60876D01*
X-583695Y-60968D01*
X-583735Y-61059D01*
X-583779Y-61148D01*
X-583827Y-61236D01*
X-583878Y-61321D01*
X-583932Y-61404D01*
X-583989Y-61486D01*
X-584050Y-61564D01*
X-584114Y-61641D01*
X-584180Y-61714D01*
X-584250Y-61785D01*
X-584322Y-61853D01*
X-584397Y-61919D01*
X-584475Y-61981D01*
X-584555Y-62040D01*
X-584637Y-62096D01*
X-584721Y-62148D01*
X-584808Y-62197D01*
X-584896Y-62243D01*
X-584986Y-62285D01*
X-585078Y-62324D01*
X-585171Y-62359D01*
X-585265Y-62390D01*
X-585361Y-62417D01*
X-585458Y-62440D01*
X-585555Y-62460D01*
X-585653Y-62476D01*
X-585752Y-62488D01*
X-585851Y-62496D01*
X-585950Y-62500D01*
X-586050Y-62500D01*
X-586149Y-62496D01*
X-586248Y-62488D01*
X-586347Y-62476D01*
X-586445Y-62460D01*
X-586542Y-62440D01*
X-586639Y-62417D01*
X-586735Y-62390D01*
X-586829Y-62359D01*
X-586922Y-62324D01*
X-587014Y-62285D01*
X-587104Y-62243D01*
X-587192Y-62197D01*
X-587279Y-62148D01*
X-587363Y-62096D01*
X-587445Y-62040D01*
X-587525Y-61981D01*
X-587603Y-61919D01*
X-587678Y-61853D01*
X-587750Y-61785D01*
X-587820Y-61714D01*
X-587886Y-61641D01*
X-587950Y-61564D01*
X-588011Y-61486D01*
X-588068Y-61404D01*
X-588122Y-61321D01*
X-588173Y-61236D01*
X-588221Y-61148D01*
X-588265Y-61059D01*
X-588305Y-60968D01*
X-588342Y-60876D01*
X-588375Y-60782D01*
X-588404Y-60687D01*
X-588429Y-60591D01*
X-588451Y-60494D01*
X-588468Y-60396D01*
X-588482Y-60298D01*
X-588492Y-60199D01*
X-588498Y-60099D01*
X-588500Y-60000D01*
X851500Y-60000D02*
X851502Y-59901D01*
X851508Y-59801D01*
X851518Y-59702D01*
X851532Y-59604D01*
X851549Y-59506D01*
X851571Y-59409D01*
X851596Y-59313D01*
X851625Y-59218D01*
X851658Y-59124D01*
X851695Y-59032D01*
X851735Y-58941D01*
X851779Y-58852D01*
X851827Y-58764D01*
X851878Y-58679D01*
X851932Y-58596D01*
X851989Y-58514D01*
X852050Y-58436D01*
X852114Y-58359D01*
X852180Y-58286D01*
X852250Y-58215D01*
X852322Y-58147D01*
X852397Y-58081D01*
X852475Y-58019D01*
X852555Y-57960D01*
X852637Y-57904D01*
X852721Y-57852D01*
X852808Y-57803D01*
X852896Y-57757D01*
X852986Y-57715D01*
X853078Y-57676D01*
X853171Y-57641D01*
X853265Y-57610D01*
X853361Y-57583D01*
X853458Y-57560D01*
X853555Y-57540D01*
X853653Y-57524D01*
X853752Y-57512D01*
X853851Y-57504D01*
X853950Y-57500D01*
X854050Y-57500D01*
X854149Y-57504D01*
X854248Y-57512D01*
X854347Y-57524D01*
X854445Y-57540D01*
X854542Y-57560D01*
X854639Y-57583D01*
X854735Y-57610D01*
X854829Y-57641D01*
X854922Y-57676D01*
X855014Y-57715D01*
X855104Y-57757D01*
X855192Y-57803D01*
X855279Y-57852D01*
X855363Y-57904D01*
X855445Y-57960D01*
X855525Y-58019D01*
X855603Y-58081D01*
X855678Y-58147D01*
X855750Y-58215D01*
X855820Y-58286D01*
X855886Y-58359D01*
X855950Y-58436D01*
X856011Y-58514D01*
X856068Y-58596D01*
X856122Y-58679D01*
X856173Y-58764D01*
X856221Y-58852D01*
X856265Y-58941D01*
X856305Y-59032D01*
X856342Y-59124D01*
X856375Y-59218D01*
X856404Y-59313D01*
X856429Y-59409D01*
X856451Y-59506D01*
X856468Y-59604D01*
X856482Y-59702D01*
X856492Y-59801D01*
X856498Y-59901D01*
X856500Y-60000D01*
X856498Y-60099D01*
X856492Y-60199D01*
X856482Y-60298D01*
X856468Y-60396D01*
X856451Y-60494D01*
X856429Y-60591D01*
X856404Y-60687D01*
X856375Y-60782D01*
X856342Y-60876D01*
X856305Y-60968D01*
X856265Y-61059D01*
X856221Y-61148D01*
X856173Y-61236D01*
X856122Y-61321D01*
X856068Y-61404D01*
X856011Y-61486D01*
X855950Y-61564D01*
X855886Y-61641D01*
X855820Y-61714D01*
X855750Y-61785D01*
X855678Y-61853D01*
X855603Y-61919D01*
X855525Y-61981D01*
X855445Y-62040D01*
X855363Y-62096D01*
X855279Y-62148D01*
X855192Y-62197D01*
X855104Y-62243D01*
X855014Y-62285D01*
X854922Y-62324D01*
X854829Y-62359D01*
X854735Y-62390D01*
X854639Y-62417D01*
X854542Y-62440D01*
X854445Y-62460D01*
X854347Y-62476D01*
X854248Y-62488D01*
X854149Y-62496D01*
X854050Y-62500D01*
X853950Y-62500D01*
X853851Y-62496D01*
X853752Y-62488D01*
X853653Y-62476D01*
X853555Y-62460D01*
X853458Y-62440D01*
X853361Y-62417D01*
X853265Y-62390D01*
X853171Y-62359D01*
X853078Y-62324D01*
X852986Y-62285D01*
X852896Y-62243D01*
X852808Y-62197D01*
X852721Y-62148D01*
X852637Y-62096D01*
X852555Y-62040D01*
X852475Y-61981D01*
X852397Y-61919D01*
X852322Y-61853D01*
X852250Y-61785D01*
X852180Y-61714D01*
X852114Y-61641D01*
X852050Y-61564D01*
X851989Y-61486D01*
X851932Y-61404D01*
X851878Y-61321D01*
X851827Y-61236D01*
X851779Y-61148D01*
X851735Y-61059D01*
X851695Y-60968D01*
X851658Y-60876D01*
X851625Y-60782D01*
X851596Y-60687D01*
X851571Y-60591D01*
X851549Y-60494D01*
X851532Y-60396D01*
X851518Y-60298D01*
X851508Y-60199D01*
X851502Y-60099D01*
X851500Y-60000D01*
X721500Y1430000D02*
X721502Y1430099D01*
X721508Y1430199D01*
X721518Y1430298D01*
X721532Y1430396D01*
X721549Y1430494D01*
X721571Y1430591D01*
X721596Y1430687D01*
X721625Y1430782D01*
X721658Y1430876D01*
X721695Y1430968D01*
X721735Y1431059D01*
X721779Y1431148D01*
X721827Y1431236D01*
X721878Y1431321D01*
X721932Y1431404D01*
X721989Y1431486D01*
X722050Y1431564D01*
X722114Y1431641D01*
X722180Y1431714D01*
X722250Y1431785D01*
X722322Y1431853D01*
X722397Y1431919D01*
X722475Y1431981D01*
X722555Y1432040D01*
X722637Y1432096D01*
X722721Y1432148D01*
X722808Y1432197D01*
X722896Y1432243D01*
X722986Y1432285D01*
X723078Y1432324D01*
X723171Y1432359D01*
X723265Y1432390D01*
X723361Y1432417D01*
X723458Y1432440D01*
X723555Y1432460D01*
X723653Y1432476D01*
X723752Y1432488D01*
X723851Y1432496D01*
X723950Y1432500D01*
X724050Y1432500D01*
X724149Y1432496D01*
X724248Y1432488D01*
X724347Y1432476D01*
X724445Y1432460D01*
X724542Y1432440D01*
X724639Y1432417D01*
X724735Y1432390D01*
X724829Y1432359D01*
X724922Y1432324D01*
X725014Y1432285D01*
X725104Y1432243D01*
X725192Y1432197D01*
X725279Y1432148D01*
X725363Y1432096D01*
X725445Y1432040D01*
X725525Y1431981D01*
X725603Y1431919D01*
X725678Y1431853D01*
X725750Y1431785D01*
X725820Y1431714D01*
X725886Y1431641D01*
X725950Y1431564D01*
X726011Y1431486D01*
X726068Y1431404D01*
X726122Y1431321D01*
X726173Y1431236D01*
X726221Y1431148D01*
X726265Y1431059D01*
X726305Y1430968D01*
X726342Y1430876D01*
X726375Y1430782D01*
X726404Y1430687D01*
X726429Y1430591D01*
X726451Y1430494D01*
X726468Y1430396D01*
X726482Y1430298D01*
X726492Y1430199D01*
X726498Y1430099D01*
X726500Y1430000D01*
X726498Y1429901D01*
X726492Y1429801D01*
X726482Y1429702D01*
X726468Y1429604D01*
X726451Y1429506D01*
X726429Y1429409D01*
X726404Y1429313D01*
X726375Y1429218D01*
X726342Y1429124D01*
X726305Y1429032D01*
X726265Y1428941D01*
X726221Y1428852D01*
X726173Y1428764D01*
X726122Y1428679D01*
X726068Y1428596D01*
X726011Y1428514D01*
X725950Y1428436D01*
X725886Y1428359D01*
X725820Y1428286D01*
X725750Y1428215D01*
X725678Y1428147D01*
X725603Y1428081D01*
X725525Y1428019D01*
X725445Y1427960D01*
X725363Y1427904D01*
X725279Y1427852D01*
X725192Y1427803D01*
X725104Y1427757D01*
X725014Y1427715D01*
X724922Y1427676D01*
X724829Y1427641D01*
X724735Y1427610D01*
X724639Y1427583D01*
X724542Y1427560D01*
X724445Y1427540D01*
X724347Y1427524D01*
X724248Y1427512D01*
X724149Y1427504D01*
X724050Y1427500D01*
X723950Y1427500D01*
X723851Y1427504D01*
X723752Y1427512D01*
X723653Y1427524D01*
X723555Y1427540D01*
X723458Y1427560D01*
X723361Y1427583D01*
X723265Y1427610D01*
X723171Y1427641D01*
X723078Y1427676D01*
X722986Y1427715D01*
X722896Y1427757D01*
X722808Y1427803D01*
X722721Y1427852D01*
X722637Y1427904D01*
X722555Y1427960D01*
X722475Y1428019D01*
X722397Y1428081D01*
X722322Y1428147D01*
X722250Y1428215D01*
X722180Y1428286D01*
X722114Y1428359D01*
X722050Y1428436D01*
X721989Y1428514D01*
X721932Y1428596D01*
X721878Y1428679D01*
X721827Y1428764D01*
X721779Y1428852D01*
X721735Y1428941D01*
X721695Y1429032D01*
X721658Y1429124D01*
X721625Y1429218D01*
X721596Y1429313D01*
X721571Y1429409D01*
X721549Y1429506D01*
X721532Y1429604D01*
X721518Y1429702D01*
X721508Y1429801D01*
X721502Y1429901D01*
X721500Y1430000D01*
M02*
