%TF.GenerationSoftware,KiCad,Pcbnew,(7.0.0)*%
%TF.CreationDate,2023-03-31T08:48:52-07:00*%
%TF.ProjectId,bracket-led,62726163-6b65-4742-9d6c-65642e6b6963,rev?*%
%TF.SameCoordinates,Original*%
%TF.FileFunction,Soldermask,Top*%
%TF.FilePolarity,Negative*%
%FSLAX46Y46*%
G04 Gerber Fmt 4.6, Leading zero omitted, Abs format (unit mm)*
G04 Created by KiCad (PCBNEW (7.0.0)) date 2023-03-31 08:48:52*
%MOMM*%
%LPD*%
G01*
G04 APERTURE LIST*
G04 Aperture macros list*
%AMRoundRect*
0 Rectangle with rounded corners*
0 $1 Rounding radius*
0 $2 $3 $4 $5 $6 $7 $8 $9 X,Y pos of 4 corners*
0 Add a 4 corners polygon primitive as box body*
4,1,4,$2,$3,$4,$5,$6,$7,$8,$9,$2,$3,0*
0 Add four circle primitives for the rounded corners*
1,1,$1+$1,$2,$3*
1,1,$1+$1,$4,$5*
1,1,$1+$1,$6,$7*
1,1,$1+$1,$8,$9*
0 Add four rect primitives between the rounded corners*
20,1,$1+$1,$2,$3,$4,$5,0*
20,1,$1+$1,$4,$5,$6,$7,0*
20,1,$1+$1,$6,$7,$8,$9,0*
20,1,$1+$1,$8,$9,$2,$3,0*%
G04 Aperture macros list end*
%ADD10C,0.125000*%
%ADD11R,0.550000X0.400000*%
%ADD12R,0.700000X0.500000*%
%ADD13RoundRect,0.125000X-0.125000X-0.375000X0.125000X-0.375000X0.125000X0.375000X-0.125000X0.375000X0*%
%ADD14RoundRect,0.250000X-0.350000X-0.600000X0.350000X-0.600000X0.350000X0.600000X-0.350000X0.600000X0*%
%ADD15C,1.168400*%
G04 APERTURE END LIST*
D10*
X34904761Y-54141190D02*
X34738095Y-53903095D01*
X34619047Y-54141190D02*
X34619047Y-53641190D01*
X34619047Y-53641190D02*
X34809523Y-53641190D01*
X34809523Y-53641190D02*
X34857142Y-53665000D01*
X34857142Y-53665000D02*
X34880952Y-53688809D01*
X34880952Y-53688809D02*
X34904761Y-53736428D01*
X34904761Y-53736428D02*
X34904761Y-53807857D01*
X34904761Y-53807857D02*
X34880952Y-53855476D01*
X34880952Y-53855476D02*
X34857142Y-53879285D01*
X34857142Y-53879285D02*
X34809523Y-53903095D01*
X34809523Y-53903095D02*
X34619047Y-53903095D01*
X35309523Y-54117380D02*
X35261904Y-54141190D01*
X35261904Y-54141190D02*
X35166666Y-54141190D01*
X35166666Y-54141190D02*
X35119047Y-54117380D01*
X35119047Y-54117380D02*
X35095238Y-54069761D01*
X35095238Y-54069761D02*
X35095238Y-53879285D01*
X35095238Y-53879285D02*
X35119047Y-53831666D01*
X35119047Y-53831666D02*
X35166666Y-53807857D01*
X35166666Y-53807857D02*
X35261904Y-53807857D01*
X35261904Y-53807857D02*
X35309523Y-53831666D01*
X35309523Y-53831666D02*
X35333333Y-53879285D01*
X35333333Y-53879285D02*
X35333333Y-53926904D01*
X35333333Y-53926904D02*
X35095238Y-53974523D01*
X35499999Y-53807857D02*
X35619047Y-54141190D01*
X35619047Y-54141190D02*
X35738094Y-53807857D01*
X35928570Y-54093571D02*
X35952380Y-54117380D01*
X35952380Y-54117380D02*
X35928570Y-54141190D01*
X35928570Y-54141190D02*
X35904761Y-54117380D01*
X35904761Y-54117380D02*
X35928570Y-54093571D01*
X35928570Y-54093571D02*
X35928570Y-54141190D01*
X36442856Y-53998333D02*
X36680951Y-53998333D01*
X36395237Y-54141190D02*
X36561903Y-53641190D01*
X36561903Y-53641190D02*
X36728570Y-54141190D01*
D11*
%TO.C,D2*%
X53174999Y-49274999D03*
X51824999Y-49274999D03*
D12*
X53249999Y-49999999D03*
X51749999Y-49999999D03*
D11*
X53174999Y-50724999D03*
X51824999Y-50724999D03*
%TD*%
D13*
%TO.C,J1*%
X36950000Y-49850000D03*
X37750000Y-49850000D03*
X38550000Y-49850000D03*
X39350000Y-49850000D03*
X40150000Y-49850000D03*
X40950000Y-49850000D03*
X41750000Y-49850000D03*
X42550000Y-49850000D03*
D14*
X35650000Y-51800000D03*
X43850000Y-51800000D03*
%TD*%
D11*
%TO.C,D1*%
X48174999Y-49274999D03*
X46824999Y-49274999D03*
D12*
X48249999Y-49999999D03*
X46749999Y-49999999D03*
D11*
X48174999Y-50724999D03*
X46824999Y-50724999D03*
%TD*%
D15*
%TO.C,H2*%
X53770000Y-52691760D03*
X51230000Y-52691760D03*
%TD*%
%TO.C,H1*%
X48770000Y-52691760D03*
X46230000Y-52691760D03*
%TD*%
M02*
