%TF.GenerationSoftware,KiCad,Pcbnew,(7.0.0)*%
%TF.CreationDate,2023-03-31T08:50:08-07:00*%
%TF.ProjectId,bracket-led,62726163-6b65-4742-9d6c-65642e6b6963,rev?*%
%TF.SameCoordinates,Original*%
%TF.FileFunction,Drillmap*%
%TF.FilePolarity,Positive*%
%FSLAX45Y45*%
G04 Gerber Fmt 4.5, Leading zero omitted, Abs format (unit mm)*
G04 Created by KiCad (PCBNEW (7.0.0)) date 2023-03-31 08:50:08*
%MOMM*%
%LPD*%
G01*
G04 APERTURE LIST*
%ADD10C,0.100000*%
%ADD11C,0.200000*%
%ADD12C,0.116840*%
G04 APERTURE END LIST*
D10*
X5850000Y-5223476D02*
X5850000Y-5448476D01*
X5723125Y-4973476D02*
G75*
G03*
X5723125Y-5223476I0J-125000D01*
G01*
X5723125Y-5223476D02*
X5850000Y-5223476D01*
X5850000Y-5448476D02*
X3150000Y-5448476D01*
X3150000Y-4748476D02*
X3150000Y-4973476D01*
X3275000Y-5223476D02*
G75*
G03*
X3275000Y-4973476I0J125000D01*
G01*
X3150000Y-4748476D02*
X5850000Y-4748476D01*
X5850000Y-4748476D02*
X5850000Y-4973476D01*
X5723125Y-4973476D02*
X5850000Y-4973476D01*
X3275000Y-5223476D02*
X3150000Y-5223476D01*
X3150000Y-5448476D02*
X3150000Y-5223476D01*
X3275000Y-4973476D02*
X3150000Y-4973476D01*
D11*
D12*
X4564580Y-5210756D02*
X4681420Y-5327596D01*
X4681420Y-5210756D02*
X4564580Y-5327596D01*
X4818580Y-5210756D02*
X4935420Y-5327596D01*
X4935420Y-5210756D02*
X4818580Y-5327596D01*
X5064580Y-5210756D02*
X5181420Y-5327596D01*
X5181420Y-5210756D02*
X5064580Y-5327596D01*
X5318580Y-5210756D02*
X5435420Y-5327596D01*
X5435420Y-5210756D02*
X5318580Y-5327596D01*
D11*
X3392619Y-5746952D02*
X3392619Y-5546952D01*
X3392619Y-5546952D02*
X3440238Y-5546952D01*
X3440238Y-5546952D02*
X3468809Y-5556476D01*
X3468809Y-5556476D02*
X3487857Y-5575524D01*
X3487857Y-5575524D02*
X3497381Y-5594571D01*
X3497381Y-5594571D02*
X3506905Y-5632666D01*
X3506905Y-5632666D02*
X3506905Y-5661238D01*
X3506905Y-5661238D02*
X3497381Y-5699333D01*
X3497381Y-5699333D02*
X3487857Y-5718381D01*
X3487857Y-5718381D02*
X3468809Y-5737428D01*
X3468809Y-5737428D02*
X3440238Y-5746952D01*
X3440238Y-5746952D02*
X3392619Y-5746952D01*
X3592619Y-5746952D02*
X3592619Y-5613619D01*
X3592619Y-5651714D02*
X3602143Y-5632666D01*
X3602143Y-5632666D02*
X3611667Y-5623143D01*
X3611667Y-5623143D02*
X3630714Y-5613619D01*
X3630714Y-5613619D02*
X3649762Y-5613619D01*
X3716428Y-5746952D02*
X3716428Y-5613619D01*
X3716428Y-5546952D02*
X3706905Y-5556476D01*
X3706905Y-5556476D02*
X3716428Y-5566000D01*
X3716428Y-5566000D02*
X3725952Y-5556476D01*
X3725952Y-5556476D02*
X3716428Y-5546952D01*
X3716428Y-5546952D02*
X3716428Y-5566000D01*
X3840238Y-5746952D02*
X3821190Y-5737428D01*
X3821190Y-5737428D02*
X3811667Y-5718381D01*
X3811667Y-5718381D02*
X3811667Y-5546952D01*
X3945000Y-5746952D02*
X3925952Y-5737428D01*
X3925952Y-5737428D02*
X3916428Y-5718381D01*
X3916428Y-5718381D02*
X3916428Y-5546952D01*
X4141190Y-5746952D02*
X4141190Y-5546952D01*
X4141190Y-5546952D02*
X4207857Y-5689809D01*
X4207857Y-5689809D02*
X4274524Y-5546952D01*
X4274524Y-5546952D02*
X4274524Y-5746952D01*
X4455476Y-5746952D02*
X4455476Y-5642190D01*
X4455476Y-5642190D02*
X4445952Y-5623143D01*
X4445952Y-5623143D02*
X4426905Y-5613619D01*
X4426905Y-5613619D02*
X4388809Y-5613619D01*
X4388809Y-5613619D02*
X4369762Y-5623143D01*
X4455476Y-5737428D02*
X4436429Y-5746952D01*
X4436429Y-5746952D02*
X4388809Y-5746952D01*
X4388809Y-5746952D02*
X4369762Y-5737428D01*
X4369762Y-5737428D02*
X4360238Y-5718381D01*
X4360238Y-5718381D02*
X4360238Y-5699333D01*
X4360238Y-5699333D02*
X4369762Y-5680285D01*
X4369762Y-5680285D02*
X4388809Y-5670762D01*
X4388809Y-5670762D02*
X4436429Y-5670762D01*
X4436429Y-5670762D02*
X4455476Y-5661238D01*
X4550714Y-5613619D02*
X4550714Y-5813619D01*
X4550714Y-5623143D02*
X4569762Y-5613619D01*
X4569762Y-5613619D02*
X4607857Y-5613619D01*
X4607857Y-5613619D02*
X4626905Y-5623143D01*
X4626905Y-5623143D02*
X4636429Y-5632666D01*
X4636429Y-5632666D02*
X4645952Y-5651714D01*
X4645952Y-5651714D02*
X4645952Y-5708857D01*
X4645952Y-5708857D02*
X4636429Y-5727904D01*
X4636429Y-5727904D02*
X4626905Y-5737428D01*
X4626905Y-5737428D02*
X4607857Y-5746952D01*
X4607857Y-5746952D02*
X4569762Y-5746952D01*
X4569762Y-5746952D02*
X4550714Y-5737428D01*
X4731667Y-5727904D02*
X4741190Y-5737428D01*
X4741190Y-5737428D02*
X4731667Y-5746952D01*
X4731667Y-5746952D02*
X4722143Y-5737428D01*
X4722143Y-5737428D02*
X4731667Y-5727904D01*
X4731667Y-5727904D02*
X4731667Y-5746952D01*
X4731667Y-5623143D02*
X4741190Y-5632666D01*
X4741190Y-5632666D02*
X4731667Y-5642190D01*
X4731667Y-5642190D02*
X4722143Y-5632666D01*
X4722143Y-5632666D02*
X4731667Y-5623143D01*
X4731667Y-5623143D02*
X4731667Y-5642190D01*
D12*
X3028160Y-6035056D02*
X3145000Y-6151896D01*
X3145000Y-6035056D02*
X3028160Y-6151896D01*
D11*
X3497381Y-6166952D02*
X3383095Y-6166952D01*
X3440238Y-6166952D02*
X3440238Y-5966952D01*
X3440238Y-5966952D02*
X3421190Y-5995524D01*
X3421190Y-5995524D02*
X3402143Y-6014571D01*
X3402143Y-6014571D02*
X3383095Y-6024095D01*
X3583095Y-6147904D02*
X3592619Y-6157428D01*
X3592619Y-6157428D02*
X3583095Y-6166952D01*
X3583095Y-6166952D02*
X3573571Y-6157428D01*
X3573571Y-6157428D02*
X3583095Y-6147904D01*
X3583095Y-6147904D02*
X3583095Y-6166952D01*
X3783095Y-6166952D02*
X3668809Y-6166952D01*
X3725952Y-6166952D02*
X3725952Y-5966952D01*
X3725952Y-5966952D02*
X3706905Y-5995524D01*
X3706905Y-5995524D02*
X3687857Y-6014571D01*
X3687857Y-6014571D02*
X3668809Y-6024095D01*
X3954524Y-5966952D02*
X3916428Y-5966952D01*
X3916428Y-5966952D02*
X3897381Y-5976476D01*
X3897381Y-5976476D02*
X3887857Y-5986000D01*
X3887857Y-5986000D02*
X3868809Y-6014571D01*
X3868809Y-6014571D02*
X3859286Y-6052666D01*
X3859286Y-6052666D02*
X3859286Y-6128857D01*
X3859286Y-6128857D02*
X3868809Y-6147904D01*
X3868809Y-6147904D02*
X3878333Y-6157428D01*
X3878333Y-6157428D02*
X3897381Y-6166952D01*
X3897381Y-6166952D02*
X3935476Y-6166952D01*
X3935476Y-6166952D02*
X3954524Y-6157428D01*
X3954524Y-6157428D02*
X3964048Y-6147904D01*
X3964048Y-6147904D02*
X3973571Y-6128857D01*
X3973571Y-6128857D02*
X3973571Y-6081238D01*
X3973571Y-6081238D02*
X3964048Y-6062190D01*
X3964048Y-6062190D02*
X3954524Y-6052666D01*
X3954524Y-6052666D02*
X3935476Y-6043143D01*
X3935476Y-6043143D02*
X3897381Y-6043143D01*
X3897381Y-6043143D02*
X3878333Y-6052666D01*
X3878333Y-6052666D02*
X3868809Y-6062190D01*
X3868809Y-6062190D02*
X3859286Y-6081238D01*
X4087857Y-6052666D02*
X4068809Y-6043143D01*
X4068809Y-6043143D02*
X4059286Y-6033619D01*
X4059286Y-6033619D02*
X4049762Y-6014571D01*
X4049762Y-6014571D02*
X4049762Y-6005047D01*
X4049762Y-6005047D02*
X4059286Y-5986000D01*
X4059286Y-5986000D02*
X4068809Y-5976476D01*
X4068809Y-5976476D02*
X4087857Y-5966952D01*
X4087857Y-5966952D02*
X4125952Y-5966952D01*
X4125952Y-5966952D02*
X4145000Y-5976476D01*
X4145000Y-5976476D02*
X4154524Y-5986000D01*
X4154524Y-5986000D02*
X4164048Y-6005047D01*
X4164048Y-6005047D02*
X4164048Y-6014571D01*
X4164048Y-6014571D02*
X4154524Y-6033619D01*
X4154524Y-6033619D02*
X4145000Y-6043143D01*
X4145000Y-6043143D02*
X4125952Y-6052666D01*
X4125952Y-6052666D02*
X4087857Y-6052666D01*
X4087857Y-6052666D02*
X4068809Y-6062190D01*
X4068809Y-6062190D02*
X4059286Y-6071714D01*
X4059286Y-6071714D02*
X4049762Y-6090762D01*
X4049762Y-6090762D02*
X4049762Y-6128857D01*
X4049762Y-6128857D02*
X4059286Y-6147904D01*
X4059286Y-6147904D02*
X4068809Y-6157428D01*
X4068809Y-6157428D02*
X4087857Y-6166952D01*
X4087857Y-6166952D02*
X4125952Y-6166952D01*
X4125952Y-6166952D02*
X4145000Y-6157428D01*
X4145000Y-6157428D02*
X4154524Y-6147904D01*
X4154524Y-6147904D02*
X4164048Y-6128857D01*
X4164048Y-6128857D02*
X4164048Y-6090762D01*
X4164048Y-6090762D02*
X4154524Y-6071714D01*
X4154524Y-6071714D02*
X4145000Y-6062190D01*
X4145000Y-6062190D02*
X4125952Y-6052666D01*
X4249762Y-6166952D02*
X4249762Y-6033619D01*
X4249762Y-6052666D02*
X4259286Y-6043143D01*
X4259286Y-6043143D02*
X4278333Y-6033619D01*
X4278333Y-6033619D02*
X4306905Y-6033619D01*
X4306905Y-6033619D02*
X4325952Y-6043143D01*
X4325952Y-6043143D02*
X4335476Y-6062190D01*
X4335476Y-6062190D02*
X4335476Y-6166952D01*
X4335476Y-6062190D02*
X4345000Y-6043143D01*
X4345000Y-6043143D02*
X4364048Y-6033619D01*
X4364048Y-6033619D02*
X4392619Y-6033619D01*
X4392619Y-6033619D02*
X4411667Y-6043143D01*
X4411667Y-6043143D02*
X4421191Y-6062190D01*
X4421191Y-6062190D02*
X4421191Y-6166952D01*
X4516429Y-6166952D02*
X4516429Y-6033619D01*
X4516429Y-6052666D02*
X4525952Y-6043143D01*
X4525952Y-6043143D02*
X4545000Y-6033619D01*
X4545000Y-6033619D02*
X4573572Y-6033619D01*
X4573572Y-6033619D02*
X4592619Y-6043143D01*
X4592619Y-6043143D02*
X4602143Y-6062190D01*
X4602143Y-6062190D02*
X4602143Y-6166952D01*
X4602143Y-6062190D02*
X4611667Y-6043143D01*
X4611667Y-6043143D02*
X4630714Y-6033619D01*
X4630714Y-6033619D02*
X4659286Y-6033619D01*
X4659286Y-6033619D02*
X4678333Y-6043143D01*
X4678333Y-6043143D02*
X4687857Y-6062190D01*
X4687857Y-6062190D02*
X4687857Y-6166952D01*
X5045952Y-5957428D02*
X4874524Y-6214571D01*
X5270714Y-5966952D02*
X5289762Y-5966952D01*
X5289762Y-5966952D02*
X5308810Y-5976476D01*
X5308810Y-5976476D02*
X5318333Y-5986000D01*
X5318333Y-5986000D02*
X5327857Y-6005047D01*
X5327857Y-6005047D02*
X5337381Y-6043143D01*
X5337381Y-6043143D02*
X5337381Y-6090762D01*
X5337381Y-6090762D02*
X5327857Y-6128857D01*
X5327857Y-6128857D02*
X5318333Y-6147904D01*
X5318333Y-6147904D02*
X5308810Y-6157428D01*
X5308810Y-6157428D02*
X5289762Y-6166952D01*
X5289762Y-6166952D02*
X5270714Y-6166952D01*
X5270714Y-6166952D02*
X5251667Y-6157428D01*
X5251667Y-6157428D02*
X5242143Y-6147904D01*
X5242143Y-6147904D02*
X5232619Y-6128857D01*
X5232619Y-6128857D02*
X5223095Y-6090762D01*
X5223095Y-6090762D02*
X5223095Y-6043143D01*
X5223095Y-6043143D02*
X5232619Y-6005047D01*
X5232619Y-6005047D02*
X5242143Y-5986000D01*
X5242143Y-5986000D02*
X5251667Y-5976476D01*
X5251667Y-5976476D02*
X5270714Y-5966952D01*
X5423095Y-6147904D02*
X5432619Y-6157428D01*
X5432619Y-6157428D02*
X5423095Y-6166952D01*
X5423095Y-6166952D02*
X5413572Y-6157428D01*
X5413572Y-6157428D02*
X5423095Y-6147904D01*
X5423095Y-6147904D02*
X5423095Y-6166952D01*
X5556429Y-5966952D02*
X5575476Y-5966952D01*
X5575476Y-5966952D02*
X5594524Y-5976476D01*
X5594524Y-5976476D02*
X5604048Y-5986000D01*
X5604048Y-5986000D02*
X5613571Y-6005047D01*
X5613571Y-6005047D02*
X5623095Y-6043143D01*
X5623095Y-6043143D02*
X5623095Y-6090762D01*
X5623095Y-6090762D02*
X5613571Y-6128857D01*
X5613571Y-6128857D02*
X5604048Y-6147904D01*
X5604048Y-6147904D02*
X5594524Y-6157428D01*
X5594524Y-6157428D02*
X5575476Y-6166952D01*
X5575476Y-6166952D02*
X5556429Y-6166952D01*
X5556429Y-6166952D02*
X5537381Y-6157428D01*
X5537381Y-6157428D02*
X5527857Y-6147904D01*
X5527857Y-6147904D02*
X5518333Y-6128857D01*
X5518333Y-6128857D02*
X5508810Y-6090762D01*
X5508810Y-6090762D02*
X5508810Y-6043143D01*
X5508810Y-6043143D02*
X5518333Y-6005047D01*
X5518333Y-6005047D02*
X5527857Y-5986000D01*
X5527857Y-5986000D02*
X5537381Y-5976476D01*
X5537381Y-5976476D02*
X5556429Y-5966952D01*
X5794524Y-6033619D02*
X5794524Y-6166952D01*
X5746905Y-5957428D02*
X5699286Y-6100285D01*
X5699286Y-6100285D02*
X5823095Y-6100285D01*
X5985000Y-5966952D02*
X5946905Y-5966952D01*
X5946905Y-5966952D02*
X5927857Y-5976476D01*
X5927857Y-5976476D02*
X5918333Y-5986000D01*
X5918333Y-5986000D02*
X5899286Y-6014571D01*
X5899286Y-6014571D02*
X5889762Y-6052666D01*
X5889762Y-6052666D02*
X5889762Y-6128857D01*
X5889762Y-6128857D02*
X5899286Y-6147904D01*
X5899286Y-6147904D02*
X5908810Y-6157428D01*
X5908810Y-6157428D02*
X5927857Y-6166952D01*
X5927857Y-6166952D02*
X5965952Y-6166952D01*
X5965952Y-6166952D02*
X5985000Y-6157428D01*
X5985000Y-6157428D02*
X5994524Y-6147904D01*
X5994524Y-6147904D02*
X6004048Y-6128857D01*
X6004048Y-6128857D02*
X6004048Y-6081238D01*
X6004048Y-6081238D02*
X5994524Y-6062190D01*
X5994524Y-6062190D02*
X5985000Y-6052666D01*
X5985000Y-6052666D02*
X5965952Y-6043143D01*
X5965952Y-6043143D02*
X5927857Y-6043143D01*
X5927857Y-6043143D02*
X5908810Y-6052666D01*
X5908810Y-6052666D02*
X5899286Y-6062190D01*
X5899286Y-6062190D02*
X5889762Y-6081238D01*
X6127857Y-5966952D02*
X6146905Y-5966952D01*
X6146905Y-5966952D02*
X6165952Y-5976476D01*
X6165952Y-5976476D02*
X6175476Y-5986000D01*
X6175476Y-5986000D02*
X6185000Y-6005047D01*
X6185000Y-6005047D02*
X6194524Y-6043143D01*
X6194524Y-6043143D02*
X6194524Y-6090762D01*
X6194524Y-6090762D02*
X6185000Y-6128857D01*
X6185000Y-6128857D02*
X6175476Y-6147904D01*
X6175476Y-6147904D02*
X6165952Y-6157428D01*
X6165952Y-6157428D02*
X6146905Y-6166952D01*
X6146905Y-6166952D02*
X6127857Y-6166952D01*
X6127857Y-6166952D02*
X6108810Y-6157428D01*
X6108810Y-6157428D02*
X6099286Y-6147904D01*
X6099286Y-6147904D02*
X6089762Y-6128857D01*
X6089762Y-6128857D02*
X6080238Y-6090762D01*
X6080238Y-6090762D02*
X6080238Y-6043143D01*
X6080238Y-6043143D02*
X6089762Y-6005047D01*
X6089762Y-6005047D02*
X6099286Y-5986000D01*
X6099286Y-5986000D02*
X6108810Y-5976476D01*
X6108810Y-5976476D02*
X6127857Y-5966952D01*
X6270714Y-5966952D02*
X6270714Y-6005047D01*
X6346905Y-5966952D02*
X6346905Y-6005047D01*
X6609762Y-6243143D02*
X6600238Y-6233619D01*
X6600238Y-6233619D02*
X6581191Y-6205047D01*
X6581191Y-6205047D02*
X6571667Y-6186000D01*
X6571667Y-6186000D02*
X6562143Y-6157428D01*
X6562143Y-6157428D02*
X6552619Y-6109809D01*
X6552619Y-6109809D02*
X6552619Y-6071714D01*
X6552619Y-6071714D02*
X6562143Y-6024095D01*
X6562143Y-6024095D02*
X6571667Y-5995524D01*
X6571667Y-5995524D02*
X6581191Y-5976476D01*
X6581191Y-5976476D02*
X6600238Y-5947904D01*
X6600238Y-5947904D02*
X6609762Y-5938381D01*
X6771667Y-6033619D02*
X6771667Y-6166952D01*
X6724048Y-5957428D02*
X6676429Y-6100285D01*
X6676429Y-6100285D02*
X6800238Y-6100285D01*
X6996429Y-6166952D02*
X6996429Y-5966952D01*
X7082143Y-6166952D02*
X7082143Y-6062190D01*
X7082143Y-6062190D02*
X7072619Y-6043143D01*
X7072619Y-6043143D02*
X7053572Y-6033619D01*
X7053572Y-6033619D02*
X7025000Y-6033619D01*
X7025000Y-6033619D02*
X7005952Y-6043143D01*
X7005952Y-6043143D02*
X6996429Y-6052666D01*
X7205952Y-6166952D02*
X7186905Y-6157428D01*
X7186905Y-6157428D02*
X7177381Y-6147904D01*
X7177381Y-6147904D02*
X7167857Y-6128857D01*
X7167857Y-6128857D02*
X7167857Y-6071714D01*
X7167857Y-6071714D02*
X7177381Y-6052666D01*
X7177381Y-6052666D02*
X7186905Y-6043143D01*
X7186905Y-6043143D02*
X7205952Y-6033619D01*
X7205952Y-6033619D02*
X7234524Y-6033619D01*
X7234524Y-6033619D02*
X7253572Y-6043143D01*
X7253572Y-6043143D02*
X7263095Y-6052666D01*
X7263095Y-6052666D02*
X7272619Y-6071714D01*
X7272619Y-6071714D02*
X7272619Y-6128857D01*
X7272619Y-6128857D02*
X7263095Y-6147904D01*
X7263095Y-6147904D02*
X7253572Y-6157428D01*
X7253572Y-6157428D02*
X7234524Y-6166952D01*
X7234524Y-6166952D02*
X7205952Y-6166952D01*
X7386905Y-6166952D02*
X7367857Y-6157428D01*
X7367857Y-6157428D02*
X7358333Y-6138381D01*
X7358333Y-6138381D02*
X7358333Y-5966952D01*
X7539286Y-6157428D02*
X7520238Y-6166952D01*
X7520238Y-6166952D02*
X7482143Y-6166952D01*
X7482143Y-6166952D02*
X7463095Y-6157428D01*
X7463095Y-6157428D02*
X7453572Y-6138381D01*
X7453572Y-6138381D02*
X7453572Y-6062190D01*
X7453572Y-6062190D02*
X7463095Y-6043143D01*
X7463095Y-6043143D02*
X7482143Y-6033619D01*
X7482143Y-6033619D02*
X7520238Y-6033619D01*
X7520238Y-6033619D02*
X7539286Y-6043143D01*
X7539286Y-6043143D02*
X7548810Y-6062190D01*
X7548810Y-6062190D02*
X7548810Y-6081238D01*
X7548810Y-6081238D02*
X7453572Y-6100285D01*
X7625000Y-6157428D02*
X7644048Y-6166952D01*
X7644048Y-6166952D02*
X7682143Y-6166952D01*
X7682143Y-6166952D02*
X7701191Y-6157428D01*
X7701191Y-6157428D02*
X7710714Y-6138381D01*
X7710714Y-6138381D02*
X7710714Y-6128857D01*
X7710714Y-6128857D02*
X7701191Y-6109809D01*
X7701191Y-6109809D02*
X7682143Y-6100285D01*
X7682143Y-6100285D02*
X7653572Y-6100285D01*
X7653572Y-6100285D02*
X7634524Y-6090762D01*
X7634524Y-6090762D02*
X7625000Y-6071714D01*
X7625000Y-6071714D02*
X7625000Y-6062190D01*
X7625000Y-6062190D02*
X7634524Y-6043143D01*
X7634524Y-6043143D02*
X7653572Y-6033619D01*
X7653572Y-6033619D02*
X7682143Y-6033619D01*
X7682143Y-6033619D02*
X7701191Y-6043143D01*
X7777381Y-6243143D02*
X7786905Y-6233619D01*
X7786905Y-6233619D02*
X7805953Y-6205047D01*
X7805953Y-6205047D02*
X7815476Y-6186000D01*
X7815476Y-6186000D02*
X7825000Y-6157428D01*
X7825000Y-6157428D02*
X7834524Y-6109809D01*
X7834524Y-6109809D02*
X7834524Y-6071714D01*
X7834524Y-6071714D02*
X7825000Y-6024095D01*
X7825000Y-6024095D02*
X7815476Y-5995524D01*
X7815476Y-5995524D02*
X7805953Y-5976476D01*
X7805953Y-5976476D02*
X7786905Y-5947904D01*
X7786905Y-5947904D02*
X7777381Y-5938381D01*
X8106905Y-6243143D02*
X8097381Y-6233619D01*
X8097381Y-6233619D02*
X8078333Y-6205047D01*
X8078333Y-6205047D02*
X8068810Y-6186000D01*
X8068810Y-6186000D02*
X8059286Y-6157428D01*
X8059286Y-6157428D02*
X8049762Y-6109809D01*
X8049762Y-6109809D02*
X8049762Y-6071714D01*
X8049762Y-6071714D02*
X8059286Y-6024095D01*
X8059286Y-6024095D02*
X8068810Y-5995524D01*
X8068810Y-5995524D02*
X8078333Y-5976476D01*
X8078333Y-5976476D02*
X8097381Y-5947904D01*
X8097381Y-5947904D02*
X8106905Y-5938381D01*
X8183095Y-6033619D02*
X8183095Y-6166952D01*
X8183095Y-6052666D02*
X8192619Y-6043143D01*
X8192619Y-6043143D02*
X8211667Y-6033619D01*
X8211667Y-6033619D02*
X8240238Y-6033619D01*
X8240238Y-6033619D02*
X8259286Y-6043143D01*
X8259286Y-6043143D02*
X8268810Y-6062190D01*
X8268810Y-6062190D02*
X8268810Y-6166952D01*
X8392619Y-6166952D02*
X8373572Y-6157428D01*
X8373572Y-6157428D02*
X8364048Y-6147904D01*
X8364048Y-6147904D02*
X8354524Y-6128857D01*
X8354524Y-6128857D02*
X8354524Y-6071714D01*
X8354524Y-6071714D02*
X8364048Y-6052666D01*
X8364048Y-6052666D02*
X8373572Y-6043143D01*
X8373572Y-6043143D02*
X8392619Y-6033619D01*
X8392619Y-6033619D02*
X8421191Y-6033619D01*
X8421191Y-6033619D02*
X8440238Y-6043143D01*
X8440238Y-6043143D02*
X8449762Y-6052666D01*
X8449762Y-6052666D02*
X8459286Y-6071714D01*
X8459286Y-6071714D02*
X8459286Y-6128857D01*
X8459286Y-6128857D02*
X8449762Y-6147904D01*
X8449762Y-6147904D02*
X8440238Y-6157428D01*
X8440238Y-6157428D02*
X8421191Y-6166952D01*
X8421191Y-6166952D02*
X8392619Y-6166952D01*
X8516429Y-6033619D02*
X8592619Y-6033619D01*
X8545000Y-5966952D02*
X8545000Y-6138381D01*
X8545000Y-6138381D02*
X8554524Y-6157428D01*
X8554524Y-6157428D02*
X8573572Y-6166952D01*
X8573572Y-6166952D02*
X8592619Y-6166952D01*
X8779286Y-6033619D02*
X8779286Y-6233619D01*
X8779286Y-6043143D02*
X8798334Y-6033619D01*
X8798334Y-6033619D02*
X8836429Y-6033619D01*
X8836429Y-6033619D02*
X8855476Y-6043143D01*
X8855476Y-6043143D02*
X8865000Y-6052666D01*
X8865000Y-6052666D02*
X8874524Y-6071714D01*
X8874524Y-6071714D02*
X8874524Y-6128857D01*
X8874524Y-6128857D02*
X8865000Y-6147904D01*
X8865000Y-6147904D02*
X8855476Y-6157428D01*
X8855476Y-6157428D02*
X8836429Y-6166952D01*
X8836429Y-6166952D02*
X8798334Y-6166952D01*
X8798334Y-6166952D02*
X8779286Y-6157428D01*
X8988810Y-6166952D02*
X8969762Y-6157428D01*
X8969762Y-6157428D02*
X8960238Y-6138381D01*
X8960238Y-6138381D02*
X8960238Y-5966952D01*
X9150715Y-6166952D02*
X9150715Y-6062190D01*
X9150715Y-6062190D02*
X9141191Y-6043143D01*
X9141191Y-6043143D02*
X9122143Y-6033619D01*
X9122143Y-6033619D02*
X9084048Y-6033619D01*
X9084048Y-6033619D02*
X9065000Y-6043143D01*
X9150715Y-6157428D02*
X9131667Y-6166952D01*
X9131667Y-6166952D02*
X9084048Y-6166952D01*
X9084048Y-6166952D02*
X9065000Y-6157428D01*
X9065000Y-6157428D02*
X9055476Y-6138381D01*
X9055476Y-6138381D02*
X9055476Y-6119333D01*
X9055476Y-6119333D02*
X9065000Y-6100285D01*
X9065000Y-6100285D02*
X9084048Y-6090762D01*
X9084048Y-6090762D02*
X9131667Y-6090762D01*
X9131667Y-6090762D02*
X9150715Y-6081238D01*
X9217381Y-6033619D02*
X9293572Y-6033619D01*
X9245953Y-5966952D02*
X9245953Y-6138381D01*
X9245953Y-6138381D02*
X9255476Y-6157428D01*
X9255476Y-6157428D02*
X9274524Y-6166952D01*
X9274524Y-6166952D02*
X9293572Y-6166952D01*
X9436429Y-6157428D02*
X9417381Y-6166952D01*
X9417381Y-6166952D02*
X9379286Y-6166952D01*
X9379286Y-6166952D02*
X9360238Y-6157428D01*
X9360238Y-6157428D02*
X9350715Y-6138381D01*
X9350715Y-6138381D02*
X9350715Y-6062190D01*
X9350715Y-6062190D02*
X9360238Y-6043143D01*
X9360238Y-6043143D02*
X9379286Y-6033619D01*
X9379286Y-6033619D02*
X9417381Y-6033619D01*
X9417381Y-6033619D02*
X9436429Y-6043143D01*
X9436429Y-6043143D02*
X9445953Y-6062190D01*
X9445953Y-6062190D02*
X9445953Y-6081238D01*
X9445953Y-6081238D02*
X9350715Y-6100285D01*
X9617381Y-6166952D02*
X9617381Y-5966952D01*
X9617381Y-6157428D02*
X9598334Y-6166952D01*
X9598334Y-6166952D02*
X9560238Y-6166952D01*
X9560238Y-6166952D02*
X9541191Y-6157428D01*
X9541191Y-6157428D02*
X9531667Y-6147904D01*
X9531667Y-6147904D02*
X9522143Y-6128857D01*
X9522143Y-6128857D02*
X9522143Y-6071714D01*
X9522143Y-6071714D02*
X9531667Y-6052666D01*
X9531667Y-6052666D02*
X9541191Y-6043143D01*
X9541191Y-6043143D02*
X9560238Y-6033619D01*
X9560238Y-6033619D02*
X9598334Y-6033619D01*
X9598334Y-6033619D02*
X9617381Y-6043143D01*
X9693572Y-6243143D02*
X9703096Y-6233619D01*
X9703096Y-6233619D02*
X9722143Y-6205047D01*
X9722143Y-6205047D02*
X9731667Y-6186000D01*
X9731667Y-6186000D02*
X9741191Y-6157428D01*
X9741191Y-6157428D02*
X9750715Y-6109809D01*
X9750715Y-6109809D02*
X9750715Y-6071714D01*
X9750715Y-6071714D02*
X9741191Y-6024095D01*
X9741191Y-6024095D02*
X9731667Y-5995524D01*
X9731667Y-5995524D02*
X9722143Y-5976476D01*
X9722143Y-5976476D02*
X9703096Y-5947904D01*
X9703096Y-5947904D02*
X9693572Y-5938381D01*
M02*
