%TF.GenerationSoftware,KiCad,Pcbnew,(7.0.0)*%
%TF.CreationDate,2023-03-31T08:48:52-07:00*%
%TF.ProjectId,bracket-led,62726163-6b65-4742-9d6c-65642e6b6963,rev?*%
%TF.SameCoordinates,Original*%
%TF.FileFunction,Legend,Top*%
%TF.FilePolarity,Positive*%
%FSLAX46Y46*%
G04 Gerber Fmt 4.6, Leading zero omitted, Abs format (unit mm)*
G04 Created by KiCad (PCBNEW (7.0.0)) date 2023-03-31 08:48:52*
%MOMM*%
%LPD*%
G01*
G04 APERTURE LIST*
%ADD10C,0.100000*%
%ADD11C,0.120000*%
G04 APERTURE END LIST*
D10*
%TO.C,D2*%
X55261905Y-48867380D02*
X55261905Y-47867380D01*
X55261905Y-47867380D02*
X55500000Y-47867380D01*
X55500000Y-47867380D02*
X55642857Y-47915000D01*
X55642857Y-47915000D02*
X55738095Y-48010238D01*
X55738095Y-48010238D02*
X55785714Y-48105476D01*
X55785714Y-48105476D02*
X55833333Y-48295952D01*
X55833333Y-48295952D02*
X55833333Y-48438809D01*
X55833333Y-48438809D02*
X55785714Y-48629285D01*
X55785714Y-48629285D02*
X55738095Y-48724523D01*
X55738095Y-48724523D02*
X55642857Y-48819761D01*
X55642857Y-48819761D02*
X55500000Y-48867380D01*
X55500000Y-48867380D02*
X55261905Y-48867380D01*
X56214286Y-47962619D02*
X56261905Y-47915000D01*
X56261905Y-47915000D02*
X56357143Y-47867380D01*
X56357143Y-47867380D02*
X56595238Y-47867380D01*
X56595238Y-47867380D02*
X56690476Y-47915000D01*
X56690476Y-47915000D02*
X56738095Y-47962619D01*
X56738095Y-47962619D02*
X56785714Y-48057857D01*
X56785714Y-48057857D02*
X56785714Y-48153095D01*
X56785714Y-48153095D02*
X56738095Y-48295952D01*
X56738095Y-48295952D02*
X56166667Y-48867380D01*
X56166667Y-48867380D02*
X56785714Y-48867380D01*
%TO.C,J1*%
X34916666Y-48617380D02*
X34916666Y-49331666D01*
X34916666Y-49331666D02*
X34869047Y-49474523D01*
X34869047Y-49474523D02*
X34773809Y-49569761D01*
X34773809Y-49569761D02*
X34630952Y-49617380D01*
X34630952Y-49617380D02*
X34535714Y-49617380D01*
X35916666Y-49617380D02*
X35345238Y-49617380D01*
X35630952Y-49617380D02*
X35630952Y-48617380D01*
X35630952Y-48617380D02*
X35535714Y-48760238D01*
X35535714Y-48760238D02*
X35440476Y-48855476D01*
X35440476Y-48855476D02*
X35345238Y-48903095D01*
%TO.C,D1*%
X43261905Y-48867380D02*
X43261905Y-47867380D01*
X43261905Y-47867380D02*
X43500000Y-47867380D01*
X43500000Y-47867380D02*
X43642857Y-47915000D01*
X43642857Y-47915000D02*
X43738095Y-48010238D01*
X43738095Y-48010238D02*
X43785714Y-48105476D01*
X43785714Y-48105476D02*
X43833333Y-48295952D01*
X43833333Y-48295952D02*
X43833333Y-48438809D01*
X43833333Y-48438809D02*
X43785714Y-48629285D01*
X43785714Y-48629285D02*
X43738095Y-48724523D01*
X43738095Y-48724523D02*
X43642857Y-48819761D01*
X43642857Y-48819761D02*
X43500000Y-48867380D01*
X43500000Y-48867380D02*
X43261905Y-48867380D01*
X44785714Y-48867380D02*
X44214286Y-48867380D01*
X44500000Y-48867380D02*
X44500000Y-47867380D01*
X44500000Y-47867380D02*
X44404762Y-48010238D01*
X44404762Y-48010238D02*
X44309524Y-48105476D01*
X44309524Y-48105476D02*
X44214286Y-48153095D01*
%TO.C,H2*%
X55238095Y-54117380D02*
X55238095Y-53117380D01*
X55238095Y-53593571D02*
X55809523Y-53593571D01*
X55809523Y-54117380D02*
X55809523Y-53117380D01*
X56238095Y-53212619D02*
X56285714Y-53165000D01*
X56285714Y-53165000D02*
X56380952Y-53117380D01*
X56380952Y-53117380D02*
X56619047Y-53117380D01*
X56619047Y-53117380D02*
X56714285Y-53165000D01*
X56714285Y-53165000D02*
X56761904Y-53212619D01*
X56761904Y-53212619D02*
X56809523Y-53307857D01*
X56809523Y-53307857D02*
X56809523Y-53403095D01*
X56809523Y-53403095D02*
X56761904Y-53545952D01*
X56761904Y-53545952D02*
X56190476Y-54117380D01*
X56190476Y-54117380D02*
X56809523Y-54117380D01*
%TO.C,H1*%
X43238095Y-54117380D02*
X43238095Y-53117380D01*
X43238095Y-53593571D02*
X43809523Y-53593571D01*
X43809523Y-54117380D02*
X43809523Y-53117380D01*
X44809523Y-54117380D02*
X44238095Y-54117380D01*
X44523809Y-54117380D02*
X44523809Y-53117380D01*
X44523809Y-53117380D02*
X44428571Y-53260238D01*
X44428571Y-53260238D02*
X44333333Y-53355476D01*
X44333333Y-53355476D02*
X44238095Y-53403095D01*
%TO.C,D2*%
X51500000Y-49000000D02*
X52500000Y-49000000D01*
X51500000Y-51000000D02*
X53500000Y-51000000D01*
D11*
%TO.C,J1*%
X35340000Y-49790000D02*
X36190000Y-49790000D01*
X35340000Y-50690000D02*
X35340000Y-49790000D01*
X36190000Y-49490000D02*
X36440000Y-49490000D01*
X36190000Y-49790000D02*
X36190000Y-49490000D01*
X36440000Y-49490000D02*
X36440000Y-49350000D01*
X36510000Y-52410000D02*
X42990000Y-52410000D01*
X36700000Y-48714000D02*
X36950000Y-49067553D01*
X36950000Y-49067553D02*
X37200000Y-48714000D01*
X37200000Y-48714000D02*
X36700000Y-48714000D01*
X43310000Y-49490000D02*
X43060000Y-49490000D01*
X43310000Y-49790000D02*
X43310000Y-49490000D01*
X44160000Y-49790000D02*
X43310000Y-49790000D01*
X44160000Y-50690000D02*
X44160000Y-49790000D01*
D10*
%TO.C,D1*%
X46500000Y-49000000D02*
X47500000Y-49000000D01*
X46500000Y-51000000D02*
X48500000Y-51000000D01*
%TO.C,H2*%
X54913000Y-53961760D02*
X50087000Y-53961760D01*
X54913000Y-47611760D02*
X54913000Y-53961760D01*
X50087000Y-53961760D02*
X50087000Y-47611760D01*
%TO.C,H1*%
X49913000Y-53961760D02*
X45087000Y-53961760D01*
X49913000Y-47611760D02*
X49913000Y-53961760D01*
X45087000Y-53961760D02*
X45087000Y-47611760D01*
%TD*%
M02*
