%TF.GenerationSoftware,KiCad,Pcbnew,(7.0.0)*%
%TF.CreationDate,2023-03-31T08:50:08-07:00*%
%TF.ProjectId,bracket-led,62726163-6b65-4742-9d6c-65642e6b6963,rev?*%
%TF.SameCoordinates,Original*%
%TF.FileFunction,Drillmap*%
%TF.FilePolarity,Positive*%
%FSLAX45Y45*%
G04 Gerber Fmt 4.5, Leading zero omitted, Abs format (unit mm)*
G04 Created by KiCad (PCBNEW (7.0.0)) date 2023-03-31 08:50:08*
%MOMM*%
%LPD*%
G01*
G04 APERTURE LIST*
%ADD10C,0.100000*%
%ADD11C,0.200000*%
%ADD12C,0.040000*%
G04 APERTURE END LIST*
D10*
X5850000Y-5223476D02*
X5850000Y-5448476D01*
X5723125Y-4973476D02*
G75*
G03*
X5723125Y-5223476I0J-125000D01*
G01*
X5723125Y-5223476D02*
X5850000Y-5223476D01*
X5850000Y-5448476D02*
X3150000Y-5448476D01*
X3150000Y-4748476D02*
X3150000Y-4973476D01*
X3275000Y-5223476D02*
G75*
G03*
X3275000Y-4973476I0J125000D01*
G01*
X3150000Y-4748476D02*
X5850000Y-4748476D01*
X5850000Y-4748476D02*
X5850000Y-4973476D01*
X5723125Y-4973476D02*
X5850000Y-4973476D01*
X3275000Y-5223476D02*
X3150000Y-5223476D01*
X3150000Y-5448476D02*
X3150000Y-5223476D01*
X3275000Y-4973476D02*
X3150000Y-4973476D01*
D11*
D12*
X3205000Y-4805000D02*
X3245000Y-4845000D01*
X3245000Y-4805000D02*
X3205000Y-4845000D01*
X3205000Y-5355000D02*
X3245000Y-5395000D01*
X3245000Y-5355000D02*
X3205000Y-5395000D01*
X3675000Y-5275000D02*
X3715000Y-5315000D01*
X3715000Y-5275000D02*
X3675000Y-5315000D01*
X3755000Y-4830000D02*
X3795000Y-4870000D01*
X3795000Y-4830000D02*
X3755000Y-4870000D01*
X3835000Y-5275000D02*
X3875000Y-5315000D01*
X3875000Y-5275000D02*
X3835000Y-5315000D01*
X3915000Y-4830000D02*
X3955000Y-4870000D01*
X3955000Y-4830000D02*
X3915000Y-4870000D01*
X4075000Y-4830000D02*
X4115000Y-4870000D01*
X4115000Y-4830000D02*
X4075000Y-4870000D01*
X4155000Y-5275000D02*
X4195000Y-5315000D01*
X4195000Y-5275000D02*
X4155000Y-5315000D01*
X4555000Y-4980000D02*
X4595000Y-5020000D01*
X4595000Y-4980000D02*
X4555000Y-5020000D01*
X4905000Y-4880000D02*
X4945000Y-4920000D01*
X4945000Y-4880000D02*
X4905000Y-4920000D01*
X4905000Y-4980000D02*
X4945000Y-5020000D01*
X4945000Y-4980000D02*
X4905000Y-5020000D01*
X4905000Y-5080000D02*
X4945000Y-5120000D01*
X4945000Y-5080000D02*
X4905000Y-5120000D01*
X5055000Y-4980000D02*
X5095000Y-5020000D01*
X5095000Y-4980000D02*
X5055000Y-5020000D01*
X5405000Y-4980000D02*
X5445000Y-5020000D01*
X5445000Y-4980000D02*
X5405000Y-5020000D01*
X5755000Y-4805000D02*
X5795000Y-4845000D01*
X5795000Y-4805000D02*
X5755000Y-4845000D01*
X5755000Y-5355000D02*
X5795000Y-5395000D01*
X5795000Y-5355000D02*
X5755000Y-5395000D01*
D11*
X3392619Y-5746952D02*
X3392619Y-5546952D01*
X3392619Y-5546952D02*
X3440238Y-5546952D01*
X3440238Y-5546952D02*
X3468809Y-5556476D01*
X3468809Y-5556476D02*
X3487857Y-5575524D01*
X3487857Y-5575524D02*
X3497381Y-5594571D01*
X3497381Y-5594571D02*
X3506905Y-5632666D01*
X3506905Y-5632666D02*
X3506905Y-5661238D01*
X3506905Y-5661238D02*
X3497381Y-5699333D01*
X3497381Y-5699333D02*
X3487857Y-5718381D01*
X3487857Y-5718381D02*
X3468809Y-5737428D01*
X3468809Y-5737428D02*
X3440238Y-5746952D01*
X3440238Y-5746952D02*
X3392619Y-5746952D01*
X3592619Y-5746952D02*
X3592619Y-5613619D01*
X3592619Y-5651714D02*
X3602143Y-5632666D01*
X3602143Y-5632666D02*
X3611667Y-5623143D01*
X3611667Y-5623143D02*
X3630714Y-5613619D01*
X3630714Y-5613619D02*
X3649762Y-5613619D01*
X3716428Y-5746952D02*
X3716428Y-5613619D01*
X3716428Y-5546952D02*
X3706905Y-5556476D01*
X3706905Y-5556476D02*
X3716428Y-5566000D01*
X3716428Y-5566000D02*
X3725952Y-5556476D01*
X3725952Y-5556476D02*
X3716428Y-5546952D01*
X3716428Y-5546952D02*
X3716428Y-5566000D01*
X3840238Y-5746952D02*
X3821190Y-5737428D01*
X3821190Y-5737428D02*
X3811667Y-5718381D01*
X3811667Y-5718381D02*
X3811667Y-5546952D01*
X3945000Y-5746952D02*
X3925952Y-5737428D01*
X3925952Y-5737428D02*
X3916428Y-5718381D01*
X3916428Y-5718381D02*
X3916428Y-5546952D01*
X4141190Y-5746952D02*
X4141190Y-5546952D01*
X4141190Y-5546952D02*
X4207857Y-5689809D01*
X4207857Y-5689809D02*
X4274524Y-5546952D01*
X4274524Y-5546952D02*
X4274524Y-5746952D01*
X4455476Y-5746952D02*
X4455476Y-5642190D01*
X4455476Y-5642190D02*
X4445952Y-5623143D01*
X4445952Y-5623143D02*
X4426905Y-5613619D01*
X4426905Y-5613619D02*
X4388809Y-5613619D01*
X4388809Y-5613619D02*
X4369762Y-5623143D01*
X4455476Y-5737428D02*
X4436429Y-5746952D01*
X4436429Y-5746952D02*
X4388809Y-5746952D01*
X4388809Y-5746952D02*
X4369762Y-5737428D01*
X4369762Y-5737428D02*
X4360238Y-5718381D01*
X4360238Y-5718381D02*
X4360238Y-5699333D01*
X4360238Y-5699333D02*
X4369762Y-5680285D01*
X4369762Y-5680285D02*
X4388809Y-5670762D01*
X4388809Y-5670762D02*
X4436429Y-5670762D01*
X4436429Y-5670762D02*
X4455476Y-5661238D01*
X4550714Y-5613619D02*
X4550714Y-5813619D01*
X4550714Y-5623143D02*
X4569762Y-5613619D01*
X4569762Y-5613619D02*
X4607857Y-5613619D01*
X4607857Y-5613619D02*
X4626905Y-5623143D01*
X4626905Y-5623143D02*
X4636429Y-5632666D01*
X4636429Y-5632666D02*
X4645952Y-5651714D01*
X4645952Y-5651714D02*
X4645952Y-5708857D01*
X4645952Y-5708857D02*
X4636429Y-5727904D01*
X4636429Y-5727904D02*
X4626905Y-5737428D01*
X4626905Y-5737428D02*
X4607857Y-5746952D01*
X4607857Y-5746952D02*
X4569762Y-5746952D01*
X4569762Y-5746952D02*
X4550714Y-5737428D01*
X4731667Y-5727904D02*
X4741190Y-5737428D01*
X4741190Y-5737428D02*
X4731667Y-5746952D01*
X4731667Y-5746952D02*
X4722143Y-5737428D01*
X4722143Y-5737428D02*
X4731667Y-5727904D01*
X4731667Y-5727904D02*
X4731667Y-5746952D01*
X4731667Y-5623143D02*
X4741190Y-5632666D01*
X4741190Y-5632666D02*
X4731667Y-5642190D01*
X4731667Y-5642190D02*
X4722143Y-5632666D01*
X4722143Y-5632666D02*
X4731667Y-5623143D01*
X4731667Y-5623143D02*
X4731667Y-5642190D01*
D12*
X3105000Y-6073476D02*
X3145000Y-6113476D01*
X3145000Y-6073476D02*
X3105000Y-6113476D01*
D11*
X3430714Y-5966952D02*
X3449762Y-5966952D01*
X3449762Y-5966952D02*
X3468809Y-5976476D01*
X3468809Y-5976476D02*
X3478333Y-5986000D01*
X3478333Y-5986000D02*
X3487857Y-6005047D01*
X3487857Y-6005047D02*
X3497381Y-6043143D01*
X3497381Y-6043143D02*
X3497381Y-6090762D01*
X3497381Y-6090762D02*
X3487857Y-6128857D01*
X3487857Y-6128857D02*
X3478333Y-6147904D01*
X3478333Y-6147904D02*
X3468809Y-6157428D01*
X3468809Y-6157428D02*
X3449762Y-6166952D01*
X3449762Y-6166952D02*
X3430714Y-6166952D01*
X3430714Y-6166952D02*
X3411667Y-6157428D01*
X3411667Y-6157428D02*
X3402143Y-6147904D01*
X3402143Y-6147904D02*
X3392619Y-6128857D01*
X3392619Y-6128857D02*
X3383095Y-6090762D01*
X3383095Y-6090762D02*
X3383095Y-6043143D01*
X3383095Y-6043143D02*
X3392619Y-6005047D01*
X3392619Y-6005047D02*
X3402143Y-5986000D01*
X3402143Y-5986000D02*
X3411667Y-5976476D01*
X3411667Y-5976476D02*
X3430714Y-5966952D01*
X3583095Y-6147904D02*
X3592619Y-6157428D01*
X3592619Y-6157428D02*
X3583095Y-6166952D01*
X3583095Y-6166952D02*
X3573571Y-6157428D01*
X3573571Y-6157428D02*
X3583095Y-6147904D01*
X3583095Y-6147904D02*
X3583095Y-6166952D01*
X3764048Y-6033619D02*
X3764048Y-6166952D01*
X3716428Y-5957428D02*
X3668809Y-6100285D01*
X3668809Y-6100285D02*
X3792619Y-6100285D01*
X3906905Y-5966952D02*
X3925952Y-5966952D01*
X3925952Y-5966952D02*
X3945000Y-5976476D01*
X3945000Y-5976476D02*
X3954524Y-5986000D01*
X3954524Y-5986000D02*
X3964048Y-6005047D01*
X3964048Y-6005047D02*
X3973571Y-6043143D01*
X3973571Y-6043143D02*
X3973571Y-6090762D01*
X3973571Y-6090762D02*
X3964048Y-6128857D01*
X3964048Y-6128857D02*
X3954524Y-6147904D01*
X3954524Y-6147904D02*
X3945000Y-6157428D01*
X3945000Y-6157428D02*
X3925952Y-6166952D01*
X3925952Y-6166952D02*
X3906905Y-6166952D01*
X3906905Y-6166952D02*
X3887857Y-6157428D01*
X3887857Y-6157428D02*
X3878333Y-6147904D01*
X3878333Y-6147904D02*
X3868809Y-6128857D01*
X3868809Y-6128857D02*
X3859286Y-6090762D01*
X3859286Y-6090762D02*
X3859286Y-6043143D01*
X3859286Y-6043143D02*
X3868809Y-6005047D01*
X3868809Y-6005047D02*
X3878333Y-5986000D01*
X3878333Y-5986000D02*
X3887857Y-5976476D01*
X3887857Y-5976476D02*
X3906905Y-5966952D01*
X4097381Y-5966952D02*
X4116429Y-5966952D01*
X4116429Y-5966952D02*
X4135476Y-5976476D01*
X4135476Y-5976476D02*
X4145000Y-5986000D01*
X4145000Y-5986000D02*
X4154524Y-6005047D01*
X4154524Y-6005047D02*
X4164048Y-6043143D01*
X4164048Y-6043143D02*
X4164048Y-6090762D01*
X4164048Y-6090762D02*
X4154524Y-6128857D01*
X4154524Y-6128857D02*
X4145000Y-6147904D01*
X4145000Y-6147904D02*
X4135476Y-6157428D01*
X4135476Y-6157428D02*
X4116429Y-6166952D01*
X4116429Y-6166952D02*
X4097381Y-6166952D01*
X4097381Y-6166952D02*
X4078333Y-6157428D01*
X4078333Y-6157428D02*
X4068809Y-6147904D01*
X4068809Y-6147904D02*
X4059286Y-6128857D01*
X4059286Y-6128857D02*
X4049762Y-6090762D01*
X4049762Y-6090762D02*
X4049762Y-6043143D01*
X4049762Y-6043143D02*
X4059286Y-6005047D01*
X4059286Y-6005047D02*
X4068809Y-5986000D01*
X4068809Y-5986000D02*
X4078333Y-5976476D01*
X4078333Y-5976476D02*
X4097381Y-5966952D01*
X4249762Y-6166952D02*
X4249762Y-6033619D01*
X4249762Y-6052666D02*
X4259286Y-6043143D01*
X4259286Y-6043143D02*
X4278333Y-6033619D01*
X4278333Y-6033619D02*
X4306905Y-6033619D01*
X4306905Y-6033619D02*
X4325952Y-6043143D01*
X4325952Y-6043143D02*
X4335476Y-6062190D01*
X4335476Y-6062190D02*
X4335476Y-6166952D01*
X4335476Y-6062190D02*
X4345000Y-6043143D01*
X4345000Y-6043143D02*
X4364048Y-6033619D01*
X4364048Y-6033619D02*
X4392619Y-6033619D01*
X4392619Y-6033619D02*
X4411667Y-6043143D01*
X4411667Y-6043143D02*
X4421191Y-6062190D01*
X4421191Y-6062190D02*
X4421191Y-6166952D01*
X4516429Y-6166952D02*
X4516429Y-6033619D01*
X4516429Y-6052666D02*
X4525952Y-6043143D01*
X4525952Y-6043143D02*
X4545000Y-6033619D01*
X4545000Y-6033619D02*
X4573572Y-6033619D01*
X4573572Y-6033619D02*
X4592619Y-6043143D01*
X4592619Y-6043143D02*
X4602143Y-6062190D01*
X4602143Y-6062190D02*
X4602143Y-6166952D01*
X4602143Y-6062190D02*
X4611667Y-6043143D01*
X4611667Y-6043143D02*
X4630714Y-6033619D01*
X4630714Y-6033619D02*
X4659286Y-6033619D01*
X4659286Y-6033619D02*
X4678333Y-6043143D01*
X4678333Y-6043143D02*
X4687857Y-6062190D01*
X4687857Y-6062190D02*
X4687857Y-6166952D01*
X5045952Y-5957428D02*
X4874524Y-6214571D01*
X5270714Y-5966952D02*
X5289762Y-5966952D01*
X5289762Y-5966952D02*
X5308810Y-5976476D01*
X5308810Y-5976476D02*
X5318333Y-5986000D01*
X5318333Y-5986000D02*
X5327857Y-6005047D01*
X5327857Y-6005047D02*
X5337381Y-6043143D01*
X5337381Y-6043143D02*
X5337381Y-6090762D01*
X5337381Y-6090762D02*
X5327857Y-6128857D01*
X5327857Y-6128857D02*
X5318333Y-6147904D01*
X5318333Y-6147904D02*
X5308810Y-6157428D01*
X5308810Y-6157428D02*
X5289762Y-6166952D01*
X5289762Y-6166952D02*
X5270714Y-6166952D01*
X5270714Y-6166952D02*
X5251667Y-6157428D01*
X5251667Y-6157428D02*
X5242143Y-6147904D01*
X5242143Y-6147904D02*
X5232619Y-6128857D01*
X5232619Y-6128857D02*
X5223095Y-6090762D01*
X5223095Y-6090762D02*
X5223095Y-6043143D01*
X5223095Y-6043143D02*
X5232619Y-6005047D01*
X5232619Y-6005047D02*
X5242143Y-5986000D01*
X5242143Y-5986000D02*
X5251667Y-5976476D01*
X5251667Y-5976476D02*
X5270714Y-5966952D01*
X5423095Y-6147904D02*
X5432619Y-6157428D01*
X5432619Y-6157428D02*
X5423095Y-6166952D01*
X5423095Y-6166952D02*
X5413572Y-6157428D01*
X5413572Y-6157428D02*
X5423095Y-6147904D01*
X5423095Y-6147904D02*
X5423095Y-6166952D01*
X5556429Y-5966952D02*
X5575476Y-5966952D01*
X5575476Y-5966952D02*
X5594524Y-5976476D01*
X5594524Y-5976476D02*
X5604048Y-5986000D01*
X5604048Y-5986000D02*
X5613571Y-6005047D01*
X5613571Y-6005047D02*
X5623095Y-6043143D01*
X5623095Y-6043143D02*
X5623095Y-6090762D01*
X5623095Y-6090762D02*
X5613571Y-6128857D01*
X5613571Y-6128857D02*
X5604048Y-6147904D01*
X5604048Y-6147904D02*
X5594524Y-6157428D01*
X5594524Y-6157428D02*
X5575476Y-6166952D01*
X5575476Y-6166952D02*
X5556429Y-6166952D01*
X5556429Y-6166952D02*
X5537381Y-6157428D01*
X5537381Y-6157428D02*
X5527857Y-6147904D01*
X5527857Y-6147904D02*
X5518333Y-6128857D01*
X5518333Y-6128857D02*
X5508810Y-6090762D01*
X5508810Y-6090762D02*
X5508810Y-6043143D01*
X5508810Y-6043143D02*
X5518333Y-6005047D01*
X5518333Y-6005047D02*
X5527857Y-5986000D01*
X5527857Y-5986000D02*
X5537381Y-5976476D01*
X5537381Y-5976476D02*
X5556429Y-5966952D01*
X5813571Y-6166952D02*
X5699286Y-6166952D01*
X5756429Y-6166952D02*
X5756429Y-5966952D01*
X5756429Y-5966952D02*
X5737381Y-5995524D01*
X5737381Y-5995524D02*
X5718333Y-6014571D01*
X5718333Y-6014571D02*
X5699286Y-6024095D01*
X5994524Y-5966952D02*
X5899286Y-5966952D01*
X5899286Y-5966952D02*
X5889762Y-6062190D01*
X5889762Y-6062190D02*
X5899286Y-6052666D01*
X5899286Y-6052666D02*
X5918333Y-6043143D01*
X5918333Y-6043143D02*
X5965952Y-6043143D01*
X5965952Y-6043143D02*
X5985000Y-6052666D01*
X5985000Y-6052666D02*
X5994524Y-6062190D01*
X5994524Y-6062190D02*
X6004048Y-6081238D01*
X6004048Y-6081238D02*
X6004048Y-6128857D01*
X6004048Y-6128857D02*
X5994524Y-6147904D01*
X5994524Y-6147904D02*
X5985000Y-6157428D01*
X5985000Y-6157428D02*
X5965952Y-6166952D01*
X5965952Y-6166952D02*
X5918333Y-6166952D01*
X5918333Y-6166952D02*
X5899286Y-6157428D01*
X5899286Y-6157428D02*
X5889762Y-6147904D01*
X6070714Y-5966952D02*
X6204048Y-5966952D01*
X6204048Y-5966952D02*
X6118333Y-6166952D01*
X6270714Y-5966952D02*
X6270714Y-6005047D01*
X6346905Y-5966952D02*
X6346905Y-6005047D01*
X6609762Y-6243143D02*
X6600238Y-6233619D01*
X6600238Y-6233619D02*
X6581191Y-6205047D01*
X6581191Y-6205047D02*
X6571667Y-6186000D01*
X6571667Y-6186000D02*
X6562143Y-6157428D01*
X6562143Y-6157428D02*
X6552619Y-6109809D01*
X6552619Y-6109809D02*
X6552619Y-6071714D01*
X6552619Y-6071714D02*
X6562143Y-6024095D01*
X6562143Y-6024095D02*
X6571667Y-5995524D01*
X6571667Y-5995524D02*
X6581191Y-5976476D01*
X6581191Y-5976476D02*
X6600238Y-5947904D01*
X6600238Y-5947904D02*
X6609762Y-5938381D01*
X6790714Y-6166952D02*
X6676429Y-6166952D01*
X6733571Y-6166952D02*
X6733571Y-5966952D01*
X6733571Y-5966952D02*
X6714524Y-5995524D01*
X6714524Y-5995524D02*
X6695476Y-6014571D01*
X6695476Y-6014571D02*
X6676429Y-6024095D01*
X6962143Y-5966952D02*
X6924048Y-5966952D01*
X6924048Y-5966952D02*
X6905000Y-5976476D01*
X6905000Y-5976476D02*
X6895476Y-5986000D01*
X6895476Y-5986000D02*
X6876429Y-6014571D01*
X6876429Y-6014571D02*
X6866905Y-6052666D01*
X6866905Y-6052666D02*
X6866905Y-6128857D01*
X6866905Y-6128857D02*
X6876429Y-6147904D01*
X6876429Y-6147904D02*
X6885952Y-6157428D01*
X6885952Y-6157428D02*
X6905000Y-6166952D01*
X6905000Y-6166952D02*
X6943095Y-6166952D01*
X6943095Y-6166952D02*
X6962143Y-6157428D01*
X6962143Y-6157428D02*
X6971667Y-6147904D01*
X6971667Y-6147904D02*
X6981191Y-6128857D01*
X6981191Y-6128857D02*
X6981191Y-6081238D01*
X6981191Y-6081238D02*
X6971667Y-6062190D01*
X6971667Y-6062190D02*
X6962143Y-6052666D01*
X6962143Y-6052666D02*
X6943095Y-6043143D01*
X6943095Y-6043143D02*
X6905000Y-6043143D01*
X6905000Y-6043143D02*
X6885952Y-6052666D01*
X6885952Y-6052666D02*
X6876429Y-6062190D01*
X6876429Y-6062190D02*
X6866905Y-6081238D01*
X7186905Y-6166952D02*
X7186905Y-5966952D01*
X7272619Y-6166952D02*
X7272619Y-6062190D01*
X7272619Y-6062190D02*
X7263095Y-6043143D01*
X7263095Y-6043143D02*
X7244048Y-6033619D01*
X7244048Y-6033619D02*
X7215476Y-6033619D01*
X7215476Y-6033619D02*
X7196429Y-6043143D01*
X7196429Y-6043143D02*
X7186905Y-6052666D01*
X7396429Y-6166952D02*
X7377381Y-6157428D01*
X7377381Y-6157428D02*
X7367857Y-6147904D01*
X7367857Y-6147904D02*
X7358333Y-6128857D01*
X7358333Y-6128857D02*
X7358333Y-6071714D01*
X7358333Y-6071714D02*
X7367857Y-6052666D01*
X7367857Y-6052666D02*
X7377381Y-6043143D01*
X7377381Y-6043143D02*
X7396429Y-6033619D01*
X7396429Y-6033619D02*
X7425000Y-6033619D01*
X7425000Y-6033619D02*
X7444048Y-6043143D01*
X7444048Y-6043143D02*
X7453572Y-6052666D01*
X7453572Y-6052666D02*
X7463095Y-6071714D01*
X7463095Y-6071714D02*
X7463095Y-6128857D01*
X7463095Y-6128857D02*
X7453572Y-6147904D01*
X7453572Y-6147904D02*
X7444048Y-6157428D01*
X7444048Y-6157428D02*
X7425000Y-6166952D01*
X7425000Y-6166952D02*
X7396429Y-6166952D01*
X7577381Y-6166952D02*
X7558333Y-6157428D01*
X7558333Y-6157428D02*
X7548810Y-6138381D01*
X7548810Y-6138381D02*
X7548810Y-5966952D01*
X7729762Y-6157428D02*
X7710714Y-6166952D01*
X7710714Y-6166952D02*
X7672619Y-6166952D01*
X7672619Y-6166952D02*
X7653572Y-6157428D01*
X7653572Y-6157428D02*
X7644048Y-6138381D01*
X7644048Y-6138381D02*
X7644048Y-6062190D01*
X7644048Y-6062190D02*
X7653572Y-6043143D01*
X7653572Y-6043143D02*
X7672619Y-6033619D01*
X7672619Y-6033619D02*
X7710714Y-6033619D01*
X7710714Y-6033619D02*
X7729762Y-6043143D01*
X7729762Y-6043143D02*
X7739286Y-6062190D01*
X7739286Y-6062190D02*
X7739286Y-6081238D01*
X7739286Y-6081238D02*
X7644048Y-6100285D01*
X7815476Y-6157428D02*
X7834524Y-6166952D01*
X7834524Y-6166952D02*
X7872619Y-6166952D01*
X7872619Y-6166952D02*
X7891667Y-6157428D01*
X7891667Y-6157428D02*
X7901191Y-6138381D01*
X7901191Y-6138381D02*
X7901191Y-6128857D01*
X7901191Y-6128857D02*
X7891667Y-6109809D01*
X7891667Y-6109809D02*
X7872619Y-6100285D01*
X7872619Y-6100285D02*
X7844048Y-6100285D01*
X7844048Y-6100285D02*
X7825000Y-6090762D01*
X7825000Y-6090762D02*
X7815476Y-6071714D01*
X7815476Y-6071714D02*
X7815476Y-6062190D01*
X7815476Y-6062190D02*
X7825000Y-6043143D01*
X7825000Y-6043143D02*
X7844048Y-6033619D01*
X7844048Y-6033619D02*
X7872619Y-6033619D01*
X7872619Y-6033619D02*
X7891667Y-6043143D01*
X7967857Y-6243143D02*
X7977381Y-6233619D01*
X7977381Y-6233619D02*
X7996429Y-6205047D01*
X7996429Y-6205047D02*
X8005953Y-6186000D01*
X8005953Y-6186000D02*
X8015476Y-6157428D01*
X8015476Y-6157428D02*
X8025000Y-6109809D01*
X8025000Y-6109809D02*
X8025000Y-6071714D01*
X8025000Y-6071714D02*
X8015476Y-6024095D01*
X8015476Y-6024095D02*
X8005953Y-5995524D01*
X8005953Y-5995524D02*
X7996429Y-5976476D01*
X7996429Y-5976476D02*
X7977381Y-5947904D01*
X7977381Y-5947904D02*
X7967857Y-5938381D01*
M02*
