%TF.GenerationSoftware,KiCad,Pcbnew,(7.0.0)*%
%TF.CreationDate,2023-03-31T08:48:52-07:00*%
%TF.ProjectId,bracket-led,62726163-6b65-4742-9d6c-65642e6b6963,rev?*%
%TF.SameCoordinates,Original*%
%TF.FileFunction,Copper,L1,Top*%
%TF.FilePolarity,Positive*%
%FSLAX46Y46*%
G04 Gerber Fmt 4.6, Leading zero omitted, Abs format (unit mm)*
G04 Created by KiCad (PCBNEW (7.0.0)) date 2023-03-31 08:48:52*
%MOMM*%
%LPD*%
G01*
G04 APERTURE LIST*
G04 Aperture macros list*
%AMRoundRect*
0 Rectangle with rounded corners*
0 $1 Rounding radius*
0 $2 $3 $4 $5 $6 $7 $8 $9 X,Y pos of 4 corners*
0 Add a 4 corners polygon primitive as box body*
4,1,4,$2,$3,$4,$5,$6,$7,$8,$9,$2,$3,0*
0 Add four circle primitives for the rounded corners*
1,1,$1+$1,$2,$3*
1,1,$1+$1,$4,$5*
1,1,$1+$1,$6,$7*
1,1,$1+$1,$8,$9*
0 Add four rect primitives between the rounded corners*
20,1,$1+$1,$2,$3,$4,$5,0*
20,1,$1+$1,$4,$5,$6,$7,0*
20,1,$1+$1,$6,$7,$8,$9,0*
20,1,$1+$1,$8,$9,$2,$3,0*%
G04 Aperture macros list end*
%TA.AperFunction,SMDPad,CuDef*%
%ADD10R,0.550000X0.400000*%
%TD*%
%TA.AperFunction,SMDPad,CuDef*%
%ADD11R,0.700000X0.500000*%
%TD*%
%TA.AperFunction,SMDPad,CuDef*%
%ADD12RoundRect,0.125000X-0.125000X-0.375000X0.125000X-0.375000X0.125000X0.375000X-0.125000X0.375000X0*%
%TD*%
%TA.AperFunction,SMDPad,CuDef*%
%ADD13RoundRect,0.250000X-0.350000X-0.600000X0.350000X-0.600000X0.350000X0.600000X-0.350000X0.600000X0*%
%TD*%
%TA.AperFunction,ViaPad*%
%ADD14C,0.800000*%
%TD*%
%TA.AperFunction,Conductor*%
%ADD15C,0.250000*%
%TD*%
G04 APERTURE END LIST*
D10*
%TO.P,D2,1,BA*%
%TO.N,/B2*%
X53174999Y-49274999D03*
%TO.P,D2,2,BK*%
%TO.N,GND*%
X51824999Y-49274999D03*
D11*
%TO.P,D2,3,RA*%
%TO.N,/R2*%
X53249999Y-49999999D03*
%TO.P,D2,4,RK*%
%TO.N,GND*%
X51749999Y-49999999D03*
D10*
%TO.P,D2,5,GA*%
%TO.N,/G2*%
X53174999Y-50724999D03*
%TO.P,D2,6,GK*%
%TO.N,GND*%
X51824999Y-50724999D03*
%TD*%
D12*
%TO.P,J1,1,Pin_1*%
%TO.N,/G1*%
X36950000Y-49850000D03*
%TO.P,J1,2,Pin_2*%
%TO.N,GND*%
X37750000Y-49850000D03*
%TO.P,J1,3,Pin_3*%
%TO.N,/R1*%
X38550000Y-49850000D03*
%TO.P,J1,4,Pin_4*%
%TO.N,/B1*%
X39350000Y-49850000D03*
%TO.P,J1,5,Pin_5*%
%TO.N,/G2*%
X40150000Y-49850000D03*
%TO.P,J1,6,Pin_6*%
%TO.N,GND*%
X40950000Y-49850000D03*
%TO.P,J1,7,Pin_7*%
%TO.N,/R2*%
X41750000Y-49850000D03*
%TO.P,J1,8,Pin_8*%
%TO.N,/B2*%
X42550000Y-49850000D03*
D13*
%TO.P,J1,MP*%
%TO.N,N/C*%
X35650000Y-51800000D03*
X43850000Y-51800000D03*
%TD*%
D10*
%TO.P,D1,1,BA*%
%TO.N,/B1*%
X48174999Y-49274999D03*
%TO.P,D1,2,BK*%
%TO.N,GND*%
X46824999Y-49274999D03*
D11*
%TO.P,D1,3,RA*%
%TO.N,/R1*%
X48249999Y-49999999D03*
%TO.P,D1,4,RK*%
%TO.N,GND*%
X46749999Y-49999999D03*
D10*
%TO.P,D1,5,GA*%
%TO.N,/G1*%
X48174999Y-50724999D03*
%TO.P,D1,6,GK*%
%TO.N,GND*%
X46824999Y-50724999D03*
%TD*%
D14*
%TO.N,/G1*%
X36949999Y-52949999D03*
X49250000Y-51000000D03*
%TO.N,/R1*%
X38549999Y-52949997D03*
X49250000Y-50000000D03*
%TO.N,/B1*%
X49250000Y-49000000D03*
X39350000Y-48500000D03*
%TO.N,/R2*%
X41750000Y-52949998D03*
X54250000Y-50000000D03*
%TO.N,GND*%
X45750000Y-50000000D03*
X57750000Y-53750000D03*
X32250000Y-53750000D03*
X32250000Y-48250000D03*
X50750000Y-50000000D03*
X37750000Y-48500000D03*
X57750000Y-48250000D03*
X40950000Y-48500000D03*
%TD*%
D15*
%TO.N,/G1*%
X36950000Y-49850000D02*
X36950000Y-52949998D01*
X48175000Y-50725000D02*
X48975000Y-50725000D01*
X48975000Y-50725000D02*
X49250000Y-51000000D01*
X36950000Y-52949998D02*
X36949999Y-52949999D01*
%TO.N,/R1*%
X48250000Y-50000000D02*
X49250000Y-50000000D01*
X38550000Y-49850000D02*
X38550000Y-52949996D01*
X38550000Y-52949996D02*
X38549999Y-52949997D01*
%TO.N,/B1*%
X39350000Y-49850000D02*
X39350000Y-48600000D01*
X48175000Y-49275000D02*
X48975000Y-49275000D01*
X39350000Y-48600000D02*
X39250000Y-48500000D01*
X48975000Y-49275000D02*
X49250000Y-49000000D01*
%TO.N,/G2*%
X41350000Y-53750000D02*
X54068274Y-53750000D01*
X54068274Y-53750000D02*
X54729200Y-53089074D01*
X54729200Y-53089074D02*
X54729200Y-52279200D01*
X54729200Y-52279200D02*
X53175000Y-50725000D01*
X40150000Y-49850000D02*
X40150000Y-52550000D01*
X40150000Y-52550000D02*
X41350000Y-53750000D01*
%TO.N,/R2*%
X41750000Y-49850000D02*
X41750000Y-52950000D01*
X54250000Y-50000000D02*
X53250000Y-50000000D01*
%TO.N,/B2*%
X52950000Y-47700000D02*
X44000000Y-47700000D01*
X53900000Y-48650000D02*
X52950000Y-47700000D01*
X53525000Y-49275000D02*
X53900000Y-48900000D01*
X42550000Y-49150000D02*
X42550000Y-49850000D01*
X53175000Y-49275000D02*
X53525000Y-49275000D01*
X44000000Y-47700000D02*
X42550000Y-49150000D01*
X53900000Y-48900000D02*
X53900000Y-48650000D01*
%TO.N,GND*%
X37750000Y-49850000D02*
X37750000Y-48500000D01*
X51825000Y-49275000D02*
X51825000Y-50725000D01*
X40950000Y-49850000D02*
X40950000Y-48500000D01*
X46825000Y-49275000D02*
X46825000Y-50725000D01*
%TD*%
%TA.AperFunction,Conductor*%
%TO.N,GND*%
G36*
X43440636Y-47498775D02*
G01*
X43484659Y-47536375D01*
X43506814Y-47589862D01*
X43502272Y-47647578D01*
X43472022Y-47696940D01*
X43278173Y-47890789D01*
X42321107Y-48847853D01*
X42301258Y-48863973D01*
X42292164Y-48869916D01*
X42285858Y-48878017D01*
X42285852Y-48878023D01*
X42272720Y-48894895D01*
X42269273Y-48898822D01*
X42269418Y-48898945D01*
X42266105Y-48902855D01*
X42262480Y-48906482D01*
X42259505Y-48910648D01*
X42259498Y-48910657D01*
X42250401Y-48923399D01*
X42247342Y-48927501D01*
X42221500Y-48960703D01*
X42221496Y-48960710D01*
X42215191Y-48968811D01*
X42212609Y-48976331D01*
X42207990Y-48982801D01*
X42205060Y-48992641D01*
X42205058Y-48992646D01*
X42193056Y-49032957D01*
X42191495Y-49037829D01*
X42185962Y-49053948D01*
X42146185Y-49110483D01*
X42082323Y-49136937D01*
X42014220Y-49125091D01*
X41992276Y-49114363D01*
X41992274Y-49114362D01*
X41983625Y-49110134D01*
X41974100Y-49108746D01*
X41974096Y-49108745D01*
X41915072Y-49100146D01*
X41915067Y-49100145D01*
X41910636Y-49099500D01*
X41589364Y-49099500D01*
X41584933Y-49100145D01*
X41584927Y-49100146D01*
X41525903Y-49108745D01*
X41525897Y-49108746D01*
X41516375Y-49110134D01*
X41403887Y-49165125D01*
X41349431Y-49177724D01*
X41294970Y-49165124D01*
X41192130Y-49114848D01*
X41173955Y-49109232D01*
X41115024Y-49100646D01*
X41106102Y-49100000D01*
X41091326Y-49100000D01*
X41078450Y-49103450D01*
X41075000Y-49116326D01*
X41075000Y-50583674D01*
X41078450Y-50596549D01*
X41091326Y-50600000D01*
X41106102Y-50600000D01*
X41115024Y-50599353D01*
X41173955Y-50590767D01*
X41192131Y-50585150D01*
X41196041Y-50583240D01*
X41256906Y-50570807D01*
X41316162Y-50589453D01*
X41358939Y-50634500D01*
X41374500Y-50694641D01*
X41374500Y-52357794D01*
X41363576Y-52408685D01*
X41332727Y-52450610D01*
X41265127Y-52510497D01*
X41265122Y-52510501D01*
X41259517Y-52515468D01*
X41255262Y-52521632D01*
X41255257Y-52521638D01*
X41174043Y-52639298D01*
X41174040Y-52639301D01*
X41169780Y-52645475D01*
X41167121Y-52652486D01*
X41167119Y-52652490D01*
X41129652Y-52751283D01*
X41094526Y-52801358D01*
X41039735Y-52828549D01*
X40978612Y-52826240D01*
X40926029Y-52794992D01*
X40806852Y-52675815D01*
X40561819Y-52430781D01*
X40534939Y-52390553D01*
X40525500Y-52343100D01*
X40525500Y-50694641D01*
X40541061Y-50634500D01*
X40583838Y-50589453D01*
X40643094Y-50570807D01*
X40703959Y-50583240D01*
X40707868Y-50585150D01*
X40726044Y-50590767D01*
X40784975Y-50599353D01*
X40793898Y-50600000D01*
X40808674Y-50600000D01*
X40821549Y-50596549D01*
X40825000Y-50583674D01*
X40825000Y-49116326D01*
X40821549Y-49103450D01*
X40808674Y-49100000D01*
X40793898Y-49100000D01*
X40784975Y-49100646D01*
X40726044Y-49109232D01*
X40707871Y-49114847D01*
X40605028Y-49165125D01*
X40550568Y-49177724D01*
X40496110Y-49165124D01*
X40383625Y-49110134D01*
X40374100Y-49108746D01*
X40374096Y-49108745D01*
X40315072Y-49100146D01*
X40315067Y-49100145D01*
X40310636Y-49099500D01*
X39989364Y-49099500D01*
X39984933Y-49100145D01*
X39984913Y-49100147D01*
X39978783Y-49101040D01*
X39921990Y-49096066D01*
X39873426Y-49066205D01*
X39843355Y-49017770D01*
X39838135Y-48961000D01*
X39858868Y-48907894D01*
X39930220Y-48804523D01*
X39986237Y-48656818D01*
X40005278Y-48500000D01*
X39986237Y-48343182D01*
X39930220Y-48195477D01*
X39872075Y-48111239D01*
X39844742Y-48071640D01*
X39844741Y-48071639D01*
X39840483Y-48065470D01*
X39722240Y-47960717D01*
X39715595Y-47957229D01*
X39715593Y-47957228D01*
X39589006Y-47890789D01*
X39589002Y-47890787D01*
X39582365Y-47887304D01*
X39575087Y-47885510D01*
X39575084Y-47885509D01*
X39436267Y-47851294D01*
X39436260Y-47851293D01*
X39428985Y-47849500D01*
X39271015Y-47849500D01*
X39263740Y-47851292D01*
X39263732Y-47851294D01*
X39124915Y-47885509D01*
X39124909Y-47885510D01*
X39117635Y-47887304D01*
X39111000Y-47890786D01*
X39110993Y-47890789D01*
X38984406Y-47957228D01*
X38984400Y-47957231D01*
X38977760Y-47960717D01*
X38972148Y-47965687D01*
X38972143Y-47965692D01*
X38865127Y-48060499D01*
X38865122Y-48060503D01*
X38859517Y-48065470D01*
X38855262Y-48071634D01*
X38855257Y-48071640D01*
X38774043Y-48189300D01*
X38774040Y-48189303D01*
X38769780Y-48195477D01*
X38767120Y-48202488D01*
X38767118Y-48202494D01*
X38716423Y-48336167D01*
X38713763Y-48343182D01*
X38712859Y-48350622D01*
X38712858Y-48350629D01*
X38697378Y-48478122D01*
X38694722Y-48500000D01*
X38695626Y-48507445D01*
X38712858Y-48649370D01*
X38712859Y-48649375D01*
X38713763Y-48656818D01*
X38716422Y-48663831D01*
X38716423Y-48663832D01*
X38731085Y-48702494D01*
X38769780Y-48804523D01*
X38832098Y-48894807D01*
X38841132Y-48907894D01*
X38861865Y-48961001D01*
X38856643Y-49017771D01*
X38826572Y-49066206D01*
X38778007Y-49096066D01*
X38721214Y-49101040D01*
X38715081Y-49100147D01*
X38715072Y-49100146D01*
X38710636Y-49099500D01*
X38389364Y-49099500D01*
X38384933Y-49100145D01*
X38384927Y-49100146D01*
X38325903Y-49108745D01*
X38325897Y-49108746D01*
X38316375Y-49110134D01*
X38203887Y-49165125D01*
X38149431Y-49177724D01*
X38094970Y-49165124D01*
X37992130Y-49114848D01*
X37973955Y-49109232D01*
X37915024Y-49100646D01*
X37906102Y-49100000D01*
X37891326Y-49100000D01*
X37878450Y-49103450D01*
X37875000Y-49116326D01*
X37875000Y-50583674D01*
X37878450Y-50596549D01*
X37891326Y-50600000D01*
X37906102Y-50600000D01*
X37915024Y-50599353D01*
X37973955Y-50590767D01*
X37992131Y-50585150D01*
X37996041Y-50583240D01*
X38056906Y-50570807D01*
X38116162Y-50589453D01*
X38158939Y-50634500D01*
X38174500Y-50694641D01*
X38174500Y-52357792D01*
X38163576Y-52408683D01*
X38132727Y-52450608D01*
X38068528Y-52507483D01*
X38059516Y-52515467D01*
X38055261Y-52521631D01*
X38055256Y-52521637D01*
X37974042Y-52639297D01*
X37974041Y-52639299D01*
X37969779Y-52645474D01*
X37967119Y-52652485D01*
X37967117Y-52652491D01*
X37917309Y-52783826D01*
X37913762Y-52793179D01*
X37912858Y-52800619D01*
X37912857Y-52800626D01*
X37896700Y-52933701D01*
X37894721Y-52949997D01*
X37895625Y-52957442D01*
X37912857Y-53099367D01*
X37912858Y-53099370D01*
X37913762Y-53106815D01*
X37916421Y-53113828D01*
X37916422Y-53113829D01*
X37966705Y-53246416D01*
X37969779Y-53254520D01*
X37974042Y-53260696D01*
X38053002Y-53375091D01*
X38059516Y-53384527D01*
X38177759Y-53489280D01*
X38317634Y-53562693D01*
X38471014Y-53600497D01*
X38621484Y-53600497D01*
X38628984Y-53600497D01*
X38782364Y-53562693D01*
X38922239Y-53489280D01*
X39040482Y-53384527D01*
X39130219Y-53254520D01*
X39186236Y-53106815D01*
X39205277Y-52949997D01*
X39186236Y-52793179D01*
X39130219Y-52645474D01*
X39040482Y-52515467D01*
X39003218Y-52482454D01*
X38967273Y-52450610D01*
X38936425Y-52408685D01*
X38925500Y-52357794D01*
X38925500Y-50695197D01*
X38941061Y-50635056D01*
X38983837Y-50590010D01*
X39043094Y-50571363D01*
X39103955Y-50583794D01*
X39116375Y-50589866D01*
X39189364Y-50600500D01*
X39506150Y-50600500D01*
X39510636Y-50600500D01*
X39583625Y-50589866D01*
X39596044Y-50583794D01*
X39656906Y-50571363D01*
X39716163Y-50590010D01*
X39758939Y-50635056D01*
X39774500Y-50695197D01*
X39774500Y-52498195D01*
X39771860Y-52523644D01*
X39771741Y-52524209D01*
X39771740Y-52524216D01*
X39769633Y-52534268D01*
X39770903Y-52544458D01*
X39770903Y-52544462D01*
X39773548Y-52565676D01*
X39773871Y-52570891D01*
X39774077Y-52570874D01*
X39774500Y-52575981D01*
X39774500Y-52581114D01*
X39775344Y-52586172D01*
X39775345Y-52586184D01*
X39777918Y-52601603D01*
X39778657Y-52606670D01*
X39783495Y-52645475D01*
X39785134Y-52658626D01*
X39788626Y-52665770D01*
X39789935Y-52673610D01*
X39814845Y-52719641D01*
X39817171Y-52724161D01*
X39835660Y-52761979D01*
X39835661Y-52761981D01*
X39840174Y-52771211D01*
X39845797Y-52776834D01*
X39849581Y-52783826D01*
X39857138Y-52790782D01*
X39857139Y-52790784D01*
X39888082Y-52819269D01*
X39891780Y-52822817D01*
X41047850Y-53978887D01*
X41063974Y-53998741D01*
X41069916Y-54007836D01*
X41078018Y-54014142D01*
X41078021Y-54014145D01*
X41094894Y-54027277D01*
X41098808Y-54030734D01*
X41098942Y-54030577D01*
X41102848Y-54033885D01*
X41106482Y-54037519D01*
X41113959Y-54042857D01*
X41123389Y-54049590D01*
X41127500Y-54052655D01*
X41168811Y-54084809D01*
X41176331Y-54087390D01*
X41182801Y-54092010D01*
X41232940Y-54106937D01*
X41237822Y-54108501D01*
X41260066Y-54116137D01*
X41287340Y-54125500D01*
X41295293Y-54125500D01*
X41302911Y-54127768D01*
X41355191Y-54125606D01*
X41360315Y-54125500D01*
X54016469Y-54125500D01*
X54041918Y-54128140D01*
X54042483Y-54128258D01*
X54042484Y-54128258D01*
X54052542Y-54130367D01*
X54083950Y-54126451D01*
X54089161Y-54126128D01*
X54089145Y-54125924D01*
X54094260Y-54125500D01*
X54099388Y-54125500D01*
X54119910Y-54122074D01*
X54124940Y-54121342D01*
X54176900Y-54114866D01*
X54184044Y-54111373D01*
X54191884Y-54110065D01*
X54237921Y-54085150D01*
X54242438Y-54082825D01*
X54289485Y-54059826D01*
X54295108Y-54054202D01*
X54302100Y-54050419D01*
X54337591Y-54011863D01*
X54341068Y-54008241D01*
X54958089Y-53391220D01*
X54977947Y-53375095D01*
X54987036Y-53369158D01*
X55006479Y-53344176D01*
X55009946Y-53340279D01*
X55009774Y-53340134D01*
X55013081Y-53336228D01*
X55016720Y-53332591D01*
X55028797Y-53315674D01*
X55031863Y-53311563D01*
X55064009Y-53270263D01*
X55066590Y-53262742D01*
X55071210Y-53256273D01*
X55086141Y-53206119D01*
X55087691Y-53201275D01*
X55104700Y-53151734D01*
X55104700Y-53143783D01*
X55106969Y-53136162D01*
X55104805Y-53083867D01*
X55104700Y-53078743D01*
X55104700Y-52331004D01*
X55107339Y-52305558D01*
X55107341Y-52305544D01*
X55109567Y-52294932D01*
X55105651Y-52263523D01*
X55105328Y-52258313D01*
X55105124Y-52258330D01*
X55104700Y-52253218D01*
X55104700Y-52248086D01*
X55101274Y-52227562D01*
X55100541Y-52222526D01*
X55099879Y-52217218D01*
X55094066Y-52170574D01*
X55090573Y-52163429D01*
X55089265Y-52155590D01*
X55064358Y-52109566D01*
X55062037Y-52105059D01*
X55039026Y-52057989D01*
X55033402Y-52052365D01*
X55029619Y-52045374D01*
X55022058Y-52038414D01*
X55022057Y-52038412D01*
X54991117Y-52009930D01*
X54987419Y-52006382D01*
X53736819Y-50755781D01*
X53709939Y-50715553D01*
X53700500Y-50668100D01*
X53700500Y-50651370D01*
X53716494Y-50590454D01*
X53760351Y-50545253D01*
X53820756Y-50527427D01*
X53882123Y-50541573D01*
X54017635Y-50612696D01*
X54171015Y-50650500D01*
X54321485Y-50650500D01*
X54328985Y-50650500D01*
X54482365Y-50612696D01*
X54622240Y-50539283D01*
X54740483Y-50434530D01*
X54830220Y-50304523D01*
X54886237Y-50156818D01*
X54905278Y-50000000D01*
X54886237Y-49843182D01*
X54830220Y-49695477D01*
X54740483Y-49565470D01*
X54659334Y-49493579D01*
X54627856Y-49465692D01*
X54627854Y-49465690D01*
X54622240Y-49460717D01*
X54615595Y-49457229D01*
X54615593Y-49457228D01*
X54489006Y-49390789D01*
X54489002Y-49390787D01*
X54482365Y-49387304D01*
X54475087Y-49385510D01*
X54475084Y-49385509D01*
X54336267Y-49351294D01*
X54336260Y-49351293D01*
X54328985Y-49349500D01*
X54280026Y-49349500D01*
X54213281Y-49330004D01*
X54167524Y-49277646D01*
X54157143Y-49208890D01*
X54185183Y-49145852D01*
X54187519Y-49143518D01*
X54199614Y-49126576D01*
X54202621Y-49122542D01*
X54234809Y-49081189D01*
X54237390Y-49073668D01*
X54242010Y-49067199D01*
X54256955Y-49016995D01*
X54258479Y-49012238D01*
X54275500Y-48962660D01*
X54275500Y-48954706D01*
X54277768Y-48947088D01*
X54275606Y-48894807D01*
X54275500Y-48889684D01*
X54275500Y-48701805D01*
X54278140Y-48676356D01*
X54278258Y-48675790D01*
X54278258Y-48675789D01*
X54280367Y-48665732D01*
X54276451Y-48634323D01*
X54276128Y-48629113D01*
X54275924Y-48629130D01*
X54275500Y-48624018D01*
X54275500Y-48618886D01*
X54272074Y-48598362D01*
X54271341Y-48593326D01*
X54266137Y-48551572D01*
X54264866Y-48541374D01*
X54261373Y-48534229D01*
X54260065Y-48526390D01*
X54235158Y-48480366D01*
X54232837Y-48475859D01*
X54209826Y-48428789D01*
X54204202Y-48423165D01*
X54200419Y-48416174D01*
X54192858Y-48409214D01*
X54192857Y-48409212D01*
X54161917Y-48380730D01*
X54158219Y-48377182D01*
X53477979Y-47696941D01*
X53447729Y-47647578D01*
X53443187Y-47589862D01*
X53465342Y-47536375D01*
X53509365Y-47498775D01*
X53565660Y-47485260D01*
X58375500Y-47485260D01*
X58437500Y-47501873D01*
X58482887Y-47547260D01*
X58499500Y-47609260D01*
X58499500Y-49610260D01*
X58482887Y-49672260D01*
X58437500Y-49717647D01*
X58375500Y-49734260D01*
X57231750Y-49734260D01*
X57231250Y-49734260D01*
X57127631Y-49734260D01*
X57122579Y-49735102D01*
X57122567Y-49735104D01*
X56928275Y-49767526D01*
X56928273Y-49767526D01*
X56923218Y-49768370D01*
X56918373Y-49770033D01*
X56918366Y-49770035D01*
X56732055Y-49833995D01*
X56732044Y-49833999D01*
X56727208Y-49835660D01*
X56722712Y-49838092D01*
X56722703Y-49838097D01*
X56549453Y-49931856D01*
X56549448Y-49931858D01*
X56544947Y-49934295D01*
X56540910Y-49937437D01*
X56540901Y-49937443D01*
X56385448Y-50058438D01*
X56385442Y-50058442D01*
X56381407Y-50061584D01*
X56377945Y-50065343D01*
X56377938Y-50065351D01*
X56244523Y-50210278D01*
X56244517Y-50210285D01*
X56241048Y-50214054D01*
X56238243Y-50218345D01*
X56238240Y-50218351D01*
X56130503Y-50383254D01*
X56130496Y-50383266D01*
X56127699Y-50387548D01*
X56125644Y-50392232D01*
X56125638Y-50392244D01*
X56049655Y-50565470D01*
X56044452Y-50577332D01*
X56043194Y-50582297D01*
X56043193Y-50582302D01*
X55994837Y-50773254D01*
X55994835Y-50773263D01*
X55993578Y-50778229D01*
X55993154Y-50783338D01*
X55993153Y-50783348D01*
X55979876Y-50943579D01*
X55976464Y-50984760D01*
X55976888Y-50989877D01*
X55993153Y-51186171D01*
X55993154Y-51186179D01*
X55993578Y-51191291D01*
X55994835Y-51196258D01*
X55994837Y-51196265D01*
X56020475Y-51297505D01*
X56044452Y-51392188D01*
X56046512Y-51396884D01*
X56125638Y-51577275D01*
X56125641Y-51577281D01*
X56127699Y-51581972D01*
X56130499Y-51586258D01*
X56130503Y-51586265D01*
X56172470Y-51650500D01*
X56241048Y-51755466D01*
X56244522Y-51759239D01*
X56244523Y-51759241D01*
X56369171Y-51894645D01*
X56381407Y-51907936D01*
X56385448Y-51911081D01*
X56535624Y-52027969D01*
X56544947Y-52035225D01*
X56727208Y-52133860D01*
X56923218Y-52201150D01*
X57118144Y-52233677D01*
X57121392Y-52234219D01*
X57127631Y-52235260D01*
X57231151Y-52235260D01*
X57231250Y-52235260D01*
X57231750Y-52235260D01*
X58375500Y-52235260D01*
X58437500Y-52251873D01*
X58482887Y-52297260D01*
X58499500Y-52359260D01*
X58499500Y-54360260D01*
X58482887Y-54422260D01*
X58437500Y-54467647D01*
X58375500Y-54484260D01*
X31624500Y-54484260D01*
X31562500Y-54467647D01*
X31517113Y-54422260D01*
X31500500Y-54360260D01*
X31500500Y-52444578D01*
X34799500Y-52444578D01*
X34799501Y-52447872D01*
X34799853Y-52451150D01*
X34799854Y-52451161D01*
X34805079Y-52499768D01*
X34805080Y-52499773D01*
X34805909Y-52507483D01*
X34808619Y-52514749D01*
X34808620Y-52514753D01*
X34841013Y-52601603D01*
X34856204Y-52642331D01*
X34861518Y-52649430D01*
X34861519Y-52649431D01*
X34914053Y-52719608D01*
X34942454Y-52757546D01*
X35057669Y-52843796D01*
X35192517Y-52894091D01*
X35252127Y-52900500D01*
X36047872Y-52900499D01*
X36107483Y-52894091D01*
X36132653Y-52884702D01*
X36187717Y-52877440D01*
X36240428Y-52894943D01*
X36280211Y-52933701D01*
X36299084Y-52985937D01*
X36312857Y-53099370D01*
X36312858Y-53099376D01*
X36313762Y-53106817D01*
X36316421Y-53113830D01*
X36316422Y-53113831D01*
X36367116Y-53247502D01*
X36369779Y-53254522D01*
X36374041Y-53260696D01*
X36374042Y-53260698D01*
X36452593Y-53374500D01*
X36459516Y-53384529D01*
X36577759Y-53489282D01*
X36717634Y-53562695D01*
X36871014Y-53600499D01*
X37021484Y-53600499D01*
X37028984Y-53600499D01*
X37182364Y-53562695D01*
X37322239Y-53489282D01*
X37440482Y-53384529D01*
X37530219Y-53254522D01*
X37586236Y-53106817D01*
X37605277Y-52949999D01*
X37586236Y-52793181D01*
X37530219Y-52645476D01*
X37440482Y-52515469D01*
X37422758Y-52499767D01*
X37367273Y-52450612D01*
X37336425Y-52408687D01*
X37325500Y-52357796D01*
X37325500Y-50694641D01*
X37341061Y-50634500D01*
X37383838Y-50589453D01*
X37443094Y-50570807D01*
X37503959Y-50583240D01*
X37507868Y-50585150D01*
X37526044Y-50590767D01*
X37584975Y-50599353D01*
X37593898Y-50600000D01*
X37608674Y-50600000D01*
X37621549Y-50596549D01*
X37625000Y-50583674D01*
X37625000Y-49116326D01*
X37621549Y-49103450D01*
X37608674Y-49100000D01*
X37593898Y-49100000D01*
X37584975Y-49100646D01*
X37526044Y-49109232D01*
X37507871Y-49114847D01*
X37405028Y-49165125D01*
X37350568Y-49177724D01*
X37296110Y-49165124D01*
X37183625Y-49110134D01*
X37174100Y-49108746D01*
X37174096Y-49108745D01*
X37115072Y-49100146D01*
X37115067Y-49100145D01*
X37110636Y-49099500D01*
X36789364Y-49099500D01*
X36784933Y-49100145D01*
X36784927Y-49100146D01*
X36725903Y-49108745D01*
X36725897Y-49108746D01*
X36716375Y-49110134D01*
X36707724Y-49114362D01*
X36707721Y-49114364D01*
X36613024Y-49160658D01*
X36613018Y-49160662D01*
X36603789Y-49165174D01*
X36596523Y-49172439D01*
X36596520Y-49172442D01*
X36522442Y-49246520D01*
X36522439Y-49246523D01*
X36515174Y-49253789D01*
X36510662Y-49263018D01*
X36510658Y-49263024D01*
X36464364Y-49357721D01*
X36464362Y-49357724D01*
X36460134Y-49366375D01*
X36458746Y-49375897D01*
X36458745Y-49375903D01*
X36450204Y-49434530D01*
X36449500Y-49439364D01*
X36449500Y-50260636D01*
X36450145Y-50265067D01*
X36450146Y-50265072D01*
X36458745Y-50324096D01*
X36458746Y-50324100D01*
X36460134Y-50333625D01*
X36464363Y-50342276D01*
X36464364Y-50342278D01*
X36510658Y-50436975D01*
X36510660Y-50436978D01*
X36515174Y-50446211D01*
X36522442Y-50453479D01*
X36538181Y-50469218D01*
X36565061Y-50509446D01*
X36574500Y-50556899D01*
X36574500Y-50761830D01*
X36560985Y-50818125D01*
X36523385Y-50862148D01*
X36469898Y-50884303D01*
X36412182Y-50879761D01*
X36362837Y-50849522D01*
X36357546Y-50842454D01*
X36242331Y-50756204D01*
X36107483Y-50705909D01*
X36099770Y-50705079D01*
X36099767Y-50705079D01*
X36051180Y-50699855D01*
X36051169Y-50699854D01*
X36047873Y-50699500D01*
X36044550Y-50699500D01*
X35255439Y-50699500D01*
X35255420Y-50699500D01*
X35252128Y-50699501D01*
X35248850Y-50699853D01*
X35248838Y-50699854D01*
X35200231Y-50705079D01*
X35200225Y-50705080D01*
X35192517Y-50705909D01*
X35185252Y-50708618D01*
X35185246Y-50708620D01*
X35065980Y-50753104D01*
X35065978Y-50753104D01*
X35057669Y-50756204D01*
X35050572Y-50761516D01*
X35050568Y-50761519D01*
X34949550Y-50837141D01*
X34949546Y-50837144D01*
X34942454Y-50842454D01*
X34937144Y-50849546D01*
X34937141Y-50849550D01*
X34861519Y-50950568D01*
X34861516Y-50950572D01*
X34856204Y-50957669D01*
X34853104Y-50965978D01*
X34853104Y-50965980D01*
X34808620Y-51085247D01*
X34808619Y-51085250D01*
X34805909Y-51092517D01*
X34805079Y-51100227D01*
X34805079Y-51100232D01*
X34799855Y-51148819D01*
X34799854Y-51148831D01*
X34799500Y-51152127D01*
X34799500Y-51155448D01*
X34799500Y-51155449D01*
X34799500Y-52444560D01*
X34799500Y-52444578D01*
X31500500Y-52444578D01*
X31500500Y-52359260D01*
X31517113Y-52297260D01*
X31562500Y-52251873D01*
X31624500Y-52235260D01*
X32848485Y-52235260D01*
X32853619Y-52235260D01*
X33058032Y-52201150D01*
X33254042Y-52133860D01*
X33436303Y-52035225D01*
X33599843Y-51907936D01*
X33740202Y-51755466D01*
X33853551Y-51581972D01*
X33936798Y-51392188D01*
X33987672Y-51191291D01*
X34004786Y-50984760D01*
X33987672Y-50778229D01*
X33936798Y-50577332D01*
X33853551Y-50387548D01*
X33849643Y-50381567D01*
X33775825Y-50268579D01*
X33740202Y-50214054D01*
X33599843Y-50061584D01*
X33583204Y-50048633D01*
X33440348Y-49937443D01*
X33440345Y-49937441D01*
X33436303Y-49934295D01*
X33346800Y-49885858D01*
X33258546Y-49838097D01*
X33258541Y-49838095D01*
X33254042Y-49835660D01*
X33249201Y-49833998D01*
X33249194Y-49833995D01*
X33062883Y-49770035D01*
X33062879Y-49770034D01*
X33058032Y-49768370D01*
X33048821Y-49766833D01*
X32858682Y-49735104D01*
X32858671Y-49735103D01*
X32853619Y-49734260D01*
X32848485Y-49734260D01*
X31624500Y-49734260D01*
X31562500Y-49717647D01*
X31517113Y-49672260D01*
X31500500Y-49610260D01*
X31500500Y-47609260D01*
X31517113Y-47547260D01*
X31562500Y-47501873D01*
X31624500Y-47485260D01*
X43384341Y-47485260D01*
X43440636Y-47498775D01*
G37*
%TD.AperFunction*%
%TA.AperFunction,Conductor*%
G36*
X52790554Y-48084939D02*
G01*
X52830782Y-48111819D01*
X53331781Y-48612819D01*
X53362031Y-48662182D01*
X53366573Y-48719898D01*
X53344418Y-48773385D01*
X53300395Y-48810985D01*
X53244100Y-48824500D01*
X52875326Y-48824500D01*
X52869351Y-48825688D01*
X52869346Y-48825689D01*
X52814240Y-48836650D01*
X52814235Y-48836651D01*
X52802260Y-48839034D01*
X52792105Y-48845819D01*
X52792103Y-48845820D01*
X52729551Y-48887615D01*
X52729548Y-48887617D01*
X52719399Y-48894399D01*
X52712617Y-48904548D01*
X52712615Y-48904551D01*
X52670820Y-48967103D01*
X52670819Y-48967105D01*
X52664034Y-48977260D01*
X52661651Y-48989235D01*
X52661650Y-48989240D01*
X52650689Y-49044346D01*
X52650688Y-49044351D01*
X52649500Y-49050326D01*
X52649500Y-49499674D01*
X52650688Y-49505649D01*
X52650689Y-49505653D01*
X52661651Y-49560763D01*
X52661652Y-49560765D01*
X52664034Y-49572740D01*
X52665347Y-49574705D01*
X52672865Y-49612496D01*
X52665347Y-49650293D01*
X52664034Y-49652260D01*
X52661652Y-49664231D01*
X52661652Y-49664233D01*
X52650689Y-49719346D01*
X52650688Y-49719351D01*
X52649500Y-49725326D01*
X52649500Y-50274674D01*
X52650688Y-50280649D01*
X52650689Y-50280653D01*
X52661651Y-50335763D01*
X52661652Y-50335765D01*
X52664034Y-50347740D01*
X52665347Y-50349705D01*
X52672865Y-50387496D01*
X52665347Y-50425293D01*
X52664034Y-50427260D01*
X52661652Y-50439231D01*
X52661652Y-50439233D01*
X52650689Y-50494346D01*
X52650688Y-50494351D01*
X52649500Y-50500326D01*
X52649500Y-50949674D01*
X52650688Y-50955649D01*
X52650689Y-50955653D01*
X52661650Y-51010759D01*
X52661651Y-51010762D01*
X52664034Y-51022740D01*
X52670820Y-51032896D01*
X52707600Y-51087943D01*
X52719399Y-51105601D01*
X52802260Y-51160966D01*
X52875326Y-51175500D01*
X53043101Y-51175500D01*
X53090554Y-51184939D01*
X53130782Y-51211819D01*
X53598659Y-51679696D01*
X53630231Y-51733395D01*
X53631707Y-51795670D01*
X53602715Y-51850805D01*
X53550572Y-51884886D01*
X53423825Y-51927592D01*
X53423819Y-51927594D01*
X53417452Y-51929740D01*
X53411691Y-51933206D01*
X53411685Y-51933209D01*
X53267648Y-52019873D01*
X53267643Y-52019876D01*
X53261882Y-52023343D01*
X53257004Y-52027963D01*
X53256997Y-52027969D01*
X53134952Y-52143577D01*
X53130072Y-52148200D01*
X53126304Y-52153756D01*
X53126300Y-52153762D01*
X53031956Y-52292910D01*
X53028184Y-52298474D01*
X53025696Y-52304717D01*
X53025695Y-52304720D01*
X52963472Y-52460886D01*
X52963470Y-52460891D01*
X52960982Y-52467137D01*
X52959893Y-52473775D01*
X52959893Y-52473778D01*
X52932757Y-52639299D01*
X52931609Y-52646304D01*
X52931973Y-52653017D01*
X52931973Y-52653018D01*
X52939976Y-52800626D01*
X52941439Y-52827596D01*
X52943235Y-52834065D01*
X52943236Y-52834070D01*
X52977491Y-52957443D01*
X52990011Y-53002536D01*
X53075054Y-53162945D01*
X53079403Y-53168065D01*
X53081236Y-53170223D01*
X53081948Y-53171818D01*
X53083179Y-53173634D01*
X53082856Y-53173852D01*
X53109594Y-53233759D01*
X53099269Y-53302566D01*
X53053512Y-53354980D01*
X52986729Y-53374500D01*
X52009451Y-53374500D01*
X51945522Y-53356750D01*
X51899896Y-53308583D01*
X51885633Y-53243787D01*
X51906817Y-53180913D01*
X51924832Y-53154342D01*
X51971816Y-53085046D01*
X52039018Y-52916383D01*
X52068391Y-52737216D01*
X52058561Y-52555924D01*
X52009989Y-52380984D01*
X51924946Y-52220575D01*
X51807408Y-52082198D01*
X51802058Y-52078131D01*
X51802056Y-52078129D01*
X51668227Y-51976396D01*
X51668225Y-51976395D01*
X51662870Y-51972324D01*
X51578324Y-51933209D01*
X51504193Y-51898912D01*
X51504191Y-51898911D01*
X51498093Y-51896090D01*
X51491530Y-51894645D01*
X51491529Y-51894645D01*
X51327344Y-51858505D01*
X51327343Y-51858504D01*
X51320779Y-51857060D01*
X51184743Y-51857060D01*
X51181406Y-51857422D01*
X51181404Y-51857423D01*
X51056187Y-51871041D01*
X51056183Y-51871041D01*
X51049506Y-51871768D01*
X51043145Y-51873911D01*
X51043137Y-51873913D01*
X50883825Y-51927592D01*
X50883819Y-51927594D01*
X50877452Y-51929740D01*
X50871691Y-51933206D01*
X50871685Y-51933209D01*
X50727648Y-52019873D01*
X50727643Y-52019876D01*
X50721882Y-52023343D01*
X50717004Y-52027963D01*
X50716997Y-52027969D01*
X50594952Y-52143577D01*
X50590072Y-52148200D01*
X50586304Y-52153756D01*
X50586300Y-52153762D01*
X50491956Y-52292910D01*
X50488184Y-52298474D01*
X50485696Y-52304717D01*
X50485695Y-52304720D01*
X50423472Y-52460886D01*
X50423470Y-52460891D01*
X50420982Y-52467137D01*
X50419893Y-52473775D01*
X50419893Y-52473778D01*
X50392757Y-52639299D01*
X50391609Y-52646304D01*
X50391973Y-52653017D01*
X50391973Y-52653018D01*
X50399976Y-52800626D01*
X50401439Y-52827596D01*
X50403235Y-52834065D01*
X50403236Y-52834070D01*
X50437491Y-52957443D01*
X50450011Y-53002536D01*
X50535054Y-53162945D01*
X50539403Y-53168065D01*
X50541236Y-53170223D01*
X50541948Y-53171818D01*
X50543179Y-53173634D01*
X50542856Y-53173852D01*
X50569594Y-53233759D01*
X50559269Y-53302566D01*
X50513512Y-53354980D01*
X50446729Y-53374500D01*
X49549451Y-53374500D01*
X49485522Y-53356750D01*
X49439896Y-53308583D01*
X49425633Y-53243787D01*
X49446817Y-53180913D01*
X49464832Y-53154342D01*
X49511816Y-53085046D01*
X49579018Y-52916383D01*
X49608391Y-52737216D01*
X49598561Y-52555924D01*
X49549989Y-52380984D01*
X49464946Y-52220575D01*
X49347408Y-52082198D01*
X49342058Y-52078131D01*
X49342056Y-52078129D01*
X49208227Y-51976396D01*
X49208225Y-51976395D01*
X49202870Y-51972324D01*
X49118324Y-51933209D01*
X49044193Y-51898912D01*
X49044191Y-51898911D01*
X49038093Y-51896090D01*
X49031530Y-51894645D01*
X49031529Y-51894645D01*
X48867344Y-51858505D01*
X48867343Y-51858504D01*
X48860779Y-51857060D01*
X48724743Y-51857060D01*
X48721406Y-51857422D01*
X48721404Y-51857423D01*
X48596187Y-51871041D01*
X48596183Y-51871041D01*
X48589506Y-51871768D01*
X48583145Y-51873911D01*
X48583137Y-51873913D01*
X48423825Y-51927592D01*
X48423819Y-51927594D01*
X48417452Y-51929740D01*
X48411691Y-51933206D01*
X48411685Y-51933209D01*
X48267648Y-52019873D01*
X48267643Y-52019876D01*
X48261882Y-52023343D01*
X48257004Y-52027963D01*
X48256997Y-52027969D01*
X48134952Y-52143577D01*
X48130072Y-52148200D01*
X48126304Y-52153756D01*
X48126300Y-52153762D01*
X48031956Y-52292910D01*
X48028184Y-52298474D01*
X48025696Y-52304717D01*
X48025695Y-52304720D01*
X47963472Y-52460886D01*
X47963470Y-52460891D01*
X47960982Y-52467137D01*
X47959893Y-52473775D01*
X47959893Y-52473778D01*
X47932757Y-52639299D01*
X47931609Y-52646304D01*
X47931973Y-52653017D01*
X47931973Y-52653018D01*
X47939976Y-52800626D01*
X47941439Y-52827596D01*
X47943235Y-52834065D01*
X47943236Y-52834070D01*
X47977491Y-52957443D01*
X47990011Y-53002536D01*
X48075054Y-53162945D01*
X48079403Y-53168065D01*
X48081236Y-53170223D01*
X48081948Y-53171818D01*
X48083179Y-53173634D01*
X48082856Y-53173852D01*
X48109594Y-53233759D01*
X48099269Y-53302566D01*
X48053512Y-53354980D01*
X47986729Y-53374500D01*
X47009451Y-53374500D01*
X46945522Y-53356750D01*
X46899896Y-53308583D01*
X46885633Y-53243787D01*
X46906817Y-53180913D01*
X46924832Y-53154342D01*
X46971816Y-53085046D01*
X47039018Y-52916383D01*
X47068391Y-52737216D01*
X47058561Y-52555924D01*
X47009989Y-52380984D01*
X46924946Y-52220575D01*
X46807408Y-52082198D01*
X46802058Y-52078131D01*
X46802056Y-52078129D01*
X46668227Y-51976396D01*
X46668225Y-51976395D01*
X46662870Y-51972324D01*
X46578324Y-51933209D01*
X46504193Y-51898912D01*
X46504191Y-51898911D01*
X46498093Y-51896090D01*
X46491530Y-51894645D01*
X46491529Y-51894645D01*
X46327344Y-51858505D01*
X46327343Y-51858504D01*
X46320779Y-51857060D01*
X46184743Y-51857060D01*
X46181406Y-51857422D01*
X46181404Y-51857423D01*
X46056187Y-51871041D01*
X46056183Y-51871041D01*
X46049506Y-51871768D01*
X46043145Y-51873911D01*
X46043137Y-51873913D01*
X45883825Y-51927592D01*
X45883819Y-51927594D01*
X45877452Y-51929740D01*
X45871691Y-51933206D01*
X45871685Y-51933209D01*
X45727648Y-52019873D01*
X45727643Y-52019876D01*
X45721882Y-52023343D01*
X45717004Y-52027963D01*
X45716997Y-52027969D01*
X45594952Y-52143577D01*
X45590072Y-52148200D01*
X45586304Y-52153756D01*
X45586300Y-52153762D01*
X45491956Y-52292910D01*
X45488184Y-52298474D01*
X45485696Y-52304717D01*
X45485695Y-52304720D01*
X45423472Y-52460886D01*
X45423470Y-52460891D01*
X45420982Y-52467137D01*
X45419893Y-52473775D01*
X45419893Y-52473778D01*
X45392757Y-52639299D01*
X45391609Y-52646304D01*
X45391973Y-52653017D01*
X45391973Y-52653018D01*
X45399976Y-52800626D01*
X45401439Y-52827596D01*
X45403235Y-52834065D01*
X45403236Y-52834070D01*
X45437491Y-52957443D01*
X45450011Y-53002536D01*
X45535054Y-53162945D01*
X45539403Y-53168065D01*
X45541236Y-53170223D01*
X45541948Y-53171818D01*
X45543179Y-53173634D01*
X45542856Y-53173852D01*
X45569594Y-53233759D01*
X45559269Y-53302566D01*
X45513512Y-53354980D01*
X45446729Y-53374500D01*
X42464363Y-53374500D01*
X42406737Y-53360297D01*
X42362313Y-53320940D01*
X42341267Y-53265447D01*
X42348421Y-53206529D01*
X42358136Y-53180913D01*
X42386237Y-53106816D01*
X42405278Y-52949998D01*
X42386237Y-52793180D01*
X42330220Y-52645475D01*
X42253460Y-52534268D01*
X42244742Y-52521638D01*
X42244741Y-52521637D01*
X42240483Y-52515468D01*
X42167273Y-52450610D01*
X42162835Y-52444578D01*
X42999500Y-52444578D01*
X42999501Y-52447872D01*
X42999853Y-52451150D01*
X42999854Y-52451161D01*
X43005079Y-52499768D01*
X43005080Y-52499773D01*
X43005909Y-52507483D01*
X43008619Y-52514749D01*
X43008620Y-52514753D01*
X43041013Y-52601603D01*
X43056204Y-52642331D01*
X43061518Y-52649430D01*
X43061519Y-52649431D01*
X43114053Y-52719608D01*
X43142454Y-52757546D01*
X43257669Y-52843796D01*
X43392517Y-52894091D01*
X43452127Y-52900500D01*
X44247872Y-52900499D01*
X44307483Y-52894091D01*
X44442331Y-52843796D01*
X44557546Y-52757546D01*
X44643796Y-52642331D01*
X44694091Y-52507483D01*
X44700500Y-52447873D01*
X44700499Y-51172769D01*
X46557162Y-51172769D01*
X46566453Y-51175000D01*
X47083547Y-51175000D01*
X47092837Y-51172769D01*
X47087845Y-51164622D01*
X46836542Y-50913319D01*
X46825000Y-50906655D01*
X46813457Y-50913319D01*
X46562154Y-51164622D01*
X46557162Y-51172769D01*
X44700499Y-51172769D01*
X44700499Y-51152128D01*
X44694091Y-51092517D01*
X44643796Y-50957669D01*
X44633210Y-50943528D01*
X46300000Y-50943528D01*
X46301189Y-50955604D01*
X46312122Y-51010566D01*
X46321289Y-51032698D01*
X46321352Y-51032794D01*
X46329367Y-51040425D01*
X46338717Y-51034504D01*
X46737318Y-50635903D01*
X46792905Y-50603809D01*
X46857093Y-50603809D01*
X46912680Y-50635903D01*
X47311283Y-51034506D01*
X47320630Y-51040425D01*
X47328646Y-51032794D01*
X47328710Y-51032698D01*
X47337877Y-51010566D01*
X47348810Y-50955604D01*
X47349394Y-50949674D01*
X47649500Y-50949674D01*
X47650688Y-50955649D01*
X47650689Y-50955653D01*
X47661650Y-51010759D01*
X47661651Y-51010762D01*
X47664034Y-51022740D01*
X47670820Y-51032896D01*
X47707600Y-51087943D01*
X47719399Y-51105601D01*
X47802260Y-51160966D01*
X47875326Y-51175500D01*
X48468579Y-51175500D01*
X48474674Y-51175500D01*
X48507672Y-51168936D01*
X48565159Y-51171107D01*
X48615481Y-51198989D01*
X48647804Y-51246580D01*
X48667117Y-51297503D01*
X48667118Y-51297505D01*
X48669780Y-51304523D01*
X48674043Y-51310699D01*
X48730290Y-51392188D01*
X48759517Y-51434530D01*
X48765126Y-51439499D01*
X48765127Y-51439500D01*
X48818380Y-51486678D01*
X48877760Y-51539283D01*
X49017635Y-51612696D01*
X49171015Y-51650500D01*
X49321485Y-51650500D01*
X49328985Y-51650500D01*
X49482365Y-51612696D01*
X49622240Y-51539283D01*
X49740483Y-51434530D01*
X49830220Y-51304523D01*
X49880188Y-51172769D01*
X51557162Y-51172769D01*
X51566453Y-51175000D01*
X52083547Y-51175000D01*
X52092837Y-51172769D01*
X52087845Y-51164622D01*
X51836542Y-50913319D01*
X51825000Y-50906655D01*
X51813457Y-50913319D01*
X51562154Y-51164622D01*
X51557162Y-51172769D01*
X49880188Y-51172769D01*
X49886237Y-51156818D01*
X49905278Y-51000000D01*
X49898421Y-50943528D01*
X51300000Y-50943528D01*
X51301189Y-50955604D01*
X51312122Y-51010566D01*
X51321289Y-51032698D01*
X51321352Y-51032794D01*
X51329367Y-51040425D01*
X51338717Y-51034504D01*
X51737318Y-50635903D01*
X51792905Y-50603809D01*
X51857093Y-50603809D01*
X51912680Y-50635903D01*
X52311283Y-51034506D01*
X52320630Y-51040425D01*
X52328646Y-51032794D01*
X52328710Y-51032698D01*
X52337877Y-51010566D01*
X52348810Y-50955604D01*
X52350000Y-50943528D01*
X52350000Y-50506472D01*
X52348810Y-50494395D01*
X52337878Y-50439436D01*
X52336022Y-50434955D01*
X52326582Y-50387500D01*
X52336022Y-50340045D01*
X52337878Y-50335563D01*
X52348810Y-50280604D01*
X52350000Y-50268528D01*
X52350000Y-49731472D01*
X52348810Y-49719395D01*
X52337877Y-49664433D01*
X52336021Y-49659951D01*
X52326582Y-49612496D01*
X52336023Y-49565042D01*
X52337878Y-49560563D01*
X52348810Y-49505604D01*
X52350000Y-49493528D01*
X52350000Y-49056472D01*
X52348810Y-49044395D01*
X52337878Y-48989437D01*
X52328707Y-48967296D01*
X52328646Y-48967205D01*
X52320631Y-48959573D01*
X52311281Y-48965494D01*
X51912680Y-49364095D01*
X51857092Y-49396189D01*
X51792905Y-49396189D01*
X51737318Y-49364095D01*
X51338718Y-48965495D01*
X51329367Y-48959573D01*
X51321354Y-48967203D01*
X51321289Y-48967300D01*
X51312122Y-48989433D01*
X51301189Y-49044395D01*
X51300000Y-49056472D01*
X51300000Y-49443677D01*
X51304718Y-49461286D01*
X51304811Y-49466667D01*
X51332585Y-49460000D01*
X51335415Y-49460000D01*
X51382868Y-49469439D01*
X51423096Y-49496319D01*
X51839096Y-49912319D01*
X51871190Y-49967906D01*
X51871190Y-50032094D01*
X51839096Y-50087681D01*
X51423096Y-50503681D01*
X51382868Y-50530561D01*
X51335415Y-50540000D01*
X51332584Y-50540000D01*
X51304812Y-50533332D01*
X51304719Y-50538713D01*
X51300000Y-50556325D01*
X51300000Y-50943528D01*
X49898421Y-50943528D01*
X49886237Y-50843182D01*
X49830220Y-50695477D01*
X49743912Y-50570437D01*
X49724469Y-50524803D01*
X49724469Y-50475197D01*
X49743912Y-50429562D01*
X49830220Y-50304523D01*
X49843871Y-50268528D01*
X51150000Y-50268528D01*
X51151189Y-50280604D01*
X51162121Y-50335564D01*
X51171291Y-50357701D01*
X51181365Y-50372778D01*
X51190596Y-50381567D01*
X51212385Y-50388765D01*
X51213767Y-50388934D01*
X51214653Y-50377682D01*
X51244903Y-50328319D01*
X51561680Y-50011542D01*
X51568344Y-50000000D01*
X51561680Y-49988457D01*
X51244904Y-49671681D01*
X51214654Y-49622318D01*
X51213768Y-49611063D01*
X51212389Y-49611231D01*
X51190595Y-49618431D01*
X51181366Y-49627219D01*
X51171292Y-49642296D01*
X51162121Y-49664437D01*
X51151189Y-49719395D01*
X51150000Y-49731472D01*
X51150000Y-50268528D01*
X49843871Y-50268528D01*
X49886237Y-50156818D01*
X49905278Y-50000000D01*
X49886237Y-49843182D01*
X49830220Y-49695477D01*
X49743913Y-49570439D01*
X49724469Y-49524802D01*
X49724469Y-49475195D01*
X49743909Y-49429565D01*
X49830220Y-49304523D01*
X49886237Y-49156818D01*
X49905278Y-49000000D01*
X49886237Y-48843182D01*
X49880187Y-48827230D01*
X51557162Y-48827230D01*
X51562154Y-48835377D01*
X51813457Y-49086680D01*
X51824999Y-49093344D01*
X51836542Y-49086680D01*
X52087845Y-48835377D01*
X52092837Y-48827230D01*
X52083547Y-48825000D01*
X51566453Y-48825000D01*
X51557162Y-48827230D01*
X49880187Y-48827230D01*
X49830220Y-48695477D01*
X49740483Y-48565470D01*
X49712265Y-48540471D01*
X49627856Y-48465692D01*
X49627854Y-48465690D01*
X49622240Y-48460717D01*
X49615595Y-48457229D01*
X49615593Y-48457228D01*
X49489006Y-48390789D01*
X49489002Y-48390787D01*
X49482365Y-48387304D01*
X49475087Y-48385510D01*
X49475084Y-48385509D01*
X49336267Y-48351294D01*
X49336260Y-48351293D01*
X49328985Y-48349500D01*
X49171015Y-48349500D01*
X49163740Y-48351292D01*
X49163732Y-48351294D01*
X49024915Y-48385509D01*
X49024909Y-48385510D01*
X49017635Y-48387304D01*
X49011000Y-48390786D01*
X49010993Y-48390789D01*
X48884406Y-48457228D01*
X48884400Y-48457231D01*
X48877760Y-48460717D01*
X48872148Y-48465687D01*
X48872143Y-48465692D01*
X48765127Y-48560499D01*
X48765122Y-48560503D01*
X48759517Y-48565470D01*
X48755262Y-48571634D01*
X48755257Y-48571640D01*
X48674043Y-48689300D01*
X48674040Y-48689303D01*
X48669780Y-48695477D01*
X48667119Y-48702492D01*
X48667117Y-48702497D01*
X48647804Y-48753419D01*
X48615482Y-48801009D01*
X48565161Y-48828891D01*
X48507674Y-48831064D01*
X48488398Y-48827230D01*
X48474674Y-48824500D01*
X47875326Y-48824500D01*
X47869351Y-48825688D01*
X47869346Y-48825689D01*
X47814240Y-48836650D01*
X47814235Y-48836651D01*
X47802260Y-48839034D01*
X47792105Y-48845819D01*
X47792103Y-48845820D01*
X47729551Y-48887615D01*
X47729548Y-48887617D01*
X47719399Y-48894399D01*
X47712617Y-48904548D01*
X47712615Y-48904551D01*
X47670820Y-48967103D01*
X47670819Y-48967105D01*
X47664034Y-48977260D01*
X47661651Y-48989235D01*
X47661650Y-48989240D01*
X47650689Y-49044346D01*
X47650688Y-49044351D01*
X47649500Y-49050326D01*
X47649500Y-49499674D01*
X47650688Y-49505649D01*
X47650689Y-49505653D01*
X47661651Y-49560763D01*
X47661652Y-49560765D01*
X47664034Y-49572740D01*
X47665347Y-49574705D01*
X47672865Y-49612496D01*
X47665347Y-49650293D01*
X47664034Y-49652260D01*
X47661652Y-49664231D01*
X47661652Y-49664233D01*
X47650689Y-49719346D01*
X47650688Y-49719351D01*
X47649500Y-49725326D01*
X47649500Y-50274674D01*
X47650688Y-50280649D01*
X47650689Y-50280653D01*
X47661651Y-50335763D01*
X47661652Y-50335765D01*
X47664034Y-50347740D01*
X47665347Y-50349705D01*
X47672865Y-50387496D01*
X47665347Y-50425293D01*
X47664034Y-50427260D01*
X47661652Y-50439231D01*
X47661652Y-50439233D01*
X47650689Y-50494346D01*
X47650688Y-50494351D01*
X47649500Y-50500326D01*
X47649500Y-50949674D01*
X47349394Y-50949674D01*
X47350000Y-50943528D01*
X47350000Y-50506472D01*
X47348810Y-50494395D01*
X47337878Y-50439436D01*
X47336022Y-50434955D01*
X47326582Y-50387500D01*
X47336022Y-50340045D01*
X47337878Y-50335563D01*
X47348810Y-50280604D01*
X47350000Y-50268528D01*
X47350000Y-49731472D01*
X47348810Y-49719395D01*
X47337877Y-49664433D01*
X47336021Y-49659951D01*
X47326582Y-49612496D01*
X47336023Y-49565042D01*
X47337878Y-49560563D01*
X47348810Y-49505604D01*
X47350000Y-49493528D01*
X47350000Y-49056472D01*
X47348810Y-49044395D01*
X47337878Y-48989437D01*
X47328707Y-48967296D01*
X47328646Y-48967205D01*
X47320631Y-48959573D01*
X47311281Y-48965494D01*
X46912680Y-49364095D01*
X46857092Y-49396189D01*
X46792905Y-49396189D01*
X46737318Y-49364095D01*
X46338718Y-48965495D01*
X46329367Y-48959573D01*
X46321354Y-48967203D01*
X46321289Y-48967300D01*
X46312122Y-48989433D01*
X46301189Y-49044395D01*
X46300000Y-49056472D01*
X46300000Y-49443677D01*
X46304718Y-49461286D01*
X46304811Y-49466667D01*
X46332585Y-49460000D01*
X46335415Y-49460000D01*
X46382868Y-49469439D01*
X46423096Y-49496319D01*
X46839096Y-49912319D01*
X46871190Y-49967906D01*
X46871190Y-50032094D01*
X46839096Y-50087681D01*
X46423096Y-50503681D01*
X46382868Y-50530561D01*
X46335415Y-50540000D01*
X46332584Y-50540000D01*
X46304812Y-50533332D01*
X46304719Y-50538713D01*
X46300000Y-50556325D01*
X46300000Y-50943528D01*
X44633210Y-50943528D01*
X44557546Y-50842454D01*
X44442331Y-50756204D01*
X44307483Y-50705909D01*
X44299770Y-50705079D01*
X44299767Y-50705079D01*
X44251180Y-50699855D01*
X44251169Y-50699854D01*
X44247873Y-50699500D01*
X44244550Y-50699500D01*
X43455439Y-50699500D01*
X43455420Y-50699500D01*
X43452128Y-50699501D01*
X43448850Y-50699853D01*
X43448838Y-50699854D01*
X43400231Y-50705079D01*
X43400225Y-50705080D01*
X43392517Y-50705909D01*
X43385252Y-50708618D01*
X43385246Y-50708620D01*
X43265980Y-50753104D01*
X43265978Y-50753104D01*
X43257669Y-50756204D01*
X43250572Y-50761516D01*
X43250568Y-50761519D01*
X43149550Y-50837141D01*
X43149546Y-50837144D01*
X43142454Y-50842454D01*
X43137144Y-50849546D01*
X43137141Y-50849550D01*
X43061519Y-50950568D01*
X43061516Y-50950572D01*
X43056204Y-50957669D01*
X43053104Y-50965978D01*
X43053104Y-50965980D01*
X43008620Y-51085247D01*
X43008619Y-51085250D01*
X43005909Y-51092517D01*
X43005079Y-51100227D01*
X43005079Y-51100232D01*
X42999855Y-51148819D01*
X42999854Y-51148831D01*
X42999500Y-51152127D01*
X42999500Y-51155448D01*
X42999500Y-51155449D01*
X42999500Y-52444560D01*
X42999500Y-52444578D01*
X42162835Y-52444578D01*
X42136424Y-52408685D01*
X42125500Y-52357794D01*
X42125500Y-50695197D01*
X42141061Y-50635056D01*
X42183837Y-50590010D01*
X42243094Y-50571363D01*
X42303955Y-50583794D01*
X42316375Y-50589866D01*
X42389364Y-50600500D01*
X42706150Y-50600500D01*
X42710636Y-50600500D01*
X42783625Y-50589866D01*
X42896211Y-50534826D01*
X42984826Y-50446211D01*
X43039866Y-50333625D01*
X43049350Y-50268528D01*
X46150000Y-50268528D01*
X46151189Y-50280604D01*
X46162121Y-50335564D01*
X46171291Y-50357701D01*
X46181365Y-50372778D01*
X46190596Y-50381567D01*
X46212385Y-50388765D01*
X46213767Y-50388934D01*
X46214653Y-50377682D01*
X46244903Y-50328319D01*
X46561680Y-50011542D01*
X46568344Y-50000000D01*
X46561680Y-49988457D01*
X46244904Y-49671681D01*
X46214654Y-49622318D01*
X46213768Y-49611063D01*
X46212389Y-49611231D01*
X46190595Y-49618431D01*
X46181366Y-49627219D01*
X46171292Y-49642296D01*
X46162121Y-49664437D01*
X46151189Y-49719395D01*
X46150000Y-49731472D01*
X46150000Y-50268528D01*
X43049350Y-50268528D01*
X43050500Y-50260636D01*
X43050500Y-49439364D01*
X43039866Y-49366375D01*
X43021219Y-49328234D01*
X43008727Y-49278902D01*
X43017104Y-49228702D01*
X43044938Y-49186098D01*
X43403806Y-48827230D01*
X46557162Y-48827230D01*
X46562154Y-48835377D01*
X46813457Y-49086680D01*
X46825000Y-49093344D01*
X46836542Y-49086680D01*
X47087845Y-48835377D01*
X47092837Y-48827230D01*
X47083547Y-48825000D01*
X46566453Y-48825000D01*
X46557162Y-48827230D01*
X43403806Y-48827230D01*
X44119217Y-48111819D01*
X44159446Y-48084939D01*
X44206899Y-48075500D01*
X52743101Y-48075500D01*
X52790554Y-48084939D01*
G37*
%TD.AperFunction*%
%TD*%
M02*
