  0
SECTION
  2
HEADER
  9
$ACADVER
  1
AC1006
  9
$EXTMIN
 10
0.000000
 20
0.000000
 30
0.000000
  9
$EXTMAX
 10
313.000000
 20
235.000000
 30
0.000000
  0
ENDSEC
  0
SECTION
  2
ENTITIES
  0
POLYLINE
  8
0
 66
1
 70
1
  0
VERTEX
  8
0
 10
147.524463
 20
209.641546
 42
0.078939
  0
VERTEX
  8
0
 10
146.780318
 20
208.892136
 42
0.055965
  0
VERTEX
  8
0
 10
146.198227
 20
207.857594
 42
0.052796
  0
VERTEX
  8
0
 10
145.831322
 20
206.651007
 42
0.052440
  0
VERTEX
  8
0
 10
145.724109
 20
205.391546
 42
0.033498
  0
VERTEX
  8
0
 10
145.908459
 20
203.273856
 42
0.000676
  0
VERTEX
  8
0
 10
147.569079
 20
192.656969
 42
0.001596
  0
VERTEX
  8
0
 10
149.566162
 20
180.258261
 42
0.001072
  0
VERTEX
  8
0
 10
151.924196
 20
166.100262
 42
-0.001016
  0
VERTEX
  8
0
 10
154.258780
 20
152.092625
 42
-0.001650
  0
VERTEX
  8
0
 10
156.179184
 20
140.178690
 42
-0.000214
  0
VERTEX
  8
0
 10
157.848286
 20
129.572323
 42
-0.132334
  0
VERTEX
  8
0
 10
157.783421
 20
128.971139
 42
-0.480175
  0
VERTEX
  8
0
 10
157.408598
 20
128.853197
 42
-0.000327
  0
VERTEX
  8
0
 10
147.330641
 20
135.617379
 42
-0.002810
  0
VERTEX
  8
0
 10
136.001774
 20
143.324694
 42
-0.001674
  0
VERTEX
  8
0
 10
122.597485
 20
152.620877
 42
0.001631
  0
VERTEX
  8
0
 10
109.123793
 20
161.966881
 42
0.002621
  0
VERTEX
  8
0
 10
97.566824
 20
169.838633
 42
0.000482
  0
VERTEX
  8
0
 10
87.335328
 20
176.715013
 42
0.148777
  0
VERTEX
  8
0
 10
86.398766
 20
177.000000
 42
0.194200
  0
VERTEX
  8
0
 10
85.522735
 20
176.646415
 42
0.000720
  0
VERTEX
  8
0
 10
77.463570
 20
168.852160
 42
0.003576
  0
VERTEX
  8
0
 10
68.361067
 20
159.896208
 42
0.002221
  0
VERTEX
  8
0
 10
57.801281
 20
149.262674
 42
-0.000013
  0
VERTEX
  8
0
 10
46.998404
 20
138.287829
 42
-0.000017
  0
VERTEX
  8
0
 10
37.124439
 20
128.257887
 42
-0.000012
  0
VERTEX
  8
0
 10
28.846539
 20
119.850215
 42
-0.000160
  0
VERTEX
  8
0
 10
25.750000
 20
116.707304
 42
0.016500
  0
VERTEX
  8
0
 10
23.931147
 20
114.736370
 42
0.021040
  0
VERTEX
  8
0
 10
22.395312
 20
112.798687
 42
0.019532
  0
VERTEX
  8
0
 10
21.265434
 20
111.107846
 42
0.138380
  0
VERTEX
  8
0
 10
21.000000
 20
110.167137
 42
0.104870
  0
VERTEX
  8
0
 10
21.417828
 20
108.196922
 42
0.066688
  0
VERTEX
  8
0
 10
22.650188
 20
106.191983
 42
0.066613
  0
VERTEX
  8
0
 10
24.368915
 20
104.579683
 42
0.103892
  0
VERTEX
  8
0
 10
26.221193
 20
103.767151
 42
-0.043324
  0
VERTEX
  8
0
 10
29.645172
 20
102.734411
 42
-0.000051
  0
VERTEX
  8
0
 10
98.341046
 20
75.325176
 42
-0.000114
  0
VERTEX
  8
0
 10
165.222911
 20
48.614188
 42
-0.018943
  0
VERTEX
  8
0
 10
172.403638
 20
45.424019
 42
0.044812
  0
VERTEX
  8
0
 10
175.101485
 20
44.388799
 42
0.072526
  0
VERTEX
  8
0
 10
177.533544
 20
44.065813
 42
0.090876
  0
VERTEX
  8
0
 10
179.546694
 20
44.461385
 42
0.126365
  0
VERTEX
  8
0
 10
181.028338
 20
45.534146
 42
0.070817
  0
VERTEX
  8
0
 10
181.699384
 20
46.625398
 42
0.005606
  0
VERTEX
  8
0
 10
183.022216
 20
49.765418
 42
0.007520
  0
VERTEX
  8
0
 10
184.507907
 20
53.568027
 42
0.005688
  0
VERTEX
  8
0
 10
186.028069
 20
57.784146
 42
-0.001540
  0
VERTEX
  8
0
 10
187.815749
 20
62.874158
 42
-0.000728
  0
VERTEX
  8
0
 10
190.152064
 20
69.430980
 42
-0.000721
  0
VERTEX
  8
0
 10
192.617228
 20
76.286501
 42
-0.001019
  0
VERTEX
  8
0
 10
194.834237
 20
82.385150
 42
0.002967
  0
VERTEX
  8
0
 10
198.043262
 20
91.320929
 42
0.034510
  0
VERTEX
  8
0
 10
199.032782
 20
94.898413
 42
0.085577
  0
VERTEX
  8
0
 10
199.105595
 20
97.315137
 42
0.064246
  0
VERTEX
  8
0
 10
198.397272
 20
99.885150
 42
-0.006653
  0
VERTEX
  8
0
 10
193.406098
 20
112.239712
 42
-0.000276
  0
VERTEX
  8
0
 10
176.174742
 20
156.654505
 42
-0.000023
  0
VERTEX
  8
0
 10
157.215734
 20
205.609352
 42
-0.092624
  0
VERTEX
  8
0
 10
157.000000
 20
206.763930
 42
0.182013
  0
VERTEX
  8
0
 10
156.525930
 20
208.023085
 42
0.051605
  0
VERTEX
  8
0
 10
154.964456
 20
209.470504
 42
0.051549
  0
VERTEX
  8
0
 10
153.043771
 20
210.625441
 42
0.110036
  0
VERTEX
  8
0
 10
151.362389
 20
211.000000
 42
0.054566
  0
VERTEX
  8
0
 10
150.469518
 20
210.902267
 42
0.030546
  0
VERTEX
  8
0
 10
149.418195
 20
210.600954
 42
0.030120
  0
VERTEX
  8
0
 10
148.380633
 20
210.161773
 42
0.042710
  0
SEQEND
  0
POLYLINE
  8
0
 66
1
 70
1
  0
VERTEX
  8
0
 10
106.747659
 20
134.789264
 42
-0.000938
  0
VERTEX
  8
0
 10
114.493747
 20
124.370535
 42
-0.001562
  0
VERTEX
  8
0
 10
120.974819
 20
115.561632
 42
-0.000099
  0
VERTEX
  8
0
 10
126.766507
 20
107.634683
 42
-0.377174
  0
VERTEX
  8
0
 10
126.747659
 20
107.427121
 42
-0.213630
  0
VERTEX
  8
0
 10
126.114397
 20
107.204570
 42
-0.000028
  0
VERTEX
  8
0
 10
83.467304
 20
110.753856
 42
-0.000036
  0
VERTEX
  8
0
 10
40.924485
 20
114.299873
 42
-0.154951
  0
VERTEX
  8
0
 10
40.088749
 20
114.644079
 42
-0.435743
  0
VERTEX
  8
0
 10
40.060149
 20
115.206804
 42
-0.000082
  0
VERTEX
  8
0
 10
62.554332
 20
138.346546
 42
-0.000130
  0
VERTEX
  8
0
 10
84.901423
 20
161.315514
 42
-0.171963
  0
VERTEX
  8
0
 10
86.000000
 20
161.857434
 42
-0.264351
  0
VERTEX
  8
0
 10
86.325689
 20
161.720040
 42
-0.000184
  0
VERTEX
  8
0
 10
92.300875
 20
153.930542
 42
-0.001990
  0
VERTEX
  8
0
 10
98.948279
 20
145.186233
 42
-0.001207
  0
SEQEND
  0
POLYLINE
  8
0
 66
1
 70
1
  0
VERTEX
  8
0
 10
174.467825
 20
130.189149
 42
-0.002401
  0
VERTEX
  8
0
 10
177.026980
 20
123.525570
 42
-0.003935
  0
VERTEX
  8
0
 10
179.122594
 20
117.855316
 42
-0.000680
  0
VERTEX
  8
0
 10
180.920107
 20
112.850045
 42
-0.289943
  0
VERTEX
  8
0
 10
180.843823
 20
112.510490
 42
-0.335188
  0
VERTEX
  8
0
 10
180.550681
 20
112.469610
 42
-0.007503
  0
VERTEX
  8
0
 10
179.242245
 20
113.224481
 42
-0.013841
  0
VERTEX
  8
0
 10
177.685828
 20
114.213260
 42
-0.008530
  0
VERTEX
  8
0
 10
175.908138
 20
115.457593
 42
0.000000
  0
VERTEX
  8
0
 10
171.340261
 20
118.772505
 42
0.000000
  0
VERTEX
  8
0
 10
169.102383
 20
132.636252
 42
0.001023
  0
VERTEX
  8
0
 10
168.210205
 20
138.092386
 42
0.001388
  0
VERTEX
  8
0
 10
167.380882
 20
143.015024
 42
0.000921
  0
VERTEX
  8
0
 10
166.665514
 20
147.144766
 42
0.015547
  0
VERTEX
  8
0
 10
166.384504
 20
148.500000
 42
-0.785427
  0
VERTEX
  8
0
 10
166.705007
 20
148.664728
 42
-0.074701
  0
VERTEX
  8
0
 10
167.571648
 20
147.297186
 42
-0.009199
  0
VERTEX
  8
0
 10
170.143042
 20
141.169585
 42
-0.001860
  0
SEQEND
  0
POLYLINE
  8
0
 66
1
 70
1
  0
VERTEX
  8
0
 10
137.034228
 20
128.889962
 42
-0.003104
  0
VERTEX
  8
0
 10
145.924291
 20
122.584012
 42
-0.004698
  0
VERTEX
  8
0
 10
153.574077
 20
116.976382
 42
-0.001910
  0
VERTEX
  8
0
 10
160.051620
 20
112.095161
 42
-0.107866
  0
VERTEX
  8
0
 10
161.023707
 20
110.955703
 42
-0.044175
  0
VERTEX
  8
0
 10
161.398289
 20
110.077343
 42
-0.023230
  0
VERTEX
  8
0
 10
161.713214
 20
108.932129
 42
-0.022923
  0
VERTEX
  8
0
 10
161.928815
 20
107.720283
 42
-0.032569
  0
VERTEX
  8
0
 10
162.000000
 20
106.628612
 42
-0.041618
  0
VERTEX
  8
0
 10
161.884068
 20
105.238215
 42
-0.211119
  0
VERTEX
  8
0
 10
161.466304
 20
104.604040
 42
-0.155311
  0
VERTEX
  8
0
 10
160.623702
 20
104.376271
 42
-0.020321
  0
VERTEX
  8
0
 10
158.750000
 20
104.535520
 42
0.004627
  0
VERTEX
  8
0
 10
157.058267
 20
104.732939
 42
0.001408
  0
VERTEX
  8
0
 10
154.492197
 20
105.001040
 42
0.001409
  0
VERTEX
  8
0
 10
151.615329
 20
105.285240
 42
0.001537
  0
VERTEX
  8
0
 10
148.819181
 20
105.544835
 42
0.000000
  0
VERTEX
  8
0
 10
142.138362
 20
106.144371
 42
0.000000
  0
VERTEX
  8
0
 10
127.559989
 20
125.572185
 42
-0.001605
  0
VERTEX
  8
0
 10
122.006480
 20
133.022734
 42
-0.002729
  0
VERTEX
  8
0
 10
117.416678
 20
139.293079
 42
-0.000375
  0
VERTEX
  8
0
 10
113.415151
 20
144.831577
 42
-0.611630
  0
VERTEX
  8
0
 10
113.501329
 20
145.000000
 42
-0.151023
  0
VERTEX
  8
0
 10
113.882460
 20
144.882194
 42
-0.000184
  0
VERTEX
  8
0
 10
120.628499
 20
140.267676
 42
-0.001619
  0
VERTEX
  8
0
 10
128.173660
 20
135.066477
 42
-0.000993
  0
SEQEND
  0
POLYLINE
  8
0
 66
1
 70
1
  0
VERTEX
  8
0
 10
101.866216
 20
98.034014
 42
-0.001344
  0
VERTEX
  8
0
 10
121.397172
 20
96.321143
 42
-0.010409
  0
VERTEX
  8
0
 10
130.505303
 20
95.306126
 42
-0.016492
  0
VERTEX
  8
0
 10
135.791683
 20
94.427062
 42
-0.190122
  0
VERTEX
  8
0
 10
137.526315
 20
93.306585
 42
0.004900
  0
VERTEX
  8
0
 10
138.431052
 20
92.069146
 42
0.000230
  0
VERTEX
  8
0
 10
141.529512
 20
87.921272
 42
0.000379
  0
VERTEX
  8
0
 10
145.214222
 20
83.001094
 42
0.000272
  0
VERTEX
  8
0
 10
149.337278
 20
77.510512
 42
-0.002300
  0
VERTEX
  8
0
 10
153.347845
 20
72.124384
 42
-0.003814
  0
VERTEX
  8
0
 10
156.674843
 20
67.540314
 42
-0.000591
  0
VERTEX
  8
0
 10
159.569620
 20
63.476932
 42
-0.365941
  0
VERTEX
  8
0
 10
159.547557
 20
63.214223
 42
-0.298081
  0
VERTEX
  8
0
 10
159.257885
 20
63.153690
 42
-0.000065
  0
VERTEX
  8
0
 10
145.415830
 20
68.578540
 42
-0.001215
  0
VERTEX
  8
0
 10
130.056050
 20
74.643614
 42
-0.000732
  0
VERTEX
  8
0
 10
111.870378
 20
81.906552
 42
-0.001068
  0
VERTEX
  8
0
 10
93.808519
 20
89.195566
 42
-0.001858
  0
VERTEX
  8
0
 10
78.855674
 20
95.331910
 42
-0.000359
  0
VERTEX
  8
0
 10
65.954627
 20
100.693184
 42
-0.813066
  0
VERTEX
  8
0
 10
66.000000
 20
100.930269
 42
-0.024083
  0
VERTEX
  8
0
 10
67.160310
 20
100.893398
 42
-0.000163
  0
VERTEX
  8
0
 10
77.154451
 20
100.089637
 42
-0.000642
  0
VERTEX
  8
0
 10
88.585235
 20
99.151803
 42
-0.000411
  0
SEQEND
  0
POLYLINE
  8
0
 66
1
 70
1
  0
VERTEX
  8
0
 10
164.000000
 20
92.300052
 42
-0.166035
  0
VERTEX
  8
0
 10
164.448650
 20
91.496864
 42
-0.000828
  0
VERTEX
  8
0
 10
166.115321
 20
82.269120
 42
-0.000655
  0
VERTEX
  8
0
 10
167.769885
 20
72.950448
 42
-0.226879
  0
VERTEX
  8
0
 10
167.582225
 20
72.277083
 42
-0.479215
  0
VERTEX
  8
0
 10
167.151700
 20
72.294729
 42
-0.000364
  0
VERTEX
  8
0
 10
159.674731
 20
82.435395
 42
-0.000595
  0
VERTEX
  8
0
 10
152.328258
 20
92.439207
 42
-0.159387
  0
VERTEX
  8
0
 10
152.000000
 20
93.442797
 42
-0.437021
  0
VERTEX
  8
0
 10
152.484314
 20
93.891078
 42
-0.004426
  0
VERTEX
  8
0
 10
157.663732
 20
93.444079
 42
-0.006796
  0
VERTEX
  8
0
 10
162.690131
 20
92.896387
 42
-0.153742
  0
SEQEND
  0
POLYLINE
  8
0
 66
1
 70
1
  0
VERTEX
  8
0
 10
183.144861
 20
91.131685
 42
0.000000
  0
VERTEX
  8
0
 10
185.789723
 20
90.500000
 42
0.000000
  0
VERTEX
  8
0
 10
182.461612
 20
81.500000
 42
-0.002321
  0
VERTEX
  8
0
 10
181.179958
 20
78.082953
 42
-0.004161
  0
VERTEX
  8
0
 10
180.091124
 20
75.290625
 42
-0.001483
  0
VERTEX
  8
0
 10
179.163045
 20
72.987696
 42
-0.768178
  0
VERTEX
  8
0
 10
179.065383
 20
73.000000
 42
0.009095
  0
VERTEX
  8
0
 10
179.006873
 20
73.377949
 42
0.000108
  0
VERTEX
  8
0
 10
178.577454
 20
75.850000
 42
0.000325
  0
VERTEX
  8
0
 10
178.078764
 20
78.706154
 42
0.000213
  0
VERTEX
  8
0
 10
177.500000
 20
82.000000
 42
-0.001389
  0
VERTEX
  8
0
 10
176.926179
 20
85.311423
 42
-0.002046
  0
VERTEX
  8
0
 10
176.442154
 20
88.223438
 42
-0.000941
  0
VERTEX
  8
0
 10
176.044498
 20
90.707505
 42
-0.038777
  0
VERTEX
  8
0
 10
176.001367
 20
91.250000
 42
-0.373978
  0
VERTEX
  8
0
 10
176.438283
 20
91.754301
 42
-0.039441
  0
VERTEX
  8
0
 10
178.122768
 20
91.859347
 42
-0.034088
  0
VERTEX
  8
0
 10
180.435947
 20
91.662927
 42
-0.020399
  0
SEQEND
  0
ENDSEC
  0
EOF
